<svg width="1200" height="630" viewBox="0 0 1200 630" fill="none"
  xmlns="http://www.w3.org/2000/svg">
  <g clip-path="url(#clip0_1908_1713)">
    <g filter="url(#filter0_f_1908_1713)">
      <mask id="mask0_1908_1713" style="mask-type:alpha" maskUnits="userSpaceOnUse" x="37" y="577" width="1125" height="1125">
        <circle cx="599.535" cy="1139.54" r="561.823" transform="rotate(45 599.535 1139.54)" fill="white"/>
      </mask>
      <g mask="url(#mask0_1908_1713)">
        <g filter="url(#filter1_d_1908_1713)">
          <circle cx="699.996" cy="1138.58" r="520.613" transform="rotate(45 699.996 1138.58)" fill="url(#paint0_linear_1908_1713)"/>
          <ellipse cx="395.741" cy="1138.84" rx="581.344" ry="555.922" transform="rotate(45 395.741 1138.84)" fill="#B8B999"/>
          <circle cx="220.082" cy="1139.5" r="561.823" transform="rotate(45 220.082 1139.5)" fill="url(#paint1_linear_1908_1713)"/>
        </g>
      </g>
    </g>
    <g clip-path="url(#clip1_1908_1713)">
      <circle cx="126.577" cy="179.577" r="51.0772" fill="white" stroke="#D0D5DD"/>
      <path d="M97.7196 165.753V193.397C97.7196 195.161 98.6626 196.794 100.19 197.673L124.13 211.498C125.658 212.377 127.539 212.377 129.066 211.498L153.006 197.673C154.534 196.794 155.477 195.161 155.477 193.397V165.753C155.477 163.988 154.534 162.356 153.006 161.477L129.066 147.652C127.539 146.773 125.658 146.773 124.13 147.652L100.184 161.477C98.6568 162.356 97.7196 163.988 97.7196 165.753Z" fill="#213147"/>
      <path d="M131.821 184.936L128.407 194.299C128.314 194.559 128.314 194.843 128.407 195.104L134.28 211.214L141.074 207.29L132.92 184.936C132.735 184.422 132.006 184.422 131.82 184.936H131.821Z" fill="#12AAFF"/>
      <path d="M138.667 169.191C138.482 168.676 137.753 168.676 137.568 169.191L134.153 178.553C134.061 178.814 134.061 179.098 134.153 179.358L143.776 205.734L150.57 201.81L138.666 169.191H138.667Z" fill="#12AAFF"/>
      <path d="M126.596 148.688C126.764 148.688 126.932 148.734 127.082 148.816L152.989 163.774C153.29 163.948 153.475 164.272 153.475 164.613V194.525C153.475 194.872 153.29 195.19 152.989 195.364L127.082 210.323C126.937 210.409 126.764 210.45 126.596 210.45C126.428 210.45 126.26 210.404 126.11 210.323L100.202 195.376C99.9018 195.202 99.7165 194.878 99.7165 194.536V164.619C99.7165 164.272 99.9018 163.954 100.202 163.78L126.11 148.822C126.26 148.735 126.428 148.688 126.596 148.688ZM126.596 144.319C125.676 144.319 124.749 144.557 123.922 145.037L98.0209 159.99C96.3657 160.944 95.3477 162.71 95.3477 164.619V194.53C95.3477 196.44 96.3663 198.205 98.0209 199.159L123.928 214.118C124.756 214.592 125.676 214.835 126.601 214.835C127.527 214.835 128.448 214.598 129.275 214.118L155.182 199.159C156.837 198.205 157.855 196.439 157.855 194.53V164.619C157.855 162.709 156.837 160.944 155.182 159.99L129.269 145.037C128.441 144.557 127.516 144.319 126.596 144.319Z" fill="#9DCCED"/>
      <path d="M109.461 205.769L111.845 199.241L116.643 203.228L112.158 207.325L109.461 205.769Z" fill="#213147"/>
      <path d="M124.414 162.478H117.846C117.355 162.478 116.915 162.785 116.747 163.248L102.668 201.845L109.461 205.769L124.964 163.265C125.109 162.883 124.825 162.478 124.414 162.478Z" fill="white"/>
      <path d="M135.907 162.478H129.339C128.847 162.478 128.407 162.784 128.239 163.248L112.164 207.32L118.957 211.243L136.457 163.265C136.596 162.883 136.312 162.478 135.907 162.478Z" fill="white"/>
    </g>
    <g clip-path="url(#clip2_1908_1713)">
      <circle cx="261.733" cy="179.577" r="51.5772" fill="#E84142"/>
      <path d="M236.86 200.035H246.87C249.227 200.035 250.405 200.035 251.457 199.744C252.61 199.401 253.662 198.793 254.536 197.957C255.339 197.192 255.918 196.178 257.061 194.178L257.095 194.118L270.078 171.169C271.231 169.154 271.801 168.14 272.054 167.076C272.333 165.923 272.333 164.707 272.054 163.554C271.803 162.497 271.227 161.491 270.091 159.506L264.984 150.592C263.932 148.742 263.4 147.817 262.729 147.475C262.006 147.107 261.145 147.107 260.423 147.475C259.751 147.817 259.219 148.742 258.167 150.592L233.452 194.156C232.413 195.98 231.894 196.893 231.932 197.64C231.982 198.451 232.4 199.186 233.085 199.63C233.718 200.035 234.757 200.035 236.86 200.035Z" fill="white"/>
      <path d="M286.491 200.035H272.148C270.032 200.035 268.968 200.035 268.347 199.63C267.663 199.186 267.244 198.439 267.194 197.628C267.156 196.886 267.68 195.982 268.727 194.173L268.728 194.173L268.752 194.131L275.911 181.84C276.963 180.028 277.495 179.129 278.154 178.787C278.876 178.419 279.725 178.419 280.447 178.787C281.101 179.12 281.611 179.981 282.619 181.687L282.621 181.689L282.702 181.828L289.887 194.118C289.922 194.178 289.956 194.238 289.99 194.297L289.991 194.297C290.986 196.015 291.495 196.892 291.458 197.615C291.42 198.426 290.989 199.174 290.305 199.617C289.671 200.035 288.607 200.035 286.491 200.035Z" fill="white"/>
    </g>
    <circle cx="396.886" cy="179.577" r="51.5772" fill="#0052FF"/>
    <path d="M396.819 215.967C416.952 215.967 433.273 199.674 433.273 179.576C433.273 159.478 416.952 143.186 396.819 143.186C377.718 143.186 362.048 157.851 360.492 176.517H408.676V182.635H360.492C362.048 201.302 377.718 215.967 396.819 215.967Z" fill="white"/>
    <circle cx="532.042" cy="179.577" r="51.5772" fill="#F0B90B"/>
    <path d="M550.316 176.751L550.279 168.767H550.308L543.526 164.774L531.905 171.627L520.354 164.774L513.576 168.767V176.751L525.197 183.57V197.242L531.946 201.197L538.695 197.242V183.57L550.316 176.751Z" fill="white"/>
    <path d="M531.909 144.321L513.572 155.133L520.321 159.125L531.909 152.273L543.53 159.125L550.279 155.133L531.909 144.321Z" fill="white"/>
    <path d="M508.735 193.216L508.698 179.578L501.953 175.59V197.246L520.324 208.02V200.035L508.735 193.216Z" fill="white"/>
    <path d="M508.698 173.887V165.94L515.48 161.948L508.698 157.955L501.949 161.948V169.895L508.698 173.887Z" fill="white"/>
    <path d="M531.912 157.955L525.163 161.948L531.912 165.94L538.694 161.948L531.912 157.955Z" fill="white"/>
    <path d="M520.321 186.397L513.572 182.405V190.39L520.321 194.345V186.397Z" fill="white"/>
    <path d="M531.909 206.888L525.16 202.895V210.843L531.909 214.835L538.691 210.843V202.895L531.909 206.888Z" fill="white"/>
    <path d="M555.119 157.955L548.37 161.948L555.119 165.94V173.887L561.901 169.895V161.948L555.119 157.955Z" fill="white"/>
    <path d="M561.905 175.586L555.156 179.578L555.119 193.216L543.534 200.031V208.016L561.905 197.242V175.586Z" fill="white"/>
    <path d="M550.281 190.39L543.533 194.345V186.397L550.281 182.405V190.39Z" fill="white"/>
    <g clip-path="url(#clip3_1908_1713)">
      <circle cx="667.194" cy="179.577" r="50.9924" fill="#FCFF42" stroke="#D0D5DD" stroke-width="1.16968"/>
      <path d="M692.976 153.79H641.398V205.367H692.976V187.362H684.411C681.462 193.934 674.823 198.499 667.227 198.499C656.75 198.499 648.266 189.934 648.266 179.538C648.253 169.142 656.75 160.658 667.227 160.658C674.971 160.658 681.61 165.371 684.559 172.091H692.976V153.79Z" fill="black"/>
    </g>
    <g clip-path="url(#clip4_1908_1713)">
      <circle cx="802.351" cy="179.577" r="51.0772" fill="white" stroke="#D0D5DD"/>
      <path d="M801.759 136.059L801.173 138.041V195.57L801.759 196.152L828.573 180.368L801.759 136.059Z" fill="#343434"/>
      <path d="M801.76 136.059L774.945 180.368L801.76 196.153V136.059Z" fill="#8C8C8C"/>
      <path d="M801.758 201.209L801.428 201.609V222.103L801.758 223.063L828.589 185.432L801.758 201.209Z" fill="#3C3C3B"/>
      <path d="M801.76 223.063V201.209L774.945 185.432L801.76 223.063Z" fill="#8C8C8C"/>
      <path d="M801.759 196.152L828.573 180.367L801.759 168.23V196.152Z" fill="#141414"/>
      <path d="M774.945 180.367L801.759 196.152V168.23L774.945 180.367Z" fill="#393939"/>
    </g>
    <circle cx="937.503" cy="179.577" r="51.0772" fill="#131313" stroke="#424242"/>
    <path d="M910.656 183.5C920.121 188.526 929.997 193.788 937.625 197.859L964.372 183.5C954.687 197.888 946.618 209.866 937.625 223.122C928.615 209.895 918.666 195.3 910.656 183.5ZM911.685 179.531L937.654 165.674L963.285 179.43L937.669 193.303L911.685 179.531ZM937.625 161.235L910.656 175.432L937.507 136.118L964.372 175.52L937.625 161.235Z" fill="#33FF99"/>
    <path d="M937.625 197.859L964.372 183.5C954.687 197.888 937.625 223.122 937.625 223.122V197.859ZM937.654 165.674L963.285 179.43L937.669 193.303L937.654 165.674ZM937.625 161.236L937.507 136.118L964.372 175.52L937.625 161.236Z" fill="#33FF99"/>
    <path d="M911.685 179.532L937.655 181.663L963.286 179.444L937.669 193.317L911.685 179.532Z" fill="#33FF99"/>
    <path d="M937.654 181.663L963.285 179.444L937.669 193.317L937.654 181.663Z" fill="#33FF99"/>
    <circle cx="1072.66" cy="179.577" r="51.5772" fill="#FF0420"/>
    <path d="M1057.62 193.275C1054.54 193.275 1052.03 192.553 1050.07 191.108C1048.13 189.644 1047.16 187.539 1047.16 184.837C1047.16 184.259 1047.22 183.578 1047.34 182.753C1047.67 180.896 1048.15 178.668 1048.77 176.048C1050.52 168.951 1055.06 165.402 1062.36 165.402C1064.34 165.402 1066.14 165.732 1067.7 166.413C1069.27 167.053 1070.51 168.043 1071.42 169.363C1072.33 170.663 1072.78 172.211 1072.78 174.005C1072.78 174.542 1072.72 175.223 1072.59 176.048C1072.2 178.338 1071.75 180.587 1071.19 182.753C1070.28 186.281 1068.74 188.942 1066.51 190.696C1064.3 192.429 1061.33 193.275 1057.62 193.275ZM1058.17 187.704C1059.62 187.704 1060.83 187.271 1061.85 186.425C1062.88 185.579 1063.62 184.28 1064.05 182.505C1064.65 180.071 1065.11 177.967 1065.41 176.151C1065.52 175.615 1065.58 175.058 1065.58 174.48C1065.58 172.128 1064.36 170.952 1061.91 170.952C1060.46 170.952 1059.23 171.385 1058.19 172.231C1057.18 173.077 1056.46 174.377 1056.03 176.151C1055.55 177.884 1055.1 179.988 1054.62 182.505C1054.52 183.021 1054.46 183.558 1054.46 184.135C1054.44 186.528 1055.7 187.704 1058.17 187.704Z" fill="white"/>
    <path d="M1074.57 192.903C1074.29 192.903 1074.08 192.821 1073.91 192.635C1073.79 192.429 1073.75 192.202 1073.79 191.934L1079.13 166.764C1079.18 166.475 1079.32 166.248 1079.57 166.063C1079.79 165.877 1080.04 165.794 1080.31 165.794H1090.6C1093.47 165.794 1095.76 166.393 1097.5 167.569C1099.25 168.765 1100.14 170.478 1100.14 172.726C1100.14 173.366 1100.05 174.047 1099.91 174.748C1099.27 177.719 1097.97 179.906 1095.99 181.329C1094.05 182.753 1091.39 183.454 1088.01 183.454H1082.79L1081.01 191.934C1080.95 192.222 1080.83 192.449 1080.58 192.635C1080.35 192.821 1080.1 192.903 1079.84 192.903H1074.57ZM1088.27 178.111C1089.37 178.111 1090.3 177.822 1091.1 177.224C1091.93 176.626 1092.46 175.78 1092.73 174.666C1092.81 174.232 1092.85 173.84 1092.85 173.51C1092.85 172.768 1092.63 172.19 1092.19 171.798C1091.76 171.385 1091 171.179 1089.94 171.179H1085.3L1083.84 178.111H1088.27Z" fill="white"/>
    <g clip-path="url(#clip5_1908_1713)">
      <circle cx="126.577" cy="313.732" r="51.5772" fill="#8247E5"/>
      <path d="M143.46 302.5C142.221 301.789 140.638 301.789 139.238 302.5L129.373 308.344L122.674 312.058L112.992 317.882C111.754 318.593 110.171 318.593 108.77 317.882L101.199 313.276C99.961 312.565 99.0881 311.145 99.0881 309.562V300.714C99.0881 299.293 99.7986 297.893 101.199 297L108.77 292.576C110.009 291.866 111.592 291.866 112.992 292.576L120.563 297.183C121.802 297.893 122.674 299.313 122.674 300.896V306.741L129.373 302.845V296.838C129.373 295.417 128.662 294.017 127.262 293.124L113.175 284.803C111.937 284.093 110.354 284.093 108.953 284.803L94.5211 293.306C93.1205 294.017 92.4102 295.437 92.4102 296.838V313.458C92.4102 314.879 93.1205 316.279 94.5211 317.172L108.791 325.493C110.029 326.203 111.612 326.203 113.013 325.493L122.695 319.831L129.393 315.934L139.075 310.272C140.313 309.562 141.897 309.562 143.297 310.272L150.868 314.696C152.107 315.407 152.979 316.827 152.979 318.41V327.258C152.979 328.679 152.269 330.079 150.868 330.972L143.48 335.396C142.242 336.106 140.659 336.106 139.258 335.396L131.666 330.972C130.428 330.262 129.555 328.841 129.555 327.258V321.596L122.857 325.493V331.337C122.857 332.758 123.568 334.158 124.968 335.051L139.238 343.372C140.476 344.082 142.059 344.082 143.46 343.372L157.729 335.051C158.967 334.341 159.84 332.92 159.84 331.337V314.534C159.84 313.113 159.13 311.713 157.729 310.82L143.46 302.5Z" fill="white"/>
    </g>
    <g clip-path="url(#clip6_1908_1713)">
      <path d="M261.733 365.309C290.219 365.309 313.311 342.217 313.311 313.732C313.311 285.246 290.219 262.154 261.733 262.154C233.248 262.154 210.156 285.246 210.156 313.732C210.156 342.217 233.248 365.309 261.733 365.309Z" fill="#ED0A28"/>
      <path d="M284.241 293.902L234.328 284.721L260.595 350.804L297.188 306.218L284.241 293.902ZM283.445 297.949L291.084 305.206L270.199 308.988L283.445 297.949ZM265.663 308.233L243.651 289.979L279.621 296.597L265.663 308.233ZM264.087 311.468L260.504 341.134L241.154 292.434L264.087 311.468ZM267.404 313.035L290.528 308.847L264.012 341.159L267.404 313.035Z" fill="white"/>
    </g>
    <g clip-path="url(#clip7_1908_1713)">
      <rect x="345.309" y="262.154" width="103.154" height="103.154" rx="51.5772" fill="white"/>
      <path d="M425.065 296.599H415.947C414.934 296.599 413.921 296.139 413.184 295.402L409.5 291.257C408.395 290.06 406.645 289.968 405.355 290.981L405.079 291.257L401.948 294.849C400.934 296.047 399.369 296.691 397.803 296.691H347.976C346.594 300.744 345.673 305.073 345.305 309.402H392.461C393.29 309.402 394.119 309.033 394.671 308.48L399.092 303.875C399.645 303.323 400.382 302.954 401.211 302.954H401.395C402.224 302.954 403.053 303.323 403.605 303.967L407.289 308.112C408.026 308.941 409.039 309.402 410.053 309.402H448.459C448.091 305.073 447.17 300.744 445.788 296.691H425.065V296.599ZM394.856 322.02L391.172 317.875C390.066 316.678 388.316 316.585 387.027 317.599L386.751 317.875L383.527 321.467C382.514 322.664 381.04 323.309 379.475 323.309H346.042C346.87 327.73 348.344 332.059 350.278 336.203H373.764C374.593 336.203 375.33 335.835 375.975 335.282L380.396 330.677C380.948 330.124 381.685 329.756 382.514 329.756H382.698C383.527 329.756 384.356 330.124 384.909 330.769L388.593 334.914C389.33 335.743 390.343 336.203 391.356 336.203H443.486C445.42 332.151 446.893 327.822 447.722 323.309H397.619C396.514 323.309 395.5 322.848 394.856 322.02ZM412.908 281.863L417.329 277.258C417.881 276.705 418.618 276.337 419.447 276.337H419.631C420.46 276.337 421.289 276.705 421.842 277.258L425.526 281.402C426.263 282.231 427.276 282.6 428.289 282.6H438.236C420.921 259.758 388.409 255.245 365.475 272.469C361.699 275.324 358.291 278.731 355.344 282.6H410.697C411.618 282.784 412.355 282.416 412.908 281.863ZM377.264 348.913C376.159 348.913 375.146 348.453 374.501 347.716L370.817 343.571C369.712 342.374 367.87 342.282 366.672 343.387L366.488 343.571L363.265 347.163C362.251 348.361 360.778 349.005 359.212 349.005H359.028C378.461 369.821 411.342 370.834 432.249 351.216C433.078 350.479 433.815 349.65 434.644 348.821H377.264V348.913Z" fill="black"/>
    </g>
    <rect x="345.843" y="262.688" width="102.086" height="102.086" rx="51.0432" stroke="#424242" stroke-width="1.06796"/>
    <circle cx="532.042" cy="313.732" r="51.5772" fill="#F7931A"/>
    <path d="M554.052 306.862C555.078 299.998 549.852 296.309 542.707 293.847L545.025 284.549L539.365 283.139L537.108 292.192C535.62 291.821 534.092 291.471 532.574 291.124L534.847 282.012L529.19 280.602L526.871 289.896C525.639 289.616 524.43 289.338 523.257 289.047L523.263 289.018L515.458 287.069L513.953 293.114C513.953 293.114 518.152 294.076 518.063 294.136C520.355 294.708 520.769 296.225 520.7 297.427L518.06 308.019C518.218 308.06 518.422 308.118 518.648 308.208C518.46 308.161 518.258 308.11 518.05 308.06L514.349 322.898C514.069 323.594 513.358 324.639 511.755 324.242C511.812 324.324 507.642 323.215 507.642 323.215L504.832 329.694L512.197 331.53C513.567 331.873 514.91 332.233 516.232 332.571L513.89 341.975L519.543 343.386L521.862 334.082C523.407 334.501 524.906 334.888 526.373 335.252L524.061 344.513L529.721 345.923L532.063 336.537C541.714 338.363 548.971 337.626 552.025 328.897C554.487 321.869 551.903 317.815 546.825 315.172C550.523 314.319 553.309 311.886 554.052 306.862ZM541.12 324.995C539.371 332.023 527.538 328.224 523.702 327.271L526.809 314.812C530.646 315.77 542.948 317.665 541.12 324.995ZM542.871 306.76C541.275 313.153 531.426 309.905 528.231 309.109L531.049 297.809C534.244 298.606 544.533 300.092 542.871 306.76Z" fill="white"/>
    <path d="M718.272 313.732C718.272 341.612 695.409 364.224 667.194 364.224C638.98 364.224 616.117 341.612 616.117 313.732C616.117 285.851 638.98 263.239 667.194 263.239C695.409 263.239 718.272 285.851 718.272 313.732Z" fill="#272727" stroke="#424242"/>
    <path d="M695.99 300.214C692.565 301.879 689.145 303.538 685.79 305.168C684.62 303.906 683.598 302.636 682.407 301.555C680.027 299.4 677.125 298.23 673.977 297.736C669.683 297.06 665.412 297.231 661.214 298.429C653.387 300.66 648.98 307.098 649.769 315.129C650.592 323.505 655.821 328.685 664.592 329.787C668.368 330.261 672.125 330.292 675.851 329.338C679.707 328.351 682.791 326.266 685.151 323.112C685.378 322.808 685.61 322.51 685.868 322.174C689.295 323.859 692.668 325.516 696.17 327.237C694.773 329.417 693.06 331.158 691.121 332.696C685.826 336.898 679.694 339.042 673.004 339.6C664.896 340.276 657.015 339.417 649.867 335.192C642.651 330.926 638.974 324.461 638.298 316.259C637.862 310.988 638.589 305.905 641.15 301.2C644.121 295.747 648.755 292.114 654.586 290.112C664.195 286.816 673.866 286.586 683.441 290.324C688.075 292.134 692.018 294.951 695.126 298.847C695.366 299.148 695.59 299.459 695.809 299.773C695.876 299.87 695.905 299.997 695.995 300.216L695.99 300.214Z" fill="#F3FF97"/>
    <circle cx="802.351" cy="313.732" r="51.5772" fill="#0035AA"/>
    <path d="M786.601 313.646C786.449 316.231 788.436 318.446 791.02 318.587C791.118 318.587 791.205 318.587 791.303 318.587C793.909 318.587 796.004 316.491 795.983 313.885C795.983 311.279 793.887 309.184 791.281 309.205C788.794 309.194 786.731 311.149 786.601 313.646Z" fill="white"/>
    <path d="M769.097 312.43C768.261 312.376 767.534 313.027 767.501 313.864C767.469 314.7 768.098 315.427 768.935 315.46C769.771 315.514 770.476 314.863 770.531 314.026C770.585 313.19 769.933 312.485 769.097 312.43Z" fill="white"/>
    <path d="M786.308 286.392C787.046 286.023 787.35 285.089 786.981 284.351C786.612 283.612 785.678 283.308 784.94 283.677C784.201 284.047 783.897 284.959 784.267 285.708C784.636 286.468 785.548 286.783 786.308 286.392Z" fill="white"/>
    <path d="M791.064 294.699C792.215 294.123 792.682 292.711 792.106 291.561C791.531 290.41 790.119 289.943 788.968 290.518C787.817 291.094 787.35 292.505 787.926 293.656C788.501 294.818 789.913 295.274 791.064 294.699Z" fill="white"/>
    <path d="M775.048 300.41C775.938 300.986 777.133 300.747 777.719 299.856C778.294 298.966 778.055 297.771 777.165 297.185C776.275 296.61 775.08 296.849 774.494 297.739C773.897 298.629 774.146 299.835 775.048 300.41Z" fill="white"/>
    <path d="M777.893 311.594C776.59 311.518 775.493 312.506 775.417 313.809C775.341 315.112 776.329 316.209 777.632 316.285C778.935 316.361 780.032 315.373 780.108 314.07C780.173 312.789 779.185 311.67 777.893 311.594Z" fill="white"/>
    <path d="M775.298 327.339C774.353 327.827 773.962 328.978 774.44 329.945C774.928 330.889 776.079 331.28 777.046 330.803C777.99 330.314 778.381 329.163 777.904 328.197C777.426 327.252 776.253 326.861 775.298 327.339Z" fill="white"/>
    <path d="M784.408 306.751C785.689 307.587 787.405 307.24 788.219 305.948C789.055 304.667 788.708 302.951 787.415 302.137C786.134 301.3 784.418 301.648 783.604 302.94C782.779 304.2 783.126 305.915 784.408 306.751Z" fill="white"/>
    <path d="M813.313 294.514C814.388 295.22 815.854 294.927 816.57 293.841C817.276 292.766 816.983 291.3 815.897 290.583C814.822 289.877 813.356 290.171 812.639 291.256C811.923 292.364 812.216 293.808 813.313 294.514Z" fill="white"/>
    <path d="M818.112 286.251C818.818 286.718 819.752 286.511 820.208 285.806C820.675 285.1 820.468 284.166 819.763 283.71C819.057 283.243 818.123 283.449 817.667 284.133C817.211 284.839 817.417 285.784 818.112 286.251Z" fill="white"/>
    <path d="M813.66 309.162C811.076 309.01 808.85 310.997 808.72 313.581C808.568 316.166 810.555 318.392 813.139 318.522C813.237 318.522 813.324 318.522 813.4 318.522C815.984 318.522 818.079 316.426 818.079 313.82C818.101 311.355 816.158 309.292 813.66 309.162Z" fill="white"/>
    <path d="M792.606 306.415C793.409 307.989 795.027 308.999 796.808 308.999C799.392 308.999 801.488 306.903 801.488 304.297C801.488 303.57 801.325 302.842 800.988 302.18C799.816 299.856 796.992 298.922 794.691 300.095C792.367 301.279 791.433 304.113 792.606 306.415Z" fill="white"/>
    <path d="M829.383 300.41C830.328 299.921 830.708 298.76 830.219 297.804C829.741 296.859 828.569 296.479 827.613 296.968C826.668 297.457 826.288 298.608 826.755 299.552C827.266 300.497 828.428 300.888 829.383 300.41Z" fill="white"/>
    <path d="M817.493 301.898C816.136 302.582 815.582 304.243 816.266 305.6C816.95 306.958 818.612 307.511 819.969 306.827C821.326 306.143 821.88 304.482 821.196 303.125C820.501 301.767 818.85 301.224 817.493 301.898Z" fill="white"/>
    <path d="M802.161 285.545C803.225 285.599 804.126 284.785 804.202 283.721C804.279 282.657 803.442 281.755 802.378 281.679C801.314 281.625 800.413 282.418 800.337 283.482C800.283 284.557 801.097 285.469 802.161 285.545Z" fill="white"/>
    <path d="M802.139 297.674C803.66 297.771 804.963 296.599 805.039 295.068C805.136 293.548 803.964 292.245 802.433 292.169C800.912 292.071 799.609 293.244 799.533 294.775C799.468 296.306 800.619 297.598 802.139 297.674Z" fill="white"/>
    <path d="M787.198 325.851C788.556 325.167 789.109 323.506 788.425 322.149C787.741 320.791 786.08 320.237 784.723 320.922C783.365 321.606 782.811 323.267 783.496 324.624C784.19 325.982 785.841 326.535 787.198 325.851Z" fill="white"/>
    <path d="M803.931 301.713C802.519 303.885 803.117 306.784 805.288 308.196C807.46 309.607 810.359 309.01 811.771 306.838C813.182 304.667 812.585 301.767 810.413 300.356C809.653 299.856 808.763 299.596 807.851 299.596C806.266 299.596 804.8 300.388 803.931 301.713Z" fill="white"/>
    <path d="M812.086 321.334C810.913 319.01 808.09 318.077 805.788 319.249C803.464 320.422 802.53 323.245 803.703 325.547C804.876 327.871 807.699 328.805 810.001 327.632C812.303 326.481 813.258 323.69 812.096 321.367C812.107 321.356 812.107 321.356 812.086 321.334Z" fill="white"/>
    <path d="M820.284 320.998C819.002 320.161 817.287 320.509 816.472 321.801C815.636 323.082 815.984 324.798 817.276 325.612C818.557 326.448 820.273 326.101 821.087 324.809C821.912 323.549 821.565 321.834 820.284 320.998Z" fill="white"/>
    <path d="M829.274 313.961C829.35 312.658 828.362 311.562 827.059 311.486C825.756 311.41 824.66 312.398 824.584 313.701C824.508 315.004 825.496 316.1 826.799 316.176C828.091 316.242 829.198 315.243 829.274 313.961Z" fill="white"/>
    <path d="M835.757 312.289C834.921 312.235 834.193 312.886 834.161 313.722C834.128 314.559 834.758 315.286 835.594 315.319C836.43 315.373 837.136 314.721 837.19 313.885C837.234 313.049 836.604 312.343 835.757 312.289Z" fill="white"/>
    <path d="M829.644 327.339C828.753 326.763 827.559 327.002 826.972 327.893C826.397 328.783 826.636 329.977 827.526 330.564C828.417 331.139 829.611 330.9 830.197 330.01C830.795 329.12 830.545 327.914 829.644 327.339Z" fill="white"/>
    <path d="M786.569 341.498C785.863 341.031 784.929 341.238 784.473 341.922C784.006 342.627 784.212 343.561 784.896 344.017C785.602 344.484 786.536 344.278 786.992 343.594C787.481 342.91 787.274 341.965 786.569 341.498Z" fill="white"/>
    <path d="M818.384 341.357C817.645 341.726 817.341 342.66 817.71 343.398C818.079 344.137 819.013 344.441 819.752 344.072C820.49 343.702 820.794 342.79 820.425 342.041C820.056 341.281 819.144 340.966 818.384 341.357Z" fill="white"/>
    <path d="M800.76 326.036C802.172 323.864 801.575 320.965 799.403 319.532C797.231 318.12 794.332 318.717 792.899 320.889C791.466 323.061 792.085 325.96 794.256 327.393C795.016 327.893 795.907 328.153 796.819 328.153C798.426 328.175 799.892 327.371 800.76 326.036Z" fill="white"/>
    <path d="M791.379 333.235C790.304 332.529 788.838 332.822 788.121 333.908C787.415 334.983 787.709 336.449 788.794 337.166C789.869 337.871 791.335 337.578 792.052 336.492C792.779 335.407 792.475 333.941 791.379 333.235Z" fill="white"/>
    <path d="M802.324 342.204C801.26 342.15 800.359 342.964 800.283 344.028C800.207 345.092 801.043 345.993 802.107 346.069C803.171 346.124 804.072 345.331 804.148 344.267C804.203 343.192 803.388 342.28 802.324 342.204Z" fill="white"/>
    <path d="M802.346 330.075C800.826 329.977 799.523 331.15 799.447 332.681C799.349 334.201 800.522 335.504 802.053 335.58C803.573 335.656 804.876 334.505 804.952 332.974C805.039 331.465 803.866 330.151 802.346 330.075Z" fill="white"/>
    <path d="M813.628 333.05C812.477 333.648 812.01 335.059 812.607 336.21C813.204 337.361 814.616 337.828 815.767 337.231C816.918 336.655 817.385 335.244 816.809 334.093C816.212 332.931 814.8 332.453 813.628 333.05Z" fill="white"/>
    <circle cx="937.503" cy="313.732" r="51.5772" fill="#2E3148"/>
    <path d="M937.502 343.657C954.031 343.657 967.43 330.258 967.43 313.73C967.43 297.201 954.031 283.802 937.502 283.802C920.974 283.802 907.575 297.201 907.575 313.73C907.575 330.258 920.974 343.657 937.502 343.657Z" fill="#1B1E36"/>
    <path d="M937.607 268.732C932.039 268.732 927.525 288.926 927.525 313.836C927.525 338.746 932.039 358.94 937.607 358.94C943.174 358.94 947.689 338.746 947.689 313.836C947.689 288.926 943.174 268.732 937.607 268.732ZM938.303 356.394C937.666 357.243 937.03 356.606 937.03 356.606C934.466 353.636 933.184 348.116 933.184 348.116C928.699 333.683 929.766 302.695 929.766 302.695C931.874 278.093 935.708 272.281 937.013 270.991C937.146 270.859 937.321 270.779 937.508 270.763C937.695 270.748 937.881 270.8 938.033 270.908C939.927 272.25 941.514 277.86 941.514 277.86C946.203 295.264 945.778 311.608 945.778 311.608C946.203 325.828 943.429 341.747 943.429 341.747C941.294 353.845 938.303 356.394 938.303 356.394Z" fill="#6F7390"/>
    <path d="M976.731 291.39C973.959 286.559 954.199 292.693 932.581 305.089C910.964 317.485 895.715 331.451 898.485 336.28C901.255 341.109 921.018 334.977 942.635 322.581C964.253 310.185 979.501 296.219 976.731 291.39ZM901.042 335.617C899.981 335.483 900.221 334.611 900.221 334.611C901.523 330.91 905.665 327.051 905.665 327.051C915.957 315.978 943.37 301.483 943.37 301.483C965.756 291.068 972.71 291.507 974.474 291.993C974.655 292.043 974.812 292.156 974.918 292.312C975.023 292.467 975.071 292.655 975.051 292.842C974.839 295.152 970.753 299.32 970.753 299.32C957.998 312.053 943.61 319.819 943.61 319.819C931.486 327.267 916.297 332.779 916.297 332.779C904.74 336.944 901.042 335.617 901.042 335.617Z" fill="#6F7390"/>
    <path d="M976.632 336.441C979.425 331.623 964.215 317.593 942.673 305.104C921.132 292.615 901.374 286.405 898.583 291.231C895.792 296.057 911 310.079 932.554 322.568C954.107 335.057 973.841 341.268 976.632 336.441ZM900.434 293.093C900.021 292.114 900.892 291.879 900.892 291.879C904.748 291.151 910.165 292.81 910.165 292.81C924.902 296.166 951.18 312.626 951.18 312.626C971.411 326.783 974.514 333.019 974.979 334.789C975.027 334.971 975.008 335.163 974.927 335.333C974.847 335.502 974.709 335.637 974.538 335.715C972.428 336.681 966.778 335.242 966.778 335.242C949.362 330.572 935.434 322.016 935.434 322.016C922.92 315.267 910.546 304.881 910.546 304.881C901.143 296.964 900.437 293.103 900.437 293.103L900.434 293.093Z" fill="#6F7390"/>
    <path d="M937.503 319.036C940.433 319.036 942.809 316.66 942.809 313.729C942.809 310.799 940.433 308.423 937.503 308.423C934.572 308.423 932.197 310.799 932.197 313.729C932.197 316.66 934.572 319.036 937.503 319.036Z" fill="#B7B9C8"/>
    <path d="M959.258 296.537C960.958 296.537 962.336 295.112 962.336 293.354C962.336 291.595 960.958 290.17 959.258 290.17C957.558 290.17 956.18 291.595 956.18 293.354C956.18 295.112 957.558 296.537 959.258 296.537Z" fill="#B7B9C8"/>
    <path d="M908.743 307.362C910.443 307.362 911.82 305.937 911.82 304.179C911.82 302.42 910.443 300.995 908.743 300.995C907.043 300.995 905.665 302.42 905.665 304.179C905.665 305.937 907.043 307.362 908.743 307.362Z" fill="#B7B9C8"/>
    <path d="M931.241 346.416C932.94 346.416 934.318 344.991 934.318 343.233C934.318 341.474 932.94 340.049 931.241 340.049C929.541 340.049 928.163 341.474 928.163 343.233C928.163 344.991 929.541 346.416 931.241 346.416Z" fill="#B7B9C8"/>
    <circle cx="1072.66" cy="313.732" r="51.0772" fill="white" stroke="#D0D5DD"/>
    <path d="M1094.72 337.582H1087.81V322.895H1057.4V337.582H1050.5V289.957H1057.4V304.291H1087.81V289.957H1094.72V337.582ZM1057.73 317.401H1088.14V309.812H1057.73V317.401Z" fill="black"/>
    <path d="M126.577 499.463C155.063 499.463 178.154 476.371 178.154 447.886C178.154 419.401 155.063 396.309 126.577 396.309C98.0919 396.309 75 419.401 75 447.886C75 476.371 98.0919 499.463 126.577 499.463Z" fill="#E2195E"/>
    <path d="M160.1 428.544C163.968 435.421 163.968 442.727 160.1 444.876C156.232 447.025 150.214 443.587 146.346 436.71C142.478 429.833 142.478 422.526 146.346 420.377C150.214 418.228 156.232 421.667 160.1 428.544ZM93.0497 428.544C89.1814 435.421 89.1814 442.727 93.0497 444.876C96.9179 447.025 102.935 443.587 106.804 436.71C110.672 429.833 110.672 422.526 106.804 420.377C102.935 418.228 96.9179 421.667 93.0497 428.544ZM160.1 467.227C156.232 474.103 150.214 477.542 146.346 475.393C142.478 473.244 142.478 465.937 146.346 459.06C150.214 452.183 156.232 448.745 160.1 450.894C163.968 453.043 163.968 460.35 160.1 467.227ZM93.0497 467.227C96.9179 474.103 102.935 477.542 106.804 475.393C110.672 473.244 110.672 465.937 106.804 459.06C102.935 452.183 96.9179 448.745 93.0497 450.894C89.1814 453.043 89.1814 460.35 93.0497 467.227ZM126.575 486.568C118.838 486.568 112.391 482.7 112.391 478.402C112.391 474.103 118.838 470.665 126.575 470.665C134.311 470.665 140.759 474.533 140.759 478.831C140.759 483.13 134.311 486.568 126.575 486.568ZM126.575 425.105C118.838 425.105 112.391 421.237 112.391 416.939C112.391 412.641 118.838 409.202 126.575 409.202C134.311 409.202 140.759 413.07 140.759 417.369C140.759 421.667 134.311 425.105 126.575 425.105Z" fill="white"/>
    <g clip-path="url(#clip8_1908_1713)">
      <circle cx="261.733" cy="447.886" r="51.0772" fill="black" stroke="#424242"/>
      <path d="M242.361 460.019C242.716 459.665 243.204 459.457 243.721 459.457H290.659C291.517 459.457 291.945 460.493 291.339 461.099L282.067 470.371C281.712 470.726 281.224 470.933 280.706 470.933H233.769C232.911 470.933 232.482 469.898 233.089 469.292L242.361 460.019Z" fill="url(#paint2_linear_1908_1713)"/>
      <path d="M242.361 425.4C242.731 425.045 243.219 424.838 243.721 424.838H290.659C291.517 424.838 291.945 425.873 291.339 426.479L282.067 435.752C281.712 436.106 281.224 436.313 280.706 436.313H233.769C232.911 436.313 232.482 435.278 233.089 434.672L242.361 425.4Z" fill="url(#paint3_linear_1908_1713)"/>
      <path d="M282.067 442.598C281.712 442.244 281.224 442.037 280.706 442.037H233.769C232.911 442.037 232.482 443.072 233.089 443.678L242.361 452.95C242.716 453.305 243.204 453.512 243.721 453.512H290.659C291.517 453.512 291.945 452.477 291.339 451.871L282.067 442.598Z" fill="url(#paint4_linear_1908_1713)"/>
    </g>
    <path d="M396.886 499.463C425.371 499.463 448.463 476.371 448.463 447.886C448.463 419.401 425.371 396.309 396.886 396.309C368.401 396.309 345.309 419.401 345.309 447.886C345.309 476.371 368.401 499.463 396.886 499.463Z" fill="#FC6432"/>
    <path fill-rule="evenodd" clip-rule="evenodd" d="M406.95 438.897C406.753 438.56 406.781 438.14 407.007 437.804L416.436 423.936C416.69 423.544 416.718 423.068 416.492 422.675C416.266 422.255 415.843 422.031 415.391 422.031H411.721C411.326 422.031 410.931 422.227 410.677 422.591L399.667 438.84C399.385 439.261 398.933 439.485 398.425 439.485H397.041C396.533 439.485 396.082 439.233 395.799 438.84L384.846 422.563C384.62 422.199 384.196 422.003 383.801 422.003H380.131C379.68 422.003 379.228 422.255 379.03 422.675C378.804 423.096 378.861 423.572 379.087 423.936L388.516 437.832C388.742 438.14 388.77 438.56 388.572 438.897C388.375 439.261 388.036 439.457 387.641 439.457H373.215C372.509 439.457 371.973 440.017 371.973 440.69V443.715C371.973 444.416 372.537 444.948 373.215 444.948H422.308C423.013 444.948 423.55 444.388 423.55 443.715V440.69C423.55 440.045 423.07 439.541 422.449 439.457C422.392 439.457 422.336 439.457 422.279 439.457H407.882C407.487 439.457 407.12 439.261 406.95 438.897ZM395.827 456.743L384.818 472.992C384.592 473.356 384.168 473.552 383.773 473.552H380.103C379.651 473.552 379.228 473.3 379.002 472.908C378.776 472.515 378.804 472.011 379.059 471.647L388.459 457.779C388.685 457.443 388.713 457.051 388.516 456.687C388.318 456.35 387.979 456.126 387.584 456.126H373.215C372.537 456.126 371.973 455.594 371.973 454.893V451.868C371.973 451.196 372.509 450.635 373.215 450.635H422.195C422.195 450.635 422.279 450.635 422.308 450.635C422.985 450.635 423.55 451.167 423.55 451.868V454.893C423.55 455.566 423.013 456.126 422.308 456.126H407.91C407.487 456.126 407.148 456.322 406.979 456.687C406.781 457.051 406.809 457.443 407.035 457.751L416.464 471.647C416.69 472.011 416.746 472.488 416.52 472.908C416.295 473.328 415.871 473.58 415.419 473.58H411.749C411.326 473.58 410.959 473.384 410.733 473.048L399.723 456.799C399.441 456.378 398.989 456.154 398.481 456.154H397.098C396.59 456.154 396.138 456.407 395.856 456.799L395.827 456.743Z" fill="white"/>
    <g clip-path="url(#clip9_1908_1713)">
      <circle cx="531.462" cy="447.305" r="51.075" fill="white" stroke="#D0D5DD"/>
      <path d="M506.445 451.269C506.3 450.166 506.228 449.056 506.227 447.944C506.233 443.507 507.396 439.149 509.602 435.302C511.808 431.454 514.98 428.25 518.804 426.007C522.627 423.764 526.97 422.56 531.402 422.514C535.833 422.468 540.2 423.581 544.069 425.745L549.885 422.777C545.249 419.408 539.772 417.388 534.06 416.941C528.348 416.493 522.624 417.635 517.52 420.24C512.416 422.845 508.131 426.812 505.138 431.703C502.146 436.594 500.562 442.218 500.563 447.953C500.563 448.745 500.593 449.534 500.653 450.32C500.737 451.433 500.49 452.546 499.944 453.519C499.398 454.492 498.576 455.281 497.583 455.788L494.914 457.15V463.505L568.354 426.043V419.692L506.445 451.269Z" fill="black"/>
      <path d="M568.354 432.4L510.381 461.949L494.914 469.844V476.192L556.839 444.606C556.984 445.715 557.056 446.833 557.057 447.953C557.054 452.394 555.891 456.758 553.683 460.61C551.474 464.462 548.298 467.67 544.469 469.913C540.64 472.157 536.291 473.359 531.855 473.4C527.418 473.442 523.048 472.321 519.178 470.148L518.867 470.313L513.38 473.113C518.015 476.482 523.491 478.502 529.202 478.951C534.913 479.4 540.637 478.26 545.741 475.656C550.845 473.053 555.13 469.087 558.124 464.198C561.118 459.309 562.704 453.687 562.705 447.953C562.705 447.153 562.674 446.354 562.615 445.564C562.531 444.451 562.778 443.339 563.323 442.366C563.869 441.393 564.689 440.603 565.682 440.096L568.354 438.733V432.4Z" fill="black"/>
    </g>
    <path d="M667.194 499.463C695.68 499.463 718.772 476.371 718.772 447.886C718.772 419.401 695.68 396.309 667.194 396.309C638.709 396.309 615.617 419.401 615.617 447.886C615.617 476.371 638.709 499.463 667.194 499.463Z" fill="#4DA2FF"/>
    <path fill-rule="evenodd" clip-rule="evenodd" d="M681.392 442.895L681.391 442.898C683.856 445.976 685.33 449.874 685.33 454.115C685.33 458.418 683.812 462.37 681.28 465.469L681.062 465.736L681.005 465.397C680.955 465.108 680.898 464.817 680.83 464.523C679.563 458.98 675.435 454.226 668.64 450.377C664.052 447.785 661.426 444.664 660.736 441.118C660.291 438.825 660.622 436.521 661.262 434.549C661.901 432.576 662.853 430.924 663.661 429.929L666.305 426.71C666.768 426.146 667.636 426.146 668.099 426.71L681.392 442.895ZM685.573 439.68L667.857 418.108C667.519 417.696 666.885 417.696 666.547 418.108L648.831 439.679L648.774 439.751C645.513 443.779 643.562 448.899 643.562 454.472C643.562 467.45 654.146 477.972 667.202 477.972C680.258 477.972 690.842 467.45 690.842 454.472C690.842 448.899 688.891 443.779 685.631 439.751L685.573 439.68ZM653.07 442.825L654.655 440.895L654.703 441.251C654.741 441.533 654.787 441.817 654.841 442.102C655.867 447.459 659.529 451.925 665.653 455.385C670.976 458.401 674.075 461.87 674.968 465.675C675.341 467.262 675.407 468.825 675.246 470.19L675.236 470.275L675.159 470.312C672.757 471.481 670.056 472.137 667.202 472.137C657.19 472.137 649.073 464.068 649.073 454.115C649.073 449.841 650.57 445.915 653.07 442.825Z" fill="#F7F7F8"/>
    <path d="M802.351 499.463C830.836 499.463 853.928 476.371 853.928 447.886C853.928 419.401 830.836 396.309 802.351 396.309C773.865 396.309 750.773 419.401 750.773 447.886C750.773 476.371 773.865 499.463 802.351 499.463Z" fill="#0D61FF"/>
    <path d="M823.83 462.192C823.207 451.141 809.336 446.118 808.009 445.602C807.955 445.575 807.955 445.521 807.982 445.466L822.286 431.076V429.528C822.278 429.276 822.078 429.075 821.826 429.067H795.466V420.405V417.799L785.74 419.835V421.301H786.282C786.282 421.301 788.666 421.301 788.666 423.691V429.04H781.134C780.988 429.05 780.874 429.164 780.863 429.311V432.705H788.693V451.141C788.693 456.924 792.404 460.943 798.906 460.4C800.245 460.267 801.531 459.8 802.645 459.042C803.135 458.727 803.431 458.187 803.431 457.603V455.784C801.317 457.196 799.529 457.114 799.529 457.114C795.411 457.114 795.493 451.874 795.493 451.874V432.705H814.457L800.803 446.498C800.776 448.317 800.748 449.729 800.748 449.756C800.743 449.797 800.773 449.832 800.813 449.838C800.819 449.838 800.824 449.838 800.83 449.838C813.346 451.955 816.732 460.074 816.732 462.436C816.732 462.436 818.087 473.921 806.627 474.708C806.627 474.708 799.123 475.034 797.795 472.02C797.747 471.923 797.79 471.803 797.888 471.757C797.893 471.754 797.898 471.752 797.904 471.749C799.18 471.214 800.006 469.96 799.99 468.572C799.99 466.346 798.635 464.527 795.791 464.527C793.488 464.527 791.592 466.346 791.592 468.572C791.592 468.572 790.508 478.238 806.6 477.967C824.968 477.641 823.83 462.192 823.83 462.192Z" fill="white"/>
    <path d="M937.503 499.463C965.988 499.463 989.08 476.371 989.08 447.886C989.08 419.401 965.988 396.309 937.503 396.309C909.018 396.309 885.926 419.401 885.926 447.886C885.926 476.371 909.018 499.463 937.503 499.463Z" fill="#0098EA"/>
    <path d="M955.118 425.095H919.894C913.418 425.095 909.314 432.08 912.573 437.731L934.31 475.408C935.728 477.868 939.283 477.868 940.702 475.408L962.445 437.728C965.701 432.09 961.594 425.095 955.121 425.095H955.118ZM934.293 464.106L929.558 454.945L918.134 434.514C917.96 434.209 917.87 433.863 917.873 433.512C917.875 433.161 917.971 432.817 918.149 432.515C918.327 432.212 918.582 431.962 918.888 431.789C919.194 431.617 919.539 431.528 919.89 431.532H934.284V464.113L934.29 464.106H934.293ZM956.868 434.511L945.45 454.948L940.715 464.106V431.526H955.114C956.694 431.526 957.622 433.202 956.868 434.511Z" fill="white"/>
    <path d="M1123.74 447.886C1123.74 476.095 1100.87 498.963 1072.66 498.963C1044.45 498.963 1021.58 476.095 1021.58 447.886C1021.58 419.677 1044.45 396.809 1072.66 396.809C1100.87 396.809 1123.74 419.677 1123.74 447.886Z" fill="#23292F" stroke="#424242"/>
    <path d="M1054.43 426.395H1046.97L1062.49 441.851C1068.1 447.446 1077.21 447.446 1082.83 441.851L1098.35 426.395H1090.89L1079.11 438.136C1077.39 439.839 1075.08 440.794 1072.66 440.794C1070.25 440.794 1067.94 439.839 1066.22 438.136L1054.43 426.395Z" fill="white"/>
    <path d="M1090.99 469.376H1098.45L1082.83 453.823C1077.22 448.229 1068.11 448.229 1062.49 453.823L1046.87 469.376H1054.33L1066.21 457.539C1067.93 455.835 1070.24 454.881 1072.66 454.881C1075.07 454.881 1077.38 455.835 1079.1 457.539L1090.99 469.376Z" fill="white"/>
  </g>
  <defs>
    <filter id="filter0_f_1908_1713" x="-462.289" y="77.7148" width="2123.65" height="2123.65" filterUnits="userSpaceOnUse" color-interpolation-filters="sRGB">
      <feFlood flood-opacity="0" result="BackgroundImageFix"/>
      <feBlend mode="normal" in="SourceGraphic" in2="BackgroundImageFix" result="shape"/>
      <feGaussianBlur stdDeviation="250" result="effect1_foregroundBlur_1908_1713"/>
    </filter>
    <filter id="filter1_d_1908_1713" x="-345.742" y="570.06" width="1570.35" height="1145.55" filterUnits="userSpaceOnUse" color-interpolation-filters="sRGB">
      <feFlood flood-opacity="0" result="BackgroundImageFix"/>
      <feColorMatrix in="SourceAlpha" type="matrix" values="0 0 0 0 0 0 0 0 0 0 0 0 0 0 0 0 0 0 127 0" result="hardAlpha"/>
      <feOffset dy="4"/>
      <feGaussianBlur stdDeviation="2"/>
      <feComposite in2="hardAlpha" operator="out"/>
      <feColorMatrix type="matrix" values="0 0 0 0 0 0 0 0 0 0 0 0 0 0 0 0 0 0 0.25 0"/>
      <feBlend mode="normal" in2="BackgroundImageFix" result="effect1_dropShadow_1908_1713"/>
      <feBlend mode="normal" in="SourceGraphic" in2="effect1_dropShadow_1908_1713" result="shape"/>
    </filter>
    <linearGradient id="paint0_linear_1908_1713" x1="769.209" y1="416.945" x2="576.737" y2="1813.89" gradientUnits="userSpaceOnUse">
      <stop stop-color="#CAB914"/>
      <stop offset="1" stop-color="#FF5C00"/>
    </linearGradient>
    <linearGradient id="paint1_linear_1908_1713" x1="745.601" y1="669.032" x2="-31.3695" y2="1567.12" gradientUnits="userSpaceOnUse">
      <stop offset="0.216532" stop-color="#21D2D3"/>
      <stop offset="0.734375" stop-color="#2A70D9"/>
    </linearGradient>
    <linearGradient id="paint2_linear_1908_1713" x1="286.175" y1="263.531" x2="162.609" y2="322.453" gradientUnits="userSpaceOnUse">
      <stop stop-color="#00FFA3"/>
      <stop offset="1" stop-color="#DC1FFF"/>
    </linearGradient>
    <linearGradient id="paint3_linear_1908_1713" x1="271.971" y1="372.802" x2="148.405" y2="431.724" gradientUnits="userSpaceOnUse">
      <stop stop-color="#00FFA3"/>
      <stop offset="1" stop-color="#DC1FFF"/>
    </linearGradient>
    <linearGradient id="paint4_linear_1908_1713" x1="279.028" y1="415.568" x2="246.543" y2="477.788" gradientUnits="userSpaceOnUse">
      <stop stop-color="#00FFA3"/>
      <stop offset="1" stop-color="#DC1FFF"/>
    </linearGradient>
    <clipPath id="clip0_1908_1713">
      <rect width="1200" height="630" fill="white"/>
    </clipPath>
    <clipPath id="clip1_1908_1713">
      <rect x="75" y="128" width="103.154" height="103.154" fill="white"/>
    </clipPath>
    <clipPath id="clip2_1908_1713">
      <rect width="103.154" height="103.154" fill="white" transform="translate(210.156 128)"/>
    </clipPath>
    <clipPath id="clip3_1908_1713">
      <rect width="103.154" height="103.154" fill="white" transform="translate(615.617 128)"/>
    </clipPath>
    <clipPath id="clip4_1908_1713">
      <rect width="103.154" height="103.154" fill="white" transform="translate(750.773 128)"/>
    </clipPath>
    <clipPath id="clip5_1908_1713">
      <rect x="75" y="262.154" width="103.154" height="103.154" fill="white"/>
    </clipPath>
    <clipPath id="clip6_1908_1713">
      <rect width="103.154" height="103.154" fill="white" transform="translate(210.156 262.154)"/>
    </clipPath>
    <clipPath id="clip7_1908_1713">
      <rect x="345.309" y="262.154" width="103.154" height="103.154" rx="51.5772" fill="white"/>
    </clipPath>
    <clipPath id="clip8_1908_1713">
      <rect x="210.156" y="396.309" width="103.154" height="103.154" fill="white"/>
    </clipPath>
    <clipPath id="clip9_1908_1713">
      <rect x="480.465" y="396.309" width="103.154" height="103.154" rx="51.5772" fill="white"/>
    </clipPath>
  </defs>
</svg>
