<svg width="24" height="24" viewBox="0 0 24 24" fill="none" xmlns="http://www.w3.org/2000/svg">
<path d="M16.4462 13.5521L16.3905 13.1923C16.2776 13.159 16.1641 13.1135 16.05 13.0558C15.9358 12.9982 15.8339 12.9244 15.7442 12.8346L15.4152 12.9636C15.3114 12.9969 15.2117 12.9985 15.1162 12.9683C15.0207 12.9382 14.9429 12.8712 14.8827 12.7673L14.8115 12.6406C14.7513 12.5469 14.7321 12.4482 14.7537 12.3443C14.7756 12.2405 14.8281 12.1533 14.9115 12.0828L15.1905 11.8578C15.1776 11.795 15.1712 11.7353 15.1712 11.6788V11.3261C15.1712 11.2729 15.1776 11.2117 15.1905 11.1423L14.9115 10.9173C14.8281 10.8468 14.7756 10.7597 14.7537 10.6558C14.7321 10.552 14.7513 10.4532 14.8115 10.3596L14.8827 10.2328C14.9429 10.129 15.0207 10.062 15.1162 10.0318C15.2117 10.0017 15.3114 10.0032 15.4152 10.0366L15.7442 10.1656C15.8237 10.0861 15.9231 10.0149 16.0422 9.95208C16.1616 9.88924 16.2776 9.84116 16.3905 9.80782L16.4462 9.44807C16.4731 9.34424 16.525 9.25641 16.602 9.18458C16.6788 9.11291 16.7691 9.07708 16.873 9.07708H17.0152C17.1192 9.07708 17.2096 9.11291 17.2865 9.18458C17.3635 9.25641 17.4154 9.34424 17.4422 9.44807L17.498 9.80782C17.6108 9.84116 17.7269 9.88924 17.8462 9.95208C17.9654 10.0149 18.0647 10.0861 18.1442 10.1656L18.473 10.0366C18.5768 10.0032 18.6765 10.0017 18.772 10.0318C18.8675 10.062 18.9454 10.129 19.0057 10.2328L19.077 10.3596C19.1371 10.4532 19.1563 10.552 19.1345 10.6558C19.1128 10.7597 19.0603 10.8468 18.977 10.9173L18.698 11.1423C18.7108 11.2117 18.7172 11.2729 18.7172 11.3261V11.6788C18.7172 11.7353 18.7108 11.795 18.698 11.8578L18.977 12.0828C19.0603 12.1533 19.1128 12.2405 19.1345 12.3443C19.1563 12.4482 19.1371 12.5469 19.077 12.6406L19.0057 12.7673C18.9454 12.8712 18.8675 12.9382 18.772 12.9683C18.6765 12.9985 18.5768 12.9969 18.473 12.9636L18.1442 12.8346C18.0544 12.9244 17.9525 12.9982 17.8385 13.0558C17.7243 13.1135 17.6108 13.159 17.498 13.1923L17.4422 13.5521C17.4154 13.6559 17.3635 13.7437 17.2865 13.8156C17.2096 13.8872 17.1192 13.9231 17.0152 13.9231H16.873C16.7691 13.9231 16.6788 13.8872 16.602 13.8156C16.525 13.7437 16.4731 13.6559 16.4462 13.5521ZM16.9442 12.3271C17.1699 12.3271 17.3641 12.2457 17.527 12.0828C17.6898 11.92 17.7712 11.7257 17.7712 11.5001C17.7712 11.2744 17.6898 11.0802 17.527 10.9173C17.3641 10.7545 17.1699 10.6731 16.9442 10.6731C16.7186 10.6731 16.5243 10.7545 16.3615 10.9173C16.1986 11.0802 16.1172 11.2744 16.1172 11.5001C16.1172 11.7257 16.1986 11.92 16.3615 12.0828C16.5243 12.2457 16.7186 12.3271 16.9442 12.3271ZM18.7885 8.24807L18.7172 7.79632C18.5481 7.75266 18.3801 7.68374 18.2135 7.58958C18.0468 7.49524 17.9071 7.38207 17.7942 7.25007L17.327 7.42508C17.2026 7.46858 17.0799 7.46757 16.9587 7.42207C16.8376 7.37657 16.7417 7.29682 16.6712 7.18282L16.5692 7.00957C16.4987 6.89558 16.4744 6.77383 16.4962 6.64433C16.5179 6.51483 16.5858 6.40457 16.7 6.31357L17.0865 5.99632C17.0531 5.90649 17.0333 5.82374 17.027 5.74807C17.0205 5.67241 17.0172 5.58974 17.0172 5.50007C17.0172 5.41041 17.0205 5.32774 17.027 5.25208C17.0333 5.17641 17.0531 5.09366 17.0865 5.00383L16.7 4.68658C16.5858 4.59558 16.5179 4.48532 16.4962 4.35582C16.4744 4.22632 16.4987 4.10457 16.5692 3.99057L16.6712 3.81732C16.7417 3.70332 16.8376 3.62357 16.9587 3.57807C17.0799 3.53257 17.2026 3.53157 17.327 3.57507L17.7942 3.75007C17.9071 3.61807 18.0468 3.50491 18.2135 3.41057C18.3801 3.31641 18.5481 3.24749 18.7172 3.20383L18.7885 2.75208C18.8153 2.61741 18.8801 2.50649 18.9827 2.41933C19.0852 2.33216 19.2038 2.28857 19.3385 2.28857H19.5115C19.6461 2.28857 19.7647 2.33216 19.8672 2.41933C19.9699 2.50649 20.0346 2.61741 20.0615 2.75208L20.1327 3.20383C20.3019 3.24749 20.4698 3.31641 20.6365 3.41057C20.8031 3.50491 20.9429 3.61807 21.0557 3.75007L21.523 3.57507C21.6473 3.53157 21.7701 3.53257 21.8912 3.57807C22.0124 3.62357 22.1082 3.70332 22.1787 3.81732L22.2807 3.99057C22.3512 4.10457 22.3756 4.22632 22.3537 4.35582C22.3319 4.48532 22.264 4.59558 22.15 4.68658L21.7635 5.00383C21.7968 5.09366 21.8166 5.17641 21.823 5.25208C21.8295 5.32774 21.8327 5.41041 21.8327 5.50007C21.8327 5.58974 21.8295 5.67241 21.823 5.74807C21.8166 5.82374 21.7968 5.90649 21.7635 5.99632L22.15 6.31357C22.264 6.40457 22.3319 6.51483 22.3537 6.64433C22.3756 6.77383 22.3512 6.89558 22.2807 7.00957L22.1787 7.18282C22.1082 7.29682 22.0124 7.37657 21.8912 7.42207C21.7701 7.46757 21.6473 7.46858 21.523 7.42508L21.0557 7.25007C20.9429 7.38207 20.8031 7.49524 20.6365 7.58958C20.4698 7.68374 20.3019 7.75266 20.1327 7.79632L20.0615 8.24807C20.0346 8.38274 19.9699 8.49366 19.8672 8.58082C19.7647 8.66799 19.6461 8.71158 19.5115 8.71158H19.3385C19.2038 8.71158 19.0852 8.66799 18.9827 8.58082C18.8801 8.49366 18.8153 8.38274 18.7885 8.24807ZM19.425 6.80782C19.7941 6.80782 20.1044 6.68216 20.3557 6.43082C20.6071 6.17949 20.7327 5.86924 20.7327 5.50007C20.7327 5.13091 20.6071 4.82066 20.3557 4.56933C20.1044 4.31799 19.7941 4.19232 19.425 4.19232C19.0558 4.19232 18.7456 4.31799 18.4942 4.56933C18.2429 4.82066 18.1172 5.13091 18.1172 5.50007C18.1172 5.86924 18.2429 6.17949 18.4942 6.43082C18.7456 6.68216 19.0558 6.80782 19.425 6.80782Z" fill="#F7F7F8"/>
<path d="M2 18.3923C2 17.877 2.133 17.4171 2.399 17.0126C2.665 16.6081 3.02025 16.2934 3.46475 16.0686C4.41508 15.6037 5.37067 15.2453 6.3315 14.9933C7.2925 14.7415 8.34858 14.6156 9.49975 14.6156C10.6511 14.6156 11.7072 14.7415 12.668 14.9933C13.629 15.2453 14.5847 15.6037 15.535 16.0686C15.9795 16.2934 16.3348 16.6081 16.6008 17.0126C16.8668 17.4171 16.9998 17.877 16.9998 18.3923V19.0963C16.9998 19.4988 16.852 19.8527 16.5565 20.1578C16.261 20.463 15.9023 20.6156 15.4805 20.6156H3.519C3.09733 20.6156 2.73875 20.4678 2.44325 20.1723C2.14775 19.8767 2 19.518 2 19.0963V18.3923ZM9.49975 13.0001C8.53725 13.0001 7.71333 12.6574 7.028 11.9721C6.34267 11.2866 6 10.4626 6 9.50008C6 8.53758 6.34267 7.71366 7.028 7.02833C7.71333 6.34283 8.53725 6.00008 9.49975 6.00008C10.4623 6.00008 11.2863 6.34283 11.9718 7.02833C12.6571 7.71366 12.9998 8.53758 12.9998 9.50008C12.9998 10.4626 12.6571 11.2866 11.9718 11.9721C11.2863 12.6574 10.4623 13.0001 9.49975 13.0001ZM3.49975 19.1156H15.4998V18.3923C15.4998 18.1835 15.4475 17.9977 15.343 17.8348C15.2387 17.672 15.073 17.5297 14.846 17.4078C14.023 16.9835 13.1756 16.662 12.3038 16.4433C11.4319 16.2248 10.4973 16.1156 9.49975 16.1156C8.50242 16.1156 7.56783 16.2248 6.696 16.4433C5.82417 16.662 4.97675 16.9835 4.15375 17.4078C3.92675 17.5297 3.761 17.672 3.6565 17.8348C3.552 17.9977 3.49975 18.1835 3.49975 18.3923V19.1156ZM9.49975 11.5001C10.0498 11.5001 10.5206 11.3042 10.9123 10.9126C11.3039 10.5209 11.4998 10.0501 11.4998 9.50008C11.4998 8.95008 11.3039 8.47924 10.9123 8.08758C10.5206 7.69591 10.0498 7.50008 9.49975 7.50008C8.94975 7.50008 8.47892 7.69591 8.08725 8.08758C7.69558 8.47924 7.49975 8.95008 7.49975 9.50008C7.49975 10.0501 7.69558 10.5209 8.08725 10.9126C8.47892 11.3042 8.94975 11.5001 9.49975 11.5001Z" fill="#F7F7F8"/>
</svg>
