<svg width="21" height="20" viewBox="0 0 21 20" fill="none" xmlns="http://www.w3.org/2000/svg">
<mask id="mask0_10209_24499" style="mask-type:alpha" maskUnits="userSpaceOnUse" x="0" y="0" width="21" height="20">
<rect x="0.5" width="20" height="20" fill="#D9D9D9"/>
</mask>
<g mask="url(#mask0_10209_24499)">
<path d="M8.88688 16.4359C8.56744 15.9456 8.28325 15.4124 8.03432 14.8366C7.78537 14.2607 7.58505 13.6688 7.43334 13.0609H4.60638C5.05191 13.9316 5.63685 14.6573 6.36121 15.238C7.08559 15.8187 7.92748 16.218 8.88688 16.4359ZM4.08236 11.8109H7.18013C7.12778 11.5011 7.08986 11.1974 7.06636 10.8999C7.04286 10.6023 7.03111 10.3024 7.03111 10C7.03111 9.69767 7.04286 9.39772 7.06636 9.10017C7.08986 8.80263 7.12778 8.49894 7.18013 8.1891H4.08236C4.00223 8.47223 3.9408 8.76657 3.89807 9.07213C3.85533 9.37768 3.83396 9.68698 3.83396 10C3.83396 10.3131 3.85533 10.6224 3.89807 10.9279C3.9408 11.2335 4.00223 11.5278 4.08236 11.8109ZM4.60638 6.93915H7.43334C7.57437 6.3259 7.77202 5.72733 8.0263 5.14346C8.28057 4.55958 8.56744 4.03313 8.88688 3.5641C7.95419 3.77137 7.11764 4.16934 6.37723 4.75802C5.63685 5.3467 5.04656 6.07374 4.60638 6.93915ZM8.71696 6.93915H12.2843C12.1016 6.25859 11.865 5.63145 11.5744 5.05773C11.2838 4.48401 10.9259 3.91509 10.5006 3.35098C10.0754 3.89372 9.72017 4.45194 9.43492 5.02567C9.14966 5.59939 8.91034 6.23722 8.71696 6.93915ZM13.5679 6.93915H16.3949C15.9547 6.07374 15.3644 5.34537 14.624 4.75402C13.8836 4.16267 13.0471 3.76603 12.1144 3.5641C12.4071 4.02778 12.6806 4.55156 12.9349 5.13544C13.1892 5.71931 13.4002 6.32055 13.5679 6.93915ZM10.5006 17.9167C9.41516 17.9167 8.39086 17.7086 7.42773 17.2925C6.4646 16.8763 5.62458 16.3098 4.90769 15.593C4.19082 14.8761 3.62432 14.0361 3.20819 13.0729C2.79205 12.1098 2.58398 11.0855 2.58398 10C2.58398 8.90601 2.79205 7.87957 3.20819 6.92071C3.62432 5.96185 4.19082 5.12397 4.90769 4.40708C5.62458 3.69021 6.4646 3.12371 7.42773 2.70758C8.39086 2.29144 9.41516 2.08337 10.5006 2.08337C11.5946 2.08337 12.6211 2.29144 13.5799 2.70758C14.5388 3.12371 15.3767 3.69021 16.0936 4.40708C16.8104 5.12397 17.3769 5.96185 17.7931 6.92071C18.2092 7.87957 18.4173 8.90601 18.4173 10C18.4173 10.1443 18.4138 10.2912 18.4069 10.4407C18.3999 10.5903 18.3868 10.7372 18.3676 10.8814H17.0968C17.1246 10.7372 17.1433 10.5924 17.1529 10.4471C17.1625 10.3018 17.1673 10.1528 17.1673 10C17.1673 9.68698 17.1459 9.37768 17.1032 9.07213C17.0605 8.76657 16.999 8.47223 16.9189 8.1891H13.8211C13.8735 8.49894 13.9114 8.80263 13.9349 9.10017C13.9584 9.39772 13.9702 9.69767 13.9702 10C13.9702 10.1528 13.9688 10.3005 13.9662 10.4431C13.9635 10.5858 13.9552 10.7319 13.9413 10.8814H12.6913C12.7052 10.7372 12.7135 10.5924 12.7162 10.4471C12.7189 10.3018 12.7202 10.1528 12.7202 10C12.7202 9.68698 12.7084 9.38436 12.6849 9.09217C12.6614 8.79996 12.6235 8.49894 12.5712 8.1891H8.43011C8.37776 8.49894 8.33983 8.79996 8.31632 9.09217C8.29282 9.38436 8.28107 9.68698 8.28107 10C8.28107 10.3131 8.29282 10.6157 8.31632 10.9079C8.33983 11.2001 8.37776 11.5011 8.43011 11.8109H11.382V13.0609H8.71696C8.91034 13.7575 9.15367 14.3993 9.44694 14.9864C9.74021 15.5735 10.0914 16.1277 10.5006 16.6491C10.6641 16.4322 10.8179 16.2105 10.9622 15.984C11.1064 15.7575 11.2464 15.5262 11.382 15.2901V17.867C11.2378 17.8862 11.093 17.8993 10.9478 17.9063C10.8025 17.9132 10.6534 17.9167 10.5006 17.9167ZM14.4589 14.8493V16.375C14.4589 16.5524 14.3991 16.7009 14.2795 16.8205C14.1598 16.9402 14.0113 17 13.834 17C13.6566 17 13.5081 16.9402 13.3885 16.8205C13.2688 16.7009 13.209 16.5524 13.209 16.375V13.4616C13.209 13.2468 13.2808 13.0676 13.4245 12.9239C13.5682 12.7802 13.7474 12.7084 13.9622 12.7084H16.8756C17.053 12.7084 17.2015 12.7682 17.3211 12.8879C17.4408 13.0075 17.5006 13.156 17.5006 13.3334C17.5006 13.5107 17.4408 13.6592 17.3211 13.7789C17.2015 13.8985 17.053 13.9583 16.8756 13.9583H15.3291L17.5647 16.1859C17.6801 16.3013 17.7378 16.4455 17.7378 16.6186C17.7378 16.7917 17.6801 16.9402 17.5647 17.0641C17.4408 17.1934 17.2923 17.2567 17.1192 17.254C16.9461 17.2513 16.7976 17.188 16.6737 17.0641L14.4589 14.8493Z" fill="#8C8F9B"/>
</g>
</svg>
