<svg width="21" height="20" viewBox="0 0 21 20" fill="none" xmlns="http://www.w3.org/2000/svg">
<path fill-rule="evenodd" clip-rule="evenodd" d="M10.4993 1.66663C5.89518 1.66663 2.16602 5.49012 2.16602 10.2107C2.16602 13.9915 4.55143 17.1849 7.86393 18.317C8.2806 18.3917 8.43685 18.1354 8.43685 17.9111C8.43685 17.7082 8.42643 17.0354 8.42643 16.3198C6.33268 16.715 5.79102 15.7965 5.62435 15.3159C5.5306 15.0702 5.12435 14.3119 4.77018 14.109C4.47852 13.9488 4.06185 13.5536 4.75977 13.5429C5.41602 13.5323 5.88477 14.1624 6.04102 14.4187C6.79102 15.711 7.98893 15.3479 8.4681 15.1236C8.54102 14.5682 8.75977 14.1944 8.99935 13.9808C7.14518 13.7672 5.20768 13.0303 5.20768 9.76218C5.20768 8.833 5.5306 8.06403 6.06185 7.46594C5.97852 7.25234 5.68685 6.37657 6.14518 5.20175C6.14518 5.20175 6.8431 4.97747 8.43685 6.07753C9.10352 5.88528 9.81185 5.78916 10.5202 5.78916C11.2285 5.78916 11.9369 5.88528 12.6035 6.07753C14.1973 4.96679 14.8952 5.20175 14.8952 5.20175C15.3535 6.37657 15.0619 7.25234 14.9785 7.46594C15.5098 8.06403 15.8327 8.82232 15.8327 9.76218C15.8327 13.041 13.8848 13.7672 12.0306 13.9808C12.3327 14.2478 12.5931 14.7605 12.5931 15.5615C12.5931 16.7043 12.5827 17.6228 12.5827 17.9111C12.5827 18.1354 12.7389 18.4024 13.1556 18.317C16.4473 17.1849 18.8327 13.9808 18.8327 10.2107C18.8327 5.49012 15.1035 1.66663 10.4993 1.66663Z" fill="#8C8F9B"/>
</svg>
