<svg width="21" height="20" viewBox="0 0 21 20" fill="none" xmlns="http://www.w3.org/2000/svg">
<path fill-rule="evenodd" clip-rule="evenodd" d="M16.3333 17.5H4.66667C3.74619 17.5 3 16.7538 3 15.8333V4.16667C3 3.24619 3.74619 2.5 4.66667 2.5H16.3333C17.2538 2.5 18 3.24619 18 4.16667V15.8333C18 16.7538 17.2538 17.5 16.3333 17.5ZM13.6908 15.4167H15.9167V10.844C15.9167 8.90927 14.8199 7.9738 13.288 7.9738C11.7554 7.9738 11.1104 9.16728 11.1104 9.16728V8.19445H8.96528V15.4167H11.1104V11.6254C11.1104 10.6096 11.578 10.0051 12.4731 10.0051C13.2958 10.0051 13.6908 10.586 13.6908 11.6254V15.4167ZM5.08333 5.91604C5.08333 6.65201 5.67543 7.24875 6.40611 7.24875C7.1368 7.24875 7.72854 6.65201 7.72854 5.91604C7.72854 5.18007 7.1368 4.58333 6.40611 4.58333C5.67543 4.58333 5.08333 5.18007 5.08333 5.91604ZM7.53529 15.4167H5.29845V8.19445H7.53529V15.4167Z" fill="#8C8F9B"/>
</svg>
