<svg width="21" height="20" viewBox="0 0 21 20" fill="none" xmlns="http://www.w3.org/2000/svg">
<path fill-rule="evenodd" clip-rule="evenodd" d="M16.043 11.5854C15.7775 11.7533 15.4649 11.7741 15.2272 11.64C14.9253 11.4696 14.7593 11.0704 14.7593 10.5152V8.85422C14.7593 8.05212 14.4422 7.48136 13.9119 7.32726C13.0133 7.06546 12.3374 8.16501 12.0834 8.57794L10.4985 11.1476V8.00681C10.4807 7.28418 10.246 6.85194 9.8004 6.7216C9.50555 6.63545 9.0644 6.66998 8.63587 7.32577L5.08509 13.0274C4.60972 12.1249 4.36192 11.1201 4.3632 10.1001C4.3632 6.66553 7.11559 3.87154 10.4985 3.87154C13.8815 3.87154 16.6335 6.66553 16.6335 10.1001C16.6335 10.106 16.635 10.1112 16.6353 10.1168C16.6353 10.1227 16.6342 10.1279 16.6346 10.1339C16.6665 10.7989 16.4511 11.3277 16.043 11.5854ZM17.9967 10.1004V10.083L17.9963 10.0659C17.9774 5.88311 14.6215 2.48755 10.4982 2.48755C6.36399 2.48755 3 5.90242 3 10.1001C3 14.2974 6.36399 17.7126 10.4985 17.7126C12.3957 17.7126 14.2064 16.9915 15.5963 15.6825C15.8726 15.4225 15.8889 14.9847 15.6327 14.7047C15.5724 14.6382 15.4994 14.5844 15.4181 14.5465C15.3367 14.5085 15.2486 14.4872 15.1589 14.4837C15.0692 14.4803 14.9797 14.4948 14.8956 14.5263C14.8116 14.5579 14.7347 14.6059 14.6694 14.6676C13.5428 15.7344 12.0501 16.3289 10.4985 16.3286C8.68711 16.3286 7.05729 15.5269 5.93324 14.2554L9.13532 9.11379V11.4841C9.13532 12.6226 9.57685 12.9906 9.94708 13.0983C10.3177 13.206 10.884 13.1325 11.4785 12.167L13.2398 9.31171C13.2962 9.21962 13.3482 9.14015 13.3957 9.07145V10.5152C13.3957 11.5795 13.822 12.4306 14.5651 12.8499C15.235 13.2279 16.0772 13.1937 16.7634 12.7607C17.5953 12.2353 18.0435 11.2672 17.9967 10.1004Z" fill="#8C8F9B"/>
</svg>
