<svg width="21" height="20" viewBox="0 0 21 20" fill="none" xmlns="http://www.w3.org/2000/svg">
<path d="M16.2751 4.43863C15.2128 3.92706 14.0736 3.55015 12.8826 3.33428C12.8609 3.33011 12.8393 3.34052 12.8281 3.36135C12.6816 3.63483 12.5193 3.99161 12.4057 4.27203C11.1246 4.07074 9.85017 4.07074 8.59541 4.27203C8.48174 3.98537 8.31357 3.63483 8.16642 3.36135C8.15524 3.34122 8.13357 3.33081 8.11188 3.33428C6.92151 3.54946 5.78238 3.92637 4.71944 4.43863C4.71024 4.4428 4.70235 4.44975 4.69712 4.45876C2.53643 7.84679 1.94452 11.1515 2.23489 14.4153C2.2362 14.4313 2.24474 14.4466 2.25657 14.4563C3.68213 15.5551 5.06303 16.2221 6.41829 16.6643C6.43998 16.6712 6.46296 16.6629 6.47677 16.6441C6.79735 16.1847 7.08313 15.7002 7.32815 15.1906C7.34261 15.1608 7.32881 15.1254 7.29926 15.1136C6.84597 14.9331 6.41435 14.7131 5.99916 14.4632C5.96632 14.4431 5.96369 14.3938 5.9939 14.3702C6.08127 14.3015 6.16867 14.23 6.2521 14.1578C6.26719 14.1446 6.28822 14.1418 6.30597 14.1501C9.03358 15.4572 11.9865 15.4572 14.682 14.1501C14.6997 14.1411 14.7207 14.1439 14.7365 14.1571C14.8199 14.2293 14.9073 14.3015 14.9953 14.3702C15.0255 14.3938 15.0236 14.4431 14.9907 14.4632C14.5755 14.7179 14.1439 14.9331 13.69 15.1129C13.6604 15.1247 13.6473 15.1608 13.6617 15.1906C13.912 15.6994 14.1978 16.1839 14.5125 16.6435C14.5256 16.6629 14.5493 16.6712 14.5709 16.6643C15.9328 16.2221 17.3137 15.5551 18.7392 14.4563C18.7517 14.4466 18.7596 14.432 18.7609 14.416C19.1084 10.6427 18.1789 7.36507 16.2967 4.45945C16.2921 4.44975 16.2843 4.4428 16.2751 4.43863ZM7.73548 12.428C6.91428 12.428 6.23764 11.6367 6.23764 10.6649C6.23764 9.69316 6.90116 8.90188 7.73548 8.90188C8.57634 8.90188 9.24644 9.70011 9.23329 10.6649C9.23329 11.6367 8.56977 12.428 7.73548 12.428ZM13.2735 12.428C12.4523 12.428 11.7757 11.6367 11.7757 10.6649C11.7757 9.69316 12.4392 8.90188 13.2735 8.90188C14.1144 8.90188 14.7844 9.70011 14.7713 10.6649C14.7713 11.6367 14.1144 12.428 13.2735 12.428Z" fill="#8C8F9B"/>
</svg>
