<svg width="24" height="24" viewBox="0 0 24 24" fill="none" xmlns="http://www.w3.org/2000/svg">
<path d="M6.89458 21C6.24473 21 5.69205 20.7743 5.23651 20.323C4.78098 19.8716 4.55322 19.3235 4.55322 18.6787C4.55322 18.0339 4.78078 17.4855 5.2359 17.0336C5.69103 16.5816 6.24369 16.3556 6.89386 16.3556C7.07591 16.3556 7.25478 16.378 7.43045 16.423C7.60611 16.4679 7.77196 16.5282 7.92799 16.604L9.61543 14.5205C9.26192 14.1383 9.01805 13.7107 8.88384 13.2376C8.74964 12.7645 8.72236 12.2887 8.80201 11.8102L6.35024 11.0047C6.13638 11.3457 5.85519 11.6191 5.50666 11.8248C5.15814 12.0305 4.76939 12.1333 4.34043 12.1333C3.69031 12.1333 3.13772 11.9076 2.68264 11.4563C2.22756 11.0049 2.00001 10.4568 2 9.81205C2 9.16726 2.22745 8.61887 2.68234 8.16688C3.13724 7.71489 3.6896 7.48889 4.33945 7.48889C4.98929 7.48889 5.54198 7.71466 5.99751 8.1662C6.45305 8.61774 6.68082 9.16604 6.68083 9.8111C6.68083 9.86091 6.67947 9.90259 6.67675 9.93614C6.67403 9.96971 6.67266 10.0033 6.67266 10.0368L9.11624 10.8797C9.35082 10.4488 9.67297 10.0791 10.0827 9.77054C10.4924 9.462 10.9624 9.26388 11.4926 9.17618V6.58433C10.9449 6.45658 10.5025 6.18186 10.1653 5.76019C9.82818 5.33851 9.6596 4.85807 9.6596 4.31885C9.6596 3.67693 9.88705 3.12997 10.3419 2.67799C10.7968 2.226 11.3492 2 11.9991 2C12.6489 2 13.2016 2.22577 13.6571 2.67731C14.1127 3.12885 14.3404 3.67715 14.3404 4.3222C14.3404 4.85919 14.1697 5.33851 13.8281 5.76019C13.4866 6.18186 13.0464 6.45658 12.5074 6.58433V9.17618C13.0376 9.26388 13.5063 9.462 13.9132 9.77054C14.3202 10.0791 14.6437 10.4488 14.8838 10.8797L17.3274 10.0368C17.3219 9.99785 17.3192 9.96294 17.3192 9.93209V9.8111C17.3192 9.16604 17.5466 8.61774 18.0015 8.1662C18.4564 7.71466 19.0088 7.48889 19.6586 7.48889C20.3085 7.48889 20.8612 7.71457 21.3167 8.16593C21.7722 8.61729 22 9.16536 22 9.81015C22 10.4549 21.7725 11.0033 21.3174 11.4553C20.8623 11.9073 20.3097 12.1333 19.6596 12.1333C19.2324 12.1333 18.8419 12.0305 18.4881 11.8248C18.1344 11.6191 17.8549 11.3457 17.6498 11.0047L15.198 11.8102C15.2777 12.2887 15.2504 12.7623 15.1162 13.2311C14.982 13.6999 14.7381 14.127 14.3846 14.5124L16.072 16.5829C16.2281 16.5125 16.3939 16.4571 16.5696 16.4165C16.7452 16.3759 16.9241 16.3556 17.1062 16.3556C17.7563 16.3556 18.309 16.5812 18.7641 17.0326C19.2192 17.484 19.4468 18.032 19.4468 18.6768C19.4468 19.3216 19.2194 19.87 18.7645 20.322C18.3096 20.774 17.7572 21 17.1074 21C16.4575 21 15.9048 20.7742 15.4493 20.3227C14.9938 19.8711 14.766 19.3228 14.766 18.6778C14.766 18.4115 14.8094 18.1552 14.8961 17.9089C14.9828 17.6626 15.1124 17.4366 15.2848 17.2309L13.5974 15.1311C13.114 15.4169 12.5808 15.5598 11.9976 15.5598C11.4144 15.5598 10.8784 15.4169 10.3896 15.1311L8.71522 17.2309C8.88216 17.4366 9.01036 17.6626 9.09984 17.9089C9.1893 18.1552 9.23403 18.4115 9.23403 18.6778C9.23403 19.3228 9.00658 19.8711 8.55169 20.3227C8.09679 20.7742 7.54442 21 6.89458 21ZM4.34043 10.8667C4.63612 10.8667 4.88735 10.7641 5.09413 10.5589C5.3009 10.3537 5.40428 10.1045 5.40428 9.81108C5.40428 9.51769 5.3009 9.26841 5.09413 9.06324C4.88735 8.85809 4.63612 8.75552 4.34043 8.75552C4.04474 8.75552 3.79351 8.8581 3.58673 9.06326C3.37997 9.26843 3.2766 9.51771 3.2766 9.8111C3.2766 10.1045 3.37998 10.3538 3.58675 10.5589C3.79351 10.7641 4.04474 10.8667 4.34043 10.8667ZM6.89362 19.7333C7.18931 19.7333 7.44055 19.6308 7.64733 19.4256C7.85409 19.2204 7.95747 18.9711 7.95747 18.6778C7.95747 18.3844 7.85409 18.1351 7.64733 17.9299C7.44055 17.7248 7.18931 17.6222 6.89362 17.6222C6.59793 17.6222 6.3467 17.7248 6.13992 17.9299C5.93315 18.1351 5.82977 18.3844 5.82977 18.6778C5.82977 18.9712 5.93315 19.2204 6.13992 19.4256C6.3467 19.6308 6.59793 19.7333 6.89362 19.7333ZM12 5.37776C12.2957 5.37776 12.5469 5.27518 12.7537 5.07002C12.9605 4.86485 13.0639 4.61557 13.0639 4.32218C13.0639 4.02879 12.9605 3.77951 12.7537 3.57434C12.5469 3.3692 12.2957 3.26663 12 3.26663C11.7043 3.26663 11.4531 3.36921 11.2463 3.57436C11.0395 3.77954 10.9362 4.02882 10.9362 4.3222C10.9362 4.61559 11.0395 4.86487 11.2463 5.07005C11.4531 5.2752 11.7043 5.37776 12 5.37776ZM12 14.2931C12.5466 14.2931 13.0106 14.1039 13.392 13.7256C13.7733 13.3472 13.964 12.8868 13.964 12.3444C13.964 11.802 13.7733 11.3416 13.392 10.9633C13.0106 10.5849 12.5466 10.3957 12 10.3957C11.4534 10.3957 10.9894 10.5849 10.608 10.9633C10.2267 11.3417 10.036 11.802 10.036 12.3444C10.036 12.8868 10.2267 13.3472 10.608 13.7256C10.9894 14.104 11.4534 14.2931 12 14.2931ZM17.1064 19.7333C17.4021 19.7333 17.6533 19.6308 17.8601 19.4256C18.0669 19.2204 18.1703 18.9711 18.1703 18.6778C18.1703 18.3844 18.0669 18.1351 17.8601 17.9299C17.6533 17.7248 17.4021 17.6222 17.1064 17.6222C16.8107 17.6222 16.5595 17.7248 16.3527 17.9299C16.1459 18.1351 16.0425 18.3844 16.0425 18.6778C16.0425 18.9712 16.1459 19.2204 16.3527 19.4256C16.5595 19.6308 16.8107 19.7333 17.1064 19.7333ZM19.6596 10.8667C19.9553 10.8667 20.2065 10.7641 20.4133 10.5589C20.6201 10.3537 20.7234 10.1045 20.7234 9.81108C20.7234 9.51769 20.6201 9.26841 20.4133 9.06324C20.2065 8.85809 19.9553 8.75552 19.6596 8.75552C19.3639 8.75552 19.1127 8.8581 18.9059 9.06326C18.6991 9.26843 18.5957 9.51771 18.5957 9.8111C18.5957 10.1045 18.6991 10.3538 18.9059 10.5589C19.1127 10.7641 19.3639 10.8667 19.6596 10.8667Z" fill="black"/>
</svg>
