<svg width="24" height="24" viewBox="0 0 24 24" fill="none" xmlns="http://www.w3.org/2000/svg">
<g id="doc">
<path id="article" d="M7.99998 16.75H13C13.2128 16.75 13.391 16.6782 13.5346 16.5346C13.6782 16.391 13.75 16.2128 13.75 16C13.75 15.7872 13.6782 15.609 13.5346 15.4654C13.391 15.3218 13.2128 15.25 13 15.25H7.99998C7.78716 15.25 7.60896 15.3218 7.46538 15.4654C7.32179 15.609 7.25 15.7872 7.25 16C7.25 16.2128 7.32179 16.391 7.46538 16.5346C7.60896 16.6782 7.78716 16.75 7.99998 16.75ZM7.99998 12.75H16C16.2128 12.75 16.391 12.6782 16.5346 12.5346C16.6782 12.391 16.75 12.2128 16.75 12C16.75 11.7872 16.6782 11.609 16.5346 11.4654C16.391 11.3218 16.2128 11.25 16 11.25H7.99998C7.78716 11.25 7.60896 11.3218 7.46538 11.4654C7.32179 11.609 7.25 11.7872 7.25 12C7.25 12.2128 7.32179 12.391 7.46538 12.5346C7.60896 12.6782 7.78716 12.75 7.99998 12.75ZM7.99998 8.74998H16C16.2128 8.74998 16.391 8.67818 16.5346 8.5346C16.6782 8.39102 16.75 8.21282 16.75 8C16.75 7.78718 16.6782 7.60898 16.5346 7.4654C16.391 7.32182 16.2128 7.25003 16 7.25003H7.99998C7.78716 7.25003 7.60896 7.32182 7.46538 7.4654C7.32179 7.60898 7.25 7.78718 7.25 8C7.25 8.21282 7.32179 8.39102 7.46538 8.5346C7.60896 8.67818 7.78716 8.74998 7.99998 8.74998ZM5.3077 20.5C4.80257 20.5 4.375 20.325 4.025 19.975C3.675 19.625 3.5 19.1974 3.5 18.6923V5.30773C3.5 4.80259 3.675 4.37502 4.025 4.02502C4.375 3.67502 4.80257 3.50002 5.3077 3.50002H18.6923C19.1974 3.50002 19.625 3.67502 19.975 4.02502C20.325 4.37502 20.5 4.80259 20.5 5.30773V18.6923C20.5 19.1974 20.325 19.625 19.975 19.975C19.625 20.325 19.1974 20.5 18.6923 20.5H5.3077ZM5.3077 19H18.6923C18.7692 19 18.8397 18.968 18.9038 18.9039C18.9679 18.8397 19 18.7692 19 18.6923V5.30773C19 5.23079 18.9679 5.16027 18.9038 5.09615C18.8397 5.03205 18.7692 5 18.6923 5H5.3077C5.23077 5 5.16024 5.03205 5.09612 5.09615C5.03202 5.16027 4.99997 5.23079 4.99997 5.30773V18.6923C4.99997 18.7692 5.03202 18.8397 5.09612 18.9039C5.16024 18.968 5.23077 19 5.3077 19Z" fill="#1C1B1F"/>
</g>
</svg>
