<svg width="24" height="24" viewBox="0 0 24 24" fill="none" xmlns="http://www.w3.org/2000/svg">
<g id="safe">
<path id="outlined" fill-rule="evenodd" clip-rule="evenodd" d="M3.25 6C3.25 3.92893 4.92893 2.25 7 2.25H17C19.0711 2.25 20.75 3.92893 20.75 6V8.25H21C21.4142 8.25 21.75 8.58579 21.75 9C21.75 9.41421 21.4142 9.75 21 9.75H20.75V12.25H21C21.4142 12.25 21.75 12.5858 21.75 13C21.75 13.4142 21.4142 13.75 21 13.75H20.75V16C20.75 18.0711 19.0711 19.75 17 19.75H16.75V21C16.75 21.4142 16.4142 21.75 16 21.75C15.5858 21.75 15.25 21.4142 15.25 21V19.75H8.75V21C8.75 21.4142 8.41421 21.75 8 21.75C7.58579 21.75 7.25 21.4142 7.25 21V19.75H7C4.92893 19.75 3.25 18.0711 3.25 16V6ZM19.25 16C19.25 17.2426 18.2426 18.25 17 18.25H16H8H7C5.75736 18.25 4.75 17.2426 4.75 16V6C4.75 4.75736 5.75736 3.75 7 3.75H17C18.2426 3.75 19.25 4.75736 19.25 6V8.25H19C18.5858 8.25 18.25 8.58579 18.25 9C18.25 9.41421 18.5858 9.75 19 9.75H19.25V12.25H19C18.5858 12.25 18.25 12.5858 18.25 13C18.25 13.4142 18.5858 13.75 19 13.75H19.25V16ZM16 6.5H8C7.72386 6.5 7.5 6.72386 7.5 7V15C7.5 15.2761 7.72386 15.5 8 15.5H16C16.2761 15.5 16.5 15.2761 16.5 15V7C16.5 6.72386 16.2761 6.5 16 6.5ZM8 5C6.89543 5 6 5.89543 6 7V15C6 16.1046 6.89543 17 8 17H16C17.1046 17 18 16.1046 18 15V7C18 5.89543 17.1046 5 16 5H8ZM12 13C13.1046 13 14 12.1046 14 11C14 9.89543 13.1046 9 12 9C10.8954 9 10 9.89543 10 11C10 12.1046 10.8954 13 12 13Z" fill="black"/>
</g>
</svg>
