<svg width="24" height="24" viewBox="0 0 24 24" fill="none" xmlns="http://www.w3.org/2000/svg">
<g id="idea">
<path id="bulb" d="M12 20.9422C11.5987 20.9422 11.2439 20.8365 10.9356 20.6249C10.6272 20.4134 10.4115 20.1358 10.2884 19.7922H9.99997C9.59101 19.7922 9.23877 19.6445 8.94327 19.349C8.64776 19.0535 8.5 18.7012 8.5 18.2923V15.0115C7.49103 14.4 6.69712 13.5801 6.11827 12.5519C5.53942 11.5237 5.25 10.4231 5.25 9.25C5.25 7.36797 5.90448 5.77246 7.21345 4.46348C8.52243 3.15451 10.1179 2.50002 12 2.50002C13.882 2.50002 15.4775 3.15451 16.7865 4.46348C18.0955 5.77246 18.75 7.36797 18.75 9.25C18.75 10.4436 18.4605 11.5493 17.8817 12.5673C17.3028 13.5852 16.5089 14.4 15.5 15.0115V18.2923C15.5 18.7012 15.3522 19.0535 15.0567 19.349C14.7612 19.6445 14.4089 19.7922 14 19.7922H13.7115C13.5884 20.1358 13.3727 20.4134 13.0644 20.6249C12.7561 20.8365 12.4013 20.9422 12 20.9422ZM9.99997 18.2923H14V17.3538H9.99997V18.2923ZM9.99997 16.4692H14V15.5H9.99997V16.4692ZM9.79997 14H11.4038V11.0885L9.26153 8.94615L10.1 8.1077L12 10.0077L13.9 8.1077L14.7384 8.94615L12.5961 11.0885V14H14.2C15.1 13.5667 15.8333 12.9292 16.4 12.0875C16.9666 11.2458 17.25 10.3 17.25 9.25C17.25 7.78333 16.7416 6.54167 15.725 5.525C14.7083 4.50833 13.4666 4 12 4C10.5333 4 9.29164 4.50833 8.27497 5.525C7.25831 6.54167 6.74997 7.78333 6.74997 9.25C6.74997 10.3 7.03331 11.2458 7.59997 12.0875C8.16664 12.9292 8.89997 13.5667 9.79997 14Z" fill="#1C1B1F"/>
</g>
</svg>
