<svg width="24" height="24" viewBox="0 0 24 24" fill="none" xmlns="http://www.w3.org/2000/svg">
<path fill-rule="evenodd" clip-rule="evenodd" d="M2.74927 12.0045C2.74927 6.89588 6.89063 2.75452 11.9993 2.75452C17.1079 2.75452 21.2493 6.89588 21.2493 12.0045C21.2493 17.1132 17.1079 21.2545 11.9993 21.2545C6.89063 21.2545 2.74927 17.1132 2.74927 12.0045ZM11.9993 1.25452C6.06221 1.25452 1.24927 6.06746 1.24927 12.0045C1.24927 17.9416 6.06221 22.7545 11.9993 22.7545C17.9363 22.7545 22.7493 17.9416 22.7493 12.0045C22.7493 6.06746 17.9363 1.25452 11.9993 1.25452ZM13.9007 6.04433C14.3085 6.11624 14.5808 6.50512 14.5089 6.91291L14.3266 7.94665L14.6712 8.00741C16.0577 8.25189 16.9835 9.57407 16.7391 10.9606C16.6171 11.6523 16.2269 12.2293 15.6943 12.6036C16.0668 13.1375 16.2361 13.8131 16.1141 14.5048C15.8696 15.8914 14.5474 16.8172 13.1609 16.5727L12.8163 16.5119L12.6341 17.5457C12.5622 17.9535 12.1733 18.2257 11.7655 18.1538C11.3577 18.0819 11.0854 17.6931 11.1573 17.2853L11.3396 16.2515L10.1582 16.0432L9.97589 17.0769C9.90398 17.4847 9.51511 17.757 9.10731 17.6851C8.69951 17.6132 8.42721 17.2243 8.49912 16.8166L8.68139 15.7828L7.5492 15.5832C7.14141 15.5113 6.86911 15.1224 6.94102 14.7146C7.01292 14.3068 7.4018 14.0345 7.8096 14.1064L8.94179 14.306L9.30634 12.2386L9.56674 10.7618L9.93129 8.69432L8.7991 8.49468C8.3913 8.42278 8.119 8.0339 8.19091 7.6261C8.26282 7.2183 8.65169 6.94601 9.05949 7.01791L10.1917 7.21755L10.374 6.18381C10.4459 5.77601 10.8347 5.50372 11.2425 5.57562C11.6503 5.64753 11.9226 6.03641 11.8507 6.4442L11.6685 7.47794L12.8499 7.68626L13.0321 6.65252C13.104 6.24472 13.4929 5.97243 13.9007 6.04433ZM11.4081 8.95471L11.0435 11.0222L14.0463 11.5517C14.6172 11.6523 15.1616 11.2711 15.2623 10.7002C15.363 10.1293 14.9817 9.58485 14.4108 9.48418L11.4081 8.95471ZM10.7831 12.499L10.4186 14.5664L13.4213 15.0959C13.9922 15.1966 14.5367 14.8154 14.6373 14.2444C14.738 13.6735 14.3568 13.1291 13.7859 13.0284L10.7831 12.499Z" fill="white"/>
</svg>
