<svg width="24" height="24" viewBox="0 0 24 24" fill="none" xmlns="http://www.w3.org/2000/svg">
<g id="group">
<path id="group_2" d="M1.79688 17.0846C1.79688 16.5693 1.92989 16.1093 2.19592 15.7049C2.46194 15.3004 2.81721 14.9857 3.26172 14.7608C4.21207 14.2959 5.16769 13.9375 6.12857 13.6856C7.08947 13.4337 8.14557 13.3078 9.29685 13.3078C10.4481 13.3078 11.5042 13.4337 12.4651 13.6856C13.426 13.9375 14.3816 14.2959 15.332 14.7608C15.7765 14.9857 16.1318 15.3004 16.3978 15.7049C16.6638 16.1093 16.7968 16.5693 16.7968 17.0846V17.7885C16.7968 18.191 16.6491 18.5449 16.3536 18.85C16.0581 19.1551 15.6994 19.3077 15.2776 19.3077H3.31607C2.89429 19.3077 2.53565 19.1599 2.24015 18.8644C1.94465 18.5689 1.7969 18.2103 1.7969 17.7885L1.79688 17.0846ZM20.6814 19.3077H18.4103C18.5359 19.0782 18.6318 18.834 18.6978 18.575C18.7638 18.316 18.7968 18.0538 18.7968 17.7885V16.9616C18.7968 16.3052 18.6361 15.6796 18.3146 15.0848C17.9932 14.4901 17.5373 13.9798 16.9469 13.5539C17.6174 13.6539 18.2539 13.8087 18.8564 14.0183C19.459 14.2279 20.034 14.4757 20.5814 14.7616C21.0981 15.0372 21.4971 15.3621 21.7785 15.7362C22.0599 16.1103 22.2006 16.5188 22.2006 16.9616V17.7885C22.2006 18.2103 22.0529 18.5689 21.7574 18.8644C21.4619 19.1599 21.1032 19.3077 20.6814 19.3077ZM9.29685 11.6923C8.33437 11.6923 7.51042 11.3496 6.825 10.6642C6.13958 9.97879 5.79688 9.15484 5.79688 8.19236C5.79688 7.22986 6.13958 6.40591 6.825 5.72051C7.51042 5.03509 8.33437 4.69238 9.29685 4.69238C10.2593 4.69238 11.0833 5.03509 11.7687 5.72051C12.4541 6.40591 12.7968 7.22986 12.7968 8.19236C12.7968 9.15484 12.4541 9.97879 11.7687 10.6642C11.0833 11.3496 10.2593 11.6923 9.29685 11.6923ZM17.9314 8.19236C17.9314 9.15484 17.5887 9.97879 16.9033 10.6642C16.2178 11.3496 15.3939 11.6923 14.4314 11.6923C14.3186 11.6923 14.175 11.6795 14.0007 11.6539C13.8263 11.6282 13.6827 11.6 13.5699 11.5693C13.9643 11.0951 14.2673 10.5692 14.4791 9.99133C14.6909 9.4135 14.7968 8.81344 14.7968 8.19116C14.7968 7.56889 14.6888 6.97122 14.4728 6.39813C14.2568 5.82507 13.9558 5.29751 13.5699 4.81546C13.7135 4.76417 13.8571 4.73084 14.0007 4.71546C14.1442 4.70007 14.2878 4.69238 14.4314 4.69238C15.3939 4.69238 16.2178 5.03509 16.9033 5.72051C17.5887 6.40591 17.9314 7.22986 17.9314 8.19236ZM3.29685 17.8077H15.2969V17.0846C15.2969 16.8757 15.2446 16.6898 15.1401 16.5269C15.0356 16.3641 14.8699 16.2218 14.643 16.1C13.8199 15.6757 12.9725 15.3542 12.1007 15.1356C11.2289 14.917 10.2943 14.8077 9.29685 14.8077C8.29942 14.8077 7.3648 14.917 6.493 15.1356C5.62122 15.3542 4.77378 15.6757 3.9507 16.1C3.72378 16.2218 3.55807 16.3641 3.45357 16.5269C3.34909 16.6898 3.29685 16.8757 3.29685 17.0846V17.8077ZM9.29685 10.1924C9.84685 10.1924 10.3177 9.99652 10.7094 9.60486C11.101 9.21319 11.2969 8.74236 11.2969 8.19236C11.2969 7.64236 11.101 7.17152 10.7094 6.77986C10.3177 6.38819 9.84685 6.19236 9.29685 6.19236C8.74685 6.19236 8.27602 6.38819 7.88435 6.77986C7.49268 7.17152 7.29685 7.64236 7.29685 8.19236C7.29685 8.74236 7.49268 9.21319 7.88435 9.60486C8.27602 9.99652 8.74685 10.1924 9.29685 10.1924Z" fill="black"/>
</g>
</svg>
