<svg xmlns="http://www.w3.org/2000/svg" width="512" height="512" viewBox="0 0 512 512">
	<style>
		path {
			fill: #000000;
		}
		@media ( prefers-color-scheme: dark ) {
			path {
				fill: #ffffff;
			}
		}
	</style>
  <path d="M148.403 164.69C89.7925 130.675 89.7925 75.526 148.403 41.5112C207.014 7.49628 302.04 7.49628 360.651 41.5112C419.261 75.526 419.261 130.675 360.651 164.69C302.04 198.705 207.014 198.705 148.403 164.69Z" />
  <path d="M299.745 424.963C299.745 357.195 347.26 274.204 405.872 240.188C464.485 206.171 512 234.012 512 301.779C512 369.547 464.485 452.538 405.872 486.554C347.26 520.57 299.745 492.73 299.745 424.963Z" />
  <path d="M106.128 240.183C47.515 206.167 0 234.007 0 301.775C0 369.542 47.515 452.533 106.128 486.55C164.74 520.566 212.255 492.725 212.255 424.958C212.255 357.191 164.74 274.199 106.128 240.183Z" />
</svg>
