<svg width="1200" height="631" viewBox="0 0 1200 631" fill="none" xmlns="http://www.w3.org/2000/svg">
<g clip-path="url(#clip0_1930_1285)">
<rect width="1200" height="630" transform="translate(0 0.283203)" fill="black"/>
<g filter="url(#filter0_f_1930_1285)">
<mask id="mask0_1930_1285" style="mask-type:alpha" maskUnits="userSpaceOnUse" x="37" y="577" width="1125" height="1125">
<circle cx="599.538" cy="1139.54" r="561.823" transform="rotate(45 599.538 1139.54)" fill="white"/>
</mask>
<g mask="url(#mask0_1930_1285)">
<g filter="url(#filter1_d_1930_1285)">
<circle cx="699.997" cy="1138.58" r="520.613" transform="rotate(45 699.997 1138.58)" fill="url(#paint0_linear_1930_1285)"/>
<ellipse cx="395.744" cy="1138.84" rx="581.344" ry="555.922" transform="rotate(45 395.744 1138.84)" fill="#B8B999"/>
<circle cx="220.086" cy="1139.5" r="561.823" transform="rotate(45 220.086 1139.5)" fill="url(#paint1_linear_1930_1285)"/>
</g>
</g>
</g>
<path d="M488.007 320.337H496.933V329.199H488.007V353.868H478.841V275.309H488.007V320.337Z" fill="#DFFF32"/>
<path d="M469.675 310.995H456.166V339.018C456.166 341.652 456.649 343.329 457.613 344.527C458.578 345.485 460.267 346.203 462.197 346.203C464.368 346.203 466.78 346.203 469.916 345.964V354.107C461.956 355.065 456.166 354.586 452.548 352.191C448.929 349.796 447 345.485 447 339.257V310.995H436.627V302.133H447V284.17H455.925V302.133H469.675V310.995Z" fill="#DFFF32"/>
<path fill-rule="evenodd" clip-rule="evenodd" d="M389.398 332.315C390.388 336.753 392.538 340.266 395.618 342.854C398.995 345.489 403.096 346.686 407.921 346.686C414.675 346.686 419.741 344.291 422.877 339.261L430.596 343.572C425.531 351.237 417.811 355.309 407.68 355.309C399.478 355.309 392.724 352.674 387.658 347.644C382.592 342.614 379.938 336.148 379.938 328.244C379.938 320.579 382.351 314.113 387.417 308.843C392.482 303.574 398.995 301.179 406.956 301.179C414.675 301.179 420.706 303.814 425.531 309.083C430.355 314.352 432.767 320.819 432.767 328.244C432.767 329.441 432.767 330.878 432.526 332.315H389.398ZM395.377 313.394C398.513 310.759 402.614 309.322 407.439 309.322C411.539 309.322 415.158 310.52 418.294 313.155C421.43 315.55 423.36 319.382 424.083 324.172H389.346C390.311 319.621 392.241 316.029 395.377 313.394Z" fill="#DFFF32"/>
<path fill-rule="evenodd" clip-rule="evenodd" d="M776.569 332.315C777.559 336.753 779.709 340.266 782.788 342.854C786.166 345.489 790.267 346.686 795.092 346.686C801.846 346.686 806.912 344.291 810.047 339.261L817.767 343.572C812.701 351.237 804.983 355.309 794.85 355.309C786.649 355.309 779.895 352.674 774.829 347.644C769.762 342.614 767.109 336.148 767.109 328.244C767.109 320.579 769.521 314.113 774.587 308.843C779.653 303.574 786.166 301.179 794.126 301.179C801.846 301.179 807.876 303.814 812.701 309.083C817.526 314.352 819.938 320.819 819.938 328.244C819.938 329.441 819.938 330.878 819.697 332.315H776.569ZM782.547 313.394C785.684 310.759 789.784 309.322 794.609 309.322C798.71 309.322 802.329 310.52 805.464 313.155C808.601 315.55 810.53 319.382 811.254 324.172H776.517C777.482 319.621 779.412 316.029 782.547 313.394Z" fill="#DFFF32"/>
<path d="M593.424 302.133H602.589V311.234H611.516V320.096H602.589V353.867H593.424V302.133Z" fill="#DFFF32"/>
<path d="M620.44 302.133H611.514V310.995H620.44V302.133Z" fill="#DFFF32"/>
<path d="M689.199 346.682C693.541 346.682 697.4 345.485 700.054 342.611C704.678 337.6 704.636 332.644 704.617 330.527C704.614 330.147 704.612 329.858 704.637 329.677V320.096H713.563V353.628H704.637V346.203C701.018 352.191 695.229 355.065 687.75 355.065C681.479 355.065 676.654 353.149 673.036 349.317C669.417 345.485 667.487 340.215 667.487 333.748V302.133H676.413V333.509C676.413 337.82 677.62 340.934 679.791 343.329C681.962 345.485 685.097 346.682 689.199 346.682Z" fill="#DFFF32"/>
<path d="M713.08 302.133H704.154V310.995H713.08V302.133Z" fill="#DFFF32"/>
<path d="M731.167 302.133H750.465V310.995H731.167V302.133Z" fill="#DFFF32"/>
<path d="M759.393 311.236H750.466V320.098H759.393V311.236Z" fill="#DFFF32"/>
<path d="M722.243 311.236H731.169V320.096H740.093V328.958H731.167V320.098H722.243V311.236Z" fill="#DFFF32"/>
<path d="M740.334 329.199H759.632L760.115 338.061C760.115 343.57 758.425 347.881 754.807 350.755C751.189 353.629 746.606 355.067 740.815 355.067C735.751 355.067 731.407 353.869 727.789 351.713C724.172 349.318 721.518 346.444 720.071 342.851L727.789 338.301C728.514 340.935 730.202 342.851 732.373 344.288C734.544 345.726 737.439 346.444 740.574 346.444C743.711 346.444 746.123 345.965 748.052 344.768C749.982 343.57 750.706 341.654 750.706 338.061H740.334V329.199Z" fill="#DFFF32"/>
<path fill-rule="evenodd" clip-rule="evenodd" d="M566.405 326.563H584.497V311.234H575.571V302.133H557.479C551.449 302.372 545.659 304.528 541.075 308.36C535.528 313.151 532.633 320.096 532.633 328C532.633 335.904 535.286 342.371 540.353 347.401C545.417 352.43 552.172 355.065 560.374 355.065C570.505 355.065 578.225 351.233 583.291 343.329L575.571 339.018C572.435 344.047 567.37 346.443 560.616 346.443C555.791 346.443 551.449 345.245 548.312 342.611C545.9 340.694 543.97 338.06 542.765 335.425H566.405V326.563ZM546.866 314.588C549.037 312.672 552.654 311.234 557.238 311.234H575.33V317.701H566.163V326.563H541.075C541.075 325.845 541.075 325.126 541.317 324.168C542.041 321.294 544.212 316.983 546.866 314.588Z" fill="#DFFF32"/>
<path d="M496.934 302.132H515.749V310.994H496.934V302.132Z" fill="#DFFF32"/>
<path d="M524.676 311.235H515.751V353.868H524.676V311.235Z" fill="#DFFF32"/>
<path d="M645.771 302.135V284.412H636.604V302.135H628.403V311.237H636.604V353.87H645.771V311.237H659.28V302.135H645.771Z" fill="#DFFF32"/>
<path d="M645.771 275.309H659.521V284.171H645.771V275.309Z" fill="#DFFF32"/>
</g>
<defs>
<filter id="filter0_f_1930_1285" x="-462.285" y="77.7148" width="2123.65" height="2123.65" filterUnits="userSpaceOnUse" color-interpolation-filters="sRGB">
<feFlood flood-opacity="0" result="BackgroundImageFix"/>
<feBlend mode="normal" in="SourceGraphic" in2="BackgroundImageFix" result="shape"/>
<feGaussianBlur stdDeviation="250" result="effect1_foregroundBlur_1930_1285"/>
</filter>
<filter id="filter1_d_1930_1285" x="-345.737" y="570.061" width="1570.35" height="1145.55" filterUnits="userSpaceOnUse" color-interpolation-filters="sRGB">
<feFlood flood-opacity="0" result="BackgroundImageFix"/>
<feColorMatrix in="SourceAlpha" type="matrix" values="0 0 0 0 0 0 0 0 0 0 0 0 0 0 0 0 0 0 127 0" result="hardAlpha"/>
<feOffset dy="4"/>
<feGaussianBlur stdDeviation="2"/>
<feComposite in2="hardAlpha" operator="out"/>
<feColorMatrix type="matrix" values="0 0 0 0 0 0 0 0 0 0 0 0 0 0 0 0 0 0 0.25 0"/>
<feBlend mode="normal" in2="BackgroundImageFix" result="effect1_dropShadow_1930_1285"/>
<feBlend mode="normal" in="SourceGraphic" in2="effect1_dropShadow_1930_1285" result="shape"/>
</filter>
<linearGradient id="paint0_linear_1930_1285" x1="769.21" y1="416.945" x2="576.737" y2="1813.89" gradientUnits="userSpaceOnUse">
<stop stop-color="#CAB914"/>
<stop offset="1" stop-color="#FF5C00"/>
</linearGradient>
<linearGradient id="paint1_linear_1930_1285" x1="745.605" y1="669.031" x2="-31.3656" y2="1567.11" gradientUnits="userSpaceOnUse">
<stop offset="0.216532" stop-color="#21D2D3"/>
<stop offset="0.734375" stop-color="#2A70D9"/>
</linearGradient>
<clipPath id="clip0_1930_1285">
<rect width="1200" height="630" fill="white" transform="translate(0 0.283203)"/>
</clipPath>
</defs>
</svg>
