<svg width="400" height="190" viewBox="0 0 400 190" fill="none" xmlns="http://www.w3.org/2000/svg">
<rect x="24.6562" y="38.6562" width="82.6875" height="82.6875" rx="41.3438" fill="#7A5AF8"/>
<rect x="24.6562" y="38.6562" width="82.6875" height="82.6875" rx="41.3438" stroke="url(#paint0_linear_1963_35514)" stroke-width="1.3125"/>
<path d="M55.5 61.625C54.048 61.625 52.875 62.798 52.875 64.25V95.75C52.875 97.202 54.048 98.375 55.5 98.375H60.75V93.125C60.75 90.2293 63.1043 87.875 66 87.875C68.8957 87.875 71.25 90.2293 71.25 93.125V98.375H76.5C77.952 98.375 79.125 97.202 79.125 95.75V64.25C79.125 62.798 77.952 61.625 76.5 61.625H55.5ZM68.625 93.125C68.625 91.673 67.452 90.5 66 90.5C64.548 90.5 63.375 91.673 63.375 93.125V98.375H68.625V93.125ZM60.75 101H55.5C52.6043 101 50.25 98.6457 50.25 95.75V64.25C50.25 61.3543 52.6043 59 55.5 59H76.5C79.3957 59 81.75 61.3543 81.75 64.25V95.75C81.75 98.6457 79.3957 101 76.5 101H71.25H68.625H63.375H60.75ZM55.5 68.8438C55.5 67.7527 56.3777 66.875 57.4688 66.875H61.4062C62.4973 66.875 63.375 67.7527 63.375 68.8438V72.7812C63.375 73.8723 62.4973 74.75 61.4062 74.75H57.4688C56.3777 74.75 55.5 73.8723 55.5 72.7812V68.8438ZM58.125 69.5V72.125H60.75V69.5H58.125ZM70.5938 66.875H74.5312C75.6223 66.875 76.5 67.7527 76.5 68.8438V72.7812C76.5 73.8723 75.6223 74.75 74.5312 74.75H70.5938C69.5027 74.75 68.625 73.8723 68.625 72.7812V68.8438C68.625 67.7527 69.5027 66.875 70.5938 66.875ZM71.25 72.125H73.875V69.5H71.25V72.125ZM55.5 79.3438C55.5 78.2527 56.3777 77.375 57.4688 77.375H61.4062C62.4973 77.375 63.375 78.2527 63.375 79.3438V83.2812C63.375 84.3723 62.4973 85.25 61.4062 85.25H57.4688C56.3777 85.25 55.5 84.3723 55.5 83.2812V79.3438ZM58.125 80V82.625H60.75V80H58.125ZM70.5938 77.375H74.5312C75.6223 77.375 76.5 78.2527 76.5 79.3438V83.2812C76.5 84.3723 75.6223 85.25 74.5312 85.25H70.5938C69.5027 85.25 68.625 84.3723 68.625 83.2812V79.3438C68.625 78.2527 69.5027 77.375 70.5938 77.375ZM71.25 82.625H73.875V80H71.25V82.625Z" fill="white"/>
<path d="M29.7571 148V134.909H34.3338C35.2457 134.909 35.9979 135.067 36.5902 135.382C37.1825 135.693 37.6236 136.113 37.9134 136.641C38.2031 137.165 38.348 137.747 38.348 138.386C38.348 138.949 38.2479 139.413 38.0476 139.78C37.8516 140.146 37.5916 140.436 37.2678 140.649C36.9482 140.862 36.6009 141.02 36.2259 141.122V141.25C36.6264 141.276 37.0291 141.416 37.4339 141.672C37.8388 141.928 38.1776 142.294 38.4503 142.771C38.723 143.249 38.8594 143.832 38.8594 144.523C38.8594 145.179 38.7102 145.769 38.4119 146.293C38.1136 146.817 37.6428 147.233 36.9993 147.54C36.3558 147.847 35.5185 148 34.4872 148H29.7571ZM31.3423 146.594H34.4872C35.5227 146.594 36.2578 146.393 36.6925 145.993C37.1314 145.588 37.3509 145.098 37.3509 144.523C37.3509 144.08 37.2379 143.67 37.0121 143.295C36.7862 142.916 36.4645 142.614 36.0469 142.388C35.6293 142.158 35.1349 142.043 34.5639 142.043H31.3423V146.594ZM31.3423 140.662H34.2827C34.7599 140.662 35.1903 140.568 35.5739 140.381C35.9616 140.193 36.2685 139.929 36.4943 139.588C36.7244 139.247 36.8395 138.847 36.8395 138.386C36.8395 137.811 36.6392 137.323 36.2386 136.923C35.8381 136.518 35.2031 136.315 34.3338 136.315H31.3423V140.662ZM47.4471 143.986V138.182H48.9556V148H47.4471V146.338H47.3448C47.1147 146.837 46.7567 147.261 46.271 147.61C45.7852 147.955 45.1715 148.128 44.43 148.128C43.8164 148.128 43.271 147.994 42.7937 147.725C42.3164 147.452 41.9414 147.043 41.6687 146.498C41.396 145.948 41.2596 145.256 41.2596 144.42V138.182H42.7681V144.318C42.7681 145.034 42.9684 145.605 43.369 146.031C43.7738 146.457 44.2894 146.67 44.9158 146.67C45.2908 146.67 45.6722 146.575 46.06 146.383C46.4521 146.191 46.7802 145.897 47.0444 145.501C47.3129 145.104 47.4471 144.599 47.4471 143.986ZM58.6731 140.381L57.318 140.764C57.2328 140.538 57.1071 140.319 56.9409 140.106C56.7789 139.888 56.5574 139.71 56.2761 139.569C55.9949 139.428 55.6348 139.358 55.1958 139.358C54.595 139.358 54.0943 139.496 53.6937 139.773C53.2974 140.046 53.0993 140.393 53.0993 140.815C53.0993 141.19 53.2356 141.487 53.5083 141.704C53.7811 141.921 54.2072 142.102 54.7868 142.247L56.2441 142.605C57.122 142.818 57.7761 143.144 58.2065 143.583C58.6369 144.018 58.8521 144.578 58.8521 145.264C58.8521 145.827 58.6902 146.33 58.3663 146.773C58.0467 147.216 57.5993 147.565 57.024 147.821C56.4487 148.077 55.7797 148.205 55.0169 148.205C54.0154 148.205 53.1866 147.987 52.5304 147.553C51.8741 147.118 51.4586 146.483 51.2839 145.648L52.7157 145.29C52.8521 145.818 53.1099 146.214 53.4892 146.479C53.8727 146.743 54.3734 146.875 54.9913 146.875C55.6944 146.875 56.2527 146.726 56.666 146.428C57.0836 146.125 57.2924 145.763 57.2924 145.341C57.2924 145 57.1731 144.714 56.9345 144.484C56.6958 144.25 56.3294 144.075 55.8351 143.96L54.1987 143.577C53.2995 143.364 52.639 143.033 52.2172 142.586C51.7995 142.134 51.5907 141.57 51.5907 140.892C51.5907 140.338 51.7463 139.848 52.0574 139.422C52.3727 138.996 52.801 138.661 53.3422 138.418C53.8876 138.175 54.5055 138.054 55.1958 138.054C56.1674 138.054 56.9302 138.267 57.4842 138.693C58.0424 139.119 58.4387 139.682 58.6731 140.381ZM61.1229 148V138.182H62.6314V148H61.1229ZM61.8899 136.545C61.5959 136.545 61.3423 136.445 61.1293 136.245C60.9205 136.045 60.8161 135.804 60.8161 135.523C60.8161 135.241 60.9205 135.001 61.1293 134.8C61.3423 134.6 61.5959 134.5 61.8899 134.5C62.1839 134.5 62.4354 134.6 62.6442 134.8C62.8572 135.001 62.9638 135.241 62.9638 135.523C62.9638 135.804 62.8572 136.045 62.6442 136.245C62.4354 136.445 62.1839 136.545 61.8899 136.545ZM66.9029 142.094V148H65.3944V138.182H66.8517V139.716H66.9796C67.2097 139.217 67.5591 138.817 68.0279 138.514C68.4966 138.207 69.1017 138.054 69.8432 138.054C70.508 138.054 71.0897 138.19 71.5882 138.463C72.0868 138.732 72.4746 139.141 72.7516 139.69C73.0286 140.236 73.1671 140.926 73.1671 141.761V148H71.6586V141.864C71.6586 141.092 71.4583 140.491 71.0577 140.061C70.6571 139.626 70.1074 139.409 69.4086 139.409C68.927 139.409 68.4966 139.513 68.1174 139.722C67.7424 139.931 67.4462 140.236 67.2289 140.636C67.0115 141.037 66.9029 141.523 66.9029 142.094ZM80.0401 148.205C79.0941 148.205 78.2781 147.996 77.592 147.578C76.9102 147.156 76.3839 146.568 76.0131 145.814C75.6467 145.055 75.4634 144.173 75.4634 143.168C75.4634 142.162 75.6467 141.276 76.0131 140.509C76.3839 139.737 76.8995 139.136 77.56 138.706C78.2248 138.271 79.0004 138.054 79.8867 138.054C80.3981 138.054 80.9031 138.139 81.4016 138.31C81.9002 138.48 82.354 138.757 82.7631 139.141C83.1722 139.52 83.4982 140.023 83.7411 140.649C83.984 141.276 84.1055 142.047 84.1055 142.963V143.602H76.5373V142.298H82.5714C82.5714 141.744 82.4606 141.25 82.239 140.815C82.0217 140.381 81.7106 140.038 81.3058 139.786C80.9052 139.535 80.4322 139.409 79.8867 139.409C79.2859 139.409 78.766 139.558 78.3271 139.857C77.8924 140.151 77.5579 140.534 77.3235 141.007C77.0891 141.48 76.9719 141.987 76.9719 142.528V143.398C76.9719 144.139 77.0998 144.768 77.3555 145.283C77.6154 145.795 77.9755 146.185 78.4357 146.453C78.896 146.717 79.4308 146.849 80.0401 146.849C80.4364 146.849 80.7944 146.794 81.114 146.683C81.4379 146.568 81.717 146.398 81.9513 146.172C82.1857 145.942 82.3668 145.656 82.4947 145.315L83.9521 145.724C83.7987 146.219 83.5408 146.653 83.1786 147.028C82.8164 147.399 82.369 147.689 81.8363 147.898C81.3036 148.102 80.7049 148.205 80.0401 148.205ZM93.3548 140.381L91.9996 140.764C91.9144 140.538 91.7887 140.319 91.6225 140.106C91.4606 139.888 91.239 139.71 90.9577 139.569C90.6765 139.428 90.3164 139.358 89.8775 139.358C89.2766 139.358 88.7759 139.496 88.3754 139.773C87.979 140.046 87.7809 140.393 87.7809 140.815C87.7809 141.19 87.9173 141.487 88.19 141.704C88.4627 141.921 88.8888 142.102 89.4684 142.247L90.9258 142.605C91.8036 142.818 92.4577 143.144 92.8881 143.583C93.3185 144.018 93.5337 144.578 93.5337 145.264C93.5337 145.827 93.3718 146.33 93.0479 146.773C92.7283 147.216 92.2809 147.565 91.7056 147.821C91.1303 148.077 90.4613 148.205 89.6985 148.205C88.6971 148.205 87.8683 147.987 87.212 147.553C86.5558 147.118 86.1403 146.483 85.9656 145.648L87.3974 145.29C87.5337 145.818 87.7915 146.214 88.1708 146.479C88.5543 146.743 89.055 146.875 89.6729 146.875C90.3761 146.875 90.9343 146.726 91.3477 146.428C91.7653 146.125 91.9741 145.763 91.9741 145.341C91.9741 145 91.8548 144.714 91.6161 144.484C91.3775 144.25 91.011 144.075 90.5167 143.96L88.8803 143.577C87.9812 143.364 87.3207 143.033 86.8988 142.586C86.4812 142.134 86.2724 141.57 86.2724 140.892C86.2724 140.338 86.4279 139.848 86.739 139.422C87.0543 138.996 87.4826 138.661 88.0238 138.418C88.5692 138.175 89.1871 138.054 89.8775 138.054C90.8491 138.054 91.6119 138.267 92.1658 138.693C92.7241 139.119 93.1204 139.682 93.3548 140.381ZM102.759 140.381L101.404 140.764C101.319 140.538 101.193 140.319 101.027 140.106C100.865 139.888 100.643 139.71 100.362 139.569C100.081 139.428 99.7207 139.358 99.2818 139.358C98.6809 139.358 98.1802 139.496 97.7797 139.773C97.3833 140.046 97.1852 140.393 97.1852 140.815C97.1852 141.19 97.3216 141.487 97.5943 141.704C97.867 141.921 98.2931 142.102 98.8727 142.247L100.33 142.605C101.208 142.818 101.862 143.144 102.292 143.583C102.723 144.018 102.938 144.578 102.938 145.264C102.938 145.827 102.776 146.33 102.452 146.773C102.133 147.216 101.685 147.565 101.11 147.821C100.535 148.077 99.8656 148.205 99.1028 148.205C98.1014 148.205 97.2725 147.987 96.6163 147.553C95.96 147.118 95.5446 146.483 95.3699 145.648L96.8017 145.29C96.938 145.818 97.1958 146.214 97.5751 146.479C97.9586 146.743 98.4593 146.875 99.0772 146.875C99.7804 146.875 100.339 146.726 100.752 146.428C101.17 146.125 101.378 145.763 101.378 145.341C101.378 145 101.259 144.714 101.02 144.484C100.782 144.25 100.415 144.075 99.921 143.96L98.2846 143.577C97.3855 143.364 96.725 143.033 96.3031 142.586C95.8855 142.134 95.6767 141.57 95.6767 140.892C95.6767 140.338 95.8322 139.848 96.1433 139.422C96.4586 138.996 96.8869 138.661 97.4281 138.418C97.9735 138.175 98.5914 138.054 99.2818 138.054C100.253 138.054 101.016 138.267 101.57 138.693C102.128 139.119 102.525 139.682 102.759 140.381Z" fill="#728397"/>
<g clip-path="url(#clip0_1963_35514)">
<mask id="mask0_1963_35514" style="mask-type:luminance" maskUnits="userSpaceOnUse" x="84" y="98" width="24" height="24">
<path d="M108 98.2285H84V121.086H108V98.2285Z" fill="white"/>
</mask>
<g mask="url(#mask0_1963_35514)">
<path d="M96 121.086C102.627 121.086 108 115.969 108 109.657C108 103.345 102.627 98.2285 96 98.2285C89.3726 98.2285 84 103.345 84 109.657C84 115.969 89.3726 121.086 96 121.086Z" fill="#F0F0F0"/>
<path d="M95.4785 109.657H108C108 108.626 107.856 107.626 107.587 106.676H95.4785V109.657Z" fill="#D80027"/>
<path d="M95.4785 103.693H106.239C105.504 102.552 104.565 101.543 103.47 100.712H95.4785V103.693Z" fill="#D80027"/>
<path d="M95.9991 121.086C98.8232 121.086 101.419 120.156 103.469 118.602H88.5293C90.5791 120.156 93.1749 121.086 95.9991 121.086Z" fill="#D80027"/>
<path d="M85.762 115.619H106.239C106.829 114.703 107.287 113.701 107.587 112.638H84.4141C84.7149 113.701 85.1722 114.703 85.762 115.619Z" fill="#D80027"/>
<path d="M89.5586 100.013H90.6522L89.635 100.717L90.0235 101.856L89.0064 101.152L87.9893 101.856L88.3249 100.872C87.4293 101.583 86.6443 102.415 85.9974 103.342H86.3478L85.7003 103.79C85.5995 103.951 85.5027 104.114 85.41 104.279L85.7192 105.185L85.1423 104.786C84.999 105.075 84.8678 105.371 84.7499 105.673L85.0905 106.672H86.3478L85.3306 107.375L85.7192 108.514L84.702 107.81L84.0928 108.232C84.0318 108.699 84 109.174 84 109.657H96C96 103.345 96 102.601 96 98.2285C93.6294 98.2285 91.4196 98.8834 89.5586 100.013ZM90.0235 108.514L89.0064 107.81L87.9893 108.514L88.3778 107.375L87.3606 106.672H88.6179L89.0064 105.533L89.3949 106.672H90.6522L89.635 107.375L90.0235 108.514ZM89.635 104.046L90.0235 105.185L89.0064 104.481L87.9893 105.185L88.3778 104.046L87.3606 103.342H88.6179L89.0064 102.204L89.3949 103.342H90.6522L89.635 104.046ZM94.3279 108.514L93.3107 107.81L92.2936 108.514L92.6821 107.375L91.665 106.672H92.9222L93.3107 105.533L93.6992 106.672H94.9565L93.9393 107.375L94.3279 108.514ZM93.9393 104.046L94.3279 105.185L93.3107 104.481L92.2936 105.185L92.6821 104.046L91.665 103.342H92.9222L93.3107 102.204L93.6992 103.342H94.9565L93.9393 104.046ZM93.9393 100.717L94.3279 101.856L93.3107 101.152L92.2936 101.856L92.6821 100.717L91.665 100.013H92.9222L93.3107 98.8745L93.6992 100.013H94.9565L93.9393 100.717Z" fill="#0052B4"/>
</g>
</g>
<rect x="84.5" y="98.5" width="23" height="23" rx="11.5" stroke="url(#paint1_linear_1963_35514)"/>
<g clip-path="url(#clip1_1963_35514)">
<path d="M199.576 121.343C177.026 121.189 158.788 102.584 158.797 80.0547C158.806 57.1055 177.48 38.3048 200.877 38.6612C222.939 38.9976 241.609 57.0137 241.484 80.3393C241.363 102.891 222.925 121.467 200.236 121.341L199.576 121.337V121.343Z" fill="#232323" stroke="url(#paint2_linear_1963_35514)" stroke-width="1.3125"/>
<path d="M191.376 57.9844H195.576V62.1844H191.376V57.9844Z" fill="#E4FF3F"/>
<path d="M200.14 90.8704L211.606 62.1773H218.186V98.1713H213.048V71.3823L202.296 98.1713H197.977L187.183 71.3823V98.1713H182.094V62.1773H187.19V66.3633H190.347L200.14 90.8704Z" fill="#E4FF3F"/>
</g>
<path d="M175.789 134.909H177.681L182.13 145.776H182.284L186.733 134.909H188.625V148H187.142V138.054H187.014L182.923 148H181.491L177.4 138.054H177.272V148H175.789V134.909ZM192.57 134.909L195.945 140.355H196.047L199.422 134.909H201.289L197.172 141.455L201.289 148H199.422L196.047 142.656H195.945L192.57 148H190.704L194.922 141.455L190.704 134.909H192.57ZM213.733 134.909V148H212.198L205.065 137.722H204.937V148H203.352V134.909H204.886L212.045 145.213H212.173V134.909H213.733ZM220.816 148.205C219.87 148.205 219.054 147.996 218.368 147.578C217.687 147.156 217.16 146.568 216.79 145.814C216.423 145.055 216.24 144.173 216.24 143.168C216.24 142.162 216.423 141.276 216.79 140.509C217.16 139.737 217.676 139.136 218.336 138.706C219.001 138.271 219.777 138.054 220.663 138.054C221.174 138.054 221.679 138.139 222.178 138.31C222.677 138.48 223.13 138.757 223.54 139.141C223.949 139.52 224.275 140.023 224.517 140.649C224.76 141.276 224.882 142.047 224.882 142.963V143.602H217.314V142.298H223.348C223.348 141.744 223.237 141.25 223.015 140.815C222.798 140.381 222.487 140.038 222.082 139.786C221.682 139.535 221.209 139.409 220.663 139.409C220.062 139.409 219.542 139.558 219.103 139.857C218.669 140.151 218.334 140.534 218.1 141.007C217.866 141.48 217.748 141.987 217.748 142.528V143.398C217.748 144.139 217.876 144.768 218.132 145.283C218.392 145.795 218.752 146.185 219.212 146.453C219.672 146.717 220.207 146.849 220.816 146.849C221.213 146.849 221.571 146.794 221.89 146.683C222.214 146.568 222.493 146.398 222.728 146.172C222.962 145.942 223.143 145.656 223.271 145.315L224.728 145.724C224.575 146.219 224.317 146.653 223.955 147.028C223.593 147.399 223.145 147.689 222.613 147.898C222.08 148.102 221.481 148.205 220.816 148.205Z" fill="#728397"/>
<rect x="292.656" y="38.6562" width="82.6875" height="82.6875" rx="41.3438" fill="#7A5AF8"/>
<rect x="292.656" y="38.6562" width="82.6875" height="82.6875" rx="41.3438" stroke="url(#paint3_linear_1963_35514)" stroke-width="1.3125"/>
<path d="M323.5 61.625C322.048 61.625 320.875 62.798 320.875 64.25V95.75C320.875 97.202 322.048 98.375 323.5 98.375H328.75V93.125C328.75 90.2293 331.104 87.875 334 87.875C336.896 87.875 339.25 90.2293 339.25 93.125V98.375H344.5C345.952 98.375 347.125 97.202 347.125 95.75V64.25C347.125 62.798 345.952 61.625 344.5 61.625H323.5ZM336.625 93.125C336.625 91.673 335.452 90.5 334 90.5C332.548 90.5 331.375 91.673 331.375 93.125V98.375H336.625V93.125ZM328.75 101H323.5C320.604 101 318.25 98.6457 318.25 95.75V64.25C318.25 61.3543 320.604 59 323.5 59H344.5C347.396 59 349.75 61.3543 349.75 64.25V95.75C349.75 98.6457 347.396 101 344.5 101H339.25H336.625H331.375H328.75ZM323.5 68.8438C323.5 67.7527 324.378 66.875 325.469 66.875H329.406C330.497 66.875 331.375 67.7527 331.375 68.8438V72.7812C331.375 73.8723 330.497 74.75 329.406 74.75H325.469C324.378 74.75 323.5 73.8723 323.5 72.7812V68.8438ZM326.125 69.5V72.125H328.75V69.5H326.125ZM338.594 66.875H342.531C343.622 66.875 344.5 67.7527 344.5 68.8438V72.7812C344.5 73.8723 343.622 74.75 342.531 74.75H338.594C337.503 74.75 336.625 73.8723 336.625 72.7812V68.8438C336.625 67.7527 337.503 66.875 338.594 66.875ZM339.25 72.125H341.875V69.5H339.25V72.125ZM323.5 79.3438C323.5 78.2527 324.378 77.375 325.469 77.375H329.406C330.497 77.375 331.375 78.2527 331.375 79.3438V83.2812C331.375 84.3723 330.497 85.25 329.406 85.25H325.469C324.378 85.25 323.5 84.3723 323.5 83.2812V79.3438ZM326.125 80V82.625H328.75V80H326.125ZM338.594 77.375H342.531C343.622 77.375 344.5 78.2527 344.5 79.3438V83.2812C344.5 84.3723 343.622 85.25 342.531 85.25H338.594C337.503 85.25 336.625 84.3723 336.625 83.2812V79.3438C336.625 78.2527 337.503 77.375 338.594 77.375ZM339.25 82.625H341.875V80H339.25V82.625Z" fill="white"/>
<path d="M298.821 148V134.909H303.244C304.267 134.909 305.106 135.084 305.762 135.433C306.419 135.778 306.904 136.254 307.22 136.859C307.535 137.464 307.693 138.152 307.693 138.923C307.693 139.695 307.535 140.379 307.22 140.975C306.904 141.572 306.421 142.04 305.769 142.381C305.117 142.718 304.284 142.886 303.269 142.886H299.69V141.455H303.218C303.917 141.455 304.48 141.352 304.906 141.148C305.336 140.943 305.647 140.653 305.839 140.278C306.035 139.899 306.133 139.447 306.133 138.923C306.133 138.399 306.035 137.941 305.839 137.549C305.643 137.157 305.33 136.854 304.899 136.641C304.469 136.424 303.9 136.315 303.193 136.315H300.406V148H298.821ZM304.983 142.119L308.204 148H306.363L303.193 142.119H304.983ZM314.141 148.205C313.195 148.205 312.379 147.996 311.693 147.578C311.011 147.156 310.484 146.568 310.114 145.814C309.747 145.055 309.564 144.173 309.564 143.168C309.564 142.162 309.747 141.276 310.114 140.509C310.484 139.737 311 139.136 311.661 138.706C312.325 138.271 313.101 138.054 313.987 138.054C314.499 138.054 315.004 138.139 315.502 138.31C316.001 138.48 316.455 138.757 316.864 139.141C317.273 139.52 317.599 140.023 317.842 140.649C318.085 141.276 318.206 142.047 318.206 142.963V143.602H310.638V142.298H316.672C316.672 141.744 316.561 141.25 316.34 140.815C316.122 140.381 315.811 140.038 315.406 139.786C315.006 139.535 314.533 139.409 313.987 139.409C313.386 139.409 312.867 139.558 312.428 139.857C311.993 140.151 311.658 140.534 311.424 141.007C311.19 141.48 311.073 141.987 311.073 142.528V143.398C311.073 144.139 311.2 144.768 311.456 145.283C311.716 145.795 312.076 146.185 312.536 146.453C312.997 146.717 313.531 146.849 314.141 146.849C314.537 146.849 314.895 146.794 315.215 146.683C315.538 146.568 315.818 146.398 316.052 146.172C316.286 145.942 316.467 145.656 316.595 145.315L318.053 145.724C317.899 146.219 317.641 146.653 317.279 147.028C316.917 147.399 316.47 147.689 315.937 147.898C315.404 148.102 314.805 148.205 314.141 148.205ZM324.489 148.205C323.569 148.205 322.776 147.987 322.112 147.553C321.447 147.118 320.935 146.519 320.578 145.756C320.22 144.994 320.041 144.122 320.041 143.142C320.041 142.145 320.224 141.265 320.59 140.502C320.961 139.735 321.477 139.136 322.137 138.706C322.802 138.271 323.578 138.054 324.464 138.054C325.154 138.054 325.776 138.182 326.33 138.438C326.884 138.693 327.338 139.051 327.692 139.511C328.046 139.972 328.265 140.509 328.35 141.122H326.842C326.727 140.675 326.471 140.278 326.075 139.933C325.683 139.584 325.154 139.409 324.489 139.409C323.901 139.409 323.386 139.562 322.943 139.869C322.504 140.172 322.161 140.6 321.913 141.154C321.671 141.704 321.549 142.349 321.549 143.091C321.549 143.849 321.668 144.51 321.907 145.072C322.15 145.635 322.491 146.072 322.93 146.383C323.373 146.694 323.893 146.849 324.489 146.849C324.881 146.849 325.237 146.781 325.557 146.645C325.877 146.509 326.147 146.312 326.369 146.057C326.59 145.801 326.748 145.494 326.842 145.136H328.35C328.265 145.716 328.054 146.238 327.717 146.702C327.385 147.163 326.944 147.529 326.394 147.802C325.849 148.07 325.214 148.205 324.489 148.205ZM334.672 148.205C333.726 148.205 332.91 147.996 332.224 147.578C331.542 147.156 331.016 146.568 330.645 145.814C330.278 145.055 330.095 144.173 330.095 143.168C330.095 142.162 330.278 141.276 330.645 140.509C331.016 139.737 331.531 139.136 332.192 138.706C332.857 138.271 333.632 138.054 334.519 138.054C335.03 138.054 335.535 138.139 336.033 138.31C336.532 138.48 336.986 138.757 337.395 139.141C337.804 139.52 338.13 140.023 338.373 140.649C338.616 141.276 338.737 142.047 338.737 142.963V143.602H331.169V142.298H337.203C337.203 141.744 337.092 141.25 336.871 140.815C336.653 140.381 336.342 140.038 335.938 139.786C335.537 139.535 335.064 139.409 334.519 139.409C333.918 139.409 333.398 139.558 332.959 139.857C332.524 140.151 332.19 140.534 331.955 141.007C331.721 141.48 331.604 141.987 331.604 142.528V143.398C331.604 144.139 331.732 144.768 331.987 145.283C332.247 145.795 332.607 146.185 333.068 146.453C333.528 146.717 334.063 146.849 334.672 146.849C335.068 146.849 335.426 146.794 335.746 146.683C336.07 146.568 336.349 146.398 336.583 146.172C336.818 145.942 336.999 145.656 337.127 145.315L338.584 145.724C338.43 146.219 338.173 146.653 337.81 147.028C337.448 147.399 337.001 147.689 336.468 147.898C335.935 148.102 335.337 148.205 334.672 148.205ZM341.032 148V138.182H342.541V148H341.032ZM341.799 136.545C341.505 136.545 341.252 136.445 341.038 136.245C340.83 136.045 340.725 135.804 340.725 135.523C340.725 135.241 340.83 135.001 341.038 134.8C341.252 134.6 341.505 134.5 341.799 134.5C342.093 134.5 342.345 134.6 342.553 134.8C342.766 135.001 342.873 135.241 342.873 135.523C342.873 135.804 342.766 136.045 342.553 136.245C342.345 136.445 342.093 136.545 341.799 136.545ZM353.332 138.182L349.701 148H348.167L344.536 138.182H346.173L348.883 146.006H348.985L351.696 138.182H353.332ZM359.088 148.205C358.142 148.205 357.326 147.996 356.64 147.578C355.958 147.156 355.432 146.568 355.061 145.814C354.695 145.055 354.511 144.173 354.511 143.168C354.511 142.162 354.695 141.276 355.061 140.509C355.432 139.737 355.947 139.136 356.608 138.706C357.273 138.271 358.048 138.054 358.935 138.054C359.446 138.054 359.951 138.139 360.449 138.31C360.948 138.48 361.402 138.757 361.811 139.141C362.22 139.52 362.546 140.023 362.789 140.649C363.032 141.276 363.153 142.047 363.153 142.963V143.602H355.585V142.298H361.619C361.619 141.744 361.508 141.25 361.287 140.815C361.07 140.381 360.758 140.038 360.354 139.786C359.953 139.535 359.48 139.409 358.935 139.409C358.334 139.409 357.814 139.558 357.375 139.857C356.94 140.151 356.606 140.534 356.371 141.007C356.137 141.48 356.02 141.987 356.02 142.528V143.398C356.02 144.139 356.148 144.768 356.403 145.283C356.663 145.795 357.023 146.185 357.484 146.453C357.944 146.717 358.479 146.849 359.088 146.849C359.484 146.849 359.842 146.794 360.162 146.683C360.486 146.568 360.765 146.398 360.999 146.172C361.234 145.942 361.415 145.656 361.543 145.315L363 145.724C362.847 146.219 362.589 146.653 362.226 147.028C361.864 147.399 361.417 147.689 360.884 147.898C360.351 148.102 359.753 148.205 359.088 148.205ZM365.448 148V138.182H366.905V139.665H367.008C367.187 139.179 367.511 138.785 367.979 138.482C368.448 138.18 368.976 138.028 369.565 138.028C369.675 138.028 369.814 138.031 369.98 138.035C370.146 138.039 370.272 138.045 370.357 138.054V139.588C370.306 139.575 370.189 139.556 370.006 139.531C369.827 139.501 369.637 139.486 369.437 139.486C368.959 139.486 368.533 139.586 368.158 139.786C367.788 139.982 367.494 140.255 367.276 140.604C367.063 140.95 366.957 141.344 366.957 141.787V148H365.448Z" fill="#728397"/>
<g clip-path="url(#clip2_1963_35514)">
<mask id="mask1_1963_35514" style="mask-type:luminance" maskUnits="userSpaceOnUse" x="352" y="98" width="24" height="24">
<path d="M376 98.2285H352V121.086H376V98.2285Z" fill="white"/>
</mask>
<g mask="url(#mask1_1963_35514)">
<path d="M364 121.086C370.627 121.086 376 115.969 376 109.657C376 103.345 370.627 98.2285 364 98.2285C357.373 98.2285 352 103.345 352 109.657C352 115.969 357.373 121.086 364 121.086Z" fill="#F0F0F0"/>
<path d="M375.999 109.657C375.999 105.126 373.231 101.211 369.217 99.3623V119.951C373.231 118.103 375.999 114.188 375.999 109.657Z" fill="#D80027"/>
<path d="M352 109.657C352 114.188 354.769 118.103 358.783 119.951V99.3623C354.769 101.211 352 105.126 352 109.657Z" fill="#6DA544"/>
<path d="M360.869 109.656C360.869 111.302 362.271 112.637 364 112.637C365.728 112.637 367.13 111.302 367.13 109.656V108.662H360.869V109.656Z" fill="#6DA544"/>
<path d="M368.174 107.67H365.044C365.044 107.121 364.576 106.676 364 106.676C363.424 106.676 362.957 107.121 362.957 107.67H359.826C359.826 108.218 360.328 108.663 360.904 108.663H360.87C360.87 109.212 361.337 109.657 361.913 109.657C361.913 110.206 362.38 110.651 362.957 110.651H365.044C365.62 110.651 366.087 110.206 366.087 109.657C366.663 109.657 367.131 109.212 367.131 108.663H367.096C367.672 108.663 368.174 108.218 368.174 107.67Z" fill="#FF9811"/>
</g>
</g>
<rect x="352.5" y="98.5" width="23" height="23" rx="11.5" stroke="url(#paint4_linear_1963_35514)"/>
<path d="M126 77C125.448 77 125 77.4477 125 78C125 78.5523 125.448 79 126 79V77ZM141.207 78.7071C141.598 78.3166 141.598 77.6834 141.207 77.2929L134.843 70.9289C134.453 70.5384 133.819 70.5384 133.429 70.9289C133.038 71.3195 133.038 71.9526 133.429 72.3431L139.086 78L133.429 83.6569C133.038 84.0474 133.038 84.6805 133.429 85.0711C133.819 85.4616 134.453 85.4616 134.843 85.0711L141.207 78.7071ZM126 79H140.5V77H126V79Z" fill="#728397"/>
<path d="M260 77C259.448 77 259 77.4477 259 78C259 78.5523 259.448 79 260 79V77ZM275.207 78.7071C275.598 78.3166 275.598 77.6834 275.207 77.2929L268.843 70.9289C268.453 70.5384 267.819 70.5384 267.429 70.9289C267.038 71.3195 267.038 71.9526 267.429 72.3431L273.086 78L267.429 83.6569C267.038 84.0474 267.038 84.6805 267.429 85.0711C267.819 85.4616 268.453 85.4616 268.843 85.0711L275.207 78.7071ZM260 79H274.5V77H260V79Z" fill="#728397"/>
<defs>
<linearGradient id="paint0_linear_1963_35514" x1="24" y1="121.616" x2="107.939" y2="37.9975" gradientUnits="userSpaceOnUse">
<stop stop-color="#7A5AF8"/>
<stop offset="1" stop-color="#C1B1FF"/>
</linearGradient>
<linearGradient id="paint1_linear_1963_35514" x1="84" y1="121.89" x2="107.983" y2="97.9993" gradientUnits="userSpaceOnUse">
<stop stop-color="#7A5AF8"/>
<stop offset="1" stop-color="#C1B1FF"/>
</linearGradient>
<linearGradient id="paint2_linear_1963_35514" x1="158.141" y1="121.617" x2="242.08" y2="37.9974" gradientUnits="userSpaceOnUse">
<stop stop-color="#232323"/>
<stop offset="1" stop-color="#404040"/>
</linearGradient>
<linearGradient id="paint3_linear_1963_35514" x1="292" y1="121.616" x2="375.939" y2="37.9975" gradientUnits="userSpaceOnUse">
<stop stop-color="#7A5AF8"/>
<stop offset="1" stop-color="#C1B1FF"/>
</linearGradient>
<linearGradient id="paint4_linear_1963_35514" x1="352" y1="121.89" x2="375.983" y2="97.9993" gradientUnits="userSpaceOnUse">
<stop stop-color="#7A5AF8"/>
<stop offset="1" stop-color="#C1B1FF"/>
</linearGradient>
<clipPath id="clip0_1963_35514">
<rect x="84" y="98" width="24" height="24" rx="12" fill="white"/>
</clipPath>
<clipPath id="clip1_1963_35514">
<rect x="158" y="38" width="84" height="84" rx="42" fill="white"/>
</clipPath>
<clipPath id="clip2_1963_35514">
<rect x="352" y="98" width="24" height="24" rx="12" fill="white"/>
</clipPath>
</defs>
</svg>
