<svg width="400" height="190" viewBox="0 0 400 190" fill="none" xmlns="http://www.w3.org/2000/svg">
<rect x="158.656" y="38.6562" width="82.6875" height="82.6875" rx="41.3438" fill="#12B76A"/>
<rect x="158.656" y="38.6562" width="82.6875" height="82.6875" rx="41.3438" stroke="url(#paint0_linear_1942_35377)" stroke-width="1.3125"/>
<path d="M201.312 60.3125C201.312 59.5906 200.722 59 200 59C199.278 59 198.688 59.5906 198.688 60.3125V64.209C198.171 64.2172 197.654 64.2336 197.145 64.2828C195.177 64.4469 193.216 64.9227 191.616 65.9727C189.968 67.0473 188.778 68.6797 188.343 70.9766C188.032 72.6418 188.188 74.1102 188.811 75.3816C189.418 76.6367 190.411 77.5801 191.559 78.3102C193.749 79.7047 196.776 80.5004 199.532 81.2223L199.672 81.2551C202.6 82.0262 205.234 82.7234 207.038 83.8719C207.908 84.4297 208.498 85.0367 208.835 85.7258C209.163 86.4066 209.311 87.2844 209.081 88.4984C208.761 90.1965 207.571 91.4844 205.562 92.2719C203.519 93.0758 200.714 93.3055 197.523 92.8461C195.521 92.5508 192.519 91.8535 190.033 90.7789C189.369 90.4918 188.598 90.7953 188.311 91.468C188.023 92.1406 188.327 92.9035 189 93.1906C191.756 94.3801 194.996 95.1184 197.145 95.4383H197.154C197.679 95.5121 198.195 95.5695 198.704 95.6105V99.6875C198.704 100.409 199.295 101 200.016 101C200.738 101 201.329 100.409 201.329 99.6875V95.7008C203.232 95.6434 205.004 95.3152 206.53 94.7246C209.155 93.6992 211.14 91.7961 211.673 88.9906C211.985 87.3254 211.829 85.857 211.205 84.5855C210.598 83.3305 209.598 82.3871 208.457 81.6652C206.267 80.2707 203.24 79.475 200.484 78.7531L200.345 78.7203C197.416 77.9492 194.783 77.252 192.978 76.1035C192.109 75.5457 191.518 74.9387 191.182 74.2496C190.854 73.5687 190.706 72.691 190.936 71.477C191.231 69.8938 192.01 68.8684 193.068 68.1793C194.168 67.4574 195.652 67.0555 197.383 66.9078C200.853 66.6207 204.873 67.4 207.58 68.0563C208.285 68.2285 208.991 67.7937 209.163 67.0883C209.335 66.3828 208.9 65.6773 208.195 65.5051C206.398 65.0703 203.921 64.5453 201.321 64.3238V60.3125H201.312Z" fill="white"/>
<path d="M191.297 134.909H192.882V143.577C192.882 144.472 192.672 145.271 192.25 145.974C191.832 146.673 191.242 147.224 190.479 147.629C189.716 148.03 188.821 148.23 187.794 148.23C186.767 148.23 185.873 148.03 185.11 147.629C184.347 147.224 183.755 146.673 183.333 145.974C182.915 145.271 182.706 144.472 182.706 143.577V134.909H184.292V143.449C184.292 144.088 184.432 144.657 184.713 145.156C184.995 145.65 185.395 146.04 185.915 146.325C186.439 146.607 187.066 146.747 187.794 146.747C188.523 146.747 189.15 146.607 189.674 146.325C190.198 146.04 190.598 145.65 190.875 145.156C191.157 144.657 191.297 144.088 191.297 143.449V134.909ZM203.207 138.182C203.131 137.534 202.819 137.031 202.274 136.673C201.729 136.315 201.059 136.136 200.267 136.136C199.687 136.136 199.18 136.23 198.746 136.418C198.315 136.605 197.979 136.863 197.736 137.191C197.497 137.519 197.378 137.892 197.378 138.31C197.378 138.659 197.461 138.96 197.627 139.211C197.797 139.458 198.015 139.665 198.279 139.831C198.543 139.993 198.82 140.127 199.11 140.234C199.4 140.336 199.666 140.419 199.909 140.483L201.238 140.841C201.579 140.93 201.959 141.054 202.376 141.212C202.798 141.369 203.201 141.585 203.584 141.857C203.972 142.126 204.292 142.471 204.543 142.893C204.795 143.315 204.92 143.832 204.92 144.446C204.92 145.153 204.735 145.793 204.364 146.364C203.998 146.935 203.461 147.388 202.753 147.725C202.05 148.062 201.196 148.23 200.19 148.23C199.253 148.23 198.441 148.079 197.755 147.776C197.073 147.474 196.536 147.052 196.144 146.511C195.756 145.969 195.537 145.341 195.486 144.625H197.122C197.165 145.119 197.331 145.528 197.621 145.852C197.915 146.172 198.285 146.411 198.733 146.568C199.184 146.722 199.67 146.798 200.19 146.798C200.795 146.798 201.339 146.7 201.82 146.504C202.302 146.304 202.683 146.027 202.964 145.673C203.246 145.315 203.386 144.898 203.386 144.42C203.386 143.986 203.265 143.632 203.022 143.359C202.779 143.087 202.459 142.865 202.063 142.695C201.667 142.524 201.238 142.375 200.778 142.247L199.167 141.787C198.145 141.493 197.335 141.073 196.738 140.528C196.142 139.982 195.844 139.268 195.844 138.386C195.844 137.653 196.042 137.014 196.438 136.469C196.839 135.919 197.376 135.493 198.049 135.19C198.726 134.884 199.483 134.73 200.318 134.73C201.162 134.73 201.912 134.881 202.568 135.184C203.224 135.482 203.744 135.891 204.128 136.411C204.515 136.931 204.72 137.521 204.741 138.182H203.207ZM211.566 148H207.527V134.909H211.745C213.015 134.909 214.102 135.171 215.005 135.695C215.909 136.215 216.601 136.963 217.083 137.939C217.564 138.911 217.805 140.074 217.805 141.429C217.805 142.793 217.562 143.967 217.076 144.951C216.591 145.931 215.883 146.685 214.954 147.214C214.025 147.738 212.896 148 211.566 148ZM209.112 146.594H211.464C212.547 146.594 213.444 146.385 214.155 145.967C214.867 145.55 215.397 144.955 215.747 144.184C216.096 143.413 216.271 142.494 216.271 141.429C216.271 140.372 216.098 139.462 215.753 138.7C215.408 137.933 214.892 137.344 214.206 136.935C213.52 136.522 212.666 136.315 211.643 136.315H209.112V146.594Z" fill="#728397"/>
<g clip-path="url(#clip0_1942_35377)">
<path d="M333.576 121.343C311.026 121.189 292.788 102.584 292.797 80.0547C292.806 57.1055 311.48 38.3048 334.877 38.6612C356.939 38.9976 375.609 57.0137 375.484 80.3393C375.363 102.891 356.925 121.467 334.236 121.341L333.576 121.337V121.343Z" fill="#232323" stroke="url(#paint1_linear_1942_35377)" stroke-width="1.3125"/>
<path d="M325.376 57.9844H329.576V62.1844H325.376V57.9844Z" fill="#E4FF3F"/>
<path d="M334.14 90.8704L345.606 62.1773H352.186V98.1713H347.048V71.3823L336.296 98.1713H331.977L321.183 71.3823V98.1713H316.094V62.1773H321.19V66.3633H324.347L334.14 90.8704Z" fill="#E4FF3F"/>
</g>
<path d="M309.789 134.909H311.681L316.13 145.776H316.284L320.733 134.909H322.625V148H321.142V138.054H321.014L316.923 148H315.491L311.4 138.054H311.272V148H309.789V134.909ZM326.57 134.909L329.945 140.355H330.047L333.422 134.909H335.289L331.172 141.455L335.289 148H333.422L330.047 142.656H329.945L326.57 148H324.704L328.922 141.455L324.704 134.909H326.57ZM347.733 134.909V148H346.198L339.065 137.722H338.937V148H337.352V134.909H338.886L346.045 145.213H346.173V134.909H347.733ZM354.816 148.205C353.87 148.205 353.054 147.996 352.368 147.578C351.687 147.156 351.16 146.568 350.79 145.814C350.423 145.055 350.24 144.173 350.24 143.168C350.24 142.162 350.423 141.276 350.79 140.509C351.16 139.737 351.676 139.136 352.336 138.706C353.001 138.271 353.777 138.054 354.663 138.054C355.174 138.054 355.679 138.139 356.178 138.31C356.677 138.48 357.13 138.757 357.54 139.141C357.949 139.52 358.275 140.023 358.517 140.649C358.76 141.276 358.882 142.047 358.882 142.963V143.602H351.314V142.298H357.348C357.348 141.744 357.237 141.25 357.015 140.815C356.798 140.381 356.487 140.038 356.082 139.786C355.682 139.535 355.209 139.409 354.663 139.409C354.062 139.409 353.542 139.558 353.103 139.857C352.669 140.151 352.334 140.534 352.1 141.007C351.866 141.48 351.748 141.987 351.748 142.528V143.398C351.748 144.139 351.876 144.768 352.132 145.283C352.392 145.795 352.752 146.185 353.212 146.453C353.672 146.717 354.207 146.849 354.816 146.849C355.213 146.849 355.571 146.794 355.89 146.683C356.214 146.568 356.493 146.398 356.728 146.172C356.962 145.942 357.143 145.656 357.271 145.315L358.728 145.724C358.575 146.219 358.317 146.653 357.955 147.028C357.593 147.399 357.145 147.689 356.613 147.898C356.08 148.102 355.481 148.205 354.816 148.205Z" fill="#728397"/>
<rect x="24.6562" y="38.6562" width="82.6875" height="82.6875" rx="41.3438" fill="#7A5AF8"/>
<rect x="24.6562" y="38.6562" width="82.6875" height="82.6875" rx="41.3438" stroke="url(#paint2_linear_1942_35377)" stroke-width="1.3125"/>
<path d="M55.5 61.625C54.048 61.625 52.875 62.798 52.875 64.25V95.75C52.875 97.202 54.048 98.375 55.5 98.375H60.75V93.125C60.75 90.2293 63.1043 87.875 66 87.875C68.8957 87.875 71.25 90.2293 71.25 93.125V98.375H76.5C77.952 98.375 79.125 97.202 79.125 95.75V64.25C79.125 62.798 77.952 61.625 76.5 61.625H55.5ZM68.625 93.125C68.625 91.673 67.452 90.5 66 90.5C64.548 90.5 63.375 91.673 63.375 93.125V98.375H68.625V93.125ZM60.75 101H55.5C52.6043 101 50.25 98.6457 50.25 95.75V64.25C50.25 61.3543 52.6043 59 55.5 59H76.5C79.3957 59 81.75 61.3543 81.75 64.25V95.75C81.75 98.6457 79.3957 101 76.5 101H71.25H68.625H63.375H60.75ZM55.5 68.8438C55.5 67.7527 56.3777 66.875 57.4688 66.875H61.4062C62.4973 66.875 63.375 67.7527 63.375 68.8438V72.7812C63.375 73.8723 62.4973 74.75 61.4062 74.75H57.4688C56.3777 74.75 55.5 73.8723 55.5 72.7812V68.8438ZM58.125 69.5V72.125H60.75V69.5H58.125ZM70.5938 66.875H74.5312C75.6223 66.875 76.5 67.7527 76.5 68.8438V72.7812C76.5 73.8723 75.6223 74.75 74.5312 74.75H70.5938C69.5027 74.75 68.625 73.8723 68.625 72.7812V68.8438C68.625 67.7527 69.5027 66.875 70.5938 66.875ZM71.25 72.125H73.875V69.5H71.25V72.125ZM55.5 79.3438C55.5 78.2527 56.3777 77.375 57.4688 77.375H61.4062C62.4973 77.375 63.375 78.2527 63.375 79.3438V83.2812C63.375 84.3723 62.4973 85.25 61.4062 85.25H57.4688C56.3777 85.25 55.5 84.3723 55.5 83.2812V79.3438ZM58.125 80V82.625H60.75V80H58.125ZM70.5938 77.375H74.5312C75.6223 77.375 76.5 78.2527 76.5 79.3438V83.2812C76.5 84.3723 75.6223 85.25 74.5312 85.25H70.5938C69.5027 85.25 68.625 84.3723 68.625 83.2812V79.3438C68.625 78.2527 69.5027 77.375 70.5938 77.375ZM71.25 82.625H73.875V80H71.25V82.625Z" fill="white"/>
<path d="M29.7571 148V134.909H34.3338C35.2457 134.909 35.9979 135.067 36.5902 135.382C37.1825 135.693 37.6236 136.113 37.9134 136.641C38.2031 137.165 38.348 137.747 38.348 138.386C38.348 138.949 38.2479 139.413 38.0476 139.78C37.8516 140.146 37.5916 140.436 37.2678 140.649C36.9482 140.862 36.6009 141.02 36.2259 141.122V141.25C36.6264 141.276 37.0291 141.416 37.4339 141.672C37.8388 141.928 38.1776 142.294 38.4503 142.771C38.723 143.249 38.8594 143.832 38.8594 144.523C38.8594 145.179 38.7102 145.769 38.4119 146.293C38.1136 146.817 37.6428 147.233 36.9993 147.54C36.3558 147.847 35.5185 148 34.4872 148H29.7571ZM31.3423 146.594H34.4872C35.5227 146.594 36.2578 146.393 36.6925 145.993C37.1314 145.588 37.3509 145.098 37.3509 144.523C37.3509 144.08 37.2379 143.67 37.0121 143.295C36.7862 142.916 36.4645 142.614 36.0469 142.388C35.6293 142.158 35.1349 142.043 34.5639 142.043H31.3423V146.594ZM31.3423 140.662H34.2827C34.7599 140.662 35.1903 140.568 35.5739 140.381C35.9616 140.193 36.2685 139.929 36.4943 139.588C36.7244 139.247 36.8395 138.847 36.8395 138.386C36.8395 137.811 36.6392 137.323 36.2386 136.923C35.8381 136.518 35.2031 136.315 34.3338 136.315H31.3423V140.662ZM47.4471 143.986V138.182H48.9556V148H47.4471V146.338H47.3448C47.1147 146.837 46.7567 147.261 46.271 147.61C45.7852 147.955 45.1715 148.128 44.43 148.128C43.8164 148.128 43.271 147.994 42.7937 147.725C42.3164 147.452 41.9414 147.043 41.6687 146.498C41.396 145.948 41.2596 145.256 41.2596 144.42V138.182H42.7681V144.318C42.7681 145.034 42.9684 145.605 43.369 146.031C43.7738 146.457 44.2894 146.67 44.9158 146.67C45.2908 146.67 45.6722 146.575 46.06 146.383C46.4521 146.191 46.7802 145.897 47.0444 145.501C47.3129 145.104 47.4471 144.599 47.4471 143.986ZM58.6731 140.381L57.318 140.764C57.2328 140.538 57.1071 140.319 56.9409 140.106C56.7789 139.888 56.5574 139.71 56.2761 139.569C55.9949 139.428 55.6348 139.358 55.1958 139.358C54.595 139.358 54.0943 139.496 53.6937 139.773C53.2974 140.046 53.0993 140.393 53.0993 140.815C53.0993 141.19 53.2356 141.487 53.5083 141.704C53.7811 141.921 54.2072 142.102 54.7868 142.247L56.2441 142.605C57.122 142.818 57.7761 143.144 58.2065 143.583C58.6369 144.018 58.8521 144.578 58.8521 145.264C58.8521 145.827 58.6902 146.33 58.3663 146.773C58.0467 147.216 57.5993 147.565 57.024 147.821C56.4487 148.077 55.7797 148.205 55.0169 148.205C54.0154 148.205 53.1866 147.987 52.5304 147.553C51.8741 147.118 51.4586 146.483 51.2839 145.648L52.7157 145.29C52.8521 145.818 53.1099 146.214 53.4892 146.479C53.8727 146.743 54.3734 146.875 54.9913 146.875C55.6944 146.875 56.2527 146.726 56.666 146.428C57.0836 146.125 57.2924 145.763 57.2924 145.341C57.2924 145 57.1731 144.714 56.9345 144.484C56.6958 144.25 56.3294 144.075 55.8351 143.96L54.1987 143.577C53.2995 143.364 52.639 143.033 52.2172 142.586C51.7995 142.134 51.5907 141.57 51.5907 140.892C51.5907 140.338 51.7463 139.848 52.0574 139.422C52.3727 138.996 52.801 138.661 53.3422 138.418C53.8876 138.175 54.5055 138.054 55.1958 138.054C56.1674 138.054 56.9302 138.267 57.4842 138.693C58.0424 139.119 58.4387 139.682 58.6731 140.381ZM61.1229 148V138.182H62.6314V148H61.1229ZM61.8899 136.545C61.5959 136.545 61.3423 136.445 61.1293 136.245C60.9205 136.045 60.8161 135.804 60.8161 135.523C60.8161 135.241 60.9205 135.001 61.1293 134.8C61.3423 134.6 61.5959 134.5 61.8899 134.5C62.1839 134.5 62.4354 134.6 62.6442 134.8C62.8572 135.001 62.9638 135.241 62.9638 135.523C62.9638 135.804 62.8572 136.045 62.6442 136.245C62.4354 136.445 62.1839 136.545 61.8899 136.545ZM66.9029 142.094V148H65.3944V138.182H66.8517V139.716H66.9796C67.2097 139.217 67.5591 138.817 68.0279 138.514C68.4966 138.207 69.1017 138.054 69.8432 138.054C70.508 138.054 71.0897 138.19 71.5882 138.463C72.0868 138.732 72.4746 139.141 72.7516 139.69C73.0286 140.236 73.1671 140.926 73.1671 141.761V148H71.6586V141.864C71.6586 141.092 71.4583 140.491 71.0577 140.061C70.6571 139.626 70.1074 139.409 69.4086 139.409C68.927 139.409 68.4966 139.513 68.1174 139.722C67.7424 139.931 67.4462 140.236 67.2289 140.636C67.0115 141.037 66.9029 141.523 66.9029 142.094ZM80.0401 148.205C79.0941 148.205 78.2781 147.996 77.592 147.578C76.9102 147.156 76.3839 146.568 76.0131 145.814C75.6467 145.055 75.4634 144.173 75.4634 143.168C75.4634 142.162 75.6467 141.276 76.0131 140.509C76.3839 139.737 76.8995 139.136 77.56 138.706C78.2248 138.271 79.0004 138.054 79.8867 138.054C80.3981 138.054 80.9031 138.139 81.4016 138.31C81.9002 138.48 82.354 138.757 82.7631 139.141C83.1722 139.52 83.4982 140.023 83.7411 140.649C83.984 141.276 84.1055 142.047 84.1055 142.963V143.602H76.5373V142.298H82.5714C82.5714 141.744 82.4606 141.25 82.239 140.815C82.0217 140.381 81.7106 140.038 81.3058 139.786C80.9052 139.535 80.4322 139.409 79.8867 139.409C79.2859 139.409 78.766 139.558 78.3271 139.857C77.8924 140.151 77.5579 140.534 77.3235 141.007C77.0891 141.48 76.9719 141.987 76.9719 142.528V143.398C76.9719 144.139 77.0998 144.768 77.3555 145.283C77.6154 145.795 77.9755 146.185 78.4357 146.453C78.896 146.717 79.4308 146.849 80.0401 146.849C80.4364 146.849 80.7944 146.794 81.114 146.683C81.4379 146.568 81.717 146.398 81.9513 146.172C82.1857 145.942 82.3668 145.656 82.4947 145.315L83.9521 145.724C83.7987 146.219 83.5408 146.653 83.1786 147.028C82.8164 147.399 82.369 147.689 81.8363 147.898C81.3036 148.102 80.7049 148.205 80.0401 148.205ZM93.3548 140.381L91.9996 140.764C91.9144 140.538 91.7887 140.319 91.6225 140.106C91.4606 139.888 91.239 139.71 90.9577 139.569C90.6765 139.428 90.3164 139.358 89.8775 139.358C89.2766 139.358 88.7759 139.496 88.3754 139.773C87.979 140.046 87.7809 140.393 87.7809 140.815C87.7809 141.19 87.9173 141.487 88.19 141.704C88.4627 141.921 88.8888 142.102 89.4684 142.247L90.9258 142.605C91.8036 142.818 92.4577 143.144 92.8881 143.583C93.3185 144.018 93.5337 144.578 93.5337 145.264C93.5337 145.827 93.3718 146.33 93.0479 146.773C92.7283 147.216 92.2809 147.565 91.7056 147.821C91.1303 148.077 90.4613 148.205 89.6985 148.205C88.6971 148.205 87.8683 147.987 87.212 147.553C86.5558 147.118 86.1403 146.483 85.9656 145.648L87.3974 145.29C87.5337 145.818 87.7915 146.214 88.1708 146.479C88.5543 146.743 89.055 146.875 89.6729 146.875C90.3761 146.875 90.9343 146.726 91.3477 146.428C91.7653 146.125 91.9741 145.763 91.9741 145.341C91.9741 145 91.8548 144.714 91.6161 144.484C91.3775 144.25 91.011 144.075 90.5167 143.96L88.8803 143.577C87.9812 143.364 87.3207 143.033 86.8988 142.586C86.4812 142.134 86.2724 141.57 86.2724 140.892C86.2724 140.338 86.4279 139.848 86.739 139.422C87.0543 138.996 87.4826 138.661 88.0238 138.418C88.5692 138.175 89.1871 138.054 89.8775 138.054C90.8491 138.054 91.6119 138.267 92.1658 138.693C92.7241 139.119 93.1204 139.682 93.3548 140.381ZM102.759 140.381L101.404 140.764C101.319 140.538 101.193 140.319 101.027 140.106C100.865 139.888 100.643 139.71 100.362 139.569C100.081 139.428 99.7207 139.358 99.2818 139.358C98.6809 139.358 98.1802 139.496 97.7797 139.773C97.3833 140.046 97.1852 140.393 97.1852 140.815C97.1852 141.19 97.3216 141.487 97.5943 141.704C97.867 141.921 98.2931 142.102 98.8727 142.247L100.33 142.605C101.208 142.818 101.862 143.144 102.292 143.583C102.723 144.018 102.938 144.578 102.938 145.264C102.938 145.827 102.776 146.33 102.452 146.773C102.133 147.216 101.685 147.565 101.11 147.821C100.535 148.077 99.8656 148.205 99.1028 148.205C98.1014 148.205 97.2725 147.987 96.6163 147.553C95.96 147.118 95.5446 146.483 95.3699 145.648L96.8017 145.29C96.938 145.818 97.1958 146.214 97.5751 146.479C97.9586 146.743 98.4593 146.875 99.0772 146.875C99.7804 146.875 100.339 146.726 100.752 146.428C101.17 146.125 101.378 145.763 101.378 145.341C101.378 145 101.259 144.714 101.02 144.484C100.782 144.25 100.415 144.075 99.921 143.96L98.2846 143.577C97.3855 143.364 96.725 143.033 96.3031 142.586C95.8855 142.134 95.6767 141.57 95.6767 140.892C95.6767 140.338 95.8322 139.848 96.1433 139.422C96.4586 138.996 96.8869 138.661 97.4281 138.418C97.9735 138.175 98.5914 138.054 99.2818 138.054C100.253 138.054 101.016 138.267 101.57 138.693C102.128 139.119 102.525 139.682 102.759 140.381Z" fill="#728397"/>
<g clip-path="url(#clip1_1942_35377)">
<mask id="mask0_1942_35377" style="mask-type:luminance" maskUnits="userSpaceOnUse" x="84" y="98" width="24" height="24">
<path d="M108 98.2285H84V121.086H108V98.2285Z" fill="white"/>
</mask>
<g mask="url(#mask0_1942_35377)">
<path d="M96 121.086C102.627 121.086 108 115.969 108 109.657C108 103.345 102.627 98.2285 96 98.2285C89.3726 98.2285 84 103.345 84 109.657C84 115.969 89.3726 121.086 96 121.086Z" fill="#F0F0F0"/>
<path d="M95.4785 109.657H108C108 108.626 107.856 107.626 107.587 106.676H95.4785V109.657Z" fill="#D80027"/>
<path d="M95.4785 103.693H106.239C105.504 102.552 104.565 101.543 103.47 100.712H95.4785V103.693Z" fill="#D80027"/>
<path d="M95.9991 121.086C98.8232 121.086 101.419 120.156 103.469 118.602H88.5293C90.5791 120.156 93.1749 121.086 95.9991 121.086Z" fill="#D80027"/>
<path d="M85.762 115.619H106.239C106.829 114.703 107.287 113.701 107.587 112.638H84.4141C84.7149 113.701 85.1722 114.703 85.762 115.619Z" fill="#D80027"/>
<path d="M89.5586 100.013H90.6522L89.635 100.717L90.0235 101.856L89.0064 101.152L87.9893 101.856L88.3249 100.872C87.4293 101.583 86.6443 102.415 85.9974 103.342H86.3478L85.7003 103.79C85.5995 103.951 85.5027 104.114 85.41 104.279L85.7192 105.185L85.1423 104.786C84.999 105.075 84.8678 105.371 84.7499 105.673L85.0905 106.672H86.3478L85.3306 107.375L85.7192 108.514L84.702 107.81L84.0928 108.232C84.0318 108.699 84 109.174 84 109.657H96C96 103.345 96 102.601 96 98.2285C93.6294 98.2285 91.4196 98.8834 89.5586 100.013ZM90.0235 108.514L89.0064 107.81L87.9893 108.514L88.3778 107.375L87.3606 106.672H88.6179L89.0064 105.533L89.3949 106.672H90.6522L89.635 107.375L90.0235 108.514ZM89.635 104.046L90.0235 105.185L89.0064 104.481L87.9893 105.185L88.3778 104.046L87.3606 103.342H88.6179L89.0064 102.204L89.3949 103.342H90.6522L89.635 104.046ZM94.3279 108.514L93.3107 107.81L92.2936 108.514L92.6821 107.375L91.665 106.672H92.9222L93.3107 105.533L93.6992 106.672H94.9565L93.9393 107.375L94.3279 108.514ZM93.9393 104.046L94.3279 105.185L93.3107 104.481L92.2936 105.185L92.6821 104.046L91.665 103.342H92.9222L93.3107 102.204L93.6992 103.342H94.9565L93.9393 104.046ZM93.9393 100.717L94.3279 101.856L93.3107 101.152L92.2936 101.856L92.6821 100.717L91.665 100.013H92.9222L93.3107 98.8745L93.6992 100.013H94.9565L93.9393 100.717Z" fill="#0052B4"/>
</g>
</g>
<rect x="84.5" y="98.5" width="23" height="23" rx="11.5" stroke="url(#paint3_linear_1942_35377)"/>
<path d="M126 77C125.448 77 125 77.4477 125 78C125 78.5523 125.448 79 126 79V77ZM141.207 78.7071C141.598 78.3166 141.598 77.6834 141.207 77.2929L134.843 70.9289C134.453 70.5384 133.819 70.5384 133.429 70.9289C133.038 71.3195 133.038 71.9526 133.429 72.3431L139.086 78L133.429 83.6569C133.038 84.0474 133.038 84.6805 133.429 85.0711C133.819 85.4616 134.453 85.4616 134.843 85.0711L141.207 78.7071ZM126 79H140.5V77H126V79Z" fill="#728397"/>
<path d="M260 77C259.448 77 259 77.4477 259 78C259 78.5523 259.448 79 260 79V77ZM275.207 78.7071C275.598 78.3166 275.598 77.6834 275.207 77.2929L268.843 70.9289C268.453 70.5384 267.819 70.5384 267.429 70.9289C267.038 71.3195 267.038 71.9526 267.429 72.3431L273.086 78L267.429 83.6569C267.038 84.0474 267.038 84.6805 267.429 85.0711C267.819 85.4616 268.453 85.4616 268.843 85.0711L275.207 78.7071ZM260 79H274.5V77H260V79Z" fill="#728397"/>
<defs>
<linearGradient id="paint0_linear_1942_35377" x1="158" y1="121.616" x2="241.939" y2="37.9975" gradientUnits="userSpaceOnUse">
<stop stop-color="#6CFFBB" stop-opacity="0"/>
<stop offset="1" stop-color="#6CFFBB"/>
</linearGradient>
<linearGradient id="paint1_linear_1942_35377" x1="292.141" y1="121.617" x2="376.08" y2="37.9974" gradientUnits="userSpaceOnUse">
<stop stop-color="#232323"/>
<stop offset="1" stop-color="#404040"/>
</linearGradient>
<linearGradient id="paint2_linear_1942_35377" x1="24" y1="121.616" x2="107.939" y2="37.9975" gradientUnits="userSpaceOnUse">
<stop stop-color="#7A5AF8"/>
<stop offset="1" stop-color="#C1B1FF"/>
</linearGradient>
<linearGradient id="paint3_linear_1942_35377" x1="84" y1="121.89" x2="107.983" y2="97.9993" gradientUnits="userSpaceOnUse">
<stop stop-color="#7A5AF8"/>
<stop offset="1" stop-color="#C1B1FF"/>
</linearGradient>
<clipPath id="clip0_1942_35377">
<rect x="292" y="38" width="84" height="84" rx="42" fill="white"/>
</clipPath>
<clipPath id="clip1_1942_35377">
<rect x="84" y="98" width="24" height="24" rx="12" fill="white"/>
</clipPath>
</defs>
</svg>
