<svg width="400" height="190" viewBox="0 0 400 190" fill="none" xmlns="http://www.w3.org/2000/svg">
<rect x="24.6562" y="38.6562" width="82.6875" height="82.6875" rx="41.3438" fill="#7A5AF8"/>
<rect x="24.6562" y="38.6562" width="82.6875" height="82.6875" rx="41.3438" stroke="url(#paint0_linear_1963_35650)" stroke-width="1.3125"/>
<path d="M55.5 61.625C54.048 61.625 52.875 62.798 52.875 64.25V95.75C52.875 97.202 54.048 98.375 55.5 98.375H60.75V93.125C60.75 90.2293 63.1043 87.875 66 87.875C68.8957 87.875 71.25 90.2293 71.25 93.125V98.375H76.5C77.952 98.375 79.125 97.202 79.125 95.75V64.25C79.125 62.798 77.952 61.625 76.5 61.625H55.5ZM68.625 93.125C68.625 91.673 67.452 90.5 66 90.5C64.548 90.5 63.375 91.673 63.375 93.125V98.375H68.625V93.125ZM60.75 101H55.5C52.6043 101 50.25 98.6457 50.25 95.75V64.25C50.25 61.3543 52.6043 59 55.5 59H76.5C79.3957 59 81.75 61.3543 81.75 64.25V95.75C81.75 98.6457 79.3957 101 76.5 101H71.25H68.625H63.375H60.75ZM55.5 68.8438C55.5 67.7527 56.3777 66.875 57.4688 66.875H61.4062C62.4973 66.875 63.375 67.7527 63.375 68.8438V72.7812C63.375 73.8723 62.4973 74.75 61.4062 74.75H57.4688C56.3777 74.75 55.5 73.8723 55.5 72.7812V68.8438ZM58.125 69.5V72.125H60.75V69.5H58.125ZM70.5938 66.875H74.5312C75.6223 66.875 76.5 67.7527 76.5 68.8438V72.7812C76.5 73.8723 75.6223 74.75 74.5312 74.75H70.5938C69.5027 74.75 68.625 73.8723 68.625 72.7812V68.8438C68.625 67.7527 69.5027 66.875 70.5938 66.875ZM71.25 72.125H73.875V69.5H71.25V72.125ZM55.5 79.3438C55.5 78.2527 56.3777 77.375 57.4688 77.375H61.4062C62.4973 77.375 63.375 78.2527 63.375 79.3438V83.2812C63.375 84.3723 62.4973 85.25 61.4062 85.25H57.4688C56.3777 85.25 55.5 84.3723 55.5 83.2812V79.3438ZM58.125 80V82.625H60.75V80H58.125ZM70.5938 77.375H74.5312C75.6223 77.375 76.5 78.2527 76.5 79.3438V83.2812C76.5 84.3723 75.6223 85.25 74.5312 85.25H70.5938C69.5027 85.25 68.625 84.3723 68.625 83.2812V79.3438C68.625 78.2527 69.5027 77.375 70.5938 77.375ZM71.25 82.625H73.875V80H71.25V82.625Z" fill="white"/>
<path d="M30.8206 148V134.909H35.2439C36.2666 134.909 37.1061 135.084 37.7623 135.433C38.4186 135.778 38.9044 136.254 39.2197 136.859C39.5351 137.464 39.6927 138.152 39.6927 138.923C39.6927 139.695 39.5351 140.379 39.2197 140.975C38.9044 141.572 38.4207 142.04 37.7687 142.381C37.1167 142.718 36.2836 142.886 35.2694 142.886H31.6899V141.455H35.2183C35.9172 141.455 36.4797 141.352 36.9058 141.148C37.3362 140.943 37.6473 140.653 37.839 140.278C38.0351 139.899 38.1331 139.447 38.1331 138.923C38.1331 138.399 38.0351 137.941 37.839 137.549C37.643 137.157 37.3298 136.854 36.8994 136.641C36.469 136.424 35.9001 136.315 35.1927 136.315H32.4058V148H30.8206ZM36.9825 142.119L40.2041 148H38.3632L35.1927 142.119H36.9825ZM46.1407 148.205C45.1947 148.205 44.3786 147.996 43.6926 147.578C43.0107 147.156 42.4845 146.568 42.1137 145.814C41.7472 145.055 41.564 144.173 41.564 143.168C41.564 142.162 41.7472 141.276 42.1137 140.509C42.4845 139.737 43.0001 139.136 43.6606 138.706C44.3254 138.271 45.1009 138.054 45.9873 138.054C46.4987 138.054 47.0036 138.139 47.5022 138.31C48.0008 138.48 48.4546 138.757 48.8637 139.141C49.2728 139.52 49.5988 140.023 49.8417 140.649C50.0846 141.276 50.2061 142.047 50.2061 142.963V143.602H42.6379V142.298H48.672C48.672 141.744 48.5612 141.25 48.3396 140.815C48.1222 140.381 47.8112 140.038 47.4063 139.786C47.0058 139.535 46.5328 139.409 45.9873 139.409C45.3865 139.409 44.8666 139.558 44.4276 139.857C43.993 140.151 43.6585 140.534 43.4241 141.007C43.1897 141.48 43.0725 141.987 43.0725 142.528V143.398C43.0725 144.139 43.2004 144.768 43.4561 145.283C43.716 145.795 44.0761 146.185 44.5363 146.453C44.9965 146.717 45.5313 146.849 46.1407 146.849C46.537 146.849 46.895 146.794 47.2146 146.683C47.5384 146.568 47.8176 146.398 48.0519 146.172C48.2863 145.942 48.4674 145.656 48.5953 145.315L50.0526 145.724C49.8992 146.219 49.6414 146.653 49.2792 147.028C48.917 147.399 48.4695 147.689 47.9369 147.898C47.4042 148.102 46.8055 148.205 46.1407 148.205ZM56.4894 148.205C55.569 148.205 54.7764 147.987 54.1116 147.553C53.4468 147.118 52.9355 146.519 52.5775 145.756C52.2195 144.994 52.0406 144.122 52.0406 143.142C52.0406 142.145 52.2238 141.265 52.5903 140.502C52.961 139.735 53.4767 139.136 54.1372 138.706C54.8019 138.271 55.5775 138.054 56.4639 138.054C57.1542 138.054 57.7764 138.182 58.3303 138.438C58.8843 138.693 59.3382 139.051 59.6919 139.511C60.0455 139.972 60.265 140.509 60.3502 141.122H58.8417C58.7267 140.675 58.471 140.278 58.0747 139.933C57.6826 139.584 57.1542 139.409 56.4894 139.409C55.9014 139.409 55.3857 139.562 54.9426 139.869C54.5036 140.172 54.1606 140.6 53.9134 141.154C53.6705 141.704 53.5491 142.349 53.5491 143.091C53.5491 143.849 53.6684 144.51 53.907 145.072C54.1499 145.635 54.4909 146.072 54.9298 146.383C55.373 146.694 55.8928 146.849 56.4894 146.849C56.8815 146.849 57.2373 146.781 57.5569 146.645C57.8765 146.509 58.1471 146.312 58.3687 146.057C58.5903 145.801 58.748 145.494 58.8417 145.136H60.3502C60.265 145.716 60.0541 146.238 59.7174 146.702C59.385 147.163 58.944 147.529 58.3943 147.802C57.8488 148.07 57.2139 148.205 56.4894 148.205ZM66.672 148.205C65.7259 148.205 64.9099 147.996 64.2238 147.578C63.542 147.156 63.0157 146.568 62.645 145.814C62.2785 145.055 62.0953 144.173 62.0953 143.168C62.0953 142.162 62.2785 141.276 62.645 140.509C63.0157 139.737 63.5313 139.136 64.1919 138.706C64.8566 138.271 65.6322 138.054 66.5186 138.054C67.0299 138.054 67.5349 138.139 68.0335 138.31C68.532 138.48 68.9859 138.757 69.395 139.141C69.8041 139.52 70.1301 140.023 70.373 140.649C70.6159 141.276 70.7373 142.047 70.7373 142.963V143.602H63.1691V142.298H69.2032C69.2032 141.744 69.0924 141.25 68.8708 140.815C68.6535 140.381 68.3424 140.038 67.9376 139.786C67.537 139.535 67.064 139.409 66.5186 139.409C65.9177 139.409 65.3978 139.558 64.9589 139.857C64.5242 140.151 64.1897 140.534 63.9553 141.007C63.721 141.48 63.6038 141.987 63.6038 142.528V143.398C63.6038 144.139 63.7316 144.768 63.9873 145.283C64.2472 145.795 64.6073 146.185 65.0676 146.453C65.5278 146.717 66.0626 146.849 66.672 146.849C67.0683 146.849 67.4262 146.794 67.7458 146.683C68.0697 146.568 68.3488 146.398 68.5832 146.172C68.8176 145.942 68.9987 145.656 69.1265 145.315L70.5839 145.724C70.4305 146.219 70.1727 146.653 69.8105 147.028C69.4482 147.399 69.0008 147.689 68.4681 147.898C67.9355 148.102 67.3367 148.205 66.672 148.205ZM73.032 148V138.182H74.5406V148H73.032ZM73.7991 136.545C73.5051 136.545 73.2515 136.445 73.0384 136.245C72.8296 136.045 72.7252 135.804 72.7252 135.523C72.7252 135.241 72.8296 135.001 73.0384 134.8C73.2515 134.6 73.5051 134.5 73.7991 134.5C74.0931 134.5 74.3445 134.6 74.5534 134.8C74.7664 135.001 74.873 135.241 74.873 135.523C74.873 135.804 74.7664 136.045 74.5534 136.245C74.3445 136.445 74.0931 136.545 73.7991 136.545ZM85.3319 138.182L81.7013 148H80.1672L76.5365 138.182H78.1729L80.8831 146.006H80.9854L83.6956 138.182H85.3319ZM91.088 148.205C90.142 148.205 89.3259 147.996 88.6398 147.578C87.958 147.156 87.4317 146.568 87.061 145.814C86.6945 145.055 86.5113 144.173 86.5113 143.168C86.5113 142.162 86.6945 141.276 87.061 140.509C87.4317 139.737 87.9474 139.136 88.6079 138.706C89.2726 138.271 90.0482 138.054 90.9346 138.054C91.4459 138.054 91.9509 138.139 92.4495 138.31C92.9481 138.48 93.4019 138.757 93.811 139.141C94.2201 139.52 94.5461 140.023 94.789 140.649C95.0319 141.276 95.1533 142.047 95.1533 142.963V143.602H87.5851V142.298H93.6192C93.6192 141.744 93.5084 141.25 93.2868 140.815C93.0695 140.381 92.7584 140.038 92.3536 139.786C91.953 139.535 91.48 139.409 90.9346 139.409C90.3337 139.409 89.8138 139.558 89.3749 139.857C88.9403 140.151 88.6057 140.534 88.3714 141.007C88.137 141.48 88.0198 141.987 88.0198 142.528V143.398C88.0198 144.139 88.1476 144.768 88.4033 145.283C88.6633 145.795 89.0233 146.185 89.4836 146.453C89.9438 146.717 90.4786 146.849 91.088 146.849C91.4843 146.849 91.8422 146.794 92.1618 146.683C92.4857 146.568 92.7648 146.398 92.9992 146.172C93.2336 145.942 93.4147 145.656 93.5425 145.315L94.9999 145.724C94.8465 146.219 94.5887 146.653 94.2265 147.028C93.8643 147.399 93.4168 147.689 92.8841 147.898C92.3515 148.102 91.7528 148.205 91.088 148.205ZM97.4481 148V138.182H98.9055V139.665H99.0077C99.1867 139.179 99.5106 138.785 99.9793 138.482C100.448 138.18 100.976 138.028 101.565 138.028C101.675 138.028 101.814 138.031 101.98 138.035C102.146 138.039 102.272 138.045 102.357 138.054V139.588C102.306 139.575 102.189 139.556 102.006 139.531C101.827 139.501 101.637 139.486 101.437 139.486C100.959 139.486 100.533 139.586 100.158 139.786C99.7876 139.982 99.4935 140.255 99.2762 140.604C99.0631 140.95 98.9566 141.344 98.9566 141.787V148H97.4481Z" fill="#728397"/>
<g clip-path="url(#clip0_1963_35650)">
<mask id="mask0_1963_35650" style="mask-type:luminance" maskUnits="userSpaceOnUse" x="84" y="98" width="24" height="24">
<path d="M108 98.2285H84V121.086H108V98.2285Z" fill="white"/>
</mask>
<g mask="url(#mask0_1963_35650)">
<path d="M96 121.086C102.627 121.086 108 115.969 108 109.657C108 103.345 102.627 98.2285 96 98.2285C89.3726 98.2285 84 103.345 84 109.657C84 115.969 89.3726 121.086 96 121.086Z" fill="#F0F0F0"/>
<path d="M107.999 109.657C107.999 105.126 105.231 101.211 101.217 99.3623V119.951C105.231 118.103 107.999 114.188 107.999 109.657Z" fill="#D80027"/>
<path d="M84 109.657C84 114.188 86.7687 118.103 90.7826 119.951V99.3623C86.7687 101.211 84 105.126 84 109.657Z" fill="#6DA544"/>
<path d="M92.8691 109.656C92.8691 111.302 94.2707 112.637 95.9996 112.637C97.7285 112.637 99.1301 111.302 99.1301 109.656V108.662H92.8691V109.656Z" fill="#6DA544"/>
<path d="M100.174 107.67H97.0436C97.0436 107.121 96.5764 106.676 96.0001 106.676C95.4238 106.676 94.9566 107.121 94.9566 107.67H91.8262C91.8262 108.218 92.3282 108.663 92.9044 108.663H92.8697C92.8697 109.212 93.3368 109.657 93.9131 109.657C93.9131 110.206 94.3803 110.651 94.9566 110.651H97.0436C97.6199 110.651 98.0871 110.206 98.0871 109.657C98.6635 109.657 99.1306 109.212 99.1306 108.663H99.0958C99.6722 108.663 100.174 108.218 100.174 107.67Z" fill="#FF9811"/>
</g>
</g>
<rect x="84.5" y="98.5" width="23" height="23" rx="11.5" stroke="url(#paint1_linear_1963_35650)"/>
<g clip-path="url(#clip1_1963_35650)">
<path d="M199.576 121.343C177.026 121.189 158.788 102.584 158.797 80.0547C158.806 57.1055 177.48 38.3048 200.877 38.6612C222.939 38.9976 241.609 57.0137 241.484 80.3393C241.363 102.891 222.925 121.467 200.236 121.341L199.576 121.337V121.343Z" fill="#232323" stroke="url(#paint2_linear_1963_35650)" stroke-width="1.3125"/>
<path d="M191.376 57.9844H195.576V62.1844H191.376V57.9844Z" fill="#E4FF3F"/>
<path d="M200.14 90.8704L211.606 62.1773H218.186V98.1713H213.048V71.3823L202.296 98.1713H197.977L187.183 71.3823V98.1713H182.094V62.1773H187.19V66.3633H190.347L200.14 90.8704Z" fill="#E4FF3F"/>
</g>
<path d="M175.789 134.909H177.681L182.13 145.776H182.284L186.733 134.909H188.625V148H187.142V138.054H187.014L182.923 148H181.491L177.4 138.054H177.272V148H175.789V134.909ZM192.57 134.909L195.945 140.355H196.047L199.422 134.909H201.289L197.172 141.455L201.289 148H199.422L196.047 142.656H195.945L192.57 148H190.704L194.922 141.455L190.704 134.909H192.57ZM213.733 134.909V148H212.198L205.065 137.722H204.937V148H203.352V134.909H204.886L212.045 145.213H212.173V134.909H213.733ZM220.816 148.205C219.87 148.205 219.054 147.996 218.368 147.578C217.687 147.156 217.16 146.568 216.79 145.814C216.423 145.055 216.24 144.173 216.24 143.168C216.24 142.162 216.423 141.276 216.79 140.509C217.16 139.737 217.676 139.136 218.336 138.706C219.001 138.271 219.777 138.054 220.663 138.054C221.174 138.054 221.679 138.139 222.178 138.31C222.677 138.48 223.13 138.757 223.54 139.141C223.949 139.52 224.275 140.023 224.517 140.649C224.76 141.276 224.882 142.047 224.882 142.963V143.602H217.314V142.298H223.348C223.348 141.744 223.237 141.25 223.015 140.815C222.798 140.381 222.487 140.038 222.082 139.786C221.682 139.535 221.209 139.409 220.663 139.409C220.062 139.409 219.542 139.558 219.103 139.857C218.669 140.151 218.334 140.534 218.1 141.007C217.866 141.48 217.748 141.987 217.748 142.528V143.398C217.748 144.139 217.876 144.768 218.132 145.283C218.392 145.795 218.752 146.185 219.212 146.453C219.672 146.717 220.207 146.849 220.816 146.849C221.213 146.849 221.571 146.794 221.89 146.683C222.214 146.568 222.493 146.398 222.728 146.172C222.962 145.942 223.143 145.656 223.271 145.315L224.728 145.724C224.575 146.219 224.317 146.653 223.955 147.028C223.593 147.399 223.145 147.689 222.613 147.898C222.08 148.102 221.481 148.205 220.816 148.205Z" fill="#728397"/>
<rect x="292.656" y="38.6562" width="82.6875" height="82.6875" rx="41.3438" fill="#12B76A"/>
<rect x="292.656" y="38.6562" width="82.6875" height="82.6875" rx="41.3438" stroke="url(#paint3_linear_1963_35650)" stroke-width="1.3125"/>
<path d="M335.312 60.3125C335.312 59.5906 334.722 59 334 59C333.278 59 332.688 59.5906 332.688 60.3125V64.209C332.171 64.2172 331.654 64.2336 331.145 64.2828C329.177 64.4469 327.216 64.9227 325.616 65.9727C323.968 67.0473 322.778 68.6797 322.343 70.9766C322.032 72.6418 322.188 74.1102 322.811 75.3816C323.418 76.6367 324.411 77.5801 325.559 78.3102C327.749 79.7047 330.776 80.5004 333.532 81.2223L333.672 81.2551C336.6 82.0262 339.234 82.7234 341.038 83.8719C341.908 84.4297 342.498 85.0367 342.835 85.7258C343.163 86.4066 343.311 87.2844 343.081 88.4984C342.761 90.1965 341.571 91.4844 339.562 92.2719C337.519 93.0758 334.714 93.3055 331.523 92.8461C329.521 92.5508 326.519 91.8535 324.033 90.7789C323.369 90.4918 322.598 90.7953 322.311 91.468C322.023 92.1406 322.327 92.9035 323 93.1906C325.756 94.3801 328.996 95.1184 331.145 95.4383H331.154C331.679 95.5121 332.195 95.5695 332.704 95.6105V99.6875C332.704 100.409 333.295 101 334.016 101C334.738 101 335.329 100.409 335.329 99.6875V95.7008C337.232 95.6434 339.004 95.3152 340.53 94.7246C343.155 93.6992 345.14 91.7961 345.673 88.9906C345.985 87.3254 345.829 85.857 345.205 84.5855C344.598 83.3305 343.598 82.3871 342.457 81.6652C340.267 80.2707 337.24 79.475 334.484 78.7531L334.345 78.7203C331.416 77.9492 328.783 77.252 326.978 76.1035C326.109 75.5457 325.518 74.9387 325.182 74.2496C324.854 73.5687 324.706 72.691 324.936 71.477C325.231 69.8938 326.01 68.8684 327.068 68.1793C328.168 67.4574 329.652 67.0555 331.383 66.9078C334.853 66.6207 338.873 67.4 341.58 68.0563C342.285 68.2285 342.991 67.7937 343.163 67.0883C343.335 66.3828 342.9 65.6773 342.195 65.5051C340.398 65.0703 337.921 64.5453 335.321 64.3238V60.3125H335.312Z" fill="white"/>
<path d="M315.028 134.909H316.92L321.369 145.776H321.522L325.971 134.909H327.863V148H326.38V138.054H326.252L322.161 148H320.729L316.638 138.054H316.511V148H315.028V134.909ZM331.808 134.909L335.183 140.355H335.286L338.661 134.909H340.527L336.411 141.455L340.527 148H338.661L335.286 142.656H335.183L331.808 148H329.942L334.161 141.455L329.942 134.909H331.808ZM352.971 134.909V148H351.437L344.303 137.722H344.175V148H342.59V134.909H344.124L351.283 145.213H351.411V134.909H352.971Z" fill="#728397"/>
<path d="M126 77C125.448 77 125 77.4477 125 78C125 78.5523 125.448 79 126 79V77ZM141.207 78.7071C141.598 78.3166 141.598 77.6834 141.207 77.2929L134.843 70.9289C134.453 70.5384 133.819 70.5384 133.429 70.9289C133.038 71.3195 133.038 71.9526 133.429 72.3431L139.086 78L133.429 83.6569C133.038 84.0474 133.038 84.6805 133.429 85.0711C133.819 85.4616 134.453 85.4616 134.843 85.0711L141.207 78.7071ZM126 79H140.5V77H126V79Z" fill="#728397"/>
<path d="M260 77C259.448 77 259 77.4477 259 78C259 78.5523 259.448 79 260 79V77ZM275.207 78.7071C275.598 78.3166 275.598 77.6834 275.207 77.2929L268.843 70.9289C268.453 70.5384 267.819 70.5384 267.429 70.9289C267.038 71.3195 267.038 71.9526 267.429 72.3431L273.086 78L267.429 83.6569C267.038 84.0474 267.038 84.6805 267.429 85.0711C267.819 85.4616 268.453 85.4616 268.843 85.0711L275.207 78.7071ZM260 79H274.5V77H260V79Z" fill="#728397"/>
<defs>
<linearGradient id="paint0_linear_1963_35650" x1="24" y1="121.616" x2="107.939" y2="37.9975" gradientUnits="userSpaceOnUse">
<stop stop-color="#7A5AF8"/>
<stop offset="1" stop-color="#C1B1FF"/>
</linearGradient>
<linearGradient id="paint1_linear_1963_35650" x1="84" y1="121.89" x2="107.983" y2="97.9993" gradientUnits="userSpaceOnUse">
<stop stop-color="#7A5AF8"/>
<stop offset="1" stop-color="#C1B1FF"/>
</linearGradient>
<linearGradient id="paint2_linear_1963_35650" x1="158.141" y1="121.617" x2="242.08" y2="37.9974" gradientUnits="userSpaceOnUse">
<stop stop-color="#232323"/>
<stop offset="1" stop-color="#404040"/>
</linearGradient>
<linearGradient id="paint3_linear_1963_35650" x1="292" y1="121.616" x2="375.939" y2="37.9975" gradientUnits="userSpaceOnUse">
<stop stop-color="#6CFFBB" stop-opacity="0"/>
<stop offset="1" stop-color="#6CFFBB"/>
</linearGradient>
<clipPath id="clip0_1963_35650">
<rect x="84" y="98" width="24" height="24" rx="12" fill="white"/>
</clipPath>
<clipPath id="clip1_1963_35650">
<rect x="158" y="38" width="84" height="84" rx="42" fill="white"/>
</clipPath>
</defs>
</svg>
