<?xml version="1.0" standalone="no"?>
<!DOCTYPE svg PUBLIC "-//W3C//DTD SVG 20010904//EN"
 "http://www.w3.org/TR/2001/REC-SVG-20010904/DTD/svg10.dtd">
<svg version="1.0" xmlns="http://www.w3.org/2000/svg"
 width="261.000000pt" height="261.000000pt" viewBox="0 0 261.000000 261.000000"
 preserveAspectRatio="xMidYMid meet">
<metadata>
Created by potrace 1.14, written by Peter Selinger 2001-2017
</metadata>
<g transform="translate(0.000000,261.000000) scale(0.100000,-0.100000)"
fill="#000000" stroke="none">
<path d="M420 1301 l0 -1299 701 0 c743 0 747 0 843 48 90 46 194 173 211 258
2 12 7 27 10 32 4 6 7 435 7 953 0 1004 1 984 -47 1077 -53 103 -170 193 -285
219 -29 7 -300 11 -742 11 l-698 0 0 -1299z m1195 769 c6 -10 10 -286 10 -773
1 -628 -1 -760 -13 -769 -9 -8 -107 -12 -318 -12 l-304 -1 -1 25 c-3 68 -4
1517 -1 1530 3 13 44 15 310 15 265 1 308 -1 317 -15z"/>
</g>
</svg>
