<svg width="810" height="174" viewBox="0 0 810 174" fill="none" xmlns="http://www.w3.org/2000/svg">
<g id="sbc-treasury-structure">
<g clip-path="url(#clip0_397_21679)">
<g id="Frame 1">
<g id="Container">
<g id="Frame 87">
<g id="Card 1">
<path d="M24.5 30C24.5 26.9624 26.9624 24.5 30 24.5H256C259.038 24.5 261.5 26.9624 261.5 30V125.5H24.5V30Z" fill="#7A5AF8"/>
<g id="Content">
<g id="Heading and price">
<g id="Heading and supporting text">
<g id="Heading and badge">
<path id="Heading" d="M133.943 73.1477H132.17C132.102 72.7689 131.975 72.4356 131.79 72.1477C131.604 71.8598 131.377 71.6155 131.108 71.4148C130.839 71.214 130.538 71.0625 130.205 70.9602C129.875 70.858 129.525 70.8068 129.153 70.8068C128.483 70.8068 127.883 70.9754 127.352 71.3125C126.826 71.6496 126.409 72.1439 126.102 72.7955C125.799 73.447 125.648 74.2424 125.648 75.1818C125.648 76.1288 125.799 76.928 126.102 77.5795C126.409 78.2311 126.828 78.7235 127.358 79.0568C127.888 79.3902 128.485 79.5568 129.148 79.5568C129.515 79.5568 129.864 79.5076 130.193 79.4091C130.527 79.3068 130.828 79.1572 131.097 78.9602C131.366 78.7633 131.593 78.5227 131.778 78.2386C131.968 77.9508 132.098 77.6212 132.17 77.25L133.943 77.2557C133.848 77.8277 133.665 78.3542 133.392 78.8352C133.123 79.3125 132.777 79.7254 132.352 80.0739C131.932 80.4186 131.451 80.6856 130.909 80.875C130.367 81.0644 129.777 81.1591 129.136 81.1591C128.129 81.1591 127.231 80.9205 126.443 80.4432C125.655 79.9621 125.034 79.2746 124.58 78.3807C124.129 77.4867 123.903 76.4205 123.903 75.1818C123.903 73.9394 124.131 72.8731 124.585 71.983C125.04 71.089 125.661 70.4034 126.449 69.9261C127.237 69.4451 128.133 69.2045 129.136 69.2045C129.754 69.2045 130.33 69.2936 130.864 69.4716C131.402 69.6458 131.884 69.9034 132.312 70.2443C132.741 70.5814 133.095 70.9943 133.375 71.483C133.655 71.9678 133.845 72.5227 133.943 73.1477ZM138.447 81.1932C137.894 81.1932 137.394 81.0909 136.947 80.8864C136.5 80.678 136.146 80.3769 135.885 79.983C135.627 79.589 135.499 79.1061 135.499 78.5341C135.499 78.0417 135.593 77.6364 135.783 77.3182C135.972 77 136.228 76.7481 136.55 76.5625C136.872 76.3769 137.232 76.2367 137.629 76.142C138.027 76.0473 138.432 75.9754 138.845 75.9261C139.368 75.8655 139.792 75.8163 140.118 75.7784C140.444 75.7367 140.68 75.6705 140.828 75.5795C140.976 75.4886 141.05 75.3409 141.05 75.1364V75.0966C141.05 74.6004 140.91 74.2159 140.629 73.9432C140.353 73.6705 139.94 73.5341 139.391 73.5341C138.819 73.5341 138.368 73.661 138.038 73.9148C137.713 74.1648 137.487 74.4432 137.362 74.75L135.766 74.3864C135.955 73.8561 136.232 73.428 136.595 73.1023C136.963 72.7727 137.385 72.5341 137.862 72.3864C138.339 72.2348 138.841 72.1591 139.368 72.1591C139.716 72.1591 140.086 72.2008 140.476 72.2841C140.87 72.3636 141.237 72.5114 141.578 72.7273C141.923 72.9432 142.205 73.2519 142.425 73.6534C142.644 74.0511 142.754 74.5682 142.754 75.2045V81H141.095V79.8068H141.027C140.917 80.0265 140.752 80.2424 140.533 80.4545C140.313 80.6667 140.031 80.8428 139.686 80.983C139.341 81.1231 138.929 81.1932 138.447 81.1932ZM138.817 79.8295C139.286 79.8295 139.688 79.7367 140.021 79.5511C140.358 79.3655 140.614 79.1231 140.788 78.8239C140.966 78.5208 141.055 78.197 141.055 77.8523V76.7273C140.995 76.7879 140.877 76.8447 140.703 76.8977C140.533 76.947 140.338 76.9905 140.118 77.0284C139.898 77.0625 139.684 77.0947 139.476 77.125C139.268 77.1515 139.093 77.1742 138.953 77.1932C138.624 77.2348 138.322 77.3049 138.05 77.4034C137.781 77.5019 137.565 77.6439 137.402 77.8295C137.243 78.0114 137.163 78.2538 137.163 78.5568C137.163 78.9773 137.319 79.2955 137.629 79.5114C137.94 79.7235 138.336 79.8295 138.817 79.8295ZM151.557 74.4034L150.017 74.6761C149.953 74.4792 149.85 74.2917 149.71 74.1136C149.574 73.9356 149.388 73.7898 149.153 73.6761C148.919 73.5625 148.625 73.5057 148.273 73.5057C147.792 73.5057 147.39 73.6136 147.068 73.8295C146.746 74.0417 146.585 74.3163 146.585 74.6534C146.585 74.9451 146.693 75.1799 146.909 75.358C147.125 75.536 147.473 75.6818 147.955 75.7955L149.341 76.1136C150.144 76.2992 150.742 76.5852 151.136 76.9716C151.53 77.358 151.727 77.8598 151.727 78.4773C151.727 79 151.576 79.4659 151.273 79.875C150.973 80.2803 150.555 80.5985 150.017 80.8295C149.483 81.0606 148.864 81.1761 148.159 81.1761C147.182 81.1761 146.384 80.9678 145.767 80.5511C145.15 80.1307 144.771 79.5341 144.631 78.7614L146.273 78.5114C146.375 78.9394 146.585 79.2633 146.903 79.483C147.222 79.6989 147.636 79.8068 148.148 79.8068C148.705 79.8068 149.15 79.6913 149.483 79.4602C149.816 79.2254 149.983 78.9394 149.983 78.6023C149.983 78.3295 149.881 78.1004 149.676 77.9148C149.475 77.7292 149.167 77.589 148.75 77.4943L147.273 77.1705C146.458 76.9848 145.856 76.6894 145.466 76.2841C145.08 75.8788 144.886 75.3655 144.886 74.7443C144.886 74.2292 145.03 73.7784 145.318 73.392C145.606 73.0057 146.004 72.7045 146.511 72.4886C147.019 72.2689 147.6 72.1591 148.256 72.1591C149.199 72.1591 149.941 72.3636 150.483 72.7727C151.025 73.178 151.383 73.7216 151.557 74.4034ZM155.294 75.8182V81H153.595V69.3636H155.271V73.6932H155.379C155.584 73.2235 155.896 72.8504 156.317 72.5739C156.737 72.2973 157.286 72.1591 157.964 72.1591C158.563 72.1591 159.086 72.2822 159.533 72.5284C159.983 72.7746 160.332 73.142 160.578 73.6307C160.828 74.1155 160.953 74.7216 160.953 75.4489V81H159.254V75.6534C159.254 75.0133 159.089 74.517 158.76 74.1648C158.43 73.8087 157.972 73.6307 157.385 73.6307C156.983 73.6307 156.624 73.7159 156.305 73.8864C155.991 74.0568 155.743 74.3068 155.561 74.6364C155.383 74.9621 155.294 75.3561 155.294 75.8182Z" fill="white"/>
</g>
</g>
</g>
</g>
<path d="M24.5 30C24.5 26.9624 26.9624 24.5 30 24.5H256C259.038 24.5 261.5 26.9624 261.5 30V125.5H24.5V30Z" stroke="#4A3C83"/>
</g>
<g id="Card 2">
<g clip-path="url(#clip1_397_21679)">
<mask id="path-6-inside-1_397_21679" fill="white">
<path d="M24 126H262V148C262 151.314 259.314 154 256 154H30C26.6863 154 24 151.314 24 148V126Z"/>
</mask>
<path d="M24 126H262V148C262 151.314 259.314 154 256 154H30C26.6863 154 24 151.314 24 148V126Z" fill="#5B43BA"/>
<g id="Content_2">
<g id="Heading and price_2">
<g id="Heading and supporting text_2">
<g id="Heading and badge_2">
<path id="Heading_2" d="M131.028 136.406V135.273H137.783V136.406H135.06V144H133.747V136.406H131.028ZM141.023 142.534V136.773H142.17V142.534H141.023ZM138.718 140.224V139.082H144.479V140.224H138.718ZM154.134 139.636C154.134 140.568 153.963 141.369 153.622 142.04C153.281 142.707 152.814 143.222 152.22 143.582C151.629 143.94 150.957 144.119 150.205 144.119C149.449 144.119 148.774 143.94 148.18 143.582C147.589 143.222 147.124 142.706 146.783 142.036C146.442 141.365 146.271 140.565 146.271 139.636C146.271 138.705 146.442 137.905 146.783 137.237C147.124 136.567 147.589 136.053 148.18 135.695C148.774 135.334 149.449 135.153 150.205 135.153C150.957 135.153 151.629 135.334 152.22 135.695C152.814 136.053 153.281 136.567 153.622 137.237C153.963 137.905 154.134 138.705 154.134 139.636ZM152.83 139.636C152.83 138.926 152.714 138.328 152.484 137.842C152.257 137.354 151.945 136.984 151.547 136.734C151.152 136.482 150.705 136.355 150.205 136.355C149.702 136.355 149.253 136.482 148.858 136.734C148.463 136.984 148.151 137.354 147.92 137.842C147.693 138.328 147.58 138.926 147.58 139.636C147.58 140.347 147.693 140.946 147.92 141.435C148.151 141.92 148.463 142.29 148.858 142.543C149.253 142.793 149.702 142.918 150.205 142.918C150.705 142.918 151.152 142.793 151.547 142.543C151.945 142.29 152.257 141.92 152.484 141.435C152.714 140.946 152.83 140.347 152.83 139.636Z" fill="white"/>
</g>
</g>
</g>
</g>
</g>
<path d="M24 126H262H24ZM263 148C263 151.866 259.866 155 256 155H30C26.134 155 23 151.866 23 148H25C25 150.761 27.2386 153 30 153H256C258.761 153 261 150.761 261 148H263ZM30 155C26.134 155 23 151.866 23 148V126H25V148C25 150.761 27.2386 153 30 153V155ZM263 126V148C263 151.866 259.866 155 256 155V153C258.761 153 261 150.761 261 148V126H263Z" fill="#4A3C83" mask="url(#path-6-inside-1_397_21679)"/>
</g>
</g>
<g id="Frame 90">
<g id="Card 1_2">
<path d="M286.5 30C286.5 26.9624 288.962 24.5 292 24.5H518C521.038 24.5 523.5 26.9624 523.5 30V125.5H286.5V30Z" fill="#7A5AF8"/>
<g id="Content_3">
<g id="Heading and price_3">
<g id="Heading and supporting text_3">
<g id="Heading and badge_3">
<path id="Heading_3" d="M349.943 73.1477H348.17C348.102 72.7689 347.975 72.4356 347.79 72.1477C347.604 71.8598 347.377 71.6155 347.108 71.4148C346.839 71.214 346.538 71.0625 346.205 70.9602C345.875 70.858 345.525 70.8068 345.153 70.8068C344.483 70.8068 343.883 70.9754 343.352 71.3125C342.826 71.6496 342.409 72.1439 342.102 72.7955C341.799 73.447 341.648 74.2424 341.648 75.1818C341.648 76.1288 341.799 76.928 342.102 77.5795C342.409 78.2311 342.828 78.7235 343.358 79.0568C343.888 79.3902 344.485 79.5568 345.148 79.5568C345.515 79.5568 345.864 79.5076 346.193 79.4091C346.527 79.3068 346.828 79.1572 347.097 78.9602C347.366 78.7633 347.593 78.5227 347.778 78.2386C347.968 77.9508 348.098 77.6212 348.17 77.25L349.943 77.2557C349.848 77.8277 349.665 78.3542 349.392 78.8352C349.123 79.3125 348.777 79.7254 348.352 80.0739C347.932 80.4186 347.451 80.6856 346.909 80.875C346.367 81.0644 345.777 81.1591 345.136 81.1591C344.129 81.1591 343.231 80.9205 342.443 80.4432C341.655 79.9621 341.034 79.2746 340.58 78.3807C340.129 77.4867 339.903 76.4205 339.903 75.1818C339.903 73.9394 340.131 72.8731 340.585 71.983C341.04 71.089 341.661 70.4034 342.449 69.9261C343.237 69.4451 344.133 69.2045 345.136 69.2045C345.754 69.2045 346.33 69.2936 346.864 69.4716C347.402 69.6458 347.884 69.9034 348.312 70.2443C348.741 70.5814 349.095 70.9943 349.375 71.483C349.655 71.9678 349.845 72.5227 349.943 73.1477ZM354.447 81.1932C353.894 81.1932 353.394 81.0909 352.947 80.8864C352.5 80.678 352.146 80.3769 351.885 79.983C351.627 79.589 351.499 79.1061 351.499 78.5341C351.499 78.0417 351.593 77.6364 351.783 77.3182C351.972 77 352.228 76.7481 352.55 76.5625C352.872 76.3769 353.232 76.2367 353.629 76.142C354.027 76.0473 354.432 75.9754 354.845 75.9261C355.368 75.8655 355.792 75.8163 356.118 75.7784C356.444 75.7367 356.68 75.6705 356.828 75.5795C356.976 75.4886 357.05 75.3409 357.05 75.1364V75.0966C357.05 74.6004 356.91 74.2159 356.629 73.9432C356.353 73.6705 355.94 73.5341 355.391 73.5341C354.819 73.5341 354.368 73.661 354.038 73.9148C353.713 74.1648 353.487 74.4432 353.362 74.75L351.766 74.3864C351.955 73.8561 352.232 73.428 352.595 73.1023C352.963 72.7727 353.385 72.5341 353.862 72.3864C354.339 72.2348 354.841 72.1591 355.368 72.1591C355.716 72.1591 356.086 72.2008 356.476 72.2841C356.87 72.3636 357.237 72.5114 357.578 72.7273C357.923 72.9432 358.205 73.2519 358.425 73.6534C358.644 74.0511 358.754 74.5682 358.754 75.2045V81H357.095V79.8068H357.027C356.917 80.0265 356.752 80.2424 356.533 80.4545C356.313 80.6667 356.031 80.8428 355.686 80.983C355.341 81.1231 354.929 81.1932 354.447 81.1932ZM354.817 79.8295C355.286 79.8295 355.688 79.7367 356.021 79.5511C356.358 79.3655 356.614 79.1231 356.788 78.8239C356.966 78.5208 357.055 78.197 357.055 77.8523V76.7273C356.995 76.7879 356.877 76.8447 356.703 76.8977C356.533 76.947 356.338 76.9905 356.118 77.0284C355.898 77.0625 355.684 77.0947 355.476 77.125C355.268 77.1515 355.093 77.1742 354.953 77.1932C354.624 77.2348 354.322 77.3049 354.05 77.4034C353.781 77.5019 353.565 77.6439 353.402 77.8295C353.243 78.0114 353.163 78.2538 353.163 78.5568C353.163 78.9773 353.319 79.2955 353.629 79.5114C353.94 79.7235 354.336 79.8295 354.817 79.8295ZM367.557 74.4034L366.017 74.6761C365.953 74.4792 365.85 74.2917 365.71 74.1136C365.574 73.9356 365.388 73.7898 365.153 73.6761C364.919 73.5625 364.625 73.5057 364.273 73.5057C363.792 73.5057 363.39 73.6136 363.068 73.8295C362.746 74.0417 362.585 74.3163 362.585 74.6534C362.585 74.9451 362.693 75.1799 362.909 75.358C363.125 75.536 363.473 75.6818 363.955 75.7955L365.341 76.1136C366.144 76.2992 366.742 76.5852 367.136 76.9716C367.53 77.358 367.727 77.8598 367.727 78.4773C367.727 79 367.576 79.4659 367.273 79.875C366.973 80.2803 366.555 80.5985 366.017 80.8295C365.483 81.0606 364.864 81.1761 364.159 81.1761C363.182 81.1761 362.384 80.9678 361.767 80.5511C361.15 80.1307 360.771 79.5341 360.631 78.7614L362.273 78.5114C362.375 78.9394 362.585 79.2633 362.903 79.483C363.222 79.6989 363.636 79.8068 364.148 79.8068C364.705 79.8068 365.15 79.6913 365.483 79.4602C365.816 79.2254 365.983 78.9394 365.983 78.6023C365.983 78.3295 365.881 78.1004 365.676 77.9148C365.475 77.7292 365.167 77.589 364.75 77.4943L363.273 77.1705C362.458 76.9848 361.856 76.6894 361.466 76.2841C361.08 75.8788 360.886 75.3655 360.886 74.7443C360.886 74.2292 361.03 73.7784 361.318 73.392C361.606 73.0057 362.004 72.7045 362.511 72.4886C363.019 72.2689 363.6 72.1591 364.256 72.1591C365.199 72.1591 365.941 72.3636 366.483 72.7727C367.025 73.178 367.383 73.7216 367.557 74.4034ZM371.294 75.8182V81H369.595V69.3636H371.271V73.6932H371.379C371.584 73.2235 371.896 72.8504 372.317 72.5739C372.737 72.2973 373.286 72.1591 373.964 72.1591C374.563 72.1591 375.086 72.2822 375.533 72.5284C375.983 72.7746 376.332 73.142 376.578 73.6307C376.828 74.1155 376.953 74.7216 376.953 75.4489V81H375.254V75.6534C375.254 75.0133 375.089 74.517 374.76 74.1648C374.43 73.8087 373.972 73.6307 373.385 73.6307C372.983 73.6307 372.624 73.7159 372.305 73.8864C371.991 74.0568 371.743 74.3068 371.561 74.6364C371.383 74.9621 371.294 75.3561 371.294 75.8182ZM383.591 81V69.3636H390.886V70.875H385.347V74.4205H390.506V75.9261H385.347V79.4886H390.955V81H383.591ZM398.987 84.2727V79.642H398.885C398.783 79.8277 398.635 80.0398 398.442 80.2784C398.252 80.517 397.991 80.7254 397.658 80.9034C397.324 81.0814 396.893 81.1705 396.362 81.1705C395.658 81.1705 395.029 80.9905 394.476 80.6307C393.927 80.267 393.495 79.75 393.18 79.0795C392.87 78.4053 392.714 77.5966 392.714 76.6534C392.714 75.7102 392.872 74.9034 393.186 74.233C393.504 73.5625 393.94 73.0492 394.493 72.6932C395.046 72.3371 395.673 72.1591 396.374 72.1591C396.915 72.1591 397.351 72.25 397.68 72.4318C398.014 72.6098 398.271 72.8182 398.453 73.0568C398.639 73.2955 398.783 73.5057 398.885 73.6875H399.027V72.2727H400.686V84.2727H398.987ZM396.737 79.7216C397.226 79.7216 397.639 79.5928 397.976 79.3352C398.317 79.0739 398.574 78.7121 398.749 78.25C398.927 77.7879 399.016 77.25 399.016 76.6364C399.016 76.0303 398.929 75.5 398.754 75.0455C398.58 74.5909 398.324 74.2367 397.987 73.983C397.65 73.7292 397.233 73.6023 396.737 73.6023C396.226 73.6023 395.8 73.7348 395.459 74C395.118 74.2652 394.86 74.6269 394.686 75.0852C394.516 75.5436 394.43 76.0606 394.43 76.6364C394.43 77.2197 394.518 77.7443 394.692 78.2102C394.866 78.6761 395.124 79.0455 395.464 79.3182C395.809 79.5871 396.233 79.7216 396.737 79.7216ZM408.499 77.3807V72.2727H410.203V81H408.533V79.4886H408.442C408.241 79.9545 407.919 80.3428 407.476 80.6534C407.036 80.9602 406.489 81.1136 405.834 81.1136C405.273 81.1136 404.777 80.9905 404.345 80.7443C403.917 80.4943 403.58 80.125 403.334 79.6364C403.091 79.1477 402.97 78.5436 402.97 77.8239V72.2727H404.669V77.6193C404.669 78.214 404.834 78.6875 405.163 79.0398C405.493 79.392 405.921 79.5682 406.447 79.5682C406.766 79.5682 407.082 79.4886 407.396 79.3295C407.714 79.1705 407.978 78.9299 408.186 78.608C408.398 78.286 408.502 77.8769 408.499 77.3807ZM412.486 81V72.2727H414.185V81H412.486ZM413.344 70.9261C413.048 70.9261 412.795 70.8277 412.582 70.6307C412.374 70.4299 412.27 70.1913 412.27 69.9148C412.27 69.6345 412.374 69.3958 412.582 69.1989C412.795 68.9981 413.048 68.8977 413.344 68.8977C413.639 68.8977 413.891 68.9981 414.099 69.1989C414.312 69.3958 414.418 69.6345 414.418 69.9148C414.418 70.1913 414.312 70.4299 414.099 70.6307C413.891 70.8277 413.639 70.9261 413.344 70.9261ZM423.936 72.2727L420.771 81H418.953L415.783 72.2727H417.607L419.817 78.9886H419.908L422.112 72.2727H423.936ZM427.822 81.1932C427.269 81.1932 426.769 81.0909 426.322 80.8864C425.875 80.678 425.521 80.3769 425.26 79.983C425.002 79.589 424.874 79.1061 424.874 78.5341C424.874 78.0417 424.968 77.6364 425.158 77.3182C425.347 77 425.603 76.7481 425.925 76.5625C426.247 76.3769 426.607 76.2367 427.004 76.142C427.402 76.0473 427.807 75.9754 428.22 75.9261C428.743 75.8655 429.167 75.8163 429.493 75.7784C429.819 75.7367 430.055 75.6705 430.203 75.5795C430.351 75.4886 430.425 75.3409 430.425 75.1364V75.0966C430.425 74.6004 430.285 74.2159 430.004 73.9432C429.728 73.6705 429.315 73.5341 428.766 73.5341C428.194 73.5341 427.743 73.661 427.413 73.9148C427.088 74.1648 426.862 74.4432 426.737 74.75L425.141 74.3864C425.33 73.8561 425.607 73.428 425.97 73.1023C426.338 72.7727 426.76 72.5341 427.237 72.3864C427.714 72.2348 428.216 72.1591 428.743 72.1591C429.091 72.1591 429.461 72.2008 429.851 72.2841C430.245 72.3636 430.612 72.5114 430.953 72.7273C431.298 72.9432 431.58 73.2519 431.8 73.6534C432.019 74.0511 432.129 74.5682 432.129 75.2045V81H430.47V79.8068H430.402C430.292 80.0265 430.127 80.2424 429.908 80.4545C429.688 80.6667 429.406 80.8428 429.061 80.983C428.716 81.1231 428.304 81.1932 427.822 81.1932ZM428.192 79.8295C428.661 79.8295 429.063 79.7367 429.396 79.5511C429.733 79.3655 429.989 79.1231 430.163 78.8239C430.341 78.5208 430.43 78.197 430.43 77.8523V76.7273C430.37 76.7879 430.252 76.8447 430.078 76.8977C429.908 76.947 429.713 76.9905 429.493 77.0284C429.273 77.0625 429.059 77.0947 428.851 77.125C428.643 77.1515 428.468 77.1742 428.328 77.1932C427.999 77.2348 427.697 77.3049 427.425 77.4034C427.156 77.5019 426.94 77.6439 426.777 77.8295C426.618 78.0114 426.538 78.2538 426.538 78.5568C426.538 78.9773 426.694 79.2955 427.004 79.5114C427.315 79.7235 427.711 79.8295 428.192 79.8295ZM436.091 69.3636V81H434.392V69.3636H436.091ZM442.138 81.1761C441.278 81.1761 440.537 80.9924 439.916 80.625C439.299 80.2538 438.821 79.733 438.484 79.0625C438.151 78.3883 437.984 77.5985 437.984 76.6932C437.984 75.7992 438.151 75.0114 438.484 74.3295C438.821 73.6477 439.291 73.1155 439.893 72.733C440.5 72.3504 441.208 72.1591 442.018 72.1591C442.511 72.1591 442.988 72.2405 443.45 72.4034C443.912 72.5663 444.327 72.822 444.695 73.1705C445.062 73.5189 445.352 73.9716 445.564 74.5284C445.776 75.0814 445.882 75.7538 445.882 76.5455V77.1477H438.945V75.875H444.217C444.217 75.428 444.126 75.0322 443.945 74.6875C443.763 74.339 443.507 74.0644 443.178 73.8636C442.852 73.6629 442.469 73.5625 442.03 73.5625C441.553 73.5625 441.136 73.6799 440.78 73.9148C440.428 74.1458 440.155 74.4489 439.962 74.8239C439.772 75.1951 439.678 75.5985 439.678 76.0341V77.0284C439.678 77.6117 439.78 78.108 439.984 78.517C440.193 78.9261 440.482 79.2386 440.854 79.4545C441.225 79.6667 441.659 79.7727 442.155 79.7727C442.477 79.7727 442.77 79.7273 443.036 79.6364C443.301 79.5417 443.53 79.4015 443.723 79.2159C443.916 79.0303 444.064 78.8011 444.166 78.5284L445.774 78.8182C445.645 79.2917 445.414 79.7064 445.081 80.0625C444.751 80.4148 444.337 80.6894 443.837 80.8864C443.34 81.0795 442.774 81.1761 442.138 81.1761ZM449.466 75.8182V81H447.767V72.2727H449.398V73.6932H449.506C449.706 73.2311 450.021 72.8598 450.449 72.5795C450.881 72.2992 451.424 72.1591 452.08 72.1591C452.674 72.1591 453.195 72.2841 453.642 72.5341C454.089 72.7803 454.436 73.1477 454.682 73.6364C454.928 74.125 455.051 74.7292 455.051 75.4489V81H453.352V75.6534C453.352 75.0208 453.188 74.5265 452.858 74.1705C452.528 73.8106 452.076 73.6307 451.5 73.6307C451.106 73.6307 450.756 73.7159 450.449 73.8864C450.146 74.0568 449.905 74.3068 449.727 74.6364C449.553 74.9621 449.466 75.3561 449.466 75.8182ZM461.403 72.2727V73.6364H456.636V72.2727H461.403ZM457.915 70.1818H459.614V78.4375C459.614 78.767 459.663 79.0152 459.761 79.1818C459.86 79.3447 459.987 79.4564 460.142 79.517C460.301 79.5739 460.473 79.6023 460.659 79.6023C460.795 79.6023 460.915 79.5928 461.017 79.5739C461.119 79.5549 461.199 79.5398 461.256 79.5284L461.562 80.9318C461.464 80.9697 461.324 81.0076 461.142 81.0455C460.96 81.0871 460.733 81.1098 460.46 81.1136C460.013 81.1212 459.597 81.0417 459.21 80.875C458.824 80.7083 458.511 80.4508 458.273 80.1023C458.034 79.7538 457.915 79.3163 457.915 78.7898V70.1818ZM469.682 74.4034L468.142 74.6761C468.078 74.4792 467.975 74.2917 467.835 74.1136C467.699 73.9356 467.513 73.7898 467.278 73.6761C467.044 73.5625 466.75 73.5057 466.398 73.5057C465.917 73.5057 465.515 73.6136 465.193 73.8295C464.871 74.0417 464.71 74.3163 464.71 74.6534C464.71 74.9451 464.818 75.1799 465.034 75.358C465.25 75.536 465.598 75.6818 466.08 75.7955L467.466 76.1136C468.269 76.2992 468.867 76.5852 469.261 76.9716C469.655 77.358 469.852 77.8598 469.852 78.4773C469.852 79 469.701 79.4659 469.398 79.875C469.098 80.2803 468.68 80.5985 468.142 80.8295C467.608 81.0606 466.989 81.1761 466.284 81.1761C465.307 81.1761 464.509 80.9678 463.892 80.5511C463.275 80.1307 462.896 79.5341 462.756 78.7614L464.398 78.5114C464.5 78.9394 464.71 79.2633 465.028 79.483C465.347 79.6989 465.761 79.8068 466.273 79.8068C466.83 79.8068 467.275 79.6913 467.608 79.4602C467.941 79.2254 468.108 78.9394 468.108 78.6023C468.108 78.3295 468.006 78.1004 467.801 77.9148C467.6 77.7292 467.292 77.589 466.875 77.4943L465.398 77.1705C464.583 76.9848 463.981 76.6894 463.591 76.2841C463.205 75.8788 463.011 75.3655 463.011 74.7443C463.011 74.2292 463.155 73.7784 463.443 73.392C463.731 73.0057 464.129 72.7045 464.636 72.4886C465.144 72.2689 465.725 72.1591 466.381 72.1591C467.324 72.1591 468.066 72.3636 468.608 72.7727C469.15 73.178 469.508 73.7216 469.682 74.4034Z" fill="white"/>
</g>
</g>
</g>
</g>
<path d="M286.5 30C286.5 26.9624 288.962 24.5 292 24.5H518C521.038 24.5 523.5 26.9624 523.5 30V125.5H286.5V30Z" stroke="#4A3C83"/>
</g>
<g id="Card 2_2">
<g clip-path="url(#clip2_397_21679)">
<mask id="path-11-inside-2_397_21679" fill="white">
<path d="M286 126H524V148C524 151.314 521.314 154 518 154H292C288.686 154 286 151.314 286 148V126Z"/>
</mask>
<path d="M286 126H524V148C524 151.314 521.314 154 518 154H292C288.686 154 286 151.314 286 148V126Z" fill="#5B43BA"/>
<g id="Content_4">
<g id="Heading and price_4">
<g id="Heading and supporting text_4">
<g id="Heading and badge_4">
<path id="Heading_4" d="M395.028 136.406V135.273H401.783V136.406H399.06V144H397.747V136.406H395.028ZM405.023 142.534V136.773H406.17V142.534H405.023ZM402.718 140.224V139.082H408.479V140.224H402.718ZM413.744 135.273V144H412.423V136.594H412.372L410.284 137.957V136.696L412.462 135.273H413.744Z" fill="#D7D7D7"/>
</g>
</g>
</g>
</g>
</g>
<path d="M286 126H524H286ZM525 148C525 151.866 521.866 155 518 155H292C288.134 155 285 151.866 285 148H287C287 150.761 289.239 153 292 153H518C520.761 153 523 150.761 523 148H525ZM292 155C288.134 155 285 151.866 285 148V126H287V148C287 150.761 289.239 153 292 153V155ZM525 126V148C525 151.866 521.866 155 518 155V153C520.761 153 523 150.761 523 148V126H525Z" fill="#4A3C83" mask="url(#path-11-inside-2_397_21679)"/>
</g>
</g>
<g id="Frame 91">
<g id="Card 1_3">
<path d="M548.5 30C548.5 26.9624 550.962 24.5 554 24.5H780C783.038 24.5 785.5 26.9624 785.5 30V125.5H548.5V30Z" fill="#7A5AF8"/>
<g id="Content_5">
<g id="Heading and price_5">
<g id="Heading and supporting text_5">
<g id="Heading and badge_5">
<path id="Heading_5" d="M622.582 69.3636H624.343V77.017C624.343 77.8314 624.152 78.553 623.769 79.1818C623.387 79.8068 622.849 80.2992 622.156 80.6591C621.462 81.0152 620.65 81.1932 619.718 81.1932C618.79 81.1932 617.979 81.0152 617.286 80.6591C616.593 80.2992 616.055 79.8068 615.673 79.1818C615.29 78.553 615.099 77.8314 615.099 77.017V69.3636H616.854V76.875C616.854 77.4015 616.97 77.8693 617.201 78.2784C617.436 78.6875 617.767 79.0095 618.195 79.2443C618.623 79.4754 619.131 79.5909 619.718 79.5909C620.309 79.5909 620.818 79.4754 621.246 79.2443C621.678 79.0095 622.008 78.6875 622.235 78.2784C622.466 77.8693 622.582 77.4015 622.582 76.875V69.3636ZM633.242 72.4205C633.182 71.8826 632.932 71.4659 632.492 71.1705C632.053 70.8712 631.5 70.7216 630.833 70.7216C630.356 70.7216 629.943 70.7973 629.594 70.9489C629.246 71.0966 628.975 71.3011 628.782 71.5625C628.593 71.8201 628.498 72.1136 628.498 72.4432C628.498 72.7197 628.562 72.9583 628.691 73.1591C628.824 73.3598 628.996 73.5284 629.208 73.6648C629.424 73.7973 629.655 73.9091 629.901 74C630.147 74.0871 630.384 74.1591 630.612 74.2159L631.748 74.5114C632.119 74.6023 632.5 74.7254 632.89 74.8807C633.28 75.036 633.642 75.2405 633.975 75.4943C634.308 75.7481 634.577 76.0625 634.782 76.4375C634.99 76.8125 635.094 77.2614 635.094 77.7841C635.094 78.4432 634.924 79.0284 634.583 79.5398C634.246 80.0511 633.755 80.4545 633.112 80.75C632.471 81.0455 631.697 81.1932 630.788 81.1932C629.916 81.1932 629.163 81.0549 628.526 80.7784C627.89 80.5019 627.392 80.1098 627.032 79.6023C626.672 79.0909 626.473 78.4848 626.435 77.7841H628.197C628.231 78.2045 628.367 78.5549 628.606 78.8352C628.848 79.1117 629.157 79.3182 629.532 79.4545C629.911 79.5871 630.326 79.6534 630.776 79.6534C631.272 79.6534 631.714 79.5758 632.1 79.4205C632.49 79.2614 632.797 79.0417 633.021 78.7614C633.244 78.4773 633.356 78.1458 633.356 77.767C633.356 77.4223 633.257 77.1402 633.06 76.9205C632.867 76.7008 632.604 76.5189 632.271 76.375C631.941 76.2311 631.568 76.1042 631.151 75.9943L629.776 75.6193C628.844 75.3655 628.106 74.9924 627.56 74.5C627.019 74.0076 626.748 73.3561 626.748 72.5455C626.748 71.875 626.93 71.2898 627.293 70.7898C627.657 70.2898 628.149 69.9015 628.771 69.625C629.392 69.3447 630.093 69.2045 630.873 69.2045C631.661 69.2045 632.356 69.3428 632.958 69.6193C633.564 69.8958 634.041 70.2765 634.39 70.7614C634.738 71.2424 634.92 71.7955 634.935 72.4205H633.242ZM640.853 70.875V69.3636H649.859V70.875H646.228V81H644.478V70.875H640.853ZM650.806 81V72.2727H652.448V73.6591H652.539C652.698 73.1894 652.978 72.8201 653.38 72.5511C653.785 72.2784 654.244 72.142 654.755 72.142C654.861 72.142 654.986 72.1458 655.13 72.1534C655.278 72.161 655.393 72.1705 655.477 72.1818V73.8068C655.408 73.7879 655.287 73.767 655.113 73.7443C654.939 73.7178 654.764 73.7045 654.59 73.7045C654.189 73.7045 653.831 73.7898 653.516 73.9602C653.206 74.1269 652.96 74.3598 652.778 74.6591C652.596 74.9545 652.505 75.2917 652.505 75.6705V81H650.806ZM660.396 81.1761C659.536 81.1761 658.795 80.9924 658.174 80.625C657.557 80.2538 657.079 79.733 656.742 79.0625C656.409 78.3883 656.242 77.5985 656.242 76.6932C656.242 75.7992 656.409 75.0114 656.742 74.3295C657.079 73.6477 657.549 73.1155 658.151 72.733C658.757 72.3504 659.466 72.1591 660.276 72.1591C660.769 72.1591 661.246 72.2405 661.708 72.4034C662.17 72.5663 662.585 72.822 662.952 73.1705C663.32 73.5189 663.61 73.9716 663.822 74.5284C664.034 75.0814 664.14 75.7538 664.14 76.5455V77.1477H657.202V75.875H662.475C662.475 75.428 662.384 75.0322 662.202 74.6875C662.021 74.339 661.765 74.0644 661.435 73.8636C661.11 73.6629 660.727 73.5625 660.288 73.5625C659.81 73.5625 659.394 73.6799 659.038 73.9148C658.685 74.1458 658.413 74.4489 658.219 74.8239C658.03 75.1951 657.935 75.5985 657.935 76.0341V77.0284C657.935 77.6117 658.038 78.108 658.242 78.517C658.451 78.9261 658.74 79.2386 659.112 79.4545C659.483 79.6667 659.916 79.7727 660.413 79.7727C660.735 79.7727 661.028 79.7273 661.293 79.6364C661.558 79.5417 661.788 79.4015 661.981 79.2159C662.174 79.0303 662.322 78.8011 662.424 78.5284L664.032 78.8182C663.903 79.2917 663.672 79.7064 663.339 80.0625C663.009 80.4148 662.594 80.6894 662.094 80.8864C661.598 81.0795 661.032 81.1761 660.396 81.1761ZM668.565 81.1932C668.012 81.1932 667.512 81.0909 667.065 80.8864C666.618 80.678 666.263 80.3769 666.002 79.983C665.745 79.589 665.616 79.1061 665.616 78.5341C665.616 78.0417 665.71 77.6364 665.9 77.3182C666.089 77 666.345 76.7481 666.667 76.5625C666.989 76.3769 667.349 76.2367 667.746 76.142C668.144 76.0473 668.549 75.9754 668.962 75.9261C669.485 75.8655 669.909 75.8163 670.235 75.7784C670.561 75.7367 670.798 75.6705 670.945 75.5795C671.093 75.4886 671.167 75.3409 671.167 75.1364V75.0966C671.167 74.6004 671.027 74.2159 670.746 73.9432C670.47 73.6705 670.057 73.5341 669.508 73.5341C668.936 73.5341 668.485 73.661 668.156 73.9148C667.83 74.1648 667.604 74.4432 667.479 74.75L665.883 74.3864C666.072 73.8561 666.349 73.428 666.712 73.1023C667.08 72.7727 667.502 72.5341 667.979 72.3864C668.457 72.2348 668.959 72.1591 669.485 72.1591C669.834 72.1591 670.203 72.2008 670.593 72.2841C670.987 72.3636 671.354 72.5114 671.695 72.7273C672.04 72.9432 672.322 73.2519 672.542 73.6534C672.762 74.0511 672.871 74.5682 672.871 75.2045V81H671.212V79.8068H671.144C671.034 80.0265 670.87 80.2424 670.65 80.4545C670.43 80.6667 670.148 80.8428 669.803 80.983C669.459 81.1231 669.046 81.1932 668.565 81.1932ZM668.934 79.8295C669.404 79.8295 669.805 79.7367 670.138 79.5511C670.476 79.3655 670.731 79.1231 670.906 78.8239C671.084 78.5208 671.173 78.197 671.173 77.8523V76.7273C671.112 76.7879 670.995 76.8447 670.82 76.8977C670.65 76.947 670.455 76.9905 670.235 77.0284C670.015 77.0625 669.801 77.0947 669.593 77.125C669.385 77.1515 669.21 77.1742 669.07 77.1932C668.741 77.2348 668.44 77.3049 668.167 77.4034C667.898 77.5019 667.682 77.6439 667.519 77.8295C667.36 78.0114 667.281 78.2538 667.281 78.5568C667.281 78.9773 667.436 79.2955 667.746 79.5114C668.057 79.7235 668.453 79.8295 668.934 79.8295ZM681.674 74.4034L680.134 74.6761C680.07 74.4792 679.968 74.2917 679.827 74.1136C679.691 73.9356 679.505 73.7898 679.271 73.6761C679.036 73.5625 678.742 73.5057 678.39 73.5057C677.909 73.5057 677.507 73.6136 677.185 73.8295C676.863 74.0417 676.702 74.3163 676.702 74.6534C676.702 74.9451 676.81 75.1799 677.026 75.358C677.242 75.536 677.591 75.6818 678.072 75.7955L679.458 76.1136C680.261 76.2992 680.86 76.5852 681.254 76.9716C681.647 77.358 681.844 77.8598 681.844 78.4773C681.844 79 681.693 79.4659 681.39 79.875C681.091 80.2803 680.672 80.5985 680.134 80.8295C679.6 81.0606 678.981 81.1761 678.276 81.1761C677.299 81.1761 676.502 80.9678 675.884 80.5511C675.267 80.1307 674.888 79.5341 674.748 78.7614L676.39 78.5114C676.492 78.9394 676.702 79.2633 677.021 79.483C677.339 79.6989 677.754 79.8068 678.265 79.8068C678.822 79.8068 679.267 79.6913 679.6 79.4602C679.933 79.2254 680.1 78.9394 680.1 78.6023C680.1 78.3295 679.998 78.1004 679.793 77.9148C679.593 77.7292 679.284 77.589 678.867 77.4943L677.39 77.1705C676.576 76.9848 675.973 76.6894 675.583 76.2841C675.197 75.8788 675.004 75.3655 675.004 74.7443C675.004 74.2292 675.147 73.7784 675.435 73.392C675.723 73.0057 676.121 72.7045 676.629 72.4886C677.136 72.2689 677.718 72.1591 678.373 72.1591C679.316 72.1591 680.058 72.3636 680.6 72.7727C681.142 73.178 681.5 73.7216 681.674 74.4034ZM689.241 77.3807V72.2727H690.945V81H689.275V79.4886H689.184C688.983 79.9545 688.661 80.3428 688.218 80.6534C687.779 80.9602 687.231 81.1136 686.576 81.1136C686.015 81.1136 685.519 80.9905 685.087 80.7443C684.659 80.4943 684.322 80.125 684.076 79.6364C683.834 79.1477 683.712 78.5436 683.712 77.8239V72.2727H685.411V77.6193C685.411 78.214 685.576 78.6875 685.906 79.0398C686.235 79.392 686.663 79.5682 687.19 79.5682C687.508 79.5682 687.824 79.4886 688.138 79.3295C688.457 79.1705 688.72 78.9299 688.928 78.608C689.14 78.286 689.245 77.8769 689.241 77.3807ZM693.228 81V72.2727H694.87V73.6591H694.961C695.12 73.1894 695.4 72.8201 695.802 72.5511C696.207 72.2784 696.665 72.142 697.177 72.142C697.283 72.142 697.408 72.1458 697.552 72.1534C697.7 72.161 697.815 72.1705 697.898 72.1818V73.8068C697.83 73.7879 697.709 73.767 697.535 73.7443C697.361 73.7178 697.186 73.7045 697.012 73.7045C696.611 73.7045 696.253 73.7898 695.938 73.9602C695.628 74.1269 695.381 74.3598 695.2 74.6591C695.018 74.9545 694.927 75.2917 694.927 75.6705V81H693.228ZM699.369 81V72.2727H701.067V81H699.369ZM700.227 70.9261C699.931 70.9261 699.677 70.8277 699.465 70.6307C699.257 70.4299 699.153 70.1913 699.153 69.9148C699.153 69.6345 699.257 69.3958 699.465 69.1989C699.677 68.9981 699.931 68.8977 700.227 68.8977C700.522 68.8977 700.774 68.9981 700.982 69.1989C701.194 69.3958 701.3 69.6345 701.3 69.9148C701.3 70.1913 701.194 70.4299 700.982 70.6307C700.774 70.8277 700.522 70.9261 700.227 70.9261ZM707.114 81.1761C706.254 81.1761 705.514 80.9924 704.893 80.625C704.275 80.2538 703.798 79.733 703.461 79.0625C703.128 78.3883 702.961 77.5985 702.961 76.6932C702.961 75.7992 703.128 75.0114 703.461 74.3295C703.798 73.6477 704.268 73.1155 704.87 72.733C705.476 72.3504 706.184 72.1591 706.995 72.1591C707.487 72.1591 707.965 72.2405 708.427 72.4034C708.889 72.5663 709.304 72.822 709.671 73.1705C710.039 73.5189 710.328 73.9716 710.54 74.5284C710.753 75.0814 710.859 75.7538 710.859 76.5455V77.1477H703.921V75.875H709.194C709.194 75.428 709.103 75.0322 708.921 74.6875C708.739 74.339 708.484 74.0644 708.154 73.8636C707.828 73.6629 707.446 73.5625 707.006 73.5625C706.529 73.5625 706.112 73.6799 705.756 73.9148C705.404 74.1458 705.131 74.4489 704.938 74.8239C704.749 75.1951 704.654 75.5985 704.654 76.0341V77.0284C704.654 77.6117 704.756 78.108 704.961 78.517C705.169 78.9261 705.459 79.2386 705.83 79.4545C706.201 79.6667 706.635 79.7727 707.131 79.7727C707.453 79.7727 707.747 79.7273 708.012 79.6364C708.277 79.5417 708.506 79.4015 708.7 79.2159C708.893 79.0303 709.04 78.8011 709.143 78.5284L710.751 78.8182C710.622 79.2917 710.391 79.7064 710.058 80.0625C709.728 80.4148 709.313 80.6894 708.813 80.8864C708.317 81.0795 707.751 81.1761 707.114 81.1761ZM719.283 74.4034L717.744 74.6761C717.679 74.4792 717.577 74.2917 717.437 74.1136C717.3 73.9356 717.115 73.7898 716.88 73.6761C716.645 73.5625 716.352 73.5057 715.999 73.5057C715.518 73.5057 715.117 73.6136 714.795 73.8295C714.473 74.0417 714.312 74.3163 714.312 74.6534C714.312 74.9451 714.42 75.1799 714.636 75.358C714.852 75.536 715.2 75.6818 715.681 75.7955L717.067 76.1136C717.871 76.2992 718.469 76.5852 718.863 76.9716C719.257 77.358 719.454 77.8598 719.454 78.4773C719.454 79 719.302 79.4659 718.999 79.875C718.7 80.2803 718.281 80.5985 717.744 80.8295C717.21 81.0606 716.59 81.1761 715.886 81.1761C714.908 81.1761 714.111 80.9678 713.494 80.5511C712.876 80.1307 712.497 79.5341 712.357 78.7614L713.999 78.5114C714.102 78.9394 714.312 79.2633 714.63 79.483C714.948 79.6989 715.363 79.8068 715.874 79.8068C716.431 79.8068 716.876 79.6913 717.21 79.4602C717.543 79.2254 717.71 78.9394 717.71 78.6023C717.71 78.3295 717.607 78.1004 717.403 77.9148C717.202 77.7292 716.893 77.589 716.477 77.4943L714.999 77.1705C714.185 76.9848 713.583 76.6894 713.192 76.2841C712.806 75.8788 712.613 75.3655 712.613 74.7443C712.613 74.2292 712.757 73.7784 713.045 73.392C713.333 73.0057 713.73 72.7045 714.238 72.4886C714.746 72.2689 715.327 72.1591 715.982 72.1591C716.925 72.1591 717.668 72.3636 718.21 72.7727C718.751 73.178 719.109 73.7216 719.283 74.4034Z" fill="white"/>
</g>
</g>
</g>
</g>
<path d="M548.5 30C548.5 26.9624 550.962 24.5 554 24.5H780C783.038 24.5 785.5 26.9624 785.5 30V125.5H548.5V30Z" stroke="#4A3C83"/>
</g>
<g id="Card 2_3">
<g clip-path="url(#clip3_397_21679)">
<mask id="path-16-inside-3_397_21679" fill="white">
<path d="M548 126H786V148C786 151.314 783.314 154 780 154H554C550.686 154 548 151.314 548 148V126Z"/>
</mask>
<path d="M548 126H786V148C786 151.314 783.314 154 780 154H554C550.686 154 548 151.314 548 148V126Z" fill="#5B43BA"/>
<g id="Content_6">
<g id="Heading and price_6">
<g id="Heading and supporting text_6">
<g id="Heading and badge_6">
<path id="Heading_6" d="M656.028 136.406V135.273H662.783V136.406H660.06V144H658.747V136.406H656.028ZM666.023 142.534V136.773H667.17V142.534H666.023ZM663.718 140.224V139.082H669.479V140.224H663.718ZM671.754 135.273L673.842 138.686H673.91L675.998 135.273H677.524L674.805 139.636L677.541 144H676.007L673.91 140.634H673.842L671.745 144H670.211L672.994 139.636L670.228 135.273H671.754Z" fill="#D7D7D7"/>
</g>
</g>
</g>
</g>
</g>
<path d="M548 126H786H548ZM787 148C787 151.866 783.866 155 780 155H554C550.134 155 547 151.866 547 148H549C549 150.761 551.239 153 554 153H780C782.761 153 785 150.761 785 148H787ZM554 155C550.134 155 547 151.866 547 148V126H549V148C549 150.761 551.239 153 554 153V155ZM787 126V148C787 151.866 783.866 155 780 155V153C782.761 153 785 150.761 785 148V126H787Z" fill="#4A3C83" mask="url(#path-16-inside-3_397_21679)"/>
</g>
</g>
</g>
<path id="Vector 1" d="M262 95H286" stroke="#CCCCCC"/>
<path id="Vector 2" d="M524 95H548" stroke="#CCCCCC"/>
</g>
</g>
</g>
<defs>
<clipPath id="clip0_397_21679">
<rect width="810" height="174" rx="6" fill="white"/>
</clipPath>
<clipPath id="clip1_397_21679">
<path d="M24 126H262V148C262 151.314 259.314 154 256 154H30C26.6863 154 24 151.314 24 148V126Z" fill="white"/>
</clipPath>
<clipPath id="clip2_397_21679">
<path d="M286 126H524V148C524 151.314 521.314 154 518 154H292C288.686 154 286 151.314 286 148V126Z" fill="white"/>
</clipPath>
<clipPath id="clip3_397_21679">
<path d="M548 126H786V148C786 151.314 783.314 154 780 154H554C550.686 154 548 151.314 548 148V126Z" fill="white"/>
</clipPath>
</defs>
</svg>
