<svg xmlns="http://www.w3.org/2000/svg" id="Group_21" data-name="Group 21" width="200.353" height="200.353" viewBox="0 0 200.353 200.353"><g id="Group_22" data-name="Group 22" transform="translate(0 0)"><path id="Path_64" data-name="Path 64" d="M200.353,100.177A100.177,100.177,0,1,1,100.177,0,100.177,100.177,0,0,1,200.353,100.177" fill="#005aff" opacity="0.4"></path><path id="Path_62" data-name="Path 62" d="M143.109,71.555A71.555,71.555,0,1,1,71.555,0a71.555,71.555,0,0,1,71.555,71.555" transform="translate(29.503 28.622)" fill="#005aff"></path><path id="Path_59" data-name="Path 59" d="M141.346,70.673A70.673,70.673,0,1,1,70.673,0a70.673,70.673,0,0,1,70.673,70.673" transform="translate(29.503 28.622)" fill="#005aff"></path><path id="Path_60" data-name="Path 60" d="M53.937,78.428,58,60.742,67.63,56.68l2.394-10.394-.081-.258-9.477,4,6.828-29.695H47.931L39,59.085l-7.455,3.146L29.083,72.946l7.45-3.142L31.27,92.642H82.8l3.3-14.215Z" transform="translate(43.463 42.808)" fill="#fff"></path></g></svg>