<svg xmlns="http://www.w3.org/2000/svg" width="200.353" height="200.353" viewBox="0 0 200.353 200.353"><g id="Group_23" data-name="Group 23" transform="translate(0 0)"><path id="Path_61" data-name="Path 61" d="M200.353,100.177A100.177,100.177,0,1,1,100.177,0,100.176,100.176,0,0,1,200.353,100.177" fill="#ff8500" opacity="0.3"></path><path id="Path_50" data-name="Path 50" d="M143.109,71.555A71.555,71.555,0,1,1,71.555,0a71.554,71.554,0,0,1,71.555,71.555" transform="translate(29.503 29.504)" fill="#ff8500"></path><path id="Path_51" data-name="Path 51" d="M88.905,71.08A13.308,13.308,0,0,0,99.231,59.871C100.613,51.4,91.924,45.4,84.4,42.385l3.744-12.272L80.567,27.8l-3.7,12.125-5.056-1.541,3.7-12.127-7.58-2.313-3.7,12.127L49.075,31.447l-2.39,7.837,5.683,1.733c2.528.772,3.558,1.911,2.94,3.935l-10.251,33.6c-.847,2.779-2.508,3.239-4.022,2.777l-6.048-1.846-2.444,7.957L47.2,91.916l-3.777,12.377L51,106.606l3.777-12.378,5.055,1.542-3.777,12.378,7.58,2.313L67.41,98.082l1.643.5c15.535,4.739,23.033-1.26,26.192-11.618s-6.34-15.885-6.34-15.885M69.362,45.521s18.839,3.2,15.723,14.01h0c-.008.026-.016.05-.024.076s-.013.048-.021.072h0c-3.45,10.713-20.865,2.851-20.865,2.851Zm10.6,37.812h0c-3.464,10.7-22.816,2.253-22.816,2.253l5.189-17.007S83.1,72.365,80,83.185h0c-.007.024-.017.046-.025.071s-.011.05-.019.076" transform="translate(34.218 32.973)" fill="#fff"></path></g></svg>