<svg xmlns="http://www.w3.org/2000/svg" xmlns:xlink="http://www.w3.org/1999/xlink" width="200" height="200" viewBox="0 0 200 200"><defs><clipPath id="clip-path"><rect id="Rectangle_60" data-name="Rectangle 60" width="90.581" height="83.697" fill="#fff"></rect></clipPath></defs><g id="Group_45" data-name="Group 45" transform="translate(2.103 2.103)"><path id="Path_63" data-name="Path 63" d="M200,100A100,100,0,1,1,100,0,100,100,0,0,1,200,100" transform="translate(-2.103 -2.103)" fill="#0054e8" opacity="0.4"></path><path id="Path_52" data-name="Path 52" d="M150,75A75,75,0,1,1,75,0a75,75,0,0,1,75,75" transform="translate(22.897 22.897)" fill="#1238a7"></path><g id="Group_48" data-name="Group 48" transform="translate(52.607 56.049)"><g id="Group_47" data-name="Group 47" transform="translate(0 0)" clip-path="url(#clip-path)"><path id="Path_68" data-name="Path 68" d="M44.179.247a2.537,2.537,0,0,1,3.335,3.331,2.556,2.556,0,0,1-4.1.81A2.579,2.579,0,0,1,44.179.247M22.945,2.536a1.97,1.97,0,0,1,2.6,1.913,1.967,1.967,0,0,1-2.83,1.789,2.009,2.009,0,0,1,.235-3.7M66.435,6.277a1.984,1.984,0,0,1-.367-3.766c1.4-.682,2.684.6,2.888,1.924a2.176,2.176,0,0,1-2.522,1.842m-38.659,5.3a3.072,3.072,0,1,1-.431,5.074,3.1,3.1,0,0,1,.431-5.074M58.384,12.92a3.1,3.1,0,0,1,5.537-.131c1.007,1.746-.231,3.909-2.024,4.5-2.375.443-4.631-2.125-3.513-4.372M41.622,17.161a3.813,3.813,0,0,1,3.668-3.593,4.028,4.028,0,0,1,3.146,2.043,3.619,3.619,0,0,1-1.692,4.931,4.8,4.8,0,0,1-2.7.235,3.926,3.926,0,0,1-2.424-3.616M10.044,20.048a2.535,2.535,0,1,1-.408,4.241,2.569,2.569,0,0,1,.408-4.241m67.811,0a2.526,2.526,0,1,1,.278,4.356,2.527,2.527,0,0,1-.278-4.356M50.5,23.606a6.123,6.123,0,1,1-3.79,7.95,6.149,6.149,0,0,1,3.79-7.95m-15.045.305A6.12,6.12,0,1,1,32.6,32.193a6.172,6.172,0,0,1,2.854-8.281m-15.065,5.15a3.847,3.847,0,0,1,3.686-3.146A4.061,4.061,0,0,1,27.66,29.5a3.82,3.82,0,0,1-3.571,3.709,3.591,3.591,0,0,1-3.7-4.148m44.5-2.748a3.611,3.611,0,1,1-.27,6.249,3.636,3.636,0,0,1,.27-6.249m-35.555,9.66a6.118,6.118,0,1,1-3.941,8.538,6.173,6.173,0,0,1,3.941-8.538m28.537-.013a6.126,6.126,0,1,1-3.609,8.779,6.187,6.187,0,0,1,3.609-8.779M12.4,39A3.1,3.1,0,0,1,16.27,42.91a3.062,3.062,0,0,1-4.954,1.3A3.1,3.1,0,0,1,12.4,39m61.663,3.273A3.481,3.481,0,0,1,77.3,38.619a3.262,3.262,0,0,1,2.95,3.2,3.072,3.072,0,0,1-4.465,2.71,4.146,4.146,0,0,1-1.731-2.251M1.209,40.111a1.992,1.992,0,1,1-.8,3.053,2.026,2.026,0,0,1,.8-3.053m86.3-.035a1.973,1.973,0,0,1,2.891.933,1.943,1.943,0,0,1-1.924,2.707c-1.943.177-2.571-2.784-.967-3.64M36.768,48.338a6.118,6.118,0,1,1-4.762,5.9,6.189,6.189,0,0,1,4.762-5.9m14.263-.008a6.126,6.126,0,1,1-4.481,4.522,6.156,6.156,0,0,1,4.481-4.522m-27.5,2.283a3.611,3.611,0,1,1-2.244,5.955,3.638,3.638,0,0,1,2.244-5.955m41.828.113a3.607,3.607,0,1,1-.682,6.434,3.615,3.615,0,0,1,.682-6.434M77.05,62.452A2.514,2.514,0,0,1,79.6,58.928a3.111,3.111,0,0,1,2.129,1.3c.119.975.32,2.139-.49,2.891a2.516,2.516,0,0,1-4.188-.671M10.036,59.387a2.55,2.55,0,0,1,3.782,2.556,2.539,2.539,0,1,1-3.782-2.556m33.75,3.7a3.6,3.6,0,1,1-.671,6.4,3.642,3.642,0,0,1,.671-6.4M28.154,66.732a3.06,3.06,0,0,1,4.288,2.86,3.023,3.023,0,0,1-3.378,2.984c-1.431-.031-2.364-1.313-2.823-2.533a3.424,3.424,0,0,1,1.913-3.311m31.665.031a3.075,3.075,0,1,1-.362,5.152,3.1,3.1,0,0,1,.362-5.152m5.507,13.613a2.168,2.168,0,0,1,1.569-3.208c1.138.231,2.341,1.087,2.1,2.406a2.023,2.023,0,0,1-3.671.8M21.614,79.23c.347-1.045,1.188-2.083,2.418-1.812a2,2,0,0,1,.756,3.663c-1.411.951-3.048-.351-3.174-1.851m21.088,1.2a2.511,2.511,0,0,1,3.663-1.476c.872.374,1.126,1.349,1.35,2.178-.12.431-.227.864-.332,1.3a2.852,2.852,0,0,1-2.132,1.257A2.511,2.511,0,0,1,42.7,80.429" transform="translate(0 0)" fill="#fff"></path></g></g></g></svg>