<svg xmlns="http://www.w3.org/2000/svg" width="200" height="200" viewBox="0 0 200 200"><g id="Group_44" data-name="Group 44" transform="translate(2.103 2.102)"><path id="Path_63" data-name="Path 63" d="M200,100A100,100,0,1,1,100,0,100,100,0,0,1,200,100" transform="translate(-2.103 -2.102)" fill="#f0b908" opacity="0.4"></path><path id="Path_65" data-name="Path 65" d="M150,75A75,75,0,1,1,75,0a75,75,0,0,1,75,75" transform="translate(22.897 22.898)" fill="#f0b908"></path><g id="Group_46" data-name="Group 46" transform="translate(59.376 59.925)"><rect id="Rectangle_57" data-name="Rectangle 57" width="12.842" height="12.842" transform="translate(29.441 37.973) rotate(-45)" fill="#fff"></rect><rect id="Rectangle_58" data-name="Rectangle 58" width="12.841" height="12.841" transform="translate(58.882 37.973) rotate(-45.003)" fill="#fff"></rect><rect id="Rectangle_59" data-name="Rectangle 59" width="12.841" height="12.841" transform="translate(0 37.973) rotate(-45)" fill="#fff"></rect><path id="Path_66" data-name="Path 66" d="M38.522,0,15.185,23.336l9.081,9.081L38.522,18.161,52.777,32.417l9.081-9.081Z" fill="#fff"></path><path id="Path_67" data-name="Path 67" d="M38.522,57.785,24.266,43.529,15.185,52.61,38.522,75.946,61.858,52.61l-9.081-9.081Z" fill="#fff"></path></g></g></svg>