<svg xmlns="http://www.w3.org/2000/svg" width="66.271" height="41.377" viewBox="0 0 66.271 41.377"><g id="Group_120" data-name="Group 120" transform="translate(-884 -801)"><g id="Group_76" data-name="Group 76" transform="translate(884 801)"><path id="Path_1279" data-name="Path 1279" d="M9.523,4.762A4.761,4.761,0,1,1,4.761,0,4.762,4.762,0,0,1,9.523,4.762" fill="#00d493"></path><path id="Path_1280" data-name="Path 1280" d="M26.271,4.762A4.762,4.762,0,1,1,21.509,0a4.762,4.762,0,0,1,4.762,4.762" fill="#00d493"></path><path id="Path_1281" data-name="Path 1281" d="M9.523,20.689a4.761,4.761,0,1,1-4.762-4.762,4.762,4.762,0,0,1,4.762,4.762" fill="#00d493" opacity="0.3"></path><path id="Path_1282" data-name="Path 1282" d="M26.271,20.689a4.762,4.762,0,1,1-4.762-4.762,4.762,4.762,0,0,1,4.762,4.762" fill="#00d493" opacity="0.3"></path><path id="Path_1283" data-name="Path 1283" d="M9.523,36.615a4.761,4.761,0,1,1-4.762-4.762,4.762,4.762,0,0,1,4.762,4.762" fill="#00d493"></path><path id="Path_1284" data-name="Path 1284" d="M26.271,36.615a4.762,4.762,0,1,1-4.762-4.762,4.762,4.762,0,0,1,4.762,4.762" fill="#00d493" opacity="0.3"></path></g><g id="Group_77" data-name="Group 77" transform="translate(924 801)"><path id="Path_1279-2" data-name="Path 1279" d="M9.523,4.762A4.761,4.761,0,1,1,4.761,0,4.762,4.762,0,0,1,9.523,4.762" fill="#00d493"></path><path id="Path_1280-2" data-name="Path 1280" d="M26.271,4.762A4.762,4.762,0,1,1,21.509,0a4.762,4.762,0,0,1,4.762,4.762" fill="#00d493"></path><path id="Path_1281-2" data-name="Path 1281" d="M9.523,20.689a4.761,4.761,0,1,1-4.762-4.762,4.762,4.762,0,0,1,4.762,4.762" fill="#00d493" opacity="0.3"></path><path id="Path_1282-2" data-name="Path 1282" d="M26.271,20.689a4.762,4.762,0,1,1-4.762-4.762,4.762,4.762,0,0,1,4.762,4.762" fill="#00d493" opacity="0.3"></path><path id="Path_1283-2" data-name="Path 1283" d="M9.523,36.615a4.761,4.761,0,1,1-4.762-4.762,4.762,4.762,0,0,1,4.762,4.762" fill="#00d493"></path><path id="Path_1284-2" data-name="Path 1284" d="M26.271,36.615a4.762,4.762,0,1,1-4.762-4.762,4.762,4.762,0,0,1,4.762,4.762" fill="#00d493" opacity="0.3"></path></g></g></svg>