<svg xmlns="http://www.w3.org/2000/svg" id="Group_18" data-name="Group 18" width="188.904" height="188.904" viewBox="0 0 188.904 188.904"><path id="Path_63" data-name="Path 63" d="M188.9,94.452A94.452,94.452,0,1,1,94.452,0,94.451,94.451,0,0,1,188.9,94.452" transform="translate(0 0)" fill="#f2f2f2" opacity="0.3"></path><path id="Path_52" data-name="Path 52" d="M143.109,71.555A71.555,71.555,0,1,1,71.555,0a71.554,71.554,0,0,1,71.555,71.555" transform="translate(22.897 22.897)" fill="#f2f2f2"></path><path id="Path_53" data-name="Path 53" d="M57.83,10.959,29.044,57.686,57.83,44.28Z" transform="translate(36.623 37.911)" fill="#828384"></path><path id="Path_54" data-name="Path 54" d="M61.107,10.959,89.893,57.686,61.107,44.28Z" transform="translate(33.345 37.911)" fill="#2f3030"></path><path id="Path_55" data-name="Path 55" d="M29.044,61.48,57.83,48.073V77.746Z" transform="translate(36.623 34.118)" fill="#343535"></path><path id="Path_56" data-name="Path 56" d="M61.107,77.746,89.893,61.48,61.107,48.073" transform="translate(33.345 34.118)" fill="#131313"></path><path id="Path_57" data-name="Path 57" d="M29.044,68.853,57.83,108.039V86.3Z" transform="translate(36.623 31.994)" fill="#828485"></path><path id="Path_58" data-name="Path 58" d="M61.107,86.3,89.893,68.854,61.107,108.04" transform="translate(33.345 31.994)" fill="#303131"></path></svg>