<svg xmlns="http://www.w3.org/2000/svg" width="66.271" height="41.378" viewBox="0 0 66.271 41.378"><g id="Group_120" data-name="Group 120" transform="translate(-884 -801)"><g id="Group_81" data-name="Group 81" transform="translate(884 801)"><path id="Path_1297" data-name="Path 1297" d="M9.523,4.762A4.761,4.761,0,1,1,4.761,0,4.762,4.762,0,0,1,9.523,4.762" fill="#00d4d4"></path><path id="Path_1298" data-name="Path 1298" d="M26.271,4.762A4.762,4.762,0,1,1,21.509,0a4.762,4.762,0,0,1,4.762,4.762" fill="#00d4d4" opacity="0.3"></path><path id="Path_1299" data-name="Path 1299" d="M9.523,20.689a4.761,4.761,0,1,1-4.762-4.762,4.762,4.762,0,0,1,4.762,4.762" fill="#00d4d4"></path><path id="Path_1300" data-name="Path 1300" d="M26.271,20.689a4.762,4.762,0,1,1-4.762-4.762,4.762,4.762,0,0,1,4.762,4.762" fill="#00d4d4"></path><path id="Path_1301" data-name="Path 1301" d="M9.523,36.616a4.761,4.761,0,1,1-4.762-4.762,4.762,4.762,0,0,1,4.762,4.762" fill="#00d4d4"></path><path id="Path_1302" data-name="Path 1302" d="M26.271,36.616a4.762,4.762,0,1,1-4.762-4.762,4.762,4.762,0,0,1,4.762,4.762" fill="#00d4d4" opacity="0.3"></path></g><g id="Group_83" data-name="Group 83" transform="translate(924 801.001)"><path id="Path_1303" data-name="Path 1303" d="M9.523,4.762A4.761,4.761,0,1,1,4.761,0,4.762,4.762,0,0,1,9.523,4.762" fill="#00d4d4" opacity="0.3"></path><path id="Path_1304" data-name="Path 1304" d="M26.271,4.762A4.762,4.762,0,1,1,21.509,0a4.762,4.762,0,0,1,4.762,4.762" fill="#00d4d4"></path><path id="Path_1305" data-name="Path 1305" d="M9.523,20.689a4.761,4.761,0,1,1-4.762-4.762,4.762,4.762,0,0,1,4.762,4.762" fill="#00d4d4"></path><path id="Path_1306" data-name="Path 1306" d="M26.271,20.689a4.762,4.762,0,1,1-4.762-4.762,4.762,4.762,0,0,1,4.762,4.762" fill="#00d4d4" opacity="0.3"></path><path id="Path_1307" data-name="Path 1307" d="M9.523,36.615a4.761,4.761,0,1,1-4.762-4.762,4.762,4.762,0,0,1,4.762,4.762" fill="#00d4d4" opacity="0.3"></path><path id="Path_1308" data-name="Path 1308" d="M26.271,36.615a4.762,4.762,0,1,1-4.762-4.762,4.762,4.762,0,0,1,4.762,4.762" fill="#00d4d4" opacity="0.3"></path></g></g></svg>