<svg xmlns="http://www.w3.org/2000/svg" id="logo" width="183.745" height="49.002" viewBox="0 0 183.745 49.002"><path id="Path_1272" data-name="Path 1272" d="M40.281.113H0V11.572H40.281Z" transform="translate(0 0.085)" fill="#fff"></path><path id="Path_1273" data-name="Path 1273" d="M40.281,21.273H0V32.732H40.281Z" transform="translate(0 15.954)" fill="#fff"></path><path id="Path_1274" data-name="Path 1274" d="M94.123.293H81.416L72.639,14.272,63.857.293h-12.7L66.285,24.384l6.353,10.111L81.416,48.47H94.123L78.988,24.384Z" transform="translate(38.363 0.22)" fill="#fff"></path><path id="Path_1275" data-name="Path 1275" d="M34.83,10.7H.042V22.154H34.83Z" transform="translate(0.031 8.021)" fill="#fff"></path><path id="Path_1276" data-name="Path 1276" d="M113.639.293l-11.85,17.456L89.94.293H79.32V48.782H89.94V19.867l11.85,18.314,11.85-18.314V48.782h10.619V.293Z" transform="translate(59.486 0.22)" fill="#fff"></path><path id="Path_1277" data-name="Path 1277" d="M59.805,19.758,50.889,34.18H68.726Z" transform="translate(38.164 14.817)" fill="#32eb2f"></path><path id="Path_1278" data-name="Path 1278" d="M45.779,0h-18V11.854h18c6.13,0,11.117,5.382,11.117,12v1.185c0,6.614-4.987,12-11.117,12h-18V48.884h18c12.187,0,22.1-10.7,22.1-23.85V23.85C67.882,10.7,57.965,0,45.779,0Z" transform="translate(20.834)" fill="#fff"></path></svg>