<svg width="32" height="32" viewBox="0 0 32 32" fill="none" xmlns="http://www.w3.org/2000/svg">
<mask id="mask0_899_1191" style="mask-type:alpha" maskUnits="userSpaceOnUse" x="0" y="0" width="32" height="32">
<rect width="32" height="32" fill="#D9D9D9"/>
</mask>
<g mask="url(#mask0_899_1191)">
<path d="M21.5668 17.3334H6.66683C6.28905 17.3334 5.97238 17.2056 5.71683 16.95C5.46127 16.6945 5.3335 16.3778 5.3335 16C5.3335 15.6222 5.46127 15.3056 5.71683 15.05C5.97238 14.7945 6.28905 14.6667 6.66683 14.6667H21.5668L15.0335 8.13336C14.7668 7.86669 14.6391 7.55558 14.6502 7.20002C14.6613 6.84447 14.8002 6.53336 15.0668 6.26669C15.3335 6.02225 15.6446 5.89447 16.0002 5.88336C16.3557 5.87225 16.6668 6.00002 16.9335 6.26669L25.7335 15.0667C25.8668 15.2 25.9613 15.3445 26.0168 15.5C26.0724 15.6556 26.1002 15.8222 26.1002 16C26.1002 16.1778 26.0724 16.3445 26.0168 16.5C25.9613 16.6556 25.8668 16.8 25.7335 16.9334L16.9335 25.7334C16.6891 25.9778 16.3835 26.1 16.0168 26.1C15.6502 26.1 15.3335 25.9778 15.0668 25.7334C14.8002 25.4667 14.6668 25.15 14.6668 24.7834C14.6668 24.4167 14.8002 24.1 15.0668 23.8334L21.5668 17.3334Z" fill="black"/>
</g>
</svg>
