<svg width="32" height="32" viewBox="0 0 32 32" fill="none" xmlns="http://www.w3.org/2000/svg">
<mask id="mask0_899_1133" style="mask-type:alpha" maskUnits="userSpaceOnUse" x="0" y="0" width="32" height="32">
<rect width="32" height="32" fill="#D9D9D9"/>
</mask>
<g mask="url(#mask0_899_1133)">
<path d="M21.5668 17.3333H6.66683C6.28905 17.3333 5.97238 17.2055 5.71683 16.95C5.46127 16.6944 5.3335 16.3778 5.3335 16C5.3335 15.6222 5.46127 15.3055 5.71683 15.05C5.97238 14.7944 6.28905 14.6666 6.66683 14.6666H21.5668L15.0335 8.13331C14.7668 7.86664 14.6391 7.55553 14.6502 7.19998C14.6613 6.84442 14.8002 6.53331 15.0668 6.26664C15.3335 6.0222 15.6446 5.89442 16.0002 5.88331C16.3557 5.8722 16.6668 5.99998 16.9335 6.26664L25.7335 15.0666C25.8668 15.2 25.9613 15.3444 26.0168 15.5C26.0724 15.6555 26.1002 15.8222 26.1002 16C26.1002 16.1778 26.0724 16.3444 26.0168 16.5C25.9613 16.6555 25.8668 16.8 25.7335 16.9333L16.9335 25.7333C16.6891 25.9778 16.3835 26.1 16.0168 26.1C15.6502 26.1 15.3335 25.9778 15.0668 25.7333C14.8002 25.4666 14.6668 25.15 14.6668 24.7833C14.6668 24.4166 14.8002 24.1 15.0668 23.8333L21.5668 17.3333Z" fill="#F3F3F3"/>
</g>
</svg>
