<svg width="52" height="52" viewBox="0 0 52 52" fill="none" xmlns="http://www.w3.org/2000/svg">
<rect width="52" height="52" rx="26" fill="#18192A"/>
<mask id="mask0_878_17721" style="mask-type:alpha" maskUnits="userSpaceOnUse" x="16" y="16" width="20" height="20">
<rect x="16" y="16" width="20" height="20" fill="#D9D9D9"/>
</mask>
<g mask="url(#mask0_878_17721)">
<path d="M20.9993 31L19.0827 32.9167C18.8188 33.1806 18.5167 33.2396 18.1764 33.0938C17.8362 32.9479 17.666 32.6875 17.666 32.3125V19.3334C17.666 18.875 17.8292 18.4827 18.1556 18.1563C18.482 17.8299 18.8743 17.6667 19.3327 17.6667H32.666C33.1243 17.6667 33.5167 17.8299 33.8431 18.1563C34.1695 18.4827 34.3327 18.875 34.3327 19.3334V29.3334C34.3327 29.7917 34.1695 30.184 33.8431 30.5104C33.5167 30.8368 33.1243 31 32.666 31H20.9993Z" fill="#FCF695"/>
</g>
</svg>
