<svg width="24" height="24" viewBox="0 0 24 24" fill="none" xmlns="http://www.w3.org/2000/svg">
<g clip-path="url(#clip0_569_10267)">
<rect width="24" height="24" fill="white" fill-opacity="0.01"/>
<mask id="mask0_569_10267" style="mask-type:alpha" maskUnits="userSpaceOnUse" x="0" y="0" width="24" height="24">
<rect width="24" height="24" fill="#D9D9D9"/>
</mask>
<g mask="url(#mask0_569_10267)">
<mask id="mask1_569_10267" style="mask-type:luminance" maskUnits="userSpaceOnUse" x="0" y="0" width="24" height="24">
<path d="M24 0H0V24H24V0Z" fill="white"/>
</mask>
<g mask="url(#mask1_569_10267)">
<mask id="mask2_569_10267" style="mask-type:luminance" maskUnits="userSpaceOnUse" x="0" y="0" width="24" height="24">
<path d="M24 0H0V24H24V0Z" fill="white"/>
</mask>
<g mask="url(#mask2_569_10267)">
<path d="M23.6393 14.9029C22.0366 21.3315 15.5254 25.2439 9.09603 23.6407C2.66931 22.0381 -1.24303 15.5265 0.360359 9.09834C1.96234 2.66903 8.4735 -1.2436 14.9009 0.35908C21.3299 1.96176 25.2421 8.47391 23.6393 14.9029Z" fill="#F7931A"/>
<path d="M17.2909 10.2904C17.5298 8.69338 16.314 7.835 14.6515 7.26232L15.1908 5.09914L13.874 4.77103L13.349 6.87729C13.0028 6.79094 12.6473 6.70956 12.294 6.62894L12.8228 4.50878L11.5068 4.18066L10.9672 6.34318C10.6807 6.27794 10.3993 6.21347 10.1264 6.14556L10.1279 6.13874L8.31199 5.68531L7.9617 7.09171C7.9617 7.09171 8.93867 7.31567 8.9181 7.32941C9.45128 7.46251 9.54772 7.81552 9.53174 8.09529L8.91739 10.5597C8.9541 10.569 9.00172 10.5825 9.05425 10.6036C9.01034 10.5927 8.96359 10.5808 8.9151 10.5692L8.05399 14.0214C7.98881 14.1834 7.82338 14.4265 7.45061 14.3343C7.46381 14.3533 6.4935 14.0954 6.4935 14.0954L5.83978 15.6027L7.55338 16.0299C7.87214 16.1098 8.18452 16.1935 8.49216 16.2721L7.9473 18.4601L9.26256 18.7883L9.80218 16.6235C10.1615 16.721 10.5102 16.811 10.8516 16.8958L10.3138 19.0504L11.6306 19.3785L12.1754 17.1946C14.4209 17.6196 16.1093 17.4482 16.8199 15.4173C17.3926 13.782 16.7915 12.8389 15.6101 12.2238C16.4705 12.0254 17.1181 11.4593 17.2909 10.2904ZM14.2824 14.5091C13.8754 16.1443 11.1223 15.2604 10.2296 15.0388L10.9528 12.14C11.8453 12.3629 14.7076 12.8038 14.2824 14.5091ZM14.6896 10.2666C14.3184 11.754 12.0269 10.9984 11.2836 10.8131L11.9392 8.18409C12.6825 8.36938 15.0762 8.7152 14.6896 10.2666Z" fill="white"/>
</g>
</g>
</g>
</g>
<defs>
<clipPath id="clip0_569_10267">
<rect width="24" height="24" fill="white"/>
</clipPath>
</defs>
</svg>
