<svg width="115" height="20" viewBox="0 0 115 20" fill="none" xmlns="http://www.w3.org/2000/svg">
<path d="M9.1306 19.9956C7.46938 19.9956 5.9985 19.7112 4.72229 19.1424C3.44609 18.5736 2.4381 17.751 1.70699 16.6747C0.975873 15.5983 0.573544 14.3207 0.5 12.8375H5.67404C5.72595 13.4894 5.9163 14.0407 6.23643 14.4914C6.55656 14.942 6.98485 15.2877 7.52129 15.5196C8.05773 15.7559 8.65473 15.874 9.31663 15.874C9.81846 15.874 10.277 15.7996 10.6967 15.6552C11.1163 15.5108 11.4494 15.3052 11.7003 15.0339C11.9512 14.7626 12.0767 14.4214 12.0767 14.0057C12.0767 13.4981 11.8993 13.1087 11.5403 12.8287C11.1812 12.5487 10.6447 12.3474 9.93093 12.2205L6.74259 11.6517C5.70432 11.4329 4.76123 11.1092 3.90033 10.676C3.03943 10.2428 2.3559 9.65215 1.83677 8.89958C1.31764 8.15139 1.05807 7.21505 1.05807 6.09495C1.05807 4.84795 1.39983 3.7716 2.08768 2.87027C2.77554 1.96893 3.70133 1.26449 4.86073 0.756946C6.02013 0.249398 7.34392 0 8.82778 0C10.5236 0 11.9642 0.271275 13.1409 0.813826C14.3219 1.35638 15.2218 2.1177 15.8491 3.10217C16.472 4.08663 16.8224 5.21111 16.896 6.47561H11.696C11.6787 6.00744 11.5576 5.59177 11.3326 5.22861C11.1076 4.86546 10.7745 4.5723 10.3289 4.34916C9.88335 4.12164 9.3296 4.01225 8.66771 4.01225C8.18318 4.01225 7.73759 4.07788 7.32661 4.21352C6.91563 4.34916 6.5955 4.54168 6.36189 4.79545C6.12828 5.04922 6.01147 5.36425 6.01147 5.74491C6.01147 6.23496 6.22778 6.59374 6.66904 6.83001C7.10598 7.06629 7.69866 7.24568 8.4514 7.37257L11.3975 7.88886C12.3968 8.03325 13.3269 8.3264 14.1835 8.76832C15.0401 9.21024 15.7323 9.81842 16.26 10.5841C16.7878 11.3542 17.0517 12.343 17.0517 13.5506C17.0517 14.7583 16.7619 15.8302 16.1822 16.8147C15.6025 17.7992 14.7199 18.578 13.5432 19.1468C12.3665 19.7156 10.8913 20 9.12195 20L9.1306 19.9956Z" fill="white"/>
<path d="M24.2726 19.3104V4.83813H18.4311V0.689697H34.9828V4.83813H29.1923V19.3104H24.2726Z" fill="white"/>
<path d="M43.8535 19.3104L37.0517 0.689697H42.5594L46.3938 12.2074C46.555 12.7227 46.6988 13.1779 46.8251 13.5773C46.9515 13.9767 47.043 14.3546 47.0953 14.7067C47.1476 14.3503 47.2391 13.9767 47.3655 13.5773C47.4918 13.1779 47.6443 12.7227 47.823 12.2074L51.6269 0.689697H57.0517L50.0626 19.3104H43.8535Z" fill="white"/>
<path d="M66.6139 20C65.2386 20 63.9671 19.7769 62.7951 19.3351C61.6231 18.8933 60.6111 18.2458 59.7547 17.3972C58.8984 16.5486 58.2324 15.5031 57.761 14.2695C57.2896 13.0315 57.0517 11.6098 57.0517 10C57.0517 8.3902 57.2896 7.02537 57.761 5.7874C58.2324 4.54943 58.8984 3.49956 59.7547 2.62905C60.6111 1.75853 61.6274 1.10674 62.7951 0.664917C63.9628 0.223097 65.2386 0 66.6139 0C67.9892 0 69.265 0.231846 70.4457 0.691164C71.6264 1.15048 72.6557 1.81102 73.538 2.66842C74.4202 3.52581 75.1122 4.57568 75.6139 5.81365C76.1156 7.05162 76.3621 8.44707 76.3621 10C76.3621 11.5529 76.1112 12.979 75.6139 14.2257C75.1122 15.4724 74.4245 16.5223 73.5509 17.371C72.6773 18.2196 71.6437 18.8714 70.4587 19.322C69.2694 19.7725 67.9892 20 66.6139 20ZM66.6139 15.7743C67.2756 15.7743 67.8811 15.6518 68.4347 15.4068C68.9882 15.1619 69.4683 14.7988 69.8662 14.3088C70.2684 13.8189 70.5798 13.2152 70.8047 12.4934C71.0296 11.7717 71.1377 10.9405 71.1377 10C71.1377 8.75328 70.9474 7.70779 70.5625 6.85477C70.1776 6.00612 69.6456 5.35433 68.9666 4.90376C68.2876 4.45319 67.5005 4.22572 66.6096 4.22572C65.9306 4.22572 65.3251 4.35258 64.7888 4.6063C64.2526 4.86002 63.7941 5.22747 63.4092 5.71741C63.0243 6.20735 62.7345 6.80228 62.5399 7.50656C62.3453 8.21085 62.2458 9.042 62.2458 10C62.2458 11.2467 62.4232 12.301 62.7821 13.1584C63.1411 14.0157 63.6471 14.6675 64.3088 15.1094C64.9705 15.5512 65.736 15.7743 66.6139 15.7743Z" fill="white"/>
<path d="M78.4311 19.3104V0.689697H83.4777V15.162H92.2242V19.3104H78.4311Z" fill="white"/>
<path d="M107.851 0.0398176L97.0726 10.9012C97.018 10.9571 97.0768 11.0345 97.1778 11.0345H108.002C108.048 11.0345 108.086 11.0087 108.086 10.9786V0.0870972C108.086 0.00113428 107.922 -0.0332509 107.851 0.0398176Z" fill="#FCF695"/>
<path d="M104.184 19.2705L114.962 8.40912C115.017 8.35325 114.958 8.27588 114.857 8.27588H104.032C103.986 8.27588 103.948 8.30167 103.948 8.33175V19.2233C103.948 19.3092 104.112 19.3436 104.184 19.2705Z" fill="#FCF695"/>
</svg>
