<svg width="34" height="34" viewBox="0 0 34 34" fill="none" xmlns="http://www.w3.org/2000/svg">
<path d="M31.6214 16.5C31.6214 18.3375 30.018 20.1176 27.153 21.4605C24.3183 22.7893 20.3755 23.6214 16 23.6214C11.6245 23.6214 7.68172 22.7893 4.84697 21.4605C1.98205 20.1176 0.378571 18.3375 0.378571 16.5C0.378571 14.6625 1.98205 12.8824 4.84697 11.5395C7.68172 10.2107 11.6245 9.37857 16 9.37857C20.3755 9.37857 24.3183 10.2107 27.153 11.5395C30.018 12.8824 31.6214 14.6625 31.6214 16.5Z" stroke="white" stroke-width="0.757143"/>
<circle cx="7.5" cy="10.5" r="2.5" fill="white"/>
<circle cx="31.5" cy="16.5" r="2.5" fill="white"/>
<circle cx="15.5" cy="23.5" r="2.5" fill="white"/>
</svg>
