<svg width="17" height="16" viewBox="0 0 17 16" fill="none" xmlns="http://www.w3.org/2000/svg">
<mask id="mask0_232_9131" style="mask-type:alpha" maskUnits="userSpaceOnUse" x="0" y="0" width="17" height="16">
<rect x="0.5" width="16" height="16" fill="#D9D9D9"/>
</mask>
<g mask="url(#mask0_232_9131)">
<path d="M4.1 13.6C3.77 13.6 3.4875 13.4825 3.2525 13.2475C3.0175 13.0125 2.9 12.73 2.9 12.4V3.60002C2.9 3.27002 3.0175 2.98752 3.2525 2.75252C3.4875 2.51752 3.77 2.40002 4.1 2.40002H8.5V3.60002H4.1V12.4H12.9V8.00002H14.1V12.4C14.1 12.73 13.9825 13.0125 13.7475 13.2475C13.5125 13.4825 13.23 13.6 12.9 13.6H4.1ZM6.95 10.4L6.1 9.55002L12.05 3.60002H10.1V2.40002H14.1V6.40002H12.9V4.45002L6.95 10.4Z" fill="#F3F3F3"/>
</g>
</svg>
