<svg width="25" height="24" viewBox="0 0 25 24" fill="none" xmlns="http://www.w3.org/2000/svg">
<g clip-path="url(#clip0_906_6374)">
<path fill-rule="evenodd" clip-rule="evenodd" d="M1.9165 0C2.60686 0 3.1665 0.559644 3.1665 1.25V17.5H19.4165C20.1069 17.5 20.6665 18.0596 20.6665 18.75C20.6665 19.4404 20.1069 20 19.4165 20H1.9165C1.22615 20 0.666504 19.4404 0.666504 18.75V1.25C0.666504 0.559644 1.22615 0 1.9165 0Z" fill="#4D74FF"/>
<path fill-rule="evenodd" clip-rule="evenodd" d="M19.4671 5.36612C19.9552 5.85427 19.9552 6.64573 19.4671 7.13388L14.0504 12.5506C13.5622 13.0387 12.7708 13.0387 12.2826 12.5506L9.4165 9.68443L6.55039 12.5506C6.06223 13.0387 5.27078 13.0387 4.78262 12.5506C4.29446 12.0624 4.29446 11.2709 4.78262 10.7828L8.53262 7.03278C9.02078 6.54463 9.81223 6.54463 10.3004 7.03278L13.1665 9.8989L17.6993 5.36612C18.1874 4.87796 18.9789 4.87796 19.4671 5.36612Z" fill="#4D74FF"/>
</g>
<defs>
<clipPath id="clip0_906_6374">
<rect width="24" height="24" fill="white" transform="translate(0.666504)"/>
</clipPath>
</defs>
</svg>
