<svg width="25" height="24" viewBox="0 0 25 24" fill="none" xmlns="http://www.w3.org/2000/svg">
<g clip-path="url(#clip0_906_6373)">
<path d="M6.21899 1.61719C5.73071 1.12891 4.93774 1.12891 4.44946 1.61719L0.699463 5.36719C0.211182 5.85547 0.211182 6.64844 0.699463 7.13672C1.18774 7.625 1.98071 7.625 2.46899 7.13672L4.08618 5.51953V17.5C4.08618 18.1914 4.64477 18.75 5.33618 18.75C6.02759 18.75 6.58618 18.1914 6.58618 17.5V5.51953L8.20337 7.13672C8.69165 7.625 9.48462 7.625 9.9729 7.13672C10.4612 6.64844 10.4612 5.85547 9.9729 5.36719L6.2229 1.61719H6.21899ZM19.969 14.6367C20.4573 14.1484 20.4573 13.3555 19.969 12.8672C19.4807 12.3789 18.6877 12.3789 18.1995 12.8672L16.5862 14.4805V2.5C16.5862 1.80859 16.0276 1.25 15.3362 1.25C14.6448 1.25 14.0862 1.80859 14.0862 2.5V14.4805L12.469 12.8633C11.9807 12.375 11.1877 12.375 10.6995 12.8633C10.2112 13.3516 10.2112 14.1445 10.6995 14.6328L14.4495 18.3828C14.9377 18.8711 15.7307 18.8711 16.219 18.3828L19.969 14.6328V14.6367Z" fill="#4D74FF"/>
</g>
<defs>
<clipPath id="clip0_906_6373">
<rect width="24" height="24" fill="white" transform="translate(0.333252)"/>
</clipPath>
</defs>
</svg>
