<svg width="24" height="24" viewBox="0 0 24 24" fill="none" xmlns="http://www.w3.org/2000/svg">
<path d="M18.25 10.125C18.25 11.918 17.668 13.5742 16.6875 14.918L21.6328 19.8672C22.1211 20.3555 22.1211 21.1484 21.6328 21.6367C21.1445 22.125 20.3516 22.125 19.8633 21.6367L14.918 16.6875C13.5742 17.6719 11.918 18.25 10.125 18.25C5.63672 18.25 2 14.6133 2 10.125C2 5.63672 5.63672 2 10.125 2C14.6133 2 18.25 5.63672 18.25 10.125ZM10.125 15.75C13.2305 15.75 15.75 13.2305 15.75 10.125C15.75 7.01953 13.2305 4.5 10.125 4.5C7.01953 4.5 4.5 7.01953 4.5 10.125C4.5 13.2305 7.01953 15.75 10.125 15.75Z" fill="#4D74FF"/>
</svg>
