<svg width="1265" height="1266" viewBox="0 0 1265 1266" fill="none" xmlns="http://www.w3.org/2000/svg">
<path opacity="0.2" d="M774.456 900.328C831.375 870.229 879.176 821.793 907.903 758.849C936.628 695.911 941.901 628.072 927.35 565.358M497.039 366.359C438.958 396.347 390.121 445.303 360.949 509.219C331.797 573.094 326.8 642.018 342.166 705.51" stroke="url(#paint0_linear_1795_332)" stroke-width="1.73647"/>
<rect opacity="0.7" x="1.15035" y="-0.429367" width="950.992" height="954.28" rx="475.496" transform="matrix(0.90973 0.415201 0.415201 -0.90973 1.17469 869.054)" stroke="url(#paint1_linear_1795_332)" stroke-width="1.73647"/>
<rect opacity="0.4" x="1.15035" y="-0.429367" width="764.414" height="767.058" rx="382.207" transform="matrix(0.90973 0.415201 0.415201 -0.90973 124.905 822.601)" stroke="url(#paint2_linear_1795_332)" stroke-width="1.73647"/>
<rect opacity="0.3" x="1.15035" y="-0.429367" width="740.372" height="742.933" rx="370.186" transform="matrix(0.90973 0.415201 0.415201 -0.90973 140.87 816.64)" stroke="url(#paint3_linear_1795_332)" stroke-width="1.73647"/>
<rect opacity="0.1" x="1.15035" y="-0.429367" width="582.076" height="584.091" rx="291.038" transform="matrix(0.90973 0.415201 0.415201 -0.90973 247.194 777.874)" stroke="url(#paint4_linear_1795_332)" stroke-width="1.73647"/>
<rect opacity="0.5" x="1.15035" y="-0.429367" width="926.522" height="929.725" rx="463.261" transform="matrix(0.90973 0.415201 0.415201 -0.90973 17.4091 862.976)" stroke="url(#paint5_linear_1795_332)" stroke-width="1.73647"/>
<path d="M467.186 546.13C414.498 637.388 445.436 754.648 536.693 807.336C627.951 860.023 744.97 828.186 797.658 736.929C850.345 645.671 819.407 528.411 728.15 475.723C636.893 423.036 519.873 454.873 467.186 546.13Z" fill="url(#paint6_linear_1795_332)"/>
<path fill-rule="evenodd" clip-rule="evenodd" d="M815.026 698.326H794.583C771.818 766.044 707.82 814.823 632.431 814.823C557.041 814.823 493.044 766.044 470.278 698.326H449.247C449.301 698.506 449.356 698.686 449.411 698.865C473.356 777.052 546.106 833.909 632.137 833.909C718.167 833.909 790.917 777.052 814.862 698.865C814.917 698.686 814.972 698.506 815.026 698.326ZM814.298 698.865H794.97C772.025 766.605 707.922 815.362 632.431 815.362C556.939 815.362 492.836 766.605 469.891 698.865H449.975C473.902 776.751 546.408 833.37 632.137 833.37C717.865 833.37 790.371 776.751 814.298 698.865ZM465.231 679.963C465.193 679.783 465.154 679.603 465.116 679.424C463.253 670.634 462.066 661.595 461.61 652.364H441.298C441.307 652.543 441.316 652.723 441.325 652.903C441.803 662.11 442.933 671.145 444.669 679.963H465.231ZM441.865 652.903C442.335 661.924 443.432 670.778 445.113 679.424H464.565C462.745 670.804 461.571 661.946 461.098 652.903H441.865ZM461.166 633.461C461.703 624.414 462.941 615.556 464.827 606.94H444.98C443.332 615.587 442.268 624.441 441.831 633.461H461.166ZM461.675 634C462.196 624.765 463.45 615.726 465.379 606.94C465.419 606.76 465.458 606.581 465.498 606.401H444.535C442.832 615.22 441.736 624.255 441.291 633.461C441.282 633.64 441.274 633.82 441.266 634H461.675ZM449.04 588.037H470.692C493.813 520.953 557.494 472.76 632.431 472.76C707.367 472.76 771.048 520.953 794.169 588.037H815.234C815.18 587.857 815.126 587.678 815.072 587.498C791.344 508.956 718.419 451.766 632.137 451.766C545.854 451.766 472.929 508.956 449.201 587.498C449.147 587.678 449.093 587.857 449.04 588.037ZM449.765 587.498C473.475 509.258 546.155 452.305 632.137 452.305C718.118 452.305 790.798 509.258 814.508 587.498H794.552C771.255 520.393 707.469 472.221 632.431 472.221C557.392 472.221 493.606 520.393 470.309 587.498H449.765ZM822.975 652.364H803.251C802.795 661.595 801.608 670.634 799.745 679.424C799.707 679.603 799.669 679.783 799.63 679.963H819.604C821.34 671.145 822.47 662.11 822.948 652.903C822.957 652.723 822.966 652.543 822.975 652.364ZM822.408 652.903C821.938 661.924 820.842 670.778 819.16 679.424H800.296C802.117 670.804 803.29 661.946 803.763 652.903H822.408ZM803.187 634C802.665 624.765 801.411 615.726 799.482 606.94C799.443 606.76 799.403 606.581 799.363 606.401H819.738C821.441 615.22 822.537 624.255 822.982 633.461C822.991 633.64 822.999 633.82 823.007 634H803.187ZM819.293 606.94C820.941 615.587 822.005 624.441 822.443 633.461H803.695C803.158 624.414 801.92 615.556 800.034 606.94H819.293Z" fill="url(#paint7_linear_1795_332)"/>
<path fill-rule="evenodd" clip-rule="evenodd" d="M630.983 515.227C639.595 515.227 646.577 522.208 646.577 530.821V556.811H658.706C658.93 556.811 659.154 556.816 659.378 556.825C670.781 557.318 681.775 561.211 690.946 568.004C700.117 574.798 707.045 584.18 710.839 594.944C713.702 603.067 709.438 611.972 701.315 614.835C693.192 617.698 684.287 613.434 681.424 605.311C679.7 600.418 676.551 596.154 672.382 593.066C668.293 590.037 663.407 588.276 658.33 587.999H603.26C596.367 587.999 589.757 590.737 584.882 595.611C580.008 600.485 577.27 607.096 577.27 613.989C577.27 620.882 580.008 627.493 584.882 632.367C589.757 637.241 596.367 639.979 603.26 639.979H658.706C673.87 639.979 688.414 646.003 699.137 656.726C709.86 667.449 715.884 681.993 715.884 697.157C715.884 712.322 709.86 726.865 699.137 737.588C688.414 748.311 673.87 754.335 658.706 754.335H646.577V780.325C646.577 788.938 639.595 795.919 630.983 795.919C622.371 795.919 615.389 788.938 615.389 780.325V754.335H603.26C603.036 754.335 602.812 754.33 602.588 754.321C591.185 753.828 580.191 749.935 571.02 743.142C561.849 736.348 554.921 726.966 551.127 716.202C548.264 708.079 552.528 699.174 560.651 696.311C568.774 693.448 577.679 697.712 580.542 705.835C582.266 710.728 585.415 714.992 589.584 718.08C593.673 721.109 598.559 722.87 603.636 723.147H658.706C665.599 723.147 672.209 720.409 677.084 715.535C681.958 710.661 684.696 704.05 684.696 697.157C684.696 690.264 681.958 683.653 677.084 678.779C672.209 673.905 665.599 671.167 658.706 671.167H603.26C588.096 671.167 573.552 665.143 562.829 654.42C552.106 643.697 546.082 629.153 546.082 613.989C546.082 598.824 552.106 584.281 562.829 573.558C573.552 562.835 588.096 556.811 603.26 556.811H615.389V530.821C615.389 522.208 622.371 515.227 630.983 515.227Z" fill="url(#paint8_linear_1795_332)" fill-opacity="0.1" stroke="url(#paint9_linear_1795_332)" stroke-width="0.53898" stroke-linecap="round" stroke-linejoin="round"/>
<ellipse cx="630.137" cy="643.839" rx="198.567" ry="197.284" fill="#080808"/>
<mask id="path-11-inside-1_1795_332" fill="white">
<path fill-rule="evenodd" clip-rule="evenodd" d="M630.684 823.687C713.02 823.687 782.577 768.967 804.97 693.909H784.991C763.225 758.185 702.403 804.448 630.776 804.448C559.148 804.448 498.327 758.185 476.561 693.909H456.397C478.79 768.967 548.347 823.687 630.684 823.687ZM452.119 676.431H471.717C469.863 667.906 468.676 659.131 468.215 650.164H449.02C449.422 659.103 450.471 667.874 452.119 676.431ZM449.058 632.687H468.241C468.729 623.719 469.943 614.944 471.824 606.42H452.279C450.59 614.975 449.501 623.746 449.058 632.687ZM456.644 588.942C479.298 514.306 548.647 459.984 630.684 459.984C712.72 459.984 782.069 514.306 804.723 588.942H784.824C762.917 524.92 702.221 478.891 630.776 478.891C559.33 478.891 498.635 524.92 476.727 588.942H456.644ZM812.348 650.164C811.945 659.103 810.896 667.874 809.248 676.431H789.834C791.689 667.906 792.875 659.131 793.336 650.164H812.348ZM812.309 632.687H793.31C792.823 623.719 791.609 614.944 789.727 606.42H809.088C810.777 614.975 811.866 623.746 812.309 632.687Z"/>
</mask>
<path d="M804.97 693.909L828.706 700.991L838.209 669.139H804.97V693.909ZM784.991 693.909V669.139H767.227L761.529 685.965L784.991 693.909ZM476.561 693.909L500.022 685.965L494.325 669.139H476.561V693.909ZM456.397 693.909V669.139H423.159L432.661 700.991L456.397 693.909ZM452.119 676.431L427.796 681.116L431.664 701.201H452.119V676.431ZM471.717 676.431V701.201H502.455L495.921 671.166L471.717 676.431ZM468.215 650.164L492.953 648.893L491.745 625.394H468.215V650.164ZM449.02 650.164V625.394H423.108L424.275 651.28L449.02 650.164ZM468.241 632.687V657.457H491.7L492.975 634.032L468.241 632.687ZM449.058 632.687L424.319 631.461L423.031 657.457H449.058V632.687ZM471.824 606.42L496.012 611.76L502.659 581.65H471.824V606.42ZM452.279 606.42V581.65H431.92L427.978 601.623L452.279 606.42ZM456.644 588.942L432.942 581.748L423.24 613.712H456.644V588.942ZM804.723 588.942V613.712H838.127L828.425 581.748L804.723 588.942ZM784.824 588.942L761.389 596.961L767.12 613.712H784.824V588.942ZM476.727 588.942V613.712H494.431L500.163 596.961L476.727 588.942ZM809.248 676.431V701.201H829.703L833.571 681.116L809.248 676.431ZM812.348 650.164L837.093 651.28L838.259 625.394H812.348V650.164ZM789.834 676.431L765.63 671.166L759.097 701.201H789.834V676.431ZM793.336 650.164V625.394H769.807L768.599 648.893L793.336 650.164ZM793.31 632.687L768.577 634.032L769.851 657.457H793.31V632.687ZM812.309 632.687V657.457H838.337L837.049 631.461L812.309 632.687ZM789.727 606.42V581.65H758.892L765.54 611.76L789.727 606.42ZM809.088 606.42L833.389 601.623L829.447 581.65H809.088V606.42ZM781.234 686.828C761.885 751.68 701.769 798.917 630.684 798.917V848.457C724.272 848.457 803.268 786.254 828.706 700.991L781.234 686.828ZM784.991 718.679H804.97V669.139H784.991V718.679ZM630.776 829.218C713.341 829.218 783.384 775.881 808.452 701.854L761.529 685.965C743.066 740.489 691.465 779.678 630.776 779.678V829.218ZM453.1 701.854C478.167 775.881 548.211 829.218 630.776 829.218V779.678C570.086 779.678 518.486 740.489 500.022 685.965L453.1 701.854ZM476.561 669.139H456.397V718.679H476.561V669.139ZM630.684 798.917C559.599 798.917 499.482 751.68 480.134 686.828L432.661 700.991C458.099 786.254 537.095 848.457 630.684 848.457V798.917ZM452.119 701.201H471.717V651.661H452.119V701.201ZM443.478 651.436C444.008 661.754 445.375 671.864 447.513 681.697L495.921 671.166C494.351 663.948 493.344 656.508 492.953 648.893L443.478 651.436ZM449.02 674.934H468.215V625.394H449.02V674.934ZM476.442 671.747C475.02 664.362 474.113 656.784 473.764 649.049L424.275 651.28C424.732 661.423 425.922 671.386 427.796 681.116L476.442 671.747ZM468.241 607.917H449.058V657.457H468.241V607.917ZM447.637 601.08C445.467 610.911 444.069 621.021 443.508 631.341L492.975 634.032C493.389 626.416 494.419 618.977 496.012 611.76L447.637 601.08ZM452.279 631.19H471.824V581.65H452.279V631.19ZM473.798 633.913C474.181 626.177 475.123 618.599 476.58 611.217L427.978 601.623C426.058 611.351 424.821 621.315 424.319 631.461L473.798 633.913ZM480.347 596.136C499.921 531.647 559.858 484.754 630.684 484.754V435.214C537.436 435.214 458.676 496.965 432.942 581.748L480.347 596.136ZM630.684 484.754C701.509 484.754 761.447 531.647 781.021 596.136L828.425 581.748C802.692 496.965 723.931 435.214 630.684 435.214V484.754ZM804.723 564.172H784.824V613.712H804.723V564.172ZM808.26 580.922C783.029 507.189 713.132 454.121 630.776 454.121V503.661C691.311 503.661 742.804 542.652 761.389 596.961L808.26 580.922ZM630.776 454.121C548.42 454.121 478.523 507.189 453.291 580.922L500.163 596.961C518.748 542.652 570.24 503.661 630.776 503.661V454.121ZM476.727 564.172H456.644V613.712H476.727V564.172ZM833.571 681.116C835.445 671.386 836.635 661.423 837.093 651.28L787.603 649.049C787.254 656.784 786.348 664.362 784.925 671.747L833.571 681.116ZM789.834 701.201H809.248V651.661H789.834V701.201ZM768.599 648.893C768.207 656.508 767.2 663.948 765.63 671.166L814.038 681.697C816.177 671.864 817.543 661.754 818.074 651.436L768.599 648.893ZM812.348 625.394H793.336V674.934H812.348V625.394ZM793.31 657.457H812.309V607.917H793.31V657.457ZM765.54 611.76C767.133 618.977 768.163 626.416 768.577 634.032L818.044 631.341C817.483 621.021 816.085 610.911 813.915 601.08L765.54 611.76ZM809.088 581.65H789.727V631.19H809.088V581.65ZM837.049 631.461C836.546 621.315 835.31 611.351 833.389 601.623L784.787 611.217C786.245 618.599 787.186 626.177 787.569 633.913L837.049 631.461Z" fill="url(#paint10_linear_1795_332)" mask="url(#path-11-inside-1_1795_332)"/>
<path fill-rule="evenodd" clip-rule="evenodd" d="M630.782 554.727C636.133 554.727 640.47 559.064 640.47 564.415V580.563H648.006C648.145 580.563 648.285 580.566 648.424 580.572C655.508 580.878 662.339 583.296 668.037 587.517C673.735 591.738 678.039 597.567 680.396 604.255C682.175 609.301 679.526 614.834 674.479 616.613C669.432 618.391 663.899 615.742 662.121 610.696C661.049 607.656 659.093 605.006 656.503 603.088C653.962 601.206 650.927 600.112 647.772 599.94H613.558C609.275 599.94 605.168 601.641 602.14 604.669C599.112 607.697 597.41 611.805 597.41 616.087C597.41 620.37 599.112 624.477 602.14 627.505C605.168 630.534 609.275 632.235 613.558 632.235H648.006C657.428 632.235 666.464 635.978 673.126 642.64C679.788 649.302 683.531 658.338 683.531 667.759C683.531 677.181 679.788 686.217 673.126 692.879C666.464 699.541 657.428 703.284 648.006 703.284H640.47V719.432C640.47 724.782 636.133 729.12 630.782 729.12C625.431 729.12 621.093 724.782 621.093 719.432V703.284H613.558C613.418 703.284 613.279 703.281 613.14 703.275C606.056 702.969 599.225 700.55 593.527 696.33C587.829 692.109 583.525 686.28 581.168 679.592C579.389 674.545 582.038 669.012 587.085 667.234C592.131 665.455 597.664 668.104 599.443 673.151C600.514 676.191 602.471 678.84 605.061 680.759C607.601 682.641 610.637 683.735 613.791 683.907H648.006C652.289 683.907 656.396 682.206 659.424 679.177C662.452 676.149 664.154 672.042 664.154 667.759C664.154 663.477 662.452 659.37 659.424 656.341C656.396 653.313 652.289 651.612 648.006 651.612H613.558C604.136 651.612 595.1 647.869 588.438 641.207C581.776 634.545 578.033 625.509 578.033 616.087C578.033 606.666 581.776 597.63 588.438 590.968C595.1 584.305 604.136 580.563 613.558 580.563H621.093V564.415C621.093 559.064 625.431 554.727 630.782 554.727Z" fill="url(#paint11_linear_1795_332)"/>
<mask id="mask0_1795_332" style="mask-type:alpha" maskUnits="userSpaceOnUse" x="449" y="459" width="364" height="365">
<path d="M630.78 823.172C713.119 823.172 782.676 768.449 805.067 693.388H785.085C763.319 757.663 702.498 803.925 630.871 803.925C559.244 803.925 498.423 757.663 476.657 693.388H456.492C478.883 768.449 548.441 823.172 630.78 823.172Z" fill="url(#paint12_linear_1795_332)"/>
<path d="M452.214 675.91H471.813C469.958 667.385 468.772 658.61 468.311 649.643H449.115C449.518 658.582 450.566 667.353 452.214 675.91Z" fill="url(#paint13_linear_1795_332)"/>
<path d="M449.155 632.165H468.336C468.824 623.197 470.038 614.422 471.919 605.898H452.376C450.687 614.454 449.598 623.224 449.155 632.165Z" fill="url(#paint14_linear_1795_332)"/>
<path d="M456.742 588.42C479.398 513.788 548.745 459.469 630.78 459.469C712.814 459.469 782.161 513.788 804.817 588.42H784.92C763.013 524.398 702.317 478.368 630.871 478.368C559.425 478.368 498.729 524.398 476.822 588.42H456.742Z" fill="url(#paint15_linear_1795_332)"/>
<path d="M812.444 649.643C812.041 658.582 810.993 667.353 809.345 675.91H789.929C791.784 667.385 792.97 658.61 793.432 649.643H812.444Z" fill="url(#paint16_linear_1795_332)"/>
<path d="M812.405 632.165H793.406C792.918 623.197 791.705 614.422 789.823 605.898H809.183C810.872 614.454 811.961 623.224 812.405 632.165Z" fill="url(#paint17_linear_1795_332)"/>
<path d="M670.053 500.307C661.582 497.948 652.801 496.331 643.786 495.531V499.296C652.811 500.118 661.593 501.781 670.053 504.205V500.307Z" fill="url(#paint18_linear_1795_332)"/>
<path d="M687.531 510.478C738.068 532.452 773.406 582.821 773.406 641.444C773.406 700.066 738.068 750.435 687.531 772.409V776.489C740.191 754.287 777.156 702.182 777.156 641.444C777.156 580.705 740.191 528.6 687.531 506.398V510.478Z" fill="url(#paint19_linear_1795_332)"/>
<path d="M626.308 498.766V495.014C617.326 495.277 608.547 496.347 600.041 498.156V501.993C608.539 500.136 617.319 499.035 626.308 498.766Z" fill="url(#paint20_linear_1795_332)"/>
<path d="M582.563 507.008V503.03C525.285 522.933 484.171 577.387 484.171 641.444C484.171 705.5 525.285 759.954 582.563 779.857V775.88C527.394 756.138 487.921 703.401 487.921 641.444C487.921 579.487 527.394 526.749 582.563 507.008Z" fill="url(#paint21_linear_1795_332)"/>
<path d="M643.786 787.357V783.591C652.811 782.769 661.593 781.106 670.053 778.682V782.58C661.582 784.939 652.801 786.556 643.786 787.357Z" fill="url(#paint22_linear_1795_332)"/>
<path d="M626.308 787.873C617.326 787.611 608.547 786.54 600.041 784.731V780.894C608.539 782.751 617.319 783.852 626.308 784.121V787.873Z" fill="url(#paint23_linear_1795_332)"/>
<path fill-rule="evenodd" clip-rule="evenodd" d="M630.875 554.207C636.226 554.207 640.564 558.545 640.564 563.896V580.043H648.099C648.239 580.043 648.378 580.046 648.517 580.052C655.602 580.358 662.432 582.777 668.13 586.998C673.828 591.218 678.132 597.048 680.489 603.735C682.268 608.782 679.619 614.315 674.572 616.093C669.526 617.872 663.993 615.223 662.214 610.176C661.143 607.136 659.186 604.487 656.596 602.568C654.056 600.686 651.02 599.593 647.866 599.42H613.651C609.369 599.42 605.261 601.122 602.233 604.15C599.205 607.178 597.504 611.285 597.504 615.568C597.504 619.85 599.205 623.958 602.233 626.986C605.261 630.014 609.369 631.715 613.651 631.715H648.099C657.521 631.715 666.557 635.458 673.219 642.12C679.881 648.783 683.624 657.818 683.624 667.24C683.624 676.662 679.881 685.698 673.219 692.36C666.557 699.022 657.521 702.765 648.099 702.765H640.564V718.912C640.564 724.263 636.226 728.601 630.875 728.601C625.524 728.601 621.187 724.263 621.187 718.912V702.765H613.651C613.512 702.765 613.372 702.762 613.233 702.756C606.149 702.45 599.318 700.031 593.62 695.81C587.923 691.589 583.618 685.76 581.261 679.073C579.482 674.026 582.132 668.493 587.178 666.714C592.225 664.936 597.758 667.585 599.536 672.632C600.608 675.671 602.564 678.321 605.154 680.24C607.695 682.121 610.731 683.215 613.885 683.388H648.099C652.382 683.388 656.489 681.686 659.517 678.658C662.546 675.63 664.247 671.523 664.247 667.24C664.247 662.957 662.546 658.85 659.517 655.822C656.489 652.794 652.382 651.092 648.099 651.092H613.651C604.229 651.092 595.194 647.35 588.531 640.688C581.869 634.025 578.127 624.99 578.127 615.568C578.127 606.146 581.869 597.11 588.531 590.448C595.194 583.786 604.229 580.043 613.651 580.043H621.187V563.896C621.187 558.545 625.524 554.207 630.875 554.207Z" fill="url(#paint24_linear_1795_332)"/>
</mask>
<g mask="url(#mask0_1795_332)">
<ellipse cx="652.556" cy="650.001" rx="456.479" ry="95.0486" transform="rotate(22.2195 652.556 650.001)" fill="url(#paint25_linear_1795_332)"/>
<g opacity="0.3" filter="url(#filter0_f_1795_332)">
<ellipse cx="496.615" cy="533.443" rx="65.0505" ry="63.9584" fill="white"/>
</g>
<g opacity="0.3" filter="url(#filter1_f_1795_332)">
<ellipse cx="757.441" cy="737.013" rx="65.0505" ry="63.9584" fill="white"/>
</g>
</g>
<rect opacity="0.2" x="344.63" y="579.403" width="413.321" height="414.751" rx="206.66" transform="rotate(-32.7935 344.63 579.403)" stroke="url(#paint26_radial_1795_332)" stroke-width="1.07796"/>
<rect opacity="0.2" x="916.712" y="704.198" width="413.321" height="414.751" rx="206.66" transform="rotate(147.207 916.712 704.198)" stroke="url(#paint27_radial_1795_332)" stroke-width="1.07796"/>
<defs>
<filter id="filter0_f_1795_332" x="406.794" y="444.714" width="179.643" height="177.456" filterUnits="userSpaceOnUse" color-interpolation-filters="sRGB">
<feFlood flood-opacity="0" result="BackgroundImageFix"/>
<feBlend mode="normal" in="SourceGraphic" in2="BackgroundImageFix" result="shape"/>
<feGaussianBlur stdDeviation="12.3854" result="effect1_foregroundBlur_1795_332"/>
</filter>
<filter id="filter1_f_1795_332" x="667.62" y="648.284" width="179.643" height="177.456" filterUnits="userSpaceOnUse" color-interpolation-filters="sRGB">
<feFlood flood-opacity="0" result="BackgroundImageFix"/>
<feBlend mode="normal" in="SourceGraphic" in2="BackgroundImageFix" result="shape"/>
<feGaussianBlur stdDeviation="12.3854" result="effect1_foregroundBlur_1795_332"/>
</filter>
<linearGradient id="paint0_linear_1795_332" x1="557.045" y1="803.581" x2="711.848" y2="464.398" gradientUnits="userSpaceOnUse">
<stop offset="0.2" stop-color="#FFF0DE" stop-opacity="0"/>
<stop offset="0.5" stop-color="#FFF0DE"/>
<stop offset="0.86" stop-color="#FFF0DE" stop-opacity="0"/>
</linearGradient>
<linearGradient id="paint1_linear_1795_332" x1="476.364" y1="0" x2="476.364" y2="956.016" gradientUnits="userSpaceOnUse">
<stop offset="0.2" stop-color="#FFF0DE" stop-opacity="0"/>
<stop offset="0.5" stop-color="#FFF0DE"/>
<stop offset="0.86" stop-color="#FFF0DE" stop-opacity="0"/>
</linearGradient>
<linearGradient id="paint2_linear_1795_332" x1="383.075" y1="0" x2="383.075" y2="768.795" gradientUnits="userSpaceOnUse">
<stop offset="0.2" stop-color="#FFF0DE" stop-opacity="0"/>
<stop offset="0.5" stop-color="#FFF0DE"/>
<stop offset="0.86" stop-color="#FFF0DE" stop-opacity="0"/>
</linearGradient>
<linearGradient id="paint3_linear_1795_332" x1="371.054" y1="0" x2="371.054" y2="744.67" gradientUnits="userSpaceOnUse">
<stop offset="0.39" stop-color="#FFF0DE" stop-opacity="0"/>
<stop offset="0.5" stop-color="#FFF0DE"/>
<stop offset="0.625" stop-color="#FFF0DE" stop-opacity="0"/>
</linearGradient>
<linearGradient id="paint4_linear_1795_332" x1="291.906" y1="0" x2="291.906" y2="585.828" gradientUnits="userSpaceOnUse">
<stop offset="0.39" stop-color="#FFF0DE" stop-opacity="0"/>
<stop offset="0.5" stop-color="#FFF0DE"/>
<stop offset="0.625" stop-color="#FFF0DE" stop-opacity="0"/>
</linearGradient>
<linearGradient id="paint5_linear_1795_332" x1="464.129" y1="0" x2="464.129" y2="931.462" gradientUnits="userSpaceOnUse">
<stop offset="0.39" stop-color="#FFF0DE" stop-opacity="0"/>
<stop offset="0.5" stop-color="#FFF0DE"/>
<stop offset="0.625" stop-color="#FFF0DE" stop-opacity="0"/>
</linearGradient>
<linearGradient id="paint6_linear_1795_332" x1="536.691" y1="807.329" x2="728.148" y2="475.716" gradientUnits="userSpaceOnUse">
<stop stop-color="#41AAE7" stop-opacity="0"/>
<stop offset="1" stop-color="#CFEDFF" stop-opacity="0.08"/>
</linearGradient>
<linearGradient id="paint7_linear_1795_332" x1="643.303" y1="392.808" x2="653.189" y2="810.185" gradientUnits="userSpaceOnUse">
<stop stop-color="#B3E3FF"/>
<stop offset="1" stop-color="#B3E3FF" stop-opacity="0"/>
</linearGradient>
<linearGradient id="paint8_linear_1795_332" x1="602.578" y1="515.227" x2="611.561" y2="779.951" gradientUnits="userSpaceOnUse">
<stop stop-color="#CFEDFF"/>
<stop offset="1" stop-color="white" stop-opacity="0"/>
</linearGradient>
<linearGradient id="paint9_linear_1795_332" x1="663.612" y1="527.18" x2="555.372" y2="795.919" gradientUnits="userSpaceOnUse">
<stop stop-color="#C3E0F0"/>
<stop offset="0.904528" stop-color="#EAF7FF" stop-opacity="0"/>
</linearGradient>
<linearGradient id="paint10_linear_1795_332" x1="630.684" y1="444.402" x2="630.684" y2="823.687" gradientUnits="userSpaceOnUse">
<stop stop-color="#8DB3CA"/>
<stop offset="1" stop-color="#36596D"/>
</linearGradient>
<linearGradient id="paint11_linear_1795_332" x1="630.782" y1="554.727" x2="674.083" y2="722.187" gradientUnits="userSpaceOnUse">
<stop stop-color="#C6E4F5"/>
<stop offset="1" stop-color="#6C808B"/>
</linearGradient>
<linearGradient id="paint12_linear_1795_332" x1="630.662" y1="495.015" x2="676.452" y2="787.873" gradientUnits="userSpaceOnUse">
<stop stop-color="#84AAC0"/>
<stop offset="1" stop-color="#547D95"/>
</linearGradient>
<linearGradient id="paint13_linear_1795_332" x1="630.662" y1="495.015" x2="676.452" y2="787.873" gradientUnits="userSpaceOnUse">
<stop stop-color="#84AAC0"/>
<stop offset="1" stop-color="#547D95"/>
</linearGradient>
<linearGradient id="paint14_linear_1795_332" x1="630.662" y1="495.015" x2="676.452" y2="787.873" gradientUnits="userSpaceOnUse">
<stop stop-color="#84AAC0"/>
<stop offset="1" stop-color="#547D95"/>
</linearGradient>
<linearGradient id="paint15_linear_1795_332" x1="630.662" y1="495.015" x2="676.452" y2="787.873" gradientUnits="userSpaceOnUse">
<stop stop-color="#84AAC0"/>
<stop offset="1" stop-color="#547D95"/>
</linearGradient>
<linearGradient id="paint16_linear_1795_332" x1="630.662" y1="495.015" x2="676.452" y2="787.873" gradientUnits="userSpaceOnUse">
<stop stop-color="#84AAC0"/>
<stop offset="1" stop-color="#547D95"/>
</linearGradient>
<linearGradient id="paint17_linear_1795_332" x1="630.662" y1="495.015" x2="676.452" y2="787.873" gradientUnits="userSpaceOnUse">
<stop stop-color="#84AAC0"/>
<stop offset="1" stop-color="#547D95"/>
</linearGradient>
<linearGradient id="paint18_linear_1795_332" x1="630.662" y1="495.015" x2="676.452" y2="787.873" gradientUnits="userSpaceOnUse">
<stop stop-color="#84AAC0"/>
<stop offset="1" stop-color="#547D95"/>
</linearGradient>
<linearGradient id="paint19_linear_1795_332" x1="630.662" y1="495.015" x2="676.452" y2="787.873" gradientUnits="userSpaceOnUse">
<stop stop-color="#84AAC0"/>
<stop offset="1" stop-color="#547D95"/>
</linearGradient>
<linearGradient id="paint20_linear_1795_332" x1="630.662" y1="495.015" x2="676.452" y2="787.873" gradientUnits="userSpaceOnUse">
<stop stop-color="#84AAC0"/>
<stop offset="1" stop-color="#547D95"/>
</linearGradient>
<linearGradient id="paint21_linear_1795_332" x1="630.662" y1="495.015" x2="676.452" y2="787.873" gradientUnits="userSpaceOnUse">
<stop stop-color="#84AAC0"/>
<stop offset="1" stop-color="#547D95"/>
</linearGradient>
<linearGradient id="paint22_linear_1795_332" x1="630.662" y1="495.015" x2="676.452" y2="787.873" gradientUnits="userSpaceOnUse">
<stop stop-color="#84AAC0"/>
<stop offset="1" stop-color="#547D95"/>
</linearGradient>
<linearGradient id="paint23_linear_1795_332" x1="630.662" y1="495.015" x2="676.452" y2="787.873" gradientUnits="userSpaceOnUse">
<stop stop-color="#84AAC0"/>
<stop offset="1" stop-color="#547D95"/>
</linearGradient>
<linearGradient id="paint24_linear_1795_332" x1="630.875" y1="554.207" x2="674.176" y2="721.668" gradientUnits="userSpaceOnUse">
<stop stop-color="#C6E4F5"/>
<stop offset="1" stop-color="#6C808B"/>
</linearGradient>
<linearGradient id="paint25_linear_1795_332" x1="678.825" y1="547.284" x2="672.075" y2="742.639" gradientUnits="userSpaceOnUse">
<stop offset="0.163016" stop-color="white" stop-opacity="0"/>
<stop offset="0.465" stop-color="white"/>
<stop offset="1" stop-color="white" stop-opacity="0"/>
</linearGradient>
<radialGradient id="paint26_radial_1795_332" cx="0" cy="0" r="1" gradientUnits="userSpaceOnUse" gradientTransform="translate(775.74 1111.33) rotate(-117.579) scale(562.845 560.909)">
<stop stop-color="#FFF0DE" stop-opacity="0"/>
<stop offset="0.430533" stop-color="white"/>
<stop offset="0.703578" stop-color="#FFF0DE" stop-opacity="0"/>
</radialGradient>
<radialGradient id="paint27_radial_1795_332" cx="0" cy="0" r="1" gradientUnits="userSpaceOnUse" gradientTransform="translate(1349.31 1236.44) rotate(-117.579) scale(562.845 560.909)">
<stop stop-color="#FFF0DE" stop-opacity="0"/>
<stop offset="0.430533" stop-color="white"/>
<stop offset="0.703578" stop-color="#FFF0DE" stop-opacity="0"/>
</radialGradient>
</defs>
</svg>
