<svg width="96" height="96" viewBox="0 0 96 96" fill="none" xmlns="http://www.w3.org/2000/svg">
<g clip-path="url(#clip0_1078_22)">
<path d="M96 0H0V96H96V0Z" fill="black"/>
<mask id="mask0_1078_22" style="mask-type:alpha" maskUnits="userSpaceOnUse" x="0" y="0" width="96" height="96">
<path d="M96 0H0V96H96V0Z" fill="#04051A"/>
</mask>
<g mask="url(#mask0_1078_22)">
<g filter="url(#filter0_f_1078_22)">
<path d="M78 59C100.644 59 119 40.6437 119 18C119 -4.64367 100.644 -23 78 -23C55.3563 -23 37 -4.64367 37 18C37 40.6437 55.3563 59 78 59Z" fill="#410E0E"/>
</g>
<g filter="url(#filter1_f_1078_22)">
<path d="M12 46C40.7188 46 64 22.7188 64 -6C64 -34.7188 40.7188 -58 12 -58C-16.7188 -58 -40 -34.7188 -40 -6C-40 22.7188 -16.7188 46 12 46Z" fill="#8C3B4A"/>
</g>
<g filter="url(#filter2_f_1078_22)">
<path d="M54 128C68.3594 128 80 116.359 80 102C80 87.6406 68.3594 76 54 76C39.6406 76 28 87.6406 28 102C28 116.359 39.6406 128 54 128Z" fill="#83FDF6"/>
</g>
<g filter="url(#filter3_f_1078_22)">
<path d="M-7 92C4.59798 92 14 82.598 14 71C14 59.402 4.59798 50 -7 50C-18.598 50 -28 59.402 -28 71C-28 82.598 -18.598 92 -7 92Z" fill="#00AFC8"/>
</g>
</g>
<path d="M40.8182 43.5909C40.5682 42.8258 40.2386 42.1402 39.8295 41.5341C39.428 40.9205 38.947 40.3977 38.3864 39.9659C37.8333 39.5341 37.2045 39.2045 36.5 38.9773C35.7955 38.75 35.0227 38.6364 34.1818 38.6364C32.803 38.6364 31.5492 38.9924 30.4205 39.7045C29.2917 40.4167 28.3939 41.4659 27.7273 42.8523C27.0606 44.2386 26.7273 45.9394 26.7273 47.9545C26.7273 49.9697 27.0644 51.6705 27.7386 53.0568C28.4129 54.4432 29.3258 55.4924 30.4773 56.2045C31.6288 56.9167 32.9242 57.2727 34.3636 57.2727C35.697 57.2727 36.8712 56.9886 37.8864 56.4205C38.9091 55.8447 39.7045 55.0341 40.2727 53.9886C40.8485 52.9356 41.1364 51.697 41.1364 50.2727L42 50.4545H35V47.9545H43.8636V50.4545C43.8636 52.3712 43.4545 54.0379 42.6364 55.4545C41.8258 56.8712 40.7045 57.9697 39.2727 58.75C37.8485 59.5227 36.2121 59.9091 34.3636 59.9091C32.303 59.9091 30.4924 59.4242 28.9318 58.4545C27.3788 57.4848 26.1667 56.1061 25.2955 54.3182C24.4318 52.5303 24 50.4091 24 47.9545C24 46.1136 24.2462 44.4583 24.7386 42.9886C25.2386 41.5114 25.9432 40.2538 26.8523 39.2159C27.7614 38.178 28.8371 37.3826 30.0795 36.8295C31.322 36.2765 32.6894 36 34.1818 36C35.4091 36 36.553 36.1856 37.6136 36.5568C38.6818 36.9205 39.6326 37.4394 40.4659 38.1136C41.3068 38.7803 42.0076 39.5795 42.5682 40.5114C43.1288 41.4356 43.5152 42.4621 43.7273 43.5909H40.8182Z" fill="white"/>
<path d="M48.6903 36.3182H52.054L59.9631 55.6364H60.2358L68.1449 36.3182H71.5085V59.5909H68.8722V41.9091H68.6449L61.3722 59.5909H58.8267L51.554 41.9091H51.3267V59.5909H48.6903V36.3182Z" fill="white"/>
</g>
<defs>
<filter id="filter0_f_1078_22" x="-28" y="-88" width="212" height="212" filterUnits="userSpaceOnUse" color-interpolation-filters="sRGB">
<feFlood flood-opacity="0" result="BackgroundImageFix"/>
<feBlend mode="normal" in="SourceGraphic" in2="BackgroundImageFix" result="shape"/>
<feGaussianBlur stdDeviation="32.5" result="effect1_foregroundBlur_1078_22"/>
</filter>
<filter id="filter1_f_1078_22" x="-105" y="-123" width="234" height="234" filterUnits="userSpaceOnUse" color-interpolation-filters="sRGB">
<feFlood flood-opacity="0" result="BackgroundImageFix"/>
<feBlend mode="normal" in="SourceGraphic" in2="BackgroundImageFix" result="shape"/>
<feGaussianBlur stdDeviation="32.5" result="effect1_foregroundBlur_1078_22"/>
</filter>
<filter id="filter2_f_1078_22" x="-37" y="11" width="182" height="182" filterUnits="userSpaceOnUse" color-interpolation-filters="sRGB">
<feFlood flood-opacity="0" result="BackgroundImageFix"/>
<feBlend mode="normal" in="SourceGraphic" in2="BackgroundImageFix" result="shape"/>
<feGaussianBlur stdDeviation="32.5" result="effect1_foregroundBlur_1078_22"/>
</filter>
<filter id="filter3_f_1078_22" x="-93" y="-15" width="172" height="172" filterUnits="userSpaceOnUse" color-interpolation-filters="sRGB">
<feFlood flood-opacity="0" result="BackgroundImageFix"/>
<feBlend mode="normal" in="SourceGraphic" in2="BackgroundImageFix" result="shape"/>
<feGaussianBlur stdDeviation="32.5" result="effect1_foregroundBlur_1078_22"/>
</filter>
<clipPath id="clip0_1078_22">
<rect width="96" height="96" fill="white"/>
</clipPath>
</defs>
</svg>
