<svg width="462" height="463" viewBox="0 0 462 463" fill="none" xmlns="http://www.w3.org/2000/svg">
<rect x="218.831" y="218.857" width="24.5375" height="24.5375" rx="12.2688" fill="#24D70B" stroke="url(#paint0_linear_1110_17550)" stroke-width="0.131567"/>
<path d="M231.472 344.155C293.69 344.155 344.128 293.718 344.128 231.5C344.128 169.282 293.69 118.844 231.472 118.844C169.254 118.844 118.816 169.282 118.816 231.5C118.816 293.718 169.254 344.155 231.472 344.155Z" stroke="#24D70B" stroke-opacity="0.6" stroke-width="0.822303" stroke-dasharray="2.47 2.47"/>
<path d="M231.473 374.465C310.431 374.465 374.439 310.457 374.439 231.5C374.439 152.542 310.431 88.5342 231.473 88.5342C152.516 88.5342 88.5078 152.542 88.5078 231.5C88.5078 310.457 152.516 374.465 231.473 374.465Z" stroke="#24D70B" stroke-opacity="0.4" stroke-width="0.822303" stroke-dasharray="2.47 2.47"/>
<path d="M231.472 415.28C332.971 415.28 415.252 332.999 415.252 231.5C415.252 130 332.971 47.7191 231.472 47.7191C129.973 47.7191 47.6914 130 47.6914 231.5C47.6914 332.999 129.973 415.28 231.472 415.28Z" stroke="#24D70B" stroke-opacity="0.3" stroke-width="0.822303" stroke-dasharray="2.47 2.47"/>
<path d="M231.452 461.616C358.542 461.616 461.568 358.589 461.568 231.5C461.568 104.41 358.542 1.38364 231.452 1.38364C104.362 1.38364 1.33594 104.41 1.33594 231.5C1.33594 358.589 104.362 461.616 231.452 461.616Z" stroke="#24D70B" stroke-opacity="0.2" stroke-width="0.822303" stroke-dasharray="2.47 2.47"/>
<path d="M231.471 317.842C279.156 317.842 317.813 279.186 317.813 231.5C317.813 183.815 279.156 145.158 231.471 145.158C183.785 145.158 145.129 183.815 145.129 231.5C145.129 279.186 183.785 317.842 231.471 317.842Z" stroke="#24D70B" stroke-opacity="0.8" stroke-width="0.822303" stroke-dasharray="2.47 2.47"/>
<path d="M231.477 289.884C263.722 289.884 289.861 263.745 289.861 231.5C289.861 199.256 263.722 173.117 231.477 173.117C199.233 173.117 173.094 199.256 173.094 231.5C173.094 263.745 199.233 289.884 231.477 289.884Z" stroke="#24D70B" stroke-width="0.822303" stroke-dasharray="2.47 2.47"/>
<defs>
<linearGradient id="paint0_linear_1110_17550" x1="246.605" y1="204.813" x2="231.1" y2="243.46" gradientUnits="userSpaceOnUse">
<stop stop-color="#777777"/>
<stop offset="1"/>
<stop offset="1.0001" stop-opacity="0"/>
</linearGradient>
</defs>
</svg>
