<svg width="628" height="439" viewBox="0 0 628 439" fill="none" xmlns="http://www.w3.org/2000/svg">
<path opacity="0.5" d="M-723 84L-813 84V173.667M-723 84V173.667M-723 84L-633 84M-723 173.667H-813M-723 173.667V263.333M-723 173.667L-633 173.667M-813 173.667V263.333M-723 263.333H-813M-723 263.333V353M-723 263.333H-633M-813 263.333V353M-723 353H-813M-723 353V442.667M-723 353L-633 353M-813 353L-813 442.667M-723 442.667H-813M-723 442.667L-723 532.333M-723 442.667L-633 442.667M-813 442.667V532.333M-723 532.333H-813M-723 532.333V622M-723 532.333H-633M-813 532.333V622H-723M-723 622H-633M-633 84V173.667M-633 84L-543 84M-633 173.667V263.333M-633 173.667L-543 173.667M-633 263.333V353M-633 263.333L-543 263.333M-633 353V442.667M-633 353H-543M-633 442.667L-633 532.333M-633 442.667H-543M-633 532.333V622M-633 532.333H-543M-633 622H-543M-543 84V173.667M-543 84L-453 84M-543 173.667V263.333M-543 173.667H-453M-543 263.333V353M-543 263.333H-453M-543 353V442.667M-543 353H-453M-543 442.667V532.333M-543 442.667H-453M-543 532.333L-543 622M-543 532.333H-453M-543 622L-453 622M-453 84V173.667M-453 84L-363 84M-453 173.667L-453 263.333M-453 173.667H-363M-453 263.333V353M-453 263.333L-363 263.333M-453 353V442.667M-453 353H-363M-453 442.667V532.333M-453 442.667H-363M-453 532.333L-453 622M-453 532.333H-363M-453 622H-363M-363 84V173.667M-363 84L-273 84M-363 173.667L-363 263.333M-363 173.667L-273 173.667M-363 263.333V353M-363 263.333H-273M-363 353V442.667M-363 353L-273 353M-363 442.667V532.333M-363 442.667L-273 442.667M-363 532.333L-363 622M-363 532.333L-273 532.333M-363 622H-273M-273 84V173.667M-273 84L-183 84M-273 173.667V263.333M-273 173.667L-183 173.667M-273 263.333V353M-273 263.333H-183M-273 353L-273 442.667M-273 353H-183M-273 442.667V532.333M-273 442.667H-183M-273 532.333V622M-273 532.333H-183M-273 622H-183M-183 84V173.667M-183 84L-93 84M-183 173.667V263.333M-183 173.667H-93M-183 263.333V353M-183 263.333H-93M-183 353L-183 442.667M-183 353H-93M-183 442.667V532.333M-183 442.667H-93M-183 532.333V622M-183 532.333H-93M-183 622H-93M-93 84V173.667M-93 84L-3.00003 84M-93 173.667V263.333M-93 173.667H-3.00003M-93 263.333V353M-93 263.333H-3.00003M-93 353L-93 442.667M-93 353H-3.00003M-93 442.667V532.333M-93 442.667H-3.00003M-93 532.333V622M-93 532.333H-3.00003M-93 622H-3.00003M-3.00003 84V173.667M-3.00003 84L87 84M-3.00003 173.667V263.333M-3.00003 173.667L87 173.667M-3.00003 263.333V353M-3.00003 263.333H87M-3.00003 353L-3.00003 442.667M-3.00003 353L87 353M-3.00003 442.667V532.333M-3.00003 442.667L87 442.667M-3.00003 532.333V622M-3.00003 532.333L87 532.333M-3.00003 622H87M87 84V173.667M87 84L177 84M87 173.667V263.333M87 173.667L177 173.667M87 263.333V353M87 263.333L177 263.333M87 353L87 442.667M87 353H177M87 442.667V532.333M87 442.667H177M87 532.333V622M87 532.333H177M87 622H177M177 84V173.667M177 84L267 84M177 173.667V263.333M177 173.667H267M177 263.333V353M177 263.333H267M177 353L177 442.667M177 353H267M177 442.667V532.333M177 442.667H267M177 532.333V622M177 532.333H267M177 622L267 622M267 84V173.667M267 84L357 84M267 173.667V263.333M267 173.667H357M267 263.333V353M267 263.333L357 263.333M267 353V442.667M267 353H357M267 442.667V532.333M267 442.667H357M267 532.333V622M267 532.333H357M267 622H357M357 84V173.667M357 84L447 84M357 173.667V263.333M357 173.667L447 173.667M357 263.333V353M357 263.333H447M357 353V442.667M357 353L447 353M357 442.667V532.333M357 442.667L447 442.667M357 532.333V622M357 532.333H447M357 622H447M447 84V173.667M447 84L537 84M447 173.667V263.333M447 173.667L537 173.667M447 263.333V353M447 263.333H537M447 353V442.667M447 353H537M447 442.667V532.333M447 442.667H537M447 532.333V622M447 532.333H537M447 622H537M537 84V173.667M537 84L627 84V173.667M537 173.667V263.333M537 173.667H627M537 263.333V353M537 263.333H627M537 353V442.667M537 353H627M537 442.667V532.333M537 442.667H627M537 532.333V622M537 532.333H627M537 622H627V532.333M627 173.667V263.333M627 263.333V353M627 353V442.667M627 442.667V532.333" stroke="url(#paint0_radial_934_10119)"/>
<g opacity="0.4" filter="url(#filter0_f_934_10119)">
<path d="M202 344C202 409.722 69.924 463 -93 463C-255.924 463 -388 409.722 -388 344C-388 278.278 -255.924 225 -93 225C69.924 225 202 278.278 202 344Z" fill="#383838"/>
</g>
<defs>
<filter id="filter0_f_934_10119" x="-612.6" y="0.399994" width="1039.2" height="687.2" filterUnits="userSpaceOnUse" color-interpolation-filters="sRGB">
<feFlood flood-opacity="0" result="BackgroundImageFix"/>
<feBlend mode="normal" in="SourceGraphic" in2="BackgroundImageFix" result="shape"/>
<feGaussianBlur stdDeviation="112.3" result="effect1_foregroundBlur_934_10119"/>
</filter>
<radialGradient id="paint0_radial_934_10119" cx="0" cy="0" r="1" gradientUnits="userSpaceOnUse" gradientTransform="translate(-93 353) rotate(90) scale(269 720)">
<stop stop-color="#383838" stop-opacity="0.53"/>
<stop offset="1" stop-color="#CFD1D3" stop-opacity="0"/>
</radialGradient>
</defs>
</svg>
