<svg width="1440" height="120" viewBox="0 0 1440 120" fill="none" xmlns="http://www.w3.org/2000/svg">
<path opacity="0.5" d="M90 -419H0L0 -329.333M90 -419L90 -329.333M90 -419L180 -419M90 -329.333H0M90 -329.333L90 -239.667M90 -329.333H180M0 -329.333L0 -239.667M90 -239.667L0 -239.667M90 -239.667L90 -150M90 -239.667H180M0 -239.667L0 -150M90 -150H0M90 -150L90 -60.3333M90 -150L180 -150M0 -150L0 -60.3333M90 -60.3333H0M90 -60.3333L90 29.3333M90 -60.3333L180 -60.3333M0 -60.3333L0 29.3333M90 29.3333H0M90 29.3333L90 119M90 29.3333L180 29.3333M0 29.3333L0 119H90M90 119H180M180 -419L180 -329.333M180 -419H270M180 -329.333V-239.667M180 -329.333L270 -329.333M180 -239.667L180 -150M180 -239.667L270 -239.667M180 -150V-60.3333M180 -150H270M180 -60.3333L180 29.3333M180 -60.3333H270M180 29.3333V119M180 29.3333H270M180 119H270M270 -419V-329.333M270 -419H360M270 -329.333L270 -239.667M270 -329.333H360M270 -239.667V-150M270 -239.667H360M270 -150V-60.3333M270 -150H360M270 -60.3333V29.3333M270 -60.3333H360M270 29.3333L270 119M270 29.3333H360M270 119L360 119M360 -419V-329.333M360 -419H450M360 -329.333L360 -239.667M360 -329.333H450M360 -239.667V-150M360 -239.667L450 -239.667M360 -150V-60.3333M360 -150H450M360 -60.3333V29.3333M360 -60.3333H450M360 29.3333L360 119M360 29.3333H450M360 119H450M450 -419V-329.333M450 -419L540 -419M450 -329.333L450 -239.667M450 -329.333L540 -329.333M450 -239.667V-150M450 -239.667H540M450 -150V-60.3333M450 -150L540 -150M450 -60.3333V29.3333M450 -60.3333L540 -60.3333M450 29.3333L450 119M450 29.3333L540 29.3333M450 119H540M540 -419V-329.333M540 -419H630M540 -329.333V-239.667M540 -329.333H630M540 -239.667V-150M540 -239.667L630 -239.667M540 -150L540 -60.3333M540 -150H630M540 -60.3333V29.3333M540 -60.3333H630M540 29.3333V119M540 29.3333H630M540 119H630M630 -419V-329.333M630 -419H720M630 -329.333V-239.667M630 -329.333H720M630 -239.667V-150M630 -239.667H720M630 -150L630 -60.3333M630 -150H720M630 -60.3333V29.3333M630 -60.3333H720M630 29.3333V119M630 29.3333H720M630 119H720M720 -419V-329.333M720 -419H810M720 -329.333V-239.667M720 -329.333H810M720 -239.667V-150M720 -239.667L810 -239.667M720 -150L720 -60.3333M720 -150H810M720 -60.3333V29.3333M720 -60.3333H810M720 29.3333V119M720 29.3333H810M720 119H810M810 -419V-329.333M810 -419L900 -419M810 -329.333V-239.667M810 -329.333H900M810 -239.667V-150M810 -239.667H900M810 -150L810 -60.3333M810 -150L900 -150M810 -60.3333V29.3333M810 -60.3333L900 -60.3333M810 29.3333V119M810 29.3333L900 29.3333M810 119H900M900 -419V-329.333M900 -419H990M900 -329.333V-239.667M900 -329.333L990 -329.333M900 -239.667V-150M900 -239.667L990 -239.667M900 -150L900 -60.3333M900 -150H990M900 -60.3333V29.3333M900 -60.3333H990M900 29.3333V119M900 29.3333H990M900 119H990M990 -419V-329.333M990 -419H1080M990 -329.333V-239.667M990 -329.333H1080M990 -239.667V-150M990 -239.667H1080M990 -150L990 -60.3333M990 -150H1080M990 -60.3333V29.3333M990 -60.3333H1080M990 29.3333V119M990 29.3333H1080M990 119L1080 119M1080 -419V-329.333M1080 -419H1170M1080 -329.333V-239.667M1080 -329.333H1170M1080 -239.667V-150M1080 -239.667L1170 -239.667M1080 -150V-60.3333M1080 -150H1170M1080 -60.3333V29.3333M1080 -60.3333H1170M1080 29.3333V119M1080 29.3333H1170M1080 119H1170M1170 -419V-329.333M1170 -419L1260 -419M1170 -329.333V-239.667M1170 -329.333L1260 -329.333M1170 -239.667V-150M1170 -239.667H1260M1170 -150V-60.3333M1170 -150L1260 -150M1170 -60.3333V29.3333M1170 -60.3333L1260 -60.3333M1170 29.3333V119M1170 29.3333L1260 29.3333M1170 119H1260M1260 -419V-329.333M1260 -419H1350M1260 -329.333V-239.667M1260 -329.333H1350M1260 -239.667V-150M1260 -239.667L1350 -239.667M1260 -150V-60.3333M1260 -150H1350M1260 -60.3333V29.3333M1260 -60.3333H1350M1260 29.3333V119M1260 29.3333H1350M1260 119H1350M1350 -419V-329.333M1350 -419H1440V-329.333M1350 -329.333V-239.667M1350 -329.333H1440M1350 -239.667V-150M1350 -239.667H1440M1350 -150V-60.3333M1350 -150H1440M1350 -60.3333V29.3333M1350 -60.3333H1440M1350 29.3333V119M1350 29.3333H1440M1350 119H1440V29.3333M1440 -329.333V-239.667M1440 -239.667V-150M1440 -150V-60.3333M1440 -60.3333V29.3333" stroke="url(#paint0_radial_956_5470)"/>
<defs>
<radialGradient id="paint0_radial_956_5470" cx="0" cy="0" r="1" gradientUnits="userSpaceOnUse" gradientTransform="translate(720 -150) rotate(90) scale(269 720)">
<stop stop-color="#383838" stop-opacity="0.53"/>
<stop offset="1" stop-color="#CFD1D3" stop-opacity="0"/>
</radialGradient>
</defs>
</svg>
