<svg width="16" height="16" viewBox="0 0 16 16" fill="none" xmlns="http://www.w3.org/2000/svg">
<path d="M2.70182 13.75L6.90934 8.87794L6.56428 8.57995L6.94378 8.26886L2.8145 2.25H5.5515L8.31797 6.28284L8.68477 6.81755L9.10866 6.32685L12.6304 2.25H12.8155L9.02236 6.6449L9.33677 6.91626L8.98005 7.24763L13.4412 13.75H10.7042L7.60928 9.23874L7.24234 8.70386L6.81849 9.19488L2.88648 13.75H2.70182ZM5.63049 2.6036L5.48153 2.38636H5.21812H4.01902H3.06947L3.60676 3.16928L10.6253 13.3966L10.7743 13.6136H11.0376H12.231H13.1802L12.6434 12.8309L5.63049 2.6036Z" fill="black" stroke="white"/>
</svg>
