<?xml version="1.0" encoding="UTF-8"?>
<svg xmlns="http://www.w3.org/2000/svg" viewBox="0 0 566.93 566.93"><circle cx="283.46" cy="283.46" r="273.54" fill="none" stroke="#152646" stroke-miterlimit="10" stroke-width="18" style="stroke: #70d9e5;"/><g fill="#152646"><path d="M276.2 322.1c-.84-15.19 1.34-29.87 12.75-40.73 6.5-6.19 14.79-10.92 22.98-14.86 16.72-8.04 28.69-20.05 33.89-37.89 6.86-23.5 1.49-44.5-16.33-61.19-17.84-16.7-39.29-20.98-62.14-12.2-22.78 8.76-35.56 26.06-38.3 50.5-.25 2.2-.43 4.41-.77 6.59-1.11 7.09-6.02 11.19-12.87 10.82-6.61-.35-11.29-5.26-11.37-12.39-.19-16.56 4.29-31.91 13.53-45.57 18.99-28.06 45.76-41.8 79.43-38.18 36.98 3.98 61.52 25.02 72.94 60.48 12.51 38.86-8.65 84.57-46.06 100.59-1.85.79-3.67 1.66-5.54 2.38-12 4.56-17.61 13.21-17.3 26.07.19 7.84.11 15.72-.52 23.52-.47 5.82-5.91 9.92-11.79 9.95-5.92.03-10.97-4.01-11.98-9.8-.38-2.17-.45-4.4-.5-6.61-.11-3.82-.05-7.65-.05-11.48zM288.55 440.65c-11.9-.03-21.49-9.72-21.34-21.55.15-11.94 9.77-21.22 21.81-21.05 11.75.17 20.99 9.5 21.01 21.21.01 11.92-9.53 21.42-21.48 21.39z" style="fill: #70d9e5;"/></g></svg>
