<svg id="ekyIDeV5hbU1" xmlns="http://www.w3.org/2000/svg" xmlns:xlink="http://www.w3.org/1999/xlink" viewBox="0 0 810 300" shape-rendering="geometricPrecision" text-rendering="geometricPrecision">
<style><![CDATA[
#ekyIDeV5hbU5_ts {animation: ekyIDeV5hbU5_ts__ts 12000ms linear infinite normal forwards}@keyframes ekyIDeV5hbU5_ts__ts { 0% {transform: translate(405px,158.204501px) scale(1,0.909091);animation-timing-function: cubic-bezier(0.68,-0.55,0.265,1.55)} 12.5% {transform: translate(405px,158.204501px) scale(1,0.909091);animation-timing-function: cubic-bezier(0.68,-0.55,0.265,1.55)} 25% {transform: translate(405px,158.204501px) scale(1,1.818183);animation-timing-function: cubic-bezier(0.68,-0.55,0.265,1.55)} 37.5% {transform: translate(405px,158.204501px) scale(1,1.818183);animation-timing-function: cubic-bezier(0.68,-0.55,0.265,1.55)} 50% {transform: translate(405px,158.204501px) scale(1,2.727273);animation-timing-function: cubic-bezier(0.68,-0.55,0.265,1.55)} 62.5% {transform: translate(405px,158.204501px) scale(1,2.727273);animation-timing-function: cubic-bezier(0.68,-0.55,0.265,1.55)} 75% {transform: translate(405px,158.204501px) scale(1,3.636364);animation-timing-function: cubic-bezier(0.68,-0.55,0.265,1.55)} 87.5% {transform: translate(405px,158.204501px) scale(1,3.636364);animation-timing-function: cubic-bezier(0.68,-0.55,0.265,1.55)} 100% {transform: translate(405px,158.204501px) scale(1,0.909091)}} #ekyIDeV5hbU6_ts {animation: ekyIDeV5hbU6_ts__ts 12000ms linear infinite normal forwards}@keyframes ekyIDeV5hbU6_ts__ts { 0% {transform: translate(146px,158.204502px) scale(1,1);animation-timing-function: cubic-bezier(0.68,-0.55,0.265,1.55)} 12.416667% {transform: translate(146px,158.204502px) scale(1,1);animation-timing-function: cubic-bezier(0.68,-0.55,0.265,1.55)} 24.916667% {transform: translate(146px,158.204502px) scale(2,2);animation-timing-function: cubic-bezier(0.68,-0.55,0.265,1.55)} 37.416667% {transform: translate(146px,158.204502px) scale(2,2);animation-timing-function: cubic-bezier(0.68,-0.55,0.265,1.55)} 49.916667% {transform: translate(146px,158.204502px) scale(3,3);animation-timing-function: cubic-bezier(0.68,-0.55,0.265,1.55)} 62.416667% {transform: translate(146px,158.204502px) scale(3,3);animation-timing-function: cubic-bezier(0.68,-0.55,0.265,1.55)} 74.916667% {transform: translate(146px,158.204502px) scale(4,4);animation-timing-function: cubic-bezier(0.68,-0.55,0.265,1.55)} 87.416667% {transform: translate(146px,158.204502px) scale(4,4);animation-timing-function: cubic-bezier(0.68,-0.55,0.265,1.55)} 100% {transform: translate(146px,158.204502px) scale(1,1)}} #ekyIDeV5hbU7_ts {animation: ekyIDeV5hbU7_ts__ts 12000ms linear infinite normal forwards}@keyframes ekyIDeV5hbU7_ts__ts { 0% {transform: translate(664px,158.795502px) scale(1,1);animation-timing-function: cubic-bezier(0.68,-0.55,0.265,1.55)} 12.416667% {transform: translate(664px,158.795502px) scale(1,1);animation-timing-function: cubic-bezier(0.68,-0.55,0.265,1.55)} 24.916667% {transform: translate(664px,158.795502px) scale(2,2);animation-timing-function: cubic-bezier(0.68,-0.55,0.265,1.55)} 37.416667% {transform: translate(664px,158.795502px) scale(2,2);animation-timing-function: cubic-bezier(0.68,-0.55,0.265,1.55)} 49.916667% {transform: translate(664px,158.795502px) scale(3,3);animation-timing-function: cubic-bezier(0.68,-0.55,0.265,1.55)} 62.416667% {transform: translate(664px,158.795502px) scale(3,3);animation-timing-function: cubic-bezier(0.68,-0.55,0.265,1.55)} 74.916667% {transform: translate(664px,158.795502px) scale(4,4);animation-timing-function: cubic-bezier(0.68,-0.55,0.265,1.55)} 87.416667% {transform: translate(664px,158.795502px) scale(4,4);animation-timing-function: cubic-bezier(0.68,-0.55,0.265,1.55)} 100% {transform: translate(664px,158.795502px) scale(1,1)}} #ekyIDeV5hbU9_to {animation: ekyIDeV5hbU9_to__to 12000ms linear infinite normal forwards}@keyframes ekyIDeV5hbU9_to__to { 0% {transform: translate(405.1435px,224.204271px)} 12.5% {transform: translate(405.1435px,224.204271px);animation-timing-function: cubic-bezier(0.68,-0.55,0.265,1.55)} 25% {transform: translate(405.1435px,180.204271px);animation-timing-function: cubic-bezier(0.68,-0.55,0.265,1.55)} 37.5% {transform: translate(405.1435px,180.204271px);animation-timing-function: cubic-bezier(0.68,-0.55,0.265,1.55)} 50% {transform: translate(405.1435px,136.204271px);animation-timing-function: cubic-bezier(0.68,-0.55,0.265,1.55)} 62.5% {transform: translate(405.1435px,136.204271px);animation-timing-function: cubic-bezier(0.68,-0.55,0.265,1.55)} 75% {transform: translate(405.1435px,92.204271px);animation-timing-function: cubic-bezier(0.68,-0.55,0.265,1.55)} 87.5% {transform: translate(405.1435px,92.204271px);animation-timing-function: cubic-bezier(0.68,-0.55,0.265,1.55)} 100% {transform: translate(405.1435px,224.204271px)}}
]]></style>
<defs><linearGradient id="ekyIDeV5hbU6-fill" x1="0" y1="-27.5" x2="0" y2="27.5" spreadMethod="pad" gradientUnits="userSpaceOnUse" gradientTransform="translate(0 0)"><stop id="ekyIDeV5hbU6-fill-0" offset="0%" stop-color="#9b8afb"/><stop id="ekyIDeV5hbU6-fill-1" offset="100%" stop-color="#6938ef"/></linearGradient><linearGradient id="ekyIDeV5hbU7-fill" x1="0" y1="-27.5" x2="0" y2="27.5" spreadMethod="pad" gradientUnits="userSpaceOnUse" gradientTransform="translate(0 0)"><stop id="ekyIDeV5hbU7-fill-0" offset="0%" stop-color="#9b8afb"/><stop id="ekyIDeV5hbU7-fill-1" offset="100%" stop-color="#6938ef"/></linearGradient></defs><g transform="translate(0-25.903205)"><path d="M69.2728,290.364c-.0596-.504-.3016-.895-.7258-1.174-.4243-.278-.9446-.417-1.5611-.417-.4508,0-.8452.073-1.1833.218-.3347.146-.5965.347-.7855.602-.1856.255-.2784.545-.2784.87c0,.272.0647.506.1939.701.1326.192.3016.353.5071.482.2055.126.4209.231.6463.314.2254.079.4326.144.6215.193l1.0341.279c.2651.069.5601.166.8849.288.3281.123.6413.29.9396.502.3016.209.5502.478.7458.806s.2933.731.2933,1.208c0,.55-.1442,1.047-.4325,1.491-.2851.444-.7027.797-1.2529,1.059-.5468.262-1.2114.393-1.9936.393-.7291,0-1.3605-.118-1.8942-.353-.5303-.235-.9479-.563-1.2528-.984-.3016-.421-.4723-.91-.5121-1.467h1.2728c.0331.384.1624.703.3877.955.2287.248.5171.434.8651.556.3513.12.7292.179,1.1335.179.4707,0,.8933-.076,1.2678-.228.3745-.156.6711-.372.8899-.647.2187-.278.3281-.603.3281-.974c0-.338-.0944-.613-.2834-.825s-.4375-.385-.7457-.517c-.3082-.133-.6413-.249-.9993-.348l-1.2528-.358c-.7955-.229-1.4252-.556-1.8892-.98s-.6961-.979-.6961-1.665c0-.57.1542-1.068.4624-1.492.3116-.427.7292-.759,1.2528-.994.527-.239,1.1153-.358,1.765-.358.6562,0,1.2395.118,1.75.353.5104.232.9147.55,1.213.955.3016.404.4607.863.4773,1.377h-1.1932Zm6.5215,0v.994h-3.9574v-.994h3.9574Zm-2.804-1.83h1.1733v7.278c0,.332.0481.581.1442.746.0994.163.2254.272.3778.328.1558.053.3199.08.4922.08.1293,0,.2353-.007.3182-.02.0829-.017.1492-.03.1989-.04l.2386,1.054c-.0795.03-.1906.06-.3331.09-.1425.033-.3231.049-.5419.049-.3314,0-.6562-.071-.9744-.213-.3149-.143-.5767-.36-.7855-.652-.2055-.291-.3083-.659-.3083-1.103v-7.597Zm6.8161,9.645c-.4839,0-.9231-.091-1.3175-.273-.3944-.186-.7076-.453-.9396-.801-.232-.351-.348-.775-.348-1.273c0-.437.0861-.792.2585-1.064.1723-.275.4027-.49.691-.646s.6066-.272.9546-.348c.3513-.079.7043-.142,1.0589-.189.464-.059.8402-.104,1.1286-.134.2916-.033.5038-.088.6363-.164.1359-.076.2039-.209.2039-.398v-.04c0-.49-.1343-.871-.4027-1.143-.2652-.272-.6679-.408-1.2081-.408-.5601,0-.9993.123-1.3175.368s-.5419.507-.6712.786l-1.1136-.398c.1989-.464.464-.825.7955-1.084.3347-.262.6993-.444,1.0937-.547.3977-.106.7888-.159,1.1733-.159.2453,0,.527.03.8452.09.3215.056.6314.174.9297.353.3016.179.5518.449.7507.81s.2983.845.2983,1.452v5.031h-1.1733v-1.034h-.0597c-.0795.166-.2121.343-.3977.532s-.4325.35-.7408.482c-.3082.133-.6844.199-1.1285.199Zm.179-1.054c.464,0,.8551-.091,1.1732-.273.3215-.183.5635-.418.7259-.706.1657-.289.2486-.592.2486-.91v-1.074c-.0497.06-.1591.114-.3281.164-.1658.046-.358.088-.5768.124-.2154.033-.4259.063-.6313.09-.2022.023-.3663.043-.4922.059-.305.04-.59.105-.8551.194-.2619.086-.474.217-.6364.393-.1591.172-.2386.408-.2386.706c0,.408.1508.716.4524.925.3049.205.691.308,1.1584.308ZM85.607,298v-10.182h1.1733v3.759h.0994c.0862-.133.2055-.302.358-.507.1557-.209.3778-.395.6662-.557.2916-.166.686-.249,1.1832-.249.643,0,1.2097.161,1.7003.482.4905.322.8733.778,1.1484,1.368s.4127,1.286.4127,2.088c0,.808-.1376,1.509-.4127,2.103-.2751.59-.6562,1.047-1.1435,1.372-.4872.321-1.049.482-1.6853.482-.4906,0-.8833-.081-1.1783-.244-.295-.165-.522-.353-.6811-.561-.1591-.212-.2817-.388-.3679-.527h-.1392v1.173h-1.1335Zm1.1534-3.818c0,.577.0845,1.085.2535,1.526.1691.438.416.781.7408,1.029.3248.245.7225.368,1.1932.368.4905,0,.8998-.129,1.228-.388.3314-.262.58-.613.7457-1.054.169-.444.2536-.938.2536-1.481c0-.537-.0829-1.021-.2486-1.452-.1624-.434-.4093-.777-.7408-1.029-.3281-.255-.7408-.383-1.2379-.383-.4773,0-.8783.121-1.2031.363-.3248.239-.5701.573-.7358,1.004-.1658.428-.2486.927-.2486,1.497Zm8.5561-6.364v10.182h-1.1733v-10.182h1.1733Zm5.3505,10.341c-.7356,0-1.3703-.162-1.9039-.487-.5304-.328-.9397-.786-1.228-1.372-.2851-.59-.4276-1.276-.4276-2.059c0-.782.1425-1.471.4276-2.068.2883-.6.6894-1.067,1.2031-1.402.517-.338,1.1203-.507,1.8098-.507.398,0,.79.066,1.178.199s.741.348,1.059.646c.318.295.572.686.761,1.174.189.487.283,1.087.283,1.799v.498h-5.8863v-1.015h4.6933c0-.431-.086-.815-.259-1.153-.169-.338-.411-.605-.725-.8-.312-.196-.68-.294-1.104-.294-.467,0-.8718.116-1.2132.348-.3381.229-.5983.527-.7806.895-.1822.368-.2734.762-.2734,1.183v.676c0,.577.0994,1.066.2983,1.467.2022.398.4822.701.8402.91.358.205.7737.308,1.2477.308.308,0,.587-.043.835-.129.252-.09.469-.222.652-.398.182-.179.323-.401.422-.666l1.134.318c-.12.385-.32.723-.602,1.014-.282.289-.63.514-1.044.676-.414.16-.88.239-1.397.239Zm8.049,0c-.716,0-1.332-.169-1.849-.507s-.915-.804-1.193-1.397c-.279-.593-.418-1.271-.418-2.033c0-.776.142-1.46.428-2.054.288-.596.689-1.062,1.203-1.397.517-.338,1.12-.507,1.809-.507.537,0,1.021.1,1.452.298.431.199.784.478,1.059.836s.446.775.512,1.253h-1.173c-.09-.348-.289-.657-.597-.925-.305-.272-.716-.408-1.233-.408-.457,0-.858.119-1.203.358-.341.235-.608.569-.8.999-.189.428-.284.93-.284,1.507c0,.59.093,1.104.279,1.541.189.438.454.777.795,1.019.345.242.749.363,1.213.363.305,0,.582-.053.83-.159.249-.106.459-.258.632-.457.172-.199.295-.438.368-.716h1.173c-.066.45-.23.856-.492,1.218-.259.358-.602.643-1.029.855-.425.209-.918.313-1.482.313Zm7.82,0c-.689,0-1.294-.164-1.814-.492-.517-.328-.922-.787-1.213-1.377-.289-.59-.433-1.28-.433-2.068c0-.796.144-1.49.433-2.084.291-.593.696-1.053,1.213-1.382.52-.328,1.125-.492,1.814-.492.69,0,1.293.164,1.81.492.521.329.925.789,1.213,1.382.292.594.438,1.288.438,2.084c0,.788-.146,1.478-.438,2.068-.288.59-.692,1.049-1.213,1.377-.517.328-1.12.492-1.81.492Zm0-1.054c.524,0,.955-.134,1.293-.403.338-.268.588-.621.751-1.059.162-.437.243-.911.243-1.421c0-.511-.081-.986-.243-1.427-.163-.441-.413-.797-.751-1.069s-.769-.408-1.293-.408c-.523,0-.954.136-1.292.408s-.588.628-.751,1.069c-.162.441-.243.916-.243,1.427c0,.51.081.984.243,1.421.163.438.413.791.751,1.059.338.269.769.403,1.292.403Zm5.252.895v-7.636h1.173v7.636h-1.173Zm.596-8.909c-.228,0-.426-.078-.591-.234-.163-.156-.244-.343-.244-.562c0-.218.081-.406.244-.561.165-.156.363-.234.591-.234.229,0,.425.078.587.234.166.155.249.343.249.561c0,.219-.083.406-.249.562-.162.156-.358.234-.587.234Zm3.899,4.315v4.594h-1.173v-7.636h1.134v1.193h.099c.179-.388.451-.7.815-.935.365-.238.836-.358,1.412-.358.517,0,.97.106,1.357.318.388.209.69.527.905.955.216.424.323.961.323,1.611v4.852h-1.173v-4.773c0-.6-.156-1.067-.467-1.402-.312-.338-.739-.507-1.283-.507-.374,0-.709.081-1.004.244-.292.162-.522.399-.691.711-.169.311-.254.689-.254,1.133Zm12.426-1.332l-1.054.298c-.067-.176-.164-.346-.294-.512-.126-.169-.298-.308-.517-.418-.219-.109-.499-.164-.84-.164-.467,0-.857.108-1.168.324-.309.212-.463.482-.463.81c0,.292.106.522.318.691.213.169.544.31.995.423l1.133.278c.683.166,1.192.419,1.527.761.334.338.502.774.502,1.307c0,.438-.126.829-.378,1.173-.249.345-.597.617-1.044.816-.448.199-.968.298-1.561.298-.779,0-1.424-.169-1.934-.507-.511-.338-.834-.832-.97-1.482l1.114-.278c.106.411.307.719.602.925.298.205.687.308,1.168.308.547,0,.981-.116,1.302-.348.325-.235.488-.517.488-.845c0-.265-.093-.487-.279-.666-.185-.183-.47-.319-.855-.408l-1.273-.298c-.699-.166-1.213-.423-1.541-.771-.325-.351-.487-.79-.487-1.317c0-.431.121-.812.363-1.144.245-.331.578-.591.999-.78.424-.189.905-.284,1.442-.284.756,0,1.349.166,1.78.497.434.332.742.769.925,1.313ZM144.551,298v-7.636h1.174v7.636h-1.174Zm.597-8.909c-.229,0-.426-.078-.592-.234-.162-.156-.243-.343-.243-.562c0-.218.081-.406.243-.561.166-.156.363-.234.592-.234s.424.078.587.234c.165.155.248.343.248.561c0,.219-.083.406-.248.562-.163.156-.358.234-.587.234Zm3.899,4.315v4.594h-1.173v-7.636h1.133v1.193h.1c.179-.388.45-.7.815-.935.365-.238.835-.358,1.412-.358.517,0,.969.106,1.357.318.388.209.69.527.905.955.215.424.323.961.323,1.611v4.852h-1.173v-4.773c0-.6-.156-1.067-.468-1.402-.311-.338-.739-.507-1.282-.507-.375,0-.709.081-1.004.244-.292.162-.522.399-.691.711-.17.311-.254.689-.254,1.133ZM168.353,291h-1.233c-.073-.355-.201-.666-.383-.935-.179-.268-.398-.494-.656-.676-.255-.185-.539-.325-.85-.417-.312-.093-.637-.14-.975-.14-.616,0-1.175.156-1.675.468-.497.311-.893.77-1.188,1.377-.292.606-.438,1.35-.438,2.232s.146,1.626.438,2.232c.295.607.691,1.066,1.188,1.377.5.312,1.059.468,1.675.468.338,0,.663-.047.975-.139.311-.093.595-.231.85-.413.258-.186.477-.413.656-.681.182-.272.31-.583.383-.935h1.233c-.093.521-.262.986-.507,1.397s-.55.761-.915,1.049c-.365.285-.774.502-1.228.651-.451.15-.933.224-1.447.224-.868,0-1.64-.212-2.316-.636-.677-.424-1.209-1.028-1.596-1.81-.388-.782-.582-1.71-.582-2.784s.194-2.002.582-2.784c.387-.782.919-1.385,1.596-1.81.676-.424,1.448-.636,2.316-.636.514,0,.996.075,1.447.224.454.149.863.368,1.228.656.365.285.67.633.915,1.044.245.408.414.873.507,1.397Zm1.833,7v-7.636h1.173v7.636h-1.173Zm.597-8.909c-.229,0-.426-.078-.592-.234-.162-.156-.243-.343-.243-.562c0-.218.081-.406.243-.561.166-.156.363-.234.592-.234.228,0,.424.078.586.234.166.155.249.343.249.561c0,.219-.083.406-.249.562-.162.156-.358.234-.586.234ZM173.508,298v-7.636h1.134v1.153h.08c.139-.378.391-.684.755-.92.365-.235.776-.353,1.233-.353.086,0,.194.002.323.005.13.004.227.009.294.015v1.193c-.04-.01-.131-.024-.274-.044-.139-.024-.287-.035-.442-.035-.372,0-.703.078-.995.234-.288.152-.517.364-.686.636-.165.268-.248.575-.248.92v4.832h-1.174Zm8.079.159c-.716,0-1.332-.169-1.849-.507s-.915-.804-1.193-1.397c-.279-.593-.418-1.271-.418-2.033c0-.776.143-1.46.428-2.054.288-.596.689-1.062,1.203-1.397.517-.338,1.12-.507,1.809-.507.537,0,1.021.1,1.452.298.431.199.784.478,1.059.836s.446.775.512,1.253h-1.173c-.09-.348-.289-.657-.597-.925-.305-.272-.716-.408-1.233-.408-.457,0-.858.119-1.203.358-.341.235-.608.569-.8.999-.189.428-.284.93-.284,1.507c0,.59.093,1.104.279,1.541.189.438.454.777.795,1.019.345.242.749.363,1.213.363.305,0,.582-.053.831-.159.248-.106.459-.258.631-.457s.295-.438.368-.716h1.173c-.066.45-.23.856-.492,1.218-.259.358-.602.643-1.029.855-.424.209-.918.313-1.482.313Zm9.531-3.281v-4.514h1.173v7.636h-1.173v-1.293h-.08c-.179.388-.457.718-.835.99-.378.268-.855.402-1.432.402-.477,0-.901-.104-1.273-.313-.371-.212-.662-.53-.875-.954-.212-.428-.318-.966-.318-1.616v-4.852h1.174v4.772c0,.557.155,1.001.467,1.333.315.331.716.497,1.203.497.292,0,.588-.075.89-.224.305-.149.56-.378.766-.686.208-.308.313-.701.313-1.178Zm4.495-7.06v10.182h-1.173v-10.182h1.173Zm4.396,10.361c-.483,0-.923-.091-1.317-.273-.394-.186-.708-.453-.94-.801-.232-.351-.348-.775-.348-1.273c0-.437.087-.792.259-1.064.172-.275.403-.49.691-.646s.606-.272.955-.348c.351-.079.704-.142,1.058-.189.464-.059.841-.104,1.129-.134.292-.033.504-.088.636-.164.136-.076.204-.209.204-.398v-.04c0-.49-.134-.871-.402-1.143-.266-.272-.668-.408-1.209-.408-.56,0-.999.123-1.317.368s-.542.507-.671.786l-1.114-.398c.199-.464.464-.825.796-1.084.334-.262.699-.444,1.093-.547.398-.106.789-.159,1.174-.159.245,0,.527.03.845.09.321.056.631.174.929.353.302.179.552.449.751.81s.298.845.298,1.452v5.031h-1.173v-1.034h-.059c-.08.166-.213.343-.398.532-.186.189-.433.35-.741.482-.308.133-.684.199-1.129.199Zm.179-1.054c.464,0,.856-.091,1.174-.273.321-.183.563-.418.726-.706.165-.289.248-.592.248-.91v-1.074c-.05.06-.159.114-.328.164-.166.046-.358.088-.577.124-.215.033-.426.063-.631.09-.202.023-.366.043-.492.059-.305.04-.59.105-.855.194-.262.086-.474.217-.637.393-.159.172-.238.408-.238.706c0,.408.15.716.452.925.305.205.691.308,1.158.308Zm8.784-6.761v.994h-3.957v-.994h3.957Zm-2.804-1.83h1.173v7.278c0,.332.048.581.145.746.099.163.225.272.377.328.156.053.32.08.493.08.129,0,.235-.007.318-.02.083-.017.149-.03.199-.04l.238,1.054c-.079.03-.19.06-.333.09-.142.033-.323.049-.542.049-.331,0-.656-.071-.974-.213-.315-.143-.577-.36-.786-.652-.205-.291-.308-.659-.308-1.103v-7.597ZM210.737,298v-7.636h1.173v7.636h-1.173Zm.597-8.909c-.229,0-.426-.078-.592-.234-.162-.156-.244-.343-.244-.562c0-.218.082-.406.244-.561.166-.156.363-.234.592-.234.228,0,.424.078.586.234.166.155.249.343.249.561c0,.219-.083.406-.249.562-.162.156-.358.234-.586.234Zm5.827,9.068c-.689,0-1.294-.164-1.814-.492-.517-.328-.922-.787-1.213-1.377-.289-.59-.433-1.28-.433-2.068c0-.796.144-1.49.433-2.084.291-.593.696-1.053,1.213-1.382.52-.328,1.125-.492,1.814-.492.69,0,1.293.164,1.81.492.521.329.925.789,1.213,1.382.292.594.438,1.288.438,2.084c0,.788-.146,1.478-.438,2.068-.288.59-.692,1.049-1.213,1.377-.517.328-1.12.492-1.81.492Zm0-1.054c.524,0,.955-.134,1.293-.403.338-.268.588-.621.751-1.059.162-.437.243-.911.243-1.421c0-.511-.081-.986-.243-1.427-.163-.441-.413-.797-.751-1.069s-.769-.408-1.293-.408c-.523,0-.954.136-1.292.408s-.588.628-.751,1.069c-.162.441-.243.916-.243,1.427c0,.51.081.984.243,1.421.163.438.413.791.751,1.059.338.269.769.403,1.292.403Zm6.425-3.699v4.594h-1.173v-7.636h1.133v1.193h.1c.179-.388.45-.7.815-.935.365-.238.835-.358,1.412-.358.517,0,.969.106,1.357.318.388.209.69.527.905.955.215.424.323.961.323,1.611v4.852h-1.173v-4.773c0-.6-.156-1.067-.467-1.402-.312-.338-.74-.507-1.283-.507-.375,0-.709.081-1.004.244-.292.162-.522.399-.691.711-.169.311-.254.689-.254,1.133Z" fill="#667085"/><path d="M618.482,287.818h1.412l2.824,4.753h.119l2.824-4.753h1.412l-3.679,5.986v4.196h-1.233v-4.196l-3.679-5.986Zm12.049,10.341c-.69,0-1.295-.164-1.815-.492-.517-.328-.921-.787-1.213-1.377-.288-.59-.433-1.28-.433-2.068c0-.796.145-1.49.433-2.084.292-.593.696-1.053,1.213-1.382.52-.328,1.125-.492,1.815-.492.689,0,1.292.164,1.809.492.521.329.925.789,1.213,1.382.292.594.438,1.288.438,2.084c0,.788-.146,1.478-.438,2.068-.288.59-.692,1.049-1.213,1.377-.517.328-1.12.492-1.809.492Zm0-1.054c.523,0,.954-.134,1.292-.403.338-.268.589-.621.751-1.059.162-.437.244-.911.244-1.421c0-.511-.082-.986-.244-1.427s-.413-.797-.751-1.069-.769-.408-1.292-.408c-.524,0-.955.136-1.293.408s-.588.628-.751,1.069c-.162.441-.243.916-.243,1.427c0,.51.081.984.243,1.421.163.438.413.791.751,1.059.338.269.769.403,1.293.403Zm10.063-2.227v-4.514h1.174v7.636h-1.174v-1.293h-.079c-.179.388-.458.718-.835.99-.378.268-.856.402-1.432.402-.477,0-.902-.104-1.273-.313-.371-.212-.663-.53-.875-.954-.212-.428-.318-.966-.318-1.616v-4.852h1.173v4.772c0,.557.156,1.001.467,1.333.315.331.716.497,1.204.497.291,0,.588-.075.89-.224.304-.149.56-.378.765-.686.209-.308.313-.701.313-1.178ZM643.917,298v-7.636h1.133v1.153h.08c.139-.378.391-.684.755-.92.365-.235.776-.353,1.233-.353.087,0,.194.002.323.005.13.004.228.009.294.015v1.193c-.04-.01-.131-.024-.274-.044-.139-.024-.286-.035-.442-.035-.371,0-.703.078-.994.234-.289.152-.517.364-.686.636-.166.268-.249.575-.249.92v4.832h-1.173Zm8.748-9.088v-1.094h7.637v1.094h-3.202v9.088h-1.233v-9.088h-3.202ZM661.253,298v-7.636h1.133v1.153h.08c.139-.378.391-.684.755-.92.365-.235.776-.353,1.233-.353.086,0,.194.002.323.005.13.004.227.009.294.015v1.193c-.04-.01-.131-.024-.274-.044-.139-.024-.286-.035-.442-.035-.371,0-.703.078-.994.234-.289.152-.518.364-.687.636-.165.268-.248.575-.248.92v4.832h-1.173Zm8.178.159c-.736,0-1.371-.162-1.904-.487-.531-.328-.94-.786-1.228-1.372-.285-.59-.428-1.276-.428-2.059c0-.782.143-1.471.428-2.068.288-.6.689-1.067,1.203-1.402.517-.338,1.12-.507,1.81-.507.397,0,.79.066,1.178.199s.741.348,1.059.646c.318.295.571.686.76,1.174.189.487.284,1.087.284,1.799v.498h-5.887v-1.015h4.694c0-.431-.087-.815-.259-1.153-.169-.338-.411-.605-.726-.8-.311-.196-.679-.294-1.103-.294-.468,0-.872.116-1.214.348-.338.229-.598.527-.78.895s-.274.762-.274,1.183v.676c0,.577.1,1.066.299,1.467.202.398.482.701.84.91.358.205.774.308,1.248.308.308,0,.586-.043.835-.129.252-.09.469-.222.651-.398.183-.179.324-.401.423-.666l1.133.318c-.119.385-.319.723-.601,1.014-.282.289-.63.514-1.044.676-.414.16-.88.239-1.397.239Zm7.194.02c-.484,0-.923-.091-1.318-.273-.394-.186-.707-.453-.939-.801-.232-.351-.348-.775-.348-1.273c0-.437.086-.792.258-1.064.172-.275.403-.49.691-.646.289-.156.607-.272.955-.348.351-.079.704-.142,1.059-.189.464-.059.84-.104,1.128-.134.292-.033.504-.088.637-.164.135-.076.203-.209.203-.398v-.04c0-.49-.134-.871-.402-1.143-.265-.272-.668-.408-1.208-.408-.56,0-1,.123-1.318.368s-.542.507-.671.786l-1.114-.398c.199-.464.464-.825.796-1.084.335-.262.699-.444,1.094-.547.397-.106.788-.159,1.173-.159.245,0,.527.03.845.09.322.056.631.174.93.353.301.179.552.449.75.81.199.361.299.845.299,1.452v5.031h-1.174v-1.034h-.059c-.08.166-.212.343-.398.532s-.432.35-.741.482c-.308.133-.684.199-1.128.199Zm.179-1.054c.464,0,.855-.091,1.173-.273.322-.183.563-.418.726-.706.166-.289.248-.592.248-.91v-1.074c-.049.06-.159.114-.328.164-.165.046-.358.088-.576.124-.216.033-.426.063-.632.09-.202.023-.366.043-.492.059-.305.04-.59.105-.855.194-.262.086-.474.217-.636.393-.16.172-.239.408-.239.706c0,.408.151.716.452.925.305.205.691.308,1.159.308Zm10.871-5.051l-1.054.298c-.066-.176-.164-.346-.293-.512-.126-.169-.298-.308-.517-.418-.219-.109-.499-.164-.84-.164-.468,0-.857.108-1.169.324-.308.212-.462.482-.462.81c0,.292.106.522.318.691s.544.31.995.423l1.133.278c.683.166,1.192.419,1.526.761.335.338.503.774.503,1.307c0,.438-.126.829-.378,1.173-.249.345-.597.617-1.044.816-.448.199-.968.298-1.561.298-.779,0-1.424-.169-1.934-.507-.511-.338-.834-.832-.97-1.482l1.114-.278c.106.411.306.719.601.925.299.205.688.308,1.169.308.547,0,.981-.116,1.302-.348.325-.235.487-.517.487-.845c0-.265-.092-.487-.278-.666-.186-.183-.471-.319-.855-.408l-1.273-.298c-.699-.166-1.213-.423-1.541-.771-.325-.351-.487-.79-.487-1.317c0-.431.121-.812.363-1.144.245-.331.578-.591.999-.78.424-.189.905-.284,1.442-.284.755,0,1.349.166,1.78.497.434.332.742.769.924,1.313Zm6.718,2.804v-4.514h1.173v7.636h-1.173v-1.293h-.079c-.179.388-.458.718-.836.99-.377.268-.855.402-1.431.402-.478,0-.902-.104-1.273-.313-.371-.212-.663-.53-.875-.954-.212-.428-.318-.966-.318-1.616v-4.852h1.173v4.772c0,.557.156,1.001.467,1.333.315.331.716.497,1.203.497.292,0,.589-.075.89-.224.305-.149.56-.378.766-.686.209-.308.313-.701.313-1.178ZM697.715,298v-7.636h1.134v1.153h.08c.139-.378.391-.684.755-.92.365-.235.776-.353,1.233-.353.086,0,.194.002.323.005.13.004.227.009.294.015v1.193c-.04-.01-.131-.024-.274-.044-.139-.024-.286-.035-.442-.035-.371,0-.703.078-.995.234-.288.152-.517.364-.686.636-.165.268-.248.575-.248.92v4.832h-1.174Zm6.198,2.864c-.199,0-.377-.017-.532-.05-.156-.03-.264-.06-.324-.09l.299-1.034c.285.073.537.1.755.08.219-.02.413-.118.582-.293.172-.173.33-.453.472-.841l.219-.596-2.824-7.676h1.273l2.108,6.085h.08l2.107-6.085h1.273l-3.241,8.75c-.146.394-.327.721-.542.979-.216.262-.466.456-.751.582-.282.126-.6.189-.954.189Z" fill="#667085"/><g id="ekyIDeV5hbU5_ts" transform="translate(405,158.204501) scale(1,0.909091)"><rect width="518" height="55" rx="0" ry="0" transform="translate(-259,-27.5)" fill="#6938ef" fill-opacity="0.15"/></g><g id="ekyIDeV5hbU6_ts" transform="translate(146,158.204502) scale(1,1)"><circle r="25" transform="translate(0,0)" fill="url(#ekyIDeV5hbU6-fill)"/></g><g id="ekyIDeV5hbU7_ts" transform="translate(664,158.795502) scale(1,1)"><circle r="25" transform="translate(-0.0585,-0.591)" fill="url(#ekyIDeV5hbU7-fill)"/></g><g mask="url(#ekyIDeV5hbU14)"><g id="ekyIDeV5hbU9_to" transform="translate(405.1435,224.204271)"><g transform="translate(-61.643691,-87.909219)"><path d="M22.8246,38.2727v-32.72725h2.0966v32.72725h-2.0966ZM29.3828,15.696c-.1364-1.2102-.6989-2.1477-1.6875-2.8125-.9886-.6733-2.2329-1.0099-3.7329-1.0099-1.0739,0-2.0029.1704-2.787.5113-.7841.3324-1.3934.7927-1.8281,1.3807-.4261.5796-.6392,1.2401-.6392,1.9816c0,.6221.1449,1.159.4347,1.6108.2983.4517.686.8309,1.1633,1.1377.4858.2983,1.0057.5498,1.5597.7543.5539.196,1.0866.358,1.598.4858l2.5568.6648c.8352.2045,1.6918.4815,2.5696.8309s1.6918.8097,2.4418,1.3807s1.3551,1.2784,1.8153,2.1222c.4688.8437.7031,1.8537.7031,3.0298c0,1.483-.3835,2.7997-1.1505,3.9503-.7586,1.1506-1.8623,2.0582-3.3111,2.723-1.4404.6648-3.1833.9972-5.2287.9972-1.9602,0-3.6563-.3111-5.0881-.9333-1.4318-.6221-2.5525-1.5042-3.3622-2.6463-.8097-1.1506-1.2571-2.5142-1.3423-4.0909h3.963c.0767.946.3836,1.7344.9205,2.3651.5454.6221,1.2401,1.0866,2.0838,1.3934.8523.2983,1.7855.4475,2.7997.4475c1.1165,0,2.1094-.1747,2.9787-.5242.8779-.3579,1.5682-.8523,2.071-1.4829.5029-.6392.7543-1.385.7543-2.2372c0-.7756-.2216-1.4106-.6648-1.9049-.4346-.4943-1.027-.9034-1.777-1.2272-.7414-.3239-1.5809-.6094-2.5184-.8566l-3.0938-.8437c-2.0966-.5711-3.7585-1.4105-4.9858-2.5185-1.2187-1.108-1.8281-2.5739-1.8281-4.3977c0-1.5086.4091-2.8253,1.2273-3.9503s1.9261-1.9986,3.3238-2.62075c1.3978-.63068,2.9745-.94602,4.7301-.94602c1.7728,0,3.3367.31108,4.6918.93324c1.3636.62213,2.4375,1.47873,3.2216,2.56963.7841,1.0824,1.1932,2.3267,1.2273,3.7329h-3.8097ZM46.555,35.358c-1.6022,0-3.0426-.3069-4.321-.9205-1.2699-.6222-2.2841-1.4744-3.0426-2.5568s-1.1633-2.3182-1.2145-3.7074h3.8352c.0938,1.125.5924,2.0497,1.4958,2.7741.9034.7245,1.9858,1.0867,3.2471,1.0867c1.0057,0,1.8963-.2301,2.6719-.6903.7841-.4688,1.3977-1.1123,1.8409-1.9304.4517-.8182.6776-1.7515.6776-2.7998c0-1.0653-.2301-2.0156-.6904-2.8508-.4602-.8352-1.0951-1.4915-1.9048-1.9688-.8011-.4772-1.7216-.7201-2.7613-.7287-.7927,0-1.5895.1364-2.3907.4091-.8011.2728-1.4488.6307-1.9432,1.0739l-3.6179-.5369L39.9073,8.81818h14.3949v3.38782h-11.1094l-.8309,7.3252h.1534c.5113-.4943,1.1889-.9076,2.0326-1.24.8523-.3324,1.7642-.4986,2.7358-.4986c1.5938,0,3.0128.3793,4.2571,1.1378c1.2529.7585,2.2373,1.794,2.9532,3.1065.7244,1.304,1.0823,2.804,1.0738,4.5.0085,1.6961-.375,3.2088-1.1505,4.5384-.7671,1.3295-1.8324,2.3778-3.1961,3.1449-1.3551.7585-2.9105,1.1378-4.6662,1.1378Zm22.7973.0767c-2.0199-.0086-3.7458-.5412-5.1776-1.5981-1.4318-1.0568-2.527-2.5951-3.2855-4.615s-1.1378-4.4531-1.1378-7.2997c0-2.8381.3793-5.2628,1.1378-7.2742.7671-2.0113,1.8665-3.5454,3.2983-4.6022c1.4403-1.05686,3.1619-1.58527,5.1648-1.58527c2.0028,0,3.7201.53267,5.152,1.59797c1.4318,1.0569,2.527,2.5909,3.2855,4.6023.767,2.0029,1.1505,4.4233,1.1505,7.2614c0,2.8551-.3792,5.2926-1.1377,7.3125-.7586,2.0113-1.8537,3.5497-3.2856,4.615-1.4318,1.0569-3.1534,1.5853-5.1647,1.5853Zm0-3.4134c1.7727,0,3.1576-.8651,4.1548-2.5952c1.0057-1.7301,1.5085-4.2315,1.5085-7.5042c0-2.1733-.2301-4.01-.6903-5.51-.4517-1.5085-1.1037-2.6505-1.956-3.4261-.8437-.7841-1.8494-1.1761-3.017-1.1761-1.7642,0-3.1492.8693-4.1549,2.6079-1.0056,1.7386-1.5127,4.2401-1.5213,7.5043c0,2.1818.2259,4.027.6776,5.5355.4602,1.5,1.1122,2.6378,1.956,3.4133.8437.7671,1.8579,1.1506,3.0426,1.1506ZM83.5266,35v-19.6364h3.6691v3.1961h.2429c.4091-1.0824,1.0781-1.9262,2.0071-2.5313.9289-.6136,2.0412-.9204,3.3366-.9204c1.3125,0,2.4119.3068,3.2983.9204.8949.6136,1.5554,1.4574,1.9815,2.5313h.2046c.4687-1.0483,1.2145-1.8836,2.2373-2.5057c1.023-.6307,2.241-.946,3.656-.946c1.781,0,3.235.5582,4.36,1.6747c1.133,1.1164,1.7,2.7997,1.7,5.0497v13.1676h-3.823v-12.8097c0-1.3295-.362-2.2926-1.086-2.8892-.725-.5966-1.59-.8949-2.595-.8949-1.245,0-2.212.3836-2.9024,1.1506-.6904.7585-1.0355,1.7344-1.0355,2.9276v12.5156h-3.8097v-13.0526c0-1.0653-.3324-1.9218-.9972-2.5696-.6647-.6477-1.5298-.9716-2.5951-.9716-.7245,0-1.3935.1918-2.0071.5753-.6052.375-1.0952.8992-1.4702,1.5725-.3665.6733-.5497,1.4531-.5497,2.3395v12.1065h-3.8225Z" fill="#667085"/><path d="M13.8597,82.2727v-32.7272h2.0966v32.7272h-2.0966ZM20.418,59.696c-.1364-1.2102-.6989-2.1477-1.6875-2.8125-.9887-.6733-2.233-1.0099-3.733-1.0099-1.0738,0-2.0028.1704-2.7869.5113-.7841.3324-1.3935.7927-1.8281,1.3807-.42618.5796-.63925,1.2401-.63925,1.9816c0,.6221.14489,1.159.43465,1.6108.2983.4517.6861.8309,1.1634,1.1377.4858.2983,1.0056.5498,1.5596.7543.554.196,1.0867.358,1.598.4858l2.5569.6648c.8352.2045,1.6917.4815,2.5696.8309.8778.3495,1.6917.8097,2.4417,1.3807s1.3551,1.2784,1.8154,2.1222c.4687.8437.7031,1.8537.7031,3.0298c0,1.483-.3835,2.7997-1.1506,3.9503-.7585,1.1506-1.8622,2.0582-3.3111,2.723-1.4403.6648-3.1832.9972-5.2287.9972-1.9602,0-3.6562-.3111-5.08803-.9333s-2.55255-1.5042-3.36221-2.6463c-.80966-1.1506-1.2571-2.5142-1.34233-4.0909h3.96307c.0767.946.38352,1.7344.92045,2.3651.54545.6221,1.24005,1.0866,2.08385,1.3934.8522.2983,1.7855.4475,2.7997.4475c1.1165,0,2.1093-.1747,2.9787-.5242.8778-.3579,1.5681-.8523,2.071-1.4829.5028-.6392.7543-1.385.7543-2.2372c0-.7756-.2216-1.4106-.6648-1.9049-.4347-.4943-1.027-.9034-1.777-1.2272-.7415-.3239-1.581-.6094-2.5185-.8566l-3.0937-.8437c-2.0966-.5711-3.75855-1.4105-4.98582-2.5185-1.21875-1.108-1.82813-2.5739-1.82813-4.3977c0-1.5086.40909-2.8253,1.22728-3.9503s1.92613-1.9986,3.32387-2.6208c1.3977-.6306,2.9744-.946,4.7301-.946c1.7727,0,3.3367.3111,4.6918.9333c1.3636.6221,2.4375,1.4787,3.2216,2.5696.784,1.0824,1.1931,2.3267,1.2272,3.7329h-3.8096Zm18.4634-6.8778v26.1818h-3.9631v-22.2188h-.1534l-6.2642,4.091v-3.7841l6.5327-4.2699h3.848ZM55.0788,79.4347c-2.0199-.0086-3.7457-.5412-5.1775-1.5981s-2.527-2.5951-3.2855-4.615c-.7586-2.0199-1.1378-4.4531-1.1378-7.2997c0-2.8381.3792-5.2628,1.1378-7.2742.767-2.0113,1.8664-3.5454,3.2983-4.6022c1.4403-1.0569,3.1619-1.5853,5.1647-1.5853s3.7202.5327,5.152,1.598c1.4318,1.0569,2.527,2.5909,3.2855,4.6023.7671,2.0029,1.1506,4.4233,1.1506,7.2614c0,2.8551-.3793,5.2926-1.1378,7.3125-.7585,2.0113-1.8537,3.5497-3.2855,4.615-1.4318,1.0569-3.1534,1.5853-5.1648,1.5853Zm0-3.4134c1.7728,0,3.1577-.8651,4.1549-2.5952c1.0056-1.7301,1.5085-4.2315,1.5085-7.5042c0-2.1733-.2301-4.01-.6904-5.51-.4517-1.5085-1.1036-2.6505-1.9559-3.4261-.8438-.7841-1.8495-1.1761-3.0171-1.1761-1.7642,0-3.1491.8693-4.1548,2.6079s-1.5128,4.2401-1.5213,7.5043c0,2.1818.2259,4.027.6776,5.5355.4602,1.5,1.1122,2.6378,1.9559,3.4133.8438.7671,1.858,1.1506,3.0426,1.1506Zm23.2383,3.4134c-2.0199-.0086-3.7457-.5412-5.1775-1.5981-1.4319-1.0568-2.527-2.5951-3.2856-4.615-.7585-2.0199-1.1377-4.4531-1.1377-7.2997c0-2.8381.3792-5.2628,1.1377-7.2742.7671-2.0113,1.8665-3.5454,3.2983-4.6022c1.4404-1.0569,3.162-1.5853,5.1648-1.5853c2.0029,0,3.7202.5327,5.152,1.598c1.4318,1.0569,2.527,2.5909,3.2855,4.6023.7671,2.0029,1.1506,4.4233,1.1506,7.2614c0,2.8551-.3793,5.2926-1.1378,7.3125-.7585,2.0113-1.8537,3.5497-3.2855,4.615-1.4318,1.0569-3.1534,1.5853-5.1648,1.5853Zm0-3.4134c1.7727,0,3.1577-.8651,4.1548-2.5952c1.0057-1.7301,1.5086-4.2315,1.5086-7.5042c0-2.1733-.2301-4.01-.6904-5.51-.4517-1.5085-1.1037-2.6505-1.9559-3.4261-.8438-.7841-1.8495-1.1761-3.0171-1.1761-1.7642,0-3.1491.8693-4.1548,2.6079s-1.5128,4.2401-1.5213,7.5043c0,2.1818.2258,4.027.6775,5.5355.4603,1.5,1.1123,2.6378,1.956,3.4133.8438.7671,1.858,1.1506,3.0426,1.1506ZM92.4915,79v-19.6364h3.669v3.1961h.2429c.4091-1.0824,1.0781-1.9262,2.0071-2.5313.929-.6136,2.0415-.9204,3.3365-.9204c1.313,0,2.412.3068,3.298.9204.895.6136,1.556,1.4574,1.982,2.5313h.205c.468-1.0483,1.214-1.8836,2.237-2.5057c1.022-.6307,2.241-.946,3.656-.946c1.781,0,3.234.5582,4.359,1.6747c1.134,1.1164,1.701,2.7997,1.701,5.0497v13.1676h-3.823v-12.8097c0-1.3295-.362-2.2926-1.086-2.8892-.725-.5966-1.59-.8949-2.596-.8949-1.244,0-2.211.3836-2.902,1.1506-.69.7585-1.035,1.7344-1.035,2.9276v12.5156h-3.81v-13.0526c0-1.0653-.332-1.9218-.997-2.5696s-1.53-.9716-2.595-.9716c-.7245,0-1.3936.1918-2.0072.5753-.6051.375-1.0952.8992-1.4702,1.5725-.3664.6733-.5497,1.4531-.5497,2.3395v12.1065h-3.8224Z" fill="#667085"/><path d="M13.8168,126.273v-32.7275h2.0966v32.7275h-2.0966Zm6.5582-22.577c-.1364-1.21-.6989-2.148-1.6875-2.812-.9886-.674-2.233-1.0104-3.733-1.0104-1.0738,0-2.0028.1704-2.7869.5114-.7841.332-1.3935.793-1.8281,1.381-.42615.579-.63922,1.24-.63922,1.981c0,.622.14489,1.159.43462,1.611.2983.452.6861.831,1.1634,1.138.4858.298,1.0057.549,1.5597.754.5539.196,1.0866.358,1.598.486l2.5568.665c.8352.204,1.6917.481,2.5696.831.8778.349,1.6917.809,2.4417,1.38s1.3552,1.279,1.8154,2.122c.4687.844.7031,1.854.7031,3.03c0,1.483-.3835,2.8-1.1506,3.95-.7585,1.151-1.8622,2.059-3.311,2.724-1.4404.664-3.1833.997-5.2287.997-1.9603,0-3.6563-.311-5.0881-.934-1.43181-.622-2.55255-1.504-3.36221-2.646-.80966-1.15-1.2571-2.514-1.34233-4.091h3.96307c.0767.946.38352,1.735.92045,2.365.54542.622,1.24002,1.087,2.08382,1.394.8523.298,1.7855.447,2.7997.447c1.1165,0,2.1094-.175,2.9787-.524.8778-.358,1.5682-.852,2.071-1.483.5029-.639.7543-1.385.7543-2.237c0-.776-.2216-1.411-.6648-1.905-.4346-.494-1.027-.903-1.777-1.227-.7415-.324-1.5809-.61-2.5184-.857l-3.0938-.844c-2.0966-.571-3.75852-1.41-4.98579-2.518-1.21875-1.108-1.82813-2.574-1.82813-4.398c0-1.508.4091-2.825,1.22728-3.95s1.92613-1.9986,3.32384-2.6208c1.3977-.6306,2.9745-.946,4.7301-.946c1.7728,0,3.3367.3111,4.6918.9333c1.3636.6221,2.4375,1.4787,3.2216,2.5696.7841,1.0819,1.1932,2.3269,1.2273,3.7329h-3.8097Zm18.4634-6.8778v26.1818h-3.963v-22.219h-.1535l-6.2642,4.091v-3.784l6.5327-4.2698h3.848ZM54.5629,123.358c-1.6023,0-3.0427-.307-4.3211-.92-1.2699-.623-2.2841-1.475-3.0426-2.557-.7585-1.083-1.1633-2.319-1.2145-3.708h3.8353c.0937,1.125.5923,2.05,1.4957,2.774.9034.725,1.9858,1.087,3.2472,1.087c1.0056,0,1.8963-.23,2.6718-.69.7841-.469,1.3978-1.112,1.8409-1.931.4517-.818.6776-1.751.6776-2.799c0-1.066-.2301-2.016-.6903-2.851s-1.0952-1.492-1.9049-1.969c-.8011-.477-1.7216-.72-2.7613-.729-.7927,0-1.5895.137-2.3907.409-.8011.273-1.4488.631-1.9431,1.074l-3.6179-.537l1.4701-13.1928h14.3949v3.3878h-11.1094l-.8309,7.325h.1534c.5113-.494,1.1889-.907,2.0327-1.24.8522-.332,1.7642-.498,2.7357-.498c1.5938,0,3.0128.379,4.2572,1.137c1.2528.759,2.2372,1.794,2.9531,3.107.7244,1.304,1.0824,2.804,1.0738,4.5.0086,1.696-.375,3.209-1.1505,4.538-.7671,1.33-1.8324,2.378-3.1961,3.145-1.3551.759-2.9105,1.138-4.6661,1.138Zm22.7972.077c-2.0199-.009-3.7458-.542-5.1776-1.598-1.4318-1.057-2.527-2.596-3.2855-4.615-.7585-2.02-1.1378-4.454-1.1378-7.3c0-2.838.3793-5.263,1.1378-7.274.7671-2.012,1.8665-3.5457,3.2983-4.6025c1.4404-1.0569,3.1619-1.5853,5.1648-1.5853c2.0028,0,3.7202.5327,5.152,1.598c1.4318,1.0569,2.527,2.5908,3.2855,4.6028.767,2.002,1.1506,4.423,1.1506,7.261c0,2.855-.3793,5.292-1.1378,7.312-.7586,2.012-1.8537,3.55-3.2855,4.615-1.4319,1.057-3.1535,1.586-5.1648,1.586Zm0-3.414c1.7727,0,3.1577-.865,4.1548-2.595c1.0057-1.73,1.5085-4.231,1.5085-7.504c0-2.173-.2301-4.01-.6903-5.51-.4517-1.509-1.1037-2.651-1.956-3.426-.8437-.784-1.8494-1.1763-3.017-1.1763-1.7642,0-3.1492.8693-4.1548,2.6083-1.0057,1.738-1.5128,4.24-1.5214,7.504c0,2.182.2259,4.027.6776,5.535.4602,1.5,1.1122,2.638,1.956,3.414.8437.767,1.8579,1.15,3.0426,1.15ZM91.5344,123v-19.636h3.6691v3.196h.2429c.4091-1.083,1.0781-1.926,2.0071-2.532.929-.613,2.0412-.92,3.3365-.92c1.313,0,2.412.307,3.298.92.895.614,1.556,1.458,1.982,2.532h.205c.468-1.049,1.214-1.884,2.237-2.506c1.022-.631,2.241-.946,3.656-.946c1.781,0,3.234.558,4.359,1.675c1.134,1.116,1.701,2.799,1.701,5.049v13.168h-3.823v-12.81c0-1.329-.362-2.292-1.086-2.889-.725-.596-1.59-.895-2.596-.895-1.244,0-2.211.384-2.902,1.151-.69.758-1.035,1.734-1.035,2.927v12.516h-3.81v-13.053c0-1.065-.332-1.921-.997-2.569s-1.53-.972-2.5951-.972c-.7245,0-1.3935.192-2.0071.576-.6051.375-1.0952.899-1.4702,1.572-.3665.673-.5497,1.453-.5497,2.339v12.107h-3.8225Z" fill="#667085"/><path d="M10.8285,170.273v-32.728h2.0966v32.728h-2.0966Zm6.5582-22.577c-.1363-1.21-.6988-2.148-1.6875-2.812-.9886-.674-2.2329-1.01-3.7329-1.01-1.0739,0-2.00288.17-2.78697.511-.78409.332-1.39346.793-1.82812,1.381-.42614.579-.63921,1.24-.63921,1.981c0,.622.14489,1.159.43466,1.611.2983.452.68608.831,1.16335,1.138.4858.298,1.00569.549,1.55966.754.55403.196,1.08663.358,1.59803.486l2.5568.665c.8352.204,1.6918.481,2.5696.831.8778.349,1.6918.809,2.4418,1.38s1.3551,1.279,1.8153,2.122c.4688.844.7031,1.854.7031,3.03c0,1.483-.3835,2.8-1.1505,3.95-.7586,1.151-1.8623,2.059-3.3111,2.724-1.4404.664-3.1833.997-5.2287.997-1.96024,0-3.65626-.311-5.08808-.934-1.43181-.622-2.55255-1.504-3.36221-2.646-.80966-1.15-1.2571-2.514-1.34233-4.091h3.96307c.0767.946.38352,1.735.92045,2.365.54546.622,1.24006,1.087,2.08381,1.394.85227.298,1.78549.447,2.79969.447c1.1165,0,2.1094-.175,2.9787-.524.8779-.358,1.5682-.852,2.071-1.483.5029-.639.7543-1.385.7543-2.237c0-.776-.2216-1.411-.6648-1.905-.4346-.494-1.027-.903-1.777-1.227-.7414-.324-1.5809-.61-2.5184-.857l-3.09378-.844c-2.09659-.571-3.75852-1.41-4.98579-2.518-1.21875-1.108-1.82813-2.574-1.82813-4.398c0-1.508.40909-2.825,1.22728-3.95s1.92613-1.999,3.32386-2.621c1.39773-.63,2.97446-.946,4.73016-.946c1.7727,0,3.3366.311,4.6917.933c1.3637.623,2.4375,1.479,3.2216,2.57.7841,1.082,1.1932,2.327,1.2273,3.733h-3.8097ZM25.9169,167v-2.864l8.8594-9.179c.946-.997,1.7258-1.87,2.3395-2.62.6221-.759,1.0866-1.479,1.3934-2.161s.4603-1.406.4603-2.173c0-.869-.2046-1.619-.6137-2.25-.4091-.639-.9673-1.129-1.6747-1.47-.7074-.35-1.5043-.524-2.3906-.524-.9375,0-1.7557.191-2.4546.575-.6988.383-1.2358.925-1.6108,1.623-.375.699-.5625,1.517-.5625,2.455h-3.7713c0-1.594.3665-2.987,1.0995-4.18.7329-1.194,1.7386-2.118,3.017-2.775c1.2784-.664,2.7315-.997,4.3594-.997c1.6449,0,3.0937.328,4.3466.985c1.2613.647,2.2457,1.534,2.9531,2.659.7074,1.116,1.0611,2.378,1.0611,3.784c0,.971-.1833,1.922-.5497,2.851-.358.929-.9844,1.964-1.8793,3.106-.8949,1.134-2.1392,2.51-3.7329,4.129l-5.2032,5.446v.192h11.787v3.388h-17.233Zm31.1932.435c-2.0199-.009-3.7458-.542-5.1776-1.598-1.4318-1.057-2.527-2.596-3.2855-4.615-.7585-2.02-1.1378-4.454-1.1378-7.3c0-2.838.3793-5.263,1.1378-7.274.7671-2.012,1.8665-3.546,3.2983-4.603c1.4404-1.056,3.1619-1.585,5.1648-1.585c2.0028,0,3.7202.533,5.152,1.598c1.4318,1.057,2.527,2.591,3.2855,4.603.767,2.002,1.1506,4.423,1.1506,7.261c0,2.855-.3793,5.292-1.1378,7.312-.7586,2.012-1.8537,3.55-3.2855,4.615-1.4319,1.057-3.1535,1.586-5.1648,1.586Zm0-3.414c1.7727,0,3.1577-.865,4.1548-2.595c1.0057-1.73,1.5085-4.231,1.5085-7.504c0-2.173-.2301-4.01-.6903-5.51-.4517-1.509-1.1037-2.651-1.956-3.426-.8437-.784-1.8494-1.176-3.017-1.176-1.7642,0-3.1492.869-4.1548,2.608-1.0057,1.738-1.5128,4.24-1.5214,7.504c0,2.182.2259,4.027.6776,5.535.4602,1.5,1.1122,2.638,1.956,3.414.8437.767,1.8579,1.15,3.0426,1.15Zm23.2383,3.414c-2.0199-.009-3.7458-.542-5.1776-1.598-1.4318-1.057-2.527-2.596-3.2855-4.615-.7585-2.02-1.1378-4.454-1.1378-7.3c0-2.838.3793-5.263,1.1378-7.274.767-2.012,1.8665-3.546,3.2983-4.603c1.4403-1.056,3.1619-1.585,5.1648-1.585s3.7201.533,5.152,1.598c1.4318,1.057,2.5269,2.591,3.2855,4.603.767,2.002,1.1505,4.423,1.1505,7.261c0,2.855-.3792,5.292-1.1377,7.312-.7586,2.012-1.8537,3.55-3.2856,4.615-1.4318,1.057-3.1534,1.586-5.1647,1.586Zm0-3.414c1.7727,0,3.1576-.865,4.1548-2.595c1.0057-1.73,1.5085-4.231,1.5085-7.504c0-2.173-.2301-4.01-.6903-5.51-.4517-1.509-1.1037-2.651-1.956-3.426-.8437-.784-1.8494-1.176-3.017-1.176-1.7642,0-3.1492.869-4.1549,2.608-1.0056,1.738-1.5127,4.24-1.5213,7.504c0,2.182.2259,4.027.6776,5.535.4602,1.5,1.1122,2.638,1.956,3.414.8437.767,1.8579,1.15,3.0426,1.15ZM94.5227,167v-19.636h3.6691v3.196h.2429c.4091-1.083,1.0781-1.926,2.0073-2.532.929-.613,2.041-.92,3.336-.92c1.313,0,2.412.307,3.299.92.895.614,1.555,1.458,1.981,2.532h.205c.469-1.049,1.214-1.884,2.237-2.506c1.023-.631,2.241-.946,3.656-.946c1.782,0,3.235.558,4.36,1.675c1.133,1.116,1.7,2.799,1.7,5.049v13.168h-3.823v-12.81c0-1.329-.362-2.292-1.086-2.889-.725-.596-1.59-.895-2.595-.895-1.245,0-2.212.384-2.902,1.151-.691.758-1.036,1.734-1.036,2.927v12.516h-3.81v-13.053c0-1.065-.332-1.921-.997-2.569-.664-.648-1.529-.972-2.595-.972-.724,0-1.393.192-2.007.576-.6051.375-1.0951.899-1.4701,1.572-.3665.673-.5497,1.453-.5497,2.339v12.107h-3.8225Z" fill="#667085"/></g></g><mask id="ekyIDeV5hbU14" mask-type="luminance"><rect width="119.14462" height="32.72725" rx="0" ry="0" transform="matrix(1 0 0 1.278974 345.571189 137.275476)" fill="#d2dbed" stroke-width="0"/></mask></g></g></svg>
