<svg id="etkZcwh2Fy61" xmlns="http://www.w3.org/2000/svg" xmlns:xlink="http://www.w3.org/1999/xlink" viewBox="0 0 810 150" shape-rendering="geometricPrecision" text-rendering="geometricPrecision">
<style><![CDATA[
#etkZcwh2Fy65_to {animation: etkZcwh2Fy65_to__to 7800ms linear infinite normal forwards}@keyframes etkZcwh2Fy65_to__to { 0% {transform: translate(117.5px,110px)} 2.564103% {transform: translate(117.5px,110px);animation-timing-function: cubic-bezier(0.165,0.43,0.745,0.495)} 15.384615% {transform: translate(373px,110px);animation-timing-function: cubic-bezier(0.165,0.43,0.745,0.495)} 28.205128% {transform: translate(431.475005px,110px);animation-timing-function: cubic-bezier(0.165,0.43,0.745,0.495)} 41.025641% {transform: translate(687px,110px);animation-timing-function: cubic-bezier(0.165,0.43,0.745,0.495)} 53.846154% {transform: translate(691px,110px);animation-timing-function: cubic-bezier(0.165,0.43,0.745,0.495)} 66.666667% {transform: translate(433px,110px);animation-timing-function: cubic-bezier(0.165,0.43,0.745,0.495)} 79.487179% {transform: translate(379px,110px);animation-timing-function: cubic-bezier(0.165,0.43,0.745,0.495)} 92.307692% {transform: translate(120px,110px)} 100% {transform: translate(120px,110px)}} #etkZcwh2Fy65_ts {animation: etkZcwh2Fy65_ts__ts 7800ms linear infinite normal forwards}@keyframes etkZcwh2Fy65_ts__ts { 0% {transform: scale(1,1)} 2.564103% {transform: scale(1,1)} 8.974359% {transform: scale(0.75,0.75)} 15.384615% {transform: scale(1,1)} 28.205128% {transform: scale(1,1)} 34.615385% {transform: scale(0.75,0.75)} 41.025641% {transform: scale(1,1)} 53.846154% {transform: scale(1,1)} 60.25641% {transform: scale(0.75,0.75)} 66.666667% {transform: scale(1,1)} 79.487179% {transform: scale(1,1)} 85.897436% {transform: scale(0.75,0.75)} 92.307692% {transform: scale(1,1)} 100% {transform: scale(1,1)}} #etkZcwh2Fy65 {animation: etkZcwh2Fy65_f_p 7800ms linear infinite normal forwards}@keyframes etkZcwh2Fy65_f_p { 0% {fill: #d0d5dd} 2.564103% {fill: #d0d5dd} 15.384615% {fill: #e84142} 28.205128% {fill: #e84142} 41.025641% {fill: #8247e5} 53.846154% {fill: #8247e5} 66.666667% {fill: #e84142} 79.487179% {fill: #e84142} 92.307692% {fill: #d0d5dd} 100% {fill: #d0d5dd}} #etkZcwh2Fy66_ts {animation: etkZcwh2Fy66_ts__ts 7800ms linear infinite normal forwards}@keyframes etkZcwh2Fy66_ts__ts { 0% {transform: translate(93.5px,109.5px) scale(1,1)} 2.564103% {transform: translate(93.5px,109.5px) scale(0.9,0.9)} 5.128205% {transform: translate(93.5px,109.5px) scale(1,1)} 89.74359% {transform: translate(93.5px,109.5px) scale(1,1)} 92.307692% {transform: translate(93.5px,109.5px) scale(1.1,1.1)} 94.871795% {transform: translate(93.5px,109.5px) scale(1,1)} 100% {transform: translate(93.5px,109.5px) scale(1,1)}} #etkZcwh2Fy66 {animation: etkZcwh2Fy66__fl 7800ms linear infinite normal forwards}@keyframes etkZcwh2Fy66__fl { 0% {filter: drop-shadow(0px 0px 21.213203px #d0d5dd)} 5.128205% {filter: drop-shadow(0px 0px 21.213203px rgba(208,213,221,0))} 89.74359% {filter: drop-shadow(0px 0px 21.213203px rgba(208,213,221,0))} 94.871795% {filter: drop-shadow(0px 0px 21.213203px #d0d5dd)} 100% {filter: drop-shadow(0px 0px 21.213203px #d0d5dd)}} #etkZcwh2Fy617_ts {animation: etkZcwh2Fy617_ts__ts 7800ms linear infinite normal forwards}@keyframes etkZcwh2Fy617_ts__ts { 0% {transform: translate(404.5px,109.5px) scale(1,1)} 12.820513% {transform: translate(404.5px,109.5px) scale(1,1)} 15.384615% {transform: translate(404.5px,109.5px) scale(1.1,1.1)} 17.948718% {transform: translate(404.5px,109.5px) scale(1,1)} 24.358974% {transform: translate(404.5px,109.5px) scale(1,1)} 26.923077% {transform: translate(404.5px,109.5px) scale(0.9,0.9)} 29.487179% {transform: translate(404.5px,109.5px) scale(1,1)} 64.102564% {transform: translate(404.5px,109.5px) scale(1,1)} 66.666667% {transform: translate(404.5px,109.5px) scale(1.1,1.1)} 69.230769% {transform: translate(404.5px,109.5px) scale(1,1)} 76.923077% {transform: translate(404.5px,109.5px) scale(1,1)} 79.487179% {transform: translate(404.5px,109.5px) scale(0.9,0.9)} 82.051282% {transform: translate(404.5px,109.5px) scale(1,1)} 100% {transform: translate(404.5px,109.5px) scale(1,1)}} #etkZcwh2Fy617 {animation: etkZcwh2Fy617__fl 7800ms linear infinite normal forwards}@keyframes etkZcwh2Fy617__fl { 0% {filter: drop-shadow(0px 0px 0px #000)} 12.820513% {filter: drop-shadow(0px 0px 0px #000)} 17.948718% {filter: drop-shadow(0px 0px 21.213203px #e84142)} 24.358974% {filter: drop-shadow(0px 0px 21.213203px #e84142)} 29.487179% {filter: drop-shadow(0px 0px 21.213203px rgba(232,65,66,0))} 64.102564% {filter: drop-shadow(0px 0px 21.213203px rgba(232,65,66,0))} 69.230769% {filter: drop-shadow(0px 0px 21.213203px #e84142)} 76.923077% {filter: drop-shadow(0px 0px 21.213203px #e84142)} 82.051282% {filter: drop-shadow(0px 0px 21.213203px rgba(232,65,66,0))} 100% {filter: drop-shadow(0px 0px 21.213203px rgba(232,65,66,0))}} #etkZcwh2Fy622_ts {animation: etkZcwh2Fy622_ts__ts 7800ms linear infinite normal forwards}@keyframes etkZcwh2Fy622_ts__ts { 0% {transform: translate(714.5px,109.5px) scale(1,1)} 38.461538% {transform: translate(714.5px,109.5px) scale(1,1)} 41.025641% {transform: translate(714.5px,109.5px) scale(1.1,1.1)} 43.589744% {transform: translate(714.5px,109.5px) scale(1,1)} 51.282051% {transform: translate(714.5px,109.5px) scale(1,1)} 53.846154% {transform: translate(714.5px,109.5px) scale(0.9,0.9)} 56.410256% {transform: translate(714.5px,109.5px) scale(1,1)} 100% {transform: translate(714.5px,109.5px) scale(1,1)}} #etkZcwh2Fy622 {animation: etkZcwh2Fy622__fl 7800ms linear infinite normal forwards}@keyframes etkZcwh2Fy622__fl { 0% {filter: drop-shadow(0px 0px 21.213203px rgba(130,71,229,0))} 38.461538% {filter: drop-shadow(0px 0px 21.213203px rgba(130,71,229,0))} 43.589744% {filter: drop-shadow(0px 0px 21.213203px #8247e5)} 51.282051% {filter: drop-shadow(0px 0px 21.213203px #8247e5)} 56.410256% {filter: drop-shadow(0px 0px 21.213203px rgba(130,71,229,0))} 100% {filter: drop-shadow(0px 0px 21.213203px rgba(130,71,229,0))}}
]]></style>
<defs><linearGradient id="etkZcwh2Fy63-stroke" x1="445.118" y1="110" x2="648.551" y2="110" spreadMethod="pad" gradientUnits="userSpaceOnUse" gradientTransform="translate(0 0)"><stop id="etkZcwh2Fy63-stroke-0" offset="0%" stop-color="#e84142"/><stop id="etkZcwh2Fy63-stroke-1" offset="100%" stop-color="#8247e5"/></linearGradient><linearGradient id="etkZcwh2Fy64-stroke" x1="367" y1="110" x2="131" y2="110" spreadMethod="pad" gradientUnits="userSpaceOnUse" gradientTransform="translate(0 0)"><stop id="etkZcwh2Fy64-stroke-0" offset="0%" stop-color="#e84142"/><stop id="etkZcwh2Fy64-stroke-1" offset="100%" stop-color="#d0d5dd"/></linearGradient></defs><g transform="translate(0-34.5)"><path d="M442,110h235" transform="matrix(1.031915 0 0 1.031916-17.856442-3.51076)" fill="none" stroke="url(#etkZcwh2Fy63-stroke)" stroke-width="2" stroke-linecap="round"/><path d="M131,110h236" transform="matrix(1.038136 0 0 1.038136-9.495864-4.19496)" fill="none" stroke="url(#etkZcwh2Fy64-stroke)" stroke-width="2" stroke-linecap="round"/><g id="etkZcwh2Fy65_to" transform="translate(117.5,110)"><g id="etkZcwh2Fy65_ts" transform="scale(1,1)"><circle id="etkZcwh2Fy65" r="9" transform="translate(0,0)" fill="#d0d5dd"/></g></g><g id="etkZcwh2Fy66_ts" transform="translate(93.5,109.5) scale(1,1)"><g id="etkZcwh2Fy66" style="filter:drop-shadow(0px 0px 21.213203px #d0d5dd)" transform="translate(-93.5,-109.5)"><g><circle r="37.5" transform="translate(93.5 109.5)" fill="#fff"/><circle r="36.5" transform="translate(93.5 109.5)" fill="none" stroke="#d0d5dd" stroke-width="2"/></g><g><path d="M93.0734,77.8594l-.4258,1.4414v41.8272l.4258.424l19.4956-11.477L93.0734,77.8594Z" fill="#343434"/><path d="M93.0739,77.8594L73.5781,110.075l19.4958,11.477v-20.302-23.3906Z" fill="#8c8c8c"/><path d="M93.0729,125.228l-.24.291v14.9l.24.698l19.5071-27.36-19.5071,11.471Z" fill="#3c3c3b"/><path d="M93.0739,141.117v-15.889L73.5781,113.757l19.4958,27.36Z" fill="#8c8c8c"/><path d="M93.0734,121.551l19.4956-11.476-19.4956-8.825v20.301Z" fill="#141414"/><path d="M73.5781,110.075l19.4955,11.476v-20.301l-19.4955,8.825Z" fill="#393939"/></g></g></g><g id="etkZcwh2Fy617_ts" transform="translate(404.5,109.5) scale(1,1)"><g id="etkZcwh2Fy617" style="filter:drop-shadow(0px 0px 0px #000)" transform="translate(-404.5,-109.5)"><circle r="37.5" transform="translate(404.5 109.5)" fill="#e84142"/><g><path d="M385.585,123.415h7.278c1.713,0,2.57,0,3.335-.212.838-.249,1.603-.691,2.238-1.299.584-.556,1.005-1.293,1.836-2.748l.025-.043l9.439-16.686c.838-1.464,1.253-2.201,1.437-2.9752.203-.8384.203-1.7227,0-2.5611-.183-.768-.602-1.4997-1.427-2.9426l-3.713-6.4815c-.765-1.345-1.152-2.0175-1.64-2.2662-.525-.2672-1.152-.2672-1.677,0-.488.2487-.875.9212-1.64,2.2662L383.107,119.14c-.756,1.327-1.133,1.99-1.106,2.534.037.589.341,1.124.839,1.446.46.295,1.216.295,2.745.295Z" fill="#fff"/><path d="M421.669,123.415h-10.428c-1.538,0-2.312,0-2.763-.295-.498-.322-.802-.866-.839-1.455-.027-.539.354-1.197,1.115-2.512h.001l.017-.031l5.205-8.936c.765-1.317,1.152-1.971,1.631-2.22.525-.267,1.142-.267,1.667,0c.476.242.846.869,1.58,2.109l.001.001.059.101l5.224,8.936c.025.044.05.087.075.13v0c.724,1.249,1.094,1.887,1.067,2.413-.028.589-.341,1.133-.838,1.455-.461.304-1.235.304-2.774.304Z" fill="#fff"/></g></g></g><g id="etkZcwh2Fy622_ts" transform="translate(714.5,109.5) scale(1,1)"><g id="etkZcwh2Fy622" style="filter:drop-shadow(0px 0px 21.213203px rgba(130,71,229,0))" transform="translate(-714.5,-109.5)"><circle r="37.5" transform="translate(714.5 109.5)" fill="#8247e5"/><path d="M727.779,101.333c-.901-.516-2.052-.516-3.07,0l-7.172,4.25-4.871,2.7-7.039,4.234c-.9.517-2.052.517-3.07,0l-5.505-3.349c-.9-.516-1.534-1.549-1.534-2.7v-6.433c0-1.0332.516-2.0513,1.534-2.7005l5.505-3.2166c.9-.5164,2.052-.5164,3.07,0l5.505,3.3494c.9.5164,1.534,1.5493,1.534,2.6997v4.25l4.871-2.833v-4.3675c0-1.0329-.517-2.051-1.535-2.7003L705.76,88.4667c-.901-.5165-2.052-.5165-3.07,0l-10.493,6.1824c-1.018.5164-1.535,1.5492-1.535,2.5674v12.0845c0,1.033.517,2.051,1.535,2.7l10.375,6.05c.9.516,2.051.516,3.07,0l7.039-4.117l4.87-2.833l7.04-4.117c.9-.516,2.051-.516,3.069,0l5.505,3.217c.9.516,1.535,1.549,1.535,2.7v6.433c0,1.033-.516,2.051-1.535,2.7l-5.372,3.217c-.9.516-2.051.516-3.069,0l-5.52-3.217c-.9-.516-1.535-1.549-1.535-2.7v-4.116l-4.87,2.833v4.249c0,1.033.517,2.051,1.535,2.7l10.375,6.05c.9.516,2.051.516,3.07,0L738.153,125c.901-.516,1.535-1.549,1.535-2.7v-12.217c0-1.033-.516-2.051-1.535-2.7l-10.374-6.05Z" fill="#fff"/></g></g></g></svg>
