<svg width="1200" height="631" viewBox="0 0 1200 631" fill="none" xmlns="http://www.w3.org/2000/svg">
<g clip-path="url(#clip0_1930_1178)">
<rect width="1200" height="630" transform="translate(0 0.283203)" fill="black"/>
<g filter="url(#filter0_f_1930_1178)">
<mask id="mask0_1930_1178" style="mask-type:alpha" maskUnits="userSpaceOnUse" x="37" y="577" width="1125" height="1125">
<circle cx="599.538" cy="1139.54" r="561.823" transform="rotate(45 599.538 1139.54)" fill="white"/>
</mask>
<g mask="url(#mask0_1930_1178)">
<g filter="url(#filter1_d_1930_1178)">
<circle cx="699.997" cy="1138.58" r="520.613" transform="rotate(45 699.997 1138.58)" fill="url(#paint0_linear_1930_1178)"/>
<ellipse cx="395.744" cy="1138.84" rx="581.344" ry="555.922" transform="rotate(45 395.744 1138.84)" fill="#B8B999"/>
<circle cx="220.086" cy="1139.5" r="561.823" transform="rotate(45 220.086 1139.5)" fill="url(#paint1_linear_1930_1178)"/>
</g>
</g>
</g>
<path d="M194.938 321.241C207.889 328.235 221.402 335.555 231.84 341.22L268.439 321.241C255.187 341.26 244.145 357.927 231.84 376.372C219.512 357.968 205.898 337.659 194.938 321.241ZM196.346 315.719L231.88 296.438L266.951 315.578L231.9 334.88L196.346 315.719ZM231.84 290.26L194.938 310.014L231.679 255.312L268.439 310.137L231.84 290.26Z" fill="#ECFDF5"/>
<path d="M231.84 341.22L268.439 321.241C255.187 341.26 231.84 376.372 231.84 376.372V341.22ZM231.88 296.438L266.951 315.578L231.9 334.88L231.88 296.438ZM231.84 290.261L231.679 255.312L268.439 310.137L231.84 290.261Z" fill="#ECFDF5"/>
<path d="M196.346 315.719L231.882 318.685L266.953 315.597L231.9 334.901L196.346 315.719Z" fill="#ECFDF5"/>
<path d="M231.88 318.685L266.951 315.597L231.9 334.901L231.88 318.685Z" fill="#ECFDF5"/>
<path d="M974.342 323.43C974.342 319.387 975.127 315.868 976.696 312.871C978.313 309.875 980.525 307.592 983.331 306.023C986.184 304.406 989.442 303.597 993.104 303.597C997.955 303.597 1001.93 304.81 1005.02 307.236C1008.16 309.661 1010.11 312.919 1010.87 317.009H1007.51C1006.9 313.68 1005.28 311.064 1002.66 309.162C1000.1 307.259 996.909 306.308 993.104 306.308C990.251 306.308 987.659 306.95 985.328 308.234C982.998 309.471 981.119 311.397 979.693 314.013C978.313 316.581 977.624 319.72 977.624 323.43C977.624 327.187 978.313 330.349 979.693 332.918C981.119 335.486 982.998 337.412 985.328 338.696C987.659 339.98 990.251 340.622 993.104 340.622C996.909 340.622 1000.1 339.671 1002.66 337.769C1005.28 335.866 1006.9 333.251 1007.51 329.921H1010.87C1010.11 333.964 1008.16 337.222 1005.02 339.695C1001.88 342.168 997.908 343.404 993.104 343.404C989.442 343.404 986.184 342.596 983.331 340.979C980.525 339.362 978.313 337.055 976.696 334.059C975.127 331.015 974.342 327.472 974.342 323.43Z" fill="#ECFDF5"/>
<path d="M956.938 295.465C956.177 295.465 955.535 295.227 955.012 294.751C954.489 294.228 954.227 293.539 954.227 292.683C954.227 291.874 954.489 291.208 955.012 290.685C955.535 290.162 956.177 289.9 956.938 289.9C957.699 289.9 958.341 290.162 958.864 290.685C959.387 291.208 959.649 291.874 959.649 292.683C959.649 293.539 959.387 294.228 958.864 294.751C958.341 295.227 957.699 295.465 956.938 295.465ZM958.508 304.097V342.834H955.297V304.097H958.508Z" fill="#ECFDF5"/>
<path d="M926.685 343.404C922.358 343.404 918.814 342.453 916.056 340.551C913.345 338.648 911.823 335.938 911.49 332.418H914.772C915.01 334.939 916.151 336.936 918.196 338.411C920.289 339.885 923.119 340.622 926.685 340.622C929.634 340.622 931.965 339.885 933.677 338.411C935.436 336.889 936.316 335.034 936.316 332.846C936.316 331.324 935.841 330.088 934.889 329.137C933.986 328.138 932.844 327.377 931.465 326.854C930.086 326.331 928.207 325.76 925.829 325.142C922.976 324.381 920.669 323.644 918.91 322.93C917.15 322.169 915.652 321.052 914.415 319.577C913.179 318.103 912.56 316.129 912.56 313.656C912.56 311.849 913.107 310.184 914.201 308.662C915.295 307.093 916.817 305.856 918.767 304.953C920.717 304.049 922.928 303.597 925.401 303.597C929.444 303.597 932.702 304.62 935.175 306.665C937.695 308.662 939.051 311.445 939.241 315.012H936.031C935.888 312.443 934.889 310.351 933.035 308.734C931.18 307.117 928.612 306.308 925.33 306.308C922.572 306.308 920.289 307.022 918.482 308.448C916.674 309.875 915.771 311.611 915.771 313.656C915.771 315.463 916.27 316.938 917.269 318.079C918.315 319.173 919.575 320.029 921.05 320.647C922.572 321.218 924.569 321.836 927.042 322.502C929.753 323.216 931.917 323.929 933.534 324.642C935.199 325.308 936.602 326.307 937.743 327.639C938.884 328.923 939.455 330.659 939.455 332.846C939.455 334.844 938.908 336.651 937.814 338.268C936.721 339.885 935.199 341.145 933.249 342.049C931.299 342.953 929.111 343.404 926.685 343.404Z" fill="#ECFDF5"/>
<path d="M885.161 343.404C880.833 343.404 877.29 342.453 874.532 340.551C871.821 338.648 870.299 335.938 869.966 332.418H873.248C873.486 334.939 874.627 336.936 876.672 338.411C878.765 339.885 881.594 340.622 885.161 340.622C888.11 340.622 890.44 339.885 892.153 338.411C893.912 336.889 894.792 335.034 894.792 332.846C894.792 331.324 894.317 330.088 893.365 329.137C892.462 328.138 891.32 327.377 889.941 326.854C888.562 326.331 886.683 325.76 884.305 325.142C881.452 324.381 879.145 323.644 877.385 322.93C875.626 322.169 874.128 321.052 872.891 319.577C871.655 318.103 871.036 316.129 871.036 313.656C871.036 311.849 871.583 310.184 872.677 308.662C873.771 307.093 875.293 305.856 877.243 304.953C879.193 304.049 881.404 303.597 883.877 303.597C887.92 303.597 891.178 304.62 893.651 306.665C896.171 308.662 897.527 311.445 897.717 315.012H894.507C894.364 312.443 893.365 310.351 891.51 308.734C889.656 307.117 887.088 306.308 883.806 306.308C881.048 306.308 878.765 307.022 876.957 308.448C875.15 309.875 874.247 311.611 874.247 313.656C874.247 315.463 874.746 316.938 875.745 318.079C876.791 319.173 878.051 320.029 879.526 320.647C881.047 321.218 883.045 321.836 885.518 322.502C888.229 323.216 890.393 323.929 892.01 324.642C893.674 325.308 895.077 326.307 896.219 327.639C897.36 328.923 897.931 330.659 897.931 332.846C897.931 334.844 897.384 336.651 896.29 338.268C895.196 339.885 893.674 341.145 891.725 342.049C889.775 342.953 887.587 343.404 885.161 343.404Z" fill="#ECFDF5"/>
<path d="M816.187 323.43C816.187 319.435 816.972 315.939 818.542 312.943C820.159 309.947 822.37 307.64 825.176 306.023C828.03 304.406 831.264 303.597 834.878 303.597C838.968 303.597 842.44 304.596 845.294 306.594C848.147 308.591 850.145 311.136 851.286 314.227V304.097H854.496V342.834H851.286V332.632C850.145 335.771 848.123 338.363 845.222 340.408C842.369 342.406 838.921 343.404 834.878 343.404C831.264 343.404 828.03 342.596 825.176 340.979C822.37 339.314 820.159 336.984 818.542 333.988C816.972 330.944 816.187 327.425 816.187 323.43ZM851.286 323.43C851.286 320.053 850.573 317.08 849.146 314.512C847.767 311.896 845.864 309.899 843.439 308.52C841.013 307.093 838.302 306.38 835.306 306.38C832.167 306.38 829.409 307.069 827.031 308.448C824.653 309.78 822.798 311.73 821.466 314.298C820.135 316.866 819.469 319.91 819.469 323.43C819.469 326.949 820.135 329.993 821.466 332.561C822.798 335.129 824.653 337.103 827.031 338.482C829.456 339.861 832.215 340.551 835.306 340.551C838.302 340.551 841.013 339.861 843.439 338.482C845.912 337.055 847.838 335.058 849.217 332.49C850.596 329.874 851.286 326.854 851.286 323.43Z" fill="#ECFDF5"/>
<path d="M800.353 290.043V342.834H797.143V290.043H800.353Z" fill="#ECFDF5"/>
<path d="M734.184 317.865C734.184 312.919 735.207 308.52 737.252 304.667C739.344 300.768 742.198 297.724 745.812 295.536C749.474 293.348 753.564 292.255 758.082 292.255C763.79 292.255 768.593 293.586 772.493 296.25C776.393 298.913 779.246 302.646 781.054 307.45H777.344C775.917 303.645 773.539 300.649 770.21 298.461C766.928 296.226 762.886 295.108 758.082 295.108C754.23 295.108 750.735 296.036 747.596 297.89C744.457 299.698 741.984 302.337 740.176 305.809C738.369 309.233 737.466 313.252 737.466 317.865C737.466 322.431 738.369 326.426 740.176 329.85C741.984 333.227 744.457 335.842 747.596 337.697C750.735 339.552 754.23 340.479 758.082 340.479C762.886 340.479 766.928 339.386 770.21 337.198C773.539 334.963 775.917 331.943 777.344 328.138H781.054C779.246 332.941 776.393 336.675 772.493 339.338C768.593 342.001 763.79 343.333 758.082 343.333C753.564 343.333 749.474 342.263 745.812 340.123C742.198 337.935 739.344 334.915 737.252 331.063C735.207 327.163 734.184 322.764 734.184 317.865Z" fill="#ECFDF5"/>
<path d="M677.475 303.312C681.898 303.312 685.513 304.739 688.319 307.592C691.125 310.398 692.528 314.584 692.528 320.148V342.834H689.389V320.362C689.389 315.749 688.271 312.229 686.036 309.804C683.848 307.331 680.828 306.094 676.976 306.094C672.981 306.094 669.771 307.473 667.345 310.232C664.92 312.99 663.707 316.985 663.707 322.217V342.834H660.568V320.362C660.568 315.749 659.45 312.229 657.215 309.804C655.027 307.331 652.007 306.094 648.155 306.094C644.16 306.094 640.95 307.473 638.524 310.232C636.099 312.99 634.886 316.985 634.886 322.217V342.834H631.676V304.097H634.886V312.515C635.98 309.471 637.74 307.188 640.165 305.666C642.638 304.097 645.468 303.312 648.654 303.312C652.174 303.312 655.194 304.239 657.715 306.094C660.283 307.902 662.042 310.589 662.994 314.156C663.897 310.589 665.657 307.902 668.273 306.094C670.888 304.239 673.956 303.312 677.475 303.312Z" fill="#ECFDF5"/>
<path d="M613.909 304.097V342.834H610.699V334.416C609.605 337.364 607.774 339.623 605.206 341.193C602.685 342.715 599.784 343.476 596.502 343.476C591.889 343.476 588.108 342.073 585.16 339.267C582.258 336.413 580.808 332.204 580.808 326.64V304.097H583.947V326.426C583.947 331.039 585.112 334.582 587.442 337.055C589.773 339.481 592.935 340.694 596.93 340.694C601.116 340.694 604.445 339.362 606.918 336.699C609.439 334.035 610.699 330.088 610.699 324.856V304.097H613.909Z" fill="#ECFDF5"/>
<path d="M565.399 320.861C565.399 322.573 565.351 323.858 565.256 324.714H531.798C531.893 328.185 532.654 331.11 534.081 333.488C535.508 335.866 537.386 337.65 539.717 338.839C542.047 340.028 544.592 340.622 547.35 340.622C551.155 340.622 554.341 339.695 556.91 337.84C559.478 335.938 561.095 333.369 561.761 330.135H565.113C564.353 334.083 562.403 337.293 559.264 339.766C556.125 342.192 552.154 343.404 547.35 343.404C543.736 343.404 540.502 342.596 537.648 340.979C534.794 339.362 532.559 337.055 530.942 334.059C529.325 331.015 528.517 327.472 528.517 323.43C528.517 319.387 529.301 315.868 530.871 312.871C532.488 309.875 534.723 307.592 537.577 306.023C540.43 304.406 543.688 303.597 547.35 303.597C551.06 303.597 554.27 304.406 556.981 306.023C559.739 307.592 561.832 309.709 563.259 312.372C564.685 314.988 565.399 317.818 565.399 320.861ZM562.189 322.074C562.331 318.65 561.713 315.749 560.334 313.371C559.002 310.993 557.171 309.233 554.841 308.092C552.51 306.903 549.99 306.308 547.279 306.308C544.568 306.308 542.047 306.903 539.717 308.092C537.434 309.233 535.555 310.993 534.081 313.371C532.654 315.749 531.893 318.65 531.798 322.074H562.189Z" fill="#ECFDF5"/>
<path d="M502.72 312.087C503.671 309.233 505.359 307.069 507.785 305.595C510.211 304.073 513.302 303.312 517.059 303.312V306.665H515.989C512.184 306.665 509.022 307.759 506.501 309.947C503.98 312.087 502.72 315.606 502.72 320.505V342.834H499.51V304.097H502.72V312.087Z" fill="#ECFDF5"/>
<path d="M483.744 320.861C483.744 322.573 483.696 323.858 483.601 324.714H450.143C450.238 328.185 450.999 331.11 452.426 333.488C453.853 335.866 455.731 337.65 458.062 338.839C460.392 340.028 462.937 340.622 465.695 340.622C469.5 340.622 472.686 339.695 475.255 337.84C477.823 335.938 479.44 333.369 480.106 330.135H483.458C482.698 334.083 480.748 337.293 477.609 339.766C474.47 342.192 470.499 343.404 465.695 343.404C462.081 343.404 458.847 342.596 455.993 340.979C453.14 339.362 450.904 337.055 449.287 334.059C447.67 331.015 446.862 327.472 446.862 323.43C446.862 319.387 447.646 315.868 449.216 312.871C450.833 309.875 453.068 307.592 455.922 306.023C458.775 304.406 462.033 303.597 465.695 303.597C469.405 303.597 472.615 304.406 475.326 306.023C478.084 307.592 480.177 309.709 481.604 312.372C483.03 314.988 483.744 317.818 483.744 320.861ZM480.534 322.074C480.676 318.65 480.058 315.749 478.679 313.371C477.347 310.993 475.516 309.233 473.186 308.092C470.855 306.903 468.335 306.308 465.624 306.308C462.913 306.308 460.392 306.903 458.062 308.092C455.779 309.233 453.9 310.993 452.426 313.371C450.999 315.749 450.238 318.65 450.143 322.074H480.534Z" fill="#ECFDF5"/>
<path d="M415.897 303.312C420.463 303.312 424.196 304.739 427.097 307.592C429.999 310.398 431.449 314.584 431.449 320.148V342.834H428.31V320.362C428.31 315.749 427.145 312.229 424.815 309.804C422.484 307.331 419.322 306.094 415.327 306.094C411.141 306.094 407.788 307.426 405.268 310.089C402.795 312.753 401.558 316.7 401.558 321.931V342.834H398.348V290.043H401.558V312.301C402.652 309.4 404.483 307.188 407.051 305.666C409.619 304.097 412.568 303.312 415.897 303.312Z" fill="#ECFDF5"/>
<path d="M372.332 306.879V332.49C372.332 335.343 372.855 337.317 373.902 338.411C374.948 339.457 376.803 339.98 379.466 339.98H383.818V342.834H378.967C375.59 342.834 373.093 342.049 371.476 340.479C369.907 338.862 369.122 336.199 369.122 332.49V306.879H363.272V304.097H369.122V294.252H372.332V304.097H383.818V306.879H372.332Z" fill="#ECFDF5"/>
<path d="M329.657 295.465V316.367H349.631V319.078H329.657V340.123H351.772V342.834H326.446V292.754H351.772V295.465H329.657Z" fill="#ECFDF5"/>
</g>
<defs>
<filter id="filter0_f_1930_1178" x="-462.285" y="77.7148" width="2123.65" height="2123.65" filterUnits="userSpaceOnUse" color-interpolation-filters="sRGB">
<feFlood flood-opacity="0" result="BackgroundImageFix"/>
<feBlend mode="normal" in="SourceGraphic" in2="BackgroundImageFix" result="shape"/>
<feGaussianBlur stdDeviation="250" result="effect1_foregroundBlur_1930_1178"/>
</filter>
<filter id="filter1_d_1930_1178" x="-345.737" y="570.061" width="1570.35" height="1145.55" filterUnits="userSpaceOnUse" color-interpolation-filters="sRGB">
<feFlood flood-opacity="0" result="BackgroundImageFix"/>
<feColorMatrix in="SourceAlpha" type="matrix" values="0 0 0 0 0 0 0 0 0 0 0 0 0 0 0 0 0 0 127 0" result="hardAlpha"/>
<feOffset dy="4"/>
<feGaussianBlur stdDeviation="2"/>
<feComposite in2="hardAlpha" operator="out"/>
<feColorMatrix type="matrix" values="0 0 0 0 0 0 0 0 0 0 0 0 0 0 0 0 0 0 0.25 0"/>
<feBlend mode="normal" in2="BackgroundImageFix" result="effect1_dropShadow_1930_1178"/>
<feBlend mode="normal" in="SourceGraphic" in2="effect1_dropShadow_1930_1178" result="shape"/>
</filter>
<linearGradient id="paint0_linear_1930_1178" x1="769.21" y1="416.945" x2="576.737" y2="1813.89" gradientUnits="userSpaceOnUse">
<stop stop-color="#CAB914"/>
<stop offset="1" stop-color="#FF5C00"/>
</linearGradient>
<linearGradient id="paint1_linear_1930_1178" x1="745.605" y1="669.031" x2="-31.3656" y2="1567.11" gradientUnits="userSpaceOnUse">
<stop offset="0.216532" stop-color="#21D2D3"/>
<stop offset="0.734375" stop-color="#2A70D9"/>
</linearGradient>
<clipPath id="clip0_1930_1178">
<rect width="1200" height="630" fill="white" transform="translate(0 0.283203)"/>
</clipPath>
</defs>
</svg>
