<svg width="400" height="190" viewBox="0 0 400 190" fill="none" xmlns="http://www.w3.org/2000/svg">
<g clip-path="url(#clip0_1964_35781)">
<circle cx="133" cy="80" r="42" fill="#32FD97"/>
<path fill-rule="evenodd" clip-rule="evenodd" d="M132.999 111.033C150.138 111.033 164.032 97.1393 164.032 80C164.032 62.8608 150.138 48.9667 132.999 48.9667C115.86 48.9667 101.966 62.8608 101.966 80C101.966 97.1393 115.86 111.033 132.999 111.033ZM132.999 116.089C152.93 116.089 169.088 99.9314 169.088 80C169.088 60.0687 152.93 43.9111 132.999 43.9111C113.068 43.9111 96.9102 60.0687 96.9102 80C96.9102 99.9314 113.068 116.089 132.999 116.089Z" fill="#131413"/>
<path d="M135.402 59.8768C135.402 60.6424 135.414 61.408 135.395 62.1728C135.388 62.4598 135.481 62.563 135.765 62.6085C137.948 62.9629 139.843 63.8685 141.314 65.5643C142.521 66.9546 143.202 68.5927 143.559 70.3785C143.757 71.3673 143.835 72.3692 143.851 73.3763C143.853 73.5618 143.805 73.6248 143.615 73.6239C142.215 73.6186 140.815 73.6169 139.415 73.6292C139.173 73.6309 139.156 73.5163 139.151 73.3317C139.122 72.1775 138.97 71.0427 138.537 69.9638C137.847 68.2496 136.73 66.973 134.86 66.5381C133.429 66.2056 132.009 66.3063 130.647 66.8741C129.356 67.4123 128.544 68.408 128.138 69.7301C127.779 70.9044 127.767 72.1023 128.026 73.2966C128.326 74.6756 129.14 75.6898 130.312 76.4458C131.766 77.3847 133.369 77.9867 134.995 78.5405C137.133 79.2685 139.194 80.1514 140.99 81.5645C142.846 83.0267 143.825 84.9622 144.087 87.2809C144.28 88.995 144.192 90.6917 143.583 92.3244C142.711 94.6633 141.03 96.2164 138.77 97.1877C137.636 97.675 136.443 97.941 135.224 98.088C134.975 98.1178 134.925 98.207 134.927 98.4328C134.936 99.712 134.933 100.991 134.933 102.271C134.933 102.569 134.788 102.718 134.497 102.718C133.513 102.718 132.528 102.709 131.545 102.724C131.267 102.728 131.169 102.666 131.172 102.365C131.189 101.075 131.169 99.7847 131.184 98.494C131.188 98.2062 131.093 98.1335 130.821 98.1003C128.382 97.8002 126.188 96.9505 124.42 95.1769C123.148 93.9029 122.443 92.3428 122.109 90.5971C121.931 89.6714 121.872 88.7343 121.875 87.7919C121.875 87.5653 121.954 87.4892 122.182 87.4909C123.505 87.4996 124.828 87.5023 126.151 87.49C126.412 87.4874 126.451 87.5889 126.455 87.8164C126.469 88.7378 126.589 89.6452 126.882 90.5245C127.445 92.2115 128.6 93.3385 130.262 93.881C132.402 94.5802 134.546 94.4568 136.591 93.517C138.35 92.7085 139.251 91.249 139.422 89.3337C139.66 86.6903 138.323 84.9692 136.139 83.745C134.777 82.982 133.313 82.4754 131.839 81.9863C130.206 81.4447 128.65 80.7333 127.21 79.7769C124.477 77.9622 123.164 75.4002 123.133 72.1443C123.115 70.1825 123.457 68.31 124.525 66.63C125.809 64.607 127.691 63.4196 129.98 62.8316C130.424 62.7179 130.875 62.6181 131.33 62.5648C131.599 62.5333 131.639 62.4221 131.638 62.1903C131.631 60.659 131.643 59.1286 131.629 57.5974C131.626 57.3165 131.687 57.2185 131.987 57.2238C133.014 57.243 134.042 57.2404 135.07 57.2255C135.351 57.2211 135.417 57.3121 135.411 57.5799C135.392 58.3446 135.404 59.1103 135.404 59.8759L135.402 59.8768Z" fill="#131413"/>
</g>
<rect x="91.655" y="38.655" width="82.69" height="82.69" rx="41.345" stroke="url(#paint0_linear_1964_35781)" stroke-width="1.31"/>
<path d="M124.218 134.909H125.803V143.577C125.803 144.472 125.592 145.271 125.171 145.974C124.753 146.673 124.163 147.224 123.4 147.629C122.637 148.03 121.742 148.23 120.715 148.23C119.688 148.23 118.793 148.03 118.031 147.629C117.268 147.224 116.676 146.673 116.254 145.974C115.836 145.271 115.627 144.472 115.627 143.577V134.909H117.212V143.449C117.212 144.088 117.353 144.657 117.634 145.156C117.916 145.65 118.316 146.04 118.836 146.325C119.36 146.607 119.987 146.747 120.715 146.747C121.444 146.747 122.07 146.607 122.595 146.325C123.119 146.04 123.519 145.65 123.796 145.156C124.078 144.657 124.218 144.088 124.218 143.449V134.909ZM136.128 138.182C136.051 137.534 135.74 137.031 135.195 136.673C134.649 136.315 133.98 136.136 133.188 136.136C132.608 136.136 132.101 136.23 131.666 136.418C131.236 136.605 130.899 136.863 130.657 137.191C130.418 137.519 130.299 137.892 130.299 138.31C130.299 138.659 130.382 138.96 130.548 139.211C130.718 139.458 130.936 139.665 131.2 139.831C131.464 139.993 131.741 140.127 132.031 140.234C132.321 140.336 132.587 140.419 132.83 140.483L134.159 140.841C134.5 140.93 134.88 141.054 135.297 141.212C135.719 141.369 136.122 141.585 136.505 141.857C136.893 142.126 137.213 142.471 137.464 142.893C137.715 143.315 137.841 143.832 137.841 144.446C137.841 145.153 137.656 145.793 137.285 146.364C136.919 146.935 136.382 147.388 135.674 147.725C134.971 148.062 134.117 148.23 133.111 148.23C132.174 148.23 131.362 148.079 130.676 147.776C129.994 147.474 129.457 147.052 129.065 146.511C128.677 145.969 128.458 145.341 128.407 144.625H130.043C130.085 145.119 130.252 145.528 130.541 145.852C130.835 146.172 131.206 146.411 131.654 146.568C132.105 146.722 132.591 146.798 133.111 146.798C133.716 146.798 134.259 146.7 134.741 146.504C135.223 146.304 135.604 146.027 135.885 145.673C136.166 145.315 136.307 144.898 136.307 144.42C136.307 143.986 136.186 143.632 135.943 143.359C135.7 143.087 135.38 142.865 134.984 142.695C134.588 142.524 134.159 142.375 133.699 142.247L132.088 141.787C131.066 141.493 130.256 141.073 129.659 140.528C129.063 139.982 128.764 139.268 128.764 138.386C128.764 137.653 128.963 137.014 129.359 136.469C129.759 135.919 130.296 135.493 130.97 135.19C131.647 134.884 132.404 134.73 133.239 134.73C134.083 134.73 134.833 134.881 135.489 135.184C136.145 135.482 136.665 135.891 137.049 136.411C137.436 136.931 137.641 137.521 137.662 138.182H136.128ZM150.982 139H149.396C149.303 138.544 149.139 138.143 148.904 137.798C148.674 137.453 148.393 137.163 148.06 136.929C147.732 136.69 147.368 136.511 146.967 136.392C146.567 136.273 146.149 136.213 145.715 136.213C144.922 136.213 144.204 136.413 143.56 136.814C142.921 137.214 142.412 137.805 142.033 138.585C141.658 139.364 141.47 140.321 141.47 141.455C141.47 142.588 141.658 143.545 142.033 144.325C142.412 145.104 142.921 145.695 143.56 146.095C144.204 146.496 144.922 146.696 145.715 146.696C146.149 146.696 146.567 146.636 146.967 146.517C147.368 146.398 147.732 146.221 148.06 145.987C148.393 145.748 148.674 145.456 148.904 145.111C149.139 144.761 149.303 144.361 149.396 143.909H150.982C150.862 144.578 150.645 145.177 150.33 145.705C150.014 146.234 149.622 146.683 149.153 147.054C148.685 147.42 148.158 147.7 147.575 147.891C146.995 148.083 146.375 148.179 145.715 148.179C144.598 148.179 143.605 147.906 142.736 147.361C141.867 146.815 141.183 146.04 140.684 145.034C140.185 144.028 139.936 142.835 139.936 141.455C139.936 140.074 140.185 138.881 140.684 137.875C141.183 136.869 141.867 136.094 142.736 135.548C143.605 135.003 144.598 134.73 145.715 134.73C146.375 134.73 146.995 134.826 147.575 135.018C148.158 135.21 148.685 135.491 149.153 135.862C149.622 136.228 150.014 136.675 150.33 137.204C150.645 137.728 150.862 138.327 150.982 139Z" fill="#728397"/>
<rect x="225.656" y="38.6562" width="82.6875" height="82.6875" rx="41.3438" fill="#12B76A"/>
<rect x="225.656" y="38.6562" width="82.6875" height="82.6875" rx="41.3438" stroke="url(#paint1_linear_1964_35781)" stroke-width="1.3125"/>
<path d="M268.312 60.3125C268.312 59.5906 267.722 59 267 59C266.278 59 265.688 59.5906 265.688 60.3125V64.209C265.171 64.2172 264.654 64.2336 264.145 64.2828C262.177 64.4469 260.216 64.9227 258.616 65.9727C256.968 67.0473 255.778 68.6797 255.343 70.9766C255.032 72.6418 255.188 74.1102 255.811 75.3816C256.418 76.6367 257.411 77.5801 258.559 78.3102C260.749 79.7047 263.776 80.5004 266.532 81.2223L266.672 81.2551C269.6 82.0262 272.234 82.7234 274.038 83.8719C274.908 84.4297 275.498 85.0367 275.835 85.7258C276.163 86.4066 276.311 87.2844 276.081 88.4984C275.761 90.1965 274.571 91.4844 272.562 92.2719C270.519 93.0758 267.714 93.3055 264.523 92.8461C262.521 92.5508 259.519 91.8535 257.033 90.7789C256.369 90.4918 255.598 90.7953 255.311 91.468C255.023 92.1406 255.327 92.9035 256 93.1906C258.756 94.3801 261.996 95.1184 264.145 95.4383H264.154C264.679 95.5121 265.195 95.5695 265.704 95.6105V99.6875C265.704 100.409 266.295 101 267.016 101C267.738 101 268.329 100.409 268.329 99.6875V95.7008C270.232 95.6434 272.004 95.3152 273.53 94.7246C276.155 93.6992 278.14 91.7961 278.673 88.9906C278.985 87.3254 278.829 85.857 278.205 84.5855C277.598 83.3305 276.598 82.3871 275.457 81.6652C273.267 80.2707 270.24 79.475 267.484 78.7531L267.345 78.7203C264.416 77.9492 261.783 77.252 259.978 76.1035C259.109 75.5457 258.518 74.9387 258.182 74.2496C257.854 73.5687 257.706 72.691 257.936 71.477C258.231 69.8938 259.01 68.8684 260.068 68.1793C261.168 67.4574 262.652 67.0555 264.383 66.9078C267.853 66.6207 271.873 67.4 274.58 68.0563C275.285 68.2285 275.991 67.7937 276.163 67.0883C276.335 66.3828 275.9 65.6773 275.195 65.5051C273.398 65.0703 270.921 64.5453 268.321 64.3238V60.3125H268.312Z" fill="white"/>
<path d="M258.297 134.909H259.882V143.577C259.882 144.472 259.672 145.271 259.25 145.974C258.832 146.673 258.242 147.224 257.479 147.629C256.716 148.03 255.821 148.23 254.794 148.23C253.767 148.23 252.873 148.03 252.11 147.629C251.347 147.224 250.755 146.673 250.333 145.974C249.915 145.271 249.706 144.472 249.706 143.577V134.909H251.292V143.449C251.292 144.088 251.432 144.657 251.713 145.156C251.995 145.65 252.395 146.04 252.915 146.325C253.439 146.607 254.066 146.747 254.794 146.747C255.523 146.747 256.15 146.607 256.674 146.325C257.198 146.04 257.598 145.65 257.875 145.156C258.157 144.657 258.297 144.088 258.297 143.449V134.909ZM270.207 138.182C270.131 137.534 269.819 137.031 269.274 136.673C268.729 136.315 268.059 136.136 267.267 136.136C266.687 136.136 266.18 136.23 265.746 136.418C265.315 136.605 264.979 136.863 264.736 137.191C264.497 137.519 264.378 137.892 264.378 138.31C264.378 138.659 264.461 138.96 264.627 139.211C264.797 139.458 265.015 139.665 265.279 139.831C265.543 139.993 265.82 140.127 266.11 140.234C266.4 140.336 266.666 140.419 266.909 140.483L268.238 140.841C268.579 140.93 268.959 141.054 269.376 141.212C269.798 141.369 270.201 141.585 270.584 141.857C270.972 142.126 271.292 142.471 271.543 142.893C271.795 143.315 271.92 143.832 271.92 144.446C271.92 145.153 271.735 145.793 271.364 146.364C270.998 146.935 270.461 147.388 269.753 147.725C269.05 148.062 268.196 148.23 267.19 148.23C266.253 148.23 265.441 148.079 264.755 147.776C264.073 147.474 263.536 147.052 263.144 146.511C262.756 145.969 262.537 145.341 262.486 144.625H264.122C264.165 145.119 264.331 145.528 264.621 145.852C264.915 146.172 265.285 146.411 265.733 146.568C266.184 146.722 266.67 146.798 267.19 146.798C267.795 146.798 268.339 146.7 268.82 146.504C269.302 146.304 269.683 146.027 269.964 145.673C270.246 145.315 270.386 144.898 270.386 144.42C270.386 143.986 270.265 143.632 270.022 143.359C269.779 143.087 269.459 142.865 269.063 142.695C268.667 142.524 268.238 142.375 267.778 142.247L266.167 141.787C265.145 141.493 264.335 141.073 263.738 140.528C263.142 139.982 262.844 139.268 262.844 138.386C262.844 137.653 263.042 137.014 263.438 136.469C263.839 135.919 264.376 135.493 265.049 135.19C265.726 134.884 266.483 134.73 267.318 134.73C268.162 134.73 268.912 134.881 269.568 135.184C270.224 135.482 270.744 135.891 271.128 136.411C271.515 136.931 271.72 137.521 271.741 138.182H270.207ZM278.566 148H274.527V134.909H278.745C280.015 134.909 281.102 135.171 282.005 135.695C282.909 136.215 283.601 136.963 284.083 137.939C284.564 138.911 284.805 140.074 284.805 141.429C284.805 142.793 284.562 143.967 284.076 144.951C283.591 145.931 282.883 146.685 281.954 147.214C281.025 147.738 279.896 148 278.566 148ZM276.112 146.594H278.464C279.547 146.594 280.444 146.385 281.155 145.967C281.867 145.55 282.397 144.955 282.747 144.184C283.096 143.413 283.271 142.494 283.271 141.429C283.271 140.372 283.098 139.462 282.753 138.7C282.408 137.933 281.892 137.344 281.206 136.935C280.52 136.522 279.666 136.315 278.643 136.315H276.112V146.594Z" fill="#728397"/>
<path d="M193 77C192.448 77 192 77.4477 192 78C192 78.5523 192.448 79 193 79V77ZM208.207 78.7071C208.598 78.3166 208.598 77.6834 208.207 77.2929L201.843 70.9289C201.453 70.5384 200.819 70.5384 200.429 70.9289C200.038 71.3195 200.038 71.9526 200.429 72.3431L206.086 78L200.429 83.6569C200.038 84.0474 200.038 84.6805 200.429 85.0711C200.819 85.4616 201.453 85.4616 201.843 85.0711L208.207 78.7071ZM193 79H207.5V77H193V79Z" fill="#728397"/>
<defs>
<linearGradient id="paint0_linear_1964_35781" x1="91" y1="121.616" x2="174.939" y2="37.9975" gradientUnits="userSpaceOnUse">
<stop stop-color="#32FD97"/>
<stop offset="1" stop-color="#9FFFCF"/>
</linearGradient>
<linearGradient id="paint1_linear_1964_35781" x1="225" y1="121.616" x2="308.939" y2="37.9975" gradientUnits="userSpaceOnUse">
<stop stop-color="#6CFFBB" stop-opacity="0"/>
<stop offset="1" stop-color="#6CFFBB"/>
</linearGradient>
<clipPath id="clip0_1964_35781">
<rect x="91" y="38" width="84" height="84" rx="42" fill="white"/>
</clipPath>
</defs>
</svg>
