<svg width="400" height="190" viewBox="0 0 400 190" fill="none" xmlns="http://www.w3.org/2000/svg">
<rect x="158.656" y="38.6562" width="82.6875" height="82.6875" rx="41.3438" fill="#12B76A"/>
<rect x="158.656" y="38.6562" width="82.6875" height="82.6875" rx="41.3438" stroke="url(#paint0_linear_1964_35709)" stroke-width="1.3125"/>
<path d="M201.312 60.3125C201.312 59.5906 200.722 59 200 59C199.278 59 198.688 59.5906 198.688 60.3125V64.209C198.171 64.2172 197.654 64.2336 197.145 64.2828C195.177 64.4469 193.216 64.9227 191.616 65.9727C189.968 67.0473 188.778 68.6797 188.343 70.9766C188.032 72.6418 188.188 74.1102 188.811 75.3816C189.418 76.6367 190.411 77.5801 191.559 78.3102C193.749 79.7047 196.776 80.5004 199.532 81.2223L199.672 81.2551C202.6 82.0262 205.234 82.7234 207.038 83.8719C207.908 84.4297 208.498 85.0367 208.835 85.7258C209.163 86.4066 209.311 87.2844 209.081 88.4984C208.761 90.1965 207.571 91.4844 205.562 92.2719C203.519 93.0758 200.714 93.3055 197.523 92.8461C195.521 92.5508 192.519 91.8535 190.033 90.7789C189.369 90.4918 188.598 90.7953 188.311 91.468C188.023 92.1406 188.327 92.9035 189 93.1906C191.756 94.3801 194.996 95.1184 197.145 95.4383H197.154C197.679 95.5121 198.195 95.5695 198.704 95.6105V99.6875C198.704 100.409 199.295 101 200.016 101C200.738 101 201.329 100.409 201.329 99.6875V95.7008C203.232 95.6434 205.004 95.3152 206.53 94.7246C209.155 93.6992 211.14 91.7961 211.673 88.9906C211.985 87.3254 211.829 85.857 211.205 84.5855C210.598 83.3305 209.598 82.3871 208.457 81.6652C206.267 80.2707 203.24 79.475 200.484 78.7531L200.345 78.7203C197.416 77.9492 194.783 77.252 192.978 76.1035C192.109 75.5457 191.518 74.9387 191.182 74.2496C190.854 73.5687 190.706 72.691 190.936 71.477C191.231 69.8938 192.01 68.8684 193.068 68.1793C194.168 67.4574 195.652 67.0555 197.383 66.9078C200.853 66.6207 204.873 67.4 207.58 68.0563C208.285 68.2285 208.991 67.7937 209.163 67.0883C209.335 66.3828 208.9 65.6773 208.195 65.5051C206.398 65.0703 203.921 64.5453 201.321 64.3238V60.3125H201.312Z" fill="white"/>
<path d="M191.297 134.909H192.882V143.577C192.882 144.472 192.672 145.271 192.25 145.974C191.832 146.673 191.242 147.224 190.479 147.629C189.716 148.03 188.821 148.23 187.794 148.23C186.767 148.23 185.873 148.03 185.11 147.629C184.347 147.224 183.755 146.673 183.333 145.974C182.915 145.271 182.706 144.472 182.706 143.577V134.909H184.292V143.449C184.292 144.088 184.432 144.657 184.713 145.156C184.995 145.65 185.395 146.04 185.915 146.325C186.439 146.607 187.066 146.747 187.794 146.747C188.523 146.747 189.15 146.607 189.674 146.325C190.198 146.04 190.598 145.65 190.875 145.156C191.157 144.657 191.297 144.088 191.297 143.449V134.909ZM203.207 138.182C203.131 137.534 202.819 137.031 202.274 136.673C201.729 136.315 201.059 136.136 200.267 136.136C199.687 136.136 199.18 136.23 198.746 136.418C198.315 136.605 197.979 136.863 197.736 137.191C197.497 137.519 197.378 137.892 197.378 138.31C197.378 138.659 197.461 138.96 197.627 139.211C197.797 139.458 198.015 139.665 198.279 139.831C198.543 139.993 198.82 140.127 199.11 140.234C199.4 140.336 199.666 140.419 199.909 140.483L201.238 140.841C201.579 140.93 201.959 141.054 202.376 141.212C202.798 141.369 203.201 141.585 203.584 141.857C203.972 142.126 204.292 142.471 204.543 142.893C204.795 143.315 204.92 143.832 204.92 144.446C204.92 145.153 204.735 145.793 204.364 146.364C203.998 146.935 203.461 147.388 202.753 147.725C202.05 148.062 201.196 148.23 200.19 148.23C199.253 148.23 198.441 148.079 197.755 147.776C197.073 147.474 196.536 147.052 196.144 146.511C195.756 145.969 195.537 145.341 195.486 144.625H197.122C197.165 145.119 197.331 145.528 197.621 145.852C197.915 146.172 198.285 146.411 198.733 146.568C199.184 146.722 199.67 146.798 200.19 146.798C200.795 146.798 201.339 146.7 201.82 146.504C202.302 146.304 202.683 146.027 202.964 145.673C203.246 145.315 203.386 144.898 203.386 144.42C203.386 143.986 203.265 143.632 203.022 143.359C202.779 143.087 202.459 142.865 202.063 142.695C201.667 142.524 201.238 142.375 200.778 142.247L199.167 141.787C198.145 141.493 197.335 141.073 196.738 140.528C196.142 139.982 195.844 139.268 195.844 138.386C195.844 137.653 196.042 137.014 196.438 136.469C196.839 135.919 197.376 135.493 198.049 135.19C198.726 134.884 199.483 134.73 200.318 134.73C201.162 134.73 201.912 134.881 202.568 135.184C203.224 135.482 203.744 135.891 204.128 136.411C204.515 136.931 204.72 137.521 204.741 138.182H203.207ZM211.566 148H207.527V134.909H211.745C213.015 134.909 214.102 135.171 215.005 135.695C215.909 136.215 216.601 136.963 217.083 137.939C217.564 138.911 217.805 140.074 217.805 141.429C217.805 142.793 217.562 143.967 217.076 144.951C216.591 145.931 215.883 146.685 214.954 147.214C214.025 147.738 212.896 148 211.566 148ZM209.112 146.594H211.464C212.547 146.594 213.444 146.385 214.155 145.967C214.867 145.55 215.397 144.955 215.747 144.184C216.096 143.413 216.271 142.494 216.271 141.429C216.271 140.372 216.098 139.462 215.753 138.7C215.408 137.933 214.892 137.344 214.206 136.935C213.52 136.522 212.666 136.315 211.643 136.315H209.112V146.594Z" fill="#728397"/>
<g clip-path="url(#clip0_1964_35709)">
<circle cx="334" cy="80" r="42" fill="#32FD97"/>
<path fill-rule="evenodd" clip-rule="evenodd" d="M333.999 111.033C351.138 111.033 365.032 97.1393 365.032 80C365.032 62.8608 351.138 48.9667 333.999 48.9667C316.86 48.9667 302.966 62.8608 302.966 80C302.966 97.1393 316.86 111.033 333.999 111.033ZM333.999 116.089C353.93 116.089 370.088 99.9314 370.088 80C370.088 60.0687 353.93 43.9111 333.999 43.9111C314.068 43.9111 297.91 60.0687 297.91 80C297.91 99.9314 314.068 116.089 333.999 116.089Z" fill="#131413"/>
<path d="M336.402 59.8768C336.402 60.6424 336.414 61.408 336.395 62.1728C336.388 62.4598 336.481 62.563 336.765 62.6085C338.948 62.9629 340.843 63.8685 342.314 65.5643C343.521 66.9546 344.202 68.5927 344.559 70.3785C344.757 71.3673 344.835 72.3692 344.851 73.3763C344.853 73.5618 344.805 73.6248 344.615 73.6239C343.215 73.6186 341.815 73.6169 340.415 73.6292C340.173 73.6309 340.156 73.5163 340.151 73.3317C340.122 72.1775 339.97 71.0427 339.537 69.9638C338.847 68.2496 337.73 66.973 335.86 66.5381C334.429 66.2056 333.009 66.3063 331.647 66.8741C330.356 67.4123 329.544 68.408 329.138 69.7301C328.779 70.9044 328.767 72.1023 329.026 73.2966C329.326 74.6756 330.14 75.6898 331.312 76.4458C332.766 77.3847 334.369 77.9867 335.995 78.5405C338.133 79.2685 340.194 80.1514 341.99 81.5645C343.846 83.0267 344.825 84.9622 345.087 87.2809C345.28 88.995 345.192 90.6917 344.583 92.3244C343.711 94.6633 342.03 96.2164 339.77 97.1877C338.636 97.675 337.443 97.941 336.224 98.088C335.975 98.1178 335.925 98.207 335.927 98.4328C335.936 99.712 335.933 100.991 335.933 102.271C335.933 102.569 335.788 102.718 335.497 102.718C334.513 102.718 333.528 102.709 332.545 102.724C332.267 102.728 332.169 102.666 332.172 102.365C332.189 101.075 332.169 99.7847 332.184 98.494C332.188 98.2062 332.093 98.1335 331.821 98.1003C329.382 97.8002 327.188 96.9505 325.42 95.1769C324.148 93.9029 323.443 92.3428 323.109 90.5971C322.931 89.6714 322.872 88.7343 322.875 87.7919C322.875 87.5653 322.954 87.4892 323.182 87.4909C324.505 87.4996 325.828 87.5023 327.151 87.49C327.412 87.4874 327.451 87.5889 327.455 87.8164C327.469 88.7378 327.589 89.6452 327.882 90.5245C328.445 92.2115 329.6 93.3385 331.262 93.881C333.402 94.5802 335.546 94.4568 337.591 93.517C339.35 92.7085 340.251 91.249 340.422 89.3337C340.66 86.6903 339.323 84.9692 337.139 83.745C335.777 82.982 334.313 82.4754 332.839 81.9863C331.206 81.4447 329.65 80.7333 328.21 79.7769C325.477 77.9622 324.164 75.4002 324.133 72.1443C324.115 70.1825 324.457 68.31 325.525 66.63C326.809 64.607 328.691 63.4196 330.98 62.8316C331.424 62.7179 331.875 62.6181 332.33 62.5648C332.599 62.5333 332.639 62.4221 332.638 62.1903C332.631 60.659 332.643 59.1286 332.629 57.5974C332.626 57.3165 332.687 57.2185 332.987 57.2238C334.014 57.243 335.042 57.2404 336.07 57.2255C336.351 57.2211 336.417 57.3121 336.411 57.5799C336.392 58.3446 336.404 59.1103 336.404 59.8759L336.402 59.8768Z" fill="#131413"/>
</g>
<rect x="292.655" y="38.655" width="82.69" height="82.69" rx="41.345" stroke="url(#paint1_linear_1964_35709)" stroke-width="1.31"/>
<path d="M325.218 134.909H326.803V143.577C326.803 144.472 326.592 145.271 326.171 145.974C325.753 146.673 325.163 147.224 324.4 147.629C323.637 148.03 322.742 148.23 321.715 148.23C320.688 148.23 319.793 148.03 319.031 147.629C318.268 147.224 317.676 146.673 317.254 145.974C316.836 145.271 316.627 144.472 316.627 143.577V134.909H318.212V143.449C318.212 144.088 318.353 144.657 318.634 145.156C318.916 145.65 319.316 146.04 319.836 146.325C320.36 146.607 320.987 146.747 321.715 146.747C322.444 146.747 323.07 146.607 323.595 146.325C324.119 146.04 324.519 145.65 324.796 145.156C325.078 144.657 325.218 144.088 325.218 143.449V134.909ZM337.128 138.182C337.051 137.534 336.74 137.031 336.195 136.673C335.649 136.315 334.98 136.136 334.188 136.136C333.608 136.136 333.101 136.23 332.666 136.418C332.236 136.605 331.899 136.863 331.657 137.191C331.418 137.519 331.299 137.892 331.299 138.31C331.299 138.659 331.382 138.96 331.548 139.211C331.718 139.458 331.936 139.665 332.2 139.831C332.464 139.993 332.741 140.127 333.031 140.234C333.321 140.336 333.587 140.419 333.83 140.483L335.159 140.841C335.5 140.93 335.88 141.054 336.297 141.212C336.719 141.369 337.122 141.585 337.505 141.857C337.893 142.126 338.213 142.471 338.464 142.893C338.715 143.315 338.841 143.832 338.841 144.446C338.841 145.153 338.656 145.793 338.285 146.364C337.919 146.935 337.382 147.388 336.674 147.725C335.971 148.062 335.117 148.23 334.111 148.23C333.174 148.23 332.362 148.079 331.676 147.776C330.994 147.474 330.457 147.052 330.065 146.511C329.677 145.969 329.458 145.341 329.407 144.625H331.043C331.085 145.119 331.252 145.528 331.541 145.852C331.835 146.172 332.206 146.411 332.654 146.568C333.105 146.722 333.591 146.798 334.111 146.798C334.716 146.798 335.259 146.7 335.741 146.504C336.223 146.304 336.604 146.027 336.885 145.673C337.166 145.315 337.307 144.898 337.307 144.42C337.307 143.986 337.186 143.632 336.943 143.359C336.7 143.087 336.38 142.865 335.984 142.695C335.588 142.524 335.159 142.375 334.699 142.247L333.088 141.787C332.066 141.493 331.256 141.073 330.659 140.528C330.063 139.982 329.764 139.268 329.764 138.386C329.764 137.653 329.963 137.014 330.359 136.469C330.759 135.919 331.296 135.493 331.97 135.19C332.647 134.884 333.404 134.73 334.239 134.73C335.083 134.73 335.833 134.881 336.489 135.184C337.145 135.482 337.665 135.891 338.049 136.411C338.436 136.931 338.641 137.521 338.662 138.182H337.128ZM351.982 139H350.396C350.303 138.544 350.139 138.143 349.904 137.798C349.674 137.453 349.393 137.163 349.06 136.929C348.732 136.69 348.368 136.511 347.967 136.392C347.567 136.273 347.149 136.213 346.715 136.213C345.922 136.213 345.204 136.413 344.56 136.814C343.921 137.214 343.412 137.805 343.033 138.585C342.658 139.364 342.47 140.321 342.47 141.455C342.47 142.588 342.658 143.545 343.033 144.325C343.412 145.104 343.921 145.695 344.56 146.095C345.204 146.496 345.922 146.696 346.715 146.696C347.149 146.696 347.567 146.636 347.967 146.517C348.368 146.398 348.732 146.221 349.06 145.987C349.393 145.748 349.674 145.456 349.904 145.111C350.139 144.761 350.303 144.361 350.396 143.909H351.982C351.862 144.578 351.645 145.177 351.33 145.705C351.014 146.234 350.622 146.683 350.153 147.054C349.685 147.42 349.158 147.7 348.575 147.891C347.995 148.083 347.375 148.179 346.715 148.179C345.598 148.179 344.605 147.906 343.736 147.361C342.867 146.815 342.183 146.04 341.684 145.034C341.185 144.028 340.936 142.835 340.936 141.455C340.936 140.074 341.185 138.881 341.684 137.875C342.183 136.869 342.867 136.094 343.736 135.548C344.605 135.003 345.598 134.73 346.715 134.73C347.375 134.73 347.995 134.826 348.575 135.018C349.158 135.21 349.685 135.491 350.153 135.862C350.622 136.228 351.014 136.675 351.33 137.204C351.645 137.728 351.862 138.327 351.982 139Z" fill="#728397"/>
<rect x="24.6562" y="38.6562" width="82.6875" height="82.6875" rx="41.3438" fill="#7A5AF8"/>
<rect x="24.6562" y="38.6562" width="82.6875" height="82.6875" rx="41.3438" stroke="url(#paint2_linear_1964_35709)" stroke-width="1.3125"/>
<path d="M74.25 69.5C74.25 68.4658 74.0463 67.4418 73.6506 66.4864C73.2548 65.5309 72.6747 64.6628 71.9435 63.9315C71.2122 63.2003 70.3441 62.6202 69.3886 62.2244C68.4332 61.8287 67.4092 61.625 66.375 61.625C65.3408 61.625 64.3168 61.8287 63.3614 62.2244C62.4059 62.6202 61.5378 63.2003 60.8065 63.9315C60.0753 64.6628 59.4952 65.5309 59.0994 66.4864C58.7037 67.4418 58.5 68.4658 58.5 69.5C58.5 70.5342 58.7037 71.5582 59.0994 72.5136C59.4952 73.4691 60.0753 74.3372 60.8065 75.0685C61.5378 75.7997 62.4059 76.3798 63.3614 76.7756C64.3168 77.1713 65.3408 77.375 66.375 77.375C67.4092 77.375 68.4332 77.1713 69.3886 76.7756C70.3441 76.3798 71.2122 75.7997 71.9435 75.0685C72.6747 74.3372 73.2548 73.4691 73.6506 72.5136C74.0463 71.5582 74.25 70.5342 74.25 69.5ZM55.875 69.5C55.875 66.7152 56.9812 64.0445 58.9504 62.0754C60.9195 60.1062 63.5902 59 66.375 59C69.1598 59 71.8305 60.1062 73.7996 62.0754C75.7688 64.0445 76.875 66.7152 76.875 69.5C76.875 72.2848 75.7688 74.9555 73.7996 76.9246C71.8305 78.8938 69.1598 80 66.375 80C63.5902 80 60.9195 78.8938 58.9504 76.9246C56.9812 74.9555 55.875 72.2848 55.875 69.5ZM50.625 98.375H82.125C82.0266 91.8371 76.6945 86.5625 70.1238 86.5625H62.6262C56.0637 86.5625 50.7316 91.8371 50.625 98.375ZM48 98.5637C48 90.4836 54.5461 83.9375 62.6262 83.9375H70.1238C78.2039 83.9375 84.75 90.4836 84.75 98.5637C84.75 99.909 83.659 101 82.3137 101H50.4363C49.091 101 48 99.909 48 98.5637Z" fill="white"/>
<path d="M56.2162 134.909H57.8014V143.577C57.8014 144.472 57.5905 145.271 57.1686 145.974C56.751 146.673 56.1608 147.224 55.398 147.629C54.6352 148.03 53.7403 148.23 52.7133 148.23C51.6863 148.23 50.7915 148.03 50.0287 147.629C49.2659 147.224 48.6736 146.673 48.2517 145.974C47.8341 145.271 47.6253 144.472 47.6253 143.577V134.909H49.2105V143.449C49.2105 144.088 49.3511 144.657 49.6324 145.156C49.9136 145.65 50.3142 146.04 50.8341 146.325C51.3582 146.607 51.9846 146.747 52.7133 146.747C53.442 146.747 54.0684 146.607 54.5926 146.325C55.1167 146.04 55.5173 145.65 55.7943 145.156C56.0756 144.657 56.2162 144.088 56.2162 143.449V134.909ZM67.7171 140.381L66.3619 140.764C66.2767 140.538 66.151 140.319 65.9848 140.106C65.8229 139.888 65.6013 139.71 65.32 139.569C65.0388 139.428 64.6787 139.358 64.2398 139.358C63.6389 139.358 63.1382 139.496 62.7377 139.773C62.3414 140.046 62.1432 140.393 62.1432 140.815C62.1432 141.19 62.2796 141.487 62.5523 141.704C62.825 141.921 63.2512 142.102 63.8307 142.247L65.2881 142.605C66.1659 142.818 66.82 143.144 67.2504 143.583C67.6808 144.018 67.896 144.578 67.896 145.264C67.896 145.827 67.7341 146.33 67.4102 146.773C67.0906 147.216 66.6432 147.565 66.0679 147.821C65.4926 148.077 64.8236 148.205 64.0608 148.205C63.0594 148.205 62.2306 147.987 61.5743 147.553C60.9181 147.118 60.5026 146.483 60.3279 145.648L61.7597 145.29C61.896 145.818 62.1539 146.214 62.5331 146.479C62.9166 146.743 63.4173 146.875 64.0352 146.875C64.7384 146.875 65.2966 146.726 65.71 146.428C66.1276 146.125 66.3364 145.763 66.3364 145.341C66.3364 145 66.2171 144.714 65.9784 144.484C65.7398 144.25 65.3733 144.075 64.879 143.96L63.2426 143.577C62.3435 143.364 61.683 143.033 61.2611 142.586C60.8435 142.134 60.6347 141.57 60.6347 140.892C60.6347 140.338 60.7902 139.848 61.1013 139.422C61.4166 138.996 61.8449 138.661 62.3861 138.418C62.9316 138.175 63.5494 138.054 64.2398 138.054C65.2114 138.054 65.9742 138.267 66.5281 138.693C67.0864 139.119 67.4827 139.682 67.7171 140.381ZM74.2833 148.205C73.3373 148.205 72.5212 147.996 71.8351 147.578C71.1533 147.156 70.627 146.568 70.2563 145.814C69.8898 145.055 69.7066 144.173 69.7066 143.168C69.7066 142.162 69.8898 141.276 70.2563 140.509C70.627 139.737 71.1427 139.136 71.8032 138.706C72.468 138.271 73.2435 138.054 74.1299 138.054C74.6412 138.054 75.1462 138.139 75.6448 138.31C76.1434 138.48 76.5972 138.757 77.0063 139.141C77.4154 139.52 77.7414 140.023 77.9843 140.649C78.2272 141.276 78.3486 142.047 78.3486 142.963V143.602H70.7805V142.298H76.8145C76.8145 141.744 76.7037 141.25 76.4822 140.815C76.2648 140.381 75.9537 140.038 75.5489 139.786C75.1483 139.535 74.6753 139.409 74.1299 139.409C73.529 139.409 73.0091 139.558 72.5702 139.857C72.1356 140.151 71.801 140.534 71.5667 141.007C71.3323 141.48 71.2151 141.987 71.2151 142.528V143.398C71.2151 144.139 71.343 144.768 71.5986 145.283C71.8586 145.795 72.2187 146.185 72.6789 146.453C73.1391 146.717 73.6739 146.849 74.2833 146.849C74.6796 146.849 75.0376 146.794 75.3572 146.683C75.681 146.568 75.9601 146.398 76.1945 146.172C76.4289 145.942 76.61 145.656 76.7378 145.315L78.1952 145.724C78.0418 146.219 77.784 146.653 77.4218 147.028C77.0596 147.399 76.6121 147.689 76.0795 147.898C75.5468 148.102 74.9481 148.205 74.2833 148.205ZM80.6434 148V138.182H82.1008V139.665H82.203C82.382 139.179 82.7059 138.785 83.1746 138.482C83.6434 138.18 84.1718 138.028 84.7599 138.028C84.8707 138.028 85.0091 138.031 85.1753 138.035C85.3415 138.039 85.4672 138.045 85.5525 138.054V139.588C85.5013 139.575 85.3841 139.556 85.2009 139.531C85.0219 139.501 84.8323 139.486 84.632 139.486C84.1547 139.486 83.7286 139.586 83.3536 139.786C82.9829 139.982 82.6888 140.255 82.4715 140.604C82.2584 140.95 82.1519 141.344 82.1519 141.787V148H80.6434Z" fill="#728397"/>
<path d="M126 77C125.448 77 125 77.4477 125 78C125 78.5523 125.448 79 126 79V77ZM141.207 78.7071C141.598 78.3166 141.598 77.6834 141.207 77.2929L134.843 70.9289C134.453 70.5384 133.819 70.5384 133.429 70.9289C133.038 71.3195 133.038 71.9526 133.429 72.3431L139.086 78L133.429 83.6569C133.038 84.0474 133.038 84.6805 133.429 85.0711C133.819 85.4616 134.453 85.4616 134.843 85.0711L141.207 78.7071ZM126 79H140.5V77H126V79Z" fill="#728397"/>
<path d="M260 77C259.448 77 259 77.4477 259 78C259 78.5523 259.448 79 260 79V77ZM275.207 78.7071C275.598 78.3166 275.598 77.6834 275.207 77.2929L268.843 70.9289C268.453 70.5384 267.819 70.5384 267.429 70.9289C267.038 71.3195 267.038 71.9526 267.429 72.3431L273.086 78L267.429 83.6569C267.038 84.0474 267.038 84.6805 267.429 85.0711C267.819 85.4616 268.453 85.4616 268.843 85.0711L275.207 78.7071ZM260 79H274.5V77H260V79Z" fill="#728397"/>
<defs>
<linearGradient id="paint0_linear_1964_35709" x1="158" y1="121.616" x2="241.939" y2="37.9975" gradientUnits="userSpaceOnUse">
<stop stop-color="#6CFFBB" stop-opacity="0"/>
<stop offset="1" stop-color="#6CFFBB"/>
</linearGradient>
<linearGradient id="paint1_linear_1964_35709" x1="292" y1="121.616" x2="375.939" y2="37.9975" gradientUnits="userSpaceOnUse">
<stop stop-color="#32FD97"/>
<stop offset="1" stop-color="#9FFFCF"/>
</linearGradient>
<linearGradient id="paint2_linear_1964_35709" x1="24" y1="121.616" x2="107.939" y2="37.9975" gradientUnits="userSpaceOnUse">
<stop stop-color="#7A5AF8"/>
<stop offset="1" stop-color="#C1B1FF"/>
</linearGradient>
<clipPath id="clip0_1964_35709">
<rect x="292" y="38" width="84" height="84" rx="42" fill="white"/>
</clipPath>
</defs>
</svg>
