<svg width="400" height="466" viewBox="0 0 400 466" fill="none" xmlns="http://www.w3.org/2000/svg">
<rect x="24.6562" y="176.656" width="82.6875" height="82.6875" rx="41.3438" fill="#7A5AF8"/>
<rect x="24.6562" y="176.656" width="82.6875" height="82.6875" rx="41.3438" stroke="url(#paint0_linear_1964_35739)" stroke-width="1.3125"/>
<path d="M74.25 207.5C74.25 206.466 74.0463 205.442 73.6506 204.486C73.2548 203.531 72.6747 202.663 71.9435 201.932C71.2122 201.2 70.3441 200.62 69.3886 200.224C68.4332 199.829 67.4092 199.625 66.375 199.625C65.3408 199.625 64.3168 199.829 63.3614 200.224C62.4059 200.62 61.5378 201.2 60.8065 201.932C60.0753 202.663 59.4952 203.531 59.0994 204.486C58.7037 205.442 58.5 206.466 58.5 207.5C58.5 208.534 58.7037 209.558 59.0994 210.514C59.4952 211.469 60.0753 212.337 60.8065 213.068C61.5378 213.8 62.4059 214.38 63.3614 214.776C64.3168 215.171 65.3408 215.375 66.375 215.375C67.4092 215.375 68.4332 215.171 69.3886 214.776C70.3441 214.38 71.2122 213.8 71.9435 213.068C72.6747 212.337 73.2548 211.469 73.6506 210.514C74.0463 209.558 74.25 208.534 74.25 207.5ZM55.875 207.5C55.875 204.715 56.9812 202.045 58.9504 200.075C60.9195 198.106 63.5902 197 66.375 197C69.1598 197 71.8305 198.106 73.7996 200.075C75.7688 202.045 76.875 204.715 76.875 207.5C76.875 210.285 75.7688 212.955 73.7996 214.925C71.8305 216.894 69.1598 218 66.375 218C63.5902 218 60.9195 216.894 58.9504 214.925C56.9812 212.955 55.875 210.285 55.875 207.5ZM50.625 236.375H82.125C82.0266 229.837 76.6945 224.562 70.1238 224.562H62.6262C56.0637 224.562 50.7316 229.837 50.625 236.375ZM48 236.564C48 228.484 54.5461 221.938 62.6262 221.938H70.1238C78.2039 221.938 84.75 228.484 84.75 236.564C84.75 237.909 83.659 239 82.3137 239H50.4363C49.091 239 48 237.909 48 236.564Z" fill="white"/>
<path d="M56.2162 272.909H57.8014V281.577C57.8014 282.472 57.5905 283.271 57.1686 283.974C56.751 284.673 56.1608 285.224 55.398 285.629C54.6352 286.03 53.7403 286.23 52.7133 286.23C51.6863 286.23 50.7915 286.03 50.0287 285.629C49.2659 285.224 48.6736 284.673 48.2517 283.974C47.8341 283.271 47.6253 282.472 47.6253 281.577V272.909H49.2105V281.449C49.2105 282.088 49.3511 282.657 49.6324 283.156C49.9136 283.65 50.3142 284.04 50.8341 284.325C51.3582 284.607 51.9846 284.747 52.7133 284.747C53.442 284.747 54.0684 284.607 54.5926 284.325C55.1167 284.04 55.5173 283.65 55.7943 283.156C56.0756 282.657 56.2162 282.088 56.2162 281.449V272.909ZM67.7171 278.381L66.3619 278.764C66.2767 278.538 66.151 278.319 65.9848 278.106C65.8229 277.888 65.6013 277.71 65.32 277.569C65.0388 277.428 64.6787 277.358 64.2398 277.358C63.6389 277.358 63.1382 277.496 62.7377 277.773C62.3414 278.046 62.1432 278.393 62.1432 278.815C62.1432 279.19 62.2796 279.487 62.5523 279.704C62.825 279.921 63.2512 280.102 63.8307 280.247L65.2881 280.605C66.1659 280.818 66.82 281.144 67.2504 281.583C67.6808 282.018 67.896 282.578 67.896 283.264C67.896 283.827 67.7341 284.33 67.4102 284.773C67.0906 285.216 66.6432 285.565 66.0679 285.821C65.4926 286.077 64.8236 286.205 64.0608 286.205C63.0594 286.205 62.2306 285.987 61.5743 285.553C60.9181 285.118 60.5026 284.483 60.3279 283.648L61.7597 283.29C61.896 283.818 62.1539 284.214 62.5331 284.479C62.9166 284.743 63.4173 284.875 64.0352 284.875C64.7384 284.875 65.2966 284.726 65.71 284.428C66.1276 284.125 66.3364 283.763 66.3364 283.341C66.3364 283 66.2171 282.714 65.9784 282.484C65.7398 282.25 65.3733 282.075 64.879 281.96L63.2426 281.577C62.3435 281.364 61.683 281.033 61.2611 280.586C60.8435 280.134 60.6347 279.57 60.6347 278.892C60.6347 278.338 60.7902 277.848 61.1013 277.422C61.4166 276.996 61.8449 276.661 62.3861 276.418C62.9316 276.175 63.5494 276.054 64.2398 276.054C65.2114 276.054 65.9742 276.267 66.5281 276.693C67.0864 277.119 67.4827 277.682 67.7171 278.381ZM74.2833 286.205C73.3373 286.205 72.5212 285.996 71.8351 285.578C71.1533 285.156 70.627 284.568 70.2563 283.814C69.8898 283.055 69.7066 282.173 69.7066 281.168C69.7066 280.162 69.8898 279.276 70.2563 278.509C70.627 277.737 71.1427 277.136 71.8032 276.706C72.468 276.271 73.2435 276.054 74.1299 276.054C74.6412 276.054 75.1462 276.139 75.6448 276.31C76.1434 276.48 76.5972 276.757 77.0063 277.141C77.4154 277.52 77.7414 278.023 77.9843 278.649C78.2272 279.276 78.3486 280.047 78.3486 280.963V281.602H70.7805V280.298H76.8145C76.8145 279.744 76.7037 279.25 76.4822 278.815C76.2648 278.381 75.9537 278.038 75.5489 277.786C75.1483 277.535 74.6753 277.409 74.1299 277.409C73.529 277.409 73.0091 277.558 72.5702 277.857C72.1356 278.151 71.801 278.534 71.5667 279.007C71.3323 279.48 71.2151 279.987 71.2151 280.528V281.398C71.2151 282.139 71.343 282.768 71.5986 283.283C71.8586 283.795 72.2187 284.185 72.6789 284.453C73.1391 284.717 73.6739 284.849 74.2833 284.849C74.6796 284.849 75.0376 284.794 75.3572 284.683C75.681 284.568 75.9601 284.398 76.1945 284.172C76.4289 283.942 76.61 283.656 76.7378 283.315L78.1952 283.724C78.0418 284.219 77.784 284.653 77.4218 285.028C77.0596 285.399 76.6121 285.689 76.0795 285.898C75.5468 286.102 74.9481 286.205 74.2833 286.205ZM80.6434 286V276.182H82.1008V277.665H82.203C82.382 277.179 82.7059 276.785 83.1746 276.482C83.6434 276.18 84.1718 276.028 84.7599 276.028C84.8707 276.028 85.0091 276.031 85.1753 276.035C85.3415 276.039 85.4672 276.045 85.5525 276.054V277.588C85.5013 277.575 85.3841 277.556 85.2009 277.531C85.0219 277.501 84.8323 277.486 84.632 277.486C84.1547 277.486 83.7286 277.586 83.3536 277.786C82.9829 277.982 82.6888 278.255 82.4715 278.604C82.2584 278.95 82.1519 279.344 82.1519 279.787V286H80.6434Z" fill="#728397"/>
<g clip-path="url(#clip0_1964_35739)">
<circle cx="200" cy="218" r="42" fill="#32FD97"/>
<path fill-rule="evenodd" clip-rule="evenodd" d="M199.999 249.033C217.138 249.033 231.032 235.139 231.032 218C231.032 200.861 217.138 186.967 199.999 186.967C182.86 186.967 168.966 200.861 168.966 218C168.966 235.139 182.86 249.033 199.999 249.033ZM199.999 254.089C219.93 254.089 236.088 237.931 236.088 218C236.088 198.069 219.93 181.911 199.999 181.911C180.068 181.911 163.91 198.069 163.91 218C163.91 237.931 180.068 254.089 199.999 254.089Z" fill="#131413"/>
<path d="M202.402 197.877C202.402 198.642 202.414 199.408 202.395 200.173C202.388 200.46 202.481 200.563 202.765 200.609C204.948 200.963 206.843 201.869 208.314 203.564C209.521 204.955 210.202 206.593 210.559 208.379C210.757 209.367 210.835 210.369 210.851 211.376C210.853 211.562 210.805 211.625 210.615 211.624C209.215 211.619 207.815 211.617 206.415 211.629C206.173 211.631 206.156 211.516 206.151 211.332C206.122 210.178 205.97 209.043 205.537 207.964C204.847 206.25 203.73 204.973 201.86 204.538C200.429 204.206 199.009 204.306 197.647 204.874C196.356 205.412 195.544 206.408 195.138 207.73C194.779 208.904 194.767 210.102 195.026 211.297C195.326 212.676 196.14 213.69 197.312 214.446C198.766 215.385 200.369 215.987 201.995 216.541C204.133 217.269 206.194 218.151 207.99 219.565C209.846 221.027 210.825 222.962 211.087 225.281C211.28 226.995 211.192 228.692 210.583 230.324C209.711 232.663 208.03 234.216 205.77 235.188C204.636 235.675 203.443 235.941 202.224 236.088C201.975 236.118 201.925 236.207 201.927 236.433C201.936 237.712 201.933 238.991 201.933 240.271C201.933 240.569 201.788 240.718 201.497 240.718C200.513 240.718 199.528 240.709 198.545 240.724C198.267 240.728 198.169 240.666 198.172 240.365C198.189 239.075 198.169 237.785 198.184 236.494C198.188 236.206 198.093 236.134 197.821 236.1C195.382 235.8 193.188 234.951 191.42 233.177C190.148 231.903 189.443 230.343 189.109 228.597C188.931 227.671 188.872 226.734 188.875 225.792C188.875 225.565 188.954 225.489 189.182 225.491C190.505 225.5 191.828 225.502 193.151 225.49C193.412 225.487 193.451 225.589 193.455 225.816C193.469 226.738 193.589 227.645 193.882 228.525C194.445 230.212 195.6 231.339 197.262 231.881C199.402 232.58 201.546 232.457 203.591 231.517C205.35 230.709 206.251 229.249 206.422 227.334C206.66 224.69 205.323 222.969 203.139 221.745C201.777 220.982 200.313 220.475 198.839 219.986C197.206 219.445 195.65 218.733 194.21 217.777C191.477 215.962 190.164 213.4 190.133 210.144C190.115 208.183 190.457 206.31 191.525 204.63C192.809 202.607 194.691 201.42 196.98 200.832C197.424 200.718 197.875 200.618 198.33 200.565C198.599 200.533 198.639 200.422 198.638 200.19C198.631 198.659 198.643 197.129 198.629 195.597C198.626 195.317 198.687 195.219 198.987 195.224C200.014 195.243 201.042 195.24 202.07 195.226C202.351 195.221 202.417 195.312 202.411 195.58C202.392 196.345 202.404 197.11 202.404 197.876L202.402 197.877Z" fill="#131413"/>
</g>
<rect x="158.655" y="176.655" width="82.69" height="82.69" rx="41.345" stroke="url(#paint1_linear_1964_35739)" stroke-width="1.31"/>
<path d="M191.218 272.909H192.803V281.577C192.803 282.472 192.592 283.271 192.171 283.974C191.753 284.673 191.163 285.224 190.4 285.629C189.637 286.03 188.742 286.23 187.715 286.23C186.688 286.23 185.793 286.03 185.031 285.629C184.268 285.224 183.676 284.673 183.254 283.974C182.836 283.271 182.627 282.472 182.627 281.577V272.909H184.212V281.449C184.212 282.088 184.353 282.657 184.634 283.156C184.916 283.65 185.316 284.04 185.836 284.325C186.36 284.607 186.987 284.747 187.715 284.747C188.444 284.747 189.07 284.607 189.595 284.325C190.119 284.04 190.519 283.65 190.796 283.156C191.078 282.657 191.218 282.088 191.218 281.449V272.909ZM203.128 276.182C203.051 275.534 202.74 275.031 202.195 274.673C201.649 274.315 200.98 274.136 200.188 274.136C199.608 274.136 199.101 274.23 198.666 274.418C198.236 274.605 197.899 274.863 197.657 275.191C197.418 275.519 197.299 275.892 197.299 276.31C197.299 276.659 197.382 276.96 197.548 277.211C197.718 277.458 197.936 277.665 198.2 277.831C198.464 277.993 198.741 278.127 199.031 278.234C199.321 278.336 199.587 278.419 199.83 278.483L201.159 278.841C201.5 278.93 201.88 279.054 202.297 279.212C202.719 279.369 203.122 279.585 203.505 279.857C203.893 280.126 204.213 280.471 204.464 280.893C204.715 281.315 204.841 281.832 204.841 282.446C204.841 283.153 204.656 283.793 204.285 284.364C203.919 284.935 203.382 285.388 202.674 285.725C201.971 286.062 201.117 286.23 200.111 286.23C199.174 286.23 198.362 286.079 197.676 285.776C196.994 285.474 196.457 285.052 196.065 284.511C195.677 283.969 195.458 283.341 195.407 282.625H197.043C197.085 283.119 197.252 283.528 197.541 283.852C197.835 284.172 198.206 284.411 198.654 284.568C199.105 284.722 199.591 284.798 200.111 284.798C200.716 284.798 201.259 284.7 201.741 284.504C202.223 284.304 202.604 284.027 202.885 283.673C203.166 283.315 203.307 282.898 203.307 282.42C203.307 281.986 203.186 281.632 202.943 281.359C202.7 281.087 202.38 280.865 201.984 280.695C201.588 280.524 201.159 280.375 200.699 280.247L199.088 279.787C198.066 279.493 197.256 279.073 196.659 278.528C196.063 277.982 195.764 277.268 195.764 276.386C195.764 275.653 195.963 275.014 196.359 274.469C196.759 273.919 197.296 273.493 197.97 273.19C198.647 272.884 199.404 272.73 200.239 272.73C201.083 272.73 201.833 272.881 202.489 273.184C203.145 273.482 203.665 273.891 204.049 274.411C204.436 274.931 204.641 275.521 204.662 276.182H203.128ZM217.982 277H216.396C216.303 276.544 216.139 276.143 215.904 275.798C215.674 275.453 215.393 275.163 215.06 274.929C214.732 274.69 214.368 274.511 213.967 274.392C213.567 274.273 213.149 274.213 212.715 274.213C211.922 274.213 211.204 274.413 210.56 274.814C209.921 275.214 209.412 275.805 209.033 276.585C208.658 277.364 208.47 278.321 208.47 279.455C208.47 280.588 208.658 281.545 209.033 282.325C209.412 283.104 209.921 283.695 210.56 284.095C211.204 284.496 211.922 284.696 212.715 284.696C213.149 284.696 213.567 284.636 213.967 284.517C214.368 284.398 214.732 284.221 215.06 283.987C215.393 283.748 215.674 283.456 215.904 283.111C216.139 282.761 216.303 282.361 216.396 281.909H217.982C217.862 282.578 217.645 283.177 217.33 283.705C217.014 284.234 216.622 284.683 216.153 285.054C215.685 285.42 215.158 285.7 214.575 285.891C213.995 286.083 213.375 286.179 212.715 286.179C211.598 286.179 210.605 285.906 209.736 285.361C208.867 284.815 208.183 284.04 207.684 283.034C207.185 282.028 206.936 280.835 206.936 279.455C206.936 278.074 207.185 276.881 207.684 275.875C208.183 274.869 208.867 274.094 209.736 273.548C210.605 273.003 211.598 272.73 212.715 272.73C213.375 272.73 213.995 272.826 214.575 273.018C215.158 273.21 215.685 273.491 216.153 273.862C216.622 274.228 217.014 274.675 217.33 275.204C217.645 275.728 217.862 276.327 217.982 277Z" fill="#728397"/>
<rect x="292.656" y="38.6562" width="82.6875" height="82.6875" rx="41.3438" fill="#131313"/>
<rect x="292.656" y="38.6562" width="82.6875" height="82.6875" rx="41.3438" stroke="url(#paint2_linear_1964_35739)" stroke-width="1.3125"/>
<path d="M321 81.8727C325.574 84.2993 330.347 86.8391 334.033 88.8043L346.959 81.8727C342.279 88.8183 338.379 94.6005 334.033 101C329.679 94.6146 324.871 87.5692 321 81.8727ZM321.497 79.9571L334.047 73.2677L346.434 79.9081L334.054 86.6051L321.497 79.9571ZM334.033 71.1245L321 77.9779L333.976 59L346.959 78.0204L334.033 71.1245Z" fill="#33FF99"/>
<path d="M334.033 88.8043L346.959 81.8727C342.279 88.8183 334.033 101 334.033 101V88.8043ZM334.047 73.2677L346.434 79.9081L334.054 86.6051L334.047 73.2677ZM334.033 71.125L333.976 59L346.959 78.0204L334.033 71.125Z" fill="#33FF99"/>
<path d="M301.545 148V134.909H303.13V146.594H309.216V148H301.545ZM315.582 148.205C314.636 148.205 313.82 147.996 313.134 147.578C312.452 147.156 311.926 146.568 311.555 145.814C311.189 145.055 311.005 144.173 311.005 143.168C311.005 142.162 311.189 141.276 311.555 140.509C311.926 139.737 312.441 139.136 313.102 138.706C313.767 138.271 314.542 138.054 315.429 138.054C315.94 138.054 316.445 138.139 316.944 138.31C317.442 138.48 317.896 138.757 318.305 139.141C318.714 139.52 319.04 140.023 319.283 140.649C319.526 141.276 319.647 142.047 319.647 142.963V143.602H312.079V142.298H318.113C318.113 141.744 318.003 141.25 317.781 140.815C317.564 140.381 317.253 140.038 316.848 139.786C316.447 139.535 315.974 139.409 315.429 139.409C314.828 139.409 314.308 139.558 313.869 139.857C313.434 140.151 313.1 140.534 312.866 141.007C312.631 141.48 312.514 141.987 312.514 142.528V143.398C312.514 144.139 312.642 144.768 312.897 145.283C313.157 145.795 313.517 146.185 313.978 146.453C314.438 146.717 314.973 146.849 315.582 146.849C315.978 146.849 316.336 146.794 316.656 146.683C316.98 146.568 317.259 146.398 317.493 146.172C317.728 145.942 317.909 145.656 318.037 145.315L319.494 145.724C319.341 146.219 319.083 146.653 318.721 147.028C318.358 147.399 317.911 147.689 317.378 147.898C316.846 148.102 316.247 148.205 315.582 148.205ZM323.451 142.094V148H321.942V138.182H323.4V139.716H323.527C323.758 139.217 324.107 138.817 324.576 138.514C325.044 138.207 325.65 138.054 326.391 138.054C327.056 138.054 327.638 138.19 328.136 138.463C328.635 138.732 329.022 139.141 329.299 139.69C329.576 140.236 329.715 140.926 329.715 141.761V148H328.206V141.864C328.206 141.092 328.006 140.491 327.606 140.061C327.205 139.626 326.655 139.409 325.956 139.409C325.475 139.409 325.044 139.513 324.665 139.722C324.29 139.931 323.994 140.236 323.777 140.636C323.559 141.037 323.451 141.523 323.451 142.094ZM336.179 148.205C335.361 148.205 334.638 147.998 334.012 147.585C333.386 147.167 332.896 146.579 332.542 145.82C332.188 145.058 332.011 144.156 332.011 143.116C332.011 142.085 332.188 141.19 332.542 140.432C332.896 139.673 333.388 139.087 334.018 138.674C334.649 138.261 335.378 138.054 336.204 138.054C336.844 138.054 337.349 138.161 337.719 138.374C338.094 138.582 338.38 138.821 338.576 139.089C338.776 139.354 338.932 139.571 339.043 139.741H339.17V134.909H340.679V148H339.222V146.491H339.043C338.932 146.67 338.774 146.896 338.57 147.169C338.365 147.437 338.073 147.678 337.694 147.891C337.315 148.1 336.81 148.205 336.179 148.205ZM336.383 146.849C336.989 146.849 337.5 146.692 337.918 146.376C338.335 146.057 338.653 145.616 338.87 145.053C339.087 144.487 339.196 143.832 339.196 143.091C339.196 142.358 339.089 141.717 338.876 141.167C338.663 140.613 338.348 140.183 337.93 139.876C337.513 139.565 336.997 139.409 336.383 139.409C335.744 139.409 335.212 139.573 334.785 139.901C334.364 140.225 334.046 140.666 333.833 141.224C333.624 141.778 333.52 142.401 333.52 143.091C333.52 143.79 333.626 144.425 333.839 144.996C334.057 145.562 334.376 146.014 334.798 146.351C335.224 146.683 335.753 146.849 336.383 146.849ZM343.651 148V138.182H345.16V148H343.651ZM344.418 136.545C344.124 136.545 343.871 136.445 343.658 136.245C343.449 136.045 343.344 135.804 343.344 135.523C343.344 135.241 343.449 135.001 343.658 134.8C343.871 134.6 344.124 134.5 344.418 134.5C344.712 134.5 344.964 134.6 345.172 134.8C345.386 135.001 345.492 135.241 345.492 135.523C345.492 135.804 345.386 136.045 345.172 136.245C344.964 136.445 344.712 136.545 344.418 136.545ZM349.431 142.094V148H347.923V138.182H349.38V139.716H349.508C349.738 139.217 350.087 138.817 350.556 138.514C351.025 138.207 351.63 138.054 352.372 138.054C353.036 138.054 353.618 138.19 354.117 138.463C354.615 138.732 355.003 139.141 355.28 139.69C355.557 140.236 355.695 140.926 355.695 141.761V148H354.187V141.864C354.187 141.092 353.987 140.491 353.586 140.061C353.185 139.626 352.636 139.409 351.937 139.409C351.455 139.409 351.025 139.513 350.646 139.722C350.271 139.931 349.975 140.236 349.757 140.636C349.54 141.037 349.431 141.523 349.431 142.094ZM362.415 151.886C361.686 151.886 361.06 151.793 360.536 151.605C360.012 151.422 359.575 151.179 359.225 150.876C358.88 150.578 358.605 150.259 358.401 149.918L359.603 149.074C359.739 149.253 359.911 149.457 360.12 149.688C360.329 149.922 360.615 150.124 360.977 150.295C361.343 150.469 361.823 150.557 362.415 150.557C363.208 150.557 363.862 150.365 364.377 149.982C364.893 149.598 365.151 148.997 365.151 148.179V146.185H365.023C364.912 146.364 364.755 146.585 364.55 146.849C364.35 147.109 364.06 147.342 363.681 147.546C363.306 147.746 362.799 147.847 362.159 147.847C361.367 147.847 360.655 147.659 360.024 147.284C359.398 146.909 358.902 146.364 358.535 145.648C358.173 144.932 357.992 144.062 357.992 143.04C357.992 142.034 358.169 141.158 358.522 140.413C358.876 139.663 359.368 139.083 359.999 138.674C360.63 138.261 361.358 138.054 362.185 138.054C362.824 138.054 363.331 138.161 363.706 138.374C364.085 138.582 364.375 138.821 364.576 139.089C364.78 139.354 364.938 139.571 365.049 139.741H365.202V138.182H366.659V148.281C366.659 149.125 366.468 149.811 366.084 150.339C365.705 150.872 365.193 151.262 364.55 151.509C363.911 151.761 363.199 151.886 362.415 151.886ZM362.364 146.491C362.969 146.491 363.48 146.353 363.898 146.076C364.316 145.799 364.633 145.401 364.85 144.881C365.068 144.361 365.176 143.739 365.176 143.014C365.176 142.307 365.07 141.683 364.857 141.141C364.644 140.6 364.328 140.176 363.911 139.869C363.493 139.562 362.978 139.409 362.364 139.409C361.725 139.409 361.192 139.571 360.766 139.895C360.344 140.219 360.027 140.653 359.813 141.199C359.605 141.744 359.5 142.349 359.5 143.014C359.5 143.696 359.607 144.299 359.82 144.823C360.037 145.343 360.357 145.752 360.779 146.05C361.205 146.344 361.733 146.491 362.364 146.491Z" fill="#728397"/>
<rect x="292.656" y="176.656" width="82.6875" height="82.6875" rx="41.3438" fill="#131313"/>
<rect x="292.656" y="176.656" width="82.6875" height="82.6875" rx="41.3438" stroke="url(#paint3_linear_1964_35739)" stroke-width="1.3125"/>
<path d="M332.765 197.762L321.229 216.73C320.772 217.48 321.021 218.453 321.781 218.898L333.317 225.656C333.815 225.949 334.436 225.949 334.934 225.656L346.47 218.898C347.229 218.453 347.479 217.48 347.022 216.73L335.488 197.762C334.87 196.746 333.383 196.746 332.765 197.762Z" fill="#33FF99"/>
<path d="M344.071 225.901C344.071 225.872 344.066 225.845 344.064 225.818C344.059 225.792 344.054 225.765 344.049 225.738C344.042 225.706 344.032 225.677 344.022 225.645C344.015 225.621 344.008 225.599 343.995 225.577C343.98 225.543 343.961 225.509 343.942 225.477C343.932 225.46 343.922 225.441 343.91 225.424C343.876 225.375 343.839 225.326 343.795 225.285C343.751 225.244 343.705 225.205 343.656 225.17C343.639 225.158 343.622 225.151 343.602 225.139C343.57 225.119 343.536 225.1 343.502 225.085C343.48 225.075 343.456 225.068 343.431 225.058C343.402 225.049 343.37 225.039 343.339 225.032C343.312 225.024 343.285 225.02 343.258 225.017C343.231 225.012 343.204 225.01 343.175 225.01C343.143 225.01 343.114 225.007 343.082 225.01C343.06 225.01 343.038 225.015 343.014 225.017C342.98 225.022 342.945 225.024 342.911 225.032C342.902 225.032 342.892 225.039 342.882 225.041C342.777 225.068 342.677 225.11 342.584 225.17L334.992 229.645C334.455 229.961 333.791 229.961 333.254 229.645L325.662 225.17C325.569 225.11 325.469 225.068 325.364 225.041C325.354 225.039 325.344 225.034 325.335 225.032C325.3 225.024 325.266 225.022 325.232 225.017C325.21 225.015 325.188 225.012 325.164 225.01C325.132 225.01 325.103 225.01 325.071 225.01C325.044 225.01 325.015 225.015 324.988 225.017C324.961 225.022 324.934 225.027 324.907 225.032C324.876 225.039 324.846 225.049 324.815 225.058C324.79 225.066 324.768 225.075 324.744 225.085C324.71 225.1 324.675 225.119 324.644 225.139C324.627 225.149 324.607 225.158 324.59 225.17C324.541 225.205 324.492 225.241 324.451 225.285C324.409 225.329 324.37 225.375 324.336 225.424C324.324 225.441 324.317 225.458 324.304 225.477C324.285 225.511 324.265 225.543 324.251 225.577C324.241 225.599 324.234 225.624 324.224 225.645C324.214 225.677 324.204 225.706 324.197 225.738C324.19 225.765 324.185 225.792 324.182 225.818C324.177 225.845 324.175 225.875 324.175 225.901C324.175 225.93 324.172 225.962 324.175 225.991C324.175 226.016 324.18 226.038 324.182 226.062C324.187 226.096 324.19 226.13 324.197 226.162C324.199 226.176 324.204 226.189 324.209 226.201C324.238 226.313 324.287 226.418 324.358 226.515L332.727 238.282C333.408 239.239 334.833 239.239 335.514 238.282L343.883 226.515C343.954 226.418 344.003 226.313 344.032 226.201C344.034 226.189 344.042 226.174 344.044 226.162C344.051 226.128 344.054 226.096 344.059 226.062C344.061 226.038 344.064 226.016 344.066 225.991C344.066 225.962 344.066 225.93 344.066 225.901H344.071Z" fill="#33FF99"/>
<path d="M295.586 286V272.909H303.487V274.315H297.171V278.739H303.078V280.145H297.171V284.594H303.589V286H295.586ZM305.628 274.315V272.909H315.446V274.315H311.33V286H309.745V274.315H305.628ZM327.882 277H326.297C326.203 276.544 326.039 276.143 325.805 275.798C325.574 275.453 325.293 275.163 324.961 274.929C324.633 274.69 324.268 274.511 323.868 274.392C323.467 274.273 323.05 274.213 322.615 274.213C321.822 274.213 321.104 274.413 320.461 274.814C319.822 275.214 319.312 275.805 318.933 276.585C318.558 277.364 318.371 278.321 318.371 279.455C318.371 280.588 318.558 281.545 318.933 282.325C319.312 283.104 319.822 283.695 320.461 284.095C321.104 284.496 321.822 284.696 322.615 284.696C323.05 284.696 323.467 284.636 323.868 284.517C324.268 284.398 324.633 284.221 324.961 283.987C325.293 283.748 325.574 283.456 325.805 283.111C326.039 282.761 326.203 282.361 326.297 281.909H327.882C327.763 282.578 327.545 283.177 327.23 283.705C326.915 284.234 326.523 284.683 326.054 285.054C325.585 285.42 325.059 285.7 324.475 285.891C323.896 286.083 323.275 286.179 322.615 286.179C321.498 286.179 320.506 285.906 319.636 285.361C318.767 284.815 318.083 284.04 317.584 283.034C317.086 282.028 316.837 280.835 316.837 279.455C316.837 278.074 317.086 276.881 317.584 275.875C318.083 274.869 318.767 274.094 319.636 273.548C320.506 273.003 321.498 272.73 322.615 272.73C323.275 272.73 323.896 272.826 324.475 273.018C325.059 273.21 325.585 273.491 326.054 273.862C326.523 274.228 326.915 274.675 327.23 275.204C327.545 275.728 327.763 276.327 327.882 277ZM337.194 278.381L335.839 278.764C335.753 278.538 335.628 278.319 335.461 278.106C335.299 277.888 335.078 277.71 334.797 277.569C334.515 277.428 334.155 277.358 333.716 277.358C333.116 277.358 332.615 277.496 332.214 277.773C331.818 278.046 331.62 278.393 331.62 278.815C331.62 279.19 331.756 279.487 332.029 279.704C332.302 279.921 332.728 280.102 333.307 280.247L334.765 280.605C335.642 280.818 336.297 281.144 336.727 281.583C337.157 282.018 337.373 282.578 337.373 283.264C337.373 283.827 337.211 284.33 336.887 284.773C336.567 285.216 336.12 285.565 335.544 285.821C334.969 286.077 334.3 286.205 333.537 286.205C332.536 286.205 331.707 285.987 331.051 285.553C330.395 285.118 329.979 284.483 329.804 283.648L331.236 283.29C331.373 283.818 331.63 284.214 332.01 284.479C332.393 284.743 332.894 284.875 333.512 284.875C334.215 284.875 334.773 284.726 335.187 284.428C335.604 284.125 335.813 283.763 335.813 283.341C335.813 283 335.694 282.714 335.455 282.484C335.216 282.25 334.85 282.075 334.356 281.96L332.719 281.577C331.82 281.364 331.16 281.033 330.738 280.586C330.32 280.134 330.111 279.57 330.111 278.892C330.111 278.338 330.267 277.848 330.578 277.422C330.893 276.996 331.321 276.661 331.863 276.418C332.408 276.175 333.026 276.054 333.716 276.054C334.688 276.054 335.451 276.267 336.005 276.693C336.563 277.119 336.959 277.682 337.194 278.381ZM341.868 286L338.876 276.182H340.462L342.584 283.699H342.686L344.783 276.182H346.393L348.464 283.673H348.567L350.689 276.182H352.274L349.283 286H347.8L345.652 278.457H345.498L343.351 286H341.868ZM357.158 286.23C356.535 286.23 355.971 286.113 355.464 285.879C354.957 285.64 354.554 285.297 354.256 284.849C353.957 284.398 353.808 283.852 353.808 283.213C353.808 282.651 353.919 282.195 354.141 281.845C354.362 281.491 354.658 281.214 355.029 281.014C355.4 280.814 355.809 280.665 356.256 280.567C356.708 280.464 357.162 280.384 357.618 280.324C358.214 280.247 358.698 280.19 359.069 280.151C359.444 280.109 359.717 280.038 359.887 279.94C360.062 279.842 360.149 279.672 360.149 279.429V279.378C360.149 278.747 359.976 278.257 359.631 277.908C359.29 277.558 358.773 277.384 358.078 277.384C357.358 277.384 356.793 277.541 356.384 277.857C355.975 278.172 355.687 278.509 355.521 278.866L354.089 278.355C354.345 277.759 354.686 277.294 355.112 276.962C355.543 276.625 356.011 276.391 356.518 276.259C357.03 276.122 357.533 276.054 358.027 276.054C358.342 276.054 358.704 276.092 359.114 276.169C359.527 276.241 359.925 276.393 360.309 276.623C360.697 276.853 361.018 277.2 361.274 277.665C361.53 278.129 361.658 278.751 361.658 279.531V286H360.149V284.67H360.072C359.97 284.884 359.8 285.112 359.561 285.354C359.322 285.597 359.005 285.804 358.609 285.974C358.212 286.145 357.729 286.23 357.158 286.23ZM357.388 284.875C357.984 284.875 358.487 284.758 358.896 284.523C359.31 284.289 359.621 283.987 359.829 283.616C360.043 283.245 360.149 282.855 360.149 282.446V281.065C360.085 281.142 359.945 281.212 359.727 281.276C359.514 281.336 359.267 281.389 358.986 281.436C358.709 281.479 358.438 281.517 358.174 281.551C357.914 281.581 357.703 281.607 357.541 281.628C357.149 281.679 356.783 281.762 356.442 281.877C356.105 281.988 355.832 282.156 355.623 282.382C355.419 282.604 355.317 282.906 355.317 283.29C355.317 283.814 355.511 284.21 355.898 284.479C356.29 284.743 356.787 284.875 357.388 284.875ZM364.411 289.682V276.182H365.868V277.741H366.047C366.158 277.571 366.312 277.354 366.508 277.089C366.708 276.821 366.993 276.582 367.364 276.374C367.739 276.161 368.246 276.054 368.885 276.054C369.712 276.054 370.441 276.261 371.071 276.674C371.702 277.087 372.194 277.673 372.548 278.432C372.902 279.19 373.079 280.085 373.079 281.116C373.079 282.156 372.902 283.058 372.548 283.82C372.194 284.579 371.704 285.167 371.078 285.585C370.451 285.998 369.729 286.205 368.911 286.205C368.28 286.205 367.775 286.1 367.396 285.891C367.017 285.678 366.725 285.437 366.52 285.169C366.316 284.896 366.158 284.67 366.047 284.491H365.919V289.682H364.411ZM365.894 281.091C365.894 281.832 366.003 282.487 366.22 283.053C366.437 283.616 366.755 284.057 367.172 284.376C367.59 284.692 368.101 284.849 368.706 284.849C369.337 284.849 369.863 284.683 370.285 284.351C370.711 284.014 371.031 283.562 371.244 282.996C371.461 282.425 371.57 281.79 371.57 281.091C371.57 280.401 371.464 279.778 371.25 279.224C371.042 278.666 370.724 278.225 370.298 277.901C369.876 277.573 369.346 277.409 368.706 277.409C368.093 277.409 367.577 277.565 367.16 277.876C366.742 278.183 366.427 278.613 366.214 279.167C366 279.717 365.894 280.358 365.894 281.091Z" fill="#728397"/>
<rect x="292.656" y="314.656" width="82.6875" height="82.6875" rx="41.3438" fill="#131313"/>
<rect x="292.656" y="314.656" width="82.6875" height="82.6875" rx="41.3438" stroke="url(#paint4_linear_1964_35739)" stroke-width="1.3125"/>
<path d="M321 357.873C325.574 360.299 330.347 362.839 334.033 364.804L346.959 357.873C342.279 364.818 338.379 370.601 334.033 377C329.679 370.615 324.871 363.569 321 357.873ZM321.497 355.957L334.047 349.268L346.434 355.908L334.054 362.605L321.497 355.957ZM334.033 347.125L321 353.978L333.976 335L346.959 354.02L334.033 347.125Z" fill="#33FF99"/>
<path d="M334.033 364.804L346.959 357.873C342.279 364.818 334.033 377 334.033 377V364.804ZM334.047 349.268L346.434 355.908L334.054 362.605L334.047 349.268ZM334.033 347.125L333.976 335L346.959 354.02L334.033 347.125Z" fill="#33FF99"/>
<path d="M320.5 424H316.46V410.909H320.679C321.949 410.909 323.036 411.171 323.939 411.695C324.842 412.215 325.535 412.963 326.016 413.939C326.498 414.911 326.739 416.074 326.739 417.429C326.739 418.793 326.496 419.967 326.01 420.951C325.524 421.931 324.817 422.685 323.888 423.214C322.959 423.738 321.83 424 320.5 424ZM318.045 422.594H320.398C321.48 422.594 322.377 422.385 323.089 421.967C323.8 421.55 324.331 420.955 324.68 420.184C325.03 419.413 325.205 418.494 325.205 417.429C325.205 416.372 325.032 415.462 324.687 414.7C324.342 413.933 323.826 413.344 323.14 412.935C322.454 412.522 321.599 412.315 320.577 412.315H318.045V422.594ZM333.31 424.205C332.364 424.205 331.548 423.996 330.862 423.578C330.18 423.156 329.653 422.568 329.283 421.814C328.916 421.055 328.733 420.173 328.733 419.168C328.733 418.162 328.916 417.276 329.283 416.509C329.653 415.737 330.169 415.136 330.83 414.706C331.494 414.271 332.27 414.054 333.156 414.054C333.668 414.054 334.173 414.139 334.671 414.31C335.17 414.48 335.624 414.757 336.033 415.141C336.442 415.52 336.768 416.023 337.011 416.649C337.254 417.276 337.375 418.047 337.375 418.963V419.602H329.807V418.298H335.841C335.841 417.744 335.73 417.25 335.509 416.815C335.291 416.381 334.98 416.038 334.575 415.786C334.175 415.535 333.702 415.409 333.156 415.409C332.555 415.409 332.036 415.558 331.597 415.857C331.162 416.151 330.827 416.534 330.593 417.007C330.359 417.48 330.241 417.987 330.241 418.528V419.398C330.241 420.139 330.369 420.768 330.625 421.283C330.885 421.795 331.245 422.185 331.705 422.453C332.165 422.717 332.7 422.849 333.31 422.849C333.706 422.849 334.064 422.794 334.384 422.683C334.707 422.568 334.987 422.398 335.221 422.172C335.455 421.942 335.636 421.656 335.764 421.315L337.222 421.724C337.068 422.219 336.81 422.653 336.448 423.028C336.086 423.399 335.638 423.689 335.106 423.898C334.573 424.102 333.974 424.205 333.31 424.205ZM339.874 424V410.909H347.724V412.315H341.46V416.739H347.136V418.145H341.46V424H339.874ZM350.234 424V414.182H351.743V424H350.234ZM351.001 412.545C350.707 412.545 350.454 412.445 350.241 412.245C350.032 412.045 349.927 411.804 349.927 411.523C349.927 411.241 350.032 411.001 350.241 410.8C350.454 410.6 350.707 410.5 351.001 410.5C351.295 410.5 351.547 410.6 351.756 410.8C351.969 411.001 352.075 411.241 352.075 411.523C352.075 411.804 351.969 412.045 351.756 412.245C351.547 412.445 351.295 412.545 351.001 412.545Z" fill="#728397"/>
<path d="M126 217C125.448 217 125 217.448 125 218C125 218.552 125.448 219 126 219V217ZM141.207 218.707C141.598 218.317 141.598 217.683 141.207 217.293L134.843 210.929C134.453 210.538 133.819 210.538 133.429 210.929C133.038 211.319 133.038 211.953 133.429 212.343L139.086 218L133.429 223.657C133.038 224.047 133.038 224.681 133.429 225.071C133.819 225.462 134.453 225.462 134.843 225.071L141.207 218.707ZM126 219H140.5V217H126V219Z" fill="#728397"/>
<path d="M260 217C259.448 217 259 217.448 259 218C259 218.552 259.448 219 260 219V217ZM275.207 218.707C275.598 218.317 275.598 217.683 275.207 217.293L268.843 210.929C268.453 210.538 267.819 210.538 267.429 210.929C267.038 211.319 267.038 211.953 267.429 212.343L273.086 218L267.429 223.657C267.038 224.047 267.038 224.681 267.429 225.071C267.819 225.462 268.453 225.462 268.843 225.071L275.207 218.707ZM260 219H274.5V217H260V219Z" fill="#728397"/>
<path d="M245.543 161.293C245.152 161.683 245.152 162.317 245.543 162.707C245.933 163.098 246.567 163.098 246.957 162.707L245.543 161.293ZM273.376 135.874C273.376 135.322 272.928 134.874 272.376 134.874L263.376 134.874C262.824 134.874 262.376 135.322 262.376 135.874C262.376 136.426 262.824 136.874 263.376 136.874L271.376 136.874L271.376 144.874C271.376 145.426 271.824 145.874 272.376 145.874C272.928 145.874 273.376 145.426 273.376 144.874L273.376 135.874ZM246.957 162.707L273.083 136.581L271.669 135.167L245.543 161.293L246.957 162.707Z" fill="#728397"/>
<path d="M246.957 275.167C246.567 274.776 245.933 274.776 245.543 275.167C245.152 275.557 245.152 276.191 245.543 276.581L246.957 275.167ZM272.376 303C272.928 303 273.376 302.552 273.376 302L273.376 293C273.376 292.448 272.928 292 272.376 292C271.824 292 271.376 292.448 271.376 293L271.376 301L263.376 301C262.824 301 262.376 301.448 262.376 302C262.376 302.552 262.824 303 263.376 303L272.376 303ZM245.543 276.581L271.669 302.707L273.083 301.293L246.957 275.167L245.543 276.581Z" fill="#728397"/>
<defs>
<linearGradient id="paint0_linear_1964_35739" x1="24" y1="259.616" x2="107.939" y2="175.998" gradientUnits="userSpaceOnUse">
<stop stop-color="#7A5AF8"/>
<stop offset="1" stop-color="#C1B1FF"/>
</linearGradient>
<linearGradient id="paint1_linear_1964_35739" x1="158" y1="259.616" x2="241.939" y2="175.998" gradientUnits="userSpaceOnUse">
<stop stop-color="#32FD97"/>
<stop offset="1" stop-color="#9FFFCF"/>
</linearGradient>
<linearGradient id="paint2_linear_1964_35739" x1="292" y1="121.616" x2="375.939" y2="37.9975" gradientUnits="userSpaceOnUse">
<stop stop-color="#131313"/>
<stop offset="1" stop-color="#646464"/>
</linearGradient>
<linearGradient id="paint3_linear_1964_35739" x1="292" y1="259.616" x2="375.939" y2="175.998" gradientUnits="userSpaceOnUse">
<stop stop-color="#131313"/>
<stop offset="1" stop-color="#646464"/>
</linearGradient>
<linearGradient id="paint4_linear_1964_35739" x1="292" y1="397.616" x2="375.939" y2="313.998" gradientUnits="userSpaceOnUse">
<stop stop-color="#131313"/>
<stop offset="1" stop-color="#646464"/>
</linearGradient>
<clipPath id="clip0_1964_35739">
<rect x="158" y="176" width="84" height="84" rx="42" fill="white"/>
</clipPath>
</defs>
</svg>
