<svg width="1620" height="836" viewBox="0 0 1620 836" fill="none" xmlns="http://www.w3.org/2000/svg">
<rect width="1620" height="836" rx="24" fill="black"/>
<line x1="84" y1="234" x2="1537" y2="234" stroke="#252529" stroke-width="2"/>
<line x1="84" y1="417" x2="1537" y2="417" stroke="#252529" stroke-width="2"/>
<line x1="84" y1="600" x2="1537" y2="600" stroke="#252529" stroke-width="2"/>
<path d="M182 176C199.673 176 214 161.673 214 144C214 126.327 199.673 112 182 112C164.327 112 150 126.327 150 144C150 161.673 164.327 176 182 176Z" fill="white"/>
<path d="M181.636 117L181.273 118.23V153.923L181.636 154.284L198.272 144.491L181.636 117Z" fill="#343434"/>
<path d="M181.636 117L165 144.491L181.636 154.284V136.96V117Z" fill="#8C8C8C"/>
<path d="M181.636 157.421L181.431 157.669V170.384L181.636 170.98L198.282 147.632L181.636 157.421Z" fill="#3C3C3B"/>
<path d="M181.636 170.98V157.421L165 147.632L181.636 170.98Z" fill="#8C8C8C"/>
<path d="M181.636 154.284L198.272 144.491L181.636 136.96V154.284Z" fill="#141414"/>
<path d="M165 144.491L181.636 154.284V136.96L165 144.491Z" fill="#393939"/>
<path d="M241.356 161V130.455H260.506V134.422H245.964V143.729H259.507V147.681H245.964V157.033H260.685V161H241.356ZM276.998 138.091V141.67H264.485V138.091H276.998ZM267.841 132.602H272.3V154.273C272.3 155.138 272.43 155.79 272.688 156.227C272.947 156.655 273.28 156.948 273.687 157.107C274.105 157.256 274.557 157.331 275.045 157.331C275.403 157.331 275.716 157.306 275.984 157.256C276.253 157.207 276.461 157.167 276.611 157.137L277.416 160.821C277.157 160.92 276.79 161.02 276.312 161.119C275.835 161.229 275.238 161.288 274.523 161.298C273.349 161.318 272.256 161.109 271.241 160.672C270.227 160.234 269.407 159.558 268.78 158.643C268.154 157.729 267.841 156.58 267.841 155.198V132.602ZM286.883 147.398V161H282.424V130.455H286.824V141.82H287.107C287.644 140.587 288.464 139.607 289.568 138.881C290.672 138.156 292.113 137.793 293.893 137.793C295.464 137.793 296.836 138.116 298.01 138.762C299.193 139.408 300.108 140.373 300.754 141.656C301.41 142.928 301.738 144.519 301.738 146.428V161H297.279V146.965C297.279 145.285 296.846 143.982 295.981 143.058C295.116 142.123 293.913 141.656 292.372 141.656C291.318 141.656 290.373 141.879 289.538 142.327C288.713 142.774 288.061 143.43 287.584 144.295C287.117 145.151 286.883 146.185 286.883 147.398ZM317.563 161.462C315.306 161.462 313.362 160.98 311.731 160.016C310.11 159.041 308.858 157.674 307.973 155.914C307.098 154.144 306.66 152.071 306.66 149.695C306.66 147.348 307.098 145.28 307.973 143.49C308.858 141.7 310.091 140.303 311.672 139.299C313.262 138.295 315.122 137.793 317.25 137.793C318.542 137.793 319.795 138.006 321.008 138.434C322.221 138.862 323.31 139.533 324.275 140.447C325.239 141.362 326 142.55 326.556 144.012C327.113 145.464 327.392 147.229 327.392 149.307V150.888H309.181V147.547H323.022C323.022 146.374 322.783 145.335 322.306 144.43C321.828 143.515 321.157 142.794 320.292 142.267C319.437 141.74 318.433 141.477 317.279 141.477C316.027 141.477 314.933 141.785 313.998 142.401C313.074 143.008 312.358 143.803 311.85 144.788C311.353 145.762 311.105 146.821 311.105 147.964V150.575C311.105 152.106 311.373 153.408 311.91 154.482C312.457 155.556 313.218 156.376 314.192 156.943C315.167 157.5 316.305 157.778 317.608 157.778C318.453 157.778 319.223 157.659 319.919 157.42C320.615 157.172 321.217 156.804 321.724 156.317C322.231 155.83 322.619 155.228 322.887 154.512L327.108 155.273C326.77 156.516 326.164 157.604 325.289 158.539C324.424 159.464 323.335 160.185 322.022 160.702C320.72 161.209 319.233 161.462 317.563 161.462ZM332.34 161V138.091H336.65V141.73H336.889C337.306 140.497 338.042 139.528 339.096 138.822C340.16 138.106 341.363 137.748 342.705 137.748C342.984 137.748 343.312 137.758 343.69 137.778C344.078 137.798 344.381 137.822 344.6 137.852V142.118C344.421 142.068 344.102 142.013 343.645 141.954C343.188 141.884 342.73 141.849 342.273 141.849C341.219 141.849 340.279 142.073 339.454 142.521C338.639 142.958 337.992 143.57 337.515 144.355C337.038 145.131 336.799 146.016 336.799 147.01V161H332.34ZM357.512 161.462C355.255 161.462 353.311 160.98 351.68 160.016C350.06 159.041 348.807 157.674 347.922 155.914C347.047 154.144 346.609 152.071 346.609 149.695C346.609 147.348 347.047 145.28 347.922 143.49C348.807 141.7 350.04 140.303 351.621 139.299C353.212 138.295 355.071 137.793 357.199 137.793C358.491 137.793 359.744 138.006 360.957 138.434C362.17 138.862 363.259 139.533 364.224 140.447C365.188 141.362 365.949 142.55 366.506 144.012C367.063 145.464 367.341 147.229 367.341 149.307V150.888H349.13V147.547H362.971C362.971 146.374 362.732 145.335 362.255 144.43C361.778 143.515 361.107 142.794 360.241 142.267C359.386 141.74 358.382 141.477 357.229 141.477C355.976 141.477 354.882 141.785 353.947 142.401C353.023 143.008 352.307 143.803 351.8 144.788C351.303 145.762 351.054 146.821 351.054 147.964V150.575C351.054 152.106 351.322 153.408 351.859 154.482C352.406 155.556 353.167 156.376 354.141 156.943C355.116 157.5 356.254 157.778 357.557 157.778C358.402 157.778 359.173 157.659 359.869 157.42C360.565 157.172 361.166 156.804 361.673 156.317C362.18 155.83 362.568 155.228 362.837 154.512L367.058 155.273C366.719 156.516 366.113 157.604 365.238 158.539C364.373 159.464 363.284 160.185 361.972 160.702C360.669 161.209 359.183 161.462 357.512 161.462ZM386.801 151.499V138.091H391.275V161H386.89V157.033H386.652C386.125 158.256 385.28 159.275 384.116 160.09C382.963 160.896 381.526 161.298 379.806 161.298C378.334 161.298 377.032 160.975 375.898 160.329C374.775 159.673 373.89 158.703 373.243 157.42C372.607 156.138 372.289 154.552 372.289 152.663V138.091H376.748V152.126C376.748 153.687 377.181 154.93 378.046 155.854C378.911 156.779 380.035 157.241 381.417 157.241C382.252 157.241 383.082 157.033 383.907 156.615C384.743 156.197 385.434 155.566 385.981 154.721C386.537 153.876 386.811 152.802 386.801 151.499ZM397.267 161V138.091H401.548V141.82H401.831C402.309 140.557 403.089 139.572 404.173 138.866C405.257 138.151 406.554 137.793 408.066 137.793C409.597 137.793 410.88 138.151 411.914 138.866C412.958 139.582 413.728 140.567 414.225 141.82H414.464C415.011 140.597 415.881 139.622 417.074 138.896C418.267 138.161 419.689 137.793 421.34 137.793C423.418 137.793 425.113 138.444 426.426 139.746C427.748 141.049 428.409 143.013 428.409 145.638V161H423.95V146.055C423.95 144.504 423.527 143.381 422.682 142.685C421.837 141.989 420.828 141.641 419.654 141.641C418.203 141.641 417.074 142.088 416.269 142.983C415.463 143.868 415.061 145.006 415.061 146.398V161H410.616V145.772C410.616 144.529 410.228 143.53 409.453 142.774C408.677 142.018 407.668 141.641 406.425 141.641C405.58 141.641 404.799 141.864 404.083 142.312C403.377 142.749 402.806 143.361 402.368 144.146C401.941 144.932 401.727 145.842 401.727 146.876V161H397.267Z" fill="white"/>
<circle cx="182" cy="327" r="32" fill="white"/>
<path fill-rule="evenodd" clip-rule="evenodd" d="M214 327C214 344.673 199.673 359 182 359C164.327 359 150 344.673 150 327C150 309.327 164.327 295 182 295C199.673 295 214 309.327 214 327ZM172.932 339.734H166.722C165.417 339.734 164.772 339.734 164.379 339.483C163.955 339.208 163.695 338.752 163.664 338.249C163.64 337.785 163.963 337.219 164.607 336.087L179.941 309.058C180.594 307.911 180.924 307.337 181.34 307.125C181.789 306.897 182.323 306.897 182.771 307.125C183.188 307.337 183.518 307.911 184.17 309.058L187.323 314.561L187.339 314.589C188.044 315.821 188.401 316.445 188.557 317.1C188.73 317.816 188.73 318.57 188.557 319.286C188.4 319.946 188.046 320.575 187.331 321.825L179.276 336.063L179.255 336.1C178.546 337.341 178.186 337.97 177.688 338.445C177.146 338.964 176.493 339.341 175.778 339.554C175.125 339.734 174.394 339.734 172.932 339.734ZM188.615 339.734H197.514C198.827 339.734 199.487 339.734 199.88 339.475C200.305 339.2 200.572 338.736 200.596 338.233C200.618 337.785 200.303 337.24 199.685 336.174C199.664 336.138 199.643 336.101 199.621 336.063L195.163 328.438L195.113 328.352C194.486 327.293 194.17 326.758 193.764 326.551C193.316 326.323 192.789 326.323 192.341 326.551C191.933 326.764 191.602 327.322 190.95 328.446L186.508 336.071L186.493 336.097C185.843 337.22 185.518 337.781 185.541 338.241C185.573 338.744 185.832 339.208 186.257 339.483C186.642 339.734 187.302 339.734 188.615 339.734Z" fill="#E84142"/>
<path d="M243.936 344H239.044L250.036 313.455H255.361L266.353 344H261.461L252.825 319.003H252.587L243.936 344ZM244.756 332.038H260.626V335.916H244.756V332.038ZM287.133 321.091L278.825 344H274.053L265.73 321.091H270.518L276.32 338.72H276.558L282.345 321.091H287.133ZM297.335 344.507C295.883 344.507 294.57 344.239 293.397 343.702C292.224 343.155 291.294 342.364 290.608 341.33C289.932 340.296 289.594 339.028 289.594 337.527C289.594 336.234 289.843 335.17 290.34 334.335C290.837 333.5 291.508 332.839 292.353 332.352C293.198 331.864 294.143 331.496 295.187 331.248C296.231 330.999 297.295 330.81 298.379 330.681C299.751 330.522 300.865 330.393 301.72 330.293C302.575 330.184 303.196 330.01 303.584 329.771C303.972 329.533 304.166 329.145 304.166 328.608V328.504C304.166 327.201 303.798 326.192 303.062 325.476C302.336 324.76 301.252 324.402 299.811 324.402C298.309 324.402 297.126 324.735 296.261 325.401C295.406 326.058 294.814 326.788 294.486 327.594L290.295 326.639C290.792 325.247 291.518 324.124 292.472 323.268C293.437 322.403 294.546 321.777 295.798 321.389C297.051 320.991 298.369 320.793 299.751 320.793C300.666 320.793 301.635 320.902 302.659 321.121C303.693 321.33 304.658 321.717 305.553 322.284C306.458 322.851 307.198 323.661 307.775 324.715C308.352 325.759 308.64 327.116 308.64 328.787V344H304.285V340.868H304.106C303.818 341.445 303.385 342.011 302.808 342.568C302.232 343.125 301.491 343.587 300.586 343.955C299.681 344.323 298.597 344.507 297.335 344.507ZM298.304 340.928C299.537 340.928 300.591 340.684 301.466 340.197C302.351 339.71 303.022 339.073 303.48 338.288C303.947 337.492 304.181 336.642 304.181 335.737V332.784C304.021 332.943 303.713 333.092 303.256 333.232C302.808 333.361 302.296 333.475 301.72 333.575C301.143 333.664 300.581 333.749 300.034 333.828C299.487 333.898 299.03 333.957 298.662 334.007C297.797 334.116 297.007 334.3 296.291 334.559C295.585 334.817 295.018 335.19 294.59 335.678C294.173 336.155 293.964 336.791 293.964 337.587C293.964 338.69 294.372 339.526 295.187 340.092C296.002 340.649 297.041 340.928 298.304 340.928ZM319.039 313.455V344H314.58V313.455H319.039ZM331.706 344.507C330.254 344.507 328.942 344.239 327.768 343.702C326.595 343.155 325.665 342.364 324.979 341.33C324.303 340.296 323.965 339.028 323.965 337.527C323.965 336.234 324.214 335.17 324.711 334.335C325.208 333.5 325.879 332.839 326.724 332.352C327.569 331.864 328.514 331.496 329.558 331.248C330.602 330.999 331.666 330.81 332.75 330.681C334.122 330.522 335.236 330.393 336.091 330.293C336.946 330.184 337.567 330.01 337.955 329.771C338.343 329.533 338.537 329.145 338.537 328.608V328.504C338.537 327.201 338.169 326.192 337.433 325.476C336.707 324.76 335.623 324.402 334.182 324.402C332.68 324.402 331.497 324.735 330.632 325.401C329.777 326.058 329.185 326.788 328.857 327.594L324.666 326.639C325.163 325.247 325.889 324.124 326.844 323.268C327.808 322.403 328.917 321.777 330.17 321.389C331.422 320.991 332.74 320.793 334.122 320.793C335.037 320.793 336.006 320.902 337.03 321.121C338.064 321.33 339.029 321.717 339.924 322.284C340.829 322.851 341.569 323.661 342.146 324.715C342.723 325.759 343.011 327.116 343.011 328.787V344H338.656V340.868H338.477C338.189 341.445 337.756 342.011 337.18 342.568C336.603 343.125 335.862 343.587 334.957 343.955C334.052 344.323 332.969 344.507 331.706 344.507ZM332.675 340.928C333.908 340.928 334.962 340.684 335.837 340.197C336.722 339.71 337.393 339.073 337.851 338.288C338.318 337.492 338.552 336.642 338.552 335.737V332.784C338.393 332.943 338.084 333.092 337.627 333.232C337.18 333.361 336.667 333.475 336.091 333.575C335.514 333.664 334.952 333.749 334.405 333.828C333.858 333.898 333.401 333.957 333.033 334.007C332.168 334.116 331.378 334.3 330.662 334.559C329.956 334.817 329.389 335.19 328.961 335.678C328.544 336.155 328.335 336.791 328.335 337.587C328.335 338.69 328.743 339.526 329.558 340.092C330.373 340.649 331.412 340.928 332.675 340.928ZM353.411 330.398V344H348.951V321.091H353.232V324.82H353.515C354.042 323.607 354.867 322.632 355.991 321.896C357.124 321.161 358.551 320.793 360.271 320.793C361.832 320.793 363.2 321.121 364.373 321.777C365.546 322.423 366.456 323.388 367.102 324.67C367.749 325.953 368.072 327.539 368.072 329.428V344H363.612V329.965C363.612 328.305 363.18 327.007 362.315 326.072C361.45 325.128 360.261 324.656 358.75 324.656C357.716 324.656 356.796 324.879 355.991 325.327C355.195 325.774 354.564 326.43 354.097 327.295C353.639 328.151 353.411 329.185 353.411 330.398ZM383.702 344.462C381.485 344.462 379.576 343.96 377.975 342.956C376.384 341.942 375.161 340.545 374.306 338.765C373.451 336.985 373.023 334.947 373.023 332.65C373.023 330.323 373.461 328.27 374.336 326.49C375.211 324.7 376.444 323.303 378.035 322.299C379.626 321.295 381.5 320.793 383.658 320.793C385.398 320.793 386.949 321.116 388.311 321.762C389.673 322.398 390.772 323.293 391.607 324.447C392.452 325.6 392.955 326.947 393.114 328.489H388.773C388.535 327.415 387.988 326.49 387.133 325.714C386.288 324.939 385.154 324.551 383.732 324.551C382.489 324.551 381.401 324.879 380.466 325.536C379.541 326.182 378.82 327.107 378.303 328.31C377.786 329.503 377.528 330.915 377.528 332.545C377.528 334.216 377.781 335.658 378.288 336.871C378.795 338.084 379.511 339.023 380.436 339.69C381.371 340.356 382.469 340.689 383.732 340.689C384.577 340.689 385.343 340.535 386.029 340.227C386.725 339.908 387.307 339.456 387.774 338.869C388.251 338.283 388.585 337.577 388.773 336.751H393.114C392.955 338.233 392.472 339.555 391.667 340.719C390.862 341.882 389.783 342.797 388.43 343.463C387.088 344.129 385.512 344.462 383.702 344.462ZM402.342 330.398V344H397.883V313.455H402.282V324.82H402.566C403.103 323.587 403.923 322.607 405.027 321.881C406.131 321.156 407.572 320.793 409.352 320.793C410.923 320.793 412.295 321.116 413.469 321.762C414.652 322.408 415.567 323.373 416.213 324.656C416.869 325.928 417.197 327.519 417.197 329.428V344H412.738V329.965C412.738 328.285 412.305 326.982 411.44 326.058C410.575 325.123 409.372 324.656 407.831 324.656C406.777 324.656 405.832 324.879 404.997 325.327C404.172 325.774 403.52 326.43 403.043 327.295C402.576 328.151 402.342 329.185 402.342 330.398ZM433.022 344.462C430.765 344.462 428.821 343.98 427.19 343.016C425.569 342.041 424.317 340.674 423.432 338.914C422.557 337.144 422.119 335.071 422.119 332.695C422.119 330.348 422.557 328.28 423.432 326.49C424.317 324.7 425.55 323.303 427.131 322.299C428.721 321.295 430.581 320.793 432.709 320.793C434.001 320.793 435.254 321.006 436.467 321.434C437.68 321.862 438.769 322.533 439.733 323.447C440.698 324.362 441.459 325.55 442.015 327.012C442.572 328.464 442.851 330.229 442.851 332.307V333.888H424.64V330.547H438.481C438.481 329.374 438.242 328.335 437.765 327.43C437.287 326.515 436.616 325.794 435.751 325.267C434.896 324.74 433.892 324.477 432.738 324.477C431.486 324.477 430.392 324.785 429.457 325.401C428.532 326.008 427.817 326.803 427.309 327.788C426.812 328.762 426.564 329.821 426.564 330.964V333.575C426.564 335.106 426.832 336.408 427.369 337.482C427.916 338.556 428.677 339.376 429.651 339.943C430.626 340.5 431.764 340.778 433.067 340.778C433.912 340.778 434.682 340.659 435.378 340.42C436.074 340.172 436.676 339.804 437.183 339.317C437.69 338.83 438.078 338.228 438.346 337.512L442.567 338.273C442.229 339.516 441.623 340.604 440.748 341.539C439.883 342.464 438.794 343.185 437.481 343.702C436.179 344.209 434.692 344.462 433.022 344.462Z" fill="white"/>
<circle cx="182" cy="510" r="32" fill="#8247E5"/>
<path d="M193.331 503.031C192.563 502.59 191.581 502.59 190.712 503.031L184.591 506.657L180.435 508.961L174.428 512.575C173.66 513.015 172.678 513.015 171.809 512.575L167.111 509.716C166.343 509.276 165.802 508.394 165.802 507.412V501.923C165.802 501.041 166.242 500.172 167.111 499.618L171.809 496.874C172.577 496.433 173.559 496.433 174.428 496.874L179.126 499.732C179.894 500.172 180.435 501.054 180.435 502.036V505.662L184.591 503.245V499.518C184.591 498.636 184.15 497.768 183.281 497.214L174.542 492.051C173.773 491.611 172.791 491.611 171.922 492.051L162.968 497.327C162.099 497.768 161.658 498.649 161.658 499.518V509.83C161.658 510.711 162.099 511.58 162.968 512.134L171.821 517.296C172.59 517.737 173.572 517.737 174.441 517.296L180.448 513.783L184.604 511.366L190.611 507.853C191.379 507.412 192.361 507.412 193.23 507.853L197.928 510.598C198.696 511.038 199.237 511.92 199.237 512.902V518.392C199.237 519.273 198.797 520.142 197.928 520.696L193.344 523.441C192.575 523.881 191.593 523.881 190.724 523.441L186.014 520.696C185.246 520.255 184.704 519.374 184.704 518.392V514.879L180.549 517.296V520.922C180.549 521.804 180.989 522.673 181.858 523.227L190.712 528.389C191.48 528.83 192.462 528.83 193.331 528.389L202.184 523.227C202.952 522.786 203.494 521.904 203.494 520.922V510.497C203.494 509.616 203.053 508.747 202.184 508.193L193.331 503.031Z" fill="white"/>
<path d="M241.356 527V496.455H252.244C254.62 496.455 256.589 496.887 258.15 497.752C259.711 498.617 260.879 499.8 261.655 501.302C262.43 502.793 262.818 504.474 262.818 506.343C262.818 508.222 262.425 509.913 261.64 511.414C260.864 512.906 259.691 514.089 258.12 514.964C256.559 515.829 254.595 516.261 252.229 516.261H244.741V512.354H251.811C253.313 512.354 254.531 512.095 255.465 511.578C256.4 511.051 257.086 510.335 257.523 509.43C257.961 508.526 258.18 507.496 258.18 506.343C258.18 505.19 257.961 504.165 257.523 503.271C257.086 502.376 256.395 501.675 255.45 501.168C254.516 500.661 253.283 500.407 251.751 500.407H245.964V527H241.356ZM277.226 527.462C275.078 527.462 273.204 526.97 271.603 525.986C270.002 525.001 268.759 523.624 267.874 521.854C266.989 520.085 266.547 518.016 266.547 515.65C266.547 513.273 266.989 511.195 267.874 509.415C268.759 507.636 270.002 506.254 271.603 505.269C273.204 504.285 275.078 503.793 277.226 503.793C279.374 503.793 281.248 504.285 282.849 505.269C284.45 506.254 285.692 507.636 286.577 509.415C287.462 511.195 287.905 513.273 287.905 515.65C287.905 518.016 287.462 520.085 286.577 521.854C285.692 523.624 284.45 525.001 282.849 525.986C281.248 526.97 279.374 527.462 277.226 527.462ZM277.241 523.719C278.633 523.719 279.786 523.351 280.701 522.615C281.616 521.879 282.292 520.9 282.729 519.677C283.177 518.454 283.401 517.107 283.401 515.635C283.401 514.173 283.177 512.831 282.729 511.608C282.292 510.375 281.616 509.386 280.701 508.64C279.786 507.894 278.633 507.521 277.241 507.521C275.839 507.521 274.675 507.894 273.751 508.64C272.836 509.386 272.155 510.375 271.707 511.608C271.27 512.831 271.051 514.173 271.051 515.635C271.051 517.107 271.27 518.454 271.707 519.677C272.155 520.9 272.836 521.879 273.751 522.615C274.675 523.351 275.839 523.719 277.241 523.719ZM297.342 496.455V527H292.883V496.455H297.342ZM306.161 535.591C305.494 535.591 304.888 535.536 304.341 535.427C303.794 535.327 303.386 535.218 303.118 535.099L304.192 531.445C305.007 531.663 305.733 531.758 306.369 531.728C307.006 531.698 307.567 531.46 308.055 531.012C308.552 530.565 308.989 529.834 309.367 528.82L309.919 527.298L301.537 504.091H306.31L312.112 521.869H312.35L318.152 504.091H322.94L313.499 530.058C313.061 531.251 312.504 532.26 311.828 533.085C311.152 533.92 310.347 534.547 309.412 534.964C308.477 535.382 307.393 535.591 306.161 535.591ZM335.956 536.068C334.137 536.068 332.571 535.83 331.258 535.352C329.956 534.875 328.892 534.244 328.067 533.458C327.241 532.673 326.625 531.813 326.217 530.878L330.05 529.297C330.319 529.734 330.677 530.197 331.124 530.684C331.581 531.181 332.198 531.604 332.974 531.952C333.759 532.3 334.768 532.474 336.001 532.474C337.692 532.474 339.089 532.061 340.192 531.236C341.296 530.42 341.848 529.118 341.848 527.328V522.824H341.564C341.296 523.311 340.908 523.853 340.401 524.45C339.904 525.046 339.218 525.563 338.343 526.001C337.468 526.438 336.329 526.657 334.927 526.657C333.118 526.657 331.487 526.234 330.035 525.389C328.594 524.534 327.45 523.276 326.605 521.616C325.77 519.945 325.352 517.892 325.352 515.456C325.352 513.02 325.765 510.932 326.59 509.192C327.425 507.452 328.569 506.119 330.02 505.195C331.472 504.26 333.118 503.793 334.957 503.793C336.379 503.793 337.528 504.031 338.403 504.509C339.278 504.976 339.959 505.523 340.446 506.149C340.943 506.776 341.326 507.327 341.594 507.805H341.922V504.091H346.292V527.507C346.292 529.476 345.835 531.092 344.92 532.354C344.006 533.617 342.768 534.552 341.206 535.158C339.655 535.765 337.905 536.068 335.956 536.068ZM335.912 522.958C337.194 522.958 338.278 522.66 339.163 522.063C340.058 521.457 340.734 520.592 341.192 519.468C341.659 518.335 341.893 516.977 341.893 515.396C341.893 513.855 341.664 512.498 341.206 511.325C340.749 510.151 340.078 509.237 339.193 508.58C338.308 507.914 337.214 507.581 335.912 507.581C334.569 507.581 333.451 507.929 332.556 508.625C331.661 509.311 330.985 510.246 330.528 511.429C330.08 512.612 329.856 513.935 329.856 515.396C329.856 516.898 330.085 518.215 330.542 519.349C331 520.482 331.676 521.367 332.571 522.004C333.476 522.64 334.589 522.958 335.912 522.958ZM361.923 527.462C359.775 527.462 357.901 526.97 356.3 525.986C354.699 525.001 353.456 523.624 352.572 521.854C351.687 520.085 351.244 518.016 351.244 515.65C351.244 513.273 351.687 511.195 352.572 509.415C353.456 507.636 354.699 506.254 356.3 505.269C357.901 504.285 359.775 503.793 361.923 503.793C364.071 503.793 365.945 504.285 367.546 505.269C369.147 506.254 370.39 507.636 371.275 509.415C372.16 511.195 372.602 513.273 372.602 515.65C372.602 518.016 372.16 520.085 371.275 521.854C370.39 523.624 369.147 525.001 367.546 525.986C365.945 526.97 364.071 527.462 361.923 527.462ZM361.938 523.719C363.33 523.719 364.483 523.351 365.398 522.615C366.313 521.879 366.989 520.9 367.427 519.677C367.874 518.454 368.098 517.107 368.098 515.635C368.098 514.173 367.874 512.831 367.427 511.608C366.989 510.375 366.313 509.386 365.398 508.64C364.483 507.894 363.33 507.521 361.938 507.521C360.536 507.521 359.373 507.894 358.448 508.64C357.533 509.386 356.852 510.375 356.405 511.608C355.967 512.831 355.748 514.173 355.748 515.635C355.748 517.107 355.967 518.454 356.405 519.677C356.852 520.9 357.533 521.879 358.448 522.615C359.373 523.351 360.536 523.719 361.938 523.719ZM382.039 513.398V527H377.58V504.091H381.86V507.82H382.144C382.671 506.607 383.496 505.632 384.62 504.896C385.753 504.161 387.18 503.793 388.9 503.793C390.461 503.793 391.828 504.121 393.002 504.777C394.175 505.423 395.085 506.388 395.731 507.67C396.377 508.953 396.701 510.539 396.701 512.428V527H392.241V512.965C392.241 511.305 391.809 510.007 390.944 509.072C390.078 508.128 388.89 507.656 387.379 507.656C386.345 507.656 385.425 507.879 384.62 508.327C383.824 508.774 383.193 509.43 382.725 510.295C382.268 511.151 382.039 512.185 382.039 513.398Z" fill="white"/>
<path d="M213 693C213 710.121 199.121 724 182 724C164.879 724 151 710.121 151 693C151 675.879 164.879 662 182 662C199.121 662 213 675.879 213 693Z" fill="black" stroke="#252529" stroke-width="2"/>
<path d="M196.42 680.202L191.493 682.715L167.702 694.846C167.621 694.231 167.581 693.613 167.581 692.993C167.584 690.521 168.232 688.093 169.461 685.949C170.69 683.806 172.457 682.02 174.588 680.771C176.718 679.521 179.138 678.85 181.607 678.824C184.076 678.799 186.509 679.419 188.665 680.625L191.485 679.186L191.905 678.971C189.322 677.094 186.27 675.969 183.088 675.719C179.906 675.47 176.716 676.106 173.873 677.558C171.029 679.009 168.641 681.22 166.974 683.945C165.307 686.669 164.424 689.803 164.425 692.998C164.425 693.44 164.441 693.879 164.475 694.317C164.522 694.937 164.384 695.557 164.08 696.099C163.776 696.642 163.318 697.081 162.764 697.364L161.277 698.123V701.663L165.655 699.429L167.073 698.705L168.47 697.993L193.552 685.2L196.37 683.763L202.195 680.791V677.252L196.42 680.202Z" fill="white"/>
<path d="M202.195 684.333L169.895 700.797L167.077 702.237L161.277 705.195V708.732L167.037 705.795L171.964 703.282L195.78 691.134C195.86 691.752 195.901 692.375 195.901 692.998C195.899 695.473 195.251 697.904 194.021 700.051C192.791 702.197 191.021 703.984 188.888 705.234C186.754 706.484 184.331 707.154 181.859 707.177C179.387 707.2 176.952 706.575 174.796 705.365L174.623 705.457L171.566 707.017C174.148 708.894 177.199 710.02 180.381 710.27C183.563 710.52 186.752 709.884 189.596 708.434C192.44 706.983 194.828 704.774 196.496 702.05C198.164 699.326 199.047 696.194 199.048 692.998C199.048 692.553 199.031 692.108 198.998 691.668C198.951 691.048 199.088 690.428 199.392 689.886C199.696 689.344 200.154 688.904 200.707 688.621L202.195 687.862V684.333Z" fill="white"/>
<path d="M258.016 687.479C257.857 686.067 257.2 684.973 256.047 684.197C254.893 683.412 253.442 683.019 251.692 683.019C250.439 683.019 249.355 683.218 248.44 683.616C247.526 684.004 246.815 684.54 246.308 685.227C245.81 685.903 245.562 686.673 245.562 687.538C245.562 688.264 245.731 688.891 246.069 689.418C246.417 689.945 246.869 690.387 247.426 690.745C247.993 691.093 248.599 691.386 249.246 691.625C249.892 691.854 250.513 692.043 251.11 692.192L254.093 692.967C255.067 693.206 256.067 693.529 257.091 693.937C258.115 694.344 259.065 694.881 259.94 695.548C260.815 696.214 261.521 697.039 262.058 698.023C262.604 699.008 262.878 700.186 262.878 701.558C262.878 703.288 262.43 704.825 261.536 706.167C260.651 707.509 259.363 708.568 257.673 709.344C255.992 710.119 253.959 710.507 251.572 710.507C249.286 710.507 247.307 710.144 245.636 709.418C243.966 708.692 242.658 707.663 241.714 706.331C240.769 704.989 240.247 703.398 240.148 701.558H244.771C244.861 702.662 245.219 703.582 245.845 704.317C246.482 705.043 247.292 705.585 248.276 705.943C249.271 706.291 250.359 706.465 251.543 706.465C252.845 706.465 254.004 706.261 255.018 705.854C256.042 705.436 256.847 704.859 257.434 704.124C258.021 703.378 258.314 702.508 258.314 701.513C258.314 700.609 258.055 699.868 257.538 699.291C257.031 698.714 256.34 698.237 255.465 697.859C254.6 697.482 253.621 697.148 252.527 696.86L248.918 695.876C246.472 695.21 244.533 694.23 243.101 692.938C241.679 691.645 240.968 689.935 240.968 687.807C240.968 686.047 241.445 684.511 242.4 683.198C243.354 681.886 244.647 680.866 246.278 680.141C247.908 679.405 249.748 679.037 251.796 679.037C253.864 679.037 255.689 679.4 257.27 680.126C258.861 680.852 260.114 681.851 261.028 683.124C261.943 684.386 262.42 685.838 262.46 687.479H258.016ZM278.721 687.091V690.67H266.208V687.091H278.721ZM269.563 681.602H274.023V703.273C274.023 704.138 274.152 704.79 274.411 705.227C274.669 705.655 275.002 705.948 275.41 706.107C275.828 706.256 276.28 706.331 276.767 706.331C277.125 706.331 277.438 706.306 277.707 706.256C277.975 706.207 278.184 706.167 278.333 706.137L279.139 709.821C278.88 709.92 278.512 710.02 278.035 710.119C277.558 710.229 276.961 710.288 276.245 710.298C275.072 710.318 273.978 710.109 272.964 709.672C271.95 709.234 271.129 708.558 270.503 707.643C269.877 706.729 269.563 705.58 269.563 704.198V681.602ZM293.282 710.462C291.025 710.462 289.081 709.98 287.45 709.016C285.829 708.041 284.576 706.674 283.691 704.914C282.816 703.144 282.379 701.071 282.379 698.695C282.379 696.348 282.816 694.28 283.691 692.49C284.576 690.7 285.809 689.303 287.39 688.299C288.981 687.295 290.841 686.793 292.968 686.793C294.261 686.793 295.514 687.006 296.727 687.434C297.94 687.862 299.029 688.533 299.993 689.447C300.958 690.362 301.718 691.55 302.275 693.012C302.832 694.464 303.11 696.229 303.11 698.307V699.888H284.9V696.547H298.74C298.74 695.374 298.502 694.335 298.025 693.43C297.547 692.515 296.876 691.794 296.011 691.267C295.156 690.74 294.152 690.477 292.998 690.477C291.745 690.477 290.652 690.785 289.717 691.401C288.792 692.008 288.076 692.803 287.569 693.788C287.072 694.762 286.824 695.821 286.824 696.964V699.575C286.824 701.106 287.092 702.408 287.629 703.482C288.176 704.556 288.936 705.376 289.911 705.943C290.885 706.5 292.024 706.778 293.326 706.778C294.172 706.778 294.942 706.659 295.638 706.42C296.334 706.172 296.936 705.804 297.443 705.317C297.95 704.83 298.338 704.228 298.606 703.512L302.827 704.273C302.489 705.516 301.882 706.604 301.007 707.539C300.142 708.464 299.054 709.185 297.741 709.702C296.439 710.209 294.952 710.462 293.282 710.462ZM312.518 679.455V710H308.058V679.455H312.518ZM322.977 679.455V710H318.517V679.455H322.977ZM335.643 710.507C334.192 710.507 332.879 710.239 331.706 709.702C330.532 709.155 329.603 708.364 328.917 707.33C328.241 706.296 327.903 705.028 327.903 703.527C327.903 702.234 328.151 701.17 328.648 700.335C329.145 699.5 329.817 698.839 330.662 698.352C331.507 697.864 332.452 697.496 333.496 697.248C334.54 696.999 335.604 696.81 336.687 696.681C338.059 696.522 339.173 696.393 340.028 696.293C340.883 696.184 341.505 696.01 341.893 695.771C342.28 695.533 342.474 695.145 342.474 694.608V694.504C342.474 693.201 342.106 692.192 341.371 691.476C340.645 690.76 339.561 690.402 338.119 690.402C336.618 690.402 335.434 690.735 334.569 691.401C333.714 692.058 333.123 692.788 332.795 693.594L328.604 692.639C329.101 691.247 329.827 690.124 330.781 689.268C331.746 688.403 332.854 687.777 334.107 687.389C335.36 686.991 336.677 686.793 338.059 686.793C338.974 686.793 339.944 686.902 340.968 687.121C342.002 687.33 342.966 687.717 343.861 688.284C344.766 688.851 345.507 689.661 346.084 690.715C346.66 691.759 346.949 693.116 346.949 694.787V710H342.594V706.868H342.415C342.126 707.445 341.694 708.011 341.117 708.568C340.54 709.125 339.8 709.587 338.895 709.955C337.99 710.323 336.906 710.507 335.643 710.507ZM336.613 706.928C337.846 706.928 338.9 706.684 339.775 706.197C340.66 705.71 341.331 705.073 341.788 704.288C342.256 703.492 342.489 702.642 342.489 701.737V698.784C342.33 698.943 342.022 699.092 341.564 699.232C341.117 699.361 340.605 699.475 340.028 699.575C339.452 699.664 338.89 699.749 338.343 699.828C337.796 699.898 337.339 699.957 336.971 700.007C336.106 700.116 335.315 700.3 334.599 700.559C333.893 700.817 333.327 701.19 332.899 701.678C332.481 702.155 332.273 702.791 332.273 703.587C332.273 704.69 332.68 705.526 333.496 706.092C334.311 706.649 335.35 706.928 336.613 706.928ZM352.888 710V687.091H357.199V690.73H357.438C357.855 689.497 358.591 688.528 359.645 687.822C360.709 687.106 361.912 686.748 363.254 686.748C363.533 686.748 363.861 686.758 364.239 686.778C364.626 686.798 364.93 686.822 365.148 686.852V691.118C364.969 691.068 364.651 691.013 364.194 690.954C363.737 690.884 363.279 690.849 362.822 690.849C361.768 690.849 360.828 691.073 360.003 691.521C359.188 691.958 358.541 692.57 358.064 693.355C357.587 694.131 357.348 695.016 357.348 696.01V710H352.888Z" fill="white"/>
<path d="M1187.2 176.545V111.091H1191.39V176.545H1187.2ZM1200.31 131.392C1200.04 128.972 1198.91 127.097 1196.94 125.767C1194.96 124.42 1192.47 123.747 1189.47 123.747C1187.32 123.747 1185.47 124.088 1183.9 124.77C1182.33 125.435 1181.11 126.355 1180.24 127.531C1179.39 128.69 1178.96 130.011 1178.96 131.494C1178.96 132.739 1179.25 133.812 1179.83 134.716C1180.43 135.619 1181.2 136.378 1182.16 136.991C1183.13 137.588 1184.17 138.091 1185.28 138.5C1186.39 138.892 1187.45 139.216 1188.47 139.472L1193.59 140.801C1195.26 141.21 1196.97 141.764 1198.73 142.463C1200.48 143.162 1202.11 144.082 1203.61 145.224C1205.11 146.366 1206.32 147.781 1207.24 149.469C1208.18 151.156 1208.65 153.176 1208.65 155.528C1208.65 158.494 1207.88 161.128 1206.35 163.429C1204.83 165.73 1202.62 167.545 1199.72 168.875C1196.84 170.205 1193.36 170.869 1189.27 170.869C1185.35 170.869 1181.95 170.247 1179.09 169.003C1176.23 167.759 1173.99 165.994 1172.37 163.71C1170.75 161.409 1169.85 158.682 1169.68 155.528H1177.61C1177.76 157.42 1178.38 158.997 1179.45 160.259C1180.54 161.503 1181.93 162.432 1183.62 163.045C1185.32 163.642 1187.19 163.94 1189.22 163.94C1191.45 163.94 1193.43 163.591 1195.17 162.892C1196.93 162.176 1198.31 161.187 1199.32 159.926C1200.32 158.648 1200.82 157.156 1200.82 155.452C1200.82 153.901 1200.38 152.631 1199.49 151.642C1198.63 150.653 1197.44 149.835 1195.94 149.188C1194.46 148.54 1192.78 147.969 1190.9 147.474L1184.72 145.787C1180.52 144.645 1177.2 142.966 1174.74 140.75C1172.31 138.534 1171.09 135.602 1171.09 131.955C1171.09 128.937 1171.91 126.304 1173.54 124.054C1175.18 121.804 1177.39 120.057 1180.19 118.812C1182.99 117.551 1186.14 116.92 1189.65 116.92C1193.2 116.92 1196.32 117.543 1199.03 118.787C1201.76 120.031 1203.91 121.744 1205.48 123.926C1207.05 126.091 1207.86 128.58 1207.93 131.392H1200.31ZM1217.37 170V164.273L1235.09 145.915C1236.98 143.92 1238.54 142.173 1239.77 140.673C1241.01 139.156 1241.94 137.716 1242.56 136.352C1243.17 134.989 1243.48 133.54 1243.48 132.006C1243.48 130.267 1243.07 128.767 1242.25 127.506C1241.43 126.227 1240.32 125.247 1238.9 124.565C1237.49 123.866 1235.89 123.517 1234.12 123.517C1232.25 123.517 1230.61 123.901 1229.21 124.668C1227.81 125.435 1226.74 126.517 1225.99 127.915C1225.24 129.312 1224.86 130.949 1224.86 132.824H1217.32C1217.32 129.636 1218.05 126.849 1219.52 124.463C1220.99 122.077 1223 120.227 1225.55 118.915C1228.11 117.585 1231.02 116.92 1234.27 116.92C1237.56 116.92 1240.46 117.577 1242.97 118.889C1245.49 120.185 1247.46 121.957 1248.87 124.207C1250.29 126.44 1251 128.963 1251 131.776C1251 133.719 1250.63 135.619 1249.9 137.477C1249.18 139.335 1247.93 141.406 1246.14 143.69C1244.35 145.957 1241.86 148.71 1238.67 151.949L1228.26 162.841V163.224H1251.84V170H1217.37ZM1266.67 170.486C1265.27 170.486 1264.07 169.991 1263.06 169.003C1262.06 167.997 1261.55 166.787 1261.55 165.372C1261.55 163.974 1262.06 162.781 1263.06 161.793C1264.07 160.787 1265.27 160.284 1266.67 160.284C1268.07 160.284 1269.27 160.787 1270.27 161.793C1271.28 162.781 1271.78 163.974 1271.78 165.372C1271.78 166.31 1271.54 167.17 1271.07 167.955C1270.61 168.722 1269.99 169.335 1269.23 169.795C1268.46 170.256 1267.61 170.486 1266.67 170.486ZM1280.82 159.773V153.381L1303.45 117.636H1308.49V127.045H1305.29L1289.1 152.665V153.074H1320.12V159.773H1280.82ZM1305.65 170V157.83L1305.7 154.915V117.636H1313.19V170H1305.65ZM1346.72 170.716C1343.06 170.716 1339.82 170.085 1337.01 168.824C1334.21 167.562 1332.02 165.824 1330.44 163.608C1328.85 161.392 1328.07 158.869 1328.08 156.04C1328.07 153.824 1328.52 151.787 1329.44 149.929C1330.38 148.054 1331.65 146.494 1333.25 145.25C1334.85 143.989 1336.64 143.188 1338.62 142.847V142.54C1336.01 141.909 1333.92 140.511 1332.35 138.347C1330.78 136.182 1330.01 133.693 1330.03 130.881C1330.01 128.205 1330.72 125.818 1332.15 123.722C1333.6 121.608 1335.58 119.946 1338.11 118.736C1340.63 117.526 1343.5 116.92 1346.72 116.92C1349.91 116.92 1352.76 117.534 1355.26 118.761C1357.78 119.972 1359.77 121.634 1361.22 123.747C1362.67 125.844 1363.4 128.222 1363.42 130.881C1363.4 133.693 1362.6 136.182 1361.01 138.347C1359.43 140.511 1357.37 141.909 1354.83 142.54V142.847C1356.79 143.188 1358.55 143.989 1360.12 145.25C1361.71 146.494 1362.97 148.054 1363.9 149.929C1364.86 151.787 1365.34 153.824 1365.36 156.04C1365.34 158.869 1364.54 161.392 1362.96 163.608C1361.37 165.824 1359.17 167.562 1356.36 168.824C1353.57 170.085 1350.35 170.716 1346.72 170.716ZM1346.72 164.247C1348.89 164.247 1350.76 163.889 1352.35 163.173C1353.93 162.44 1355.16 161.426 1356.03 160.131C1356.9 158.818 1357.34 157.284 1357.36 155.528C1357.34 153.705 1356.86 152.094 1355.93 150.696C1355.01 149.298 1353.75 148.199 1352.17 147.398C1350.58 146.597 1348.77 146.196 1346.72 146.196C1344.66 146.196 1342.83 146.597 1341.23 147.398C1339.62 148.199 1338.36 149.298 1337.44 150.696C1336.52 152.094 1336.07 153.705 1336.09 155.528C1336.07 157.284 1336.49 158.818 1337.34 160.131C1338.21 161.426 1339.44 162.44 1341.05 163.173C1342.65 163.889 1344.54 164.247 1346.72 164.247ZM1346.72 139.881C1348.46 139.881 1350 139.531 1351.35 138.832C1352.7 138.134 1353.75 137.162 1354.52 135.918C1355.3 134.673 1355.71 133.216 1355.72 131.545C1355.71 129.909 1355.31 128.477 1354.55 127.25C1353.8 126.023 1352.75 125.077 1351.4 124.412C1350.05 123.73 1348.5 123.389 1346.72 123.389C1344.92 123.389 1343.33 123.73 1341.97 124.412C1340.62 125.077 1339.57 126.023 1338.82 127.25C1338.07 128.477 1337.71 129.909 1337.72 131.545C1337.71 133.216 1338.08 134.673 1338.85 135.918C1339.61 137.162 1340.67 138.134 1342.02 138.832C1343.38 139.531 1344.95 139.881 1346.72 139.881Z" fill="white"/>
<path d="M1405.04 139.455H1408.74V159.679C1408.74 161.767 1408.25 163.631 1407.26 165.272C1406.29 166.903 1404.91 168.19 1403.13 169.135C1401.35 170.07 1399.26 170.537 1396.87 170.537C1394.47 170.537 1392.38 170.07 1390.6 169.135C1388.82 168.19 1387.44 166.903 1386.46 165.272C1385.48 163.631 1385 161.767 1385 159.679V139.455H1388.69V159.381C1388.69 160.872 1389.02 162.2 1389.68 163.363C1390.34 164.516 1391.27 165.426 1392.48 166.092C1393.71 166.749 1395.17 167.077 1396.87 167.077C1398.57 167.077 1400.03 166.749 1401.25 166.092C1402.48 165.426 1403.41 164.516 1404.06 163.363C1404.71 162.2 1405.04 160.872 1405.04 159.381V139.455ZM1432.83 147.091C1432.65 145.58 1431.93 144.406 1430.65 143.571C1429.38 142.736 1427.82 142.318 1425.97 142.318C1424.62 142.318 1423.43 142.537 1422.42 142.974C1421.42 143.412 1420.63 144.013 1420.06 144.779C1419.51 145.545 1419.23 146.415 1419.23 147.389C1419.23 148.205 1419.42 148.906 1419.81 149.492C1420.21 150.069 1420.72 150.551 1421.33 150.939C1421.95 151.317 1422.59 151.63 1423.27 151.879C1423.95 152.117 1424.57 152.311 1425.14 152.46L1428.24 153.295C1429.03 153.504 1429.92 153.793 1430.89 154.161C1431.88 154.528 1432.82 155.031 1433.71 155.667C1434.62 156.293 1435.36 157.099 1435.95 158.083C1436.53 159.067 1436.83 160.276 1436.83 161.707C1436.83 163.358 1436.4 164.849 1435.53 166.182C1434.68 167.514 1433.42 168.573 1431.77 169.359C1430.13 170.144 1428.14 170.537 1425.79 170.537C1423.6 170.537 1421.71 170.184 1420.11 169.478C1418.52 168.772 1417.27 167.788 1416.35 166.525C1415.45 165.262 1414.93 163.795 1414.81 162.125H1418.63C1418.73 163.278 1419.12 164.233 1419.8 164.989C1420.48 165.734 1421.35 166.291 1422.39 166.659C1423.44 167.017 1424.58 167.196 1425.79 167.196C1427.2 167.196 1428.47 166.967 1429.59 166.51C1430.72 166.043 1431.61 165.396 1432.26 164.571C1432.92 163.736 1433.25 162.761 1433.25 161.648C1433.25 160.634 1432.97 159.808 1432.4 159.172C1431.83 158.536 1431.09 158.018 1430.16 157.621C1429.24 157.223 1428.24 156.875 1427.16 156.577L1423.41 155.503C1421.02 154.817 1419.13 153.837 1417.74 152.565C1416.35 151.292 1415.65 149.626 1415.65 147.568C1415.65 145.858 1416.11 144.366 1417.04 143.094C1417.97 141.811 1419.22 140.817 1420.79 140.111C1422.38 139.395 1424.14 139.037 1426.09 139.037C1428.06 139.037 1429.81 139.39 1431.34 140.096C1432.87 140.792 1434.08 141.746 1434.98 142.96C1435.88 144.173 1436.36 145.55 1436.41 147.091H1432.83ZM1452.34 170H1442.91V139.455H1452.75C1455.72 139.455 1458.25 140.066 1460.36 141.289C1462.47 142.502 1464.08 144.247 1465.21 146.524C1466.33 148.791 1466.89 151.506 1466.89 154.668C1466.89 157.849 1466.33 160.589 1465.19 162.886C1464.06 165.173 1462.41 166.933 1460.24 168.165C1458.07 169.388 1455.44 170 1452.34 170ZM1446.61 166.719H1452.1C1454.62 166.719 1456.72 166.232 1458.38 165.257C1460.04 164.283 1461.27 162.896 1462.09 161.096C1462.91 159.296 1463.31 157.153 1463.31 154.668C1463.31 152.202 1462.91 150.079 1462.11 148.299C1461.3 146.509 1460.1 145.137 1458.5 144.183C1456.89 143.218 1454.9 142.736 1452.51 142.736H1446.61V166.719Z" fill="#98A2B3"/>
<path d="M1187.2 359.545V294.091H1191.39V359.545H1187.2ZM1200.31 314.392C1200.04 311.972 1198.91 310.097 1196.94 308.767C1194.96 307.42 1192.47 306.747 1189.47 306.747C1187.32 306.747 1185.47 307.088 1183.9 307.77C1182.33 308.435 1181.11 309.355 1180.24 310.531C1179.39 311.69 1178.96 313.011 1178.96 314.494C1178.96 315.739 1179.25 316.812 1179.83 317.716C1180.43 318.619 1181.2 319.378 1182.16 319.991C1183.13 320.588 1184.17 321.091 1185.28 321.5C1186.39 321.892 1187.45 322.216 1188.47 322.472L1193.59 323.801C1195.26 324.21 1196.97 324.764 1198.73 325.463C1200.48 326.162 1202.11 327.082 1203.61 328.224C1205.11 329.366 1206.32 330.781 1207.24 332.469C1208.18 334.156 1208.65 336.176 1208.65 338.528C1208.65 341.494 1207.88 344.128 1206.35 346.429C1204.83 348.73 1202.62 350.545 1199.72 351.875C1196.84 353.205 1193.36 353.869 1189.27 353.869C1185.35 353.869 1181.95 353.247 1179.09 352.003C1176.23 350.759 1173.99 348.994 1172.37 346.71C1170.75 344.409 1169.85 341.682 1169.68 338.528H1177.61C1177.76 340.42 1178.38 341.997 1179.45 343.259C1180.54 344.503 1181.93 345.432 1183.62 346.045C1185.32 346.642 1187.19 346.94 1189.22 346.94C1191.45 346.94 1193.43 346.591 1195.17 345.892C1196.93 345.176 1198.31 344.187 1199.32 342.926C1200.32 341.648 1200.82 340.156 1200.82 338.452C1200.82 336.901 1200.38 335.631 1199.49 334.642C1198.63 333.653 1197.44 332.835 1195.94 332.188C1194.46 331.54 1192.78 330.969 1190.9 330.474L1184.72 328.787C1180.52 327.645 1177.2 325.966 1174.74 323.75C1172.31 321.534 1171.09 318.602 1171.09 314.955C1171.09 311.937 1171.91 309.304 1173.54 307.054C1175.18 304.804 1177.39 303.057 1180.19 301.812C1182.99 300.551 1186.14 299.92 1189.65 299.92C1193.2 299.92 1196.32 300.543 1199.03 301.787C1201.76 303.031 1203.91 304.744 1205.48 306.926C1207.05 309.091 1207.86 311.58 1207.93 314.392H1200.31ZM1235.6 353.869C1231.56 353.852 1228.11 352.787 1225.25 350.673C1222.38 348.56 1220.19 345.483 1218.68 341.443C1217.16 337.403 1216.4 332.537 1216.4 326.844C1216.4 321.168 1217.16 316.318 1218.68 312.295C1220.21 308.273 1222.41 305.205 1225.27 303.091C1228.15 300.977 1231.6 299.92 1235.6 299.92C1239.61 299.92 1243.04 300.986 1245.91 303.116C1248.77 305.23 1250.96 308.298 1252.48 312.321C1254.01 316.327 1254.78 321.168 1254.78 326.844C1254.78 332.554 1254.02 337.429 1252.5 341.469C1250.99 345.491 1248.8 348.568 1245.93 350.699C1243.07 352.813 1239.63 353.869 1235.6 353.869ZM1235.6 347.043C1239.15 347.043 1241.92 345.312 1243.91 341.852C1245.92 338.392 1246.93 333.389 1246.93 326.844C1246.93 322.497 1246.47 318.824 1245.55 315.824C1244.65 312.807 1243.34 310.523 1241.64 308.972C1239.95 307.403 1237.94 306.619 1235.6 306.619C1232.07 306.619 1229.3 308.358 1227.29 311.835C1225.28 315.312 1224.27 320.315 1224.25 326.844C1224.25 331.207 1224.7 334.898 1225.61 337.915C1226.53 340.915 1227.83 343.19 1229.52 344.741C1231.21 346.276 1233.23 347.043 1235.6 347.043ZM1267.09 353.486C1265.69 353.486 1264.49 352.991 1263.49 352.003C1262.48 350.997 1261.98 349.787 1261.98 348.372C1261.98 346.974 1262.48 345.781 1263.49 344.793C1264.49 343.787 1265.69 343.284 1267.09 343.284C1268.49 343.284 1269.69 343.787 1270.7 344.793C1271.7 345.781 1272.2 346.974 1272.2 348.372C1272.2 349.31 1271.97 350.17 1271.49 350.955C1271.03 351.722 1270.41 352.335 1269.65 352.795C1268.88 353.256 1268.03 353.486 1267.09 353.486ZM1298.67 353.869C1294.63 353.852 1291.18 352.787 1288.32 350.673C1285.45 348.56 1283.26 345.483 1281.75 341.443C1280.23 337.403 1279.47 332.537 1279.47 326.844C1279.47 321.168 1280.23 316.318 1281.75 312.295C1283.28 308.273 1285.48 305.205 1288.34 303.091C1291.22 300.977 1294.67 299.92 1298.67 299.92C1302.68 299.92 1306.11 300.986 1308.98 303.116C1311.84 305.23 1314.03 308.298 1315.55 312.321C1317.08 316.327 1317.85 321.168 1317.85 326.844C1317.85 332.554 1317.09 337.429 1315.57 341.469C1314.06 345.491 1311.87 348.568 1309 350.699C1306.14 352.813 1302.7 353.869 1298.67 353.869ZM1298.67 347.043C1302.22 347.043 1304.99 345.312 1306.98 341.852C1308.99 338.392 1310 333.389 1310 326.844C1310 322.497 1309.54 318.824 1308.62 315.824C1307.72 312.807 1306.41 310.523 1304.71 308.972C1303.02 307.403 1301.01 306.619 1298.67 306.619C1295.14 306.619 1292.38 308.358 1290.36 311.835C1288.35 315.312 1287.34 320.315 1287.32 326.844C1287.32 331.207 1287.77 334.898 1288.68 337.915C1289.6 340.915 1290.9 343.19 1292.59 344.741C1294.28 346.276 1296.3 347.043 1298.67 347.043ZM1344.61 353.716C1340.95 353.716 1337.71 353.085 1334.9 351.824C1332.1 350.562 1329.91 348.824 1328.33 346.608C1326.74 344.392 1325.96 341.869 1325.97 339.04C1325.96 336.824 1326.41 334.787 1327.33 332.929C1328.27 331.054 1329.54 329.494 1331.14 328.25C1332.74 326.989 1334.53 326.188 1336.51 325.847V325.54C1333.9 324.909 1331.81 323.511 1330.24 321.347C1328.68 319.182 1327.9 316.693 1327.92 313.881C1327.9 311.205 1328.61 308.818 1330.04 306.722C1331.49 304.608 1333.47 302.946 1336 301.736C1338.52 300.526 1341.39 299.92 1344.61 299.92C1347.8 299.92 1350.65 300.534 1353.15 301.761C1355.68 302.972 1357.66 304.634 1359.11 306.747C1360.56 308.844 1361.29 311.222 1361.31 313.881C1361.29 316.693 1360.49 319.182 1358.91 321.347C1357.32 323.511 1355.26 324.909 1352.72 325.54V325.847C1354.68 326.188 1356.44 326.989 1358.01 328.25C1359.6 329.494 1360.86 331.054 1361.79 332.929C1362.75 334.787 1363.24 336.824 1363.25 339.04C1363.24 341.869 1362.43 344.392 1360.85 346.608C1359.26 348.824 1357.06 350.562 1354.25 351.824C1351.46 353.085 1348.24 353.716 1344.61 353.716ZM1344.61 347.247C1346.78 347.247 1348.65 346.889 1350.24 346.173C1351.82 345.44 1353.05 344.426 1353.92 343.131C1354.79 341.818 1355.23 340.284 1355.25 338.528C1355.23 336.705 1354.75 335.094 1353.82 333.696C1352.9 332.298 1351.64 331.199 1350.06 330.398C1348.47 329.597 1346.66 329.196 1344.61 329.196C1342.55 329.196 1340.72 329.597 1339.12 330.398C1337.51 331.199 1336.25 332.298 1335.33 333.696C1334.41 335.094 1333.96 336.705 1333.98 338.528C1333.96 340.284 1334.38 341.818 1335.23 343.131C1336.1 344.426 1337.33 345.44 1338.94 346.173C1340.54 346.889 1342.43 347.247 1344.61 347.247ZM1344.61 322.881C1346.35 322.881 1347.89 322.531 1349.24 321.832C1350.59 321.134 1351.64 320.162 1352.41 318.918C1353.2 317.673 1353.6 316.216 1353.61 314.545C1353.6 312.909 1353.2 311.477 1352.44 310.25C1351.69 309.023 1350.64 308.077 1349.29 307.412C1347.95 306.73 1346.39 306.389 1344.61 306.389C1342.81 306.389 1341.22 306.73 1339.86 307.412C1338.51 308.077 1337.46 309.023 1336.71 310.25C1335.96 311.477 1335.6 312.909 1335.61 314.545C1335.6 316.216 1335.97 317.673 1336.74 318.918C1337.5 320.162 1338.56 321.134 1339.91 321.832C1341.27 322.531 1342.84 322.881 1344.61 322.881Z" fill="white"/>
<path d="M1402.93 322.455H1406.63V342.679C1406.63 344.767 1406.14 346.631 1405.15 348.272C1404.18 349.903 1402.8 351.19 1401.02 352.135C1399.24 353.07 1397.15 353.537 1394.76 353.537C1392.36 353.537 1390.27 353.07 1388.49 352.135C1386.71 351.19 1385.33 349.903 1384.35 348.272C1383.37 346.631 1382.89 344.767 1382.89 342.679V322.455H1386.59V342.381C1386.59 343.872 1386.91 345.2 1387.57 346.363C1388.23 347.516 1389.16 348.426 1390.37 349.092C1391.6 349.749 1393.06 350.077 1394.76 350.077C1396.46 350.077 1397.92 349.749 1399.14 349.092C1400.37 348.426 1401.3 347.516 1401.95 346.363C1402.6 345.2 1402.93 343.872 1402.93 342.381V322.455ZM1430.72 330.091C1430.54 328.58 1429.82 327.406 1428.54 326.571C1427.27 325.736 1425.71 325.318 1423.86 325.318C1422.51 325.318 1421.33 325.537 1420.31 325.974C1419.31 326.412 1418.52 327.013 1417.95 327.779C1417.4 328.545 1417.12 329.415 1417.12 330.389C1417.12 331.205 1417.31 331.906 1417.7 332.492C1418.1 333.069 1418.61 333.551 1419.22 333.939C1419.84 334.317 1420.49 334.63 1421.16 334.879C1421.84 335.117 1422.46 335.311 1423.03 335.46L1426.13 336.295C1426.92 336.504 1427.81 336.793 1428.78 337.161C1429.77 337.528 1430.71 338.031 1431.6 338.667C1432.51 339.293 1433.25 340.099 1433.84 341.083C1434.43 342.067 1434.72 343.276 1434.72 344.707C1434.72 346.358 1434.29 347.849 1433.42 349.182C1432.57 350.514 1431.31 351.573 1429.66 352.359C1428.02 353.144 1426.03 353.537 1423.68 353.537C1421.49 353.537 1419.6 353.184 1418 352.478C1416.41 351.772 1415.16 350.788 1414.24 349.525C1413.34 348.262 1412.82 346.795 1412.7 345.125H1416.52C1416.62 346.278 1417.01 347.233 1417.69 347.989C1418.37 348.734 1419.24 349.291 1420.28 349.659C1421.34 350.017 1422.47 350.196 1423.68 350.196C1425.09 350.196 1426.36 349.967 1427.49 349.51C1428.61 349.043 1429.5 348.396 1430.16 347.571C1430.81 346.736 1431.14 345.761 1431.14 344.648C1431.14 343.634 1430.86 342.808 1430.29 342.172C1429.72 341.536 1428.98 341.018 1428.05 340.621C1427.13 340.223 1426.13 339.875 1425.05 339.577L1421.3 338.503C1418.91 337.817 1417.02 336.837 1415.63 335.565C1414.24 334.292 1413.54 332.626 1413.54 330.568C1413.54 328.858 1414 327.366 1414.93 326.094C1415.86 324.811 1417.11 323.817 1418.69 323.111C1420.27 322.395 1422.03 322.037 1423.98 322.037C1425.95 322.037 1427.7 322.39 1429.23 323.096C1430.76 323.792 1431.97 324.746 1432.87 325.96C1433.77 327.173 1434.25 328.55 1434.3 330.091H1430.72ZM1450.23 353H1440.8V322.455H1450.64C1453.61 322.455 1456.14 323.066 1458.25 324.289C1460.36 325.502 1461.97 327.247 1463.1 329.524C1464.22 331.791 1464.78 334.506 1464.78 337.668C1464.78 340.849 1464.22 343.589 1463.08 345.886C1461.95 348.173 1460.3 349.933 1458.13 351.165C1455.96 352.388 1453.33 353 1450.23 353ZM1444.5 349.719H1449.99C1452.51 349.719 1454.61 349.232 1456.27 348.257C1457.93 347.283 1459.17 345.896 1459.98 344.096C1460.8 342.296 1461.2 340.153 1461.2 337.668C1461.2 335.202 1460.8 333.079 1460 331.299C1459.19 329.509 1457.99 328.137 1456.39 327.183C1454.79 326.218 1452.79 325.736 1450.41 325.736H1444.5V349.719Z" fill="#98A2B3"/>
<path d="M1187.2 542.545V477.091H1191.39V542.545H1187.2ZM1200.31 497.392C1200.04 494.972 1198.91 493.097 1196.94 491.767C1194.96 490.42 1192.47 489.747 1189.47 489.747C1187.32 489.747 1185.47 490.088 1183.9 490.77C1182.33 491.435 1181.11 492.355 1180.24 493.531C1179.39 494.69 1178.96 496.011 1178.96 497.494C1178.96 498.739 1179.25 499.812 1179.83 500.716C1180.43 501.619 1181.2 502.378 1182.16 502.991C1183.13 503.588 1184.17 504.091 1185.28 504.5C1186.39 504.892 1187.45 505.216 1188.47 505.472L1193.59 506.801C1195.26 507.21 1196.97 507.764 1198.73 508.463C1200.48 509.162 1202.11 510.082 1203.61 511.224C1205.11 512.366 1206.32 513.781 1207.24 515.469C1208.18 517.156 1208.65 519.176 1208.65 521.528C1208.65 524.494 1207.88 527.128 1206.35 529.429C1204.83 531.73 1202.62 533.545 1199.72 534.875C1196.84 536.205 1193.36 536.869 1189.27 536.869C1185.35 536.869 1181.95 536.247 1179.09 535.003C1176.23 533.759 1173.99 531.994 1172.37 529.71C1170.75 527.409 1169.85 524.682 1169.68 521.528H1177.61C1177.76 523.42 1178.38 524.997 1179.45 526.259C1180.54 527.503 1181.93 528.432 1183.62 529.045C1185.32 529.642 1187.19 529.94 1189.22 529.94C1191.45 529.94 1193.43 529.591 1195.17 528.892C1196.93 528.176 1198.31 527.187 1199.32 525.926C1200.32 524.648 1200.82 523.156 1200.82 521.452C1200.82 519.901 1200.38 518.631 1199.49 517.642C1198.63 516.653 1197.44 515.835 1195.94 515.188C1194.46 514.54 1192.78 513.969 1190.9 513.474L1184.72 511.787C1180.52 510.645 1177.2 508.966 1174.74 506.75C1172.31 504.534 1171.09 501.602 1171.09 497.955C1171.09 494.937 1171.91 492.304 1173.54 490.054C1175.18 487.804 1177.39 486.057 1180.19 484.812C1182.99 483.551 1186.14 482.92 1189.65 482.92C1193.2 482.92 1196.32 483.543 1199.03 484.787C1201.76 486.031 1203.91 487.744 1205.48 489.926C1207.05 492.091 1207.86 494.58 1207.93 497.392H1200.31ZM1235.6 536.869C1231.56 536.852 1228.11 535.787 1225.25 533.673C1222.38 531.56 1220.19 528.483 1218.68 524.443C1217.16 520.403 1216.4 515.537 1216.4 509.844C1216.4 504.168 1217.16 499.318 1218.68 495.295C1220.21 491.273 1222.41 488.205 1225.27 486.091C1228.15 483.977 1231.6 482.92 1235.6 482.92C1239.61 482.92 1243.04 483.986 1245.91 486.116C1248.77 488.23 1250.96 491.298 1252.48 495.321C1254.01 499.327 1254.78 504.168 1254.78 509.844C1254.78 515.554 1254.02 520.429 1252.5 524.469C1250.99 528.491 1248.8 531.568 1245.93 533.699C1243.07 535.813 1239.63 536.869 1235.6 536.869ZM1235.6 530.043C1239.15 530.043 1241.92 528.312 1243.91 524.852C1245.92 521.392 1246.93 516.389 1246.93 509.844C1246.93 505.497 1246.47 501.824 1245.55 498.824C1244.65 495.807 1243.34 493.523 1241.64 491.972C1239.95 490.403 1237.94 489.619 1235.6 489.619C1232.07 489.619 1229.3 491.358 1227.29 494.835C1225.28 498.312 1224.27 503.315 1224.25 509.844C1224.25 514.207 1224.7 517.898 1225.61 520.915C1226.53 523.915 1227.83 526.19 1229.52 527.741C1231.21 529.276 1233.23 530.043 1235.6 530.043ZM1267.09 536.486C1265.69 536.486 1264.49 535.991 1263.49 535.003C1262.48 533.997 1261.98 532.787 1261.98 531.372C1261.98 529.974 1262.48 528.781 1263.49 527.793C1264.49 526.787 1265.69 526.284 1267.09 526.284C1268.49 526.284 1269.69 526.787 1270.7 527.793C1271.7 528.781 1272.2 529.974 1272.2 531.372C1272.2 532.31 1271.97 533.17 1271.49 533.955C1271.03 534.722 1270.41 535.335 1269.65 535.795C1268.88 536.256 1268.03 536.486 1267.09 536.486ZM1298.67 536.869C1294.63 536.852 1291.18 535.787 1288.32 533.673C1285.45 531.56 1283.26 528.483 1281.75 524.443C1280.23 520.403 1279.47 515.537 1279.47 509.844C1279.47 504.168 1280.23 499.318 1281.75 495.295C1283.28 491.273 1285.48 488.205 1288.34 486.091C1291.22 483.977 1294.67 482.92 1298.67 482.92C1302.68 482.92 1306.11 483.986 1308.98 486.116C1311.84 488.23 1314.03 491.298 1315.55 495.321C1317.08 499.327 1317.85 504.168 1317.85 509.844C1317.85 515.554 1317.09 520.429 1315.57 524.469C1314.06 528.491 1311.87 531.568 1309 533.699C1306.14 535.813 1302.7 536.869 1298.67 536.869ZM1298.67 530.043C1302.22 530.043 1304.99 528.312 1306.98 524.852C1308.99 521.392 1310 516.389 1310 509.844C1310 505.497 1309.54 501.824 1308.62 498.824C1307.72 495.807 1306.41 493.523 1304.71 491.972C1303.02 490.403 1301.01 489.619 1298.67 489.619C1295.14 489.619 1292.38 491.358 1290.36 494.835C1288.35 498.312 1287.34 503.315 1287.32 509.844C1287.32 514.207 1287.77 517.898 1288.68 520.915C1289.6 523.915 1290.9 526.19 1292.59 527.741C1294.28 529.276 1296.3 530.043 1298.67 530.043ZM1326.92 536V530.273L1344.64 511.915C1346.53 509.92 1348.09 508.173 1349.32 506.673C1350.56 505.156 1351.49 503.716 1352.1 502.352C1352.72 500.989 1353.02 499.54 1353.02 498.006C1353.02 496.267 1352.62 494.767 1351.8 493.506C1350.98 492.227 1349.86 491.247 1348.45 490.565C1347.03 489.866 1345.44 489.517 1343.67 489.517C1341.79 489.517 1340.16 489.901 1338.76 490.668C1337.36 491.435 1336.29 492.517 1335.54 493.915C1334.79 495.312 1334.41 496.949 1334.41 498.824H1326.87C1326.87 495.636 1327.6 492.849 1329.07 490.463C1330.53 488.077 1332.54 486.227 1335.1 484.915C1337.66 483.585 1340.56 482.92 1343.82 482.92C1347.11 482.92 1350.01 483.577 1352.51 484.889C1355.04 486.185 1357 487.957 1358.42 490.207C1359.83 492.44 1360.54 494.963 1360.54 497.776C1360.54 499.719 1360.18 501.619 1359.44 503.477C1358.73 505.335 1357.47 507.406 1355.68 509.69C1353.89 511.957 1351.41 514.71 1348.22 517.949L1337.81 528.841V529.224H1361.39V536H1326.92Z" fill="white"/>
<path d="M1401.6 505.455H1405.29V525.679C1405.29 527.767 1404.8 529.631 1403.82 531.272C1402.84 532.903 1401.47 534.19 1399.69 535.135C1397.91 536.07 1395.82 536.537 1393.42 536.537C1391.03 536.537 1388.94 536.07 1387.16 535.135C1385.38 534.19 1384 532.903 1383.01 531.272C1382.04 529.631 1381.55 527.767 1381.55 525.679V505.455H1385.25V525.381C1385.25 526.872 1385.58 528.2 1386.23 529.363C1386.89 530.516 1387.82 531.426 1389.04 532.092C1390.26 532.749 1391.72 533.077 1393.42 533.077C1395.12 533.077 1396.58 532.749 1397.81 532.092C1399.03 531.426 1399.97 530.516 1400.61 529.363C1401.27 528.2 1401.6 526.872 1401.6 525.381V505.455ZM1429.39 513.091C1429.21 511.58 1428.48 510.406 1427.21 509.571C1425.94 508.736 1424.37 508.318 1422.53 508.318C1421.17 508.318 1419.99 508.537 1418.98 508.974C1417.97 509.412 1417.19 510.013 1416.62 510.779C1416.06 511.545 1415.78 512.415 1415.78 513.389C1415.78 514.205 1415.98 514.906 1416.37 515.492C1416.76 516.069 1417.27 516.551 1417.89 516.939C1418.5 517.317 1419.15 517.63 1419.83 517.879C1420.5 518.117 1421.12 518.311 1421.69 518.46L1424.79 519.295C1425.59 519.504 1426.47 519.793 1427.45 520.161C1428.43 520.528 1429.37 521.031 1430.27 521.667C1431.17 522.293 1431.92 523.099 1432.5 524.083C1433.09 525.067 1433.38 526.276 1433.38 527.707C1433.38 529.358 1432.95 530.849 1432.09 532.182C1431.23 533.514 1429.98 534.573 1428.33 535.359C1426.69 536.144 1424.69 536.537 1422.35 536.537C1420.16 536.537 1418.26 536.184 1416.66 535.478C1415.07 534.772 1413.82 533.788 1412.91 532.525C1412 531.262 1411.49 529.795 1411.37 528.125H1415.19C1415.29 529.278 1415.67 530.233 1416.35 530.989C1417.04 531.734 1417.9 532.291 1418.95 532.659C1420 533.017 1421.13 533.196 1422.35 533.196C1423.76 533.196 1425.03 532.967 1426.15 532.51C1427.27 532.043 1428.16 531.396 1428.82 530.571C1429.48 529.736 1429.8 528.761 1429.8 527.648C1429.8 526.634 1429.52 525.808 1428.95 525.172C1428.39 524.536 1427.64 524.018 1426.72 523.621C1425.79 523.223 1424.79 522.875 1423.72 522.577L1419.96 521.503C1417.57 520.817 1415.68 519.837 1414.29 518.565C1412.9 517.292 1412.2 515.626 1412.2 513.568C1412.2 511.858 1412.67 510.366 1413.59 509.094C1414.53 507.811 1415.78 506.817 1417.35 506.111C1418.93 505.395 1420.7 505.037 1422.64 505.037C1424.61 505.037 1426.36 505.39 1427.89 506.096C1429.43 506.792 1430.64 507.746 1431.53 508.96C1432.44 510.173 1432.92 511.55 1432.97 513.091H1429.39ZM1448.89 536H1439.46V505.455H1449.31C1452.27 505.455 1454.81 506.066 1456.91 507.289C1459.02 508.502 1460.64 510.247 1461.76 512.524C1462.89 514.791 1463.45 517.506 1463.45 520.668C1463.45 523.849 1462.88 526.589 1461.75 528.886C1460.61 531.173 1458.96 532.933 1456.8 534.165C1454.63 535.388 1451.99 536 1448.89 536ZM1443.16 532.719H1448.65C1451.18 532.719 1453.27 532.232 1454.93 531.257C1456.59 530.283 1457.83 528.896 1458.64 527.096C1459.46 525.296 1459.87 523.153 1459.87 520.668C1459.87 518.202 1459.47 516.079 1458.66 514.299C1457.85 512.509 1456.65 511.137 1455.05 510.183C1453.45 509.218 1451.46 508.736 1449.07 508.736H1443.16V532.719Z" fill="#98A2B3"/>
<path d="M1187.2 725.545V660.091H1191.39V725.545H1187.2ZM1200.31 680.392C1200.04 677.972 1198.91 676.097 1196.94 674.767C1194.96 673.42 1192.47 672.747 1189.47 672.747C1187.32 672.747 1185.47 673.088 1183.9 673.77C1182.33 674.435 1181.11 675.355 1180.24 676.531C1179.39 677.69 1178.96 679.011 1178.96 680.494C1178.96 681.739 1179.25 682.812 1179.83 683.716C1180.43 684.619 1181.2 685.378 1182.16 685.991C1183.13 686.588 1184.17 687.091 1185.28 687.5C1186.39 687.892 1187.45 688.216 1188.47 688.472L1193.59 689.801C1195.26 690.21 1196.97 690.764 1198.73 691.463C1200.48 692.162 1202.11 693.082 1203.61 694.224C1205.11 695.366 1206.32 696.781 1207.24 698.469C1208.18 700.156 1208.65 702.176 1208.65 704.528C1208.65 707.494 1207.88 710.128 1206.35 712.429C1204.83 714.73 1202.62 716.545 1199.72 717.875C1196.84 719.205 1193.36 719.869 1189.27 719.869C1185.35 719.869 1181.95 719.247 1179.09 718.003C1176.23 716.759 1173.99 714.994 1172.37 712.71C1170.75 710.409 1169.85 707.682 1169.68 704.528H1177.61C1177.76 706.42 1178.38 707.997 1179.45 709.259C1180.54 710.503 1181.93 711.432 1183.62 712.045C1185.32 712.642 1187.19 712.94 1189.22 712.94C1191.45 712.94 1193.43 712.591 1195.17 711.892C1196.93 711.176 1198.31 710.187 1199.32 708.926C1200.32 707.648 1200.82 706.156 1200.82 704.452C1200.82 702.901 1200.38 701.631 1199.49 700.642C1198.63 699.653 1197.44 698.835 1195.94 698.188C1194.46 697.54 1192.78 696.969 1190.9 696.474L1184.72 694.787C1180.52 693.645 1177.2 691.966 1174.74 689.75C1172.31 687.534 1171.09 684.602 1171.09 680.955C1171.09 677.937 1171.91 675.304 1173.54 673.054C1175.18 670.804 1177.39 669.057 1180.19 667.812C1182.99 666.551 1186.14 665.92 1189.65 665.92C1193.2 665.92 1196.32 666.543 1199.03 667.787C1201.76 669.031 1203.91 670.744 1205.48 672.926C1207.05 675.091 1207.86 677.58 1207.93 680.392H1200.31ZM1235.6 719.869C1231.56 719.852 1228.11 718.787 1225.25 716.673C1222.38 714.56 1220.19 711.483 1218.68 707.443C1217.16 703.403 1216.4 698.537 1216.4 692.844C1216.4 687.168 1217.16 682.318 1218.68 678.295C1220.21 674.273 1222.41 671.205 1225.27 669.091C1228.15 666.977 1231.6 665.92 1235.6 665.92C1239.61 665.92 1243.04 666.986 1245.91 669.116C1248.77 671.23 1250.96 674.298 1252.48 678.321C1254.01 682.327 1254.78 687.168 1254.78 692.844C1254.78 698.554 1254.02 703.429 1252.5 707.469C1250.99 711.491 1248.8 714.568 1245.93 716.699C1243.07 718.813 1239.63 719.869 1235.6 719.869ZM1235.6 713.043C1239.15 713.043 1241.92 711.312 1243.91 707.852C1245.92 704.392 1246.93 699.389 1246.93 692.844C1246.93 688.497 1246.47 684.824 1245.55 681.824C1244.65 678.807 1243.34 676.523 1241.64 674.972C1239.95 673.403 1237.94 672.619 1235.6 672.619C1232.07 672.619 1229.3 674.358 1227.29 677.835C1225.28 681.312 1224.27 686.315 1224.25 692.844C1224.25 697.207 1224.7 700.898 1225.61 703.915C1226.53 706.915 1227.83 709.19 1229.52 710.741C1231.21 712.276 1233.23 713.043 1235.6 713.043ZM1267.09 719.486C1265.69 719.486 1264.49 718.991 1263.49 718.003C1262.48 716.997 1261.98 715.787 1261.98 714.372C1261.98 712.974 1262.48 711.781 1263.49 710.793C1264.49 709.787 1265.69 709.284 1267.09 709.284C1268.49 709.284 1269.69 709.787 1270.7 710.793C1271.7 711.781 1272.2 712.974 1272.2 714.372C1272.2 715.31 1271.97 716.17 1271.49 716.955C1271.03 717.722 1270.41 718.335 1269.65 718.795C1268.88 719.256 1268.03 719.486 1267.09 719.486ZM1298.67 719.869C1294.63 719.852 1291.18 718.787 1288.32 716.673C1285.45 714.56 1283.26 711.483 1281.75 707.443C1280.23 703.403 1279.47 698.537 1279.47 692.844C1279.47 687.168 1280.23 682.318 1281.75 678.295C1283.28 674.273 1285.48 671.205 1288.34 669.091C1291.22 666.977 1294.67 665.92 1298.67 665.92C1302.68 665.92 1306.11 666.986 1308.98 669.116C1311.84 671.23 1314.03 674.298 1315.55 678.321C1317.08 682.327 1317.85 687.168 1317.85 692.844C1317.85 698.554 1317.09 703.429 1315.57 707.469C1314.06 711.491 1311.87 714.568 1309 716.699C1306.14 718.813 1302.7 719.869 1298.67 719.869ZM1298.67 713.043C1302.22 713.043 1304.99 711.312 1306.98 707.852C1308.99 704.392 1310 699.389 1310 692.844C1310 688.497 1309.54 684.824 1308.62 681.824C1307.72 678.807 1306.41 676.523 1304.71 674.972C1303.02 673.403 1301.01 672.619 1298.67 672.619C1295.14 672.619 1292.38 674.358 1290.36 677.835C1288.35 681.312 1287.34 686.315 1287.32 692.844C1287.32 697.207 1287.77 700.898 1288.68 703.915C1289.6 706.915 1290.9 709.19 1292.59 710.741C1294.28 712.276 1296.3 713.043 1298.67 713.043ZM1345.15 719.869C1341.11 719.852 1337.66 718.787 1334.79 716.673C1331.93 714.56 1329.74 711.483 1328.22 707.443C1326.71 703.403 1325.95 698.537 1325.95 692.844C1325.95 687.168 1326.71 682.318 1328.22 678.295C1329.76 674.273 1331.96 671.205 1334.82 669.091C1337.7 666.977 1341.14 665.92 1345.15 665.92C1349.16 665.92 1352.59 666.986 1355.45 669.116C1358.32 671.23 1360.51 674.298 1362.02 678.321C1363.56 682.327 1364.33 687.168 1364.33 692.844C1364.33 698.554 1363.57 703.429 1362.05 707.469C1360.53 711.491 1358.34 714.568 1355.48 716.699C1352.62 718.813 1349.17 719.869 1345.15 719.869ZM1345.15 713.043C1348.7 713.043 1351.47 711.312 1353.46 707.852C1355.47 704.392 1356.48 699.389 1356.48 692.844C1356.48 688.497 1356.02 684.824 1355.1 681.824C1354.19 678.807 1352.89 676.523 1351.18 674.972C1349.5 673.403 1347.49 672.619 1345.15 672.619C1341.62 672.619 1338.85 674.358 1336.84 677.835C1334.83 681.312 1333.81 686.315 1333.8 692.844C1333.8 697.207 1334.25 700.898 1335.15 703.915C1336.07 706.915 1337.38 709.19 1339.06 710.741C1340.75 712.276 1342.78 713.043 1345.15 713.043Z" fill="white"/>
<path d="M1403.92 688.455H1407.62V708.679C1407.62 710.767 1407.12 712.631 1406.14 714.272C1405.16 715.903 1403.79 717.19 1402.01 718.135C1400.23 719.07 1398.14 719.537 1395.74 719.537C1393.35 719.537 1391.26 719.07 1389.48 718.135C1387.7 717.19 1386.32 715.903 1385.33 714.272C1384.36 712.631 1383.87 710.767 1383.87 708.679V688.455H1387.57V708.381C1387.57 709.872 1387.9 711.2 1388.55 712.363C1389.21 713.516 1390.14 714.426 1391.36 715.092C1392.58 715.749 1394.04 716.077 1395.74 716.077C1397.44 716.077 1398.9 715.749 1400.13 715.092C1401.35 714.426 1402.29 713.516 1402.93 712.363C1403.59 711.2 1403.92 709.872 1403.92 708.381V688.455ZM1431.71 696.091C1431.53 694.58 1430.8 693.406 1429.53 692.571C1428.26 691.736 1426.69 691.318 1424.85 691.318C1423.49 691.318 1422.31 691.537 1421.3 691.974C1420.29 692.412 1419.51 693.013 1418.94 693.779C1418.38 694.545 1418.1 695.415 1418.1 696.389C1418.1 697.205 1418.3 697.906 1418.69 698.492C1419.08 699.069 1419.59 699.551 1420.21 699.939C1420.82 700.317 1421.47 700.63 1422.15 700.879C1422.82 701.117 1423.44 701.311 1424.01 701.46L1427.11 702.295C1427.91 702.504 1428.79 702.793 1429.77 703.161C1430.75 703.528 1431.69 704.031 1432.59 704.667C1433.49 705.293 1434.24 706.099 1434.82 707.083C1435.41 708.067 1435.7 709.276 1435.7 710.707C1435.7 712.358 1435.27 713.849 1434.41 715.182C1433.55 716.514 1432.3 717.573 1430.65 718.359C1429.01 719.144 1427.01 719.537 1424.67 719.537C1422.48 719.537 1420.58 719.184 1418.98 718.478C1417.39 717.772 1416.14 716.788 1415.23 715.525C1414.32 714.262 1413.81 712.795 1413.69 711.125H1417.51C1417.61 712.278 1417.99 713.233 1418.67 713.989C1419.36 714.734 1420.22 715.291 1421.27 715.659C1422.32 716.017 1423.45 716.196 1424.67 716.196C1426.08 716.196 1427.35 715.967 1428.47 715.51C1429.59 715.043 1430.48 714.396 1431.14 713.571C1431.8 712.736 1432.12 711.761 1432.12 710.648C1432.12 709.634 1431.84 708.808 1431.27 708.172C1430.71 707.536 1429.96 707.018 1429.04 706.621C1428.11 706.223 1427.11 705.875 1426.04 705.577L1422.28 704.503C1419.89 703.817 1418 702.837 1416.61 701.565C1415.22 700.292 1414.52 698.626 1414.52 696.568C1414.52 694.858 1414.99 693.366 1415.91 692.094C1416.85 690.811 1418.1 689.817 1419.67 689.111C1421.25 688.395 1423.02 688.037 1424.96 688.037C1426.93 688.037 1428.68 688.39 1430.21 689.096C1431.75 689.792 1432.96 690.746 1433.85 691.96C1434.76 693.173 1435.24 694.55 1435.29 696.091H1431.71ZM1451.21 719H1441.78V688.455H1451.63C1454.59 688.455 1457.13 689.066 1459.24 690.289C1461.34 691.502 1462.96 693.247 1464.08 695.524C1465.21 697.791 1465.77 700.506 1465.77 703.668C1465.77 706.849 1465.2 709.589 1464.07 711.886C1462.93 714.173 1461.28 715.933 1459.12 717.165C1456.95 718.388 1454.31 719 1451.21 719ZM1445.48 715.719H1450.97C1453.5 715.719 1455.59 715.232 1457.25 714.257C1458.91 713.283 1460.15 711.896 1460.97 710.096C1461.78 708.296 1462.19 706.153 1462.19 703.668C1462.19 701.202 1461.79 699.079 1460.98 697.299C1460.17 695.509 1458.97 694.137 1457.37 693.183C1455.77 692.218 1453.78 691.736 1451.39 691.736H1445.48V715.719Z" fill="#98A2B3"/>
<path d="M626.267 170.869C622.227 170.852 618.776 169.787 615.912 167.673C613.048 165.56 610.858 162.483 609.341 158.443C607.824 154.403 607.065 149.537 607.065 143.844C607.065 138.168 607.824 133.318 609.341 129.295C610.875 125.273 613.074 122.205 615.938 120.091C618.818 117.977 622.261 116.92 626.267 116.92C630.273 116.92 633.707 117.986 636.571 120.116C639.435 122.23 641.625 125.298 643.142 129.321C644.676 133.327 645.443 138.168 645.443 143.844C645.443 149.554 644.685 154.429 643.168 158.469C641.651 162.491 639.46 165.568 636.597 167.699C633.733 169.813 630.29 170.869 626.267 170.869ZM626.267 164.043C629.813 164.043 632.582 162.312 634.577 158.852C636.588 155.392 637.594 150.389 637.594 143.844C637.594 139.497 637.134 135.824 636.213 132.824C635.31 129.807 634.006 127.523 632.301 125.972C630.614 124.403 628.602 123.619 626.267 123.619C622.739 123.619 619.969 125.358 617.957 128.835C615.946 132.312 614.932 137.315 614.915 143.844C614.915 148.207 615.366 151.898 616.27 154.915C617.19 157.915 618.494 160.19 620.182 161.741C621.869 163.276 623.898 164.043 626.267 164.043ZM657.754 170.486C656.357 170.486 655.155 169.991 654.149 169.003C653.143 167.997 652.641 166.787 652.641 165.372C652.641 163.974 653.143 162.781 654.149 161.793C655.155 160.787 656.357 160.284 657.754 160.284C659.152 160.284 660.354 160.787 661.359 161.793C662.365 162.781 662.868 163.974 662.868 165.372C662.868 166.31 662.629 167.17 662.152 167.955C661.692 168.722 661.078 169.335 660.311 169.795C659.544 170.256 658.692 170.486 657.754 170.486ZM689.337 170.869C685.298 170.852 681.846 169.787 678.982 167.673C676.119 165.56 673.928 162.483 672.411 158.443C670.894 154.403 670.136 149.537 670.136 143.844C670.136 138.168 670.894 133.318 672.411 129.295C673.945 125.273 676.144 122.205 679.008 120.091C681.888 117.977 685.332 116.92 689.337 116.92C693.343 116.92 696.778 117.986 699.641 120.116C702.505 122.23 704.695 125.298 706.212 129.321C707.746 133.327 708.513 138.168 708.513 143.844C708.513 149.554 707.755 154.429 706.238 158.469C704.721 162.491 702.531 165.568 699.667 167.699C696.803 169.813 693.36 170.869 689.337 170.869ZM689.337 164.043C692.883 164.043 695.653 162.312 697.647 158.852C699.658 155.392 700.664 150.389 700.664 143.844C700.664 139.497 700.204 135.824 699.283 132.824C698.38 129.807 697.076 127.523 695.371 125.972C693.684 124.403 691.673 123.619 689.337 123.619C685.809 123.619 683.039 125.358 681.028 128.835C679.016 132.312 678.002 137.315 677.985 143.844C677.985 148.207 678.437 151.898 679.34 154.915C680.261 157.915 681.565 160.19 683.252 161.741C684.94 163.276 686.968 164.043 689.337 164.043ZM735.814 170.869C731.774 170.852 728.322 169.787 725.459 167.673C722.595 165.56 720.405 162.483 718.888 158.443C717.371 154.403 716.612 149.537 716.612 143.844C716.612 138.168 717.371 133.318 718.888 129.295C720.422 125.273 722.621 122.205 725.484 120.091C728.365 117.977 731.808 116.92 735.814 116.92C739.82 116.92 743.254 117.986 746.118 120.116C748.982 122.23 751.172 125.298 752.689 129.321C754.223 133.327 754.99 138.168 754.99 143.844C754.99 149.554 754.232 154.429 752.714 158.469C751.197 162.491 749.007 165.568 746.143 167.699C743.28 169.813 739.837 170.869 735.814 170.869ZM735.814 164.043C739.359 164.043 742.129 162.312 744.124 158.852C746.135 155.392 747.141 150.389 747.141 143.844C747.141 139.497 746.68 135.824 745.76 132.824C744.857 129.807 743.553 127.523 741.848 125.972C740.161 124.403 738.149 123.619 735.814 123.619C732.286 123.619 729.516 125.358 727.504 128.835C725.493 132.312 724.479 137.315 724.462 143.844C724.462 148.207 724.913 151.898 725.817 154.915C726.737 157.915 728.041 160.19 729.729 161.741C731.416 163.276 733.445 164.043 735.814 164.043ZM783.927 117.636V170H776.001V125.562H775.694L763.165 133.744V126.176L776.231 117.636H783.927ZM815.785 170.716C812.12 170.716 808.881 170.085 806.069 168.824C803.273 167.562 801.083 165.824 799.498 163.608C797.913 161.392 797.129 158.869 797.146 156.04C797.129 153.824 797.58 151.787 798.501 149.929C799.438 148.054 800.708 146.494 802.31 145.25C803.913 143.989 805.702 143.188 807.68 142.847V142.54C805.072 141.909 802.984 140.511 801.415 138.347C799.847 136.182 799.072 133.693 799.089 130.881C799.072 128.205 799.779 125.818 801.211 123.722C802.66 121.608 804.646 119.946 807.168 118.736C809.691 117.526 812.563 116.92 815.785 116.92C818.972 116.92 821.819 117.534 824.325 118.761C826.847 119.972 828.833 121.634 830.282 123.747C831.731 125.844 832.464 128.222 832.481 130.881C832.464 133.693 831.663 136.182 830.077 138.347C828.492 140.511 826.43 141.909 823.89 142.54V142.847C825.85 143.188 827.614 143.989 829.183 145.25C830.768 146.494 832.029 148.054 832.967 149.929C833.921 151.787 834.407 153.824 834.424 156.04C834.407 158.869 833.606 161.392 832.021 163.608C830.435 165.824 828.237 167.562 825.424 168.824C822.629 170.085 819.415 170.716 815.785 170.716ZM815.785 164.247C817.95 164.247 819.825 163.889 821.41 163.173C822.995 162.44 824.222 161.426 825.092 160.131C825.961 158.818 826.404 157.284 826.421 155.528C826.404 153.705 825.927 152.094 824.989 150.696C824.069 149.298 822.816 148.199 821.231 147.398C819.646 146.597 817.83 146.196 815.785 146.196C813.722 146.196 811.89 146.597 810.288 147.398C808.685 148.199 807.424 149.298 806.504 150.696C805.583 152.094 805.131 153.705 805.148 155.528C805.131 157.284 805.549 158.818 806.401 160.131C807.271 161.426 808.506 162.44 810.109 163.173C811.711 163.889 813.603 164.247 815.785 164.247ZM815.785 139.881C817.523 139.881 819.066 139.531 820.413 138.832C821.759 138.134 822.816 137.162 823.583 135.918C824.367 134.673 824.768 133.216 824.785 131.545C824.768 129.909 824.376 128.477 823.609 127.25C822.859 126.023 821.81 125.077 820.464 124.412C819.117 123.73 817.558 123.389 815.785 123.389C813.978 123.389 812.393 123.73 811.029 124.412C809.683 125.077 808.634 126.023 807.884 127.25C807.134 128.477 806.768 129.909 806.785 131.545C806.768 133.216 807.143 134.673 807.91 135.918C808.677 137.162 809.734 138.134 811.08 138.832C812.444 139.531 814.012 139.881 815.785 139.881Z" fill="white"/>
<path d="M854.058 170V139.455H872.493V142.736H857.757V153.057H871.538V156.338H857.757V166.719H872.732V170H854.058ZM877.489 142.736V139.455H900.398V142.736H890.793V170H887.094V142.736H877.489ZM906.107 170V139.455H909.806V153.057H926.093V139.455H929.792V170H926.093V156.338H909.806V170H906.107Z" fill="#98A2B3"/>
<path d="M626.267 353.388C622.227 353.371 618.776 352.306 615.912 350.192C613.048 348.079 610.858 345.002 609.341 340.962C607.824 336.922 607.065 332.056 607.065 326.363C607.065 320.687 607.824 315.837 609.341 311.814C610.875 307.792 613.074 304.724 615.938 302.61C618.818 300.496 622.261 299.439 626.267 299.439C630.273 299.439 633.707 300.505 636.571 302.636C639.435 304.749 641.625 307.817 643.142 311.84C644.676 315.846 645.443 320.687 645.443 326.363C645.443 332.073 644.685 336.948 643.168 340.988C641.651 345.011 639.46 348.087 636.597 350.218C633.733 352.332 630.29 353.388 626.267 353.388ZM626.267 346.562C629.813 346.562 632.582 344.832 634.577 341.371C636.588 337.911 637.594 332.908 637.594 326.363C637.594 322.016 637.134 318.343 636.213 315.343C635.31 312.326 634.006 310.042 632.301 308.491C630.614 306.922 628.602 306.138 626.267 306.138C622.739 306.138 619.969 307.877 617.957 311.354C615.946 314.832 614.932 319.834 614.915 326.363C614.915 330.726 615.366 334.417 616.27 337.434C617.19 340.434 618.494 342.709 620.182 344.261C621.869 345.795 623.898 346.562 626.267 346.562ZM657.754 353.005C656.357 353.005 655.155 352.511 654.149 351.522C653.143 350.516 652.641 349.306 652.641 347.891C652.641 346.493 653.143 345.3 654.149 344.312C655.155 343.306 656.357 342.803 657.754 342.803C659.152 342.803 660.354 343.306 661.359 344.312C662.365 345.3 662.868 346.493 662.868 347.891C662.868 348.829 662.629 349.689 662.152 350.474C661.692 351.241 661.078 351.854 660.311 352.314C659.544 352.775 658.692 353.005 657.754 353.005ZM689.337 353.388C685.298 353.371 681.846 352.306 678.982 350.192C676.119 348.079 673.928 345.002 672.411 340.962C670.894 336.922 670.136 332.056 670.136 326.363C670.136 320.687 670.894 315.837 672.411 311.814C673.945 307.792 676.144 304.724 679.008 302.61C681.888 300.496 685.332 299.439 689.337 299.439C693.343 299.439 696.778 300.505 699.641 302.636C702.505 304.749 704.695 307.817 706.212 311.84C707.746 315.846 708.513 320.687 708.513 326.363C708.513 332.073 707.755 336.948 706.238 340.988C704.721 345.011 702.531 348.087 699.667 350.218C696.803 352.332 693.36 353.388 689.337 353.388ZM689.337 346.562C692.883 346.562 695.653 344.832 697.647 341.371C699.658 337.911 700.664 332.908 700.664 326.363C700.664 322.016 700.204 318.343 699.283 315.343C698.38 312.326 697.076 310.042 695.371 308.491C693.684 306.922 691.673 306.138 689.337 306.138C685.809 306.138 683.039 307.877 681.028 311.354C679.016 314.832 678.002 319.834 677.985 326.363C677.985 330.726 678.437 334.417 679.34 337.434C680.261 340.434 681.565 342.709 683.252 344.261C684.94 345.795 686.968 346.562 689.337 346.562ZM735.814 353.388C731.774 353.371 728.322 352.306 725.459 350.192C722.595 348.079 720.405 345.002 718.888 340.962C717.371 336.922 716.612 332.056 716.612 326.363C716.612 320.687 717.371 315.837 718.888 311.814C720.422 307.792 722.621 304.724 725.484 302.61C728.365 300.496 731.808 299.439 735.814 299.439C739.82 299.439 743.254 300.505 746.118 302.636C748.982 304.749 751.172 307.817 752.689 311.84C754.223 315.846 754.99 320.687 754.99 326.363C754.99 332.073 754.232 336.948 752.714 340.988C751.197 345.011 749.007 348.087 746.143 350.218C743.28 352.332 739.837 353.388 735.814 353.388ZM735.814 346.562C739.359 346.562 742.129 344.832 744.124 341.371C746.135 337.911 747.141 332.908 747.141 326.363C747.141 322.016 746.68 318.343 745.76 315.343C744.857 312.326 743.553 310.042 741.848 308.491C740.161 306.922 738.149 306.138 735.814 306.138C732.286 306.138 729.516 307.877 727.504 311.354C725.493 314.832 724.479 319.834 724.462 326.363C724.462 330.726 724.913 334.417 725.817 337.434C726.737 340.434 728.041 342.709 729.729 344.261C731.416 345.795 733.445 346.562 735.814 346.562ZM782.342 353.235C780.006 353.201 777.705 352.775 775.438 351.957C773.188 351.138 771.143 349.775 769.302 347.866C767.461 345.957 765.987 343.391 764.879 340.17C763.788 336.948 763.242 332.925 763.242 328.101C763.242 323.533 763.694 319.476 764.597 315.931C765.518 312.386 766.839 309.394 768.56 306.957C770.282 304.502 772.362 302.636 774.799 301.357C777.237 300.079 779.972 299.439 783.006 299.439C786.126 299.439 788.896 300.053 791.316 301.28C793.737 302.508 795.697 304.204 797.197 306.368C798.714 308.533 799.677 310.996 800.086 313.758H792.288C791.759 311.576 790.711 309.795 789.143 308.414C787.575 307.033 785.529 306.343 783.006 306.343C779.171 306.343 776.18 308.013 774.032 311.354C771.901 314.695 770.827 319.34 770.81 325.289H771.194C772.097 323.806 773.205 322.545 774.518 321.505C775.847 320.448 777.33 319.638 778.967 319.076C780.62 318.496 782.359 318.207 784.183 318.207C787.217 318.207 789.961 318.948 792.415 320.431C794.887 321.897 796.856 323.925 798.322 326.516C799.788 329.107 800.521 332.073 800.521 335.414C800.521 338.755 799.762 341.78 798.245 344.491C796.745 347.201 794.631 349.349 791.904 350.934C789.177 352.502 785.989 353.269 782.342 353.235ZM782.316 346.587C784.327 346.587 786.126 346.093 787.711 345.104C789.296 344.116 790.549 342.786 791.469 341.116C792.39 339.445 792.85 337.579 792.85 335.516C792.85 333.505 792.398 331.672 791.495 330.019C790.609 328.366 789.381 327.053 787.813 326.082C786.262 325.11 784.489 324.624 782.495 324.624C780.978 324.624 779.572 324.914 778.276 325.493C776.998 326.073 775.873 326.874 774.901 327.897C773.93 328.92 773.163 330.096 772.6 331.425C772.055 332.738 771.782 334.127 771.782 335.593C771.782 337.553 772.234 339.368 773.137 341.039C774.058 342.709 775.31 344.056 776.896 345.079C778.498 346.084 780.305 346.587 782.316 346.587ZM827.118 353.235C823.913 353.235 821.033 352.621 818.476 351.394C815.936 350.15 813.908 348.445 812.391 346.28C810.874 344.116 810.064 341.644 809.962 338.866H817.632C817.82 341.116 818.817 342.965 820.624 344.414C822.43 345.863 824.595 346.587 827.118 346.587C829.129 346.587 830.911 346.127 832.462 345.207C834.03 344.269 835.257 342.982 836.143 341.346C837.047 339.709 837.499 337.843 837.499 335.746C837.499 333.616 837.038 331.715 836.118 330.045C835.197 328.374 833.928 327.062 832.308 326.107C830.706 325.153 828.865 324.667 826.786 324.65C825.2 324.65 823.607 324.922 822.004 325.468C820.402 326.013 819.107 326.729 818.118 327.616L810.882 326.542L813.822 300.155H842.612V306.931H820.393L818.732 321.582H819.038C820.061 320.593 821.416 319.766 823.104 319.101C824.808 318.437 826.632 318.104 828.575 318.104C831.763 318.104 834.601 318.863 837.089 320.38C839.595 321.897 841.564 323.968 842.996 326.593C844.445 329.201 845.161 332.201 845.143 335.593C845.161 338.985 844.393 342.011 842.842 344.67C841.308 347.329 839.178 349.425 836.45 350.959C833.74 352.476 830.629 353.235 827.118 353.235Z" fill="white"/>
<path d="M866.21 352.519H862.332L873.548 321.974H877.366L888.582 352.519H884.704L875.576 326.806H875.337L866.21 352.519ZM867.641 340.587H883.272V343.868H867.641V340.587ZM891.721 321.974L900.789 347.687H901.147L910.216 321.974H914.093L902.877 352.519H899.059L887.843 321.974H891.721ZM917.479 352.519H913.601L924.817 321.974H928.635L939.851 352.519H935.973L926.846 326.806H926.607L917.479 352.519ZM918.911 340.587H934.542V343.868H918.911V340.587ZM946.399 321.974L954.274 334.681H954.512L962.387 321.974H966.743L957.137 337.246L966.743 352.519H962.387L954.512 340.05H954.274L946.399 352.519H942.044L951.887 337.246L942.044 321.974H946.399Z" fill="#98A2B3"/>
<path d="M626.267 536.388C622.227 536.371 618.776 535.306 615.912 533.192C613.048 531.079 610.858 528.002 609.341 523.962C607.824 519.922 607.065 515.056 607.065 509.363C607.065 503.687 607.824 498.837 609.341 494.814C610.875 490.792 613.074 487.724 615.938 485.61C618.818 483.496 622.261 482.439 626.267 482.439C630.273 482.439 633.707 483.505 636.571 485.636C639.435 487.749 641.625 490.817 643.142 494.84C644.676 498.846 645.443 503.687 645.443 509.363C645.443 515.073 644.685 519.948 643.168 523.988C641.651 528.011 639.46 531.087 636.597 533.218C633.733 535.332 630.29 536.388 626.267 536.388ZM626.267 529.562C629.813 529.562 632.582 527.832 634.577 524.371C636.588 520.911 637.594 515.908 637.594 509.363C637.594 505.016 637.134 501.343 636.213 498.343C635.31 495.326 634.006 493.042 632.301 491.491C630.614 489.922 628.602 489.138 626.267 489.138C622.739 489.138 619.969 490.877 617.957 494.354C615.946 497.832 614.932 502.834 614.915 509.363C614.915 513.726 615.366 517.417 616.27 520.434C617.19 523.434 618.494 525.709 620.182 527.261C621.869 528.795 623.898 529.562 626.267 529.562ZM657.754 536.005C656.357 536.005 655.155 535.511 654.149 534.522C653.143 533.516 652.641 532.306 652.641 530.891C652.641 529.493 653.143 528.3 654.149 527.312C655.155 526.306 656.357 525.803 657.754 525.803C659.152 525.803 660.354 526.306 661.359 527.312C662.365 528.3 662.868 529.493 662.868 530.891C662.868 531.829 662.629 532.689 662.152 533.474C661.692 534.241 661.078 534.854 660.311 535.314C659.544 535.775 658.692 536.005 657.754 536.005ZM689.337 536.388C685.298 536.371 681.846 535.306 678.982 533.192C676.119 531.079 673.928 528.002 672.411 523.962C670.894 519.922 670.136 515.056 670.136 509.363C670.136 503.687 670.894 498.837 672.411 494.814C673.945 490.792 676.144 487.724 679.008 485.61C681.888 483.496 685.332 482.439 689.337 482.439C693.343 482.439 696.778 483.505 699.641 485.636C702.505 487.749 704.695 490.817 706.212 494.84C707.746 498.846 708.513 503.687 708.513 509.363C708.513 515.073 707.755 519.948 706.238 523.988C704.721 528.011 702.531 531.087 699.667 533.218C696.803 535.332 693.36 536.388 689.337 536.388ZM689.337 529.562C692.883 529.562 695.653 527.832 697.647 524.371C699.658 520.911 700.664 515.908 700.664 509.363C700.664 505.016 700.204 501.343 699.283 498.343C698.38 495.326 697.076 493.042 695.371 491.491C693.684 489.922 691.673 489.138 689.337 489.138C685.809 489.138 683.039 490.877 681.028 494.354C679.016 497.832 678.002 502.834 677.985 509.363C677.985 513.726 678.437 517.417 679.34 520.434C680.261 523.434 681.565 525.709 683.252 527.261C684.94 528.795 686.968 529.562 689.337 529.562ZM717.584 535.519V529.792L735.303 511.434C737.195 509.439 738.754 507.692 739.982 506.192C741.226 504.675 742.155 503.235 742.768 501.871C743.382 500.508 743.689 499.059 743.689 497.525C743.689 495.786 743.28 494.286 742.462 493.025C741.643 491.746 740.527 490.766 739.112 490.084C737.697 489.386 736.104 489.036 734.331 489.036C732.456 489.036 730.82 489.42 729.422 490.187C728.024 490.954 726.95 492.036 726.2 493.434C725.45 494.832 725.075 496.468 725.075 498.343H717.533C717.533 495.155 718.266 492.368 719.732 489.982C721.197 487.596 723.209 485.746 725.766 484.434C728.322 483.104 731.229 482.439 734.484 482.439C737.774 482.439 740.672 483.096 743.178 484.408C745.7 485.704 747.669 487.476 749.084 489.726C750.499 491.959 751.206 494.482 751.206 497.295C751.206 499.238 750.839 501.138 750.107 502.996C749.391 504.854 748.138 506.925 746.348 509.209C744.558 511.476 742.07 514.229 738.882 517.468L728.476 528.36V528.743H752.05V535.519H717.584ZM780.021 536.235C777.686 536.201 775.385 535.775 773.118 534.957C770.868 534.138 768.822 532.775 766.982 530.866C765.141 528.957 763.666 526.391 762.558 523.17C761.467 519.948 760.922 515.925 760.922 511.101C760.922 506.533 761.374 502.476 762.277 498.931C763.197 495.386 764.518 492.394 766.24 489.957C767.962 487.502 770.041 485.636 772.479 484.357C774.916 483.079 777.652 482.439 780.686 482.439C783.805 482.439 786.575 483.053 788.996 484.28C791.416 485.508 793.376 487.204 794.876 489.368C796.393 491.533 797.357 493.996 797.766 496.758H789.967C789.439 494.576 788.391 492.795 786.822 491.414C785.254 490.033 783.209 489.343 780.686 489.343C776.851 489.343 773.859 491.013 771.712 494.354C769.581 497.695 768.507 502.34 768.49 508.289H768.874C769.777 506.806 770.885 505.545 772.197 504.505C773.527 503.448 775.01 502.638 776.646 502.076C778.3 501.496 780.038 501.207 781.862 501.207C784.896 501.207 787.641 501.948 790.095 503.431C792.567 504.897 794.536 506.925 796.001 509.516C797.467 512.107 798.2 515.073 798.2 518.414C798.2 521.755 797.442 524.78 795.925 527.491C794.425 530.201 792.311 532.349 789.584 533.934C786.857 535.502 783.669 536.269 780.021 536.235ZM779.996 529.587C782.007 529.587 783.805 529.093 785.391 528.104C786.976 527.116 788.229 525.786 789.149 524.116C790.07 522.445 790.53 520.579 790.53 518.516C790.53 516.505 790.078 514.672 789.175 513.019C788.288 511.366 787.061 510.053 785.493 509.082C783.942 508.11 782.169 507.624 780.175 507.624C778.658 507.624 777.251 507.914 775.956 508.493C774.678 509.073 773.553 509.874 772.581 510.897C771.609 511.92 770.842 513.096 770.28 514.425C769.734 515.738 769.462 517.127 769.462 518.593C769.462 520.553 769.913 522.368 770.817 524.039C771.737 525.709 772.99 527.056 774.575 528.079C776.178 529.084 777.984 529.587 779.996 529.587ZM824.798 536.235C821.593 536.235 818.712 535.621 816.156 534.394C813.616 533.15 811.587 531.445 810.07 529.28C808.553 527.116 807.744 524.644 807.641 521.866H815.312C815.499 524.116 816.496 525.965 818.303 527.414C820.11 528.863 822.275 529.587 824.798 529.587C826.809 529.587 828.59 529.127 830.141 528.207C831.71 527.269 832.937 525.982 833.823 524.346C834.727 522.709 835.178 520.843 835.178 518.746C835.178 516.616 834.718 514.715 833.798 513.045C832.877 511.374 831.607 510.062 829.988 509.107C828.386 508.153 826.545 507.667 824.465 507.65C822.88 507.65 821.286 507.922 819.684 508.468C818.082 509.013 816.786 509.729 815.798 510.616L808.562 509.542L811.502 483.155H840.292V489.931H818.073L816.411 504.582H816.718C817.741 503.593 819.096 502.766 820.783 502.101C822.488 501.437 824.312 501.104 826.255 501.104C829.442 501.104 832.281 501.863 834.769 503.38C837.275 504.897 839.244 506.968 840.675 509.593C842.124 512.201 842.84 515.201 842.823 518.593C842.84 521.985 842.073 525.011 840.522 527.67C838.988 530.329 836.857 532.425 834.13 533.959C831.42 535.476 828.309 536.235 824.798 536.235Z" fill="white"/>
<path d="M862.636 504.974H867.051L877.432 530.329H877.79L888.17 504.974H892.585V535.519H889.125V512.312H888.827L879.281 535.519H875.94L866.395 512.312H866.097V535.519H862.636V504.974ZM901.254 535.519H897.377L908.593 504.974H912.411L923.627 535.519H919.749L910.621 509.806H910.382L901.254 535.519ZM902.686 523.587H918.317V526.868H902.686V523.587ZM923.146 508.255V504.974H946.055V508.255H936.45V535.519H932.751V508.255H923.146ZM955.462 504.974V535.519H951.763V504.974H955.462ZM987.458 514.519H983.759C983.54 513.455 983.158 512.52 982.611 511.715C982.074 510.91 981.418 510.234 980.642 509.687C979.876 509.13 979.026 508.712 978.092 508.434C977.157 508.155 976.183 508.016 975.168 508.016C973.319 508.016 971.643 508.484 970.142 509.418C968.651 510.353 967.462 511.73 966.577 513.55C965.702 515.369 965.265 517.601 965.265 520.246C965.265 522.891 965.702 525.123 966.577 526.943C967.462 528.763 968.651 530.14 970.142 531.074C971.643 532.009 973.319 532.476 975.168 532.476C976.183 532.476 977.157 532.337 978.092 532.059C979.026 531.78 979.876 531.368 980.642 530.821C981.418 530.264 982.074 529.583 982.611 528.778C983.158 527.962 983.54 527.028 983.759 525.974H987.458C987.18 527.535 986.673 528.932 985.937 530.165C985.201 531.398 984.286 532.447 983.192 533.312C982.099 534.167 980.871 534.818 979.509 535.265C978.156 535.713 976.71 535.937 975.168 535.937C972.563 535.937 970.246 535.3 968.218 534.028C966.19 532.755 964.594 530.945 963.43 528.599C962.267 526.252 961.685 523.468 961.685 520.246C961.685 517.025 962.267 514.241 963.43 511.894C964.594 509.547 966.19 507.738 968.218 506.465C970.246 505.192 972.563 504.556 975.168 504.556C976.71 504.556 978.156 504.78 979.509 505.227C980.871 505.675 982.099 506.331 983.192 507.196C984.286 508.051 985.201 509.095 985.937 510.328C986.673 511.551 987.18 512.948 987.458 514.519Z" fill="#98A2B3"/>
<path d="M626.267 719.388C622.227 719.371 618.776 718.306 615.912 716.192C613.048 714.079 610.858 711.002 609.341 706.962C607.824 702.922 607.065 698.056 607.065 692.363C607.065 686.687 607.824 681.837 609.341 677.814C610.875 673.792 613.074 670.724 615.938 668.61C618.818 666.496 622.261 665.439 626.267 665.439C630.273 665.439 633.707 666.505 636.571 668.636C639.435 670.749 641.625 673.817 643.142 677.84C644.676 681.846 645.443 686.687 645.443 692.363C645.443 698.073 644.685 702.948 643.168 706.988C641.651 711.011 639.46 714.087 636.597 716.218C633.733 718.332 630.29 719.388 626.267 719.388ZM626.267 712.562C629.813 712.562 632.582 710.832 634.577 707.371C636.588 703.911 637.594 698.908 637.594 692.363C637.594 688.016 637.134 684.343 636.213 681.343C635.31 678.326 634.006 676.042 632.301 674.491C630.614 672.922 628.602 672.138 626.267 672.138C622.739 672.138 619.969 673.877 617.957 677.354C615.946 680.832 614.932 685.834 614.915 692.363C614.915 696.726 615.366 700.417 616.27 703.434C617.19 706.434 618.494 708.709 620.182 710.261C621.869 711.795 623.898 712.562 626.267 712.562ZM657.754 719.005C656.357 719.005 655.155 718.511 654.149 717.522C653.143 716.516 652.641 715.306 652.641 713.891C652.641 712.493 653.143 711.3 654.149 710.312C655.155 709.306 656.357 708.803 657.754 708.803C659.152 708.803 660.354 709.306 661.359 710.312C662.365 711.3 662.868 712.493 662.868 713.891C662.868 714.829 662.629 715.689 662.152 716.474C661.692 717.241 661.078 717.854 660.311 718.314C659.544 718.775 658.692 719.005 657.754 719.005ZM689.337 719.388C685.298 719.371 681.846 718.306 678.982 716.192C676.119 714.079 673.928 711.002 672.411 706.962C670.894 702.922 670.136 698.056 670.136 692.363C670.136 686.687 670.894 681.837 672.411 677.814C673.945 673.792 676.144 670.724 679.008 668.61C681.888 666.496 685.332 665.439 689.337 665.439C693.343 665.439 696.778 666.505 699.641 668.636C702.505 670.749 704.695 673.817 706.212 677.84C707.746 681.846 708.513 686.687 708.513 692.363C708.513 698.073 707.755 702.948 706.238 706.988C704.721 711.011 702.531 714.087 699.667 716.218C696.803 718.332 693.36 719.388 689.337 719.388ZM689.337 712.562C692.883 712.562 695.653 710.832 697.647 707.371C699.658 703.911 700.664 698.908 700.664 692.363C700.664 688.016 700.204 684.343 699.283 681.343C698.38 678.326 697.076 676.042 695.371 674.491C693.684 672.922 691.673 672.138 689.337 672.138C685.809 672.138 683.039 673.877 681.028 677.354C679.016 680.832 678.002 685.834 677.985 692.363C677.985 696.726 678.437 700.417 679.34 703.434C680.261 706.434 681.565 708.709 683.252 710.261C684.94 711.795 686.968 712.562 689.337 712.562ZM735.814 719.388C731.774 719.371 728.322 718.306 725.459 716.192C722.595 714.079 720.405 711.002 718.888 706.962C717.371 702.922 716.612 698.056 716.612 692.363C716.612 686.687 717.371 681.837 718.888 677.814C720.422 673.792 722.621 670.724 725.484 668.61C728.365 666.496 731.808 665.439 735.814 665.439C739.82 665.439 743.254 666.505 746.118 668.636C748.982 670.749 751.172 673.817 752.689 677.84C754.223 681.846 754.99 686.687 754.99 692.363C754.99 698.073 754.232 702.948 752.714 706.988C751.197 711.011 749.007 714.087 746.143 716.218C743.28 718.332 739.837 719.388 735.814 719.388ZM735.814 712.562C739.359 712.562 742.129 710.832 744.124 707.371C746.135 703.911 747.141 698.908 747.141 692.363C747.141 688.016 746.68 684.343 745.76 681.343C744.857 678.326 743.553 676.042 741.848 674.491C740.161 672.922 738.149 672.138 735.814 672.138C732.286 672.138 729.516 673.877 727.504 677.354C725.493 680.832 724.479 685.834 724.462 692.363C724.462 696.726 724.913 700.417 725.817 703.434C726.737 706.434 728.041 708.709 729.729 710.261C731.416 711.795 733.445 712.562 735.814 712.562ZM782.29 719.388C778.251 719.371 774.799 718.306 771.935 716.192C769.072 714.079 766.881 711.002 765.364 706.962C763.847 702.922 763.089 698.056 763.089 692.363C763.089 686.687 763.847 681.837 765.364 677.814C766.898 673.792 769.097 670.724 771.961 668.61C774.842 666.496 778.285 665.439 782.29 665.439C786.296 665.439 789.731 666.505 792.594 668.636C795.458 670.749 797.648 673.817 799.165 677.84C800.7 681.846 801.467 686.687 801.467 692.363C801.467 698.073 800.708 702.948 799.191 706.988C797.674 711.011 795.484 714.087 792.62 716.218C789.756 718.332 786.313 719.388 782.29 719.388ZM782.29 712.562C785.836 712.562 788.606 710.832 790.6 707.371C792.612 703.911 793.617 698.908 793.617 692.363C793.617 688.016 793.157 684.343 792.237 681.343C791.333 678.326 790.029 676.042 788.325 674.491C786.637 672.922 784.626 672.138 782.29 672.138C778.762 672.138 775.992 673.877 773.981 677.354C771.969 680.832 770.955 685.834 770.938 692.363C770.938 696.726 771.39 700.417 772.293 703.434C773.214 706.434 774.518 708.709 776.205 710.261C777.893 711.795 779.921 712.562 782.29 712.562ZM830.403 666.155V718.519H822.477V674.082H822.17L809.642 682.263V674.695L822.707 666.155H830.403Z" fill="white"/>
<path d="M856.832 687.974L864.707 700.681H864.946L872.821 687.974H877.176L867.571 703.246L877.176 718.519H872.821L864.946 706.05H864.707L856.832 718.519H852.477L862.321 703.246L852.477 687.974H856.832ZM881.99 718.519V687.974H885.689V715.238H899.888V718.519H881.99ZM905.615 687.974H910.03L920.41 713.329H920.768L931.149 687.974H935.564V718.519H932.104V695.312H931.805L922.26 718.519H918.919L909.373 695.312H909.075V718.519H905.615V687.974Z" fill="#98A2B3"/>
<path d="M1098.56 131.56C1099.14 130.978 1099.14 130.022 1098.56 129.441L1089.56 120.441C1088.98 119.86 1088.02 119.86 1087.44 120.441C1086.86 121.022 1086.86 121.978 1087.44 122.56L1093.88 129L1058.5 129C1057.68 129 1057 129.675 1057 130.5C1057 131.325 1057.68 132 1058.5 132L1093.88 132L1087.44 138.441C1086.86 139.022 1086.86 139.978 1087.44 140.56C1088.02 141.141 1088.98 141.141 1089.56 140.56L1098.56 131.56ZM1066.44 164.56C1067.02 165.141 1067.98 165.141 1068.56 164.56C1069.14 163.978 1069.14 163.022 1068.56 162.441L1062.12 156L1097.5 156C1098.32 156 1099 155.325 1099 154.5C1099 153.675 1098.32 153 1097.5 153L1062.12 153L1068.56 146.56C1069.14 145.978 1069.14 145.022 1068.56 144.441C1067.98 143.86 1067.02 143.86 1066.44 144.441L1057.44 153.441C1056.86 154.022 1056.86 154.978 1057.44 155.56L1066.44 164.56Z" fill="#98A2B3"/>
<path d="M1098.56 314.56C1099.14 313.978 1099.14 313.022 1098.56 312.441L1089.56 303.441C1088.98 302.86 1088.02 302.86 1087.44 303.441C1086.86 304.022 1086.86 304.978 1087.44 305.56L1093.88 312L1058.5 312C1057.68 312 1057 312.675 1057 313.5C1057 314.325 1057.68 315 1058.5 315L1093.88 315L1087.44 321.441C1086.86 322.022 1086.86 322.978 1087.44 323.56C1088.02 324.141 1088.98 324.141 1089.56 323.56L1098.56 314.56ZM1066.44 347.56C1067.02 348.141 1067.98 348.141 1068.56 347.56C1069.14 346.978 1069.14 346.022 1068.56 345.441L1062.12 339L1097.5 339C1098.32 339 1099 338.325 1099 337.5C1099 336.675 1098.32 336 1097.5 336L1062.12 336L1068.56 329.56C1069.14 328.978 1069.14 328.022 1068.56 327.441C1067.98 326.86 1067.02 326.86 1066.44 327.441L1057.44 336.441C1056.86 337.022 1056.86 337.978 1057.44 338.56L1066.44 347.56Z" fill="#98A2B3"/>
<path d="M1098.56 497.56C1099.14 496.978 1099.14 496.022 1098.56 495.441L1089.56 486.441C1088.98 485.86 1088.02 485.86 1087.44 486.441C1086.86 487.022 1086.86 487.978 1087.44 488.56L1093.88 495L1058.5 495C1057.68 495 1057 495.675 1057 496.5C1057 497.325 1057.68 498 1058.5 498L1093.88 498L1087.44 504.441C1086.86 505.022 1086.86 505.978 1087.44 506.56C1088.02 507.141 1088.98 507.141 1089.56 506.56L1098.56 497.56ZM1066.44 530.56C1067.02 531.141 1067.98 531.141 1068.56 530.56C1069.14 529.978 1069.14 529.022 1068.56 528.441L1062.12 522L1097.5 522C1098.32 522 1099 521.325 1099 520.5C1099 519.675 1098.32 519 1097.5 519L1062.12 519L1068.56 512.56C1069.14 511.978 1069.14 511.022 1068.56 510.441C1067.98 509.86 1067.02 509.86 1066.44 510.441L1057.44 519.441C1056.86 520.022 1056.86 520.978 1057.44 521.56L1066.44 530.56Z" fill="#98A2B3"/>
<path d="M1098.56 680.56C1099.14 679.978 1099.14 679.022 1098.56 678.441L1089.56 669.441C1088.98 668.86 1088.02 668.86 1087.44 669.441C1086.86 670.022 1086.86 670.978 1087.44 671.56L1093.88 678L1058.5 678C1057.68 678 1057 678.675 1057 679.5C1057 680.325 1057.68 681 1058.5 681L1093.88 681L1087.44 687.441C1086.86 688.022 1086.86 688.978 1087.44 689.56C1088.02 690.141 1088.98 690.141 1089.56 689.56L1098.56 680.56ZM1066.44 713.56C1067.02 714.141 1067.98 714.141 1068.56 713.56C1069.14 712.978 1069.14 712.022 1068.56 711.441L1062.12 705L1097.5 705C1098.32 705 1099 704.325 1099 703.5C1099 702.675 1098.32 702 1097.5 702L1062.12 702L1068.56 695.56C1069.14 694.978 1069.14 694.022 1068.56 693.441C1067.98 692.86 1067.02 692.86 1066.44 693.441L1057.44 702.441C1056.86 703.022 1056.86 703.978 1057.44 704.56L1066.44 713.56Z" fill="#98A2B3"/>
</svg>
