<svg width="1200" height="631" viewBox="0 0 1200 631" fill="none" xmlns="http://www.w3.org/2000/svg">
<g clip-path="url(#clip0_1930_1259)">
<rect width="1200" height="630" transform="translate(0 0.283203)" fill="black"/>
<g filter="url(#filter0_f_1930_1259)">
<mask id="mask0_1930_1259" style="mask-type:alpha" maskUnits="userSpaceOnUse" x="37" y="577" width="1125" height="1125">
<circle cx="599.538" cy="1139.54" r="561.823" transform="rotate(45 599.538 1139.54)" fill="white"/>
</mask>
<g mask="url(#mask0_1930_1259)">
<g filter="url(#filter1_d_1930_1259)">
<circle cx="699.997" cy="1138.58" r="520.613" transform="rotate(45 699.997 1138.58)" fill="url(#paint0_linear_1930_1259)"/>
<ellipse cx="395.744" cy="1138.84" rx="581.344" ry="555.922" transform="rotate(45 395.744 1138.84)" fill="#B8B999"/>
<circle cx="220.086" cy="1139.5" r="561.823" transform="rotate(45 220.086 1139.5)" fill="url(#paint1_linear_1930_1259)"/>
</g>
</g>
</g>
<path d="M414.839 315.023C414.839 281.886 387.976 255.023 354.839 255.023C321.702 255.023 294.839 281.886 294.839 315.023C294.839 348.161 321.702 375.023 354.839 375.023C387.976 375.023 414.839 348.161 414.839 315.023Z" fill="#24E5DF"/>
<path d="M354.92 265.223C327.373 265.223 305.039 287.656 305.039 315.324C305.039 342.992 327.373 365.423 354.92 365.423C382.467 365.423 404.798 342.993 404.798 315.324C404.798 287.656 382.465 265.223 354.92 265.223ZM371.799 332.282C354.85 349.309 333.549 355.518 324.224 346.153C314.9 336.791 321.085 315.395 338.039 298.368C354.989 281.342 376.288 275.131 385.614 284.493C394.939 293.856 388.753 315.252 371.799 332.282Z" fill="#133D38"/>
<path d="M494.297 324.155H503.68C501.517 332.191 496.994 336.542 487.64 336.542C476.372 336.542 468.207 329.738 468.207 314.556C468.207 306.384 473.945 291.986 488.156 291.986C496.517 291.986 503.488 295.448 506.002 302.966H520.555C518.36 290.534 507.099 279.623 486.725 279.623C463.602 279.623 452.039 298.901 452.039 315.488C452.039 336.85 467.926 350.129 484.859 350.129C498.418 350.129 504.258 340.945 506.421 335.69L506.458 335.597C506.651 335.106 506.853 334.591 507.628 334.882C508.246 335.087 508.156 335.707 507.847 336.532C506.404 340.036 506.288 342.197 506.288 344.566V349.306H520.712V312.616H494.297V324.155Z" fill="white"/>
<path d="M530.284 280.035L530.333 337.564C530.333 344.114 535.132 349.445 541.682 349.445H549.958V337.122C546.325 337.925 543.691 337.565 543.691 333.296L544.174 280.035L530.284 280.035Z" fill="white"/>
<path fill-rule="evenodd" clip-rule="evenodd" d="M694.377 315.674C694.377 334.837 683.662 350.129 657.184 350.129H630.087V280.035H657.184C684.28 280.035 694.377 296.511 694.377 315.674ZM680.365 315.082C680.365 302.925 673.359 292.397 658.729 292.397H645.217V336.85H658.729C673.359 336.85 680.365 327.239 680.365 315.082Z" fill="white"/>
<path d="M760.933 280.035L760.981 337.564C760.981 344.114 765.779 349.445 772.33 349.445H780.606V337.122C776.974 337.925 774.339 337.565 774.339 333.296L774.822 280.035L760.933 280.035Z" fill="white"/>
<path d="M786.643 280.035L800.532 280.035L800.05 333.296C800.05 337.565 802.684 337.925 806.316 337.122V349.445H798.04C791.49 349.445 786.691 344.114 786.691 337.564L786.643 280.035Z" fill="white"/>
<path fill-rule="evenodd" clip-rule="evenodd" d="M553.755 321.693C553.755 306.104 564.044 293.424 581.192 293.424C598.34 293.424 608.629 306.104 608.629 321.693C608.629 337.283 598.341 349.961 581.192 349.961C564.044 349.961 553.755 337.282 553.755 321.693ZM567.058 321.693C567.058 330.631 572.15 337.906 581.192 337.906C590.234 337.906 595.327 330.631 595.327 321.693C595.327 312.755 590.235 305.48 581.192 305.48C572.15 305.48 567.058 312.755 567.058 321.693Z" fill="white"/>
<path fill-rule="evenodd" clip-rule="evenodd" d="M727.465 350.954C744.465 350.954 754.665 338.384 754.665 322.932C754.665 307.477 744.465 294.907 727.465 294.907C710.466 294.907 700.266 307.48 700.266 322.932C700.266 338.384 710.466 350.954 727.465 350.954ZM727.465 306.858C736.429 306.858 741.477 314.07 741.477 322.932C741.477 331.792 736.429 339.003 727.465 339.003C718.501 339.003 713.453 331.794 713.453 322.932C713.453 314.07 718.501 306.858 727.465 306.858Z" fill="white"/>
<path fill-rule="evenodd" clip-rule="evenodd" d="M836.891 317.904C844.224 317.712 849.879 317.564 849.795 313.453C849.692 309.744 848.25 305.622 838.874 305.622C829.602 305.622 827.232 309.434 826.511 313.864H813.529C815.384 300.163 827.129 294.907 839.287 294.907C851.752 294.907 862.983 299.029 862.983 320.045V350.129H849.795V346.318C849.795 343.846 850.413 342.095 851.341 340.342C851.752 339.415 852.165 338.384 851.238 337.973C850.209 337.562 849.796 338.589 849.59 339.104C846.499 346.625 840.523 350.954 830.838 350.954C820.638 350.954 811.881 344.359 811.881 335.192C811.881 323.137 820.741 318.707 831.662 318.089C833.46 317.994 835.219 317.948 836.891 317.904ZM833.929 326.846C828.262 327.463 825.069 329.627 825.069 334.469C825.069 339.003 829.396 341.887 835.474 341.065C842.48 340.136 849.692 335.603 849.795 322.107C846.711 325.5 841.781 326.019 833.981 326.841L833.929 326.846Z" fill="white"/>
<path d="M904.613 294.907C891.324 294.907 888.336 298.821 885.039 306.344C884.937 306.652 884.421 307.478 883.803 307.375C882.567 307.167 882.876 305.93 883.288 305.005C884.215 303.149 884.833 301.088 884.833 298.718V295.732H871.645V350.129H884.833V326.538C884.833 312.731 889.263 307.272 904.613 308.3V294.907Z" fill="white"/>
</g>
<defs>
<filter id="filter0_f_1930_1259" x="-462.285" y="77.7148" width="2123.65" height="2123.65" filterUnits="userSpaceOnUse" color-interpolation-filters="sRGB">
<feFlood flood-opacity="0" result="BackgroundImageFix"/>
<feBlend mode="normal" in="SourceGraphic" in2="BackgroundImageFix" result="shape"/>
<feGaussianBlur stdDeviation="250" result="effect1_foregroundBlur_1930_1259"/>
</filter>
<filter id="filter1_d_1930_1259" x="-345.737" y="570.061" width="1570.35" height="1145.55" filterUnits="userSpaceOnUse" color-interpolation-filters="sRGB">
<feFlood flood-opacity="0" result="BackgroundImageFix"/>
<feColorMatrix in="SourceAlpha" type="matrix" values="0 0 0 0 0 0 0 0 0 0 0 0 0 0 0 0 0 0 127 0" result="hardAlpha"/>
<feOffset dy="4"/>
<feGaussianBlur stdDeviation="2"/>
<feComposite in2="hardAlpha" operator="out"/>
<feColorMatrix type="matrix" values="0 0 0 0 0 0 0 0 0 0 0 0 0 0 0 0 0 0 0.25 0"/>
<feBlend mode="normal" in2="BackgroundImageFix" result="effect1_dropShadow_1930_1259"/>
<feBlend mode="normal" in="SourceGraphic" in2="effect1_dropShadow_1930_1259" result="shape"/>
</filter>
<linearGradient id="paint0_linear_1930_1259" x1="769.21" y1="416.945" x2="576.737" y2="1813.89" gradientUnits="userSpaceOnUse">
<stop stop-color="#CAB914"/>
<stop offset="1" stop-color="#FF5C00"/>
</linearGradient>
<linearGradient id="paint1_linear_1930_1259" x1="745.605" y1="669.031" x2="-31.3656" y2="1567.11" gradientUnits="userSpaceOnUse">
<stop offset="0.216532" stop-color="#21D2D3"/>
<stop offset="0.734375" stop-color="#2A70D9"/>
</linearGradient>
<clipPath id="clip0_1930_1259">
<rect width="1200" height="630" fill="white" transform="translate(0 0.283203)"/>
</clipPath>
</defs>
</svg>
