<svg width="400" height="466" viewBox="0 0 400 466" fill="none" xmlns="http://www.w3.org/2000/svg">
<rect x="24.6562" y="176.656" width="82.6875" height="82.6875" rx="41.3438" fill="#7A5AF8"/>
<rect x="24.6562" y="176.656" width="82.6875" height="82.6875" rx="41.3438" stroke="url(#paint0_linear_2225_1021)" stroke-width="1.3125"/>
<path d="M74.25 207.5C74.25 206.466 74.0463 205.442 73.6506 204.486C73.2548 203.531 72.6747 202.663 71.9435 201.932C71.2122 201.2 70.3441 200.62 69.3886 200.224C68.4332 199.829 67.4092 199.625 66.375 199.625C65.3408 199.625 64.3168 199.829 63.3614 200.224C62.4059 200.62 61.5378 201.2 60.8065 201.932C60.0753 202.663 59.4952 203.531 59.0994 204.486C58.7037 205.442 58.5 206.466 58.5 207.5C58.5 208.534 58.7037 209.558 59.0994 210.514C59.4952 211.469 60.0753 212.337 60.8065 213.068C61.5378 213.8 62.4059 214.38 63.3614 214.776C64.3168 215.171 65.3408 215.375 66.375 215.375C67.4092 215.375 68.4332 215.171 69.3886 214.776C70.3441 214.38 71.2122 213.8 71.9435 213.068C72.6747 212.337 73.2548 211.469 73.6506 210.514C74.0463 209.558 74.25 208.534 74.25 207.5ZM55.875 207.5C55.875 204.715 56.9812 202.045 58.9504 200.075C60.9195 198.106 63.5902 197 66.375 197C69.1598 197 71.8305 198.106 73.7996 200.075C75.7688 202.045 76.875 204.715 76.875 207.5C76.875 210.285 75.7688 212.955 73.7996 214.925C71.8305 216.894 69.1598 218 66.375 218C63.5902 218 60.9195 216.894 58.9504 214.925C56.9812 212.955 55.875 210.285 55.875 207.5ZM50.625 236.375H82.125C82.0266 229.837 76.6945 224.562 70.1238 224.562H62.6262C56.0637 224.562 50.7316 229.837 50.625 236.375ZM48 236.564C48 228.484 54.5461 221.938 62.6262 221.938H70.1238C78.2039 221.938 84.75 228.484 84.75 236.564C84.75 237.909 83.659 239 82.3137 239H50.4363C49.091 239 48 237.909 48 236.564Z" fill="white"/>
<path d="M56.2162 272.909H57.8014V281.577C57.8014 282.472 57.5905 283.271 57.1686 283.974C56.751 284.673 56.1608 285.224 55.398 285.629C54.6352 286.03 53.7403 286.23 52.7133 286.23C51.6863 286.23 50.7915 286.03 50.0287 285.629C49.2659 285.224 48.6736 284.673 48.2517 283.974C47.8341 283.271 47.6253 282.472 47.6253 281.577V272.909H49.2105V281.449C49.2105 282.088 49.3511 282.657 49.6324 283.156C49.9136 283.65 50.3142 284.04 50.8341 284.325C51.3582 284.607 51.9846 284.747 52.7133 284.747C53.442 284.747 54.0684 284.607 54.5926 284.325C55.1167 284.04 55.5173 283.65 55.7943 283.156C56.0756 282.657 56.2162 282.088 56.2162 281.449V272.909ZM67.7171 278.381L66.3619 278.764C66.2767 278.538 66.151 278.319 65.9848 278.106C65.8229 277.888 65.6013 277.71 65.32 277.569C65.0388 277.428 64.6787 277.358 64.2398 277.358C63.6389 277.358 63.1382 277.496 62.7377 277.773C62.3414 278.046 62.1432 278.393 62.1432 278.815C62.1432 279.19 62.2796 279.487 62.5523 279.704C62.825 279.921 63.2512 280.102 63.8307 280.247L65.2881 280.605C66.1659 280.818 66.82 281.144 67.2504 281.583C67.6808 282.018 67.896 282.578 67.896 283.264C67.896 283.827 67.7341 284.33 67.4102 284.773C67.0906 285.216 66.6432 285.565 66.0679 285.821C65.4926 286.077 64.8236 286.205 64.0608 286.205C63.0594 286.205 62.2306 285.987 61.5743 285.553C60.9181 285.118 60.5026 284.483 60.3279 283.648L61.7597 283.29C61.896 283.818 62.1539 284.214 62.5331 284.479C62.9166 284.743 63.4173 284.875 64.0352 284.875C64.7384 284.875 65.2966 284.726 65.71 284.428C66.1276 284.125 66.3364 283.763 66.3364 283.341C66.3364 283 66.2171 282.714 65.9784 282.484C65.7398 282.25 65.3733 282.075 64.879 281.96L63.2426 281.577C62.3435 281.364 61.683 281.033 61.2611 280.586C60.8435 280.134 60.6347 279.57 60.6347 278.892C60.6347 278.338 60.7902 277.848 61.1013 277.422C61.4166 276.996 61.8449 276.661 62.3861 276.418C62.9316 276.175 63.5494 276.054 64.2398 276.054C65.2114 276.054 65.9742 276.267 66.5281 276.693C67.0864 277.119 67.4827 277.682 67.7171 278.381ZM74.2833 286.205C73.3373 286.205 72.5212 285.996 71.8351 285.578C71.1533 285.156 70.627 284.568 70.2563 283.814C69.8898 283.055 69.7066 282.173 69.7066 281.168C69.7066 280.162 69.8898 279.276 70.2563 278.509C70.627 277.737 71.1427 277.136 71.8032 276.706C72.468 276.271 73.2435 276.054 74.1299 276.054C74.6412 276.054 75.1462 276.139 75.6448 276.31C76.1434 276.48 76.5972 276.757 77.0063 277.141C77.4154 277.52 77.7414 278.023 77.9843 278.649C78.2272 279.276 78.3486 280.047 78.3486 280.963V281.602H70.7805V280.298H76.8145C76.8145 279.744 76.7037 279.25 76.4822 278.815C76.2648 278.381 75.9537 278.038 75.5489 277.786C75.1483 277.535 74.6753 277.409 74.1299 277.409C73.529 277.409 73.0091 277.558 72.5702 277.857C72.1356 278.151 71.801 278.534 71.5667 279.007C71.3323 279.48 71.2151 279.987 71.2151 280.528V281.398C71.2151 282.139 71.343 282.768 71.5986 283.283C71.8586 283.795 72.2187 284.185 72.6789 284.453C73.1391 284.717 73.6739 284.849 74.2833 284.849C74.6796 284.849 75.0376 284.794 75.3572 284.683C75.681 284.568 75.9601 284.398 76.1945 284.172C76.4289 283.942 76.61 283.656 76.7378 283.315L78.1952 283.724C78.0418 284.219 77.784 284.653 77.4218 285.028C77.0596 285.399 76.6121 285.689 76.0795 285.898C75.5468 286.102 74.9481 286.205 74.2833 286.205ZM80.6434 286V276.182H82.1008V277.665H82.203C82.382 277.179 82.7059 276.785 83.1746 276.482C83.6434 276.18 84.1718 276.028 84.7599 276.028C84.8707 276.028 85.0091 276.031 85.1753 276.035C85.3415 276.039 85.4672 276.045 85.5525 276.054V277.588C85.5013 277.575 85.3841 277.556 85.2009 277.531C85.0219 277.501 84.8323 277.486 84.632 277.486C84.1547 277.486 83.7286 277.586 83.3536 277.786C82.9829 277.982 82.6888 278.255 82.4715 278.604C82.2584 278.95 82.1519 279.344 82.1519 279.787V286H80.6434Z" fill="#728397"/>
<rect x="158.656" y="176.656" width="82.6875" height="82.6875" rx="41.3438" fill="#272727"/>
<rect x="158.656" y="176.656" width="82.6875" height="82.6875" rx="41.3438" stroke="url(#paint1_linear_2225_1021)" stroke-width="1.3125"/>
<path d="M210.812 200.302V204.604H202.208V213.208H206.51V217.51H202.208V230.416H210.812V234.718H202.208V239.02H197.906V234.718H189.302V230.416H197.906V217.51H189.302V213.208H197.906V204.604H189.302V200.302H197.906V196H202.208V200.302H210.812ZM189.302 204.604H185V213.208H189.302V204.604ZM215.114 208.906V204.604H210.812V208.906H215.114ZM210.812 221.812V217.51H206.51V221.812H210.812ZM185 226.114V230.416H189.302V226.114H185ZM210.812 230.416H215.114V221.812H210.812V230.416Z" fill="#F3FF97"/>
<path d="M163.903 276.182C163.826 275.534 163.515 275.031 162.969 274.673C162.424 274.315 161.755 274.136 160.962 274.136C160.383 274.136 159.876 274.23 159.441 274.418C159.01 274.605 158.674 274.863 158.431 275.191C158.192 275.519 158.073 275.892 158.073 276.31C158.073 276.659 158.156 276.96 158.322 277.211C158.493 277.458 158.71 277.665 158.974 277.831C159.238 277.993 159.515 278.127 159.805 278.234C160.095 278.336 160.361 278.419 160.604 278.483L161.934 278.841C162.275 278.93 162.654 279.054 163.072 279.212C163.493 279.369 163.896 279.585 164.28 279.857C164.667 280.126 164.987 280.471 165.238 280.893C165.49 281.315 165.616 281.832 165.616 282.446C165.616 283.153 165.43 283.793 165.059 284.364C164.693 284.935 164.156 285.388 163.449 285.725C162.746 286.062 161.891 286.23 160.885 286.23C159.948 286.23 159.136 286.079 158.45 285.776C157.768 285.474 157.231 285.052 156.839 284.511C156.452 283.969 156.232 283.341 156.181 282.625H157.817C157.86 283.119 158.026 283.528 158.316 283.852C158.61 284.172 158.981 284.411 159.428 284.568C159.88 284.722 160.366 284.798 160.885 284.798C161.491 284.798 162.034 284.7 162.515 284.504C162.997 284.304 163.378 284.027 163.66 283.673C163.941 283.315 164.081 282.898 164.081 282.42C164.081 281.986 163.96 281.632 163.717 281.359C163.474 281.087 163.155 280.865 162.758 280.695C162.362 280.524 161.934 280.375 161.474 280.247L159.863 279.787C158.84 279.493 158.03 279.073 157.434 278.528C156.837 277.982 156.539 277.268 156.539 276.386C156.539 275.653 156.737 275.014 157.133 274.469C157.534 273.919 158.071 273.493 158.744 273.19C159.422 272.884 160.178 272.73 161.013 272.73C161.857 272.73 162.607 272.881 163.263 273.184C163.92 273.482 164.439 273.891 164.823 274.411C165.211 274.931 165.415 275.521 165.437 276.182H163.903ZM172.287 276.182V277.46H167.199V276.182H172.287ZM168.682 273.83H170.191V283.188C170.191 283.614 170.252 283.933 170.376 284.146C170.504 284.355 170.666 284.496 170.862 284.568C171.062 284.636 171.273 284.67 171.495 284.67C171.661 284.67 171.797 284.662 171.904 284.645C172.01 284.624 172.096 284.607 172.159 284.594L172.466 285.949C172.364 285.987 172.221 286.026 172.038 286.064C171.855 286.107 171.623 286.128 171.341 286.128C170.915 286.128 170.498 286.036 170.088 285.853C169.684 285.67 169.347 285.391 169.078 285.016C168.814 284.641 168.682 284.168 168.682 283.597V273.83ZM177.446 286.23C176.824 286.23 176.259 286.113 175.752 285.879C175.245 285.64 174.842 285.297 174.544 284.849C174.245 284.398 174.096 283.852 174.096 283.213C174.096 282.651 174.207 282.195 174.429 281.845C174.65 281.491 174.946 281.214 175.317 281.014C175.688 280.814 176.097 280.665 176.544 280.567C176.996 280.464 177.45 280.384 177.906 280.324C178.502 280.247 178.986 280.19 179.357 280.151C179.732 280.109 180.005 280.038 180.175 279.94C180.35 279.842 180.437 279.672 180.437 279.429V279.378C180.437 278.747 180.265 278.257 179.919 277.908C179.578 277.558 179.061 277.384 178.366 277.384C177.646 277.384 177.081 277.541 176.672 277.857C176.263 278.172 175.975 278.509 175.809 278.866L174.377 278.355C174.633 277.759 174.974 277.294 175.4 276.962C175.831 276.625 176.299 276.391 176.806 276.259C177.318 276.122 177.821 276.054 178.315 276.054C178.63 276.054 178.993 276.092 179.402 276.169C179.815 276.241 180.213 276.393 180.597 276.623C180.985 276.853 181.306 277.2 181.562 277.665C181.818 278.129 181.946 278.751 181.946 279.531V286H180.437V284.67H180.36C180.258 284.884 180.088 285.112 179.849 285.354C179.61 285.597 179.293 285.804 178.897 285.974C178.5 286.145 178.017 286.23 177.446 286.23ZM177.676 284.875C178.272 284.875 178.775 284.758 179.184 284.523C179.598 284.289 179.909 283.987 180.118 283.616C180.331 283.245 180.437 282.855 180.437 282.446V281.065C180.373 281.142 180.233 281.212 180.015 281.276C179.802 281.336 179.555 281.389 179.274 281.436C178.997 281.479 178.726 281.517 178.462 281.551C178.202 281.581 177.991 281.607 177.829 281.628C177.437 281.679 177.071 281.762 176.73 281.877C176.393 281.988 176.12 282.156 175.912 282.382C175.707 282.604 175.605 282.906 175.605 283.29C175.605 283.814 175.799 284.21 176.186 284.479C176.578 284.743 177.075 284.875 177.676 284.875ZM184.904 286V272.909H186.412V277.741H186.54C186.651 277.571 186.804 277.354 187 277.089C187.2 276.821 187.486 276.582 187.857 276.374C188.232 276.161 188.739 276.054 189.378 276.054C190.205 276.054 190.933 276.261 191.564 276.674C192.195 277.087 192.687 277.673 193.041 278.432C193.394 279.19 193.571 280.085 193.571 281.116C193.571 282.156 193.394 283.058 193.041 283.82C192.687 284.579 192.197 285.167 191.57 285.585C190.944 285.998 190.222 286.205 189.404 286.205C188.773 286.205 188.268 286.1 187.889 285.891C187.509 285.678 187.218 285.437 187.013 285.169C186.808 284.896 186.651 284.67 186.54 284.491H186.361V286H184.904ZM186.387 281.091C186.387 281.832 186.495 282.487 186.713 283.053C186.93 283.616 187.247 284.057 187.665 284.376C188.083 284.692 188.594 284.849 189.199 284.849C189.83 284.849 190.356 284.683 190.778 284.351C191.204 284.014 191.524 283.562 191.737 282.996C191.954 282.425 192.063 281.79 192.063 281.091C192.063 280.401 191.956 279.778 191.743 279.224C191.534 278.666 191.217 278.225 190.791 277.901C190.369 277.573 189.838 277.409 189.199 277.409C188.585 277.409 188.07 277.565 187.652 277.876C187.235 278.183 186.919 278.613 186.706 279.167C186.493 279.717 186.387 280.358 186.387 281.091ZM197.387 272.909V286H195.879V272.909H197.387ZM204.267 286.205C203.321 286.205 202.505 285.996 201.819 285.578C201.137 285.156 200.61 284.568 200.24 283.814C199.873 283.055 199.69 282.173 199.69 281.168C199.69 280.162 199.873 279.276 200.24 278.509C200.61 277.737 201.126 277.136 201.787 276.706C202.451 276.271 203.227 276.054 204.113 276.054C204.625 276.054 205.13 276.139 205.628 276.31C206.127 276.48 206.581 276.757 206.99 277.141C207.399 277.52 207.725 278.023 207.968 278.649C208.211 279.276 208.332 280.047 208.332 280.963V281.602H200.764V280.298H206.798C206.798 279.744 206.687 279.25 206.466 278.815C206.248 278.381 205.937 278.038 205.532 277.786C205.132 277.535 204.659 277.409 204.113 277.409C203.512 277.409 202.993 277.558 202.554 277.857C202.119 278.151 201.784 278.534 201.55 279.007C201.316 279.48 201.199 279.987 201.199 280.528V281.398C201.199 282.139 201.326 282.768 201.582 283.283C201.842 283.795 202.202 284.185 202.662 284.453C203.123 284.717 203.657 284.849 204.267 284.849C204.663 284.849 205.021 284.794 205.341 284.683C205.664 284.568 205.944 284.398 206.178 284.172C206.412 283.942 206.593 283.656 206.721 283.315L208.179 283.724C208.025 284.219 207.767 284.653 207.405 285.028C207.043 285.399 206.596 285.689 206.063 285.898C205.53 286.102 204.931 286.205 204.267 286.205ZM214.615 286.205C213.695 286.205 212.902 285.987 212.238 285.553C211.573 285.118 211.061 284.519 210.703 283.756C210.346 282.994 210.167 282.122 210.167 281.142C210.167 280.145 210.35 279.265 210.716 278.502C211.087 277.735 211.603 277.136 212.263 276.706C212.928 276.271 213.703 276.054 214.59 276.054C215.28 276.054 215.902 276.182 216.456 276.438C217.01 276.693 217.464 277.051 217.818 277.511C218.172 277.972 218.391 278.509 218.476 279.122H216.968C216.853 278.675 216.597 278.278 216.201 277.933C215.809 277.584 215.28 277.409 214.615 277.409C214.027 277.409 213.512 277.562 213.069 277.869C212.63 278.172 212.287 278.6 212.039 279.154C211.797 279.704 211.675 280.349 211.675 281.091C211.675 281.849 211.794 282.51 212.033 283.072C212.276 283.635 212.617 284.072 213.056 284.383C213.499 284.694 214.019 284.849 214.615 284.849C215.007 284.849 215.363 284.781 215.683 284.645C216.002 284.509 216.273 284.312 216.495 284.057C216.716 283.801 216.874 283.494 216.968 283.136H218.476C218.391 283.716 218.18 284.238 217.843 284.702C217.511 285.163 217.07 285.529 216.52 285.802C215.975 286.07 215.34 286.205 214.615 286.205ZM224.67 286.205C223.784 286.205 223.006 285.994 222.337 285.572C221.672 285.15 221.152 284.56 220.777 283.801C220.407 283.043 220.221 282.156 220.221 281.142C220.221 280.119 220.407 279.227 220.777 278.464C221.152 277.701 221.672 277.109 222.337 276.687C223.006 276.265 223.784 276.054 224.67 276.054C225.556 276.054 226.332 276.265 226.997 276.687C227.666 277.109 228.186 277.701 228.556 278.464C228.931 279.227 229.119 280.119 229.119 281.142C229.119 282.156 228.931 283.043 228.556 283.801C228.186 284.56 227.666 285.15 226.997 285.572C226.332 285.994 225.556 286.205 224.67 286.205ZM224.67 284.849C225.343 284.849 225.897 284.677 226.332 284.332C226.767 283.987 227.088 283.533 227.297 282.97C227.506 282.408 227.61 281.798 227.61 281.142C227.61 280.486 227.506 279.874 227.297 279.308C227.088 278.741 226.767 278.283 226.332 277.933C225.897 277.584 225.343 277.409 224.67 277.409C223.997 277.409 223.443 277.584 223.008 277.933C222.574 278.283 222.252 278.741 222.043 279.308C221.834 279.874 221.73 280.486 221.73 281.142C221.73 281.798 221.834 282.408 222.043 282.97C222.252 283.533 222.574 283.987 223.008 284.332C223.443 284.677 223.997 284.849 224.67 284.849ZM231.422 286V276.182H232.93V286H231.422ZM232.189 274.545C231.895 274.545 231.641 274.445 231.428 274.245C231.219 274.045 231.115 273.804 231.115 273.523C231.115 273.241 231.219 273.001 231.428 272.8C231.641 272.6 231.895 272.5 232.189 272.5C232.483 272.5 232.734 272.6 232.943 272.8C233.156 273.001 233.263 273.241 233.263 273.523C233.263 273.804 233.156 274.045 232.943 274.245C232.734 274.445 232.483 274.545 232.189 274.545ZM237.202 280.094V286H235.693V276.182H237.151V277.716H237.278C237.509 277.217 237.858 276.817 238.327 276.514C238.795 276.207 239.401 276.054 240.142 276.054C240.807 276.054 241.388 276.19 241.887 276.463C242.386 276.732 242.773 277.141 243.05 277.69C243.327 278.236 243.466 278.926 243.466 279.761V286H241.957V279.864C241.957 279.092 241.757 278.491 241.357 278.061C240.956 277.626 240.406 277.409 239.707 277.409C239.226 277.409 238.795 277.513 238.416 277.722C238.041 277.931 237.745 278.236 237.528 278.636C237.31 279.037 237.202 279.523 237.202 280.094Z" fill="#728397"/>
<rect x="292.656" y="38.6562" width="82.6875" height="82.6875" rx="41.3438" fill="#272727"/>
<rect x="292.656" y="38.6562" width="82.6875" height="82.6875" rx="41.3438" stroke="url(#paint2_linear_2225_1021)" stroke-width="1.3125"/>
<path d="M357.451 68.8657C354.662 70.237 351.877 71.6041 349.145 72.946C348.192 71.9065 347.36 70.8607 346.39 69.9703C344.452 68.1958 342.089 67.2319 339.525 66.8245C336.028 66.268 332.551 66.4087 329.132 67.3957C322.759 69.2332 319.17 74.5357 319.812 81.1507C320.482 88.0492 324.741 92.3164 331.883 93.2236C334.957 93.6142 338.017 93.6394 341.052 92.854C344.191 92.0413 346.703 90.3235 348.624 87.7258C348.809 87.4759 348.998 87.2302 349.208 86.953C351.999 88.3411 354.746 89.7061 357.598 91.1236C356.459 92.9191 355.065 94.3534 353.486 95.6197C349.174 99.0805 344.181 100.847 338.733 101.307C332.131 101.863 325.713 101.155 319.892 97.6756C314.016 94.1623 311.022 88.8367 310.471 82.081C310.117 77.7403 310.709 73.5529 312.794 69.6784C315.213 65.1865 318.987 62.194 323.735 60.5455C331.56 57.8302 339.435 57.6412 347.232 60.7198C351.006 62.2108 354.217 64.5313 356.747 67.7401C356.942 67.9879 357.125 68.2441 357.304 68.5024C357.358 68.5822 357.381 68.6872 357.455 68.8678L357.451 68.8657Z" fill="#F3FF97"/>
<path d="M301.545 148V134.909H303.13V146.594H309.216V148H301.545ZM315.582 148.205C314.636 148.205 313.82 147.996 313.134 147.578C312.452 147.156 311.926 146.568 311.555 145.814C311.189 145.055 311.005 144.173 311.005 143.168C311.005 142.162 311.189 141.276 311.555 140.509C311.926 139.737 312.441 139.136 313.102 138.706C313.767 138.271 314.542 138.054 315.429 138.054C315.94 138.054 316.445 138.139 316.944 138.31C317.442 138.48 317.896 138.757 318.305 139.141C318.714 139.52 319.04 140.023 319.283 140.649C319.526 141.276 319.647 142.047 319.647 142.963V143.602H312.079V142.298H318.113C318.113 141.744 318.003 141.25 317.781 140.815C317.564 140.381 317.253 140.038 316.848 139.786C316.447 139.535 315.974 139.409 315.429 139.409C314.828 139.409 314.308 139.558 313.869 139.857C313.434 140.151 313.1 140.534 312.866 141.007C312.631 141.48 312.514 141.987 312.514 142.528V143.398C312.514 144.139 312.642 144.768 312.897 145.283C313.157 145.795 313.517 146.185 313.978 146.453C314.438 146.717 314.973 146.849 315.582 146.849C315.978 146.849 316.336 146.794 316.656 146.683C316.98 146.568 317.259 146.398 317.493 146.172C317.728 145.942 317.909 145.656 318.037 145.315L319.494 145.724C319.341 146.219 319.083 146.653 318.721 147.028C318.358 147.399 317.911 147.689 317.378 147.898C316.846 148.102 316.247 148.205 315.582 148.205ZM323.451 142.094V148H321.942V138.182H323.4V139.716H323.527C323.758 139.217 324.107 138.817 324.576 138.514C325.044 138.207 325.65 138.054 326.391 138.054C327.056 138.054 327.638 138.19 328.136 138.463C328.635 138.732 329.022 139.141 329.299 139.69C329.576 140.236 329.715 140.926 329.715 141.761V148H328.206V141.864C328.206 141.092 328.006 140.491 327.606 140.061C327.205 139.626 326.655 139.409 325.956 139.409C325.475 139.409 325.044 139.513 324.665 139.722C324.29 139.931 323.994 140.236 323.777 140.636C323.559 141.037 323.451 141.523 323.451 142.094ZM336.179 148.205C335.361 148.205 334.638 147.998 334.012 147.585C333.386 147.167 332.896 146.579 332.542 145.82C332.188 145.058 332.011 144.156 332.011 143.116C332.011 142.085 332.188 141.19 332.542 140.432C332.896 139.673 333.388 139.087 334.018 138.674C334.649 138.261 335.378 138.054 336.204 138.054C336.844 138.054 337.349 138.161 337.719 138.374C338.094 138.582 338.38 138.821 338.576 139.089C338.776 139.354 338.932 139.571 339.043 139.741H339.17V134.909H340.679V148H339.222V146.491H339.043C338.932 146.67 338.774 146.896 338.57 147.169C338.365 147.437 338.073 147.678 337.694 147.891C337.315 148.1 336.81 148.205 336.179 148.205ZM336.383 146.849C336.989 146.849 337.5 146.692 337.918 146.376C338.335 146.057 338.653 145.616 338.87 145.053C339.087 144.487 339.196 143.832 339.196 143.091C339.196 142.358 339.089 141.717 338.876 141.167C338.663 140.613 338.348 140.183 337.93 139.876C337.513 139.565 336.997 139.409 336.383 139.409C335.744 139.409 335.212 139.573 334.785 139.901C334.364 140.225 334.046 140.666 333.833 141.224C333.624 141.778 333.52 142.401 333.52 143.091C333.52 143.79 333.626 144.425 333.839 144.996C334.057 145.562 334.376 146.014 334.798 146.351C335.224 146.683 335.753 146.849 336.383 146.849ZM343.651 148V138.182H345.16V148H343.651ZM344.418 136.545C344.124 136.545 343.871 136.445 343.658 136.245C343.449 136.045 343.344 135.804 343.344 135.523C343.344 135.241 343.449 135.001 343.658 134.8C343.871 134.6 344.124 134.5 344.418 134.5C344.712 134.5 344.964 134.6 345.172 134.8C345.386 135.001 345.492 135.241 345.492 135.523C345.492 135.804 345.386 136.045 345.172 136.245C344.964 136.445 344.712 136.545 344.418 136.545ZM349.431 142.094V148H347.923V138.182H349.38V139.716H349.508C349.738 139.217 350.087 138.817 350.556 138.514C351.025 138.207 351.63 138.054 352.372 138.054C353.036 138.054 353.618 138.19 354.117 138.463C354.615 138.732 355.003 139.141 355.28 139.69C355.557 140.236 355.695 140.926 355.695 141.761V148H354.187V141.864C354.187 141.092 353.987 140.491 353.586 140.061C353.185 139.626 352.636 139.409 351.937 139.409C351.455 139.409 351.025 139.513 350.646 139.722C350.271 139.931 349.975 140.236 349.757 140.636C349.54 141.037 349.431 141.523 349.431 142.094ZM362.415 151.886C361.686 151.886 361.06 151.793 360.536 151.605C360.012 151.422 359.575 151.179 359.225 150.876C358.88 150.578 358.605 150.259 358.401 149.918L359.603 149.074C359.739 149.253 359.911 149.457 360.12 149.688C360.329 149.922 360.615 150.124 360.977 150.295C361.343 150.469 361.823 150.557 362.415 150.557C363.208 150.557 363.862 150.365 364.377 149.982C364.893 149.598 365.151 148.997 365.151 148.179V146.185H365.023C364.912 146.364 364.755 146.585 364.55 146.849C364.35 147.109 364.06 147.342 363.681 147.546C363.306 147.746 362.799 147.847 362.159 147.847C361.367 147.847 360.655 147.659 360.024 147.284C359.398 146.909 358.902 146.364 358.535 145.648C358.173 144.932 357.992 144.062 357.992 143.04C357.992 142.034 358.169 141.158 358.522 140.413C358.876 139.663 359.368 139.083 359.999 138.674C360.63 138.261 361.358 138.054 362.185 138.054C362.824 138.054 363.331 138.161 363.706 138.374C364.085 138.582 364.375 138.821 364.576 139.089C364.78 139.354 364.938 139.571 365.049 139.741H365.202V138.182H366.659V148.281C366.659 149.125 366.468 149.811 366.084 150.339C365.705 150.872 365.193 151.262 364.55 151.509C363.911 151.761 363.199 151.886 362.415 151.886ZM362.364 146.491C362.969 146.491 363.48 146.353 363.898 146.076C364.316 145.799 364.633 145.401 364.85 144.881C365.068 144.361 365.176 143.739 365.176 143.014C365.176 142.307 365.07 141.683 364.857 141.141C364.644 140.6 364.328 140.176 363.911 139.869C363.493 139.562 362.978 139.409 362.364 139.409C361.725 139.409 361.192 139.571 360.766 139.895C360.344 140.219 360.027 140.653 359.813 141.199C359.605 141.744 359.5 142.349 359.5 143.014C359.5 143.696 359.607 144.299 359.82 144.823C360.037 145.343 360.357 145.752 360.779 146.05C361.205 146.344 361.733 146.491 362.364 146.491Z" fill="#728397"/>
<rect x="292.656" y="176.656" width="82.6875" height="82.6875" rx="41.3438" fill="#272727"/>
<rect x="292.656" y="176.656" width="82.6875" height="82.6875" rx="41.3438" stroke="url(#paint3_linear_2225_1021)" stroke-width="1.3125"/>
<path d="M357.451 206.866C354.662 208.237 351.877 209.604 349.145 210.946C348.192 209.907 347.36 208.861 346.39 207.97C344.452 206.196 342.089 205.232 339.525 204.825C336.028 204.268 332.551 204.409 329.132 205.396C322.759 207.233 319.17 212.536 319.812 219.151C320.482 226.049 324.741 230.316 331.883 231.224C334.957 231.614 338.017 231.639 341.052 230.854C344.191 230.041 346.703 228.324 348.624 225.726C348.809 225.476 348.998 225.23 349.208 224.953C351.999 226.341 354.746 227.706 357.598 229.124C356.459 230.919 355.065 232.353 353.486 233.62C349.174 237.081 344.181 238.847 338.733 239.307C332.131 239.863 325.713 239.155 319.892 235.676C314.016 232.162 311.022 226.837 310.471 220.081C310.117 215.74 310.709 211.553 312.794 207.678C315.213 203.187 318.987 200.194 323.735 198.546C331.56 195.83 339.435 195.641 347.232 198.72C351.006 200.211 354.217 202.531 356.747 205.74C356.942 205.988 357.125 206.244 357.304 206.502C357.358 206.582 357.381 206.687 357.455 206.868L357.451 206.866Z" fill="#F3FF97"/>
<path d="M293.758 286V272.909H298.181C299.208 272.909 300.048 273.094 300.7 273.465C301.356 273.832 301.842 274.328 302.157 274.955C302.473 275.581 302.63 276.28 302.63 277.051C302.63 277.822 302.473 278.523 302.157 279.154C301.846 279.785 301.365 280.288 300.713 280.663C300.061 281.033 299.225 281.219 298.207 281.219H295.036V279.812H298.156C298.859 279.812 299.424 279.691 299.85 279.448C300.276 279.205 300.585 278.877 300.777 278.464C300.973 278.046 301.071 277.575 301.071 277.051C301.071 276.527 300.973 276.058 300.777 275.645C300.585 275.232 300.274 274.908 299.843 274.673C299.413 274.435 298.842 274.315 298.13 274.315H295.343V286H293.758ZM307.869 286.23C307.246 286.23 306.682 286.113 306.175 285.879C305.668 285.64 305.265 285.297 304.967 284.849C304.668 284.398 304.519 283.852 304.519 283.213C304.519 282.651 304.63 282.195 304.851 281.845C305.073 281.491 305.369 281.214 305.74 281.014C306.111 280.814 306.52 280.665 306.967 280.567C307.419 280.464 307.873 280.384 308.329 280.324C308.925 280.247 309.409 280.19 309.78 280.151C310.155 280.109 310.427 280.038 310.598 279.94C310.773 279.842 310.86 279.672 310.86 279.429V279.378C310.86 278.747 310.687 278.257 310.342 277.908C310.001 277.558 309.484 277.384 308.789 277.384C308.069 277.384 307.504 277.541 307.095 277.857C306.686 278.172 306.398 278.509 306.232 278.866L304.8 278.355C305.056 277.759 305.397 277.294 305.823 276.962C306.253 276.625 306.722 276.391 307.229 276.259C307.741 276.122 308.244 276.054 308.738 276.054C309.053 276.054 309.415 276.092 309.824 276.169C310.238 276.241 310.636 276.393 311.02 276.623C311.408 276.853 311.729 277.2 311.985 277.665C312.241 278.129 312.369 278.751 312.369 279.531V286H310.86V284.67H310.783C310.681 284.884 310.511 285.112 310.272 285.354C310.033 285.597 309.716 285.804 309.32 285.974C308.923 286.145 308.44 286.23 307.869 286.23ZM308.099 284.875C308.695 284.875 309.198 284.758 309.607 284.523C310.021 284.289 310.332 283.987 310.54 283.616C310.753 283.245 310.86 282.855 310.86 282.446V281.065C310.796 281.142 310.655 281.212 310.438 281.276C310.225 281.336 309.978 281.389 309.697 281.436C309.42 281.479 309.149 281.517 308.885 281.551C308.625 281.581 308.414 281.607 308.252 281.628C307.86 281.679 307.494 281.762 307.153 281.877C306.816 281.988 306.543 282.156 306.334 282.382C306.13 282.604 306.028 282.906 306.028 283.29C306.028 283.814 306.222 284.21 306.609 284.479C307.001 284.743 307.498 284.875 308.099 284.875ZM315.742 289.682C315.486 289.682 315.258 289.661 315.058 289.618C314.858 289.58 314.719 289.541 314.642 289.503L315.026 288.173C315.392 288.267 315.716 288.301 315.998 288.276C316.279 288.25 316.528 288.124 316.745 287.898C316.967 287.677 317.169 287.317 317.353 286.818L317.634 286.051L314.003 276.182H315.64L318.35 284.006H318.452L321.162 276.182H322.799L318.631 287.432C318.444 287.939 318.211 288.359 317.934 288.691C317.657 289.028 317.336 289.277 316.969 289.439C316.607 289.601 316.198 289.682 315.742 289.682ZM324.79 286V276.182H326.247V277.716H326.375C326.58 277.192 326.91 276.785 327.366 276.495C327.822 276.201 328.369 276.054 329.009 276.054C329.656 276.054 330.195 276.201 330.626 276.495C331.06 276.785 331.399 277.192 331.642 277.716H331.744C331.996 277.209 332.373 276.806 332.876 276.508C333.379 276.205 333.982 276.054 334.685 276.054C335.563 276.054 336.281 276.329 336.839 276.879C337.397 277.424 337.676 278.274 337.676 279.429V286H336.168V279.429C336.168 278.705 335.97 278.187 335.573 277.876C335.177 277.565 334.71 277.409 334.173 277.409C333.483 277.409 332.948 277.618 332.569 278.036C332.19 278.449 332 278.973 332 279.608V286H330.466V279.276C330.466 278.717 330.285 278.268 329.923 277.927C329.56 277.582 329.094 277.409 328.523 277.409C328.131 277.409 327.764 277.513 327.423 277.722C327.087 277.931 326.814 278.221 326.605 278.592C326.401 278.958 326.298 279.382 326.298 279.864V286H324.79ZM344.551 286.205C343.605 286.205 342.789 285.996 342.103 285.578C341.421 285.156 340.895 284.568 340.524 283.814C340.157 283.055 339.974 282.173 339.974 281.168C339.974 280.162 340.157 279.276 340.524 278.509C340.895 277.737 341.41 277.136 342.071 276.706C342.736 276.271 343.511 276.054 344.397 276.054C344.909 276.054 345.414 276.139 345.912 276.31C346.411 276.48 346.865 276.757 347.274 277.141C347.683 277.52 348.009 278.023 348.252 278.649C348.495 279.276 348.616 280.047 348.616 280.963V281.602H341.048V280.298H347.082C347.082 279.744 346.971 279.25 346.75 278.815C346.532 278.381 346.221 278.038 345.816 277.786C345.416 277.535 344.943 277.409 344.397 277.409C343.797 277.409 343.277 277.558 342.838 277.857C342.403 278.151 342.069 278.534 341.834 279.007C341.6 279.48 341.483 279.987 341.483 280.528V281.398C341.483 282.139 341.611 282.768 341.866 283.283C342.126 283.795 342.486 284.185 342.946 284.453C343.407 284.717 343.941 284.849 344.551 284.849C344.947 284.849 345.305 284.794 345.625 284.683C345.949 284.568 346.228 284.398 346.462 284.172C346.696 283.942 346.878 283.656 347.005 283.315L348.463 283.724C348.309 284.219 348.052 284.653 347.689 285.028C347.327 285.399 346.88 285.689 346.347 285.898C345.814 286.102 345.216 286.205 344.551 286.205ZM352.419 280.094V286H350.911V276.182H352.368V277.716H352.496C352.726 277.217 353.076 276.817 353.544 276.514C354.013 276.207 354.618 276.054 355.36 276.054C356.025 276.054 356.606 276.19 357.105 276.463C357.603 276.732 357.991 277.141 358.268 277.69C358.545 278.236 358.684 278.926 358.684 279.761V286H357.175V279.864C357.175 279.092 356.975 278.491 356.574 278.061C356.174 277.626 355.624 277.409 354.925 277.409C354.444 277.409 354.013 277.513 353.634 277.722C353.259 277.931 352.963 278.236 352.745 278.636C352.528 279.037 352.419 279.523 352.419 280.094ZM365.71 276.182V277.46H360.622V276.182H365.71ZM362.105 273.83H363.614V283.188C363.614 283.614 363.675 283.933 363.799 284.146C363.927 284.355 364.089 284.496 364.285 284.568C364.485 284.636 364.696 284.67 364.918 284.67C365.084 284.67 365.22 284.662 365.327 284.645C365.433 284.624 365.518 284.607 365.582 284.594L365.889 285.949C365.787 285.987 365.644 286.026 365.461 286.064C365.278 286.107 365.045 286.128 364.764 286.128C364.338 286.128 363.92 286.036 363.511 285.853C363.106 285.67 362.77 285.391 362.501 285.016C362.237 284.641 362.105 284.168 362.105 283.597V273.83ZM374.758 278.381L373.403 278.764C373.318 278.538 373.192 278.319 373.026 278.106C372.864 277.888 372.642 277.71 372.361 277.569C372.08 277.428 371.72 277.358 371.281 277.358C370.68 277.358 370.179 277.496 369.779 277.773C369.382 278.046 369.184 278.393 369.184 278.815C369.184 279.19 369.321 279.487 369.593 279.704C369.866 279.921 370.292 280.102 370.872 280.247L372.329 280.605C373.207 280.818 373.861 281.144 374.291 281.583C374.722 282.018 374.937 282.578 374.937 283.264C374.937 283.827 374.775 284.33 374.451 284.773C374.132 285.216 373.684 285.565 373.109 285.821C372.534 286.077 371.865 286.205 371.102 286.205C370.1 286.205 369.272 285.987 368.615 285.553C367.959 285.118 367.544 284.483 367.369 283.648L368.801 283.29C368.937 283.818 369.195 284.214 369.574 284.479C369.958 284.743 370.458 284.875 371.076 284.875C371.779 284.875 372.338 284.726 372.751 284.428C373.169 284.125 373.377 283.763 373.377 283.341C373.377 283 373.258 282.714 373.019 282.484C372.781 282.25 372.414 282.075 371.92 281.96L370.284 281.577C369.384 281.364 368.724 281.033 368.302 280.586C367.884 280.134 367.676 279.57 367.676 278.892C367.676 278.338 367.831 277.848 368.142 277.422C368.458 276.996 368.886 276.661 369.427 276.418C369.973 276.175 370.59 276.054 371.281 276.054C372.252 276.054 373.015 276.267 373.569 276.693C374.127 277.119 374.524 277.682 374.758 278.381Z" fill="#728397"/>
<rect x="292.656" y="314.656" width="82.6875" height="82.6875" rx="41.3438" fill="#272727"/>
<rect x="292.656" y="314.656" width="82.6875" height="82.6875" rx="41.3438" stroke="url(#paint4_linear_2225_1021)" stroke-width="1.3125"/>
<path d="M357.451 344.866C354.662 346.237 351.877 347.604 349.145 348.946C348.192 347.907 347.36 346.861 346.39 345.97C344.452 344.196 342.089 343.232 339.525 342.825C336.028 342.268 332.551 342.409 329.132 343.396C322.759 345.233 319.17 350.536 319.812 357.151C320.482 364.049 324.741 368.316 331.883 369.224C334.957 369.614 338.017 369.639 341.052 368.854C344.191 368.041 346.703 366.324 348.624 363.726C348.809 363.476 348.998 363.23 349.208 362.953C351.999 364.341 354.746 365.706 357.598 367.124C356.459 368.919 355.065 370.353 353.486 371.62C349.174 375.081 344.181 376.847 338.733 377.307C332.131 377.863 325.713 377.155 319.892 373.676C314.016 370.162 311.022 364.837 310.471 358.081C310.117 353.74 310.709 349.553 312.794 345.678C315.213 341.187 318.987 338.194 323.735 336.546C331.56 333.83 339.435 333.641 347.232 336.72C351.006 338.211 354.217 340.531 356.747 343.74C356.942 343.988 357.125 344.244 357.304 344.502C357.358 344.582 357.381 344.687 357.455 344.868L357.451 344.866Z" fill="#F3FF97"/>
<path d="M320.5 424H316.46V410.909H320.679C321.949 410.909 323.036 411.171 323.939 411.695C324.842 412.215 325.535 412.963 326.016 413.939C326.498 414.911 326.739 416.074 326.739 417.429C326.739 418.793 326.496 419.967 326.01 420.951C325.524 421.931 324.817 422.685 323.888 423.214C322.959 423.738 321.83 424 320.5 424ZM318.045 422.594H320.398C321.48 422.594 322.377 422.385 323.089 421.967C323.8 421.55 324.331 420.955 324.68 420.184C325.03 419.413 325.205 418.494 325.205 417.429C325.205 416.372 325.032 415.462 324.687 414.7C324.342 413.933 323.826 413.344 323.14 412.935C322.454 412.522 321.599 412.315 320.577 412.315H318.045V422.594ZM333.31 424.205C332.364 424.205 331.548 423.996 330.862 423.578C330.18 423.156 329.653 422.568 329.283 421.814C328.916 421.055 328.733 420.173 328.733 419.168C328.733 418.162 328.916 417.276 329.283 416.509C329.653 415.737 330.169 415.136 330.83 414.706C331.494 414.271 332.27 414.054 333.156 414.054C333.668 414.054 334.173 414.139 334.671 414.31C335.17 414.48 335.624 414.757 336.033 415.141C336.442 415.52 336.768 416.023 337.011 416.649C337.254 417.276 337.375 418.047 337.375 418.963V419.602H329.807V418.298H335.841C335.841 417.744 335.73 417.25 335.509 416.815C335.291 416.381 334.98 416.038 334.575 415.786C334.175 415.535 333.702 415.409 333.156 415.409C332.555 415.409 332.036 415.558 331.597 415.857C331.162 416.151 330.827 416.534 330.593 417.007C330.359 417.48 330.241 417.987 330.241 418.528V419.398C330.241 420.139 330.369 420.768 330.625 421.283C330.885 421.795 331.245 422.185 331.705 422.453C332.165 422.717 332.7 422.849 333.31 422.849C333.706 422.849 334.064 422.794 334.384 422.683C334.707 422.568 334.987 422.398 335.221 422.172C335.455 421.942 335.636 421.656 335.764 421.315L337.222 421.724C337.068 422.219 336.81 422.653 336.448 423.028C336.086 423.399 335.638 423.689 335.106 423.898C334.573 424.102 333.974 424.205 333.31 424.205ZM339.874 424V410.909H347.724V412.315H341.46V416.739H347.136V418.145H341.46V424H339.874ZM350.234 424V414.182H351.743V424H350.234ZM351.001 412.545C350.707 412.545 350.454 412.445 350.241 412.245C350.032 412.045 349.927 411.804 349.927 411.523C349.927 411.241 350.032 411.001 350.241 410.8C350.454 410.6 350.707 410.5 351.001 410.5C351.295 410.5 351.547 410.6 351.756 410.8C351.969 411.001 352.075 411.241 352.075 411.523C352.075 411.804 351.969 412.045 351.756 412.245C351.547 412.445 351.295 412.545 351.001 412.545Z" fill="#728397"/>
<path d="M126 217C125.448 217 125 217.448 125 218C125 218.552 125.448 219 126 219V217ZM141.207 218.707C141.598 218.317 141.598 217.683 141.207 217.293L134.843 210.929C134.453 210.538 133.819 210.538 133.429 210.929C133.038 211.319 133.038 211.953 133.429 212.343L139.086 218L133.429 223.657C133.038 224.047 133.038 224.681 133.429 225.071C133.819 225.462 134.453 225.462 134.843 225.071L141.207 218.707ZM126 219H140.5V217H126V219Z" fill="#728397"/>
<path d="M260 217C259.448 217 259 217.448 259 218C259 218.552 259.448 219 260 219V217ZM275.207 218.707C275.598 218.317 275.598 217.683 275.207 217.293L268.843 210.929C268.453 210.538 267.819 210.538 267.429 210.929C267.038 211.319 267.038 211.953 267.429 212.343L273.086 218L267.429 223.657C267.038 224.047 267.038 224.681 267.429 225.071C267.819 225.462 268.453 225.462 268.843 225.071L275.207 218.707ZM260 219H274.5V217H260V219Z" fill="#728397"/>
<path d="M258.832 150.832C258.442 151.223 257.808 151.223 257.418 150.832C257.027 150.442 257.027 149.808 257.418 149.418L258.832 150.832ZM272.376 134.874C272.928 134.874 273.376 135.322 273.376 135.874L273.376 144.874C273.376 145.426 272.928 145.874 272.376 145.874C271.824 145.874 271.376 145.426 271.376 144.874L271.376 136.874L263.376 136.874C262.824 136.874 262.376 136.426 262.376 135.874C262.376 135.322 262.824 134.874 263.376 134.874L272.376 134.874ZM257.418 149.418L271.669 135.167L273.083 136.581L258.832 150.832L257.418 149.418Z" fill="#728397"/>
<path d="M260.895 289.105C260.504 288.715 259.871 288.715 259.48 289.105C259.09 289.496 259.09 290.129 259.48 290.52L260.895 289.105ZM272.376 303.001C272.928 303.001 273.376 302.553 273.376 302.001L273.376 293.001C273.376 292.448 272.928 292.001 272.376 292.001C271.823 292.001 271.376 292.448 271.376 293.001L271.376 301.001L263.376 301.001C262.823 301.001 262.376 301.448 262.376 302.001C262.376 302.553 262.823 303.001 263.376 303.001L272.376 303.001ZM259.48 290.52L271.668 302.708L273.083 301.293L260.895 289.105L259.48 290.52Z" fill="#728397"/>
<defs>
<linearGradient id="paint0_linear_2225_1021" x1="24" y1="259.616" x2="107.939" y2="175.998" gradientUnits="userSpaceOnUse">
<stop stop-color="#7A5AF8"/>
<stop offset="1" stop-color="#C1B1FF"/>
</linearGradient>
<linearGradient id="paint1_linear_2225_1021" x1="158" y1="259.616" x2="241.939" y2="175.998" gradientUnits="userSpaceOnUse">
<stop stop-color="#131313"/>
<stop offset="1" stop-color="#646464"/>
</linearGradient>
<linearGradient id="paint2_linear_2225_1021" x1="292" y1="121.616" x2="375.939" y2="37.9975" gradientUnits="userSpaceOnUse">
<stop stop-color="#131313"/>
<stop offset="1" stop-color="#646464"/>
</linearGradient>
<linearGradient id="paint3_linear_2225_1021" x1="292" y1="259.616" x2="375.939" y2="175.998" gradientUnits="userSpaceOnUse">
<stop stop-color="#131313"/>
<stop offset="1" stop-color="#646464"/>
</linearGradient>
<linearGradient id="paint4_linear_2225_1021" x1="292" y1="397.616" x2="375.939" y2="313.998" gradientUnits="userSpaceOnUse">
<stop stop-color="#131313"/>
<stop offset="1" stop-color="#646464"/>
</linearGradient>
</defs>
</svg>
