<svg width="400" height="190" viewBox="0 0 400 190" fill="none" xmlns="http://www.w3.org/2000/svg">
<rect x="158.656" y="38.6562" width="82.6875" height="82.6875" rx="41.3438" fill="#12B76A"/>
<rect x="158.656" y="38.6562" width="82.6875" height="82.6875" rx="41.3438" stroke="url(#paint0_linear_2225_1002)" stroke-width="1.3125"/>
<path d="M201.312 60.3125C201.312 59.5906 200.722 59 200 59C199.278 59 198.688 59.5906 198.688 60.3125V64.209C198.171 64.2172 197.654 64.2336 197.145 64.2828C195.177 64.4469 193.216 64.9227 191.616 65.9727C189.968 67.0473 188.778 68.6797 188.343 70.9766C188.032 72.6418 188.188 74.1102 188.811 75.3816C189.418 76.6367 190.411 77.5801 191.559 78.3102C193.749 79.7047 196.776 80.5004 199.532 81.2223L199.672 81.2551C202.6 82.0262 205.234 82.7234 207.038 83.8719C207.908 84.4297 208.498 85.0367 208.835 85.7258C209.163 86.4066 209.311 87.2844 209.081 88.4984C208.761 90.1965 207.571 91.4844 205.562 92.2719C203.519 93.0758 200.714 93.3055 197.523 92.8461C195.521 92.5508 192.519 91.8535 190.033 90.7789C189.369 90.4918 188.598 90.7953 188.311 91.468C188.023 92.1406 188.327 92.9035 189 93.1906C191.756 94.3801 194.996 95.1184 197.145 95.4383H197.154C197.679 95.5121 198.195 95.5695 198.704 95.6105V99.6875C198.704 100.409 199.295 101 200.016 101C200.738 101 201.329 100.409 201.329 99.6875V95.7008C203.232 95.6434 205.004 95.3152 206.53 94.7246C209.155 93.6992 211.14 91.7961 211.673 88.9906C211.985 87.3254 211.829 85.857 211.205 84.5855C210.598 83.3305 209.598 82.3871 208.457 81.6652C206.267 80.2707 203.24 79.475 200.484 78.7531L200.345 78.7203C197.416 77.9492 194.783 77.252 192.978 76.1035C192.109 75.5457 191.518 74.9387 191.182 74.2496C190.854 73.5687 190.706 72.691 190.936 71.477C191.231 69.8938 192.01 68.8684 193.068 68.1793C194.168 67.4574 195.652 67.0555 197.383 66.9078C200.853 66.6207 204.873 67.4 207.58 68.0563C208.285 68.2285 208.991 67.7937 209.163 67.0883C209.335 66.3828 208.9 65.6773 208.195 65.5051C206.398 65.0703 203.921 64.5453 201.321 64.3238V60.3125H201.312Z" fill="white"/>
<path d="M191.297 134.909H192.882V143.577C192.882 144.472 192.672 145.271 192.25 145.974C191.832 146.673 191.242 147.224 190.479 147.629C189.716 148.03 188.821 148.23 187.794 148.23C186.767 148.23 185.873 148.03 185.11 147.629C184.347 147.224 183.755 146.673 183.333 145.974C182.915 145.271 182.706 144.472 182.706 143.577V134.909H184.292V143.449C184.292 144.088 184.432 144.657 184.713 145.156C184.995 145.65 185.395 146.04 185.915 146.325C186.439 146.607 187.066 146.747 187.794 146.747C188.523 146.747 189.15 146.607 189.674 146.325C190.198 146.04 190.598 145.65 190.875 145.156C191.157 144.657 191.297 144.088 191.297 143.449V134.909ZM203.207 138.182C203.131 137.534 202.819 137.031 202.274 136.673C201.729 136.315 201.059 136.136 200.267 136.136C199.687 136.136 199.18 136.23 198.746 136.418C198.315 136.605 197.979 136.863 197.736 137.191C197.497 137.519 197.378 137.892 197.378 138.31C197.378 138.659 197.461 138.96 197.627 139.211C197.797 139.458 198.015 139.665 198.279 139.831C198.543 139.993 198.82 140.127 199.11 140.234C199.4 140.336 199.666 140.419 199.909 140.483L201.238 140.841C201.579 140.93 201.959 141.054 202.376 141.212C202.798 141.369 203.201 141.585 203.584 141.857C203.972 142.126 204.292 142.471 204.543 142.893C204.795 143.315 204.92 143.832 204.92 144.446C204.92 145.153 204.735 145.793 204.364 146.364C203.998 146.935 203.461 147.388 202.753 147.725C202.05 148.062 201.196 148.23 200.19 148.23C199.253 148.23 198.441 148.079 197.755 147.776C197.073 147.474 196.536 147.052 196.144 146.511C195.756 145.969 195.537 145.341 195.486 144.625H197.122C197.165 145.119 197.331 145.528 197.621 145.852C197.915 146.172 198.285 146.411 198.733 146.568C199.184 146.722 199.67 146.798 200.19 146.798C200.795 146.798 201.339 146.7 201.82 146.504C202.302 146.304 202.683 146.027 202.964 145.673C203.246 145.315 203.386 144.898 203.386 144.42C203.386 143.986 203.265 143.632 203.022 143.359C202.779 143.087 202.459 142.865 202.063 142.695C201.667 142.524 201.238 142.375 200.778 142.247L199.167 141.787C198.145 141.493 197.335 141.073 196.738 140.528C196.142 139.982 195.844 139.268 195.844 138.386C195.844 137.653 196.042 137.014 196.438 136.469C196.839 135.919 197.376 135.493 198.049 135.19C198.726 134.884 199.483 134.73 200.318 134.73C201.162 134.73 201.912 134.881 202.568 135.184C203.224 135.482 203.744 135.891 204.128 136.411C204.515 136.931 204.72 137.521 204.741 138.182H203.207ZM211.566 148H207.527V134.909H211.745C213.015 134.909 214.102 135.171 215.005 135.695C215.909 136.215 216.601 136.963 217.083 137.939C217.564 138.911 217.805 140.074 217.805 141.429C217.805 142.793 217.562 143.967 217.076 144.951C216.591 145.931 215.883 146.685 214.954 147.214C214.025 147.738 212.896 148 211.566 148ZM209.112 146.594H211.464C212.547 146.594 213.444 146.385 214.155 145.967C214.867 145.55 215.397 144.955 215.747 144.184C216.096 143.413 216.271 142.494 216.271 141.429C216.271 140.372 216.098 139.462 215.753 138.7C215.408 137.933 214.892 137.344 214.206 136.935C213.52 136.522 212.666 136.315 211.643 136.315H209.112V146.594Z" fill="#728397"/>
<rect x="292.656" y="38.6562" width="82.6875" height="82.6875" rx="41.3438" fill="#272727"/>
<rect x="292.656" y="38.6562" width="82.6875" height="82.6875" rx="41.3438" stroke="url(#paint1_linear_2225_1002)" stroke-width="1.3125"/>
<path d="M344.812 62.302V66.604H336.208V75.208H340.51V79.51H336.208V92.416H344.812V96.718H336.208V101.02H331.906V96.718H323.302V92.416H331.906V79.51H323.302V75.208H331.906V66.604H323.302V62.302H331.906V58H336.208V62.302H344.812ZM323.302 66.604H319V75.208H323.302V66.604ZM349.114 70.906V66.604H344.812V70.906H349.114ZM344.812 83.812V79.51H340.51V83.812H344.812ZM319 88.114V92.416H323.302V88.114H319ZM344.812 92.416H349.114V83.812H344.812V92.416Z" fill="#F3FF97"/>
<path d="M297.903 138.182C297.826 137.534 297.515 137.031 296.969 136.673C296.424 136.315 295.755 136.136 294.962 136.136C294.383 136.136 293.876 136.23 293.441 136.418C293.01 136.605 292.674 136.863 292.431 137.191C292.192 137.519 292.073 137.892 292.073 138.31C292.073 138.659 292.156 138.96 292.322 139.211C292.493 139.458 292.71 139.665 292.974 139.831C293.238 139.993 293.515 140.127 293.805 140.234C294.095 140.336 294.361 140.419 294.604 140.483L295.934 140.841C296.275 140.93 296.654 141.054 297.072 141.212C297.493 141.369 297.896 141.585 298.28 141.857C298.667 142.126 298.987 142.471 299.238 142.893C299.49 143.315 299.616 143.832 299.616 144.446C299.616 145.153 299.43 145.793 299.059 146.364C298.693 146.935 298.156 147.388 297.449 147.725C296.746 148.062 295.891 148.23 294.885 148.23C293.948 148.23 293.136 148.079 292.45 147.776C291.768 147.474 291.231 147.052 290.839 146.511C290.452 145.969 290.232 145.341 290.181 144.625H291.817C291.86 145.119 292.026 145.528 292.316 145.852C292.61 146.172 292.981 146.411 293.428 146.568C293.88 146.722 294.366 146.798 294.885 146.798C295.491 146.798 296.034 146.7 296.515 146.504C296.997 146.304 297.378 146.027 297.66 145.673C297.941 145.315 298.081 144.898 298.081 144.42C298.081 143.986 297.96 143.632 297.717 143.359C297.474 143.087 297.155 142.865 296.758 142.695C296.362 142.524 295.934 142.375 295.474 142.247L293.863 141.787C292.84 141.493 292.03 141.073 291.434 140.528C290.837 139.982 290.539 139.268 290.539 138.386C290.539 137.653 290.737 137.014 291.133 136.469C291.534 135.919 292.071 135.493 292.744 135.19C293.422 134.884 294.178 134.73 295.013 134.73C295.857 134.73 296.607 134.881 297.263 135.184C297.92 135.482 298.439 135.891 298.823 136.411C299.211 136.931 299.415 137.521 299.437 138.182H297.903ZM306.287 138.182V139.46H301.199V138.182H306.287ZM302.682 135.83H304.191V145.188C304.191 145.614 304.252 145.933 304.376 146.146C304.504 146.355 304.666 146.496 304.862 146.568C305.062 146.636 305.273 146.67 305.495 146.67C305.661 146.67 305.797 146.662 305.904 146.645C306.01 146.624 306.096 146.607 306.159 146.594L306.466 147.949C306.364 147.987 306.221 148.026 306.038 148.064C305.855 148.107 305.623 148.128 305.341 148.128C304.915 148.128 304.498 148.036 304.088 147.853C303.684 147.67 303.347 147.391 303.078 147.016C302.814 146.641 302.682 146.168 302.682 145.597V135.83ZM311.446 148.23C310.824 148.23 310.259 148.113 309.752 147.879C309.245 147.64 308.842 147.297 308.544 146.849C308.245 146.398 308.096 145.852 308.096 145.213C308.096 144.651 308.207 144.195 308.429 143.845C308.65 143.491 308.946 143.214 309.317 143.014C309.688 142.814 310.097 142.665 310.544 142.567C310.996 142.464 311.45 142.384 311.906 142.324C312.502 142.247 312.986 142.19 313.357 142.151C313.732 142.109 314.005 142.038 314.175 141.94C314.35 141.842 314.437 141.672 314.437 141.429V141.378C314.437 140.747 314.265 140.257 313.919 139.908C313.578 139.558 313.061 139.384 312.366 139.384C311.646 139.384 311.081 139.541 310.672 139.857C310.263 140.172 309.975 140.509 309.809 140.866L308.377 140.355C308.633 139.759 308.974 139.294 309.4 138.962C309.831 138.625 310.299 138.391 310.806 138.259C311.318 138.122 311.821 138.054 312.315 138.054C312.63 138.054 312.993 138.092 313.402 138.169C313.815 138.241 314.213 138.393 314.597 138.623C314.985 138.853 315.306 139.2 315.562 139.665C315.818 140.129 315.946 140.751 315.946 141.531V148H314.437V146.67H314.36C314.258 146.884 314.088 147.112 313.849 147.354C313.61 147.597 313.293 147.804 312.897 147.974C312.5 148.145 312.017 148.23 311.446 148.23ZM311.676 146.875C312.272 146.875 312.775 146.758 313.184 146.523C313.598 146.289 313.909 145.987 314.118 145.616C314.331 145.245 314.437 144.855 314.437 144.446V143.065C314.373 143.142 314.233 143.212 314.015 143.276C313.802 143.336 313.555 143.389 313.274 143.436C312.997 143.479 312.726 143.517 312.462 143.551C312.202 143.581 311.991 143.607 311.829 143.628C311.437 143.679 311.071 143.762 310.73 143.877C310.393 143.988 310.12 144.156 309.912 144.382C309.707 144.604 309.605 144.906 309.605 145.29C309.605 145.814 309.799 146.21 310.186 146.479C310.578 146.743 311.075 146.875 311.676 146.875ZM318.904 148V134.909H320.412V139.741H320.54C320.651 139.571 320.804 139.354 321 139.089C321.2 138.821 321.486 138.582 321.857 138.374C322.232 138.161 322.739 138.054 323.378 138.054C324.205 138.054 324.933 138.261 325.564 138.674C326.195 139.087 326.687 139.673 327.041 140.432C327.394 141.19 327.571 142.085 327.571 143.116C327.571 144.156 327.394 145.058 327.041 145.82C326.687 146.579 326.197 147.167 325.57 147.585C324.944 147.998 324.222 148.205 323.404 148.205C322.773 148.205 322.268 148.1 321.889 147.891C321.509 147.678 321.218 147.437 321.013 147.169C320.808 146.896 320.651 146.67 320.54 146.491H320.361V148H318.904ZM320.387 143.091C320.387 143.832 320.495 144.487 320.713 145.053C320.93 145.616 321.247 146.057 321.665 146.376C322.083 146.692 322.594 146.849 323.199 146.849C323.83 146.849 324.356 146.683 324.778 146.351C325.204 146.014 325.524 145.562 325.737 144.996C325.954 144.425 326.063 143.79 326.063 143.091C326.063 142.401 325.956 141.778 325.743 141.224C325.534 140.666 325.217 140.225 324.791 139.901C324.369 139.573 323.838 139.409 323.199 139.409C322.585 139.409 322.07 139.565 321.652 139.876C321.235 140.183 320.919 140.613 320.706 141.167C320.493 141.717 320.387 142.358 320.387 143.091ZM331.387 134.909V148H329.879V134.909H331.387ZM338.267 148.205C337.321 148.205 336.505 147.996 335.819 147.578C335.137 147.156 334.61 146.568 334.24 145.814C333.873 145.055 333.69 144.173 333.69 143.168C333.69 142.162 333.873 141.276 334.24 140.509C334.61 139.737 335.126 139.136 335.787 138.706C336.451 138.271 337.227 138.054 338.113 138.054C338.625 138.054 339.13 138.139 339.628 138.31C340.127 138.48 340.581 138.757 340.99 139.141C341.399 139.52 341.725 140.023 341.968 140.649C342.211 141.276 342.332 142.047 342.332 142.963V143.602H334.764V142.298H340.798C340.798 141.744 340.687 141.25 340.466 140.815C340.248 140.381 339.937 140.038 339.532 139.786C339.132 139.535 338.659 139.409 338.113 139.409C337.512 139.409 336.993 139.558 336.554 139.857C336.119 140.151 335.784 140.534 335.55 141.007C335.316 141.48 335.199 141.987 335.199 142.528V143.398C335.199 144.139 335.326 144.768 335.582 145.283C335.842 145.795 336.202 146.185 336.662 146.453C337.123 146.717 337.657 146.849 338.267 146.849C338.663 146.849 339.021 146.794 339.341 146.683C339.664 146.568 339.944 146.398 340.178 146.172C340.412 145.942 340.593 145.656 340.721 145.315L342.179 145.724C342.025 146.219 341.767 146.653 341.405 147.028C341.043 147.399 340.596 147.689 340.063 147.898C339.53 148.102 338.931 148.205 338.267 148.205ZM348.615 148.205C347.695 148.205 346.902 147.987 346.238 147.553C345.573 147.118 345.061 146.519 344.703 145.756C344.346 144.994 344.167 144.122 344.167 143.142C344.167 142.145 344.35 141.265 344.716 140.502C345.087 139.735 345.603 139.136 346.263 138.706C346.928 138.271 347.703 138.054 348.59 138.054C349.28 138.054 349.902 138.182 350.456 138.438C351.01 138.693 351.464 139.051 351.818 139.511C352.172 139.972 352.391 140.509 352.476 141.122H350.968C350.853 140.675 350.597 140.278 350.201 139.933C349.809 139.584 349.28 139.409 348.615 139.409C348.027 139.409 347.512 139.562 347.069 139.869C346.63 140.172 346.287 140.6 346.039 141.154C345.797 141.704 345.675 142.349 345.675 143.091C345.675 143.849 345.794 144.51 346.033 145.072C346.276 145.635 346.617 146.072 347.056 146.383C347.499 146.694 348.019 146.849 348.615 146.849C349.007 146.849 349.363 146.781 349.683 146.645C350.002 146.509 350.273 146.312 350.495 146.057C350.716 145.801 350.874 145.494 350.968 145.136H352.476C352.391 145.716 352.18 146.238 351.843 146.702C351.511 147.163 351.07 147.529 350.52 147.802C349.975 148.07 349.34 148.205 348.615 148.205ZM358.67 148.205C357.784 148.205 357.006 147.994 356.337 147.572C355.672 147.15 355.152 146.56 354.777 145.801C354.407 145.043 354.221 144.156 354.221 143.142C354.221 142.119 354.407 141.227 354.777 140.464C355.152 139.701 355.672 139.109 356.337 138.687C357.006 138.265 357.784 138.054 358.67 138.054C359.556 138.054 360.332 138.265 360.997 138.687C361.666 139.109 362.186 139.701 362.556 140.464C362.931 141.227 363.119 142.119 363.119 143.142C363.119 144.156 362.931 145.043 362.556 145.801C362.186 146.56 361.666 147.15 360.997 147.572C360.332 147.994 359.556 148.205 358.67 148.205ZM358.67 146.849C359.343 146.849 359.897 146.677 360.332 146.332C360.767 145.987 361.088 145.533 361.297 144.97C361.506 144.408 361.61 143.798 361.61 143.142C361.61 142.486 361.506 141.874 361.297 141.308C361.088 140.741 360.767 140.283 360.332 139.933C359.897 139.584 359.343 139.409 358.67 139.409C357.997 139.409 357.443 139.584 357.008 139.933C356.574 140.283 356.252 140.741 356.043 141.308C355.834 141.874 355.73 142.486 355.73 143.142C355.73 143.798 355.834 144.408 356.043 144.97C356.252 145.533 356.574 145.987 357.008 146.332C357.443 146.677 357.997 146.849 358.67 146.849ZM365.422 148V138.182H366.93V148H365.422ZM366.189 136.545C365.895 136.545 365.641 136.445 365.428 136.245C365.219 136.045 365.115 135.804 365.115 135.523C365.115 135.241 365.219 135.001 365.428 134.8C365.641 134.6 365.895 134.5 366.189 134.5C366.483 134.5 366.734 134.6 366.943 134.8C367.156 135.001 367.263 135.241 367.263 135.523C367.263 135.804 367.156 136.045 366.943 136.245C366.734 136.445 366.483 136.545 366.189 136.545ZM371.202 142.094V148H369.693V138.182H371.151V139.716H371.278C371.509 139.217 371.858 138.817 372.327 138.514C372.795 138.207 373.401 138.054 374.142 138.054C374.807 138.054 375.388 138.19 375.887 138.463C376.386 138.732 376.773 139.141 377.05 139.69C377.327 140.236 377.466 140.926 377.466 141.761V148H375.957V141.864C375.957 141.092 375.757 140.491 375.357 140.061C374.956 139.626 374.406 139.409 373.707 139.409C373.226 139.409 372.795 139.513 372.416 139.722C372.041 139.931 371.745 140.236 371.528 140.636C371.31 141.037 371.202 141.523 371.202 142.094Z" fill="#728397"/>
<rect x="24.6562" y="38.6562" width="82.6875" height="82.6875" rx="41.3438" fill="#7A5AF8"/>
<rect x="24.6562" y="38.6562" width="82.6875" height="82.6875" rx="41.3438" stroke="url(#paint2_linear_2225_1002)" stroke-width="1.3125"/>
<path d="M74.25 69.5C74.25 68.4658 74.0463 67.4418 73.6506 66.4864C73.2548 65.5309 72.6747 64.6628 71.9435 63.9315C71.2122 63.2003 70.3441 62.6202 69.3886 62.2244C68.4332 61.8287 67.4092 61.625 66.375 61.625C65.3408 61.625 64.3168 61.8287 63.3614 62.2244C62.4059 62.6202 61.5378 63.2003 60.8065 63.9315C60.0753 64.6628 59.4952 65.5309 59.0994 66.4864C58.7037 67.4418 58.5 68.4658 58.5 69.5C58.5 70.5342 58.7037 71.5582 59.0994 72.5136C59.4952 73.4691 60.0753 74.3372 60.8065 75.0685C61.5378 75.7997 62.4059 76.3798 63.3614 76.7756C64.3168 77.1713 65.3408 77.375 66.375 77.375C67.4092 77.375 68.4332 77.1713 69.3886 76.7756C70.3441 76.3798 71.2122 75.7997 71.9435 75.0685C72.6747 74.3372 73.2548 73.4691 73.6506 72.5136C74.0463 71.5582 74.25 70.5342 74.25 69.5ZM55.875 69.5C55.875 66.7152 56.9812 64.0445 58.9504 62.0754C60.9195 60.1062 63.5902 59 66.375 59C69.1598 59 71.8305 60.1062 73.7996 62.0754C75.7688 64.0445 76.875 66.7152 76.875 69.5C76.875 72.2848 75.7688 74.9555 73.7996 76.9246C71.8305 78.8938 69.1598 80 66.375 80C63.5902 80 60.9195 78.8938 58.9504 76.9246C56.9812 74.9555 55.875 72.2848 55.875 69.5ZM50.625 98.375H82.125C82.0266 91.8371 76.6945 86.5625 70.1238 86.5625H62.6262C56.0637 86.5625 50.7316 91.8371 50.625 98.375ZM48 98.5637C48 90.4836 54.5461 83.9375 62.6262 83.9375H70.1238C78.2039 83.9375 84.75 90.4836 84.75 98.5637C84.75 99.909 83.659 101 82.3137 101H50.4363C49.091 101 48 99.909 48 98.5637Z" fill="white"/>
<path d="M56.2162 134.909H57.8014V143.577C57.8014 144.472 57.5905 145.271 57.1686 145.974C56.751 146.673 56.1608 147.224 55.398 147.629C54.6352 148.03 53.7403 148.23 52.7133 148.23C51.6863 148.23 50.7915 148.03 50.0287 147.629C49.2659 147.224 48.6736 146.673 48.2517 145.974C47.8341 145.271 47.6253 144.472 47.6253 143.577V134.909H49.2105V143.449C49.2105 144.088 49.3511 144.657 49.6324 145.156C49.9136 145.65 50.3142 146.04 50.8341 146.325C51.3582 146.607 51.9846 146.747 52.7133 146.747C53.442 146.747 54.0684 146.607 54.5926 146.325C55.1167 146.04 55.5173 145.65 55.7943 145.156C56.0756 144.657 56.2162 144.088 56.2162 143.449V134.909ZM67.7171 140.381L66.3619 140.764C66.2767 140.538 66.151 140.319 65.9848 140.106C65.8229 139.888 65.6013 139.71 65.32 139.569C65.0388 139.428 64.6787 139.358 64.2398 139.358C63.6389 139.358 63.1382 139.496 62.7377 139.773C62.3414 140.046 62.1432 140.393 62.1432 140.815C62.1432 141.19 62.2796 141.487 62.5523 141.704C62.825 141.921 63.2512 142.102 63.8307 142.247L65.2881 142.605C66.1659 142.818 66.82 143.144 67.2504 143.583C67.6808 144.018 67.896 144.578 67.896 145.264C67.896 145.827 67.7341 146.33 67.4102 146.773C67.0906 147.216 66.6432 147.565 66.0679 147.821C65.4926 148.077 64.8236 148.205 64.0608 148.205C63.0594 148.205 62.2306 147.987 61.5743 147.553C60.9181 147.118 60.5026 146.483 60.3279 145.648L61.7597 145.29C61.896 145.818 62.1539 146.214 62.5331 146.479C62.9166 146.743 63.4173 146.875 64.0352 146.875C64.7384 146.875 65.2966 146.726 65.71 146.428C66.1276 146.125 66.3364 145.763 66.3364 145.341C66.3364 145 66.2171 144.714 65.9784 144.484C65.7398 144.25 65.3733 144.075 64.879 143.96L63.2426 143.577C62.3435 143.364 61.683 143.033 61.2611 142.586C60.8435 142.134 60.6347 141.57 60.6347 140.892C60.6347 140.338 60.7902 139.848 61.1013 139.422C61.4166 138.996 61.8449 138.661 62.3861 138.418C62.9316 138.175 63.5494 138.054 64.2398 138.054C65.2114 138.054 65.9742 138.267 66.5281 138.693C67.0864 139.119 67.4827 139.682 67.7171 140.381ZM74.2833 148.205C73.3373 148.205 72.5212 147.996 71.8351 147.578C71.1533 147.156 70.627 146.568 70.2563 145.814C69.8898 145.055 69.7066 144.173 69.7066 143.168C69.7066 142.162 69.8898 141.276 70.2563 140.509C70.627 139.737 71.1427 139.136 71.8032 138.706C72.468 138.271 73.2435 138.054 74.1299 138.054C74.6412 138.054 75.1462 138.139 75.6448 138.31C76.1434 138.48 76.5972 138.757 77.0063 139.141C77.4154 139.52 77.7414 140.023 77.9843 140.649C78.2272 141.276 78.3486 142.047 78.3486 142.963V143.602H70.7805V142.298H76.8145C76.8145 141.744 76.7037 141.25 76.4822 140.815C76.2648 140.381 75.9537 140.038 75.5489 139.786C75.1483 139.535 74.6753 139.409 74.1299 139.409C73.529 139.409 73.0091 139.558 72.5702 139.857C72.1356 140.151 71.801 140.534 71.5667 141.007C71.3323 141.48 71.2151 141.987 71.2151 142.528V143.398C71.2151 144.139 71.343 144.768 71.5986 145.283C71.8586 145.795 72.2187 146.185 72.6789 146.453C73.1391 146.717 73.6739 146.849 74.2833 146.849C74.6796 146.849 75.0376 146.794 75.3572 146.683C75.681 146.568 75.9601 146.398 76.1945 146.172C76.4289 145.942 76.61 145.656 76.7378 145.315L78.1952 145.724C78.0418 146.219 77.784 146.653 77.4218 147.028C77.0596 147.399 76.6121 147.689 76.0795 147.898C75.5468 148.102 74.9481 148.205 74.2833 148.205ZM80.6434 148V138.182H82.1008V139.665H82.203C82.382 139.179 82.7059 138.785 83.1746 138.482C83.6434 138.18 84.1718 138.028 84.7599 138.028C84.8707 138.028 85.0091 138.031 85.1753 138.035C85.3415 138.039 85.4672 138.045 85.5525 138.054V139.588C85.5013 139.575 85.3841 139.556 85.2009 139.531C85.0219 139.501 84.8323 139.486 84.632 139.486C84.1547 139.486 83.7286 139.586 83.3536 139.786C82.9829 139.982 82.6888 140.255 82.4715 140.604C82.2584 140.95 82.1519 141.344 82.1519 141.787V148H80.6434Z" fill="#728397"/>
<path d="M126 77C125.448 77 125 77.4477 125 78C125 78.5523 125.448 79 126 79V77ZM141.207 78.7071C141.598 78.3166 141.598 77.6834 141.207 77.2929L134.843 70.9289C134.453 70.5384 133.819 70.5384 133.429 70.9289C133.038 71.3195 133.038 71.9526 133.429 72.3431L139.086 78L133.429 83.6569C133.038 84.0474 133.038 84.6805 133.429 85.0711C133.819 85.4616 134.453 85.4616 134.843 85.0711L141.207 78.7071ZM126 79H140.5V77H126V79Z" fill="#728397"/>
<path d="M260 77C259.448 77 259 77.4477 259 78C259 78.5523 259.448 79 260 79V77ZM275.207 78.7071C275.598 78.3166 275.598 77.6834 275.207 77.2929L268.843 70.9289C268.453 70.5384 267.819 70.5384 267.429 70.9289C267.038 71.3195 267.038 71.9526 267.429 72.3431L273.086 78L267.429 83.6569C267.038 84.0474 267.038 84.6805 267.429 85.0711C267.819 85.4616 268.453 85.4616 268.843 85.0711L275.207 78.7071ZM260 79H274.5V77H260V79Z" fill="#728397"/>
<defs>
<linearGradient id="paint0_linear_2225_1002" x1="158" y1="121.616" x2="241.939" y2="37.9975" gradientUnits="userSpaceOnUse">
<stop stop-color="#6CFFBB" stop-opacity="0"/>
<stop offset="1" stop-color="#6CFFBB"/>
</linearGradient>
<linearGradient id="paint1_linear_2225_1002" x1="292" y1="121.616" x2="375.939" y2="37.9975" gradientUnits="userSpaceOnUse">
<stop stop-color="#131313"/>
<stop offset="1" stop-color="#646464"/>
</linearGradient>
<linearGradient id="paint2_linear_2225_1002" x1="24" y1="121.616" x2="107.939" y2="37.9975" gradientUnits="userSpaceOnUse">
<stop stop-color="#7A5AF8"/>
<stop offset="1" stop-color="#C1B1FF"/>
</linearGradient>
</defs>
</svg>
