<svg width="400" height="190" viewBox="0 0 400 190" fill="none" xmlns="http://www.w3.org/2000/svg">
<rect x="91.6562" y="38.6562" width="82.6875" height="82.6875" rx="41.3438" fill="#272727"/>
<rect x="91.6562" y="38.6562" width="82.6875" height="82.6875" rx="41.3438" stroke="url(#paint0_linear_2225_1060)" stroke-width="1.3125"/>
<path d="M143.812 62.302V66.604H135.208V75.208H139.51V79.51H135.208V92.416H143.812V96.718H135.208V101.02H130.906V96.718H122.302V92.416H130.906V79.51H122.302V75.208H130.906V66.604H122.302V62.302H130.906V58H135.208V62.302H143.812ZM122.302 66.604H118V75.208H122.302V66.604ZM148.114 70.906V66.604H143.812V70.906H148.114ZM143.812 83.812V79.51H139.51V83.812H143.812ZM118 88.114V92.416H122.302V88.114H118ZM143.812 92.416H148.114V83.812H143.812V92.416Z" fill="#F3FF97"/>
<path d="M96.9025 138.182C96.8258 137.534 96.5147 137.031 95.9693 136.673C95.4238 136.315 94.7548 136.136 93.9622 136.136C93.3826 136.136 92.8755 136.23 92.4409 136.418C92.0105 136.605 91.6738 136.863 91.4309 137.191C91.1923 137.519 91.073 137.892 91.073 138.31C91.073 138.659 91.1561 138.96 91.3223 139.211C91.4927 139.458 91.71 139.665 91.9743 139.831C92.2385 139.993 92.5154 140.127 92.8052 140.234C93.095 140.336 93.3613 140.419 93.6042 140.483L94.9338 140.841C95.2747 140.93 95.6539 141.054 96.0716 141.212C96.4934 141.369 96.8961 141.585 97.2797 141.857C97.6674 142.126 97.987 142.471 98.2385 142.893C98.4899 143.315 98.6156 143.832 98.6156 144.446C98.6156 145.153 98.4302 145.793 98.0595 146.364C97.693 146.935 97.1561 147.388 96.4487 147.725C95.7456 148.062 94.8912 148.23 93.8855 148.23C92.948 148.23 92.1362 148.079 91.4501 147.776C90.7683 147.474 90.2314 147.052 89.8393 146.511C89.4515 145.969 89.2321 145.341 89.1809 144.625H90.8173C90.8599 145.119 91.0261 145.528 91.3159 145.852C91.6099 146.172 91.9806 146.411 92.4281 146.568C92.8798 146.722 93.3656 146.798 93.8855 146.798C94.4906 146.798 95.0339 146.7 95.5154 146.504C95.997 146.304 96.3784 146.027 96.6596 145.673C96.9409 145.315 97.0815 144.898 97.0815 144.42C97.0815 143.986 96.9601 143.632 96.7172 143.359C96.4743 143.087 96.1547 142.865 95.7583 142.695C95.362 142.524 94.9338 142.375 94.4735 142.247L92.8627 141.787C91.84 141.493 91.0304 141.073 90.4338 140.528C89.8372 139.982 89.5389 139.268 89.5389 138.386C89.5389 137.653 89.737 137.014 90.1333 136.469C90.5339 135.919 91.0708 135.493 91.7441 135.19C92.4217 134.884 93.1781 134.73 94.0133 134.73C94.8571 134.73 95.6071 134.881 96.2633 135.184C96.9196 135.482 97.4395 135.891 97.823 136.411C98.2108 136.931 98.4153 137.521 98.4366 138.182H96.9025ZM105.287 138.182V139.46H100.199V138.182H105.287ZM101.682 135.83H103.191V145.188C103.191 145.614 103.252 145.933 103.376 146.146C103.504 146.355 103.666 146.496 103.862 146.568C104.062 146.636 104.273 146.67 104.495 146.67C104.661 146.67 104.797 146.662 104.904 146.645C105.01 146.624 105.096 146.607 105.159 146.594L105.466 147.949C105.364 147.987 105.221 148.026 105.038 148.064C104.855 148.107 104.623 148.128 104.341 148.128C103.915 148.128 103.498 148.036 103.088 147.853C102.684 147.67 102.347 147.391 102.078 147.016C101.814 146.641 101.682 146.168 101.682 145.597V135.83ZM110.446 148.23C109.824 148.23 109.259 148.113 108.752 147.879C108.245 147.64 107.842 147.297 107.544 146.849C107.245 146.398 107.096 145.852 107.096 145.213C107.096 144.651 107.207 144.195 107.429 143.845C107.65 143.491 107.946 143.214 108.317 143.014C108.688 142.814 109.097 142.665 109.544 142.567C109.996 142.464 110.45 142.384 110.906 142.324C111.502 142.247 111.986 142.19 112.357 142.151C112.732 142.109 113.005 142.038 113.175 141.94C113.35 141.842 113.437 141.672 113.437 141.429V141.378C113.437 140.747 113.265 140.257 112.919 139.908C112.578 139.558 112.061 139.384 111.366 139.384C110.646 139.384 110.081 139.541 109.672 139.857C109.263 140.172 108.975 140.509 108.809 140.866L107.377 140.355C107.633 139.759 107.974 139.294 108.4 138.962C108.831 138.625 109.299 138.391 109.806 138.259C110.318 138.122 110.821 138.054 111.315 138.054C111.63 138.054 111.993 138.092 112.402 138.169C112.815 138.241 113.213 138.393 113.597 138.623C113.985 138.853 114.306 139.2 114.562 139.665C114.818 140.129 114.946 140.751 114.946 141.531V148H113.437V146.67H113.36C113.258 146.884 113.088 147.112 112.849 147.354C112.61 147.597 112.293 147.804 111.897 147.974C111.5 148.145 111.017 148.23 110.446 148.23ZM110.676 146.875C111.272 146.875 111.775 146.758 112.184 146.523C112.598 146.289 112.909 145.987 113.118 145.616C113.331 145.245 113.437 144.855 113.437 144.446V143.065C113.373 143.142 113.233 143.212 113.015 143.276C112.802 143.336 112.555 143.389 112.274 143.436C111.997 143.479 111.726 143.517 111.462 143.551C111.202 143.581 110.991 143.607 110.829 143.628C110.437 143.679 110.071 143.762 109.73 143.877C109.393 143.988 109.12 144.156 108.912 144.382C108.707 144.604 108.605 144.906 108.605 145.29C108.605 145.814 108.799 146.21 109.186 146.479C109.578 146.743 110.075 146.875 110.676 146.875ZM117.904 148V134.909H119.412V139.741H119.54C119.651 139.571 119.804 139.354 120 139.089C120.2 138.821 120.486 138.582 120.857 138.374C121.232 138.161 121.739 138.054 122.378 138.054C123.205 138.054 123.933 138.261 124.564 138.674C125.195 139.087 125.687 139.673 126.041 140.432C126.394 141.19 126.571 142.085 126.571 143.116C126.571 144.156 126.394 145.058 126.041 145.82C125.687 146.579 125.197 147.167 124.57 147.585C123.944 147.998 123.222 148.205 122.404 148.205C121.773 148.205 121.268 148.1 120.889 147.891C120.509 147.678 120.218 147.437 120.013 147.169C119.808 146.896 119.651 146.67 119.54 146.491H119.361V148H117.904ZM119.387 143.091C119.387 143.832 119.495 144.487 119.713 145.053C119.93 145.616 120.247 146.057 120.665 146.376C121.083 146.692 121.594 146.849 122.199 146.849C122.83 146.849 123.356 146.683 123.778 146.351C124.204 146.014 124.524 145.562 124.737 144.996C124.954 144.425 125.063 143.79 125.063 143.091C125.063 142.401 124.956 141.778 124.743 141.224C124.534 140.666 124.217 140.225 123.791 139.901C123.369 139.573 122.838 139.409 122.199 139.409C121.585 139.409 121.07 139.565 120.652 139.876C120.235 140.183 119.919 140.613 119.706 141.167C119.493 141.717 119.387 142.358 119.387 143.091ZM130.387 134.909V148H128.879V134.909H130.387ZM137.267 148.205C136.321 148.205 135.505 147.996 134.819 147.578C134.137 147.156 133.61 146.568 133.24 145.814C132.873 145.055 132.69 144.173 132.69 143.168C132.69 142.162 132.873 141.276 133.24 140.509C133.61 139.737 134.126 139.136 134.787 138.706C135.451 138.271 136.227 138.054 137.113 138.054C137.625 138.054 138.13 138.139 138.628 138.31C139.127 138.48 139.581 138.757 139.99 139.141C140.399 139.52 140.725 140.023 140.968 140.649C141.211 141.276 141.332 142.047 141.332 142.963V143.602H133.764V142.298H139.798C139.798 141.744 139.687 141.25 139.466 140.815C139.248 140.381 138.937 140.038 138.532 139.786C138.132 139.535 137.659 139.409 137.113 139.409C136.512 139.409 135.993 139.558 135.554 139.857C135.119 140.151 134.784 140.534 134.55 141.007C134.316 141.48 134.199 141.987 134.199 142.528V143.398C134.199 144.139 134.326 144.768 134.582 145.283C134.842 145.795 135.202 146.185 135.662 146.453C136.123 146.717 136.657 146.849 137.267 146.849C137.663 146.849 138.021 146.794 138.341 146.683C138.664 146.568 138.944 146.398 139.178 146.172C139.412 145.942 139.593 145.656 139.721 145.315L141.179 145.724C141.025 146.219 140.767 146.653 140.405 147.028C140.043 147.399 139.596 147.689 139.063 147.898C138.53 148.102 137.931 148.205 137.267 148.205ZM147.615 148.205C146.695 148.205 145.902 147.987 145.238 147.553C144.573 147.118 144.061 146.519 143.703 145.756C143.346 144.994 143.167 144.122 143.167 143.142C143.167 142.145 143.35 141.265 143.716 140.502C144.087 139.735 144.603 139.136 145.263 138.706C145.928 138.271 146.703 138.054 147.59 138.054C148.28 138.054 148.902 138.182 149.456 138.438C150.01 138.693 150.464 139.051 150.818 139.511C151.172 139.972 151.391 140.509 151.476 141.122H149.968C149.853 140.675 149.597 140.278 149.201 139.933C148.809 139.584 148.28 139.409 147.615 139.409C147.027 139.409 146.512 139.562 146.069 139.869C145.63 140.172 145.287 140.6 145.039 141.154C144.797 141.704 144.675 142.349 144.675 143.091C144.675 143.849 144.794 144.51 145.033 145.072C145.276 145.635 145.617 146.072 146.056 146.383C146.499 146.694 147.019 146.849 147.615 146.849C148.007 146.849 148.363 146.781 148.683 146.645C149.002 146.509 149.273 146.312 149.495 146.057C149.716 145.801 149.874 145.494 149.968 145.136H151.476C151.391 145.716 151.18 146.238 150.843 146.702C150.511 147.163 150.07 147.529 149.52 147.802C148.975 148.07 148.34 148.205 147.615 148.205ZM157.67 148.205C156.784 148.205 156.006 147.994 155.337 147.572C154.672 147.15 154.152 146.56 153.777 145.801C153.407 145.043 153.221 144.156 153.221 143.142C153.221 142.119 153.407 141.227 153.777 140.464C154.152 139.701 154.672 139.109 155.337 138.687C156.006 138.265 156.784 138.054 157.67 138.054C158.556 138.054 159.332 138.265 159.997 138.687C160.666 139.109 161.186 139.701 161.556 140.464C161.931 141.227 162.119 142.119 162.119 143.142C162.119 144.156 161.931 145.043 161.556 145.801C161.186 146.56 160.666 147.15 159.997 147.572C159.332 147.994 158.556 148.205 157.67 148.205ZM157.67 146.849C158.343 146.849 158.897 146.677 159.332 146.332C159.767 145.987 160.088 145.533 160.297 144.97C160.506 144.408 160.61 143.798 160.61 143.142C160.61 142.486 160.506 141.874 160.297 141.308C160.088 140.741 159.767 140.283 159.332 139.933C158.897 139.584 158.343 139.409 157.67 139.409C156.997 139.409 156.443 139.584 156.008 139.933C155.574 140.283 155.252 140.741 155.043 141.308C154.834 141.874 154.73 142.486 154.73 143.142C154.73 143.798 154.834 144.408 155.043 144.97C155.252 145.533 155.574 145.987 156.008 146.332C156.443 146.677 156.997 146.849 157.67 146.849ZM164.422 148V138.182H165.93V148H164.422ZM165.189 136.545C164.895 136.545 164.641 136.445 164.428 136.245C164.219 136.045 164.115 135.804 164.115 135.523C164.115 135.241 164.219 135.001 164.428 134.8C164.641 134.6 164.895 134.5 165.189 134.5C165.483 134.5 165.734 134.6 165.943 134.8C166.156 135.001 166.263 135.241 166.263 135.523C166.263 135.804 166.156 136.045 165.943 136.245C165.734 136.445 165.483 136.545 165.189 136.545ZM170.202 142.094V148H168.693V138.182H170.151V139.716H170.278C170.509 139.217 170.858 138.817 171.327 138.514C171.795 138.207 172.401 138.054 173.142 138.054C173.807 138.054 174.388 138.19 174.887 138.463C175.386 138.732 175.773 139.141 176.05 139.69C176.327 140.236 176.466 140.926 176.466 141.761V148H174.957V141.864C174.957 141.092 174.757 140.491 174.357 140.061C173.956 139.626 173.406 139.409 172.707 139.409C172.226 139.409 171.795 139.513 171.416 139.722C171.041 139.931 170.745 140.236 170.528 140.636C170.31 141.037 170.202 141.523 170.202 142.094Z" fill="#728397"/>
<rect x="228.656" y="38.6562" width="82.6875" height="82.6875" rx="41.3438" fill="#12B76A"/>
<rect x="228.656" y="38.6562" width="82.6875" height="82.6875" rx="41.3438" stroke="url(#paint1_linear_2225_1060)" stroke-width="1.3125"/>
<path d="M271.312 60.3125C271.312 59.5906 270.722 59 270 59C269.278 59 268.688 59.5906 268.688 60.3125V64.209C268.171 64.2172 267.654 64.2336 267.145 64.2828C265.177 64.4469 263.216 64.9227 261.616 65.9727C259.968 67.0473 258.778 68.6797 258.343 70.9766C258.032 72.6418 258.188 74.1102 258.811 75.3816C259.418 76.6367 260.411 77.5801 261.559 78.3102C263.749 79.7047 266.776 80.5004 269.532 81.2223L269.672 81.2551C272.6 82.0262 275.234 82.7234 277.038 83.8719C277.908 84.4297 278.498 85.0367 278.835 85.7258C279.163 86.4066 279.311 87.2844 279.081 88.4984C278.761 90.1965 277.571 91.4844 275.562 92.2719C273.519 93.0758 270.714 93.3055 267.523 92.8461C265.521 92.5508 262.519 91.8535 260.033 90.7789C259.369 90.4918 258.598 90.7953 258.311 91.468C258.023 92.1406 258.327 92.9035 259 93.1906C261.756 94.3801 264.996 95.1184 267.145 95.4383H267.154C267.679 95.5121 268.195 95.5695 268.704 95.6105V99.6875C268.704 100.409 269.295 101 270.016 101C270.738 101 271.329 100.409 271.329 99.6875V95.7008C273.232 95.6434 275.004 95.3152 276.53 94.7246C279.155 93.6992 281.14 91.7961 281.673 88.9906C281.985 87.3254 281.829 85.857 281.205 84.5855C280.598 83.3305 279.598 82.3871 278.457 81.6652C276.267 80.2707 273.24 79.475 270.484 78.7531L270.345 78.7203C267.416 77.9492 264.783 77.252 262.978 76.1035C262.109 75.5457 261.518 74.9387 261.182 74.2496C260.854 73.5687 260.706 72.691 260.936 71.477C261.231 69.8938 262.01 68.8684 263.068 68.1793C264.168 67.4574 265.652 67.0555 267.383 66.9078C270.853 66.6207 274.873 67.4 277.58 68.0563C278.285 68.2285 278.991 67.7937 279.163 67.0883C279.335 66.3828 278.9 65.6773 278.195 65.5051C276.398 65.0703 273.921 64.5453 271.321 64.3238V60.3125H271.312Z" fill="white"/>
<path d="M261.297 134.909H262.882V143.577C262.882 144.472 262.672 145.271 262.25 145.974C261.832 146.673 261.242 147.224 260.479 147.629C259.716 148.03 258.821 148.23 257.794 148.23C256.767 148.23 255.873 148.03 255.11 147.629C254.347 147.224 253.755 146.673 253.333 145.974C252.915 145.271 252.706 144.472 252.706 143.577V134.909H254.292V143.449C254.292 144.088 254.432 144.657 254.713 145.156C254.995 145.65 255.395 146.04 255.915 146.325C256.439 146.607 257.066 146.747 257.794 146.747C258.523 146.747 259.15 146.607 259.674 146.325C260.198 146.04 260.598 145.65 260.875 145.156C261.157 144.657 261.297 144.088 261.297 143.449V134.909ZM273.207 138.182C273.131 137.534 272.819 137.031 272.274 136.673C271.729 136.315 271.059 136.136 270.267 136.136C269.687 136.136 269.18 136.23 268.746 136.418C268.315 136.605 267.979 136.863 267.736 137.191C267.497 137.519 267.378 137.892 267.378 138.31C267.378 138.659 267.461 138.96 267.627 139.211C267.797 139.458 268.015 139.665 268.279 139.831C268.543 139.993 268.82 140.127 269.11 140.234C269.4 140.336 269.666 140.419 269.909 140.483L271.238 140.841C271.579 140.93 271.959 141.054 272.376 141.212C272.798 141.369 273.201 141.585 273.584 141.857C273.972 142.126 274.292 142.471 274.543 142.893C274.795 143.315 274.92 143.832 274.92 144.446C274.92 145.153 274.735 145.793 274.364 146.364C273.998 146.935 273.461 147.388 272.753 147.725C272.05 148.062 271.196 148.23 270.19 148.23C269.253 148.23 268.441 148.079 267.755 147.776C267.073 147.474 266.536 147.052 266.144 146.511C265.756 145.969 265.537 145.341 265.486 144.625H267.122C267.165 145.119 267.331 145.528 267.621 145.852C267.915 146.172 268.285 146.411 268.733 146.568C269.184 146.722 269.67 146.798 270.19 146.798C270.795 146.798 271.339 146.7 271.82 146.504C272.302 146.304 272.683 146.027 272.964 145.673C273.246 145.315 273.386 144.898 273.386 144.42C273.386 143.986 273.265 143.632 273.022 143.359C272.779 143.087 272.459 142.865 272.063 142.695C271.667 142.524 271.238 142.375 270.778 142.247L269.167 141.787C268.145 141.493 267.335 141.073 266.738 140.528C266.142 139.982 265.844 139.268 265.844 138.386C265.844 137.653 266.042 137.014 266.438 136.469C266.839 135.919 267.376 135.493 268.049 135.19C268.726 134.884 269.483 134.73 270.318 134.73C271.162 134.73 271.912 134.881 272.568 135.184C273.224 135.482 273.744 135.891 274.128 136.411C274.515 136.931 274.72 137.521 274.741 138.182H273.207ZM281.566 148H277.527V134.909H281.745C283.015 134.909 284.102 135.171 285.005 135.695C285.909 136.215 286.601 136.963 287.083 137.939C287.564 138.911 287.805 140.074 287.805 141.429C287.805 142.793 287.562 143.967 287.076 144.951C286.591 145.931 285.883 146.685 284.954 147.214C284.025 147.738 282.896 148 281.566 148ZM279.112 146.594H281.464C282.547 146.594 283.444 146.385 284.155 145.967C284.867 145.55 285.397 144.955 285.747 144.184C286.096 143.413 286.271 142.494 286.271 141.429C286.271 140.372 286.098 139.462 285.753 138.7C285.408 137.933 284.892 137.344 284.206 136.935C283.52 136.522 282.666 136.315 281.643 136.315H279.112V146.594Z" fill="#728397"/>
<path d="M193 77C192.448 77 192 77.4477 192 78C192 78.5523 192.448 79 193 79V77ZM208.207 78.7071C208.598 78.3166 208.598 77.6834 208.207 77.2929L201.843 70.9289C201.453 70.5384 200.819 70.5384 200.429 70.9289C200.038 71.3195 200.038 71.9526 200.429 72.3431L206.086 78L200.429 83.6569C200.038 84.0474 200.038 84.6805 200.429 85.0711C200.819 85.4616 201.453 85.4616 201.843 85.0711L208.207 78.7071ZM193 79H207.5V77H193V79Z" fill="#728397"/>
<defs>
<linearGradient id="paint0_linear_2225_1060" x1="91" y1="121.616" x2="174.939" y2="37.9975" gradientUnits="userSpaceOnUse">
<stop stop-color="#131313"/>
<stop offset="1" stop-color="#646464"/>
</linearGradient>
<linearGradient id="paint1_linear_2225_1060" x1="228" y1="121.616" x2="311.939" y2="37.9975" gradientUnits="userSpaceOnUse">
<stop stop-color="#6CFFBB" stop-opacity="0"/>
<stop offset="1" stop-color="#6CFFBB"/>
</linearGradient>
</defs>
</svg>
