<svg width="192" height="192" viewBox="0 0 192 192" fill="none"
  xmlns="http://www.w3.org/2000/svg">
  <circle cx="96" cy="96" r="95" fill="#131313" stroke="#424242" stroke-width="2"/>
  <path d="M55.2889 101.963C69.6351 109.574 84.6051 117.54 96.1673 123.704L136.711 101.963C122.031 123.748 109.799 141.884 96.1673 161.956C82.5112 141.928 67.4299 119.83 55.2889 101.963ZM56.8482 95.9544L96.2116 74.9731L135.063 95.801L96.2338 116.806L56.8482 95.9544ZM96.1673 68.251L55.2889 89.7467L95.9889 30.2222L136.711 89.8801L96.1673 68.251Z" fill="#33FF99"/>
  <path d="M96.1673 123.704L136.711 101.963C122.031 123.748 96.1673 161.956 96.1673 161.956V123.704ZM96.2116 74.9731L135.063 95.801L96.2338 116.806L96.2116 74.9731ZM96.1673 68.2526L95.9889 30.2222L136.711 89.8801L96.1673 68.2526Z" fill="#33FF99"/>
  <path d="M56.8482 95.955L96.2137 99.1819L135.065 95.8216L96.2338 116.828L56.8482 95.955Z" fill="#33FF99"/>
  <path d="M96.2116 99.1819L135.063 95.8216L96.2338 116.828L96.2116 99.1819Z" fill="#33FF99"/>
</svg>
