<?xml version="1.0" encoding="UTF-8"?>
<svg id="Ebene_1" data-name="Ebene 1" xmlns="http://www.w3.org/2000/svg" viewBox="0 0 1160 500" width="140px">
  <defs>
    <style>
      .cls-1 {
        fill: #152646;
        stroke-width: 0px;
      }
    </style>
  </defs>
  <path class="cls-1" d="m1156.446,317.899h-41.546l-44.332,47.351v-92.843h-35.511v165.256h35.511v-32.728l16.246-16.708,30.871,49.435h41.319l-47.584-73.343,45.026-46.422Zm-351.462-84.941c16.248,0,27.389-6.963,34.35-18.336v15.551h35.282v-119.768h-36.442v13.928c-7.198-10.447-17.872-16.711-33.19-16.711-33.427,0-52.224,24.604-52.224,62.667s18.798,62.669,52.224,62.669Zm9.051-96.325c16.247,0,24.833,10.909,24.833,33.656s-8.586,33.656-24.833,33.656c-16.018,0-24.604-9.979-24.604-32.728s8.586-34.583,24.604-34.583Zm256.533,60.812l16.248-16.711,30.869,49.439h41.319l-47.584-73.347,45.026-46.422h-41.545l-44.333,47.351v-92.841h-35.511v165.258h35.511v-32.728Zm-136.078-34.119c0-17.639,11.605-24.833,22.747-24.833,13.463,0,19.265,7.194,19.265,20.424v71.257h36.206v-78.451c0-29.71-17.87-44.1-41.547-44.1-17.406,0-29.708,8.588-37.601,19.729v-16.946h-35.28v119.768h36.21v-66.847Zm-95.235,274.337h36.209v-119.764h-36.209v119.764Zm-6.507-158.684l24.613,24.614,24.608-24.61-24.614-24.612-24.608,24.608Zm-122.991-136.774c13.694-6.499,22.048-18.567,22.048-35.047,0-21.586-14.625-42.243-55.471-42.243h-78.453v165.258h80.774c41.083,0,59.88-19.267,59.88-48.046,0-16.478-9.981-32.961-28.779-39.922Zm-72.652-45.956h36.673c12.302,0,19.032,6.963,19.032,17.175,0,10.909-6.73,18.103-19.032,18.103h-36.673v-35.278Zm39.229,102.587h-39.229v-37.599h39.229c13.694,0,21.817,6.036,21.817,18.8,0,12.069-7.893,18.8-21.817,18.8Zm99.196,141.345v-22.283h-35.28v119.764h36.21v-55.706c0-22.51,11.604-32.493,31.798-32.493h9.284v-32.957c-2.552-.231-5.11-.462-7.893-.462-17.874,0-29.015,9.282-34.119,24.137Zm181.475,70.556c-15.091,0-24.837-9.977-24.837-32.955s9.515-33.19,24.837-33.19c11.603,0,20.426,5.566,22.51,18.334h35.978c-3.251-29.477-25.53-47.813-58.489-47.813-37.601,0-61.508,24.602-61.508,62.669s24.138,62.665,61.508,62.665c33.19,0,56.63-19.031,59.187-49.901h-35.978c-1.622,14.157-11.143,20.191-23.209,20.191Zm-359.124,26.925h39.224v-67.078h75.901v-33.19h-75.901v-29.943h82.165v-35.045h-121.389v165.256ZM250,0C111.93,0,0,111.928,0,250s111.93,250,250,250,249.998-111.93,249.998-250S388.07,0,250,0Zm103.172,333.274s-17.776.742-23.969-12.828c19.392-38.615-42.542-42.825-60.75,12.514l46.69,48.051-65.144,64.77-65.144-64.77,46.69-48.051c-18.209-55.339-80.142-51.128-60.75-12.514-6.193,13.571-23.969,12.828-23.969,12.828-35.916,0-65.132-29.161-65.132-65.132s29.161-65.132,65.132-65.132c58.436,0,82.675,60.131,92.115,109.632h4.725c-13.56-92.535-53.263-134.88-53.263-167.837,0-39.736,59.596-76.888,59.596-76.888,0,0,59.596,37.152,59.596,76.888,0,32.957-39.702,75.302-53.263,167.837h4.725c9.44-49.501,33.679-109.632,92.115-109.632,35.971,0,65.132,29.161,65.132,65.132s-29.216,65.132-65.132,65.132Z"/>
</svg>