<svg  viewBox="0 0 44 42" fill="none" xmlns="http://www.w3.org/2000/svg">
<g clip-path="url(#clip0_240_19882)">
<path d="M1.01946 0.929688L19.8994 14.8148L16.3885 6.63193L1.01946 0.929688Z" fill="black"/>
<path d="M42.936 0.945312L27.608 6.63218L24.2743 14.9224L42.936 0.945312ZM8.6179 30.4588L0.273197 30.6167L3.18957 40.4638L13.372 37.6774L8.6179 30.4588ZM35.3824 30.4588L30.6461 37.6774L40.8113 40.464L43.71 30.6167L35.3824 30.4588Z" fill="black"/>
<path d="M24.7274 12.8116L24.3864 23.7591L34.5908 23.2977L31.6882 18.9452L31.6514 18.9033L24.7274 12.8116ZM19.3782 12.6895L12.3485 18.9037L12.312 18.9454L9.40942 23.2979L19.6116 23.7591L19.3782 12.6895ZM30.3471 30.4915L24.7752 34.8066L31.2477 37.9125L30.3471 30.4915ZM13.6518 30.4908L12.7699 37.9127L19.2243 34.8062L13.6518 30.4908Z" fill="black"/>
<path d="M19.0816 34.4004L12.532 37.5526L18.6245 40.4305L18.5612 38.5284L19.0816 34.4004ZM24.9197 34.4018L25.4197 38.4973L25.3786 40.4282L31.4854 37.5526L24.9197 34.4018Z" fill="black"/>
<path d="M26.8112 25.1875L25.0997 28.7627L30.9268 27.066L26.8112 25.1875ZM17.1888 25.1878L13.0538 27.066L18.9 28.7622L17.1888 25.1878Z" fill="black"/>
<path d="M29.9022 30.4556L30.8441 38.15L35.8926 30.6239L29.9022 30.4556ZM14.0983 30.4558L8.10778 30.6239L13.1752 38.1503L14.0983 30.4558ZM9.26244 22.8633L13.622 27.2795L16.9834 25.7528L18.5927 29.1154L19.6476 23.3329L9.26244 22.8633ZM34.7407 22.8633L24.3534 23.3329L25.4085 29.1154L27.0182 25.7533L30.3616 27.2797L34.7407 22.8633Z" fill="black"/>
<path d="M35.0342 21.9561L30.1017 26.931L29.9309 31.8423L35.0342 21.9561ZM8.96126 21.9473L14.0739 31.851L13.8814 26.931L8.96126 21.9473ZM24.5943 22.2592L24.3958 23.5012L23.9053 26.5951L24.2207 36.0977L25.7117 28.464L25.7122 28.3851L24.5943 22.2592ZM19.4087 22.242L18.2879 28.3851L18.2884 28.464L19.7832 36.1169L19.8423 34.2027L20.0756 26.5388L19.4087 22.242Z" fill="black"/>
<path d="M13.4425 26.7324L13.6094 30.9995L18.8127 35.0289L19.8646 34.2903L18.6855 28.2539L13.4425 26.7324ZM30.5391 26.7324L25.3142 28.2539L24.1352 34.2903L25.187 35.0289L30.3906 30.9992L30.5391 26.7324Z" fill="black"/>
<path d="M32.4814 36.6094L25.8244 39.7445L25.8526 38.4057L25.2955 37.9197H18.7069L18.1297 38.404L18.1723 39.7418L11.5574 36.6172L14.7763 39.2611L18.6684 41.918H25.349L29.2385 39.2501L32.4814 36.6094Z" fill="black"/>
<path d="M19.5592 33.9824L18.618 34.6434L18.0664 39.0174L18.8646 38.3476H25.1339L25.917 39.0309L25.3835 34.6437L24.442 33.9824H19.5592Z" fill="black"/>
<path d="M2.26635 1.31445L0 8.07211L1.41539 14.9049L0.407516 15.6776L1.77134 16.7118L0.746281 17.4987L2.10358 18.7272L1.27033 19.327L3.48167 21.8939L12.5515 19.269L12.6301 19.2272L19.166 13.7472L2.26635 1.31445ZM41.7337 1.31445L24.8339 13.7472L31.3699 19.2272L31.4485 19.269L40.5183 21.8939L42.7297 19.327L41.8971 18.7277L43.2535 17.4987L42.2305 16.7127L43.6148 15.6756L42.569 14.9024L44 8.07245L41.7337 1.31445Z" fill="#6B7280"/>
<path d="M12.9952 18.6943L3.38513 21.4753L0.263023 31.0395H8.49996L14.1753 31.1106L10.0479 23.1142L12.9952 18.6943ZM31.0049 18.6943L33.9528 23.1142L29.8248 31.1106L35.4976 31.0395H43.7197L40.6151 21.4754L31.0049 18.6943ZM15.9184 6.58594L18.6064 13.8018L19.1768 23.5495L19.3951 26.6049L19.4125 34.4099H24.5878L24.6046 26.6196L24.8236 23.547L25.3942 13.8018L28.0819 6.58594H15.9184Z" fill="#374151"/>
</g>
<defs>
<clipPath id="clip0_240_19882">
<rect width="44" height="41" fill="white" transform="matrix(-1 0 0 1 44 0.929688)"/>
</clipPath>
</defs>
</svg>
