<svg viewBox="0 0 53 48" fill="none" xmlns="http://www.w3.org/2000/svg">
<path d="M0.00215619 36.7007C0.683511 36.1649 1.9093 36.4021 2.31359 37.1503C3.1987 38.7857 4.08166 40.4234 5.00559 42.1343C5.46593 41.2891 5.89178 40.5096 6.31331 39.7291C6.79845 38.831 7.29869 37.9416 7.7558 37.0295C7.96926 36.6048 8.24418 36.4377 8.72393 36.4517C10.0392 36.4883 9.98206 36.3007 9.97991 37.6958C9.97667 40.5624 9.97991 43.428 9.97775 46.2947C9.97775 46.9836 9.92708 47.0364 9.25004 47.0342C7.77736 47.0288 7.92937 47.1938 7.92614 45.7146C7.92183 43.9951 7.92398 42.2755 7.92183 40.556C7.92183 40.5247 7.90026 40.4934 7.86361 40.3964C7.77197 40.5323 7.69327 40.6314 7.63505 40.7414C7.06474 41.8163 6.48042 42.8857 5.93706 43.9746C5.72683 44.3951 5.43251 44.5147 4.99265 44.5158C4.54524 44.5158 4.26062 44.3649 4.05471 43.9563C3.53291 42.917 2.97877 41.8928 2.43433 40.8643C2.35563 40.7155 2.26184 40.5754 2.07425 40.4546C2.07425 40.8395 2.07425 41.2244 2.07425 41.6093C2.07425 43.2038 2.06131 44.7983 2.0818 46.3917C2.08827 46.8855 1.90822 47.0838 1.41985 47.0407C1.15356 47.017 0.873255 47.0784 0.616669 47.0234C0.398894 46.9771 0.204838 46.8175 0 46.7076C0 43.373 0 40.0385 0 36.7039L0.00215619 36.7007Z" fill="black"/>
<path d="M8.50811 31.3516C8.37658 30.4837 7.85262 29.8757 7.11198 29.3948C7.78686 28.9129 8.24936 28.3501 8.30435 27.5297C8.4197 25.8468 7.52704 24.6124 5.84306 24.4701C4.06313 24.3192 2.26487 24.3752 0.475236 24.3666C0.317834 24.3655 0.159355 24.5531 0.00195312 24.6534V34.657C0.233743 34.7562 0.462299 34.9319 0.697323 34.9405C1.55548 34.975 2.41688 34.9653 3.2772 34.9513C4.13536 34.9373 5.00215 34.9653 5.85061 34.8564C7.6866 34.6203 8.77871 33.1412 8.50811 31.3516ZM2.21097 26.0139C3.14028 26.0139 4.03294 25.9611 4.91698 26.029C5.72663 26.0915 6.13522 26.5972 6.12444 27.3292C6.11474 28.0515 5.67919 28.5884 4.91051 28.6445C4.02755 28.707 3.13597 28.6585 2.21097 28.6585V26.0139ZM4.86092 33.3018C4.09439 33.3525 3.32248 33.3223 2.55272 33.3245C2.44922 33.3245 2.34465 33.304 2.20881 33.29V30.2832C3.13489 30.2832 4.01246 30.24 4.88356 30.295C5.80317 30.3543 6.35408 30.9893 6.33575 31.8389C6.31742 32.6658 5.77191 33.2425 4.86092 33.3018Z" fill="black"/>
<path d="M30.7403 1.59949C25.49 -1.20571 18.9751 0.947241 16.4912 6.34417C14.0018 11.7519 16.765 17.1176 19.8947 18.9676C20.1545 18.5417 20.3949 18.1008 20.6817 17.6922C20.8801 17.4097 20.8413 17.2146 20.6537 16.9375C18.6473 13.9781 17.9315 10.7374 18.6226 7.21851C18.9966 5.30705 19.7858 3.58426 21.1636 2.00916C22.4056 8.51438 26.3029 12.3287 32.5828 13.8477C30.2918 14.0957 28.0904 14.5485 26.0075 15.481C23.9149 16.419 22.1188 17.7418 20.6569 19.5249C24.8453 22.1576 31.3807 21.321 34.643 16.0556C37.7479 11.0425 35.9389 4.37881 30.7403 1.59949ZM34.436 13.1653C34.3282 13.5448 34.1137 13.6881 33.7202 13.6041C32.2734 13.2946 30.901 12.7912 29.6159 12.057C29.5587 12.0236 29.5167 11.9654 29.4347 11.8899C31.5262 10.7644 33.0151 9.13859 33.8183 6.80991C34.3713 7.72521 34.5719 8.63189 34.7023 9.54827C34.8759 10.7676 34.7756 11.9761 34.436 13.1653Z" fill="black"/>
<path d="M26.0218 40.4601C26.0218 41.5824 26.0218 42.7058 26.0218 43.8281C26.0218 44.7056 26.0121 45.5832 26.0261 46.4608C26.0325 46.8672 25.8794 47.0473 25.4579 47.0408C23.7955 47.016 23.9917 47.2241 23.9895 45.6436C23.9842 42.8675 23.9874 40.0903 23.9885 37.3142C23.9885 36.4647 23.9949 36.5208 24.8089 36.4475C25.5787 36.3774 25.998 36.6782 26.3905 37.3207C27.5192 39.1696 28.7224 40.9722 29.8975 42.7931C29.9913 42.9387 30.0948 43.0777 30.2662 43.3246C30.2802 43.0324 30.2953 42.861 30.2953 42.6896C30.2975 40.8622 30.2953 39.0349 30.2975 37.2086C30.2975 36.4917 30.3277 36.4615 31.064 36.4647C32.459 36.4723 32.3491 36.2944 32.3491 37.7714C32.3491 40.5841 32.3491 43.3958 32.3491 46.2085C32.3491 47.0138 32.3221 46.9804 31.547 47.0516C30.7686 47.1227 30.3169 46.8403 29.904 46.1772C28.6943 44.2334 27.4071 42.3382 26.15 40.4245C26.108 40.4364 26.066 40.4472 26.0239 40.459L26.0218 40.4601Z" fill="black"/>
<path d="M48.2943 29.4351C49.6462 30.966 50.9733 32.4699 52.3005 33.9739C52.4072 34.0946 52.5236 34.2089 52.6163 34.3393C52.86 34.68 52.7533 34.9301 52.335 34.9485C51.8347 34.9711 51.3259 34.9991 50.8332 34.9334C50.582 34.8999 50.3103 34.708 50.1292 34.5129C49.091 33.3992 48.0754 32.264 47.0555 31.1342C46.9628 31.0318 46.8906 30.911 46.6965 30.8593C46.6847 31.0091 46.662 31.159 46.662 31.3088C46.6588 32.3298 46.6556 33.3507 46.662 34.3717C46.6642 34.7361 46.5445 34.9592 46.1424 34.9571C44.2633 34.9452 44.5544 35.1555 44.5479 33.4736C44.5371 30.6792 44.5447 27.8848 44.5457 25.0904C44.5457 24.395 44.5845 24.354 45.2745 24.3551C46.7957 24.3573 46.6577 24.2031 46.6599 25.7372C46.661 26.4897 46.6631 27.2423 46.6674 27.9937C46.6674 28.0271 46.689 28.0605 46.7192 28.1479C46.8453 28.0303 46.9607 27.9355 47.062 27.8266C47.9644 26.8552 48.8797 25.8957 49.7583 24.9028C50.1087 24.5071 50.4839 24.2926 51.0164 24.3487C51.2827 24.3767 51.5576 24.326 51.8207 24.3627C52.0309 24.3918 52.2315 24.4974 52.4363 24.5697C52.35 24.7508 52.2994 24.9642 52.1722 25.1087C51.0057 26.4208 49.8262 27.7209 48.6511 29.0254C48.5433 29.144 48.4409 29.268 48.2953 29.4373L48.2943 29.4351Z" fill="black"/>
<path d="M30.5272 34.1814C29.448 31.2792 28.3678 28.3759 27.2843 25.4747C26.8369 24.2759 26.9868 24.346 25.6434 24.3524C24.3735 24.3643 24.4457 24.1853 23.9681 25.5038C23.4129 27.0358 22.8329 28.5581 22.2636 30.0847C21.744 31.4765 21.2233 32.8683 20.7058 34.2601C20.5947 34.5587 20.4729 34.866 20.957 34.9512C22.2485 35.1797 22.5601 35.004 23.0323 33.7814C23.1035 33.5971 23.1919 33.4181 23.2393 33.2284C23.318 32.9179 23.4894 32.8155 23.8128 32.8219C24.8888 32.8413 25.9669 32.8748 27.0385 32.8122C27.6864 32.7734 28.0454 32.9729 28.1662 33.6025C28.1727 33.638 28.1867 33.6715 28.2007 33.7049C28.7678 35.1549 28.4691 34.9393 30.0097 34.9533C30.6878 34.9598 30.7698 34.8337 30.5272 34.1814ZM23.9422 31.0388C24.4953 29.5316 25.0365 28.0568 25.6316 26.4353C26.2267 28.0557 26.7647 29.5197 27.322 31.0388H23.9422Z" fill="black"/>
<path d="M52.8664 46.2642C51.7969 43.3803 50.7274 40.4953 49.6483 37.6135C49.1653 36.3252 49.3723 36.4708 47.9837 36.4621H47.6613C47.0439 36.4629 46.6242 36.759 46.4021 37.3505C46.0453 38.3057 45.6917 39.2619 45.3359 40.2171C44.5747 42.2623 43.8115 44.3074 43.0525 46.3536C42.8466 46.9067 42.9317 47.0253 43.5204 47.0339C43.8244 47.0393 44.1295 47.0221 44.4335 47.0382C44.7893 47.0587 45.0027 46.9153 45.117 46.5736C45.2604 46.151 45.4534 45.7434 45.586 45.3176C45.6819 45.0082 45.8469 44.9068 46.1682 44.9122C47.2064 44.9316 48.2457 44.9079 49.2839 44.923C50.4072 44.9392 50.1183 44.7171 50.5495 45.8017C51.1263 47.2571 50.8223 47.0134 52.3101 47.0328C53.0518 47.0425 53.1197 46.9455 52.8664 46.2642ZM46.2878 43.1409C46.8409 41.6284 47.3778 40.16 47.9761 38.5245C48.568 40.133 49.1081 41.6025 49.6741 43.1409H46.2878Z" fill="black"/>
<path d="M21.9011 46.3409C20.8844 43.6079 19.8764 40.8728 18.8425 38.1452C18.0685 36.1023 18.5849 36.5163 16.3705 36.4537C15.895 36.4408 15.66 36.6381 15.5037 37.0693C14.9269 38.6681 14.3243 40.2572 13.7324 41.8496C13.1653 43.3751 12.6036 44.9038 12.029 46.4261C11.8684 46.8519 11.9923 47.0406 12.443 47.0341C12.7826 47.0287 13.1233 47.0212 13.4629 47.0363C13.7971 47.0503 13.9976 46.9155 14.1086 46.5964C14.2596 46.1576 14.4569 45.7329 14.5992 45.2908C14.6919 45.003 14.845 44.9017 15.1447 44.9114C15.7527 44.9318 16.3629 44.9178 16.971 44.9178H18.3682C19.2112 44.9178 19.1983 44.9232 19.5228 45.7253C20.1406 47.2508 19.7136 47.0147 21.4461 47.0309C22.0164 47.0352 22.1059 46.8897 21.9011 46.3409ZM15.2924 43.1196C15.8508 41.5995 16.3888 40.1354 16.9796 38.5258C17.5704 40.1322 18.1094 41.5973 18.669 43.1196H15.2924Z" fill="black"/>
<path d="M34.7789 29.5043C34.849 30.3678 34.8403 31.0578 34.9719 31.7187C35.1842 32.787 35.8818 33.3002 37.0084 33.3433C38.1813 33.3875 38.9705 32.9347 39.2627 31.9224C39.4276 31.351 39.7198 31.1667 40.2664 31.2411C40.4421 31.2648 40.6243 31.2443 40.8033 31.2454C41.5849 31.2475 41.683 31.351 41.517 32.1305C41.2129 33.5525 40.2707 34.3956 38.9382 34.8268C37.804 35.1944 36.6407 35.2031 35.4904 34.8958C34.0221 34.5034 33.082 33.5536 32.8049 32.0593C32.5084 30.4638 32.503 28.8434 32.8092 27.2489C33.096 25.76 34.0415 24.7984 35.5066 24.4167C36.8984 24.0545 38.2848 24.103 39.5969 24.7531C40.7138 25.3072 41.3973 26.1934 41.559 27.4591C41.6172 27.9141 41.4426 28.0973 40.9995 28.0682C40.8572 28.0585 40.7095 28.0477 40.5693 28.0704C39.8319 28.1857 39.3996 27.9658 39.1667 27.1723C38.9101 26.298 38.0843 25.9196 36.9933 25.9638C35.9907 26.0037 35.2921 26.4166 35.0678 27.2985C34.8716 28.0682 34.8533 28.8833 34.7778 29.5043H34.7789Z" fill="black"/>
<path d="M37.583 38.3415C36.7043 38.3415 35.9012 38.3242 35.1001 38.3479C34.6279 38.362 34.4145 38.2175 34.4231 37.7086C34.4479 36.3017 34.325 36.4667 35.6629 36.4634C37.831 36.4591 39.999 36.4613 42.167 36.4634C42.8732 36.4634 42.9034 36.4958 42.9077 37.1836C42.9142 38.4461 42.9778 38.3426 41.7423 38.3415C41.1019 38.3415 40.4615 38.3415 39.7478 38.3415C39.7478 38.6035 39.7478 38.8126 39.7478 39.0218C39.7478 41.4582 39.7489 43.8947 39.7478 46.3301C39.7478 46.9867 39.6982 47.0385 39.0449 47.0341C37.417 47.0223 37.5884 47.2454 37.5852 45.5733C37.5808 43.388 37.5852 41.2027 37.5852 39.0164C37.5852 38.8212 37.5852 38.6261 37.5852 38.3415H37.583Z" fill="black"/>
<path d="M13.7608 33.1316C14.1813 33.1316 14.536 33.1316 14.8907 33.1316C16.0378 33.1316 17.1838 33.1424 18.3309 33.1262C18.7643 33.1208 18.9368 33.2804 18.9411 33.7245C18.9529 34.9568 18.9669 34.9568 17.7261 34.9568C15.917 34.9568 14.1069 34.9449 12.2979 34.9643C11.7944 34.9697 11.6003 34.8091 11.6036 34.283C11.6219 31.2018 11.6219 28.1217 11.6036 25.0405C11.6003 24.5316 11.7588 24.3343 12.2806 24.3462C13.9678 24.3829 13.7544 24.1554 13.7597 25.7887C13.7673 28.0096 13.7619 30.2304 13.7619 32.4524C13.7619 32.6486 13.7619 32.8437 13.7619 33.1327L13.7608 33.1316Z" fill="black"/>
</svg>
