<svg viewBox="0 0 55 56" fill="none" xmlns="http://www.w3.org/2000/svg">
<path d="M54 27.7149C54 42.3504 42.1356 54.2148 27.5001 54.2148C12.8645 54.2148 1 42.3504 1 27.7149C1 13.0793 12.8645 1.21484 27.5001 1.21484C42.1356 1.21484 54 13.0793 54 27.7149Z" stroke="black" stroke-width="2"/>
<path fill-rule="evenodd" clip-rule="evenodd" d="M37.3099 11.793H42.2054C43.4048 11.793 44.3861 12.7741 44.3861 13.9733V18.8682C44.3861 20.0674 43.4048 21.0486 42.2054 21.0486C41.1152 21.0486 40.2211 20.2418 40.0576 19.2062L15.8521 43.4081C15.0017 44.2584 13.617 44.2584 12.7665 43.4081C11.9161 42.5578 11.9161 41.1732 12.7665 40.3229L36.9719 16.121C35.9361 15.9574 35.1292 15.0526 35.1292 13.9733C35.1292 12.7741 36.1105 11.793 37.3099 11.793ZM12.7636 16.3465L16.2254 12.8852C17.0769 12.0337 18.4576 12.0337 19.3092 12.8852C20.1609 13.7367 20.1609 15.1172 19.3092 15.9686L15.8475 19.4298C14.996 20.2814 13.6152 20.2814 12.7636 19.4298C11.912 18.5784 11.912 17.1979 12.7636 16.3465ZM28.2156 12.8904L12.2178 28.886C11.3662 29.7374 11.3662 31.118 12.2178 31.9694C13.0694 32.821 14.4501 32.821 15.3018 31.9694L31.2996 15.9738C32.1512 15.1224 32.1512 13.7419 31.2996 12.8904C30.4479 12.0389 29.0672 12.0389 28.2156 12.8904ZM40.2053 24.8824L24.2075 40.8779C23.3558 41.7294 23.3558 43.1099 24.2075 43.9613C25.0591 44.8129 26.4398 44.8129 27.2913 43.9613L43.2892 27.9658C44.1409 27.1143 44.1409 25.7338 43.2892 24.8824C42.4376 24.0308 41.0569 24.0308 40.2053 24.8824ZM40.2046 36.8691L36.743 40.3303C35.8914 41.1817 35.8914 42.5623 36.743 43.4137C37.5945 44.2653 38.9752 44.2653 39.8269 43.4137L43.2886 39.9525C44.1401 39.1011 44.1401 37.7205 43.2886 36.8691C42.4369 36.0175 41.0562 36.0175 40.2046 36.8691Z" fill="black"/>
</svg>
