<svg  viewBox="0 0 47 39" fill="none" xmlns="http://www.w3.org/2000/svg">
<path d="M36.6013 0.714885C35.4209 0.710992 34.2559 0.983477 33.1992 1.51062C32.1425 2.03777 31.2233 2.80501 30.5147 3.75119L29.0284 5.72763C28.7269 6.12543 28.3383 6.44844 27.8924 6.67169C27.4466 6.89494 26.9555 7.01246 26.4571 7.01517H0V38.7148H10.3713C11.5517 38.7187 12.7167 38.4462 13.7734 37.9191C14.8301 37.3919 15.7493 36.6247 16.4578 35.6785L17.9442 33.704C18.2454 33.3059 18.634 32.9825 19.0799 32.7589C19.5257 32.5353 20.0169 32.4175 20.5155 32.4145H47V0.714885H36.6013ZM38.7711 24.1672H27.6869C26.5066 24.1633 25.3416 24.4358 24.2849 24.963C23.2282 25.4901 22.3089 26.2574 21.6004 27.2035L20.114 29.18C19.8126 29.5778 19.4239 29.9008 18.9781 30.124C18.5322 30.3473 18.0411 30.4648 17.5428 30.4675H8.22892V15.2624H19.315C20.4951 15.266 21.6596 14.9934 22.716 14.4663C23.7723 13.9391 24.6913 13.1721 25.3996 12.2261L26.886 10.2517C27.1872 9.8535 27.5758 9.53012 28.0216 9.30652C28.4675 9.08292 28.9587 8.9651 29.4573 8.96217H38.8005L38.7711 24.1672Z" fill="black"/>
</svg>
