<svg  viewBox="0 0 48 30" fill="none" xmlns="http://www.w3.org/2000/svg">
<g clip-path="url(#clip0_240_19866)">
<path d="M13.5733 10.7222C13.5733 11.3168 13.6371 11.7988 13.7483 12.1523C13.8895 12.55 14.0594 12.9366 14.2568 13.3091C14.3363 13.4376 14.368 13.5661 14.368 13.6787C14.368 13.8392 14.2727 14 14.0661 14.1607L13.0648 14.8355C12.9218 14.932 12.7787 14.9801 12.6514 14.9801C12.4926 14.9801 12.3336 14.8997 12.1746 14.7551C11.9603 14.5226 11.7687 14.2697 11.6025 14C11.4435 13.727 11.2845 13.4215 11.1098 13.0521C9.86991 14.5301 8.31228 15.2692 6.43691 15.2693C5.10191 15.2693 4.03691 14.8836 3.25803 14.1126C2.47934 13.3411 2.08203 12.3129 2.08203 11.0276C2.08203 9.66191 2.55884 8.55328 3.52841 7.71778C4.49778 6.88227 5.78534 6.46452 7.42241 6.46452C7.96278 6.46452 8.51909 6.51266 9.10709 6.59303C9.69528 6.6734 10.2992 6.80191 10.935 6.94653V5.77364C10.935 4.55242 10.6806 3.70099 10.1878 3.20287C9.67934 2.70476 8.82097 2.46366 7.59716 2.46366C7.04084 2.46366 6.46878 2.5281 5.88059 2.67272C5.29241 2.81734 4.72034 2.994 4.16403 3.21898C3.90978 3.33138 3.71909 3.39564 3.60772 3.42786C3.49634 3.46008 3.41703 3.476 3.35347 3.476C3.13091 3.476 3.01972 3.31527 3.01972 2.97789V2.19053C3.01972 1.93351 3.05159 1.74074 3.13091 1.62834C3.21041 1.51576 3.35347 1.40336 3.57603 1.29096C4.13228 1.00159 4.79978 0.760556 5.57853 0.567854C6.35759 0.358979 7.18409 0.262691 8.05822 0.262691C9.94972 0.262691 11.3325 0.696364 12.2226 1.56409C13.0967 2.43163 13.5418 3.74914 13.5418 5.51662V10.7222H13.5733ZM7.12034 13.1645C7.64497 13.1645 8.18534 13.0682 8.75741 12.8752C9.32966 12.6825 9.83834 12.329 10.2673 11.847C10.5218 11.5418 10.7125 11.2044 10.8077 10.8187C10.9032 10.4332 10.9667 9.96708 10.9667 9.42081V8.74604C10.4847 8.62753 9.9965 8.53634 9.50441 8.47291C9.00888 8.40935 8.50991 8.37713 8.01041 8.37644C6.94541 8.37644 6.16672 8.58531 5.64228 9.01917C5.11784 9.45304 4.86341 10.0636 4.86341 10.8668C4.86341 11.622 5.05409 12.1843 5.45141 12.5701C5.83297 12.9717 6.38928 13.1645 7.12034 13.1645ZM19.8833 14.8997C19.5972 14.8997 19.4065 14.8516 19.2793 14.739C19.1522 14.6427 19.0408 14.4177 18.9456 14.1126L15.2106 1.6926C15.115 1.37114 15.0673 1.16226 15.0673 1.04986C15.0673 0.792841 15.1945 0.648031 15.4489 0.648031H17.0065C17.3083 0.648031 17.5152 0.696364 17.6263 0.808763C17.7535 0.90524 17.8489 1.13023 17.9442 1.43539L20.6143 12.0719L23.0938 1.43539C23.1733 1.11412 23.2688 0.90524 23.3957 0.808763C23.523 0.712475 23.7456 0.64822 24.0317 0.64822H25.3032C25.605 0.64822 25.8118 0.696364 25.9388 0.808763C26.0661 0.90524 26.1773 1.13023 26.2408 1.43539L28.7522 12.2005L31.5017 1.43539C31.597 1.11412 31.7083 0.90524 31.8195 0.808763C31.9467 0.712475 32.1533 0.64822 32.4394 0.64822H33.9175C34.1719 0.64822 34.315 0.77673 34.315 1.04986C34.315 1.13023 34.299 1.21059 34.2831 1.30688C34.2672 1.40317 34.2355 1.53187 34.1719 1.70871L30.3413 14.1285C30.246 14.4499 30.1348 14.6588 30.0075 14.7551C29.8804 14.8516 29.6738 14.9158 29.4038 14.9158H28.0369C27.7348 14.9158 27.5282 14.8677 27.4009 14.7551C27.2738 14.6427 27.1626 14.4338 27.099 14.1126L24.6353 3.74914L22.1877 14.0963C22.1083 14.4177 22.0129 14.6266 21.8858 14.739C21.7587 14.8516 21.5361 14.8997 21.2502 14.8997H19.8833ZM40.3071 15.3336C39.4806 15.3336 38.6541 15.2371 37.8595 15.0443C37.0647 14.8516 36.445 14.6425 36.0317 14.4018C35.7773 14.257 35.6023 14.0964 35.539 13.9518C35.4772 13.81 35.4447 13.6569 35.4435 13.5019V12.6825C35.4435 12.3451 35.5707 12.1843 35.8092 12.1843C35.9065 12.1847 36.0031 12.201 36.0953 12.2327C36.1905 12.2649 36.3336 12.329 36.4926 12.3932C37.0539 12.643 37.64 12.8315 38.2408 12.9556C38.8634 13.0832 39.4971 13.1478 40.1323 13.1484C41.1336 13.1484 41.9125 12.9717 42.4528 12.6182C42.9932 12.2647 43.2793 11.7507 43.2793 11.0918C43.2793 10.642 43.1363 10.2724 42.8502 9.96708C42.564 9.66172 42.0237 9.38878 41.245 9.13157L38.9402 8.40866C37.78 8.03905 36.9218 7.49279 36.3972 6.76968C35.8727 6.06269 35.6025 5.27552 35.6025 4.44002C35.6025 3.76525 35.7456 3.17071 36.0317 2.65642C36.3177 2.14238 36.6992 1.6926 37.176 1.3391C37.6528 0.969495 38.1932 0.696364 38.829 0.503599C39.4647 0.310835 40.1322 0.230469 40.8315 0.230469C41.1812 0.230469 41.5468 0.24658 41.8965 0.294724C42.2622 0.342867 42.5959 0.407122 42.9297 0.471377C43.2475 0.551743 43.5495 0.632109 43.8357 0.728586C44.1217 0.824874 44.3442 0.921225 44.5032 1.01764C44.7257 1.14634 44.8845 1.27485 44.98 1.41947C45.0753 1.54798 45.123 1.7247 45.123 1.94962V2.70476C45.123 3.04214 44.9959 3.21898 44.7574 3.21898C44.6303 3.21898 44.4237 3.15454 44.1537 3.02603C43.2474 2.60828 42.2302 2.3994 41.1019 2.3994C40.1959 2.3994 39.4806 2.54402 38.9878 2.84938C38.4953 3.15454 38.2408 3.62063 38.2408 4.27929C38.2408 4.72926 38.3998 5.11479 38.7177 5.42014C39.0355 5.72549 39.6237 6.03066 40.4661 6.30379L42.723 7.02689C43.8673 7.3965 44.6938 7.91054 45.1866 8.5692C45.6793 9.22786 45.9178 9.98319 45.9178 10.8187C45.9178 11.5096 45.7746 12.1362 45.5044 12.6825C45.2185 13.2287 44.8369 13.7107 44.3442 14.0964C43.8514 14.4981 43.2634 14.7873 42.58 14.9962C41.8647 15.2212 41.1177 15.3336 40.3071 15.3336Z" fill="black"/>
<path d="M43.3114 23.1419C38.0824 27.0463 30.4849 29.119 23.9526 29.119C14.7975 29.119 6.54864 25.6966 0.318202 20.0088C-0.174547 19.559 0.27039 18.9485 0.85839 19.3018C7.59752 23.2545 15.9101 25.6484 24.5089 25.6484C30.3101 25.6484 36.6836 24.4274 42.5486 21.9209C43.4228 21.5191 44.1698 22.4994 43.3114 23.1419ZM45.489 20.6354C44.8215 19.7679 41.0704 20.2177 39.3698 20.4265C38.8611 20.491 38.7816 20.041 39.2426 19.7036C42.2306 17.5827 47.142 18.1934 47.7141 18.9002C48.2863 19.6233 47.5551 24.588 44.7578 26.966C44.3288 27.3356 43.9155 27.1428 44.1062 26.6608C44.7418 25.07 46.1565 21.487 45.489 20.6354Z" fill="black"/>
</g>
<defs>
<clipPath id="clip0_240_19866">
<rect width="48" height="29" fill="white" transform="translate(0 0.214844)"/>
</clipPath>
</defs>
</svg>
