<svg  viewBox="0 0 136 30" fill="none" xmlns="http://www.w3.org/2000/svg">
<path d="M13.7937 16.1471V29.9297H0V16.1471H13.7937ZM29.0294 16.1471V29.9297H15.2329V16.1471H29.0294ZM127.226 5.46229C127.775 5.46229 128.241 5.51121 128.613 5.6036L128.929 5.70143V8.21773L128.82 8.16882C128.415 7.98113 127.975 7.88111 127.528 7.87534C126.943 7.87534 126.486 8.06556 126.168 8.4324C125.898 8.74219 125.74 9.1824 125.694 9.74219L125.681 10.0927V11.6607H130.085V8.84545L133.029 7.94599V11.6607H136V14.0492H133.029V19.927C133.029 20.6824 133.165 21.2204 133.432 21.5302C133.696 21.8346 134.12 21.9868 134.694 21.9868C134.893 21.9801 135.091 21.9472 135.282 21.8889C135.427 21.8493 135.568 21.7956 135.703 21.7286L135.878 21.6281L136 21.5465V23.9596L135.959 23.9813C135.669 24.1202 135.36 24.2181 135.042 24.2721C134.607 24.3645 134.185 24.4134 133.783 24.4134C131.47 24.4134 130.235 23.2313 130.096 20.8944L130.085 20.4433V14.0492H125.681V24.1118H122.712V14.0492H120.645V11.6579H122.712V9.93512C122.712 9.07099 122.903 8.28838 123.281 7.60904C123.662 6.92969 124.201 6.3998 124.886 6.0248C125.572 5.65251 126.361 5.46229 127.226 5.46229ZM114.145 11.359C116.082 11.359 117.619 11.9351 118.71 13.071C119.804 14.2069 120.356 15.7857 120.356 17.7666C120.356 19.7721 119.766 21.3971 118.601 22.6009C117.44 23.802 115.837 24.4134 113.846 24.4134C111.933 24.4134 110.388 23.8346 109.251 22.6906C108.116 21.5492 107.539 19.9786 107.539 18.0302C107.539 15.9786 108.13 14.3346 109.294 13.1471C110.459 11.9623 112.091 11.359 114.145 11.359ZM102.754 11.359C103.181 11.359 103.673 11.4107 104.215 11.5112C104.623 11.5873 104.976 11.6743 105.276 11.7775L105.597 11.9025V14.6118L105.474 14.5275C105.069 14.2598 104.626 14.0546 104.16 13.9188C103.673 13.7681 103.166 13.6903 102.656 13.6878C102.122 13.6878 101.698 13.8074 101.393 14.0438C101.251 14.1441 101.136 14.2774 101.057 14.4323C100.979 14.5871 100.939 14.7588 100.942 14.9324C100.942 15.34 101.061 15.6634 101.295 15.8916C101.45 16.0258 101.619 16.1407 101.801 16.234L102.346 16.5058C102.457 16.5552 102.57 16.6032 102.683 16.6498L103.058 16.8047C104.22 17.2721 105.05 17.802 105.529 18.3781C106.013 18.9569 106.258 19.677 106.258 20.5166C106.258 21.6797 105.803 22.6308 104.906 23.3454C104.013 24.052 102.792 24.4134 101.274 24.4134C100.784 24.4134 100.215 24.3482 99.5922 24.2177C99.1713 24.1348 98.7574 24.0194 98.3543 23.8726L97.9734 23.7123V20.859L98.0959 20.946C98.6019 21.3074 99.1596 21.59 99.7582 21.7884C100.357 21.984 100.904 22.0846 101.382 22.0846C102.672 22.0846 103.3 21.677 103.3 20.84C103.313 20.5911 103.248 20.3445 103.115 20.1335C102.935 19.9096 102.71 19.7255 102.454 19.5927L102.242 19.4759L101.682 19.2069L100.955 18.8944C100.15 18.5493 99.5433 18.2096 99.1488 17.8862C98.7653 17.5761 98.4613 17.1793 98.2618 16.7286C98.061 16.2392 97.9628 15.7139 97.9734 15.1851C97.9734 14.0601 98.4251 13.1308 99.3147 12.4215C100.196 11.715 101.355 11.3618 102.754 11.3618M90.3665 11.3618C92.3036 11.3618 93.8381 11.9378 94.9318 13.0737C96.0227 14.2096 96.575 15.7884 96.575 17.7694C96.575 19.7748 95.9874 21.3998 94.8229 22.6036C93.6585 23.8047 92.0587 24.4161 90.0645 24.4161C88.1519 24.4161 86.6093 23.8373 85.472 22.6933C84.3348 21.552 83.758 19.984 83.758 18.0329C83.758 15.9813 84.3511 14.3373 85.5128 13.1498C86.6773 11.965 88.3097 11.3618 90.3665 11.3618ZM71.0689 11.3618C71.5913 11.3618 72.1436 11.4215 72.7067 11.5384C73.1312 11.6253 73.4957 11.734 73.7896 11.8645L74.1024 12.0194V14.8454L73.98 14.7585C73.0931 14.1145 72.1517 13.7884 71.1886 13.7884C70.0623 13.7884 69.1372 14.1688 68.4408 14.9215C67.7388 15.677 67.3824 16.6987 67.3824 17.9596C67.3824 19.215 67.7225 20.2123 68.3945 20.9215C69.0665 21.6308 69.9888 21.9922 71.1424 21.9922C71.5559 21.9922 72.0266 21.8998 72.5462 21.7204C72.8917 21.5982 73.2209 21.4487 73.5311 21.2666L73.98 20.9732L74.1024 20.8835V23.5656L74.0643 23.5873C73.1121 24.1362 71.9205 24.4161 70.5275 24.4161C69.41 24.4344 68.3064 24.1659 67.3226 23.6362C66.3926 23.1244 65.6302 22.3554 65.127 21.4215C64.5973 20.4364 64.3268 19.3331 64.3407 18.215C64.3407 16.8699 64.6128 15.6661 65.1488 14.6335C65.6874 13.6009 66.4792 12.7857 67.5021 12.2177C68.5224 11.6498 69.7249 11.3618 71.0689 11.3618ZM82.3705 11.446C82.7378 11.446 83.0452 11.4786 83.2955 11.5438L83.5676 11.6416V14.5954L83.4424 14.5058C83.2317 14.3762 83.001 14.2826 82.7595 14.2286C82.4726 14.1472 82.1763 14.1033 81.8781 14.0982C81.5033 14.0936 81.1333 14.183 80.802 14.3582C80.4707 14.5334 80.1887 14.7887 79.9818 15.1009C79.5655 15.677 79.3261 16.4134 79.2662 17.2938L79.2499 17.7449V24.1145H76.317V11.6634H79.2499V13.8183H79.2798C79.5546 13.1199 79.9137 12.5574 80.4089 12.1498C80.9748 11.6824 81.6332 11.446 82.3705 11.446ZM62.3193 11.6634V24.1145H59.3864V11.6634H62.3193ZM42.0422 6.73947L47.1516 19.6471L52.4161 6.73947H56.5569V24.1145H53.5642V10.7449H53.469L48.1583 24.1145H46.0362L40.6384 10.7449H40.5432V24.1145H37.73V6.73947H42.0422ZM113.987 13.7884C112.926 13.7884 112.083 14.1498 111.484 14.8645C110.883 15.5846 110.578 16.6172 110.578 17.9351C110.578 19.2177 110.883 20.2232 111.484 20.9297C112.083 21.6362 112.934 21.9895 114.012 21.9895C115.095 21.9895 115.924 21.6416 116.477 20.9514C117.032 20.2558 117.312 19.2177 117.312 17.8645C117.312 16.5302 117.013 15.5031 116.422 14.8183C115.837 14.1335 115.016 13.7884 113.987 13.7884ZM90.2087 13.7857C89.1476 13.7857 88.3042 14.1471 87.7057 14.8618C87.1044 15.5819 86.797 16.6145 86.797 17.9324C86.797 19.215 87.1017 20.2204 87.7057 20.927C88.3042 21.6335 89.1531 21.9868 90.2305 21.9868C91.316 21.9868 92.1431 21.6389 92.6954 20.9487C93.2504 20.2531 93.5333 19.215 93.5333 17.8618C93.5333 16.5275 93.2341 15.5003 92.6437 14.8156C92.056 14.1308 91.2371 13.7829 90.206 13.7829M13.7937 0.929688V14.7096H0V0.929688H13.7937ZM29.0266 0.929688V14.7096H15.2329V0.929688H29.0266ZM60.8828 6.3536C61.3915 6.3536 61.8187 6.5248 62.1588 6.85632C62.3221 7.01221 62.4516 7.20002 62.5391 7.40806C62.6266 7.6161 62.6704 7.83991 62.6675 8.06555C62.6715 8.29088 62.6266 8.5144 62.536 8.72079C62.4454 8.92717 62.3111 9.11152 62.1424 9.26121C61.7999 9.5767 61.3487 9.74801 60.8828 9.73947C60.4187 9.7499 59.9688 9.57932 59.6286 9.26392C59.4614 9.11285 59.3288 8.92766 59.2396 8.72089C59.1504 8.51413 59.1068 8.29064 59.1116 8.06555C59.1116 7.58186 59.2858 7.16882 59.634 6.84273C59.9698 6.52222 60.4184 6.34652 60.8828 6.3536Z" fill="black"/>
</svg>
