<svg  viewBox="0 0 50 51" fill="none" xmlns="http://www.w3.org/2000/svg">
<g clip-path="url(#clip0_312_804)">
<path d="M24.9987 1.67059C38.2781 1.67059 49.0433 12.4357 49.0433 25.7152C49.0433 38.9946 38.2781 49.7598 24.9987 49.7598C11.7192 49.7598 0.954102 38.9946 0.954102 25.7152C0.954102 12.4357 11.7192 1.67059 24.9987 1.67059Z" stroke="black" stroke-width="2"/>
<path d="M16.5199 23.0296C16.462 22.5156 16.2231 22.1175 15.8034 21.8354C15.3836 21.5494 14.8552 21.4066 14.2183 21.4066C13.7623 21.4066 13.3678 21.4788 13.0348 21.6236C12.7019 21.7648 12.4431 21.9602 12.2586 22.2099C12.0776 22.4559 11.9871 22.7365 11.9871 23.0513C11.9871 23.3155 12.0487 23.5435 12.1717 23.7354C12.2984 23.9271 12.463 24.0881 12.6657 24.2185C12.872 24.3451 13.0927 24.4519 13.328 24.5387C13.5632 24.622 13.7894 24.6908 14.0065 24.7449L15.0922 25.0273C15.4469 25.1142 15.8106 25.2317 16.1833 25.3801C16.5561 25.5285 16.9018 25.7239 17.2202 25.9664C17.5387 26.2089 17.7956 26.5093 17.9911 26.8675C18.1902 27.2258 18.2897 27.6546 18.2897 28.1542C18.2897 28.7838 18.1268 29.3429 17.801 29.8316C17.479 30.3201 17.0104 30.7054 16.3951 30.9878C15.7835 31.2701 15.0434 31.4112 14.1748 31.4112C13.3425 31.4112 12.6223 31.2792 12.0143 31.0148C11.4063 30.7507 10.9304 30.3761 10.5866 29.8913C10.2428 29.4026 10.0528 28.8236 10.0166 28.1542H11.6994C11.732 28.5558 11.8623 28.8906 12.0903 29.1583C12.3219 29.4225 12.6168 29.6198 12.9751 29.75C13.337 29.8768 13.7333 29.94 14.164 29.94C14.6381 29.94 15.0597 29.8659 15.4288 29.7175C15.8016 29.5655 16.0948 29.3556 16.3081 29.0878C16.5217 28.8164 16.6285 28.4997 16.6285 28.1378C16.6285 27.8085 16.5344 27.5389 16.3462 27.329C16.1616 27.1191 15.9101 26.9454 15.5917 26.8078C15.2768 26.6702 14.9203 26.5491 14.5222 26.4441L13.2085 26.0859C12.3183 25.8433 11.6126 25.487 11.0914 25.0164C10.5739 24.5459 10.3152 23.9234 10.3152 23.1491C10.3152 22.5085 10.4889 21.9494 10.8363 21.4717C11.1837 20.994 11.6542 20.623 12.2477 20.3588C12.8412 20.0909 13.5107 19.957 14.2563 19.957C15.009 19.957 15.6731 20.0892 16.2484 20.3534C16.8276 20.6175 17.2835 20.9812 17.6164 21.4445C17.9494 21.9042 18.1231 22.4325 18.1376 23.0296H16.5199ZM18.8287 21.5531V20.1091H27.4328V21.5531H23.964V31.2266H22.2921V21.5531H18.8287ZM28.4169 20.1091H30.4526L33.9919 28.7513H34.1222L37.6616 20.1091H39.6973V31.2266H38.1013V23.1816H37.9981L34.7193 31.2104H33.3948L30.1159 23.1761H30.0129V31.2266H28.4169V20.1091Z" fill="black"/>
</g>
<defs>
<clipPath id="clip0_312_804">
<rect width="50" height="50" fill="white" transform="matrix(1 0 0 -1 -0.000976562 50.7148)"/>
</clipPath>
</defs>
</svg>
