<svg  viewBox="0 0 59 37" fill="none" xmlns="http://www.w3.org/2000/svg">
<path d="M21.5234 4.2793H37.4761V32.5793H21.5234V4.2793Z" fill="white"/>
<path d="M22.5366 18.4297C22.5366 12.6798 25.2712 7.57967 29.4745 4.27959C26.3855 1.87964 22.486 0.429688 18.232 0.429688C8.15353 0.429688 0 8.47957 0 18.4297C0 28.3798 8.15353 36.4297 18.2318 36.4297C22.4858 36.4297 26.3853 34.9797 29.4745 32.5796C25.2712 29.3296 22.5366 24.1796 22.5366 18.4297Z" fill="black"/>
<path d="M58.9999 18.4297C58.9999 28.3796 50.8464 36.4297 40.7682 36.4297C36.5141 36.4297 32.6147 34.9797 29.5254 32.5796C33.7794 29.2797 36.4636 24.1796 36.4636 18.4297C36.4636 12.6798 33.7287 7.57967 29.5254 4.27959C32.6144 1.87964 36.5141 0.429688 40.7682 0.429688C50.8464 0.429688 58.9999 8.52968 58.9999 18.4297Z" fill="black"/>
</svg>
