<svg  viewBox="0 0 47 58" fill="none" xmlns="http://www.w3.org/2000/svg">
<path d="M0.00174527 44.8302C1.14217 43.8245 2.26353 42.7957 3.42845 41.8199C6.33121 39.3908 9.45444 37.2882 12.8648 35.632C15.3253 34.4371 17.8906 33.5322 20.6042 33.1253C25.6381 32.3713 30.1657 33.5186 34.1055 36.8037C36.6776 38.9485 38.5814 41.6185 40.2077 44.5118C40.254 44.5948 40.2975 44.6792 40.3451 44.7622C40.356 44.7812 40.3778 44.7935 40.469 44.8792C40.4499 44.5267 40.4526 44.2423 40.4173 43.962C40.0199 40.7476 38.5637 38.0285 36.5374 35.5612C35.3997 34.1745 33.9667 33.1266 32.6262 31.9712C30.1399 29.8265 27.6195 27.7185 25.1754 25.5261C23.3613 23.8985 21.9092 21.9715 20.9988 19.6784C20.2231 17.7241 19.8189 15.6964 19.7835 13.5898C19.7468 11.3634 20.0993 9.22815 21.1961 7.26031C22.6618 4.62836 24.8025 2.6891 27.4821 1.37177C30.7563 -0.236796 34.1694 -0.446372 37.588 0.826054C39.9559 1.70791 41.638 3.37499 42.3729 5.86132C42.6641 6.8466 42.5334 7.82099 42.0598 8.73551C41.9932 8.86343 41.8394 8.99544 41.7074 9.01857C41.6339 9.03082 41.4828 8.83893 41.4325 8.71373C41.2188 8.1721 41.0405 7.61686 40.8296 7.07387C40.7398 6.84388 40.6241 6.61661 40.4826 6.41384C40.3397 6.20835 40.1288 6.09131 39.862 6.19202C39.5912 6.29408 39.5204 6.52135 39.5599 6.77175C39.6035 7.03985 39.6824 7.30386 39.7613 7.56379C39.8226 7.76792 39.9192 7.96253 39.9818 8.16666C40.19 8.8471 40.043 8.97911 39.3517 8.94781C38.6073 8.91514 38.101 8.64705 37.603 8.0469C36.2108 6.36757 34.3287 5.77831 32.2152 6.15663C28.8634 6.75814 26.4709 8.65794 25.1917 11.8261C24.4405 13.6864 24.8011 15.525 25.668 17.2778C26.4233 18.8074 27.5624 20.0322 28.7953 21.1849C30.4638 22.7431 32.3649 23.9937 34.1939 25.341C36.7823 27.249 39.3313 29.2005 41.6026 31.4895C43.3241 33.2246 44.8347 35.1135 45.8594 37.3508C47.4258 40.7734 47.3496 44.1947 45.8077 47.6037C44.2373 51.0739 41.6625 53.5698 38.3052 55.2954C35.5589 56.7066 32.6316 57.4089 29.5492 57.4293C26.4151 57.4497 23.492 56.659 20.7498 55.1267C18.0035 53.5902 15.4491 51.7612 12.8267 50.037C10.6166 48.5849 8.36165 47.2145 5.88757 46.251C4.27628 45.6236 2.61328 45.1772 0.90265 44.9228C0.62503 44.8819 0.336522 44.9173 0.0534585 44.9173C0.035767 44.8887 0.0167149 44.8602 -0.000976562 44.8302H0.00174527Z" fill="black"/>
<path d="M1.10069 31.4103C2.0465 31.2633 2.98823 31.0687 3.93949 30.9802C6.74019 30.7217 9.52183 30.9666 12.2871 31.4211C13.5051 31.6212 14.7136 31.8784 15.9261 32.1111C15.9833 32.122 16.0377 32.1438 16.1834 32.1887C15.7356 32.3996 15.3559 32.5684 14.9844 32.7548C12.8941 33.8054 10.8011 34.8519 8.71891 35.9189C8.35147 36.1067 8.03303 36.3897 7.67784 36.6034C7.5676 36.6701 7.373 36.7177 7.27365 36.666C5.29493 35.614 3.36384 34.4859 1.86278 32.7752C1.54706 32.416 1.31026 31.9873 1.03809 31.5899C1.05986 31.53 1.08027 31.4701 1.10205 31.4103H1.10069Z" fill="black"/>
<path d="M38.833 10.2765C39.3937 10.2765 39.9176 10.3105 40.4348 10.267C40.9397 10.2248 41.4391 10.105 41.9998 10.0098C42.1182 10.4575 42.2774 10.9406 42.3699 11.436C42.5264 12.2756 42.6925 13.1194 42.7592 13.9686C42.8163 14.6953 42.5346 14.8586 41.846 14.6164C41.1615 14.3755 40.6974 13.8638 40.2905 13.3004C39.6305 12.3859 39.1909 11.3611 38.8344 10.2779L38.833 10.2765Z" fill="black"/>
</svg>
