<svg  viewBox="0 0 57 48" fill="none" xmlns="http://www.w3.org/2000/svg">
<g clip-path="url(#clip0_312_807)">
<path d="M8.04404 41.0668L14.9074 37.6593L48.0497 21.2093C48.1617 22.0422 48.2181 22.8813 48.2185 23.7214C48.2139 27.0732 47.3109 30.3658 45.5987 33.2728C43.8866 36.1799 41.4248 38.6007 38.4571 40.2953C35.4895 41.99 32.119 42.8997 28.6795 42.9345C25.2401 42.9692 21.8509 42.1277 18.8479 40.4934L14.9194 42.4439L14.3334 42.7353C17.9321 45.2806 22.183 46.8067 26.6161 47.145C31.0493 47.4834 35.4921 46.6207 39.4536 44.6523C43.415 42.684 46.7409 39.6867 49.0636 35.9916C51.3862 32.2965 52.6152 28.0475 52.6148 23.7144C52.6148 23.1159 52.5915 22.5198 52.5448 21.926C52.4795 21.0852 52.6709 20.2443 53.0949 19.5092C53.5188 18.774 54.1564 18.1775 54.9275 17.7947L56.999 16.7654V11.9644L50.9001 14.9935L48.9251 15.9758L46.9789 16.9417L12.04 34.2894L8.11397 36.2375L-0.000976562 40.2678V45.0665L8.04404 41.0668Z" fill="black"/>
<path d="M-0.000976562 35.4648L44.9942 13.1398L48.9202 11.187L56.999 7.17554V2.3792L48.9757 6.36245L42.1124 9.76995L8.93632 26.2434C8.82417 25.405 8.76778 24.5604 8.76751 23.7148C8.76965 20.3591 9.67244 17.0623 11.3863 14.1517C13.1001 11.2411 15.5653 8.81793 18.5372 7.12273C21.5092 5.42753 24.8844 4.51928 28.3279 4.48815C31.7714 4.45701 35.1633 5.30408 38.167 6.94525L38.4082 6.8207L42.667 4.7057C39.0691 2.16031 34.8192 0.633709 30.3867 0.294571C25.9543 -0.0445671 21.5119 0.816959 17.5504 2.78396C13.5889 4.75096 10.2626 7.74687 7.93891 11.4406C5.61524 15.1344 4.38471 19.3823 4.38327 23.7148C4.38327 24.3188 4.40738 24.9227 4.4532 25.5196C4.51839 26.3602 4.32725 27.2008 3.90376 27.9358C3.48028 28.6708 2.84335 29.2675 2.07298 29.6509L-0.000976562 30.6802V35.4648Z" fill="black"/>
</g>
<defs>
<clipPath id="clip0_312_807">
<rect width="57" height="47" fill="white" transform="matrix(-1 0 0 -1 56.999 47.2148)"/>
</clipPath>
</defs>
</svg>
