<svg viewBox="0 0 154 31" fill="none" xmlns="http://www.w3.org/2000/svg">
<g clip-path="url(#clip0_240_19863)">
<path d="M94.0855 6.34556V25.8878H99.5041V6.34556H94.0855ZM51.4521 6.3125V25.8713H56.9197V10.6845L61.183 10.7011C62.5826 10.7011 63.5589 11.0488 64.226 11.7777C65.0884 12.7053 65.4301 14.212 65.4301 16.9447V25.8713H70.7349V15.0731C70.7349 7.35577 65.902 6.3125 61.183 6.3125H51.4521ZM102.823 6.34556V25.8878H111.611C116.297 25.8878 117.826 25.0928 119.47 23.3207C120.642 22.0787 121.39 19.3294 121.39 16.3319C121.39 13.5829 120.755 11.1318 119.633 9.60821C117.647 6.87546 114.751 6.34556 110.423 6.34556H102.823ZM108.193 10.5854H110.52C113.905 10.5854 116.086 12.1252 116.086 16.1332C116.086 20.1413 113.905 21.6976 110.52 21.6976H108.193V10.5854ZM86.2748 6.34556L81.751 21.8302L77.4228 6.34556H71.5645L77.7479 25.8878H85.5583L91.8071 6.34556H86.2748ZM123.929 25.8878H129.347V6.34556H123.929V25.8878ZM139.127 6.34556L131.56 25.8713H136.897L138.102 22.4099H147.051L148.19 25.8544H154L146.368 6.34526L139.127 6.34556ZM142.642 9.90607L145.929 19.0478H139.257L142.642 9.90607Z" fill="black"/>
<path d="M16.4837 9.59148V6.90862C16.7442 6.89209 17.0044 6.87556 17.2648 6.87556C24.4896 6.64382 29.2248 13.2019 29.2248 13.2019C29.2248 13.2019 24.1154 20.423 18.6316 20.423C17.8995 20.423 17.1833 20.307 16.5 20.0753V11.9269C19.3153 12.2746 19.8846 13.5331 21.5606 16.3981L25.3198 13.1854C25.3198 13.1854 22.5697 9.52535 17.9485 9.52535C17.4604 9.50882 16.9719 9.54188 16.4837 9.59148ZM16.484 0.714844V4.7226L17.2651 4.67301C27.3052 4.32525 33.8629 13.0528 33.8629 13.0528C33.8629 13.0528 26.3445 22.3601 18.5179 22.3601C17.8342 22.3601 17.1674 22.294 16.5 22.178V24.6622C17.0534 24.7286 17.6228 24.7782 18.1759 24.7782C25.4659 24.7782 30.738 20.9857 35.8477 16.5141C36.6938 17.2096 40.1597 18.8823 40.8759 19.6112C36.0267 23.7515 24.7176 27.0803 18.3061 27.0803C17.7082 27.0813 17.1107 27.0481 16.5165 26.9808V30.4752H44.2115V0.714844L16.484 0.714844ZM16.484 20.0749V22.1945C9.74742 20.9691 7.87596 13.8313 7.87596 13.8313C7.87596 13.8313 11.1139 10.1878 16.4837 9.59148L16.484 11.91H16.4678C13.6525 11.5623 11.4396 14.2452 11.4396 14.2452C11.4396 14.2452 12.6927 18.7666 16.484 20.0749ZM4.52375 13.5331C4.52375 13.5331 8.5103 7.53801 16.5 6.90862V4.72291C7.64796 5.45117 0 13.069 0 13.069C0 13.069 4.32824 25.8212 16.4837 26.9805V24.6619C7.56645 23.5363 4.52375 13.5331 4.52375 13.5331Z" fill="black"/>
</g>
<defs>
<clipPath id="clip0_240_19863">
<rect width="154" height="30" fill="white" transform="translate(0 0.714844)"/>
</clipPath>
</defs>
</svg>
