<svg  viewBox="0 0 40 48" fill="none" xmlns="http://www.w3.org/2000/svg">
<g clip-path="url(#clip0_312_787)">
<path d="M34.5432 22.994C36.5694 20.487 37.6693 17.3834 37.664 14.1877C37.664 6.32652 31.1521 0.214844 23.1183 0.214844H5.45508V1.99282H22.7267C29.8268 1.99282 35.5829 7.37022 35.5829 14.3148C35.5872 17.0147 34.6995 19.6436 33.052 21.8098L34.5432 22.994Z" fill="black"/>
<path d="M32.5737 21.5224C34.5067 19.6004 35.5885 17.0113 35.5851 14.3152C35.5851 11.5865 34.4769 8.96947 32.5044 7.0398C30.5318 5.11013 27.8564 4.02583 25.0665 4.02539H10.1309V5.80503H25.4547C26.5807 5.80438 27.6957 6.02072 28.7362 6.44172C29.7766 6.86271 30.7221 7.4801 31.5185 8.2586C32.3149 9.03711 32.9467 9.96147 33.3777 10.9789C33.8088 11.9963 34.0306 13.0868 34.0306 14.1881C34.0321 15.4109 33.7594 16.6192 33.2317 17.7277C32.704 18.8363 31.9342 19.8182 30.9765 20.6042L32.5737 21.5224Z" fill="black"/>
<path d="M29.6914 20.18C32.1488 19.1296 34.0298 16.8415 34.0298 14.1871C34.0298 10.5392 30.4866 7.58203 26.7569 7.58203H13.7656V8.5973H26.6236C29.7017 8.5973 32.7268 11.0443 32.7268 14.06C32.7268 16.5037 30.7465 18.576 28.3541 19.2701L29.6914 20.18Z" fill="black"/>
<path d="M0.259766 45.4375H3.11727V47.2155H0.259766V45.4375Z" fill="black"/>
<path d="M3.11719 41.8789H14.5455V43.1484H3.11719V41.8789Z" fill="black"/>
<path d="M3.11719 34.0039H15.3253V35.0208H3.11719V34.0039Z" fill="black"/>
<path d="M17.6631 34.0039H25.4558V35.0208H17.6631V34.0039Z" fill="black"/>
<path d="M5.45508 30.4473H9.61052V31.4642H5.45508V30.4473Z" fill="black"/>
<path d="M11.9482 30.4473H25.4543V31.4642H11.9482V30.4473Z" fill="black"/>
<path d="M16.3633 14.4414H25.194V15.4583H16.3633V14.4414Z" fill="black"/>
<path d="M5.97461 7.58203H10.9098V8.59897H5.97461V7.58203Z" fill="black"/>
<path d="M7.27246 11.3926H25.4538V12.4095H7.27246V11.3926Z" fill="black"/>
<path d="M2.59766 14.4414H13.7661V15.4583H2.59766V14.4414Z" fill="black"/>
<path d="M5.71484 45.1818V46.9598H25.4541C33.4913 46.9598 39.9998 40.8447 39.9998 32.9869C39.9998 29.2136 38.4673 25.5949 35.7395 22.9268C33.0116 20.2587 29.3118 18.7598 25.4541 18.7598H12.7278V20.2852H25.0659C28.4757 20.2856 31.7457 21.6108 34.1567 23.9693C36.5677 26.3277 37.9221 29.5263 37.9221 32.8614C37.9221 39.8077 32.166 45.1835 25.0659 45.1835L5.71484 45.1818Z" fill="black"/>
<path d="M8.83105 22.5703V24.35H27.7922C28.9179 24.3497 30.0326 24.5664 31.0726 24.9876C32.1127 25.4088 33.0577 26.0262 33.8538 26.8047C34.6498 27.5832 35.2813 28.5074 35.7121 29.5246C36.143 30.5418 36.3647 31.632 36.3647 32.733C36.3647 34.9568 35.4615 37.0895 33.8539 38.6619C32.2462 40.2344 30.0658 41.1178 27.7922 41.1178H16.6238V43.15H27.3972C28.7786 43.15 30.1466 42.8838 31.4229 42.3667C32.6991 41.8495 33.8588 41.0916 34.8355 40.136C35.8123 39.1805 36.587 38.0462 37.1156 36.7978C37.6441 35.5493 37.916 34.2113 37.9157 32.8601C37.9157 30.1314 36.8076 27.5144 34.835 25.5847C32.8625 23.6551 30.187 22.5708 27.3972 22.5703H8.83105Z" fill="black"/>
<path d="M14.2858 26.3828V27.3981H28.9616C32.0397 27.3981 35.0648 29.8451 35.0648 32.8608C35.0648 35.8715 32.0465 38.3235 28.9616 38.3235H0V39.593H29.0915C32.8212 39.593 36.3644 36.6358 36.3644 32.9879C36.3644 29.34 32.8212 26.3828 29.0915 26.3828H14.2858Z" fill="black"/>
</g>
<defs>
<clipPath id="clip0_312_787">
<rect width="40" height="47" fill="white" transform="translate(0 0.214844)"/>
</clipPath>
</defs>
</svg>
