<svg  viewBox="0 0 128 28" fill="none" xmlns="http://www.w3.org/2000/svg">
<path d="M8.28 0.260792C7.954 0.260792 7.622 0.346792 7.317 0.516792L0.943 4.27179C0.333 4.61279 0 5.23979 0 5.92179V13.4878C0 14.1698 0.333 14.7978 0.943 15.1378L7.317 18.8928C7.871 19.2338 8.591 19.2338 9.201 18.8928L13.524 16.3328L16.462 14.5698L20.785 12.0098C21.339 11.6678 22.061 11.6678 22.671 12.0098L26.051 13.9998C26.605 14.3418 26.993 14.9678 26.993 15.6498V19.6898C26.993 20.3718 26.66 20.9988 26.051 21.3398L22.671 23.3878C22.116 23.7298 21.395 23.7298 20.785 23.3878L17.405 21.3958C16.851 21.0548 16.462 20.4298 16.462 19.7468V17.1288L13.524 18.8928V21.5088C13.524 22.1918 13.857 22.8188 14.467 23.1598L20.84 26.9158C21.394 27.2568 22.114 27.2568 22.724 26.9158L29.1 23.1608C29.654 22.8198 30.04 22.1928 30.04 21.5108V13.9448C30.04 13.2628 29.71 12.6358 29.1 12.2948L22.67 8.48279C22.115 8.14079 21.394 8.14079 20.784 8.48279L16.461 11.1008L13.523 12.8068L9.2 15.4228C8.646 15.7628 7.926 15.7628 7.316 15.4228L3.878 13.3738C3.59512 13.2003 3.36063 12.9582 3.19631 12.67C3.03198 12.3817 2.94313 12.0566 2.938 11.7248V7.6848C2.938 7.0018 3.268 6.37679 3.878 6.03579L7.26 4.04379C7.814 3.70179 8.534 3.70179 9.144 4.04379L12.526 6.03579C13.08 6.37679 13.469 7.00179 13.469 7.68579V10.3028L16.405 8.5388V5.92279C16.405 5.23979 16.074 4.61279 15.465 4.27279L9.2 0.515793C8.92271 0.346641 8.60381 0.258 8.279 0.259792L8.28 0.260792Z" fill="black"/>
<path d="M67.8226 1.36523V19.6052H71.3026V1.36523H67.8226ZM45.3756 6.68824C43.7476 6.68824 42.4956 7.29424 41.7456 8.27824V6.89024H38.2656V24.7522H41.7456V18.4692C42.4216 19.3272 43.6476 19.8062 45.0746 19.8062C48.7046 19.8062 51.1586 17.2092 51.1586 13.2482C51.1586 9.28724 48.9056 6.68824 45.3756 6.68824ZM59.0596 6.68824C55.1796 6.68824 52.4016 9.46424 52.4016 13.2482C52.4016 17.0322 55.1796 19.8062 59.0596 19.8062C62.9396 19.8062 65.7196 17.0322 65.7196 13.2482C65.7196 9.46424 62.9396 6.68824 59.0596 6.68824ZM91.6376 6.68824C87.9576 6.68824 85.7276 9.28824 85.7276 13.2482C85.7276 17.2082 87.9566 19.8062 91.6876 19.8062C93.1646 19.8062 94.4906 19.2522 95.1426 18.3182V19.9842C95.1426 21.1692 94.3666 22.0012 93.3146 22.0012H87.5046V24.7512H93.8646C96.7186 24.7512 98.6216 23.0112 98.6216 20.3612V6.89124H95.1166V8.15124C94.4146 7.26924 93.1646 6.68824 91.6376 6.68824ZM107.396 6.68824C103.516 6.68824 100.736 9.46424 100.736 13.2482C100.736 17.0322 103.516 19.8062 107.396 19.8062C111.276 19.8062 114.054 17.0322 114.054 13.2482C114.054 9.46424 111.276 6.68824 107.396 6.68824ZM123.293 6.68824C121.566 6.68824 120.163 7.42023 119.463 8.65623V6.89024H115.958V19.6042H119.463V12.6422C119.463 11.0022 120.539 9.81724 122.066 9.81724C123.517 9.81724 124.495 10.9262 124.495 12.4652V19.6052H128V11.6832C128 8.75624 126.147 6.68824 123.293 6.68824ZM72.9256 6.89024L77.5076 19.5042L75.6556 24.7522H78.9846L80.7616 19.5552L85.3436 6.89024H81.7636L79.1356 15.0902L76.4816 6.89024H72.9256ZM44.6496 9.69024C46.4766 9.69024 47.7296 11.1042 47.7296 13.2482C47.7296 15.3682 46.4766 16.7792 44.6496 16.7792C42.7716 16.7792 41.5446 15.3672 41.5446 13.2482C41.5446 11.1042 42.7716 9.69024 44.6496 9.69024ZM59.0596 9.69024C60.9376 9.69024 62.2146 11.1292 62.2146 13.2482C62.2146 15.3422 60.9376 16.7792 59.0596 16.7792C57.1816 16.7792 55.9046 15.3422 55.9046 13.2482C55.9046 11.1282 57.1826 9.69024 59.0596 9.69024ZM92.2376 9.69024C94.1146 9.69024 95.3426 11.1042 95.3426 13.2482C95.3426 15.3922 94.1146 16.7792 92.2376 16.7792C90.3846 16.7792 89.1576 15.3922 89.1576 13.2482C89.1576 11.1042 90.3846 9.69024 92.2376 9.69024ZM107.396 9.69024C109.273 9.69024 110.549 11.1292 110.549 13.2482C110.549 15.3422 109.273 16.7792 107.396 16.7792C105.519 16.7792 104.241 15.3422 104.241 13.2482C104.241 11.1282 105.518 9.69024 107.396 9.69024Z" fill="black"/>
</svg>
