<svg  viewBox="0 0 48 49" fill="none" xmlns="http://www.w3.org/2000/svg">
<path d="M43.611 20.5127H42V20.4297H24V28.4297H35.303C33.654 33.0867 29.223 36.4297 24 36.4297C17.373 36.4297 12 31.0567 12 24.4297C12 17.8027 17.373 12.4297 24 12.4297C27.059 12.4297 29.842 13.5837 31.961 15.4687L37.618 9.81169C34.046 6.48269 29.268 4.42969 24 4.42969C12.955 4.42969 4 13.3847 4 24.4297C4 35.4747 12.955 44.4297 24 44.4297C35.045 44.4297 44 35.4747 44 24.4297C44 23.0887 43.862 21.7797 43.611 20.5127Z" fill="black"/>
<path d="M6.30566 15.1207L12.8767 19.9397C14.6547 15.5377 18.9607 12.4297 23.9997 12.4297C27.0587 12.4297 29.8417 13.5837 31.9607 15.4687L37.6177 9.81169C34.0457 6.48269 29.2677 4.42969 23.9997 4.42969C16.3177 4.42969 9.65566 8.76669 6.30566 15.1207Z" fill="black"/>
<path d="M24.0003 44.4304C29.1663 44.4304 33.8603 42.4534 37.4093 39.2384L31.2193 34.0004C29.1439 35.5788 26.6078 36.4324 24.0003 36.4304C18.7983 36.4304 14.3813 33.1134 12.7173 28.4844L6.19531 33.5094C9.50531 39.9864 16.2273 44.4304 24.0003 44.4304Z" fill="black"/>
<path d="M43.611 20.5127H42V20.4297H24V28.4297H35.303C34.5142 30.6461 33.0934 32.5829 31.216 34.0007L31.219 33.9987L37.409 39.2367C36.971 39.6347 44 34.4297 44 24.4297C44 23.0887 43.862 21.7797 43.611 20.5127Z" fill="black"/>
</svg>
