<svg width="1200" height="630" viewBox="0 0 1200 630" fill="none"
  xmlns="http://www.w3.org/2000/svg">
  <g clip-path="url(#clip0_1102_969)">
    <mask id="mask0_1102_969" style="mask-type:alpha" maskUnits="userSpaceOnUse" x="0" y="0" width="1200" height="630">
      <rect width="1200" height="630" fill="url(#paint0_radial_1102_969)"/>
    </mask>
    <g mask="url(#mask0_1102_969)">
      <g filter="url(#filter0_f_1102_969)">
        <g clip-path="url(#clip1_1102_969)">
          <rect x="718" y="29.5" width="124" height="124" fill="url(#paint1_linear_1102_969)"/>
          <path fill-rule="evenodd" clip-rule="evenodd" d="M776.067 70.5414C774.516 64.5151 769.046 60.0625 762.535 60.0625C754.819 60.0625 748.563 66.3179 748.563 74.0343C748.563 81.7508 754.819 88.0062 762.535 88.0062C769.046 88.0062 774.516 83.5535 776.067 77.5273H788.15V89.1705H795.136V77.5273H799.793V89.1705H806.779V77.5273H811.437V70.5414H776.067ZM769.521 74.0343C769.521 77.8925 766.393 81.0202 762.535 81.0202C758.677 81.0202 755.549 77.8925 755.549 74.0343C755.549 70.1762 758.677 67.0484 762.535 67.0484C766.393 67.0484 769.521 70.1762 769.521 74.0343Z" fill="white"/>
          <path fill-rule="evenodd" clip-rule="evenodd" d="M783.933 112.457C785.484 118.483 790.955 122.936 797.465 122.936C805.181 122.936 811.437 116.68 811.437 108.964C811.437 101.247 805.181 94.9921 797.465 94.9921C790.955 94.9921 785.484 99.4447 783.933 105.471H771.85V93.8277H764.864V105.471H760.207V93.8277H753.221V105.471H748.563V112.457H783.933ZM790.479 108.964C790.479 105.106 793.607 101.978 797.465 101.978C801.323 101.978 804.451 105.106 804.451 108.964C804.451 112.822 801.323 115.95 797.465 115.95C793.607 115.95 790.479 112.822 790.479 108.964Z" fill="white"/>
        </g>
      </g>
      <g clip-path="url(#clip2_1102_969)">
        <circle cx="780" cy="240.5" r="62" fill="#FCFF42"/>
        <path d="M811 209.5H749V271.5H811V249.857H800.704C797.159 257.756 789.179 263.244 780.049 263.244C767.454 263.244 757.256 252.949 757.256 240.451C757.24 227.954 767.454 217.756 780.049 217.756C789.357 217.756 797.337 223.422 800.883 231.5H811V209.5Z" fill="black"/>
      </g>
      <g clip-path="url(#clip3_1102_969)">
        <rect x="718" y="451.5" width="124" height="124" transform="rotate(-90 718 451.5)" fill="#AB9FF2"/>
        <path fill-rule="evenodd" clip-rule="evenodd" d="M772.667 405.296C768.509 411.668 761.541 419.732 752.269 419.732C747.886 419.732 743.672 417.928 743.672 410.09C743.672 390.128 770.924 359.227 796.211 359.227C810.596 359.226 816.328 369.207 816.328 380.541C816.328 395.089 806.888 411.724 797.504 411.724C794.526 411.724 793.065 410.088 793.065 407.495C793.065 406.818 793.177 406.085 793.402 405.296C790.199 410.765 784.018 415.841 778.23 415.841C774.016 415.841 771.88 413.19 771.88 409.468C771.88 408.115 772.161 406.706 772.667 405.296ZM791.436 374.575C789.147 374.579 787.587 376.524 787.591 379.298C787.596 382.072 789.164 384.067 791.453 384.063C793.686 384.059 795.246 382.059 795.241 379.284C795.236 376.51 793.669 374.571 791.436 374.575ZM803.577 374.562C801.288 374.566 799.728 376.51 799.733 379.285C799.738 382.059 801.304 384.054 803.594 384.05C805.828 384.046 807.387 382.045 807.383 379.271C807.378 376.497 805.811 374.558 803.577 374.562Z" fill="white"/>
      </g>
      <g filter="url(#filter1_f_1102_969)">
        <g clip-path="url(#clip4_1102_969)">
          <rect x="718" y="600.5" width="124" height="124" transform="rotate(-90 718 600.5)" fill="white"/>
          <path d="M768.27 509.533C767.387 509.396 767.349 509.382 767.767 509.321C768.566 509.199 770.446 509.364 771.743 509.669C774.769 510.383 777.523 512.216 780.465 515.473L781.245 516.337L782.364 516.159C787.072 515.407 791.856 516.004 795.865 517.841C796.969 518.349 798.708 519.354 798.919 519.613C798.995 519.697 799.121 520.224 799.201 520.792C799.502 522.757 799.356 524.256 798.75 525.379C798.421 525.99 798.402 526.183 798.623 526.709C798.729 526.926 798.893 527.108 799.098 527.236C799.302 527.364 799.538 527.432 799.779 527.433C800.776 527.433 801.847 525.835 802.34 523.607L802.538 522.719L802.928 523.161C805.075 525.576 806.758 528.866 807.045 531.206L807.12 531.817L806.763 531.263C806.243 530.413 805.546 529.687 804.718 529.134C803.28 528.189 801.758 527.865 797.735 527.653C794.098 527.466 792.039 527.155 790 526.493C786.527 525.365 784.779 523.87 780.653 518.494C778.82 516.102 777.692 514.782 776.565 513.72C774.003 511.3 771.489 510.031 768.27 509.537V509.533Z" fill="#E1005F"/>
          <path d="M799.746 514.867C799.836 513.269 800.052 512.211 800.494 511.248C800.59 511.005 800.712 510.772 800.855 510.553C800.879 510.553 800.804 510.834 800.686 511.178C800.367 512.117 800.31 513.396 800.536 514.885C800.818 516.774 800.973 517.047 802.98 519.087C803.924 520.045 805.019 521.248 805.419 521.77L806.142 522.71L805.419 522.038C804.535 521.215 802.505 519.608 802.054 519.378C801.753 519.228 801.706 519.228 801.523 519.411C801.349 519.58 801.316 519.834 801.288 521.037C801.255 522.912 800.996 524.115 800.376 525.313C800.042 525.971 799.991 525.83 800.292 525.092C800.517 524.547 800.541 524.303 800.541 522.489C800.541 518.847 800.099 517.968 797.547 516.474C796.777 516.029 795.987 515.621 795.179 515.252C794.78 515.092 794.394 514.903 794.023 514.688C794.093 514.617 796.584 515.341 797.585 515.722C799.079 516.295 799.323 516.366 799.507 516.3C799.624 516.253 799.685 515.9 799.742 514.867H799.746ZM769.985 521.103C768.195 518.65 767.081 514.885 767.326 512.07L767.396 511.201L767.805 511.272C768.576 511.413 769.896 511.901 770.516 512.277C772.213 513.302 772.951 514.65 773.698 518.118C773.919 519.134 774.205 520.28 774.337 520.675C774.548 521.3 775.357 522.761 776.01 523.711C776.48 524.397 776.17 524.721 775.127 524.627C773.533 524.486 771.376 523.006 769.985 521.103ZM797.566 539.369C789.182 536.018 786.231 533.105 786.231 528.194C786.231 527.47 786.255 526.878 786.287 526.878C786.316 526.878 786.64 527.113 787.006 527.409C788.708 528.763 790.611 529.341 795.884 530.107C798.985 530.558 800.724 530.92 802.336 531.451C807.458 533.138 810.621 536.559 811.377 541.225C811.593 542.579 811.471 545.116 811.109 546.456C810.827 547.513 809.972 549.416 809.747 549.491C809.681 549.515 809.62 549.275 809.606 548.946C809.521 547.198 808.628 545.492 807.134 544.214C805.433 542.762 803.149 541.601 797.566 539.369ZM791.682 540.765C791.584 540.17 791.449 539.581 791.278 539.002L791.062 538.368L791.461 538.814C792.011 539.425 792.448 540.21 792.815 541.258C793.097 542.057 793.125 542.292 793.125 543.589C793.125 544.863 793.087 545.13 792.824 545.845C792.463 546.904 791.858 547.863 791.057 548.645C789.525 550.196 787.556 551.052 784.713 551.409C784.22 551.47 782.782 551.573 781.518 551.639C778.327 551.803 776.226 552.147 774.342 552.804C774.171 552.879 773.988 552.922 773.801 552.931C773.726 552.856 775.014 552.095 776.071 551.587C777.565 550.868 779.055 550.478 782.392 549.928C784.036 549.656 785.742 549.322 786.175 549.191C790.254 547.95 792.354 544.74 791.682 540.765Z" fill="#E1005F"/>
          <path d="M795.526 547.551C794.413 545.173 794.154 542.875 794.765 540.732C794.831 540.497 794.934 540.314 795 540.314C795.061 540.314 795.329 540.455 795.583 540.628C796.1 540.971 797.124 541.549 799.869 543.034C803.29 544.891 805.245 546.324 806.57 547.969C807.731 549.402 808.45 551.042 808.797 553.035C808.995 554.163 808.877 556.888 808.586 558.025C807.665 561.616 805.531 564.435 802.477 566.08C802.03 566.32 801.631 566.517 801.584 566.517C801.542 566.517 801.706 566.108 801.946 565.605C802.975 563.472 803.092 561.4 802.317 559.092C801.838 557.678 800.87 555.953 798.915 553.035C796.64 549.651 796.086 548.744 795.526 547.551ZM764.031 560.394C767.147 557.781 771.015 555.929 774.544 555.356C776.362 555.123 778.205 555.195 780 555.568C782.255 556.141 784.276 557.429 785.324 558.956C786.349 560.455 786.79 561.757 787.251 564.661C787.429 565.803 787.627 566.954 787.683 567.213C788.026 568.716 788.698 569.919 789.525 570.521C790.841 571.48 793.116 571.541 795.348 570.676C795.58 570.569 795.825 570.493 796.076 570.45C796.156 570.53 795.033 571.278 794.243 571.672C793.307 572.17 792.259 572.423 791.198 572.405C789.154 572.405 787.458 571.372 786.038 569.266C785.518 568.375 785.053 567.452 784.647 566.503C783.153 563.115 782.415 562.086 780.681 560.953C779.168 559.966 777.218 559.792 775.752 560.507C773.825 561.447 773.289 563.89 774.671 565.441C775.316 566.107 776.16 566.546 777.077 566.691C777.441 566.741 777.811 566.712 778.163 566.606C778.515 566.5 778.839 566.32 779.115 566.077C779.391 565.835 779.612 565.536 779.762 565.201C779.912 564.865 779.988 564.502 779.986 564.135C779.986 563.115 779.591 562.537 778.599 562.086C777.241 561.479 775.789 562.189 775.794 563.453C775.794 563.994 776.033 564.332 776.579 564.581C776.926 564.736 776.936 564.745 776.649 564.689C775.408 564.431 775.117 562.941 776.113 561.954C777.316 560.77 779.798 561.291 780.648 562.913C781.005 563.594 781.048 564.948 780.738 565.765C780.033 567.598 778.003 568.561 775.935 568.035C774.525 567.678 773.956 567.293 772.26 565.558C769.313 562.541 768.171 561.954 763.923 561.296L763.106 561.169L764.031 560.394Z" fill="#E1005F"/>
          <path fill-rule="evenodd" clip-rule="evenodd" d="M750.206 506.398C760.046 518.269 766.827 523.166 767.579 524.199C768.2 525.055 767.965 525.825 766.903 526.427C766.147 526.806 765.325 527.035 764.482 527.099C763.792 527.099 763.552 526.836 763.552 526.836C763.153 526.46 762.927 526.526 760.873 522.902C759.127 520.185 757.36 517.481 755.572 514.791C755.422 514.65 755.427 514.65 760.587 523.828C761.418 525.741 760.751 526.441 760.751 526.714C760.751 527.268 760.596 527.559 759.91 528.325C758.763 529.594 758.251 531.023 757.88 533.979C757.466 537.292 756.301 539.632 753.068 543.641C751.179 545.986 750.868 546.413 750.389 547.363C749.788 548.552 749.623 549.219 749.557 550.718C749.487 552.311 749.623 553.335 750.112 554.853C750.535 556.188 750.986 557.062 752.128 558.82C753.115 560.337 753.679 561.465 753.679 561.907C753.679 562.255 753.744 562.255 755.276 561.912C758.923 561.094 761.888 559.656 763.557 557.884C764.591 556.789 764.83 556.188 764.84 554.689C764.844 553.711 764.811 553.505 764.544 552.941C764.111 552.024 763.322 551.258 761.583 550.074C759.299 548.523 758.322 547.278 758.058 545.563C757.833 544.153 758.091 543.161 759.351 540.534C760.657 537.809 760.981 536.648 761.202 533.908C761.343 532.137 761.536 531.436 762.048 530.873C762.584 530.29 763.063 530.092 764.388 529.914C766.545 529.618 767.913 529.068 769.041 528.034C769.493 527.661 769.858 527.193 770.109 526.664C770.361 526.134 770.494 525.556 770.498 524.97L770.545 523.983L769.995 523.354C768.016 521.06 748.881 504.594 748.758 504.594C748.735 504.594 749.383 505.407 750.206 506.398ZM754.792 552.522C755.008 552.142 755.072 551.694 754.972 551.268C754.872 550.842 754.615 550.469 754.252 550.224C753.547 549.755 752.443 549.98 752.443 550.586C752.443 550.774 752.546 550.911 752.781 551.028C753.176 551.23 753.204 551.456 752.894 551.921C752.579 552.386 752.607 552.795 752.964 553.077C753.542 553.523 754.36 553.279 754.792 552.522ZM771.903 530.435C770.892 530.741 769.91 531.808 769.6 532.926C769.417 533.608 769.525 534.806 769.802 535.172C770.253 535.769 770.686 535.924 771.865 535.92C774.168 535.906 776.17 534.923 776.405 533.692C776.593 532.686 775.714 531.295 774.501 530.68C773.678 530.345 772.774 530.261 771.903 530.435ZM774.6 532.527C774.953 532.024 774.798 531.483 774.191 531.117C773.045 530.417 771.301 530.995 771.301 532.076C771.301 532.616 772.208 533.203 773.04 533.203C773.595 533.203 774.356 532.874 774.6 532.527Z" fill="#E1005F"/>
        </g>
      </g>
      <g filter="url(#filter2_f_1102_969)">
        <circle cx="272" cy="17" r="62" fill="#0052FF"/>
        <path d="M271.924 60.7448C296.126 60.7448 315.745 41.1598 315.745 17.0003C315.745 -7.1591 296.126 -26.7441 271.924 -26.7441C248.963 -26.7441 230.127 -9.11543 228.256 13.3233H286.177V20.6773H228.256C230.127 43.116 248.963 60.7448 271.924 60.7448Z" fill="white"/>
      </g>
      <g clip-path="url(#clip5_1102_969)" filter="url(#filter3_f_1102_969)">
        <circle cx="272" cy="166" r="62" fill="white"/>
        <path d="M271.295 113.688L270.591 116.071V185.225L271.295 185.925L303.528 166.951L271.295 113.688Z" fill="#343434"/>
        <path d="M271.296 113.688L239.062 166.951L271.296 185.925V113.688Z" fill="#8C8C8C"/>
        <path d="M271.294 192.003L270.897 192.485V217.119L271.294 218.274L303.546 173.038L271.294 192.003Z" fill="#3C3C3B"/>
        <path d="M271.296 218.274V192.003L239.062 173.038L271.296 218.274Z" fill="#8C8C8C"/>
        <path d="M271.295 185.925L303.527 166.95L271.295 152.36V185.925Z" fill="#141414"/>
        <path d="M239.062 166.95L271.295 185.925V152.36L239.062 166.95Z" fill="#393939"/>
      </g>
      <g filter="url(#filter4_f_1102_969)">
        <g clip-path="url(#clip6_1102_969)">
          <rect x="210" y="377" width="124" height="124" transform="rotate(-90 210 377)" fill="url(#paint2_linear_1102_969)"/>
          <path d="M305.906 346.298C305.906 347.739 304.739 348.906 303.298 348.906H276.976V343.553C276.976 323.841 260.997 307.862 241.285 307.862H238.094V283.702C238.094 282.261 239.261 281.094 240.702 281.094H243.856C278.125 281.094 305.906 309.058 305.906 343.553V346.298Z" fill="url(#paint3_radial_1102_969)"/>
          <path d="M292.522 343.553V348.907H271.108C267.905 348.907 265.308 346.31 265.308 343.107V343.107C265.308 331.527 255.92 322.139 244.34 322.139V322.139C240.89 322.139 238.094 319.342 238.094 315.893V294.479H243.447C270.551 294.479 292.522 316.45 292.522 343.553Z" fill="url(#paint4_radial_1102_969)"/>
          <path d="M279.584 343.552V348.906H271.108C267.905 348.906 265.308 346.309 265.308 343.106V343.106C265.308 331.525 255.92 322.138 244.34 322.138V322.138C240.89 322.138 238.094 319.341 238.094 315.892V307.861H243.894C263.605 307.861 279.584 323.841 279.584 343.552Z" fill="url(#paint5_radial_1102_969)"/>
        </g>
      </g>
      <g clip-path="url(#clip7_1102_969)" filter="url(#filter5_f_1102_969)">
        <circle cx="272" cy="464.5" r="62" fill="#E84142"/>
        <path d="M242.105 488.591H254.137C256.97 488.591 258.387 488.591 259.651 488.241C261.037 487.829 262.301 487.098 263.352 486.093C264.317 485.173 265.014 483.954 266.388 481.55L266.429 481.478L282.035 453.891C283.421 451.47 284.106 450.251 284.411 448.972C284.746 447.586 284.746 446.123 284.411 444.737C284.108 443.468 283.416 442.258 282.051 439.872L275.912 429.156C274.648 426.932 274.008 425.821 273.201 425.409C272.332 424.968 271.297 424.968 270.429 425.409C269.621 425.821 268.982 426.932 267.717 429.156L238.008 481.524C236.759 483.717 236.134 484.814 236.18 485.712C236.241 486.687 236.744 487.57 237.566 488.104C238.328 488.591 239.577 488.591 242.105 488.591Z" fill="white"/>
        <path d="M301.764 488.591H284.523C281.98 488.591 280.7 488.591 279.954 488.104C279.132 487.57 278.629 486.672 278.568 485.697C278.523 484.806 279.152 483.719 280.412 481.545L280.412 481.544L280.441 481.493L289.047 466.719C290.311 464.541 290.951 463.46 291.743 463.049C292.611 462.607 293.632 462.607 294.499 463.049C295.286 463.449 295.898 464.485 297.111 466.535L297.112 466.538L297.211 466.704L305.847 481.478C305.889 481.551 305.93 481.623 305.972 481.693L305.972 481.693C307.169 483.759 307.78 484.813 307.736 485.682C307.69 486.656 307.172 487.556 306.35 488.089C305.588 488.591 304.308 488.591 301.764 488.591Z" fill="white"/>
      </g>
      <g filter="url(#filter6_f_1102_969)">
        <g clip-path="url(#clip8_1102_969)">
          <circle cx="272" cy="613" r="62" fill="#8247E5"/>
          <path d="M292.3 599.497C290.812 598.643 288.909 598.643 287.225 599.497L275.367 606.523L267.315 610.987L255.676 617.988C254.188 618.842 252.284 618.842 250.601 617.988L241.5 612.451C240.011 611.597 238.962 609.889 238.962 607.986V597.35C238.962 595.642 239.816 593.959 241.5 592.886L250.601 587.568C252.089 586.714 253.992 586.714 255.676 587.568L264.777 593.105C266.266 593.959 267.315 595.667 267.315 597.57V604.595L275.367 599.912V592.691C275.367 590.983 274.513 589.3 272.829 588.226L255.896 578.224C254.407 577.371 252.504 577.371 250.82 578.224L233.472 588.446C231.788 589.3 230.935 591.007 230.935 592.691V612.67C230.935 614.378 231.788 616.061 233.472 617.134L250.625 627.136C252.114 627.99 254.017 627.99 255.7 627.136L267.339 620.33L275.391 615.646L287.03 608.84C288.518 607.986 290.421 607.986 292.105 608.84L301.206 614.158C302.694 615.012 303.744 616.72 303.744 618.623V629.259C303.744 630.967 302.89 632.65 301.206 633.723L292.325 639.041C290.836 639.895 288.933 639.895 287.249 639.041L278.124 633.723C276.635 632.869 275.586 631.162 275.586 629.259V622.453L267.534 627.136V634.162C267.534 635.87 268.388 637.553 270.072 638.627L287.225 648.629C288.713 649.482 290.617 649.482 292.3 648.629L309.453 638.627C310.942 637.773 311.991 636.065 311.991 634.162V613.963C311.991 612.255 311.137 610.572 309.453 609.499L292.3 599.497Z" fill="white"/>
        </g>
      </g>
      <g filter="url(#filter7_f_1102_969)">
        <g clip-path="url(#clip9_1102_969)">
          <rect x="369" y="29.5" width="124" height="124" fill="url(#paint6_linear_1102_969)"/>
          <path d="M404.175 99.3613C404.175 113.27 415.208 122.984 431.003 122.984C446.801 122.984 457.834 113.27 457.834 99.3613C457.834 88.873 452.046 77.7059 444.4 72.5897C443.845 79.5458 440.403 87.2781 435.032 93.2513C434.488 93.8555 433.925 94.4422 433.343 95.0105C432.499 95.8333 431.614 96.6132 430.692 97.3472C428.252 99.2776 425.645 100.786 422.942 101.832L420.438 102.801L419.849 100.207C419.485 98.6007 419.88 84.9237 424.052 75.9644C426.995 69.6449 432.27 63.8557 436.11 60.0156C419.173 64.5464 404.174 86.1969 404.175 99.3613Z" fill="white"/>
        </g>
      </g>
      <g clip-path="url(#clip10_1102_969)">
        <circle cx="431" cy="241" r="62" fill="#6938EF"/>
        <circle cx="431.25" cy="241.25" r="54.25" fill="#8760F2"/>
        <circle cx="431.5" cy="241.5" r="46.5" fill="#A588F5"/>
        <circle cx="430.75" cy="240.75" r="38.75" fill="#C3AFF9"/>
        <circle cx="431" cy="241" r="31" fill="#E1D7FC"/>
        <circle cx="431.25" cy="241.25" r="23.25" fill="white"/>
        <circle cx="431.5" cy="241.5" r="15.5" fill="#6938EF"/>
      </g>
      <g clip-path="url(#clip11_1102_969)">
        <rect x="369" y="451.5" width="124" height="124" transform="rotate(-90 369 451.5)" fill="black"/>
        <path d="M468.332 388.212C468.332 385.116 465.814 382.598 462.719 382.598H450.929V402.81H444.754V379.51C444.754 377.803 446.135 376.422 447.842 376.422H462.719C469.231 376.422 474.508 381.699 474.508 388.212V402.81H468.332V388.212Z" fill="#F73196"/>
        <path d="M441.666 376.422H435.491V402.81H441.666V376.422Z" fill="#F73196"/>
        <path d="M423.701 402.81C428.507 402.81 432.403 398.913 432.403 394.107V385.124C432.403 380.318 428.507 376.422 423.701 376.422H399.438C392.926 376.422 387.648 381.699 387.648 388.212V402.81H393.824V388.212C393.824 385.116 396.342 382.598 399.438 382.598H423.701C425.094 382.598 426.228 383.732 426.228 385.124V394.107C426.228 395.5 425.094 396.634 423.701 396.634H412.473C411.081 396.634 409.947 395.5 409.947 394.107C409.947 392.715 411.081 391.581 412.473 391.581H423.421V385.405H412.473C407.668 385.405 403.772 389.301 403.772 394.107C403.772 398.913 407.668 402.81 412.473 402.81H423.701Z" fill="#F73196"/>
      </g>
      <g filter="url(#filter8_f_1102_969)">
        <g clip-path="url(#clip12_1102_969)">
          <rect x="369" y="476.5" width="124" height="124" fill="white"/>
          <g clip-path="url(#clip13_1102_969)">
            <path d="M442.54 568.92C437.384 571.874 432.242 574.849 427.066 577.769C425.142 578.854 423.366 580.245 421.119 580.706C417.519 581.442 413.853 579.859 411.96 576.681C410.619 574.427 409.287 572.166 407.95 569.908C405.792 566.107 403.645 562.302 401.472 558.512C399.296 554.714 397.089 550.933 394.901 547.143C393.269 544.313 393.772 541.711 396.021 539.313C398.069 537.13 399.879 534.718 401.775 532.391C405.848 527.391 409.894 522.373 413.987 517.39C414.519 516.741 414.531 516.149 414.404 515.38C413.358 508.98 415.3 503.582 420.395 499.618C425.317 495.789 430.859 495.125 436.691 497.516C436.064 498.328 435.013 498.118 434.201 498.548C432.735 499.321 431.493 500.416 430.047 501.196C429.566 501.255 429.083 501.306 428.603 501.372C424.151 501.992 420.358 505.519 419.41 509.919C418.417 514.514 420.368 519.336 424.2 521.763C425.454 522.556 425.947 522.449 426.981 521.151C428.766 520.839 429.979 519.419 431.593 518.773C432.713 518.1 433.832 517.424 434.954 516.751C437.069 515.805 438.899 514.302 441.121 513.563C445.523 512.641 448.77 514.092 451.048 518C453.004 521.351 454.958 524.705 456.912 528.056C457.765 529.503 458.434 531.059 459.495 532.384C460.263 534.267 461.446 535.92 462.427 537.686C463.761 540.094 465.176 542.455 466.532 544.85C469.147 549.47 467.822 554.238 463.205 556.917C456.314 560.914 449.428 564.919 442.543 568.922L442.54 568.92ZM419.651 575.066C420.158 575.122 420.693 574.827 421.224 574.52C434.237 567 447.253 559.483 460.263 551.958C462.014 550.946 462.466 549.243 461.463 547.504C456.378 538.696 451.285 529.891 446.192 521.088C444.977 518.988 443.438 518.58 441.318 519.805C434.018 524.017 426.72 528.237 419.419 532.449C413.136 536.074 406.863 539.716 400.553 543.294C399.726 543.762 399.696 544.109 400.17 544.828C400.857 545.877 401.45 546.987 402.079 548.075C406.924 556.46 411.775 564.841 416.595 573.242C417.266 574.41 418.161 575.064 419.654 575.066H419.651ZM420.417 525.242C419.422 524.437 418.556 523.661 417.846 522.734C417.541 522.337 417.349 522.349 417.031 522.742C414.924 525.354 412.797 527.949 410.675 530.552C410.729 530.622 410.782 530.691 410.836 530.762C414.002 528.939 417.166 527.115 420.417 525.242Z" fill="#2A0C56"/>
            <path d="M441.118 513.559C438.896 514.298 437.069 515.8 434.952 516.747C435.606 511.139 438.535 507.083 443.389 504.326C444.153 503.892 445.06 503.741 445.721 503.114C448.187 502.875 450.607 502.034 453.129 502.57C459.785 503.402 465.239 508.358 466.82 515.007C468.33 521.362 465.647 528.301 460.241 531.996C460.012 532.152 459.741 532.252 459.493 532.379C458.431 531.057 457.763 529.499 456.909 528.052C457.188 527.891 457.488 527.757 457.744 527.564C463.785 523.02 463.612 513.817 457.409 509.49C451.824 505.595 443.684 507.627 441.116 513.559H441.118Z" fill="#8442DA"/>
            <path d="M453.132 502.572C450.609 502.035 448.187 502.877 445.724 503.116C437.594 499.894 429.46 505.472 429.908 514.017C429.999 515.722 430.24 517.47 431.594 518.773C429.979 519.417 428.767 520.839 426.981 521.151C426.835 520.966 426.645 520.797 426.547 520.59C424.667 516.624 424.32 512.553 425.618 508.331C426.472 505.55 428.191 503.338 430.047 501.196C431.496 500.416 432.738 499.321 434.201 498.547C435.013 498.118 436.067 498.33 436.692 497.516C438.899 497.282 441.082 496.833 443.336 497.225C447.221 497.904 450.563 499.506 453.129 502.57L453.132 502.572Z" fill="#573387"/>
            <path d="M419.652 575.066C418.162 575.063 417.264 574.409 416.593 573.241C411.771 564.843 406.919 556.46 402.078 548.074C401.451 546.986 400.856 545.876 400.168 544.827C399.695 544.108 399.724 543.761 400.551 543.293C406.858 539.712 413.134 536.073 419.418 532.449C426.718 528.236 434.014 524.014 441.316 519.804C443.436 518.582 444.975 518.987 446.19 521.087C451.285 529.89 456.376 538.695 461.461 547.503C462.466 549.242 462.013 550.945 460.261 551.957C447.251 559.482 434.238 566.999 421.223 574.519C420.693 574.827 420.159 575.122 419.649 575.066H419.652ZM434.543 559.26C440.126 559.304 443.675 553.469 441.092 548.83C440.426 547.632 439.153 547.166 437.999 547.698C436.828 548.237 436.358 549.484 436.841 550.769C437.499 552.528 437.267 553.533 436.036 554.247C434.814 554.957 433.711 554.623 432.609 553.216C431.721 552.079 430.504 551.825 429.413 552.545C428.313 553.272 428.035 554.657 428.794 555.864C430.169 558.05 432.162 559.179 434.543 559.262V559.26ZM446.083 539.473C446.07 537.061 444.148 535.154 441.746 535.171C439.38 535.188 437.419 537.19 437.465 539.544C437.509 541.854 439.458 543.788 441.763 543.81C444.126 543.832 446.095 541.856 446.083 539.473ZM419.135 557.121C421.518 557.087 423.494 555.067 423.418 552.742C423.342 550.381 421.425 548.488 419.12 548.496C416.737 548.506 414.769 550.459 414.764 552.823C414.756 555.155 416.791 557.155 419.135 557.121Z" fill="#F4F4F5"/>
            <path d="M441.118 513.559C443.687 507.627 451.826 505.596 457.412 509.491C463.615 513.818 463.785 523.019 457.746 527.565C457.49 527.758 457.19 527.892 456.912 528.053C454.958 524.702 453.002 521.348 451.048 517.996C448.767 514.086 445.521 512.635 441.121 513.559H441.118Z" fill="#F4F3F5"/>
            <path d="M431.594 518.772C430.24 517.47 429.996 515.721 429.908 514.016C429.46 505.474 437.597 499.893 445.724 503.115C445.063 503.742 444.155 503.896 443.392 504.328C438.538 507.086 435.606 511.14 434.955 516.748C433.835 517.421 432.716 518.097 431.594 518.77V518.772Z" fill="#F4F1F5"/>
            <path d="M430.047 501.193C428.188 503.335 426.471 505.547 425.617 508.328C424.32 512.55 424.666 516.621 426.547 520.587C426.647 520.797 426.835 520.963 426.981 521.148C425.947 522.446 425.454 522.553 424.2 521.76C420.368 519.333 418.417 514.511 419.41 509.916C420.359 505.516 424.151 501.989 428.603 501.369C429.083 501.303 429.566 501.252 430.047 501.193Z" fill="#F3F1F3"/>
            <path d="M420.418 525.242C417.166 527.115 414 528.939 410.837 530.761C410.783 530.691 410.729 530.622 410.676 530.552C412.798 527.952 414.927 525.356 417.032 522.741C417.349 522.349 417.542 522.337 417.847 522.734C418.557 523.661 419.423 524.437 420.418 525.242Z" fill="#F4F4F5"/>
            <path d="M434.543 559.26C432.162 559.178 430.169 558.048 428.794 555.863C428.035 554.658 428.313 553.27 429.413 552.543C430.504 551.821 431.721 552.077 432.609 553.214C433.711 554.624 434.814 554.955 436.036 554.246C437.267 553.531 437.499 552.526 436.84 550.767C436.358 549.482 436.828 548.235 437.999 547.696C439.153 547.165 440.426 547.631 441.092 548.828C443.675 553.467 440.126 559.302 434.543 559.258V559.26Z" fill="#2B0D55"/>
            <path d="M446.082 539.473C446.094 541.853 444.126 543.831 441.762 543.81C439.46 543.788 437.511 541.853 437.465 539.543C437.418 537.187 439.379 535.185 441.745 535.17C444.146 535.153 446.068 537.06 446.082 539.473Z" fill="#2B0D55"/>
            <path d="M419.135 557.121C416.791 557.155 414.756 555.155 414.764 552.823C414.771 550.46 416.737 548.506 419.12 548.496C421.425 548.486 423.345 550.382 423.418 552.743C423.491 555.067 421.518 557.087 419.135 557.121Z" fill="#2B0C57"/>
          </g>
        </g>
      </g>
      <g filter="url(#filter9_f_1102_969)">
        <g clip-path="url(#clip14_1102_969)">
          <rect x="51" y="153.5" width="124" height="124" transform="rotate(-90 51 153.5)" fill="white"/>
          <path fill-rule="evenodd" clip-rule="evenodd" d="M81.5156 60.0156H100.731V60.0188L142.214 60.0188L125.257 79.1842H100.731V103.802L81.5156 88.308V72.9769V60.0156ZM144.484 122.984H125.268V122.981H83.7857L100.743 103.816L125.268 103.816V79.1981L144.484 94.692V110.023V122.984Z" fill="url(#paint7_linear_1102_969)"/>
        </g>
      </g>
      <g filter="url(#filter10_f_1102_969)">
        <g clip-path="url(#clip15_1102_969)">
          <rect x="51" y="178.5" width="124" height="124" fill="#0B0E15"/>
          <mask id="mask1_1102_969" style="mask-type:alpha" maskUnits="userSpaceOnUse" x="51" y="178" width="124" height="125">
            <path d="M175 178.5H51V302.5H175V178.5Z" fill="#04051A"/>
          </mask>
          <g mask="url(#mask1_1102_969)">
            <g filter="url(#filter11_f_1102_969)">
              <path d="M156.755 354.651C186.003 354.651 209.714 330.941 209.714 301.693C209.714 272.445 186.003 248.734 156.755 248.734C127.507 248.734 103.797 272.445 103.797 301.693C103.797 330.941 127.507 354.651 156.755 354.651Z" fill="#6D155A"/>
            </g>
            <g filter="url(#filter12_f_1102_969)">
              <path d="M35.9037 256.081C79.9988 256.081 115.745 220.335 115.745 176.24C115.745 132.145 79.9988 96.3984 35.9037 96.3984C-8.19137 96.3984 -43.9375 132.145 -43.9375 176.24C-43.9375 220.335 -8.19137 256.081 35.9037 256.081Z" fill="#186BF1"/>
            </g>
          </g>
          <path opacity="0.5" d="M135.31 274.391C135.458 274.57 135.634 274.729 135.834 274.864C136.717 275.458 137.88 275.428 138.732 274.788C150.346 266.056 153.259 255.839 153.828 249.437C154.107 249.451 154.391 249.417 154.669 249.334C155.64 249.041 156.338 248.191 156.436 247.181C157.873 232.365 152.511 222.407 146.701 216.189C145.256 214.643 143.79 213.333 142.403 212.238C142.658 211.999 142.866 211.704 143.005 211.366C143.431 210.332 143.119 209.141 142.24 208.449C133.836 201.833 125.743 199.819 119.084 199.819C115.416 199.819 112.222 200.426 109.685 201.171C109.642 201 109.581 200.833 109.502 200.672C109.12 199.893 108.361 199.369 107.498 199.286L107.258 201.774C107.498 199.286 107.497 199.286 107.495 199.285L107.492 199.285L107.485 199.284L107.469 199.283L107.424 199.279C107.389 199.277 107.344 199.273 107.289 199.27C107.179 199.263 107.03 199.256 106.846 199.253C106.479 199.245 105.97 199.251 105.355 199.297C104.131 199.39 102.452 199.649 100.626 200.321C98.2253 201.205 95.6265 202.789 93.5083 205.52L93.5076 205.517L93.5061 205.511L93.5059 205.511C93.5059 205.511 93.5059 205.511 93.5059 205.511C93.5059 205.511 93.5059 205.511 91.0832 206.128L135.31 274.391ZM135.31 274.391C131.919 277.461 126.752 280.824 119.767 281.796C119.653 281.812 119.538 281.82 119.423 281.82H119.355C118.323 281.82 117.397 281.186 117.024 280.223C117.016 280.203 117.008 280.182 117.001 280.162C115.365 280.463 113.474 280.663 111.336 280.663C107.443 280.663 102.745 280 97.2549 278.071C95.9986 277.63 95.3086 276.282 95.6857 275.005C96.0628 273.728 97.3747 272.97 98.6691 273.282C100.177 273.646 101.678 273.825 103.249 273.825C113.463 273.825 121.408 266.201 121.408 257.145C121.408 252.835 119.649 248.864 116.656 245.865C115.97 246.754 115.203 247.75 114.642 248.49C113.611 249.94 113.347 250.618 113.404 251.166C113.774 253.654 113.006 256.092 111.599 257.876C111.579 257.901 111.558 257.926 111.537 257.951C110.983 258.6 109.947 259.503 109.059 260.278C109.02 260.312 108.982 260.345 108.945 260.378C108.938 260.384 108.931 260.39 108.925 260.396C108.016 261.189 107.143 261.953 106.512 262.584C106.492 262.605 106.471 262.625 106.449 262.645C104.724 264.256 102.491 264.474 101.209 264.474C100.845 264.474 100.517 264.446 100.307 264.428L100.282 264.426L100.282 264.426C100.184 264.417 100.121 264.412 100.065 264.408C100.039 264.406 100.02 264.405 100.006 264.405L99.9906 264.404C99.9872 264.404 99.9857 264.404 99.9858 264.404H99.8405C99.8158 264.423 99.786 264.445 99.7508 264.473C99.6092 264.584 99.4256 264.74 99.1625 264.972C98.5769 265.519 97.8883 265.751 97.448 265.861C96.9325 265.99 96.3992 266.038 95.9086 266.038C94.6453 266.038 93.218 265.756 92.0694 265.471C90.8814 265.176 89.8014 264.829 89.1638 264.603C89.1372 264.594 89.1108 264.584 89.0846 264.574C88.4043 264.307 87.906 263.862 87.5789 263.513C87.233 263.143 86.9384 262.728 86.6918 262.332C86.1988 261.54 85.7653 260.608 85.4106 259.732C84.731 258.054 84.1493 256.094 84.0441 255.093L135.31 274.391ZM71.8497 213.541C69.7698 212.154 69.771 212.152 69.7722 212.151L69.7746 212.147L69.7795 212.14L69.7895 212.125L69.8103 212.095C69.8244 212.075 69.8392 212.055 69.8547 212.034C69.8858 211.993 69.9196 211.951 69.9563 211.908C70.0299 211.822 70.1153 211.733 70.2138 211.645C70.4131 211.467 70.6568 211.302 70.9464 211.17C71.5431 210.9 72.1881 210.842 72.8137 210.931C72.8603 210.937 72.9067 210.945 72.9528 210.954C73.1327 210.99 73.3313 211.055 73.3804 211.071C73.384 211.072 73.3868 211.073 73.3887 211.074C73.4923 211.107 73.6232 211.15 73.7736 211.201C74.0764 211.303 74.4905 211.446 74.99 211.619C75.9907 211.967 77.3554 212.447 78.9041 212.997C80.761 213.655 82.8875 214.415 84.9759 215.168L84.044 255.091C83.9693 254.38 84.1424 253.722 84.2589 253.34C84.3961 252.891 84.5847 252.429 84.7764 252.001C85.1527 251.162 85.6451 250.23 86.0624 249.44L86.0829 249.401C86.0829 249.401 86.0829 249.401 86.083 249.401C86.3816 248.836 86.639 248.348 86.8365 247.942C86.9343 247.741 87.0044 247.586 87.051 247.472C87.0691 247.428 87.0802 247.399 87.0863 247.382C87.0876 247.375 87.0891 247.367 87.0907 247.359C87.0977 247.322 87.1063 247.273 87.1166 247.213C87.1372 247.092 87.162 246.937 87.1906 246.748C87.2479 246.373 87.3167 245.89 87.3935 245.332C87.547 244.216 87.7286 242.825 87.9066 241.429C88.2629 238.637 88.6015 235.857 88.6679 235.29C88.7215 234.833 88.7081 234.653 88.6743 234.498C88.6356 234.322 88.526 233.991 88.1315 233.342L88.1128 233.311C87.1796 231.725 87.1047 230.168 87.4378 228.377C82.6515 225.034 71.2627 216.615 70.5361 216.019L70.5208 216.006C70.0429 215.607 69.5309 214.995 69.3737 214.136C69.2959 213.71 69.3231 213.307 69.4141 212.954C69.4584 212.783 69.5157 212.63 69.5768 212.499C69.6073 212.433 69.6389 212.372 69.6704 212.316C69.6861 212.288 69.7019 212.261 69.7176 212.236C69.7254 212.223 69.7333 212.21 69.7411 212.198L69.7527 212.18L69.7585 212.171L69.7614 212.167C69.7629 212.165 69.7643 212.162 71.8497 213.541ZM71.8497 213.541L69.7697 212.154L69.7643 212.162L71.8497 213.541ZM71.7922 215.813C71.7919 215.813 71.7962 215.814 71.806 215.817C71.7973 215.815 71.7925 215.813 71.7922 215.813Z" stroke="url(#paint8_linear_1102_969)" stroke-width="5" stroke-linejoin="round"/>
          <path d="M91.4234 244.492L93.5967 228.098L74.7065 214.97L91.9683 220.82L96.0472 214.564L110.928 205.312L143.754 223.406L145.453 251.022L130.842 271.361L119.289 273.13L125.27 262.177V251.634L120.92 243.404L116.503 240.479L109.706 247.485V254.899L104.405 259.865L97.6771 260.681L94.6865 262.382L89.7935 260.818L87.754 253.47L91.425 248.301V244.492H91.4234Z" fill="white"/>
          <path d="M121.597 214.834C117.996 214.086 114.052 214.289 114.052 214.289C114.052 214.289 112.763 220.276 104.743 221.84C104.811 221.84 115.345 225.445 121.597 214.834ZM124.859 269.115C129.209 265.714 132.472 261.021 133.968 255.716C134.034 255.511 134.645 255.171 135.054 254.899C135.733 254.491 136.413 254.15 136.549 253.607C136.821 252.043 136.957 250.41 136.957 248.776C136.957 248.164 136.344 247.553 135.733 246.94C135.258 246.532 134.782 246.056 134.782 245.716C134.102 239.525 131.248 233.744 126.695 229.528L126.22 230.004C130.637 234.152 133.491 239.799 134.103 245.784C134.171 246.329 134.714 246.872 135.258 247.417C135.733 247.825 136.276 248.438 136.276 248.709C136.276 250.273 136.141 251.837 135.869 253.402C135.801 253.675 135.19 253.947 134.714 254.218C134.034 254.558 133.423 254.899 133.287 255.444C131.637 261.221 127.972 266.217 122.956 269.524C123.84 267.619 126.626 261.43 128.122 258.301L127.849 248.233L119.219 239.865L114.326 240.547L108.958 249.254C108.958 249.254 111.471 252.451 107.937 256.192C104.471 259.865 101.753 260.681 101.753 260.681L99.2378 259.32C99.9858 258.368 101.48 256.94 102.636 255.987C104.606 254.355 106.578 254.218 106.578 252.451C106.646 248.776 102.704 249.797 102.704 249.797L101.277 251.158L100.665 256.192L97.6756 259.932L97.3354 259.865L92.4424 258.776C92.4424 258.776 95.433 257.212 95.9086 255.444C96.3842 253.743 94.9574 248.098 94.8881 247.757C94.9574 247.825 96.3165 248.981 96.9275 250.885C98.0141 247.893 99.4425 245.036 99.8504 244.763C100.257 244.492 105.762 241.567 105.762 241.567L103.928 246.397L105.287 245.648L108.548 237.622C108.548 237.622 111.744 236.058 114.122 236.058C118.404 235.989 124.723 230.752 121.87 221.364C122.684 221.703 136.821 228.778 139.267 242.656C141.102 253.335 135.054 263.335 124.859 269.115Z" fill="#94A6C3"/>
          <path d="M108.685 216.331C110.249 214.494 109.636 211.772 109.636 211.772L105.084 218.507C105.014 218.507 106.714 218.575 108.685 216.331ZM93.3935 253.131L93.9368 250.41C93.9368 250.41 91.6959 254.355 91.4911 254.899C91.2864 255.511 91.6266 256.6 92.51 256.532C93.3935 256.464 94.4818 255.171 94.4818 254.22C94.4818 252.994 93.3935 253.131 93.3935 253.131Z" fill="#0A192B"/>
          <path d="M133.761 209.868C133.761 209.868 137.16 210.005 140.694 210.413C132.744 204.156 125.201 202.319 119.084 202.319C110.655 202.319 104.947 205.787 104.606 205.992L107.258 201.774C107.258 201.774 96.6566 200.754 92.9179 211.977C91.9667 209.597 91.0832 206.128 91.0832 206.128C91.0832 206.128 85.5776 210.957 88.1603 218.983C81.8405 216.671 72.8009 213.474 72.4623 213.406C71.9851 213.338 71.8497 213.541 71.8497 213.541C71.8497 213.541 71.7143 213.746 72.1222 214.086C72.8686 214.699 87.1414 225.242 90.2675 227.282C89.5871 229.731 89.5871 230.887 90.2675 232.043C91.2187 233.607 91.2864 234.425 91.1509 235.581C91.0155 236.737 89.7919 246.737 89.5194 247.961C89.2486 249.186 86.3933 253.539 86.5304 254.831C86.6658 256.124 88.4328 261.633 89.9966 262.246C91.1509 262.654 94.0045 263.538 95.9086 263.538C96.5873 263.538 97.1983 263.402 97.4724 263.13C98.6267 262.109 98.9669 261.904 99.7827 261.904H99.9858C100.324 261.904 100.734 261.974 101.209 261.974C102.296 261.974 103.724 261.769 104.743 260.818C106.238 259.321 108.822 257.28 109.636 256.327C110.655 255.036 111.2 253.267 110.926 251.498C110.725 249.865 111.608 248.438 112.627 247.009C113.917 245.308 116.296 242.248 116.296 242.248C120.986 245.784 123.908 251.158 123.908 257.145C123.908 267.754 114.665 276.325 103.249 276.325C101.48 276.325 99.7827 276.122 98.0834 275.713C103.317 277.551 107.734 278.163 111.336 278.163C119.015 278.163 123.093 275.374 123.093 275.374C123.093 275.374 121.665 277.211 119.355 279.32H119.422C132.131 277.551 138.317 267.075 138.317 267.075C138.317 267.075 137.84 270.477 137.229 272.789C154.151 260.068 151.297 244.152 151.228 243.607C151.365 243.812 153.064 245.852 153.948 246.94C156.666 218.917 133.761 209.868 133.761 209.868ZM107.734 254.628C107.462 254.966 106.306 255.987 105.491 256.735C104.676 257.485 103.792 258.233 103.112 258.912C102.841 259.186 102.296 259.321 101.48 259.321H99.4409C100.461 257.96 103.452 254.831 104.471 254.15C105.695 253.335 106.306 252.519 105.559 251.09C104.811 249.662 102.841 250.002 102.841 250.002C102.841 250.002 103.995 249.526 105.014 249.526C103.724 249.186 102.093 249.526 101.345 250.274C100.529 251.022 100.666 253.675 100.326 255.376C99.9874 257.145 98.8299 258.028 97.0629 259.66C96.1117 260.545 95.433 260.818 94.888 260.818C93.7118 260.611 92.553 260.315 91.4218 259.932C90.7447 259.049 89.7242 256.124 89.4517 254.899C89.6564 254.22 90.4706 252.791 90.8785 251.974C91.6943 250.41 92.1699 249.526 92.3069 248.709C92.5777 247.553 93.4612 240.41 93.8014 237.417C94.6849 238.573 95.9085 240.479 95.6361 241.703C97.6078 238.914 96.1794 236.193 95.5007 235.105C94.888 234.017 94.0739 231.84 94.7526 229.526C95.433 227.214 97.8803 220.819 97.8803 220.819C97.8803 220.819 98.6944 222.248 99.8504 221.977C101.005 221.703 110.315 207.692 110.315 207.692C110.315 207.692 112.83 213.201 110.18 217.214C107.462 221.229 104.811 221.977 104.811 221.977C104.811 221.977 108.55 222.656 112.014 220.139C113.443 223.473 114.802 226.943 114.868 227.419C114.665 227.895 111.947 234.425 111.676 234.833C111.539 234.968 110.588 235.241 109.909 235.378C108.753 235.716 108.073 235.921 107.802 236.126C107.326 236.534 105.151 242.519 104.132 245.445C102.907 245.784 101.685 246.464 100.802 247.825C101.277 247.485 102.772 247.28 103.86 247.145C104.811 247.077 107.734 248.641 108.48 251.566V251.703C108.618 252.791 108.277 253.81 107.734 254.628ZM101.345 255.444C101.958 254.558 101.888 253.062 101.958 252.586C102.025 252.111 102.161 251.226 102.704 251.09C103.247 250.953 104.539 251.158 104.539 252.111C104.539 252.994 103.587 253.199 102.909 253.81C102.433 254.287 101.48 255.307 101.345 255.444ZM128.462 242.451C129.141 238.981 129.209 235.989 129.005 233.539C131.656 237.077 133.287 241.363 133.761 245.784C133.831 246.329 134.374 246.872 134.917 247.417C135.395 247.825 135.938 248.368 135.938 248.709C135.938 250.273 135.801 251.837 135.53 253.402C135.462 253.607 134.85 253.947 134.374 254.22C133.695 254.558 133.084 254.899 132.947 255.444C131.444 260.669 128.298 265.272 123.977 268.571C130.297 261.974 133.355 251.09 128.462 242.451ZM124.18 269.184C128.598 265.782 131.996 261.021 133.491 255.647C133.558 255.444 134.171 255.103 134.579 254.831C135.258 254.492 135.938 254.083 136.073 253.539C136.346 251.975 136.481 250.342 136.481 248.709C136.481 248.096 135.869 247.483 135.258 246.872C134.919 246.464 134.374 245.989 134.374 245.647C133.819 240.703 131.888 236.014 128.801 232.113C127.442 223.949 122.005 221.432 121.868 221.364C122.005 221.569 125.539 226.669 123.093 232.656C120.578 238.71 114.122 237.757 113.578 237.825C113.035 237.825 110.928 240.547 108.277 245.581C107.939 245.444 106.51 245.103 104.879 245.376C106.102 241.974 107.937 237.145 108.277 236.737C108.413 236.601 109.432 236.329 110.112 236.124C111.403 235.786 112.014 235.581 112.219 235.308C112.355 235.105 113.035 233.541 113.714 231.908C114.326 231.908 115.89 231.772 116.024 231.703C116.161 231.568 117.452 228.235 117.452 227.827C117.452 227.487 114.802 220.889 113.781 218.372C114.259 217.827 114.733 217.147 115.21 216.398C129.141 217.895 140.015 229.731 140.015 244.083C140.015 255.103 133.558 264.694 124.18 269.184Z" fill="#0A192B"/>
          <path d="M106.103 232.451C107.392 230.955 106.715 228.167 104.336 227.69C104.948 226.261 105.83 223.406 105.83 223.406C105.83 223.406 98.8976 234.289 98.2866 234.492C97.6739 234.697 97.0629 232.316 97.0629 232.316C95.7732 237.282 99.2394 237.962 99.6457 236.397C101.548 235.921 104.811 233.881 106.103 232.451Z" fill="#0A192B"/>
          <path d="M100.191 235.105L103.725 229.051C103.725 229.051 105.762 230.071 104.743 231.705C103.454 233.607 100.191 235.105 100.191 235.105Z" fill="#FFD923"/>
          <path d="M143.889 263.13C142.869 264.491 141.713 265.919 140.355 267.28C149.122 250.41 140.763 234.968 140.423 234.355C141.036 234.968 141.647 235.648 142.19 236.261C148.918 243.743 149.733 254.968 143.889 263.13ZM152.044 241.43C148.985 233.201 144.636 226.194 135.054 219.868C125.812 213.746 115.889 214.222 115.345 214.289H115.208C115.548 214.154 115.889 214.086 116.229 214.019C118.336 213.338 121.054 212.793 123.772 212.455C130.976 211.434 138.248 213.881 143.209 219.12L143.344 219.256C148.987 225.242 151.908 232.724 152.044 241.43ZM132.88 207.759C122.753 205.857 116.229 206.808 111.539 208.577C111.403 208.032 110.926 206.943 110.52 206.06C109.093 207.761 107.597 209.801 106.646 211.094C104.063 212.862 102.976 214.562 102.976 214.562C104.471 209.46 108.821 205.652 114.122 204.699C115.616 204.427 117.249 204.291 119.015 204.291C123.705 204.359 128.393 205.517 132.88 207.761V207.759ZM95.433 220.82C87.48 220.549 90.1305 211.297 90.2675 210.753C90.2675 210.821 90.8108 218.032 95.433 220.821V220.82ZM103.247 204.156C97.1306 207.829 98.3543 216.603 98.3543 216.603C92.5101 207.692 102.772 204.359 103.247 204.156Z" fill="#D82122"/>
          <path d="M93.1888 223.27C93.5966 223.609 94.0045 224.222 93.5289 225.105C93.2581 225.582 92.8502 225.513 92.2392 225.242C91.4218 224.834 86.5288 221.977 82.1113 219.051C87.1414 220.821 92.2376 222.725 93.0533 223.133L93.1904 223.269L93.1888 223.27Z" fill="white"/>
        </g>
      </g>
      <g filter="url(#filter13_f_1102_969)">
        <g clip-path="url(#clip16_1102_969)">
          <rect x="51" y="451.5" width="124" height="124" transform="rotate(-90 51 451.5)" fill="white"/>
          <path d="M133.786 356.023C133.621 356.353 133.225 356.494 132.887 356.343C127.87 354.06 121.772 353.289 117.764 353.289C103.354 353.289 88.9402 360.316 88.9402 371.869C88.9402 378.063 93.5852 383.304 100.375 383.304C107.878 383.304 113.477 377.826 118.002 372.822C122.051 368.298 126.817 363.295 133.603 363.295C140.989 363.295 146.347 368.773 146.347 376.159C146.347 387.832 132.292 400.933 112.878 400.933C93.4647 400.933 79.4125 390.569 79.4125 376.159C79.4125 362.699 95.3723 350.551 112.882 350.551C121.817 350.551 128.545 352.424 133.497 355.11C133.824 355.289 133.951 355.689 133.786 356.023ZM112.882 345.906C88.9402 345.906 69.4062 365.44 69.4062 389.381C69.4062 413.322 88.9402 433.094 112.882 433.094C136.823 433.094 156.594 413.56 156.594 389.381C156.594 365.202 137.057 345.906 112.882 345.906Z" fill="#3CBE68"/>
        </g>
      </g>
      <g filter="url(#filter14_f_1102_969)">
        <g clip-path="url(#clip17_1102_969)">
          <rect x="51" y="476.5" width="124" height="124" fill="url(#paint9_linear_1102_969)"/>
          <path d="M113 499.935C134.26 499.935 151.565 517.232 151.565 538.5C151.565 559.76 134.268 577.065 113 577.065C91.7399 577.065 74.4355 559.768 74.4355 538.5C74.4355 517.232 91.7322 499.935 113 499.935ZM113 496.117C89.594 496.117 70.6172 515.094 70.6172 538.5C70.6172 561.906 89.594 580.883 113 580.883C136.406 580.883 155.383 561.906 155.383 538.5C155.383 515.094 136.406 496.117 113 496.117Z" fill="white"/>
          <path d="M113 508.977C129.281 508.977 142.523 522.219 142.523 538.5C142.523 554.781 129.274 568.015 113 568.015C96.7269 568.015 83.4775 554.773 83.4775 538.492C83.4775 522.211 96.7193 508.977 113 508.977ZM113 506.052C95.0851 506.052 80.5604 520.577 80.5604 538.492C80.5604 556.408 95.0851 570.932 113 570.932C130.916 570.932 145.44 556.408 145.44 538.492C145.44 520.577 130.916 506.052 113 506.052Z" fill="white"/>
          <path d="M113 517.576C124.531 517.576 133.917 526.961 133.917 538.492C133.917 550.023 124.531 559.409 113 559.409C101.469 559.409 92.0838 550.023 92.0838 538.492C92.0838 526.961 101.461 517.576 113 517.576ZM113 515.506C100.308 515.506 90.0143 525.8 90.0143 538.492C90.0143 551.184 100.308 561.478 113 561.478C125.692 561.478 135.986 551.184 135.986 538.492C135.986 525.8 125.692 515.506 113 515.506Z" fill="white"/>
          <path d="M113 545.281C116.75 545.281 119.789 542.241 119.789 538.492C119.789 534.743 116.75 531.703 113 531.703C109.251 531.703 106.211 534.743 106.211 538.492C106.211 542.241 109.251 545.281 113 545.281Z" fill="white"/>
          <path d="M131.541 530.779C133.785 530.779 135.604 528.961 135.604 526.717C135.604 524.473 133.785 522.654 131.541 522.654C129.298 522.654 127.479 524.473 127.479 526.717C127.479 528.961 129.298 530.779 131.541 530.779Z" fill="white"/>
          <path d="M102.202 571.039C104.446 571.039 106.265 569.22 106.265 566.976C106.265 564.733 104.446 562.914 102.202 562.914C99.9582 562.914 98.1393 564.733 98.1393 566.976C98.1393 569.22 99.9582 571.039 102.202 571.039Z" fill="white"/>
          <path d="M85.9512 512.139C88.1949 512.139 90.0138 510.32 90.0138 508.076C90.0138 505.832 88.1949 504.013 85.9512 504.013C83.7075 504.013 81.8885 505.832 81.8885 508.076C81.8885 510.32 83.7075 512.139 85.9512 512.139Z" fill="white"/>
        </g>
      </g>
      <g filter="url(#filter15_f_1102_969)">
        <g clip-path="url(#clip18_1102_969)">
          <rect x="1036" y="153.5" width="124" height="124" transform="rotate(-90 1036 153.5)" fill="url(#paint10_linear_1102_969)"/>
          <path d="M1098.56 125.084C1099.33 125.084 1099.95 125.698 1099.95 126.456C1099.95 127.214 1099.33 127.828 1098.56 127.828C1097.79 127.828 1097.16 127.214 1097.16 126.456C1097.16 125.698 1097.79 125.084 1098.56 125.084ZM1097.04 59.5419C1097.72 59.5979 1098.27 60.1116 1098.37 60.7776L1100.02 72.7662C1100.58 76.727 1105.38 78.4431 1108.34 75.7516L1124.94 60.7047C1125.34 60.3417 1125.96 60.3669 1126.33 60.7609C1126.67 61.1224 1126.68 61.6758 1126.36 62.0491L1111.88 78.6782C1109.22 81.7341 1111.18 86.506 1115.24 86.8466L1128.02 88.0728C1128.65 88.1338 1129.12 88.6907 1129.06 89.3165C1129.01 89.8327 1128.61 90.2498 1128.09 90.3306L1114.66 92.4176C1110.77 92.9466 1109 97.5419 1111.54 100.527L1116.26 106.067C1116.64 106.513 1116.58 107.178 1116.12 107.552C1115.74 107.869 1115.18 107.881 1114.78 107.582L1108.97 103.207C1105.83 100.856 1101.3 102.854 1100.97 106.745L1099.69 121.917C1099.64 122.544 1099.08 123.01 1098.44 122.958C1097.9 122.913 1097.46 122.506 1097.39 121.977L1095.36 107.321C1094.81 103.36 1090.01 101.644 1087.04 104.335L1069.38 120.349C1069.01 120.68 1068.45 120.657 1068.11 120.298C1067.8 119.968 1067.79 119.463 1068.09 119.122L1083.5 101.409C1086.17 98.3529 1084.21 93.5811 1080.15 93.2405L1067.37 92.014C1066.74 91.953 1066.27 91.3961 1066.33 90.7702C1066.38 90.2539 1066.78 89.8371 1067.3 89.7561L1080.72 87.6694C1084.61 87.1404 1086.39 82.5451 1083.86 79.5597L1080.64 75.789C1080.17 75.2355 1080.25 74.4109 1080.81 73.9472C1081.28 73.5541 1081.97 73.539 1082.47 73.9108L1086.41 76.8799C1089.55 79.2305 1094.08 77.2327 1094.41 73.3423L1095.47 60.8514C1095.54 60.0622 1096.24 59.4759 1097.04 59.5419ZM1063.06 89.3681C1063.83 89.3681 1064.46 89.9824 1064.46 90.74C1064.46 91.4978 1063.83 92.1121 1063.06 92.1121C1062.3 92.1121 1061.67 91.4978 1061.67 90.74C1061.67 89.9824 1062.3 89.3681 1063.06 89.3681ZM1132.93 87.9749C1133.7 87.9749 1134.33 88.5892 1134.33 89.3468C1134.33 90.1046 1133.7 90.7189 1132.93 90.7189C1132.17 90.7189 1131.54 90.1046 1131.54 89.3468C1131.54 88.5892 1132.17 87.9749 1132.93 87.9749ZM1096.84 55.1719C1097.61 55.1719 1098.24 55.7862 1098.24 56.5439C1098.24 57.3017 1097.61 57.916 1096.84 57.916C1096.07 57.916 1095.45 57.3017 1095.45 56.5439C1095.45 55.7862 1096.07 55.1719 1096.84 55.1719Z" fill="url(#paint11_linear_1102_969)"/>
          <g filter="url(#filter16_f_1102_969)">
            <circle cx="1097.48" cy="89.8409" r="13.0421" fill="url(#paint12_radial_1102_969)"/>
          </g>
        </g>
      </g>
      <g filter="url(#filter17_f_1102_969)">
        <g clip-path="url(#clip19_1102_969)">
          <rect x="1036" y="302.5" width="124" height="124" transform="rotate(-90 1036 302.5)" fill="white"/>
          <path fill-rule="evenodd" clip-rule="evenodd" d="M1128.57 213.476C1127.87 212.784 1126.93 212.376 1125.94 212.376H1124.4C1119.68 212.394 1109.3 211.933 1100.32 204.944C1098.99 203.915 1097.12 203.915 1095.79 204.944C1086.82 211.933 1076.44 212.394 1071.73 212.376H1070.21C1069.21 212.376 1068.26 212.784 1067.56 213.476C1066.87 214.186 1066.5 215.144 1066.52 216.119C1066.71 228.643 1067.24 237.673 1068.31 244.573C1069.11 249.736 1070.19 253.727 1071.79 257.026C1072.96 259.492 1074.43 261.568 1076.13 263.271C1078.69 265.861 1081.62 267.652 1084.86 269.533C1085.45 269.872 1086.06 270.214 1086.68 270.565C1089.45 272.141 1092.52 273.881 1096.01 276.203C1097.25 277.037 1098.86 277.037 1100.11 276.203C1103.54 273.908 1106.56 272.189 1109.32 270.625L1109.33 270.62C1110.61 269.889 1111.84 269.192 1113.02 268.486C1115.79 266.837 1118.33 265.098 1120.55 262.703C1122.2 260.894 1123.6 258.765 1124.73 256.193C1126.42 252.343 1127.54 247.589 1128.28 241.185C1129.05 234.781 1129.45 226.692 1129.63 216.119C1129.65 215.144 1129.26 214.186 1128.57 213.476ZM1120.53 243.456C1119.8 248.175 1118.84 251.456 1117.69 253.833C1116.82 255.625 1115.88 256.92 1114.73 258.109C1113.01 259.847 1110.7 261.337 1107.58 263.129C1106.96 263.482 1106.32 263.847 1105.65 264.228L1105.64 264.232C1103.42 265.495 1100.88 266.937 1098.06 268.735C1095.19 266.905 1092.61 265.447 1090.36 264.174L1090.36 264.17C1089.09 263.456 1087.94 262.801 1086.89 262.171C1084.35 260.645 1082.49 259.315 1081.01 257.7C1079.91 256.494 1078.99 255.128 1078.16 253.23C1076.9 250.374 1075.88 246.312 1075.18 240.316C1074.55 235.047 1074.16 228.342 1073.97 219.721C1079.49 219.543 1089 218.479 1098.06 212.394C1107.13 218.497 1116.64 219.561 1122.18 219.721C1121.93 230.151 1121.4 237.815 1120.53 243.456Z" fill="#0B65C6"/>
        </g>
      </g>
      <g filter="url(#filter18_f_1102_969)">
        <g clip-path="url(#clip20_1102_969)">
          <rect x="1036" y="451.5" width="124" height="124" transform="rotate(-90 1036 451.5)" fill="url(#paint13_linear_1102_969)"/>
          <path d="M1130.71 355.836L1102.36 376.892L1107.6 364.469L1130.71 355.836Z" fill="#E2761B" stroke="#E2761B" stroke-linecap="round" stroke-linejoin="round"/>
          <path d="M1065.26 355.836L1093.38 377.091L1088.4 364.469L1065.26 355.836ZM1120.51 404.644L1112.96 416.212L1129.11 420.657L1133.76 404.9L1120.51 404.644ZM1062.27 404.9L1066.89 420.657L1083.04 416.212L1075.49 404.644L1062.27 404.9Z" fill="#E4761B" stroke="#E4761B" stroke-linecap="round" stroke-linejoin="round"/>
          <path d="M1082.13 385.097L1077.63 391.907L1093.67 392.619L1093.1 375.381L1082.13 385.097ZM1113.84 385.097L1102.73 375.182L1102.36 392.619L1118.37 391.907L1113.84 385.097ZM1083.04 416.211L1092.67 411.51L1084.35 405.013L1083.04 416.211ZM1103.3 411.51L1112.96 416.211L1111.62 405.013L1103.3 411.51Z" fill="#E4761B" stroke="#E4761B" stroke-linecap="round" stroke-linejoin="round"/>
          <path d="M1112.96 416.211L1103.3 411.51L1104.07 417.807L1103.98 420.456L1112.96 416.211ZM1083.04 416.211L1092.02 420.456L1091.96 417.807L1092.67 411.51L1083.04 416.211Z" fill="#D7C1B3" stroke="#D7C1B3" stroke-linecap="round" stroke-linejoin="round"/>
          <path d="M1092.16 400.854L1084.12 398.489L1089.79 395.896L1092.16 400.854ZM1103.81 400.854L1106.18 395.896L1111.88 398.489L1103.81 400.854Z" fill="#233447" stroke="#233447" stroke-linecap="round" stroke-linejoin="round"/>
          <path d="M1083.04 416.212L1084.41 404.644L1075.49 404.901L1083.04 416.212ZM1111.59 404.644L1112.96 416.212L1120.51 404.901L1111.59 404.644ZM1118.37 391.908L1102.36 392.621L1103.84 400.855L1106.21 395.897L1111.9 398.49L1118.37 391.908ZM1084.12 398.49L1089.82 395.897L1092.16 400.855L1093.67 392.621L1077.63 391.908L1084.12 398.49Z" fill="#CD6116" stroke="#CD6116" stroke-linecap="round" stroke-linejoin="round"/>
          <path d="M1077.63 391.908L1084.35 405.015L1084.12 398.49L1077.63 391.908ZM1111.9 398.49L1111.62 405.015L1118.37 391.908L1111.9 398.49ZM1093.67 392.621L1092.16 400.855L1094.04 410.571L1094.47 397.778L1093.67 392.621ZM1102.36 392.621L1101.59 397.749L1101.93 410.571L1103.84 400.855L1102.36 392.621Z" fill="#E4751F" stroke="#E4751F" stroke-linecap="round" stroke-linejoin="round"/>
          <path d="M1103.84 400.855L1101.93 410.571L1103.3 411.511L1111.62 405.015L1111.9 398.49L1103.84 400.855ZM1084.12 398.49L1084.35 405.015L1092.67 411.511L1094.04 410.571L1092.16 400.855L1084.12 398.49Z" fill="#F6851B" stroke="#F6851B" stroke-linecap="round" stroke-linejoin="round"/>
          <path d="M1103.98 420.458L1104.07 417.808L1103.36 417.182H1092.61L1091.96 417.808L1092.02 420.458L1083.04 416.213L1086.18 418.777L1092.53 423.194H1103.44L1109.82 418.777L1112.96 416.213L1103.98 420.458Z" fill="#C0AD9E" stroke="#C0AD9E" stroke-linecap="round" stroke-linejoin="round"/>
          <path d="M1103.3 411.511L1101.93 410.57H1094.04L1092.67 411.511L1091.96 417.807L1092.62 417.181H1103.36L1104.07 417.807L1103.3 411.511Z" fill="#161616" stroke="#161616" stroke-linecap="round" stroke-linejoin="round"/>
          <path d="M1131.91 378.26L1134.33 366.635L1130.71 355.836L1103.3 376.18L1113.84 385.098L1128.74 389.457L1132.05 385.611L1130.62 384.585L1132.9 382.505L1131.14 381.137L1133.42 379.399L1131.91 378.26ZM1061.67 366.635L1064.09 378.26L1062.56 379.399L1064.83 381.137L1063.1 382.505L1065.38 384.585L1063.95 385.611L1067.23 389.457L1082.13 385.098L1092.67 376.18L1065.26 355.836L1061.67 366.635Z" fill="#763D16" stroke="#763D16" stroke-linecap="round" stroke-linejoin="round"/>
          <path d="M1128.74 389.457L1113.84 385.097L1118.37 391.907L1111.62 405.014L1120.51 404.9H1133.76L1128.74 389.457ZM1082.13 385.097L1067.23 389.457L1062.27 404.9H1075.49L1084.35 405.014L1077.63 391.907L1082.13 385.097ZM1102.36 392.619L1103.3 376.179L1107.63 364.469H1088.4L1092.67 376.179L1093.67 392.619L1094.01 397.805L1094.04 410.57H1101.93L1101.99 397.805L1102.36 392.619Z" fill="#F6851B" stroke="#F6851B" stroke-linecap="round" stroke-linejoin="round"/>
        </g>
      </g>
      <g filter="url(#filter19_f_1102_969)">
        <circle cx="1098" cy="538.5" r="62" fill="#FF0420"/>
        <path d="M1079.92 554.968C1076.23 554.968 1073.2 554.1 1070.84 552.364C1068.51 550.603 1067.35 548.073 1067.35 544.824C1067.35 544.13 1067.42 543.312 1067.57 542.32C1067.97 540.088 1068.54 537.409 1069.28 534.26C1071.39 525.728 1076.85 521.463 1085.63 521.463C1088.01 521.463 1090.16 521.86 1092.05 522.678C1093.93 523.447 1095.42 524.637 1096.51 526.224C1097.6 527.787 1098.15 529.647 1098.15 531.804C1098.15 532.449 1098.07 533.268 1097.93 534.26C1097.45 537.012 1096.91 539.716 1096.24 542.32C1095.15 546.56 1093.29 549.76 1090.61 551.868C1087.96 553.951 1084.39 554.968 1079.92 554.968ZM1080.59 548.272C1082.33 548.272 1083.79 547.751 1085.01 546.734C1086.25 545.717 1087.14 544.155 1087.66 542.022C1088.38 539.096 1088.92 536.566 1089.3 534.384C1089.42 533.739 1089.49 533.069 1089.49 532.375C1089.49 529.548 1088.03 528.134 1085.08 528.134C1083.34 528.134 1081.86 528.655 1080.62 529.672C1079.4 530.688 1078.53 532.251 1078.01 534.384C1077.44 536.467 1076.9 538.996 1076.33 542.022C1076.2 542.642 1076.13 543.287 1076.13 543.981C1076.1 546.858 1077.61 548.272 1080.59 548.272Z" fill="white"/>
        <path d="M1100.31 554.521C1099.96 554.521 1099.71 554.422 1099.51 554.199C1099.36 553.951 1099.31 553.678 1099.36 553.356L1105.79 523.1C1105.84 522.752 1106.01 522.48 1106.31 522.256C1106.58 522.033 1106.88 521.934 1107.2 521.934H1119.58C1123.02 521.934 1125.78 522.653 1127.86 524.067C1129.97 525.505 1131.03 527.564 1131.03 530.267C1131.03 531.036 1130.93 531.854 1130.76 532.697C1129.99 536.268 1128.43 538.897 1126.05 540.608C1123.72 542.32 1120.52 543.163 1116.45 543.163H1110.18L1108.04 553.356C1107.97 553.703 1107.82 553.976 1107.52 554.199C1107.25 554.422 1106.95 554.521 1106.63 554.521H1100.31ZM1116.77 536.74C1118.09 536.74 1119.2 536.392 1120.17 535.673C1121.16 534.954 1121.81 533.937 1122.13 532.598C1122.23 532.077 1122.28 531.606 1122.28 531.209C1122.28 530.316 1122.01 529.622 1121.49 529.151C1120.97 528.655 1120.05 528.407 1118.78 528.407H1113.2L1111.44 536.74H1116.77Z" fill="white"/>
      </g>
      <g filter="url(#filter20_f_1102_969)">
        <g clip-path="url(#clip21_1102_969)">
          <circle cx="605.5" cy="-14" r="62" fill="black"/>
          <path d="M577.797 -10.4244C577.641 -11.6145 577.563 -12.8134 577.562 -14.0137C577.568 -18.8028 578.824 -23.5072 581.206 -27.6608C583.587 -31.8145 587.011 -35.2733 591.139 -37.6946C595.266 -40.1159 599.954 -41.4158 604.738 -41.4654C609.522 -41.515 614.235 -40.3127 618.412 -37.9775L624.691 -41.1808C619.686 -44.8175 613.774 -46.9981 607.608 -47.4815C601.442 -47.9649 595.263 -46.7323 589.753 -43.9199C584.243 -41.1075 579.617 -36.8249 576.387 -31.5454C573.156 -26.2658 571.447 -20.1949 571.447 -14.0037C571.447 -13.1486 571.48 -12.2968 571.545 -11.4485C571.636 -10.2471 571.369 -9.04559 570.78 -7.99526C570.19 -6.94493 569.303 -6.09264 568.231 -5.54565L565.35 -4.07499V2.78476L644.628 -37.6552V-44.5116L577.797 -10.4244Z" fill="white"/>
          <path d="M644.628 -30.7926L582.047 1.10544L565.35 9.62724V16.4803L632.198 -17.617C632.354 -16.4191 632.432 -15.2122 632.433 -14.0041C632.43 -9.20951 631.174 -4.49903 628.79 -0.340345C626.407 3.81835 622.978 7.2806 618.844 9.7027C614.711 12.1248 610.016 13.4225 605.227 13.467C600.438 13.5115 595.72 12.3012 591.542 9.95629L591.207 10.1342L585.283 13.1562C590.287 16.793 596.199 18.9742 602.363 19.4588C608.528 19.9433 614.707 18.7124 620.217 15.9019C625.727 13.0915 630.353 8.81093 633.585 3.53326C636.817 -1.74442 638.528 -7.81376 638.53 -14.0041C638.53 -14.8671 638.497 -15.73 638.433 -16.5828C638.342 -17.7838 638.608 -18.9849 639.197 -20.0351C639.786 -21.0853 640.672 -21.9378 641.744 -22.4857L644.628 -23.9563V-30.7926Z" fill="white"/>
        </g>
        <rect x="544" y="-75.5" width="123" height="123" rx="61.5" stroke="#424242"/>
      </g>
      <g clip-path="url(#clip22_1102_969)">
        <rect x="543.5" y="197" width="124" height="124" transform="rotate(-90 543.5 197)" fill="url(#paint14_linear_1102_969)"/>
        <path fill-rule="evenodd" clip-rule="evenodd" d="M633.811 166.484H619.701L605.336 143.711L598.679 150.846V166.484H586.321V149.157L618.681 115.236L618.649 115.204H633.46L614.509 135.843L633.811 166.484Z" fill="white"/>
        <path d="M598.681 103.516V126.787L586.323 139.751V115.683H572.562L583.424 103.516H598.681Z" fill="#59FFA3"/>
      </g>
      <g clip-path="url(#clip23_1102_969)">
        <rect x="512.5" y="222" width="186" height="186" fill="#131315"/>
        <path d="M614.945 277.219C614.945 279.087 614.391 280.913 613.353 282.466C612.316 284.02 610.84 285.23 609.115 285.945C607.389 286.66 605.49 286.847 603.657 286.483C601.825 286.118 600.142 285.219 598.821 283.898C597.5 282.577 596.601 280.894 596.236 279.061C595.872 277.229 596.059 275.33 596.774 273.604C597.489 271.878 598.699 270.403 600.252 269.365C601.806 268.327 603.632 267.773 605.5 267.773C608.005 267.773 610.408 268.769 612.179 270.54C613.95 272.311 614.945 274.714 614.945 277.219Z" fill="white"/>
        <path d="M643.281 267.773C641.413 267.773 639.587 268.327 638.034 269.365C636.48 270.403 635.27 271.878 634.555 273.604C633.84 275.33 633.653 277.229 634.017 279.061C634.382 280.894 635.281 282.577 636.602 283.898C637.923 285.219 639.606 286.118 641.439 286.483C643.271 286.847 645.17 286.66 646.896 285.945C648.622 285.23 650.097 284.02 651.135 282.466C652.173 280.913 652.727 279.087 652.727 277.219C652.727 274.714 651.731 272.311 649.96 270.54C648.189 268.769 645.786 267.773 643.281 267.773Z" fill="white"/>
        <path d="M652.727 315C652.727 316.868 652.173 318.694 651.135 320.248C650.097 321.801 648.622 323.011 646.896 323.726C645.17 324.441 643.271 324.628 641.439 324.264C639.606 323.899 637.923 323 636.602 321.679C635.281 320.358 634.382 318.675 634.017 316.843C633.653 315.01 633.84 313.111 634.555 311.385C635.27 309.66 636.48 308.184 638.034 307.147C639.587 306.109 641.413 305.555 643.281 305.555C645.786 305.555 648.189 306.55 649.96 308.321C651.731 310.092 652.727 312.495 652.727 315Z" fill="white"/>
        <path d="M577.164 267.773H558.273V305.555H577.164V267.773Z" fill="white"/>
        <path d="M577.164 343.336V324.445H558.273V362.227H596.055V343.336H577.164Z" fill="white"/>
        <path d="M614.945 305.555V343.336H596.055V324.445H577.164V305.555H614.945Z" fill="white"/>
      </g>
      <rect x="513" y="222.5" width="185" height="185" rx="92.5" stroke="#424242"/>
      <path d="M605.501 433C571.261 433 543.5 460.761 543.5 495.001C543.5 529.241 571.261 557 605.501 557C639.742 557 667.5 529.242 667.5 495.001C667.5 460.76 639.74 433 605.501 433ZM626.482 515.987C605.414 537.057 578.938 544.742 567.347 533.153C555.757 521.566 563.445 495.088 584.518 474.018C605.587 452.947 632.062 445.26 643.654 456.847C655.244 468.434 647.555 494.912 626.482 515.987Z" fill="#24E5DF"/>
      <g clip-path="url(#clip24_1102_969)" filter="url(#filter21_f_1102_969)">
        <path d="M605.5 706C639.859 706 667.5 678.359 667.5 644C667.5 609.641 639.859 582 605.5 582C571.141 582 543.5 609.641 543.5 644C543.5 678.359 571.141 706 605.5 706Z" fill="#2775CA"/>
        <path d="M622.55 653.817C622.55 644.775 617.125 641.675 606.275 640.384C598.525 639.35 596.975 637.284 596.975 633.667C596.975 630.05 599.559 627.725 604.725 627.725C609.375 627.725 611.959 629.275 613.25 633.15C613.509 633.925 614.284 634.442 615.059 634.442H619.192C620.225 634.442 621 633.667 621 632.634V632.375C619.967 626.692 615.317 622.3 609.375 621.784V615.584C609.375 614.55 608.6 613.775 607.309 613.517H603.434C602.4 613.517 601.625 614.292 601.367 615.584V621.525C593.617 622.559 588.709 627.725 588.709 634.184C588.709 642.709 593.875 646.067 604.725 647.359C611.959 648.65 614.284 650.2 614.284 654.334C614.284 658.468 610.667 661.309 605.759 661.309C599.042 661.309 596.717 658.467 595.942 654.592C595.684 653.559 594.909 653.042 594.134 653.042H589.742C588.709 653.042 587.934 653.817 587.934 654.85V655.109C588.967 661.567 593.1 666.217 601.625 667.509V673.709C601.625 674.742 602.4 675.517 603.692 675.775H607.567C608.6 675.775 609.375 675 609.634 673.709V667.509C617.384 666.217 622.55 660.792 622.55 653.817Z" fill="white"/>
        <path d="M592.325 680.942C572.175 673.709 561.842 651.234 569.334 631.342C573.209 620.492 581.734 612.225 592.325 608.35C593.359 607.834 593.875 607.059 593.875 605.767V602.15C593.875 601.117 593.359 600.342 592.325 600.084C592.067 600.084 591.55 600.084 591.292 600.342C566.75 608.092 553.317 634.184 561.067 658.725C565.717 673.192 576.825 684.3 591.292 688.95C592.325 689.467 593.359 688.95 593.617 687.917C593.875 687.659 593.875 687.4 593.875 686.884V683.267C593.875 682.492 593.1 681.459 592.325 680.942ZM619.709 600.342C618.675 599.825 617.642 600.342 617.384 601.375C617.125 601.634 617.125 601.892 617.125 602.409V606.025C617.125 607.059 617.9 608.092 618.675 608.609C638.825 615.842 649.159 638.317 641.667 658.209C637.792 669.059 629.267 677.325 618.675 681.2C617.642 681.717 617.125 682.492 617.125 683.784V687.4C617.125 688.434 617.642 689.209 618.675 689.467C618.934 689.467 619.45 689.467 619.709 689.209C644.25 681.459 657.684 655.367 649.934 630.825C645.284 616.1 633.917 604.992 619.709 600.342Z" fill="white"/>
      </g>
      <g filter="url(#filter22_f_1102_969)">
        <g clip-path="url(#clip25_1102_969)">
          <rect x="877" y="-45" width="124" height="124" fill="#202020"/>
          <path d="M928.836 -4.74147C930.017 -6.78789 931.39 -7.64037 932.784 -7.72312C935.61 -7.91013 941.93 -3.25586 939.93 -0.49214L943.676 6.04204C946.069 8.04749 948.492 9.6269 950.975 10.6758C950.511 12.6188 951.591 13.3152 952.681 14.0006C951.228 11.4556 954.074 10.0421 955.609 12.5672C957.194 14.7902 957.618 17.0969 956.669 18.8941C955.265 21.5849 951.5 23.5791 949.794 26.0831C953.268 22.9355 957.941 23.2888 959.789 19.6313C960.939 17.3663 958.062 10.6553 956.72 8.39037C954.64 4.91016 952.045 5.91771 951.752 7.03995C948.996 5.53325 946.543 3.14374 944.039 1.14874C945.21 0.120705 945.877 -1.3651 944.595 -2.16536C941.97 -3.82712 938.921 -8.79314 934.964 -9.75991C934.57 -9.85733 934.169 -9.91016 933.77 -9.91016C931.707 -9.91016 929.69 -8.51112 928.836 -4.74147Z" fill="#4E4B66"/>
          <path d="M935.59 54.5396C938.697 54.5396 941.727 54.1222 944.598 53.3479C926.922 58.0992 916.118 37.8621 929.553 23.6315C924.606 22.2917 921.426 17.3046 921.739 11.3516C895.047 30.9246 907.707 54.5396 935.59 54.5396ZM944.603 53.3463C944.631 53.3388 944.658 53.3318 944.686 53.3242C944.659 53.3312 944.63 53.3392 944.603 53.3463ZM944.598 53.3479C944.6 53.3475 944.601 53.3469 944.603 53.3463C944.602 53.3469 944.6 53.3475 944.598 53.3479Z" fill="#C19CFC"/>
          <path d="M936.892 20.2035C939.506 18.9983 942.111 17.3667 944.726 18.1356C941.858 16.2557 938.335 17.1594 934.781 17.4087C930.007 17.7409 925.161 17.3251 921.738 11.3516C923.193 18.9045 929.926 23.4136 936.892 20.2035Z" fill="#C19CFC"/>
          <path d="M934.974 -18.2578C931.996 -14.268 928.15 -10.4032 928.836 -4.74135C929.855 -9.24016 932.531 -10.3622 934.964 -9.7598C938.922 -8.79303 941.97 -3.82701 944.595 -2.16524C945.877 -1.36499 945.21 0.120818 944.039 1.14885C946.543 3.14386 948.996 5.53336 951.752 7.04006C952.045 5.91782 954.64 4.91028 956.72 8.39069C958.063 10.6557 960.939 17.3664 959.789 19.6314C957.941 23.2889 953.268 22.9356 949.794 26.0832C947.674 22.1565 943.434 21.1585 939.144 20.5252C940.89 19.1848 942.667 17.9798 944.726 18.1353C942.112 17.3664 939.507 18.998 936.892 20.2032C929.927 23.4133 923.193 18.9044 921.739 11.3513C921.427 17.3045 924.606 22.2916 929.553 23.6314C916.096 37.8857 926.959 58.1658 944.686 53.3241C959.809 49.1888 970.965 35.0079 970.965 18.1353C970.965 3.17519 962.191 -9.67624 949.653 -15.2762C950.229 -11.9621 950.955 -8.76249 945.15 -4.37799C943.323 -5.9574 941.284 -8.59537 938.891 -10.1437C944.292 -9.97733 945.221 -13.323 946.291 -16.5643C942.843 -17.6914 939.242 -18.2637 935.624 -18.2637C935.407 -18.2637 935.191 -18.2617 934.974 -18.2578ZM934.722 -0.346597C935.388 -0.212016 936.065 0.349202 936.681 0.982935C937.68 2.01157 938.629 2.18874 939.84 1.10788L943.676 6.04216L939.931 -0.492024C939.88 0.0276174 939.466 0.151953 938.962 0.120818C938.084 0.0653793 936.976 -0.564738 935.814 -0.565341C935.453 -0.565341 935.088 -0.504478 934.722 -0.346597ZM952.682 14.0007C953.298 12.9307 954.135 12.2345 955.609 12.5673C955.043 11.6351 954.298 11.2398 953.656 11.2398C952.559 11.2398 951.764 12.395 952.682 14.0007Z" fill="#C19CFC"/>
          <path d="M932.248 -14.7055C930.118 -11.8281 928.361 -8.73114 928.836 -4.74193C929.855 -9.24073 932.531 -10.363 934.964 -9.76038C938.922 -8.79361 941.97 -3.82759 944.595 -2.16582C945.877 -1.36557 945.21 0.120238 944.039 1.14827C946.543 3.14328 948.996 5.53278 951.752 7.03948C952.045 5.91724 954.64 4.90969 956.72 8.3899C958.063 10.6549 960.939 17.3658 959.789 19.6308C957.941 23.2884 953.268 22.935 949.794 26.0826C947.674 22.1559 943.434 21.158 939.144 20.5246C940.89 19.1843 942.667 17.9793 944.726 18.1347C942.112 17.3658 939.507 18.9975 936.892 20.2027C929.927 23.4127 923.193 18.9039 921.739 11.3507C921.427 17.304 924.606 22.2911 929.553 23.6308C920.79 32.9087 922.335 44.7419 929.371 50.5389C949.098 54.5281 967.673 39.0379 967.673 18.1347C967.673 5.23168 960.485 -5.93689 949.996 -11.3703C949.804 -9.28211 948.694 -7.04848 945.15 -4.37857C943.323 -5.95798 941.284 -8.59595 938.891 -10.1442C942.475 -10.0404 944.1 -11.4738 945.089 -13.4071C942.011 -14.3881 938.793 -14.8809 935.572 -14.8809C934.463 -14.8809 933.353 -14.8228 932.248 -14.7055Z" fill="#202020"/>
          <path d="M929.553 23.6317C916.096 37.886 926.959 58.1661 944.686 53.3244C924.405 54.2381 926.413 30.5305 939.275 23.7878C943.898 24.432 948.663 25.2531 950.955 29.4912C954.418 26.3545 959.092 26.6969 960.949 23.0394C961.697 21.5751 960.748 18.2403 959.627 15.4551C960.071 17.1703 960.242 18.7491 959.789 19.6317C957.941 23.2892 953.268 22.9359 949.794 26.0835C947.674 22.1568 943.434 21.1589 939.144 20.5255C940.89 19.1853 942.667 17.9802 944.726 18.1356C942.112 17.3667 939.507 18.9983 936.892 20.2035C929.927 23.4136 923.193 18.9047 921.739 11.3516C921.427 17.3048 924.606 22.2919 929.553 23.6317Z" fill="#262338"/>
        </g>
      </g>
      <g filter="url(#filter23_f_1102_969)">
        <g clip-path="url(#clip26_1102_969)">
          <rect x="877" y="104" width="124" height="124" fill="#0052FF"/>
          <path fill-rule="evenodd" clip-rule="evenodd" d="M982.594 166C982.594 141.923 963.077 122.406 939 122.406C914.923 122.406 895.406 141.923 895.406 166C895.406 190.077 914.923 209.594 939 209.594C963.077 209.594 982.594 190.077 982.594 166ZM949.733 152.066H928.262C926.5 152.066 925.066 153.608 925.066 155.503V176.492C925.066 178.387 926.495 179.929 928.262 179.929H949.733C951.495 179.929 952.929 178.392 952.929 176.492V155.503C952.929 153.608 951.5 152.066 949.733 152.066Z" fill="white"/>
        </g>
      </g>
      <g filter="url(#filter24_f_1102_969)">
        <g clip-path="url(#clip27_1102_969)">
          <rect x="877" y="377" width="124" height="124" transform="rotate(-90 877 377)" fill="#121D31"/>
          <path fill-rule="evenodd" clip-rule="evenodd" d="M970.484 283.516H907.516V346.484H970.484V283.516ZM939.054 300.953L921.562 328.939H956.545L939.054 300.953Z" fill="white"/>
        </g>
      </g>
      <g filter="url(#filter25_f_1102_969)">
        <g clip-path="url(#clip28_1102_969)">
          <rect x="877" y="526" width="124" height="124" transform="rotate(-90 877 526)" fill="url(#paint15_linear_1102_969)"/>
          <g filter="url(#filter26_i_1102_969)">
            <path d="M939 507.594C950.442 507.608 961.428 503.11 969.575 495.075C951.703 481.05 926.333 481.066 908.482 495.127C916.621 503.132 927.584 507.611 939 507.594Z" fill="url(#paint16_linear_1102_969)"/>
            <path d="M982.594 464C982.608 475.442 978.11 486.428 970.075 494.574C956.05 476.707 956.066 451.39 970.136 433.486C977.841 441.352 982.594 452.119 982.594 464Z" fill="url(#paint17_linear_1102_969)"/>
            <path d="M908.413 432.937C926.293 447.066 951.743 447.086 969.639 432.989C961.765 425.211 950.941 420.406 939 420.406C927.552 420.391 916.56 424.894 908.413 432.937Z" fill="url(#paint18_linear_1102_969)"/>
            <path d="M895.406 464C895.391 452.552 899.894 441.56 907.937 433.413C922.066 451.293 922.086 476.743 907.989 494.639C900.211 486.765 895.406 475.945 895.406 464Z" fill="url(#paint19_linear_1102_969)"/>
          </g>
        </g>
      </g>
      <g filter="url(#filter27_f_1102_969)">
        <g clip-path="url(#clip29_1102_969)">
          <rect x="877" y="551" width="124" height="124" fill="#131315"/>
          <path fill-rule="evenodd" clip-rule="evenodd" d="M943.113 581.623C945.394 581.623 947.535 581.93 949.516 582.499C947.576 577.963 943.548 576.672 939.065 576.672C934.573 576.672 930.538 577.968 928.603 582.526C930.57 581.937 932.701 581.623 934.975 581.623H943.113ZM934.453 586.177C923.618 586.177 917.445 594.726 917.445 605.273V616.106C917.445 617.161 918.324 617.996 919.407 617.996H958.642C959.725 617.996 960.604 617.161 960.604 616.106V605.273C960.604 594.726 953.425 586.177 942.591 586.177H934.453ZM939.009 605.366C942.801 605.366 945.875 602.283 945.875 598.479C945.875 594.675 942.801 591.592 939.009 591.592C935.217 591.592 932.143 594.675 932.143 598.479C932.143 602.283 935.217 605.366 939.009 605.366ZM917.445 624.364C917.445 623.309 918.324 622.454 919.407 622.454H958.642C959.725 622.454 960.604 623.309 960.604 624.364V635.821C960.604 637.931 958.847 639.641 956.68 639.641H921.369C919.202 639.641 917.445 637.931 917.445 635.821V624.364Z" fill="#E33E3F"/>
        </g>
      </g>
    </g>
  </g>
  <defs>
    <filter id="filter0_f_1102_969" x="716" y="27.5" width="128" height="128" filterUnits="userSpaceOnUse" color-interpolation-filters="sRGB">
      <feFlood flood-opacity="0" result="BackgroundImageFix"/>
      <feBlend mode="normal" in="SourceGraphic" in2="BackgroundImageFix" result="shape"/>
      <feGaussianBlur stdDeviation="1" result="effect1_foregroundBlur_1102_969"/>
    </filter>
    <filter id="filter1_f_1102_969" x="716" y="474.5" width="128" height="128" filterUnits="userSpaceOnUse" color-interpolation-filters="sRGB">
      <feFlood flood-opacity="0" result="BackgroundImageFix"/>
      <feBlend mode="normal" in="SourceGraphic" in2="BackgroundImageFix" result="shape"/>
      <feGaussianBlur stdDeviation="1" result="effect1_foregroundBlur_1102_969"/>
    </filter>
    <filter id="filter2_f_1102_969" x="206" y="-49" width="132" height="132" filterUnits="userSpaceOnUse" color-interpolation-filters="sRGB">
      <feFlood flood-opacity="0" result="BackgroundImageFix"/>
      <feBlend mode="normal" in="SourceGraphic" in2="BackgroundImageFix" result="shape"/>
      <feGaussianBlur stdDeviation="2" result="effect1_foregroundBlur_1102_969"/>
    </filter>
    <filter id="filter3_f_1102_969" x="208" y="102" width="128" height="128" filterUnits="userSpaceOnUse" color-interpolation-filters="sRGB">
      <feFlood flood-opacity="0" result="BackgroundImageFix"/>
      <feBlend mode="normal" in="SourceGraphic" in2="BackgroundImageFix" result="shape"/>
      <feGaussianBlur stdDeviation="1" result="effect1_foregroundBlur_1102_969"/>
    </filter>
    <filter id="filter4_f_1102_969" x="208" y="251" width="128" height="128" filterUnits="userSpaceOnUse" color-interpolation-filters="sRGB">
      <feFlood flood-opacity="0" result="BackgroundImageFix"/>
      <feBlend mode="normal" in="SourceGraphic" in2="BackgroundImageFix" result="shape"/>
      <feGaussianBlur stdDeviation="1" result="effect1_foregroundBlur_1102_969"/>
    </filter>
    <filter id="filter5_f_1102_969" x="208" y="400" width="128" height="128" filterUnits="userSpaceOnUse" color-interpolation-filters="sRGB">
      <feFlood flood-opacity="0" result="BackgroundImageFix"/>
      <feBlend mode="normal" in="SourceGraphic" in2="BackgroundImageFix" result="shape"/>
      <feGaussianBlur stdDeviation="1" result="effect1_foregroundBlur_1102_969"/>
    </filter>
    <filter id="filter6_f_1102_969" x="206" y="547" width="132" height="132" filterUnits="userSpaceOnUse" color-interpolation-filters="sRGB">
      <feFlood flood-opacity="0" result="BackgroundImageFix"/>
      <feBlend mode="normal" in="SourceGraphic" in2="BackgroundImageFix" result="shape"/>
      <feGaussianBlur stdDeviation="2" result="effect1_foregroundBlur_1102_969"/>
    </filter>
    <filter id="filter7_f_1102_969" x="367" y="27.5" width="128" height="128" filterUnits="userSpaceOnUse" color-interpolation-filters="sRGB">
      <feFlood flood-opacity="0" result="BackgroundImageFix"/>
      <feBlend mode="normal" in="SourceGraphic" in2="BackgroundImageFix" result="shape"/>
      <feGaussianBlur stdDeviation="1" result="effect1_foregroundBlur_1102_969"/>
    </filter>
    <filter id="filter8_f_1102_969" x="367" y="474.5" width="128" height="128" filterUnits="userSpaceOnUse" color-interpolation-filters="sRGB">
      <feFlood flood-opacity="0" result="BackgroundImageFix"/>
      <feBlend mode="normal" in="SourceGraphic" in2="BackgroundImageFix" result="shape"/>
      <feGaussianBlur stdDeviation="1" result="effect1_foregroundBlur_1102_969"/>
    </filter>
    <filter id="filter9_f_1102_969" x="47" y="25.5" width="132" height="132" filterUnits="userSpaceOnUse" color-interpolation-filters="sRGB">
      <feFlood flood-opacity="0" result="BackgroundImageFix"/>
      <feBlend mode="normal" in="SourceGraphic" in2="BackgroundImageFix" result="shape"/>
      <feGaussianBlur stdDeviation="2" result="effect1_foregroundBlur_1102_969"/>
    </filter>
    <filter id="filter10_f_1102_969" x="47" y="174.5" width="132" height="132" filterUnits="userSpaceOnUse" color-interpolation-filters="sRGB">
      <feFlood flood-opacity="0" result="BackgroundImageFix"/>
      <feBlend mode="normal" in="SourceGraphic" in2="BackgroundImageFix" result="shape"/>
      <feGaussianBlur stdDeviation="2" result="effect1_foregroundBlur_1102_969"/>
    </filter>
    <filter id="filter11_f_1102_969" x="-196.203" y="-51.2656" width="705.917" height="705.916" filterUnits="userSpaceOnUse" color-interpolation-filters="sRGB">
      <feFlood flood-opacity="0" result="BackgroundImageFix"/>
      <feBlend mode="normal" in="SourceGraphic" in2="BackgroundImageFix" result="shape"/>
      <feGaussianBlur stdDeviation="150" result="effect1_foregroundBlur_1102_969"/>
    </filter>
    <filter id="filter12_f_1102_969" x="-443.938" y="-303.602" width="959.683" height="959.682" filterUnits="userSpaceOnUse" color-interpolation-filters="sRGB">
      <feFlood flood-opacity="0" result="BackgroundImageFix"/>
      <feBlend mode="normal" in="SourceGraphic" in2="BackgroundImageFix" result="shape"/>
      <feGaussianBlur stdDeviation="200" result="effect1_foregroundBlur_1102_969"/>
    </filter>
    <filter id="filter13_f_1102_969" x="47" y="323.5" width="132" height="132" filterUnits="userSpaceOnUse" color-interpolation-filters="sRGB">
      <feFlood flood-opacity="0" result="BackgroundImageFix"/>
      <feBlend mode="normal" in="SourceGraphic" in2="BackgroundImageFix" result="shape"/>
      <feGaussianBlur stdDeviation="2" result="effect1_foregroundBlur_1102_969"/>
    </filter>
    <filter id="filter14_f_1102_969" x="47" y="472.5" width="132" height="132" filterUnits="userSpaceOnUse" color-interpolation-filters="sRGB">
      <feFlood flood-opacity="0" result="BackgroundImageFix"/>
      <feBlend mode="normal" in="SourceGraphic" in2="BackgroundImageFix" result="shape"/>
      <feGaussianBlur stdDeviation="2" result="effect1_foregroundBlur_1102_969"/>
    </filter>
    <filter id="filter15_f_1102_969" x="1032" y="25.5" width="132" height="132" filterUnits="userSpaceOnUse" color-interpolation-filters="sRGB">
      <feFlood flood-opacity="0" result="BackgroundImageFix"/>
      <feBlend mode="normal" in="SourceGraphic" in2="BackgroundImageFix" result="shape"/>
      <feGaussianBlur stdDeviation="2" result="effect1_foregroundBlur_1102_969"/>
    </filter>
    <filter id="filter16_f_1102_969" x="1079.44" y="71.7988" width="36.084" height="36.084" filterUnits="userSpaceOnUse" color-interpolation-filters="sRGB">
      <feFlood flood-opacity="0" result="BackgroundImageFix"/>
      <feBlend mode="normal" in="SourceGraphic" in2="BackgroundImageFix" result="shape"/>
      <feGaussianBlur stdDeviation="2.5" result="effect1_foregroundBlur_1102_969"/>
    </filter>
    <filter id="filter17_f_1102_969" x="1032" y="174.5" width="132" height="132" filterUnits="userSpaceOnUse" color-interpolation-filters="sRGB">
      <feFlood flood-opacity="0" result="BackgroundImageFix"/>
      <feBlend mode="normal" in="SourceGraphic" in2="BackgroundImageFix" result="shape"/>
      <feGaussianBlur stdDeviation="2" result="effect1_foregroundBlur_1102_969"/>
    </filter>
    <filter id="filter18_f_1102_969" x="1032" y="323.5" width="132" height="132" filterUnits="userSpaceOnUse" color-interpolation-filters="sRGB">
      <feFlood flood-opacity="0" result="BackgroundImageFix"/>
      <feBlend mode="normal" in="SourceGraphic" in2="BackgroundImageFix" result="shape"/>
      <feGaussianBlur stdDeviation="2" result="effect1_foregroundBlur_1102_969"/>
    </filter>
    <filter id="filter19_f_1102_969" x="1032" y="472.5" width="132" height="132" filterUnits="userSpaceOnUse" color-interpolation-filters="sRGB">
      <feFlood flood-opacity="0" result="BackgroundImageFix"/>
      <feBlend mode="normal" in="SourceGraphic" in2="BackgroundImageFix" result="shape"/>
      <feGaussianBlur stdDeviation="2" result="effect1_foregroundBlur_1102_969"/>
    </filter>
    <filter id="filter20_f_1102_969" x="541.5" y="-78" width="128" height="128" filterUnits="userSpaceOnUse" color-interpolation-filters="sRGB">
      <feFlood flood-opacity="0" result="BackgroundImageFix"/>
      <feBlend mode="normal" in="SourceGraphic" in2="BackgroundImageFix" result="shape"/>
      <feGaussianBlur stdDeviation="1" result="effect1_foregroundBlur_1102_969"/>
    </filter>
    <filter id="filter21_f_1102_969" x="541.5" y="580" width="128" height="128" filterUnits="userSpaceOnUse" color-interpolation-filters="sRGB">
      <feFlood flood-opacity="0" result="BackgroundImageFix"/>
      <feBlend mode="normal" in="SourceGraphic" in2="BackgroundImageFix" result="shape"/>
      <feGaussianBlur stdDeviation="1" result="effect1_foregroundBlur_1102_969"/>
    </filter>
    <filter id="filter22_f_1102_969" x="873" y="-49" width="132" height="132" filterUnits="userSpaceOnUse" color-interpolation-filters="sRGB">
      <feFlood flood-opacity="0" result="BackgroundImageFix"/>
      <feBlend mode="normal" in="SourceGraphic" in2="BackgroundImageFix" result="shape"/>
      <feGaussianBlur stdDeviation="2" result="effect1_foregroundBlur_1102_969"/>
    </filter>
    <filter id="filter23_f_1102_969" x="875" y="102" width="128" height="128" filterUnits="userSpaceOnUse" color-interpolation-filters="sRGB">
      <feFlood flood-opacity="0" result="BackgroundImageFix"/>
      <feBlend mode="normal" in="SourceGraphic" in2="BackgroundImageFix" result="shape"/>
      <feGaussianBlur stdDeviation="1" result="effect1_foregroundBlur_1102_969"/>
    </filter>
    <filter id="filter24_f_1102_969" x="875" y="251" width="128" height="128" filterUnits="userSpaceOnUse" color-interpolation-filters="sRGB">
      <feFlood flood-opacity="0" result="BackgroundImageFix"/>
      <feBlend mode="normal" in="SourceGraphic" in2="BackgroundImageFix" result="shape"/>
      <feGaussianBlur stdDeviation="1" result="effect1_foregroundBlur_1102_969"/>
    </filter>
    <filter id="filter25_f_1102_969" x="875" y="400" width="128" height="128" filterUnits="userSpaceOnUse" color-interpolation-filters="sRGB">
      <feFlood flood-opacity="0" result="BackgroundImageFix"/>
      <feBlend mode="normal" in="SourceGraphic" in2="BackgroundImageFix" result="shape"/>
      <feGaussianBlur stdDeviation="1" result="effect1_foregroundBlur_1102_969"/>
    </filter>
    <filter id="filter26_i_1102_969" x="895.406" y="410.406" width="87.1875" height="97.1875" filterUnits="userSpaceOnUse" color-interpolation-filters="sRGB">
      <feFlood flood-opacity="0" result="BackgroundImageFix"/>
      <feBlend mode="normal" in="SourceGraphic" in2="BackgroundImageFix" result="shape"/>
      <feColorMatrix in="SourceAlpha" type="matrix" values="0 0 0 0 0 0 0 0 0 0 0 0 0 0 0 0 0 0 127 0" result="hardAlpha"/>
      <feOffset dy="-12"/>
      <feGaussianBlur stdDeviation="5"/>
      <feComposite in2="hardAlpha" operator="arithmetic" k2="-1" k3="1"/>
      <feColorMatrix type="matrix" values="0 0 0 0 1 0 0 0 0 1 0 0 0 0 1 0 0 0 1 0"/>
      <feBlend mode="normal" in2="shape" result="effect1_innerShadow_1102_969"/>
    </filter>
    <filter id="filter27_f_1102_969" x="873" y="547" width="132" height="132" filterUnits="userSpaceOnUse" color-interpolation-filters="sRGB">
      <feFlood flood-opacity="0" result="BackgroundImageFix"/>
      <feBlend mode="normal" in="SourceGraphic" in2="BackgroundImageFix" result="shape"/>
      <feGaussianBlur stdDeviation="2" result="effect1_foregroundBlur_1102_969"/>
    </filter>
    <radialGradient id="paint0_radial_1102_969" cx="0" cy="0" r="1" gradientUnits="userSpaceOnUse" gradientTransform="translate(600 315) rotate(90) scale(650 726)">
      <stop/>
      <stop offset="1" stop-opacity="0"/>
    </radialGradient>
    <linearGradient id="paint1_linear_1102_969" x1="824.684" y1="46.8164" x2="736.285" y2="135.215" gradientUnits="userSpaceOnUse">
      <stop stop-color="#C5ACFA"/>
      <stop offset="1" stop-color="#7051F8"/>
    </linearGradient>
    <linearGradient id="paint2_linear_1102_969" x1="334" y1="439" x2="210" y2="439" gradientUnits="userSpaceOnUse">
      <stop stop-color="#194292"/>
      <stop offset="1" stop-color="#082057"/>
    </linearGradient>
    <radialGradient id="paint3_radial_1102_969" cx="0" cy="0" r="1" gradientUnits="userSpaceOnUse" gradientTransform="translate(238.537 348.906) rotate(-90) scale(69.374 68.9205)">
      <stop offset="0.825658" stop-color="#E94416"/>
      <stop offset="1" stop-color="#835CCC"/>
    </radialGradient>
    <radialGradient id="paint4_radial_1102_969" cx="0" cy="0" r="1" gradientUnits="userSpaceOnUse" gradientTransform="translate(238.094 348.907) rotate(-90) scale(54.4284)">
      <stop offset="0.795082" stop-color="#FBE847"/>
      <stop offset="1" stop-color="#EC9E30"/>
    </radialGradient>
    <radialGradient id="paint5_radial_1102_969" cx="0" cy="0" r="1" gradientUnits="userSpaceOnUse" gradientTransform="translate(238.54 348.906) rotate(-90) scale(41.0444)">
      <stop offset="0.755435" stop-color="#55B3DF"/>
      <stop offset="1" stop-color="#6AD445"/>
    </radialGradient>
    <linearGradient id="paint6_linear_1102_969" x1="431" y1="29.5" x2="431" y2="153.5" gradientUnits="userSpaceOnUse">
      <stop stop-color="#60B5CD"/>
      <stop offset="1" stop-color="#4693AC"/>
    </linearGradient>
    <linearGradient id="paint7_linear_1102_969" x1="88.4067" y1="71.808" x2="108.698" y2="78.6467" gradientUnits="userSpaceOnUse">
      <stop stop-color="#0129BA"/>
      <stop offset="1" stop-color="#1648F8"/>
    </linearGradient>
    <linearGradient id="paint8_linear_1102_969" x1="71.8281" y1="201.75" x2="154.172" y2="279.205" gradientUnits="userSpaceOnUse">
      <stop stop-color="#388CFE"/>
      <stop offset="1" stop-color="#4B1660"/>
    </linearGradient>
    <linearGradient id="paint9_linear_1102_969" x1="157.684" y1="493.816" x2="69.2852" y2="582.215" gradientUnits="userSpaceOnUse">
      <stop stop-color="#50AAEB"/>
      <stop offset="1" stop-color="#377BDA"/>
    </linearGradient>
    <linearGradient id="paint10_linear_1102_969" x1="1142.68" y1="170.816" x2="1054.29" y2="259.215" gradientUnits="userSpaceOnUse">
      <stop stop-color="#2A2A2C"/>
      <stop offset="1" stop-color="#1B1A1F"/>
    </linearGradient>
    <linearGradient id="paint11_linear_1102_969" x1="1083.06" y1="76.5609" x2="1111.56" y2="91.5" gradientUnits="userSpaceOnUse">
      <stop stop-color="#E5A93B"/>
      <stop offset="1" stop-color="#E94F34"/>
    </linearGradient>
    <radialGradient id="paint12_radial_1102_969" cx="0" cy="0" r="1" gradientUnits="userSpaceOnUse" gradientTransform="translate(1093.21 85.5726) rotate(45) scale(16.9017)">
      <stop stop-color="#F4BA3A"/>
      <stop offset="1" stop-color="#E85833"/>
    </radialGradient>
    <linearGradient id="paint13_linear_1102_969" x1="1142.68" y1="468.816" x2="1054.29" y2="557.215" gradientUnits="userSpaceOnUse">
      <stop stop-color="#FAF5EF"/>
      <stop offset="1" stop-color="#EFD9B7"/>
    </linearGradient>
    <linearGradient id="paint14_linear_1102_969" x1="650.184" y1="214.316" x2="561.785" y2="302.715" gradientUnits="userSpaceOnUse">
      <stop stop-color="#19274C"/>
      <stop offset="1" stop-color="#11172D"/>
    </linearGradient>
    <linearGradient id="paint15_linear_1102_969" x1="983.684" y1="543.316" x2="895.285" y2="631.715" gradientUnits="userSpaceOnUse">
      <stop stop-color="#6C2CF2"/>
      <stop offset="1" stop-color="#DC76F7"/>
    </linearGradient>
    <linearGradient id="paint16_linear_1102_969" x1="939" y1="420.406" x2="939" y2="507.594" gradientUnits="userSpaceOnUse">
      <stop stop-color="white"/>
      <stop offset="1" stop-color="white" stop-opacity="0.75"/>
    </linearGradient>
    <linearGradient id="paint17_linear_1102_969" x1="939" y1="420.406" x2="939" y2="507.594" gradientUnits="userSpaceOnUse">
      <stop stop-color="white"/>
      <stop offset="1" stop-color="white" stop-opacity="0.75"/>
    </linearGradient>
    <linearGradient id="paint18_linear_1102_969" x1="939" y1="420.406" x2="939" y2="507.594" gradientUnits="userSpaceOnUse">
      <stop stop-color="white"/>
      <stop offset="1" stop-color="white" stop-opacity="0.75"/>
    </linearGradient>
    <linearGradient id="paint19_linear_1102_969" x1="939" y1="420.406" x2="939" y2="507.594" gradientUnits="userSpaceOnUse">
      <stop stop-color="white"/>
      <stop offset="1" stop-color="white" stop-opacity="0.75"/>
    </linearGradient>
    <clipPath id="clip0_1102_969">
      <rect width="1200" height="630" fill="white"/>
    </clipPath>
    <clipPath id="clip1_1102_969">
      <rect x="718" y="29.5" width="124" height="124" rx="62" fill="white"/>
    </clipPath>
    <clipPath id="clip2_1102_969">
      <rect width="124" height="124" fill="white" transform="translate(718 178.5)"/>
    </clipPath>
    <clipPath id="clip3_1102_969">
      <rect x="718" y="327.5" width="124" height="124" rx="62" fill="white"/>
    </clipPath>
    <clipPath id="clip4_1102_969">
      <rect x="718" y="476.5" width="124" height="124" rx="62" fill="white"/>
    </clipPath>
    <clipPath id="clip5_1102_969">
      <rect width="124" height="124" fill="white" transform="translate(210 104)"/>
    </clipPath>
    <clipPath id="clip6_1102_969">
      <rect x="210" y="253" width="124" height="124" rx="62" fill="white"/>
    </clipPath>
    <clipPath id="clip7_1102_969">
      <rect width="124" height="124" fill="white" transform="translate(210 402)"/>
    </clipPath>
    <clipPath id="clip8_1102_969">
      <rect x="210" y="551" width="124" height="124" fill="white"/>
    </clipPath>
    <clipPath id="clip9_1102_969">
      <rect x="369" y="29.5" width="124" height="124" rx="62" fill="white"/>
    </clipPath>
    <clipPath id="clip10_1102_969">
      <rect width="124" height="124" fill="white" transform="translate(369 178.5)"/>
    </clipPath>
    <clipPath id="clip11_1102_969">
      <rect x="369" y="327.5" width="124" height="124" rx="62" fill="white"/>
    </clipPath>
    <clipPath id="clip12_1102_969">
      <rect x="369" y="476.5" width="124" height="124" rx="62" fill="white"/>
    </clipPath>
    <clipPath id="clip13_1102_969">
      <rect width="73.9114" height="84.7656" fill="white" transform="translate(393.945 496.117)"/>
    </clipPath>
    <clipPath id="clip14_1102_969">
      <rect x="51" y="29.5" width="124" height="124" rx="62" fill="white"/>
    </clipPath>
    <clipPath id="clip15_1102_969">
      <rect x="51" y="178.5" width="124" height="124" rx="62" fill="white"/>
    </clipPath>
    <clipPath id="clip16_1102_969">
      <rect x="51" y="327.5" width="124" height="124" rx="62" fill="white"/>
    </clipPath>
    <clipPath id="clip17_1102_969">
      <rect x="51" y="476.5" width="124" height="124" rx="62" fill="white"/>
    </clipPath>
    <clipPath id="clip18_1102_969">
      <rect x="1036" y="29.5" width="124" height="124" rx="62" fill="white"/>
    </clipPath>
    <clipPath id="clip19_1102_969">
      <rect x="1036" y="178.5" width="124" height="124" rx="62" fill="white"/>
    </clipPath>
    <clipPath id="clip20_1102_969">
      <rect x="1036" y="327.5" width="124" height="124" rx="62" fill="white"/>
    </clipPath>
    <clipPath id="clip21_1102_969">
      <rect x="543.5" y="-76" width="124" height="124" rx="62" fill="white"/>
    </clipPath>
    <clipPath id="clip22_1102_969">
      <rect x="543.5" y="73" width="124" height="124" rx="62" fill="white"/>
    </clipPath>
    <clipPath id="clip23_1102_969">
      <rect x="512.5" y="222" width="186" height="186" rx="93" fill="white"/>
    </clipPath>
    <clipPath id="clip24_1102_969">
      <rect width="124" height="124" fill="white" transform="translate(543.5 582)"/>
    </clipPath>
    <clipPath id="clip25_1102_969">
      <rect x="877" y="-45" width="124" height="124" rx="62" fill="white"/>
    </clipPath>
    <clipPath id="clip26_1102_969">
      <rect x="877" y="104" width="124" height="124" rx="62" fill="white"/>
    </clipPath>
    <clipPath id="clip27_1102_969">
      <rect x="877" y="253" width="124" height="124" rx="62" fill="white"/>
    </clipPath>
    <clipPath id="clip28_1102_969">
      <rect x="877" y="402" width="124" height="124" rx="62" fill="white"/>
    </clipPath>
    <clipPath id="clip29_1102_969">
      <rect x="877" y="551" width="124" height="124" rx="62" fill="white"/>
    </clipPath>
  </defs>
</svg>
