<svg width="1620" height="176" viewBox="0 0 1620 176" fill="none"
  xmlns="http://www.w3.org/2000/svg">
  <line x1="275" y1="88" x2="350" y2="88" stroke="url(#paint0_linear_1101_2)" stroke-width="10"/>
  <line x1="474" y1="88" x2="549" y2="88" stroke="url(#paint1_linear_1101_2)" stroke-width="10"/>
  <line x1="673" y1="88" x2="748" y2="88" stroke="url(#paint2_linear_1101_2)" stroke-width="10"/>
  <line x1="872" y1="88" x2="947" y2="88" stroke="url(#paint3_linear_1101_2)" stroke-width="10"/>
  <line x1="1071" y1="88" x2="1146" y2="88" stroke="url(#paint4_linear_1101_2)" stroke-width="10"/>
  <line x1="1270" y1="88" x2="1345" y2="88" stroke="url(#paint5_linear_1101_2)" stroke-width="10"/>
  <rect x="149.5" y="24.5" width="127" height="127" rx="63.5" fill="white"/>
  <path d="M212.272 34L211.545 36.4601V107.845L212.272 108.568L245.545 88.9812L212.272 34Z" fill="#343434"/>
  <path d="M212.273 34L179 88.9812L212.273 108.568V34Z" fill="#8C8C8C"/>
  <path d="M212.271 114.842L211.862 115.339V140.768L212.271 141.96L245.564 95.2651L212.271 114.842Z" fill="#3C3C3B"/>
  <path d="M212.273 141.96V114.842L179 95.2651L212.273 141.96Z" fill="#8C8C8C"/>
  <path d="M212.272 108.568L245.544 88.981L212.272 73.9197V108.568Z" fill="#141414"/>
  <path d="M179 88.981L212.272 108.568V73.9197L179 88.981Z" fill="#393939"/>
  <rect x="149.5" y="24.5" width="127" height="127" rx="63.5" stroke="#424242"/>
  <rect x="348.5" y="24.5" width="127" height="127" rx="63.5" fill="black"/>
  <path d="M383.403 91.6917C383.243 90.4632 383.162 89.2255 383.161 87.9865C383.168 83.043 384.464 78.1868 386.922 73.8992C389.38 69.6116 392.915 66.0412 397.176 63.5418C401.436 61.0423 406.275 59.7006 411.214 59.6493C416.152 59.5981 421.017 60.8392 425.329 63.2497L431.811 59.9432C426.644 56.1891 420.541 53.9382 414.176 53.4392C407.811 52.9402 401.433 54.2126 395.745 57.1157C390.057 60.0187 385.282 64.4395 381.948 69.8894C378.613 75.3392 376.849 81.606 376.849 87.9969C376.849 88.8796 376.883 89.7588 376.95 90.6346C377.043 91.8747 376.769 93.1149 376.16 94.1992C375.551 95.2834 374.636 96.1632 373.529 96.7278L370.555 98.2459V105.327L452.391 63.5825V56.5049L383.403 91.6917Z" fill="white"/>
  <path d="M452.391 70.6664L387.79 103.593L370.555 112.39V119.464L439.559 84.267C439.72 85.5036 439.801 86.7494 439.802 87.9964C439.799 92.9457 438.502 97.8082 436.042 102.101C433.581 106.394 430.042 109.968 425.775 112.468C421.508 114.968 416.662 116.308 411.718 116.354C406.775 116.4 401.905 115.15 397.592 112.73L397.246 112.913L391.131 116.033C396.297 119.787 402.399 122.039 408.763 122.539C415.126 123.039 421.504 121.768 427.192 118.867C432.879 115.966 437.655 111.547 440.991 106.1C444.327 100.652 446.094 94.3865 446.096 87.9964C446.096 87.1057 446.062 86.2149 445.996 85.3345C445.902 84.0948 446.177 82.8551 446.785 81.771C447.393 80.6869 448.307 79.8068 449.413 79.2413L452.391 77.7232V70.6664Z" fill="white"/>
  <rect x="348.5" y="24.5" width="127" height="127" rx="63.5" stroke="#424242"/>
  <rect x="547" y="24" width="128" height="128" rx="64" fill="#8247E5"/>
  <path d="M631.954 74.0618C630.418 73.1805 628.454 73.1805 626.716 74.0618L614.475 81.3142L606.163 85.9225L594.149 93.1497C592.612 94.0311 590.648 94.0311 588.91 93.1497L579.515 87.4334C577.979 86.5521 576.896 84.7893 576.896 82.8251V71.8458C576.896 70.083 577.777 68.3455 579.515 67.2375L588.91 61.7478C590.446 60.8665 592.411 60.8665 594.149 61.7478L603.544 67.4641C605.08 68.3455 606.163 70.1082 606.163 72.0725V79.3249L614.475 74.4899V67.0361C614.475 65.2733 613.593 63.5357 611.855 62.4277L594.376 52.1031C592.839 51.2217 590.875 51.2217 589.137 52.1031L571.229 62.6543C569.491 63.5357 568.609 65.2985 568.609 67.0361V87.6601C568.609 89.4227 569.491 91.1603 571.229 92.2683L588.935 102.593C590.472 103.474 592.436 103.474 594.174 102.593L606.188 95.5672L614.5 90.7322L626.514 83.7065C628.05 82.8251 630.015 82.8251 631.753 83.7065L641.148 89.1962C642.684 90.0775 643.767 91.8402 643.767 93.8045V104.784C643.767 106.547 642.886 108.284 641.148 109.392L631.98 114.882C630.443 115.763 628.479 115.763 626.741 114.882L617.321 109.392C615.784 108.511 614.701 106.748 614.701 104.784V97.7581L606.39 102.593V109.845C606.39 111.608 607.271 113.346 609.009 114.454L626.716 124.778C628.252 125.66 630.217 125.66 631.954 124.778L649.661 114.454C651.197 113.572 652.28 111.81 652.28 109.845V88.9947C652.28 87.2319 651.399 85.4945 649.661 84.3863L631.954 74.0618Z" fill="white"/>
  <rect x="746.5" y="24.5" width="127" height="127" rx="63.5" fill="#FCFF42"/>
  <path d="M842 56H778V120H842V97.6585H831.372C827.713 105.813 819.475 111.478 810.05 111.478C797.05 111.478 786.522 100.85 786.522 87.9499C786.505 75.0496 797.05 64.5221 810.05 64.5221C819.659 64.5221 827.897 70.3708 831.556 78.7092H842V56Z" fill="black"/>
  <rect x="746.5" y="24.5" width="127" height="127" rx="63.5" stroke="#424242"/>
  <g clip-path="url(#clip0_1101_2)">
    <rect x="945" y="24" width="128" height="128" rx="64" fill="#0052FF"/>
    <path d="M1008.92 133.156C1033.9 133.156 1054.15 112.939 1054.15 88C1054.15 63.0613 1033.9 42.8445 1008.92 42.8445C985.219 42.8445 965.775 61.0418 963.844 84.2044H1023.63V91.7956H963.844C965.775 114.958 985.219 133.156 1008.92 133.156Z" fill="white"/>
  </g>
  <rect x="1144" y="24" width="128" height="128" rx="64" fill="#FF0420"/>
  <path d="M1189.34 104.998C1185.52 104.998 1182.4 104.102 1179.97 102.31C1177.56 100.493 1176.36 97.8816 1176.36 94.528C1176.36 93.8112 1176.43 92.9664 1176.59 91.9424C1177 89.6384 1177.59 86.8736 1178.35 83.6224C1180.53 74.816 1186.16 70.4128 1195.22 70.4128C1197.68 70.4128 1199.91 70.8224 1201.86 71.6672C1203.8 72.4608 1205.34 73.6896 1206.46 75.328C1207.59 76.9408 1208.15 78.8608 1208.15 81.088C1208.15 81.7536 1208.08 82.5984 1207.92 83.6224C1207.44 86.464 1206.87 89.2544 1206.18 91.9424C1205.06 96.32 1203.14 99.6224 1200.37 101.798C1197.63 103.949 1193.94 104.998 1189.34 104.998ZM1190.03 98.0864C1191.82 98.0864 1193.33 97.5488 1194.58 96.4992C1195.86 95.4496 1196.79 93.8368 1197.32 91.6352C1198.07 88.6144 1198.63 86.0032 1199.01 83.7504C1199.14 83.0848 1199.22 82.3936 1199.22 81.6768C1199.22 78.7584 1197.71 77.2992 1194.66 77.2992C1192.87 77.2992 1191.33 77.8368 1190.05 78.8864C1188.8 79.936 1187.9 81.5488 1187.37 83.7504C1186.78 85.9008 1186.21 88.512 1185.62 91.6352C1185.5 92.2752 1185.42 92.9408 1185.42 93.6576C1185.39 96.6272 1186.96 98.0864 1190.03 98.0864Z" fill="white"/>
  <path d="M1210.38 104.538C1210.02 104.538 1209.77 104.435 1209.56 104.205C1209.41 103.949 1209.36 103.667 1209.41 103.334L1216.04 72.1024C1216.09 71.744 1216.27 71.4624 1216.58 71.232C1216.86 71.0016 1217.16 70.8992 1217.5 70.8992H1230.27C1233.83 70.8992 1236.67 71.6416 1238.82 73.1008C1241 74.5856 1242.1 76.7104 1242.1 79.5008C1242.1 80.2944 1242 81.1392 1241.82 82.0096C1241.02 85.696 1239.41 88.4096 1236.95 90.176C1234.55 91.9424 1231.24 92.8128 1227.05 92.8128H1220.57L1218.37 103.334C1218.29 103.693 1218.14 103.974 1217.83 104.205C1217.55 104.435 1217.24 104.538 1216.91 104.538H1210.38ZM1227.38 86.1824C1228.74 86.1824 1229.89 85.824 1230.89 85.0816C1231.91 84.3392 1232.58 83.2896 1232.91 81.9072C1233.01 81.3696 1233.06 80.8832 1233.06 80.4736C1233.06 79.552 1232.78 78.8352 1232.24 78.3488C1231.7 77.8368 1230.76 77.5808 1229.45 77.5808H1223.69L1221.87 86.1824H1227.38Z" fill="white"/>
  <rect x="1343" y="24" width="128" height="128" rx="64" fill="#E84142"/>
  <path d="M1376.14 113.384H1388.56C1391.48 113.384 1392.95 113.384 1394.25 113.022C1395.68 112.597 1396.99 111.843 1398.07 110.805C1399.07 109.856 1399.79 108.598 1401.21 106.116L1401.25 106.041L1417.36 77.5649C1418.79 75.0651 1419.5 73.8072 1419.81 72.4866C1420.16 71.0558 1420.16 69.5465 1419.81 68.1157C1419.5 66.8051 1418.78 65.5562 1417.37 63.0937L1411.04 52.0319C1409.73 49.7364 1409.07 48.5887 1408.24 48.1642C1407.34 47.7083 1406.27 47.7083 1405.38 48.1642C1404.54 48.5887 1403.88 49.7364 1402.58 52.0319L1371.91 106.088C1370.62 108.352 1369.98 109.485 1370.02 110.412C1370.09 111.419 1370.61 112.33 1371.45 112.881C1372.24 113.384 1373.53 113.384 1376.14 113.384Z" fill="white"/>
  <path d="M1437.72 113.384H1419.93C1417.3 113.384 1415.98 113.384 1415.21 112.881C1414.36 112.33 1413.84 111.403 1413.78 110.397C1413.73 109.476 1414.38 108.355 1415.68 106.11L1415.68 106.11L1415.71 106.057L1424.6 90.8068C1425.9 88.5585 1426.56 87.4422 1427.38 87.0177C1428.27 86.5617 1429.33 86.5617 1430.22 87.0177C1431.04 87.431 1431.67 88.4999 1432.92 90.6163L1432.92 90.6194L1433.02 90.7911L1441.94 106.042C1441.98 106.117 1442.02 106.191 1442.07 106.263L1442.07 106.264C1443.3 108.396 1443.93 109.484 1443.89 110.381C1443.84 111.387 1443.31 112.315 1442.46 112.866C1441.67 113.384 1440.35 113.384 1437.72 113.384Z" fill="white"/>
  <defs>
    <linearGradient id="paint0_linear_1101_2" x1="275" y1="93" x2="350" y2="93" gradientUnits="userSpaceOnUse">
      <stop stop-color="white"/>
      <stop offset="1"/>
    </linearGradient>
    <linearGradient id="paint1_linear_1101_2" x1="474" y1="93" x2="549" y2="93" gradientUnits="userSpaceOnUse">
      <stop/>
      <stop offset="1" stop-color="#8247E5"/>
    </linearGradient>
    <linearGradient id="paint2_linear_1101_2" x1="673" y1="93" x2="748" y2="93" gradientUnits="userSpaceOnUse">
      <stop stop-color="#8247E5"/>
      <stop offset="1" stop-color="#FCFF42"/>
    </linearGradient>
    <linearGradient id="paint3_linear_1101_2" x1="872" y1="93" x2="947" y2="93" gradientUnits="userSpaceOnUse">
      <stop stop-color="#FCFF42"/>
      <stop offset="1" stop-color="#0052FF"/>
    </linearGradient>
    <linearGradient id="paint4_linear_1101_2" x1="1071" y1="93" x2="1146" y2="93" gradientUnits="userSpaceOnUse">
      <stop stop-color="#0052FF"/>
      <stop offset="1" stop-color="#FF0420"/>
    </linearGradient>
    <linearGradient id="paint5_linear_1101_2" x1="1270" y1="93" x2="1345" y2="93" gradientUnits="userSpaceOnUse">
      <stop stop-color="#FF0420"/>
      <stop offset="1" stop-color="#E84142"/>
    </linearGradient>
    <clipPath id="clip0_1101_2">
      <rect x="945" y="24" width="128" height="128" rx="64" fill="white"/>
    </clipPath>
  </defs>
</svg>
