<svg width="24" height="24" viewBox="0 0 24 24" fill="none" xmlns="http://www.w3.org/2000/svg">
<rect width="24" height="24" rx="4" fill="#FAFAFA"/>
<path fill-rule="evenodd" clip-rule="evenodd" d="M14.533 6.2253C14.8334 5.9249 15.3204 5.9249 15.6209 6.2253L17.7747 8.37915C18.0751 8.67955 18.0751 9.1666 17.7747 9.46701C17.4743 9.76741 16.9872 9.76741 16.6868 9.46701L15.8462 8.62632V17.2308C15.8462 17.6556 15.5018 18 15.0769 18C14.6521 18 14.3077 17.6556 14.3077 17.2308V8.62632L13.467 9.46701C13.1666 9.76741 12.6796 9.76741 12.3791 9.46701C12.0787 9.1666 12.0787 8.67955 12.3791 8.37915L14.533 6.2253ZM8.37915 11.1484C8.67955 10.848 9.1666 10.848 9.46701 11.1484L11.6209 13.3022C11.9213 13.6026 11.9213 14.0897 11.6209 14.3901C11.3204 14.6905 10.8334 14.6905 10.533 14.3901L9.69231 13.5494V17.2308C9.69231 17.6556 9.34791 18 8.92308 18C8.49824 18 8.15385 17.6556 8.15385 17.2308V13.5494L7.31316 14.3901C7.01276 14.6905 6.52571 14.6905 6.2253 14.3901C5.9249 14.0897 5.9249 13.6026 6.2253 13.3022L8.37915 11.1484Z" fill="#0038FF"/>
</svg>