<svg width="24" height="24" viewBox="0 0 24 24" fill="none" xmlns="http://www.w3.org/2000/svg">
<rect width="24" height="24" rx="4" fill="#D6F252" fill-opacity="0.6"/>
<path d="M7.11562 12.9219L11.3508 16.8758C11.5266 17.0398 11.7586 17.1312 12 17.1312C12.2414 17.1312 12.4734 17.0398 12.6492 16.8758L16.8844 12.9219C17.5969 12.2586 18 11.3281 18 10.3554V10.2195C18 8.58123 16.8164 7.18435 15.2016 6.91482C14.1328 6.7367 13.0453 7.08592 12.2812 7.84998L12 8.13123L11.7188 7.84998C10.9547 7.08592 9.86719 6.7367 8.79844 6.91482C7.18359 7.18435 6 8.58123 6 10.2195V10.3554C6 11.3281 6.40312 12.2586 7.11562 12.9219Z" fill="black"/>
</svg>