<svg width="24" height="24" viewBox="0 0 24 24" fill="none" xmlns="http://www.w3.org/2000/svg">
<rect width="24" height="24" rx="4" fill="#FAFAFA"/>
<path d="M7.11562 12.9217L11.3508 16.8756C11.5266 17.0396 11.7586 17.131 12 17.131C12.2414 17.131 12.4734 17.0396 12.6492 16.8756L16.8844 12.9217C17.5969 12.2584 18 11.3279 18 10.3553V10.2193C18 8.58105 16.8164 7.18417 15.2016 6.91464C14.1328 6.73651 13.0453 7.08573 12.2812 7.8498L12 8.13105L11.7188 7.8498C10.9547 7.08573 9.86719 6.73651 8.79844 6.91464C7.18359 7.18417 6 8.58105 6 10.2193V10.3553C6 11.3279 6.40312 12.2584 7.11562 12.9217Z" fill="#0038FF"/>
</svg>