<svg width="144" height="144" viewBox="0 0 96 96" fill="none"
  xmlns="http://www.w3.org/2000/svg">
  <path d="M96 48C96 21.4903 74.5097 0 48 0C21.4903 0 0 21.4903 0 48C0 74.5097 21.4903 96 48 96C74.5097 96 96 74.5097 96 48Z" fill="#24E5DF"/>
  <path d="M48.0648 8.16016C26.0272 8.16016 8.15997 26.1063 8.15997 48.2406C8.15997 70.3754 26.0272 88.3202 48.0648 88.3202C70.1025 88.3202 87.9676 70.3758 87.9676 48.2406C87.9676 26.1058 70.1011 8.16016 48.0648 8.16016ZM61.5681 61.8074C48.0086 75.4283 30.9682 80.3958 23.5082 72.904C16.0487 65.4141 20.9971 48.2973 34.5597 34.6762C48.12 21.0552 65.1595 16.0858 72.6201 23.5761C80.0798 31.0663 75.1315 48.183 61.5681 61.8074Z" fill="#133D38"/>
</svg>
