<svg width="960" height="504" viewBox="0 0 960 504" fill="none" xmlns="http://www.w3.org/2000/svg">
<g clip-path="url(#clip0_1621_970)">
<rect width="960" height="504" fill="black"/>
<g filter="url(#filter0_f_1621_970)">
<mask id="mask0_1621_970" style="mask-type:alpha" maskUnits="userSpaceOnUse" x="30" y="234" width="900" height="900">
<circle cx="479.631" cy="683.63" r="449.458" transform="rotate(45 479.631 683.63)" fill="white"/>
</mask>
<g mask="url(#mask0_1621_970)">
<g filter="url(#filter1_d_1621_970)">
<circle cx="559.998" cy="682.862" r="416.49" transform="rotate(45 559.998 682.862)" fill="url(#paint0_linear_1621_970)"/>
<ellipse cx="316.595" cy="683.068" rx="465.075" ry="444.738" transform="rotate(45 316.595 683.068)" fill="#B8B999"/>
<circle cx="176.068" cy="683.599" r="449.458" transform="rotate(45 176.068 683.599)" fill="url(#paint1_linear_1621_970)"/>
</g>
</g>
</g>
<g filter="url(#filter2_d_1621_970)">
<g clip-path="url(#clip1_1621_970)">
<path fill-rule="evenodd" clip-rule="evenodd" d="M255.406 336.994C232.747 314.336 220.4 284.002 220.4 252C220.4 219.998 233.081 189.664 255.406 167.006C278.064 144.347 308.398 132 340.4 132C373.404 132 403.404 145.348 425.395 167.006C448.053 189.664 460.4 219.998 460.4 252C460.4 284.002 447.72 314.336 425.395 336.994C403.737 358.652 373.737 372 340.4 372C308.398 372 278.064 359.319 255.406 336.994Z" fill="url(#paint2_linear_1621_970)"/>
<path fill-rule="evenodd" clip-rule="evenodd" d="M395.395 195.004H351.046V166.005H328.721V195.004H309.733C299.722 195.004 280.067 203.013 280.401 228.007C280.734 253.335 298.387 259.676 305.061 259.676H328.721V291.678H284.071V309.331H328.721V338.663H351.046V309.331H368.365C378.71 309.331 399.7 300.654 399.7 275.994C399.7 251.667 381.046 243.324 369.7 243.324H350.712V212.657H395.028V195.004H395.395ZM351.046 260.009H362.725C367.064 260.009 377.041 261.678 377.041 275.66C377.041 289.642 368.031 291.644 364.694 291.644H351.012V259.676V260.009H351.046ZM328.721 243.658H317.709C313.704 243.658 302.058 241.322 302.058 228.007C302.058 214.692 310.401 213.024 313.404 213.024H328.721V243.658Z" fill="white"/>
<path d="M351.514 243.457H328.855V259.775H351.514V243.457Z" fill="#0E9845"/>
</g>
</g>
<path d="M552.318 189.846H562.436V226.337C562.436 230.337 561.491 233.855 559.6 236.891C557.727 239.927 555.091 242.3 551.691 244.009C548.291 245.7 544.318 246.546 539.772 246.546C535.209 246.546 531.227 245.7 527.827 244.009C524.427 242.3 521.791 239.927 519.918 236.891C518.045 233.855 517.109 230.337 517.109 226.337V189.846H527.227V225.491C527.227 227.818 527.736 229.891 528.754 231.709C529.791 233.527 531.245 234.955 533.118 235.991C534.991 237.009 537.209 237.518 539.772 237.518C542.336 237.518 544.554 237.009 546.427 235.991C548.318 234.955 549.772 233.527 550.791 231.709C551.809 229.891 552.318 227.818 552.318 225.491V189.846ZM603.788 205.2C603.534 202.818 602.461 200.964 600.57 199.637C598.697 198.309 596.261 197.646 593.261 197.646C591.152 197.646 589.343 197.964 587.834 198.6C586.325 199.237 585.17 200.1 584.37 201.191C583.57 202.282 583.161 203.527 583.143 204.927C583.143 206.091 583.406 207.1 583.934 207.955C584.479 208.809 585.216 209.537 586.143 210.137C587.07 210.718 588.097 211.209 589.225 211.609C590.352 212.009 591.488 212.346 592.634 212.618L597.87 213.927C599.979 214.418 602.006 215.082 603.952 215.918C605.916 216.755 607.67 217.809 609.216 219.082C610.779 220.355 612.016 221.891 612.925 223.691C613.834 225.491 614.288 227.6 614.288 230.018C614.288 233.291 613.452 236.173 611.779 238.664C610.106 241.137 607.688 243.073 604.525 244.473C601.379 245.855 597.57 246.546 593.097 246.546C588.752 246.546 584.979 245.873 581.779 244.527C578.597 243.182 576.106 241.218 574.306 238.637C572.525 236.055 571.561 232.909 571.416 229.2H581.37C581.516 231.146 582.116 232.764 583.17 234.055C584.225 235.346 585.597 236.309 587.288 236.946C588.997 237.582 590.906 237.9 593.016 237.9C595.216 237.9 597.143 237.573 598.797 236.918C600.47 236.246 601.779 235.318 602.725 234.137C603.67 232.937 604.152 231.537 604.17 229.937C604.152 228.482 603.725 227.282 602.888 226.337C602.052 225.373 600.879 224.573 599.37 223.937C597.879 223.282 596.134 222.7 594.134 222.191L587.779 220.555C583.179 219.373 579.543 217.582 576.87 215.182C574.216 212.764 572.888 209.555 572.888 205.555C572.888 202.264 573.779 199.382 575.561 196.909C577.361 194.437 579.806 192.518 582.897 191.155C585.988 189.773 589.488 189.082 593.397 189.082C597.361 189.082 600.834 189.773 603.816 191.155C606.816 192.518 609.17 194.418 610.879 196.855C612.588 199.273 613.47 202.055 613.525 205.2H603.788ZM642.236 245.7H623.309V189.846H642.618C648.163 189.846 652.927 190.964 656.909 193.2C660.909 195.418 663.981 198.609 666.127 202.773C668.272 206.937 669.345 211.918 669.345 217.718C669.345 223.537 668.263 228.537 666.1 232.718C663.954 236.9 660.854 240.109 656.8 242.346C652.763 244.582 647.909 245.7 642.236 245.7ZM633.427 236.946H641.745C645.636 236.946 648.881 236.237 651.481 234.818C654.081 233.382 656.036 231.246 657.345 228.409C658.654 225.555 659.309 221.991 659.309 217.718C659.309 213.446 658.654 209.9 657.345 207.082C656.036 204.246 654.1 202.127 651.536 200.727C648.991 199.309 645.827 198.6 642.045 198.6H633.427V236.946ZM678.959 245.7V189.846H699.904C704.195 189.846 707.795 190.646 710.704 192.246C713.631 193.846 715.841 196.046 717.331 198.846C718.841 201.627 719.595 204.791 719.595 208.337C719.595 211.918 718.841 215.1 717.331 217.882C715.822 220.664 713.595 222.855 710.65 224.455C707.704 226.037 704.077 226.827 699.768 226.827H685.886V218.509H698.404C700.913 218.509 702.968 218.073 704.568 217.2C706.168 216.327 707.35 215.127 708.113 213.6C708.895 212.073 709.286 210.318 709.286 208.337C709.286 206.355 708.895 204.609 708.113 203.1C707.35 201.591 706.159 200.418 704.541 199.582C702.941 198.727 700.877 198.3 698.35 198.3H689.077V245.7H678.959Z" fill="white"/>
<path d="M515.827 320.3V285.391H527.622C530.361 285.391 532.6 285.885 534.338 286.874C536.088 287.851 537.384 289.175 538.225 290.845C539.066 292.516 539.486 294.379 539.486 296.436C539.486 298.493 539.066 300.362 538.225 302.044C537.395 303.726 536.111 305.067 534.372 306.067C532.634 307.055 530.406 307.55 527.691 307.55H519.236V303.8H527.554C529.429 303.8 530.935 303.476 532.071 302.828C533.208 302.18 534.031 301.305 534.543 300.203C535.066 299.09 535.327 297.834 535.327 296.436C535.327 295.038 535.066 293.788 534.543 292.686C534.031 291.584 533.202 290.72 532.054 290.095C530.906 289.459 529.384 289.141 527.486 289.141H520.054V320.3H515.827ZM553.455 320.913C551.796 320.913 550.29 320.601 548.938 319.976C547.585 319.34 546.512 318.425 545.716 317.232C544.921 316.027 544.523 314.573 544.523 312.868C544.523 311.368 544.818 310.152 545.409 309.22C546 308.277 546.79 307.538 547.779 307.004C548.767 306.47 549.858 306.073 551.051 305.811C552.256 305.538 553.466 305.323 554.682 305.163C556.273 304.959 557.563 304.805 558.551 304.703C559.551 304.59 560.279 304.402 560.733 304.141C561.199 303.879 561.432 303.425 561.432 302.777V302.641C561.432 300.959 560.972 299.652 560.051 298.72C559.142 297.788 557.762 297.323 555.909 297.323C553.989 297.323 552.483 297.743 551.392 298.584C550.301 299.425 549.534 300.323 549.091 301.277L545.273 299.913C545.955 298.323 546.864 297.084 548 296.198C549.148 295.3 550.398 294.675 551.75 294.323C553.114 293.959 554.455 293.777 555.773 293.777C556.614 293.777 557.58 293.879 558.671 294.084C559.773 294.277 560.835 294.68 561.858 295.294C562.892 295.908 563.75 296.834 564.432 298.073C565.114 299.311 565.455 300.97 565.455 303.05V320.3H561.432V316.754H561.227C560.955 317.323 560.5 317.93 559.864 318.578C559.227 319.226 558.381 319.777 557.324 320.232C556.267 320.686 554.977 320.913 553.455 320.913ZM554.068 317.3C555.659 317.3 557 316.987 558.091 316.362C559.193 315.737 560.023 314.93 560.58 313.942C561.148 312.953 561.432 311.913 561.432 310.823V307.141C561.262 307.345 560.887 307.533 560.307 307.703C559.739 307.862 559.08 308.004 558.33 308.129C557.591 308.243 556.869 308.345 556.165 308.436C555.472 308.516 554.909 308.584 554.477 308.641C553.432 308.777 552.455 308.999 551.546 309.305C550.648 309.601 549.921 310.05 549.364 310.652C548.818 311.243 548.546 312.05 548.546 313.073C548.546 314.47 549.063 315.527 550.097 316.243C551.142 316.948 552.466 317.3 554.068 317.3ZM575.797 294.118L582.07 304.823L588.343 294.118H592.979L584.524 307.209L592.979 320.3H588.343L582.07 310.141L575.797 320.3H571.161L579.479 307.209L571.161 294.118H575.797ZM623.537 320.3H612.764V285.391H624.014C627.401 285.391 630.298 286.09 632.708 287.487C635.117 288.874 636.963 290.868 638.247 293.47C639.531 296.061 640.173 299.163 640.173 302.777C640.173 306.413 639.526 309.544 638.23 312.169C636.935 314.783 635.048 316.794 632.571 318.203C630.094 319.601 627.083 320.3 623.537 320.3ZM616.992 316.55H623.264C626.151 316.55 628.543 315.993 630.441 314.879C632.338 313.766 633.753 312.18 634.685 310.124C635.617 308.067 636.083 305.618 636.083 302.777C636.083 299.959 635.622 297.533 634.702 295.499C633.781 293.453 632.406 291.885 630.577 290.794C628.747 289.692 626.469 289.141 623.742 289.141H616.992V316.55ZM657.355 320.845C654.992 320.845 652.918 320.283 651.134 319.158C649.361 318.033 647.975 316.459 646.975 314.436C645.986 312.413 645.492 310.05 645.492 307.345C645.492 304.618 645.986 302.237 646.975 300.203C647.975 298.169 649.361 296.59 651.134 295.465C652.918 294.34 654.992 293.777 657.355 293.777C659.719 293.777 661.787 294.34 663.56 295.465C665.344 296.59 666.73 298.169 667.719 300.203C668.719 302.237 669.219 304.618 669.219 307.345C669.219 310.05 668.719 312.413 667.719 314.436C666.73 316.459 665.344 318.033 663.56 319.158C661.787 320.283 659.719 320.845 657.355 320.845ZM657.355 317.232C659.151 317.232 660.628 316.771 661.787 315.851C662.946 314.93 663.804 313.72 664.361 312.22C664.918 310.72 665.196 309.095 665.196 307.345C665.196 305.595 664.918 303.965 664.361 302.453C663.804 300.942 662.946 299.72 661.787 298.788C660.628 297.857 659.151 297.391 657.355 297.391C655.56 297.391 654.083 297.857 652.923 298.788C651.764 299.72 650.906 300.942 650.35 302.453C649.793 303.965 649.514 305.595 649.514 307.345C649.514 309.095 649.793 310.72 650.35 312.22C650.906 313.72 651.764 314.93 652.923 315.851C654.083 316.771 655.56 317.232 657.355 317.232ZM679.382 285.391V320.3H675.36V285.391H679.382ZM690.773 285.391V320.3H686.75V285.391H690.773ZM705.845 320.913C704.186 320.913 702.681 320.601 701.328 319.976C699.976 319.34 698.902 318.425 698.107 317.232C697.311 316.027 696.914 314.573 696.914 312.868C696.914 311.368 697.209 310.152 697.8 309.22C698.391 308.277 699.181 307.538 700.169 307.004C701.158 306.47 702.249 306.073 703.442 305.811C704.646 305.538 705.857 305.323 707.073 305.163C708.664 304.959 709.953 304.805 710.942 304.703C711.942 304.59 712.669 304.402 713.124 304.141C713.59 303.879 713.823 303.425 713.823 302.777V302.641C713.823 300.959 713.362 299.652 712.442 298.72C711.533 297.788 710.152 297.323 708.3 297.323C706.379 297.323 704.874 297.743 703.783 298.584C702.692 299.425 701.925 300.323 701.482 301.277L697.664 299.913C698.345 298.323 699.254 297.084 700.391 296.198C701.539 295.3 702.789 294.675 704.141 294.323C705.504 293.959 706.845 293.777 708.164 293.777C709.004 293.777 709.97 293.879 711.061 294.084C712.164 294.277 713.226 294.68 714.249 295.294C715.283 295.908 716.141 296.834 716.823 298.073C717.504 299.311 717.845 300.97 717.845 303.05V320.3H713.823V316.754H713.618C713.345 317.323 712.891 317.93 712.254 318.578C711.618 319.226 710.771 319.777 709.715 320.232C708.658 320.686 707.368 320.913 705.845 320.913ZM706.459 317.3C708.05 317.3 709.391 316.987 710.482 316.362C711.584 315.737 712.414 314.93 712.97 313.942C713.539 312.953 713.823 311.913 713.823 310.823V307.141C713.652 307.345 713.277 307.533 712.698 307.703C712.129 307.862 711.47 308.004 710.72 308.129C709.982 308.243 709.26 308.345 708.556 308.436C707.862 308.516 707.3 308.584 706.868 308.641C705.823 308.777 704.845 308.999 703.936 309.305C703.039 309.601 702.311 310.05 701.754 310.652C701.209 311.243 700.936 312.05 700.936 313.073C700.936 314.47 701.453 315.527 702.487 316.243C703.533 316.948 704.857 317.3 706.459 317.3ZM725.188 320.3V294.118H729.074V298.073H729.347C729.824 296.777 730.688 295.726 731.938 294.919C733.188 294.112 734.597 293.709 736.165 293.709C736.46 293.709 736.83 293.715 737.273 293.726C737.716 293.737 738.051 293.754 738.279 293.777V297.868C738.142 297.834 737.83 297.783 737.341 297.715C736.864 297.635 736.358 297.595 735.824 297.595C734.551 297.595 733.415 297.862 732.415 298.396C731.426 298.919 730.642 299.646 730.063 300.578C729.494 301.499 729.21 302.55 729.21 303.732V320.3H725.188Z" fill="#C7CCD3"/>
</g>
<defs>
<filter id="filter0_f_1621_970" x="-369.828" y="-165.828" width="1698.92" height="1698.92" filterUnits="userSpaceOnUse" color-interpolation-filters="sRGB">
<feFlood flood-opacity="0" result="BackgroundImageFix"/>
<feBlend mode="normal" in="SourceGraphic" in2="BackgroundImageFix" result="shape"/>
<feGaussianBlur stdDeviation="200" result="effect1_foregroundBlur_1621_970"/>
</filter>
<filter id="filter1_d_1621_970" x="-276.591" y="228.048" width="1256.28" height="916.442" filterUnits="userSpaceOnUse" color-interpolation-filters="sRGB">
<feFlood flood-opacity="0" result="BackgroundImageFix"/>
<feColorMatrix in="SourceAlpha" type="matrix" values="0 0 0 0 0 0 0 0 0 0 0 0 0 0 0 0 0 0 127 0" result="hardAlpha"/>
<feOffset dy="3.2"/>
<feGaussianBlur stdDeviation="1.6"/>
<feComposite in2="hardAlpha" operator="out"/>
<feColorMatrix type="matrix" values="0 0 0 0 0 0 0 0 0 0 0 0 0 0 0 0 0 0 0.25 0"/>
<feBlend mode="normal" in2="BackgroundImageFix" result="effect1_dropShadow_1621_970"/>
<feBlend mode="normal" in="SourceGraphic" in2="effect1_dropShadow_1621_970" result="shape"/>
</filter>
<filter id="filter2_d_1621_970" x="20.4004" y="-68" width="640" height="640" filterUnits="userSpaceOnUse" color-interpolation-filters="sRGB">
<feFlood flood-opacity="0" result="BackgroundImageFix"/>
<feColorMatrix in="SourceAlpha" type="matrix" values="0 0 0 0 0 0 0 0 0 0 0 0 0 0 0 0 0 0 127 0" result="hardAlpha"/>
<feOffset/>
<feGaussianBlur stdDeviation="100"/>
<feComposite in2="hardAlpha" operator="out"/>
<feColorMatrix type="matrix" values="0 0 0 0 0.227451 0 0 0 0 0.721569 0 0 0 0 0.227451 0 0 0 1 0"/>
<feBlend mode="normal" in2="BackgroundImageFix" result="effect1_dropShadow_1621_970"/>
<feBlend mode="normal" in="SourceGraphic" in2="effect1_dropShadow_1621_970" result="shape"/>
</filter>
<linearGradient id="paint0_linear_1621_970" x1="615.368" y1="105.555" x2="461.39" y2="1223.11" gradientUnits="userSpaceOnUse">
<stop stop-color="#CAB914"/>
<stop offset="1" stop-color="#FF5C00"/>
</linearGradient>
<linearGradient id="paint1_linear_1621_970" x1="596.483" y1="307.225" x2="-25.0929" y2="1025.69" gradientUnits="userSpaceOnUse">
<stop offset="0.216532" stop-color="#21D2D3"/>
<stop offset="0.734375" stop-color="#2A70D9"/>
</linearGradient>
<linearGradient id="paint2_linear_1621_970" x1="248.296" y1="329.243" x2="432.279" y2="174.923" gradientUnits="userSpaceOnUse">
<stop stop-color="#024C2A"/>
<stop offset="0.502" stop-color="#0C9943"/>
<stop offset="1" stop-color="#98D435"/>
</linearGradient>
<clipPath id="clip0_1621_970">
<rect width="960" height="504" fill="white"/>
</clipPath>
<clipPath id="clip1_1621_970">
<rect x="220.4" y="132" width="240" height="240" rx="120" fill="white"/>
</clipPath>
</defs>
</svg>
