<svg width="101" height="26" viewBox="0 0 101 26" fill="none" xmlns="http://www.w3.org/2000/svg">
  <path d="M0 6.63081V25.9999H3.35722V13.5078V3.31667V3.31494L0 6.63081Z" fill="white"/>
  <path d="M3.35718 3.31673H21.0539V0H6.70475L3.35718 3.31673Z" fill="white"/>
  <path d="M19.3757 10.1946H6.71352L3.35718 13.5078H19.3757V10.1946Z" fill="white"/>
  <path d="M53.8567 6.62997V19.37L57.213 22.6867V13.5078V3.3167V3.31323L53.8567 6.62997Z" fill="white"/>
  <path d="M74.9108 26V22.6868H57.2131L60.5704 26H74.9108Z" fill="white"/>
  <path d="M57.2131 3.31673H74.9108V0H60.5616L57.2131 3.31673Z" fill="white"/>
  <path d="M73.2325 10.1946H60.5704L57.2131 13.5078H73.2325V10.1946Z" fill="white"/>
  <path d="M47.1431 25.9999V16.8245L43.7859 13.5078V25.9999H47.1431Z" fill="white"/>
  <path d="M43.786 10.1946L32.802 10.2778L29.4457 13.5902V3.315L43.786 3.31327L40.4297 0H26.0894V26H29.4457V13.5911L43.786 13.5079H43.7896L43.7904 13.5035L47.1433 10.192V6.68287V6.63L43.786 3.31327V10.1946Z" fill="white"/>
  <path d="M101 26V22.6868H83.3025L86.6597 26H101Z" fill="white"/>
  <path d="M101 0H86.65L83.3025 3.31673H101V0Z" fill="white"/>
  <path d="M83.3025 3.31323L79.946 6.62997V19.37L83.3025 22.6867V3.3167V3.31323Z" fill="white"/>
</svg>
