<svg width="1200" height="630" viewBox="0 0 1200 630" fill="none" xmlns="http://www.w3.org/2000/svg">
<g clip-path="url(#clip0_2320_21686)">
<g filter="url(#filter0_f_2320_21686)">
<mask id="mask0_2320_21686" style="mask-type:alpha" maskUnits="userSpaceOnUse" x="37" y="577" width="1125" height="1125">
<circle cx="599.537" cy="1139.54" r="561.823" transform="rotate(45 599.537 1139.54)" fill="white"/>
</mask>
<g mask="url(#mask0_2320_21686)">
<g filter="url(#filter1_d_2320_21686)">
<circle cx="699.994" cy="1138.58" r="520.613" transform="rotate(45 699.994 1138.58)" fill="url(#paint0_linear_2320_21686)"/>
<ellipse cx="395.741" cy="1138.84" rx="581.344" ry="555.922" transform="rotate(45 395.741 1138.84)" fill="#B8B999"/>
<circle cx="220.084" cy="1139.5" r="561.823" transform="rotate(45 220.084 1139.5)" fill="url(#paint1_linear_2320_21686)"/>
</g>
</g>
</g>
<g clip-path="url(#clip1_2320_21686)">
<circle cx="274.693" cy="153.201" r="64.7027" fill="white" stroke="#D0D5DD"/>
<path d="M241.942 157.477C241.759 156.083 241.667 154.679 241.667 153.273C241.674 147.665 243.145 142.156 245.934 137.291C248.723 132.427 252.732 128.377 257.566 125.541C262.4 122.706 267.89 121.183 273.492 121.125C279.094 121.067 284.614 122.475 289.505 125.21L296.859 121.459C290.997 117.2 284.073 114.646 276.853 114.08C269.632 113.514 262.396 114.957 255.943 118.251C249.491 121.544 244.074 126.56 240.29 132.742C236.507 138.925 234.506 146.035 234.506 153.285C234.506 154.286 234.544 155.284 234.62 156.277C234.727 157.684 234.415 159.091 233.724 160.321C233.034 161.551 231.995 162.549 230.739 163.19L227.365 164.912V172.945L320.206 125.587V117.558L241.942 157.477Z" fill="black"/>
<path d="M320.206 133.624L246.919 170.979L227.365 180.959V188.984L305.649 149.053C305.832 150.456 305.924 151.87 305.924 153.284C305.921 158.899 304.45 164.416 301.659 169.286C298.868 174.156 294.852 178.21 290.011 181.047C285.171 183.883 279.673 185.403 274.065 185.455C268.456 185.507 262.931 184.09 258.039 181.344L257.646 181.552L250.709 185.091C256.569 189.35 263.492 191.905 270.711 192.472C277.931 193.039 285.166 191.598 291.619 188.307C298.071 185.015 303.489 180.003 307.274 173.822C311.059 167.641 313.063 160.534 313.065 153.284C313.065 152.274 313.026 151.263 312.951 150.265C312.845 148.858 313.157 147.452 313.846 146.222C314.536 144.992 315.574 143.993 316.828 143.352L320.206 141.63V133.624Z" fill="black"/>
</g>
<g clip-path="url(#clip2_2320_21686)">
<circle cx="437.097" cy="153.201" r="64.7027" fill="#FCFF42" stroke="#D0D5DD"/>
<path d="M469.695 120.601H404.492V185.803H469.695V163.042H458.867C455.139 171.35 446.746 177.121 437.145 177.121C423.9 177.121 413.174 166.294 413.174 153.151C413.157 140.008 423.9 129.283 437.145 129.283C446.934 129.283 455.327 135.241 459.055 143.737H469.695V120.601Z" fill="black"/>
</g>
<circle cx="599.505" cy="153.201" r="64.7027" fill="white" stroke="#D0D5DD"/>
<path d="M627.397 183.352H618.663V164.785H580.222V183.352H571.488V123.146H580.222V141.266H618.663V123.146H627.397V183.352ZM580.634 157.839H619.076V148.246H580.634V157.839Z" fill="black"/>
<g clip-path="url(#clip3_2320_21686)">
<circle cx="761.912" cy="153.201" r="64.7027" fill="black" stroke="#424242"/>
<path d="M737.424 168.539C737.873 168.09 738.49 167.829 739.144 167.829H798.482C799.566 167.829 800.108 169.137 799.342 169.904L787.62 181.625C787.171 182.074 786.554 182.336 785.9 182.336H726.563C725.478 182.336 724.936 181.027 725.703 180.261L737.424 168.539Z" fill="url(#paint2_linear_2320_21686)"/>
<path d="M737.424 124.774C737.892 124.325 738.509 124.063 739.144 124.063H798.482C799.566 124.063 800.108 125.372 799.342 126.139L787.62 137.86C787.171 138.309 786.554 138.571 785.9 138.571H726.563C725.478 138.571 724.936 137.262 725.703 136.496L737.424 124.774Z" fill="url(#paint3_linear_2320_21686)"/>
<path d="M787.62 146.516C787.171 146.067 786.554 145.806 785.9 145.806H726.563C725.478 145.806 724.936 147.114 725.703 147.881L737.424 159.602C737.873 160.051 738.49 160.313 739.144 160.313H798.482C799.566 160.313 800.108 159.004 799.342 158.238L787.62 146.516Z" fill="url(#paint4_linear_2320_21686)"/>
</g>
<circle cx="924.313" cy="153.2" r="64.6999" fill="white" stroke="#D0D5DD"/>
<path d="M963.659 123.783H956.636C954.924 123.783 953.353 124.773 952.614 126.313L934.138 164.76L934.122 164.713L929.204 174.958L929.22 175.005L924.302 185.249L899.73 134.043H906.737C908.449 134.043 910.021 135.033 910.759 136.573L926.8 169.788L931.718 159.544L918.772 132.739C916.148 127.271 910.618 123.783 904.553 123.783H884.961L889.863 134.043H889.879L919.369 195.478H929.204L963.659 123.783Z" fill="url(#paint5_linear_2320_21686)"/>
<circle cx="355.897" cy="314.605" r="64.6999" fill="black" stroke="#424242"/>
<path d="M341.033 329.631L326.225 344.448C342.626 360.859 369.217 360.859 385.618 344.448C402.019 328.037 402.019 301.429 385.618 285.018C369.217 268.607 342.626 268.607 326.225 285.018L341.033 299.836C349.256 291.608 362.587 291.608 370.81 299.836C379.033 308.063 379.033 321.403 370.81 329.631C362.587 337.859 349.256 337.859 341.033 329.631Z" fill="url(#paint6_linear_2320_21686)"/>
<path d="M355.921 325.239C361.72 325.239 366.421 320.536 366.421 314.733C366.421 308.931 361.72 304.227 355.921 304.227C350.123 304.227 345.422 308.931 345.422 314.733C345.422 320.536 350.123 325.239 355.921 325.239Z" fill="url(#paint7_linear_2320_21686)"/>
<circle cx="518.296" cy="314.605" r="64.6999" fill="white" stroke="#D0D5DD"/>
<path d="M528.753 344.532C529.385 343.973 530.021 343.414 530.902 342.634C529.764 341.566 528.784 340.372 527.554 339.542C524.735 337.636 522.678 335.279 522.222 331.755C520.149 331.579 518.188 331.411 515.767 331.204C517.004 330.695 517.87 330.335 518.981 329.88C515.909 328.9 513.124 329.428 510.389 329.956C499.712 332.019 489.576 335.834 479.375 339.477C476.418 340.533 473.139 340.705 470.009 341.279C469.933 341.046 469.856 340.812 469.779 340.583C470.955 339.599 472.128 338.616 473.503 337.464C472.61 337.399 472.013 337.357 470.932 337.277C480.9 332.004 490.45 326.949 500 321.898C499.992 321.764 499.984 321.626 499.977 321.492H494.928C494.89 321.324 494.851 321.152 494.813 320.983C497.927 318.944 501.03 316.885 504.16 314.869C511.446 310.174 518.724 305.459 526.056 300.837C528.424 299.345 530.856 297.891 533.423 296.804C537.43 295.113 540.839 292.69 543.992 289.74C545.555 288.278 547.439 287.127 549.27 285.986C552.166 284.184 555.3 284.008 558.135 285.875C561.073 287.812 563.739 290.169 566.815 292.572C565.091 293.322 563.846 293.911 562.559 294.408C559.173 295.717 557.062 298.212 555.806 301.522C555.039 303.546 554.139 305.528 553.538 307.602C551.649 314.134 547.186 318.297 541.341 321.301C538.28 322.87 535.223 324.465 532.274 326.229C527.88 328.854 527.102 333.645 530.32 337.613C532.388 340.166 534.706 342.404 537.989 343.387C538.659 343.586 539.238 344.091 539.981 344.528H528.742L528.753 344.532Z" fill="black"/>
<circle cx="680.695" cy="314.606" r="65.2027" fill="#FF0420"/>
<path d="M661.678 331.922C657.792 331.922 654.61 331.009 652.133 329.184C649.681 327.332 648.455 324.672 648.455 321.255C648.455 320.525 648.533 319.664 648.69 318.621C649.107 316.273 649.707 313.457 650.489 310.144C652.706 301.172 658.444 296.687 667.677 296.687C670.181 296.687 672.45 297.104 674.432 297.964C676.414 298.773 677.979 300.025 679.126 301.694C680.274 303.337 680.848 305.293 680.848 307.562C680.848 308.24 680.77 309.101 680.613 310.144C680.118 313.039 679.544 315.882 678.84 318.621C677.692 323.081 675.736 326.445 672.919 328.662C670.128 330.853 666.373 331.922 661.678 331.922ZM662.382 324.88C664.208 324.88 665.747 324.332 667.025 323.263C668.329 322.194 669.268 320.551 669.815 318.308C670.572 315.23 671.146 312.57 671.537 310.275C671.667 309.597 671.745 308.892 671.745 308.162C671.745 305.189 670.207 303.702 667.103 303.702C665.277 303.702 663.713 304.25 662.408 305.319C661.13 306.389 660.218 308.032 659.67 310.275C659.07 312.466 658.496 315.126 657.896 318.308C657.766 318.96 657.688 319.638 657.688 320.368C657.662 323.394 659.253 324.88 662.382 324.88Z" fill="white"/>
<path d="M683.117 331.453C682.752 331.453 682.491 331.348 682.282 331.114C682.126 330.853 682.074 330.566 682.126 330.227L688.881 298.408C688.933 298.043 689.115 297.756 689.428 297.521C689.715 297.286 690.028 297.182 690.367 297.182H703.382C707.007 297.182 709.902 297.938 712.093 299.425C714.31 300.938 715.431 303.102 715.431 305.945C715.431 306.754 715.327 307.614 715.144 308.501C714.336 312.257 712.693 315.022 710.189 316.821C707.737 318.621 704.373 319.507 700.096 319.507H693.497L691.254 330.227C691.176 330.592 691.019 330.879 690.706 331.114C690.42 331.348 690.107 331.453 689.768 331.453H683.117ZM700.435 312.752C701.817 312.752 702.991 312.387 704.008 311.631C705.051 310.875 705.729 309.805 706.068 308.397C706.172 307.849 706.225 307.354 706.225 306.936C706.225 305.997 705.938 305.267 705.39 304.772C704.842 304.25 703.877 303.989 702.547 303.989H696.679L694.827 312.752H700.435Z" fill="white"/>
<circle cx="843.105" cy="314.607" r="64.7027" fill="#131313" stroke="#424242"/>
<path d="M809.168 319.566C821.133 325.92 833.618 332.571 843.261 337.718L877.075 319.566C864.831 337.755 854.63 352.897 843.261 369.655C831.872 352.934 819.294 334.483 809.168 319.566ZM810.468 314.549L843.298 297.031L875.7 314.421L843.316 331.958L810.468 314.549ZM843.261 291.419L809.168 309.366L843.112 259.667L877.075 309.477L843.261 291.419Z" fill="#33FF99"/>
<path d="M843.261 337.718L877.075 319.566C864.831 337.755 843.261 369.655 843.261 369.655V337.718ZM843.298 297.031L875.7 314.421L843.316 331.958L843.298 297.031ZM843.261 291.42L843.112 259.667L877.075 309.477L843.261 291.42Z" fill="#33FF99"/>
<path d="M810.468 314.549L843.3 317.244L875.701 314.438L843.316 331.977L810.468 314.549Z" fill="#33FF99"/>
<path d="M843.298 317.244L875.7 314.438L843.316 331.977L843.298 317.244Z" fill="#33FF99"/>
<g clip-path="url(#clip4_2320_21686)">
<circle cx="274.689" cy="476.014" r="64.4527" fill="white" stroke="#D0D5DD" stroke-width="1.5"/>
<path d="M238.208 458.538V493.484C238.208 495.715 239.4 497.778 241.331 498.89L271.595 516.367C273.526 517.479 275.904 517.479 277.835 516.367L308.1 498.89C310.031 497.778 311.223 495.715 311.223 493.484V458.538C311.223 456.307 310.031 454.243 308.1 453.131L277.835 435.655C275.904 434.543 273.526 434.543 271.595 435.655L241.324 453.131C239.392 454.243 238.208 456.307 238.208 458.538Z" fill="#213147"/>
<path d="M281.318 482.789L277.002 494.625C276.885 494.954 276.885 495.313 277.002 495.642L284.427 516.008L293.015 511.048L282.707 482.789C282.473 482.138 281.551 482.138 281.317 482.789H281.318Z" fill="#12AAFF"/>
<path d="M289.972 462.883C289.738 462.232 288.817 462.232 288.582 462.883L284.266 474.719C284.149 475.048 284.149 475.407 284.266 475.736L296.431 509.08L305.019 504.12L289.971 462.883H289.972Z" fill="#12AAFF"/>
<path d="M274.712 436.964C274.924 436.964 275.137 437.023 275.326 437.126L308.078 456.036C308.458 456.256 308.692 456.665 308.692 457.097V494.91C308.692 495.349 308.458 495.751 308.078 495.971L275.326 514.881C275.143 514.991 274.924 515.042 274.712 515.042C274.5 515.042 274.287 514.984 274.098 514.881L241.346 495.985C240.966 495.766 240.732 495.357 240.732 494.925V457.104C240.732 456.665 240.966 456.263 241.346 456.043L274.098 437.133C274.288 437.024 274.5 436.964 274.712 436.964ZM274.712 431.441C273.549 431.441 272.378 431.741 271.333 432.348L238.588 451.251C236.496 452.458 235.209 454.69 235.209 457.103V494.917C235.209 497.331 236.497 499.562 238.588 500.769L271.34 519.679C272.386 520.279 273.549 520.586 274.719 520.586C275.89 520.586 277.053 520.286 278.099 519.679L310.85 500.769C312.943 499.562 314.23 497.33 314.23 494.917V457.103C314.23 454.689 312.942 452.458 310.85 451.251L278.091 432.348C277.045 431.741 275.875 431.441 274.712 431.441Z" fill="#9DCCED"/>
<path d="M253.051 509.124L256.065 500.872L262.129 505.912L256.46 511.092L253.051 509.124Z" fill="#213147"/>
<path d="M271.954 454.397H263.651C263.03 454.397 262.474 454.785 262.262 455.371L244.463 504.164L253.051 509.124L272.649 455.392C272.833 454.909 272.474 454.397 271.954 454.397Z" fill="white"/>
<path d="M286.482 454.397H278.18C277.558 454.397 277.002 454.785 276.79 455.371L256.468 511.085L265.056 516.045L287.178 455.392C287.354 454.909 286.995 454.397 286.482 454.397Z" fill="white"/>
</g>
<circle cx="437.093" cy="476.014" r="65.2027" fill="#0052FF"/>
<path d="M437.012 522.017C462.464 522.017 483.096 501.42 483.096 476.013C483.096 450.606 462.464 430.009 437.012 430.009C412.865 430.009 393.055 448.548 391.088 472.146H452.001V479.88H391.088C393.055 503.478 412.865 522.017 437.012 522.017Z" fill="white"/>
<g clip-path="url(#clip5_2320_21686)">
<circle cx="599.498" cy="476.014" r="65.2027" fill="#8247E5"/>
<path d="M620.84 461.814C619.275 460.916 617.273 460.916 615.503 461.814L603.032 469.203L594.564 473.898L582.324 481.261C580.759 482.159 578.757 482.159 576.987 481.261L567.415 475.437C565.85 474.539 564.747 472.743 564.747 470.742V459.557C564.747 457.761 565.645 455.991 567.415 454.862L576.987 449.269C578.552 448.371 580.554 448.371 582.324 449.269L591.895 455.093C593.461 455.991 594.564 457.786 594.564 459.788V467.176L603.032 462.251V454.657C603.032 452.861 602.134 451.09 600.363 449.962L582.555 439.443C580.99 438.545 578.988 438.545 577.218 439.443L558.973 450.193C557.203 451.09 556.305 452.886 556.305 454.657V475.668C556.305 477.464 557.203 479.234 558.973 480.363L577.012 490.882C578.578 491.78 580.579 491.78 582.35 490.882L594.59 483.724L603.058 478.798L615.297 471.64C616.863 470.742 618.864 470.742 620.635 471.64L630.206 477.233C631.771 478.131 632.875 479.927 632.875 481.928V493.114C632.875 494.91 631.977 496.68 630.206 497.809L620.866 503.401C619.301 504.299 617.299 504.299 615.528 503.401L605.932 497.809C604.366 496.911 603.263 495.115 603.263 493.114V485.956L594.795 490.882V498.27C594.795 500.066 595.693 501.836 597.464 502.965L615.503 513.484C617.068 514.382 619.07 514.382 620.84 513.484L638.879 502.965C640.445 502.067 641.548 500.271 641.548 498.27V477.028C641.548 475.232 640.65 473.462 638.879 472.333L620.84 461.814Z" fill="white"/>
</g>
<g clip-path="url(#clip6_2320_21686)">
<circle cx="761.904" cy="476.014" r="65.2027" fill="#E84142"/>
<path d="M730.46 501.876H743.114C746.093 501.876 747.583 501.875 748.912 501.507C750.37 501.074 751.699 500.306 752.805 499.248C753.82 498.281 754.552 496.999 755.997 494.471L756.04 494.395L772.452 465.384C773.91 462.837 774.631 461.555 774.951 460.21C775.303 458.752 775.303 457.215 774.951 455.757C774.633 454.422 773.905 453.149 772.469 450.64L766.013 439.371C764.684 437.032 764.011 435.863 763.162 435.43C762.249 434.966 761.16 434.966 760.247 435.43C759.398 435.863 758.725 437.032 757.395 439.371L726.151 494.443C724.838 496.75 724.181 497.903 724.229 498.848C724.293 499.873 724.822 500.802 725.687 501.363C726.488 501.876 727.801 501.876 730.46 501.876Z" fill="white"/>
<path d="M793.201 501.876H775.069C772.395 501.876 771.049 501.876 770.264 501.363C769.399 500.802 768.871 499.858 768.807 498.832C768.759 497.895 769.421 496.752 770.745 494.466L770.746 494.465L770.777 494.412L779.827 478.874C781.156 476.584 781.829 475.447 782.662 475.014C783.574 474.549 784.648 474.549 785.561 475.014C786.388 475.435 787.032 476.524 788.307 478.68L788.309 478.683L788.412 478.858L797.495 494.396C797.539 494.472 797.582 494.547 797.626 494.621L797.626 494.622C798.885 496.794 799.527 497.903 799.481 498.817C799.432 499.841 798.888 500.787 798.023 501.348C797.222 501.876 795.876 501.876 793.201 501.876Z" fill="white"/>
</g>
<g clip-path="url(#clip7_2320_21686)">
<circle cx="924.309" cy="476.014" r="65.0777" fill="white" stroke="#424242" stroke-width="0.254707"/>
<path d="M923.566 420.997L922.826 423.503V496.233L923.566 496.969L957.466 477.013L923.566 420.997Z" fill="#343434"/>
<path d="M923.567 420.997L889.668 477.013L923.567 496.969V420.997Z" fill="#8C8C8C"/>
<path d="M923.566 503.361L923.148 503.868V529.776L923.566 530.99L957.485 483.416L923.566 503.361Z" fill="#3C3C3B"/>
<path d="M923.567 530.99V503.361L889.668 483.416L923.567 530.99Z" fill="#8C8C8C"/>
<path d="M923.566 496.969L957.465 477.013L923.566 461.668V496.969Z" fill="#141414"/>
<path d="M889.668 477.013L923.567 496.969V461.668L889.668 477.013Z" fill="#393939"/>
</g>
</g>
<defs>
<filter id="filter0_f_2320_21686" x="-462.285" y="77.7148" width="2123.64" height="2123.65" filterUnits="userSpaceOnUse" color-interpolation-filters="sRGB">
<feFlood flood-opacity="0" result="BackgroundImageFix"/>
<feBlend mode="normal" in="SourceGraphic" in2="BackgroundImageFix" result="shape"/>
<feGaussianBlur stdDeviation="250" result="effect1_foregroundBlur_2320_21686"/>
</filter>
<filter id="filter1_d_2320_21686" x="-345.738" y="570.06" width="1570.34" height="1145.55" filterUnits="userSpaceOnUse" color-interpolation-filters="sRGB">
<feFlood flood-opacity="0" result="BackgroundImageFix"/>
<feColorMatrix in="SourceAlpha" type="matrix" values="0 0 0 0 0 0 0 0 0 0 0 0 0 0 0 0 0 0 127 0" result="hardAlpha"/>
<feOffset dy="4"/>
<feGaussianBlur stdDeviation="2"/>
<feComposite in2="hardAlpha" operator="out"/>
<feColorMatrix type="matrix" values="0 0 0 0 0 0 0 0 0 0 0 0 0 0 0 0 0 0 0.25 0"/>
<feBlend mode="normal" in2="BackgroundImageFix" result="effect1_dropShadow_2320_21686"/>
<feBlend mode="normal" in="SourceGraphic" in2="effect1_dropShadow_2320_21686" result="shape"/>
</filter>
<linearGradient id="paint0_linear_2320_21686" x1="769.207" y1="416.945" x2="576.735" y2="1813.89" gradientUnits="userSpaceOnUse">
<stop stop-color="#CAB914"/>
<stop offset="1" stop-color="#FF5C00"/>
</linearGradient>
<linearGradient id="paint1_linear_2320_21686" x1="745.603" y1="669.032" x2="-31.3676" y2="1567.12" gradientUnits="userSpaceOnUse">
<stop offset="0.216532" stop-color="#21D2D3"/>
<stop offset="0.734375" stop-color="#2A70D9"/>
</linearGradient>
<linearGradient id="paint2_linear_2320_21686" x1="792.813" y1="-79.8564" x2="636.604" y2="-5.36848" gradientUnits="userSpaceOnUse">
<stop stop-color="#00FFA3"/>
<stop offset="1" stop-color="#DC1FFF"/>
</linearGradient>
<linearGradient id="paint3_linear_2320_21686" x1="774.857" y1="58.2807" x2="618.648" y2="132.769" gradientUnits="userSpaceOnUse">
<stop stop-color="#00FFA3"/>
<stop offset="1" stop-color="#DC1FFF"/>
</linearGradient>
<linearGradient id="paint4_linear_2320_21686" x1="783.778" y1="112.344" x2="742.712" y2="191.002" gradientUnits="userSpaceOnUse">
<stop stop-color="#00FFA3"/>
<stop offset="1" stop-color="#DC1FFF"/>
</linearGradient>
<linearGradient id="paint5_linear_2320_21686" x1="884.961" y1="159.63" x2="963.659" y2="159.63" gradientUnits="userSpaceOnUse">
<stop offset="0.13" stop-color="#28008C"/>
<stop offset="0.6" stop-color="#00BED7"/>
<stop offset="1" stop-color="#82BE00"/>
</linearGradient>
<linearGradient id="paint6_linear_2320_21686" x1="362.072" y1="272.71" x2="362.072" y2="356.757" gradientUnits="userSpaceOnUse">
<stop stop-color="#2DD195"/>
<stop offset="1" stop-color="#076B45"/>
</linearGradient>
<linearGradient id="paint7_linear_2320_21686" x1="362.072" y1="272.71" x2="362.072" y2="356.757" gradientUnits="userSpaceOnUse">
<stop stop-color="#2DD195"/>
<stop offset="1" stop-color="#076B45"/>
</linearGradient>
<clipPath id="clip0_2320_21686">
<rect width="1200" height="630" fill="white"/>
</clipPath>
<clipPath id="clip1_2320_21686">
<rect x="209.49" y="87.998" width="130.405" height="130.405" fill="white"/>
</clipPath>
<clipPath id="clip2_2320_21686">
<rect width="130.405" height="130.405" fill="white" transform="translate(371.896 87.998)"/>
</clipPath>
<clipPath id="clip3_2320_21686">
<rect x="696.707" y="87.998" width="130.405" height="130.405" fill="white"/>
</clipPath>
<clipPath id="clip4_2320_21686">
<rect x="209.484" y="410.811" width="130.405" height="130.405" fill="white"/>
</clipPath>
<clipPath id="clip5_2320_21686">
<rect x="534.295" y="410.811" width="130.405" height="130.405" fill="white"/>
</clipPath>
<clipPath id="clip6_2320_21686">
<rect width="130.405" height="130.405" fill="white" transform="translate(696.701 410.811)"/>
</clipPath>
<clipPath id="clip7_2320_21686">
<rect width="130.41" height="130.41" fill="white" transform="translate(859.105 410.809)"/>
</clipPath>
</defs>
</svg>
