<svg xmlns="http://www.w3.org/2000/svg" width="100" height="108.267" viewBox="0 0 100 108.267"><g id="Group_124" data-name="Group 124" transform="translate(-1483 -770)"><g id="Logo" transform="translate(1285.65 768.855)"><path id="Path_3" data-name="Path 3" d="M147.1.293H118.729l-19.6,31.216L79.521.293H51.154L84.942,54.088,99.129,76.666l19.6,31.207H147.1l-33.8-53.786Z" transform="translate(148.74 0.852)" fill="#fff"></path><path id="Path_6" data-name="Path 6" d="M70.8,19.758l-19.911,32.2h39.83Z" transform="translate(147.968 57.449)" fill="#fff"></path></g><g id="Logo-2" data-name="Logo" transform="translate(1483 805.069)"><path id="Path_1" data-name="Path 1" d="M30.4.113H0V8.762H30.4Z" transform="translate(0 0.036)" fill="#a1a7b9"></path><path id="Path_2" data-name="Path 2" d="M30.4,21.273H0v8.649H30.4Z" transform="translate(0 6.826)" fill="#a1a7b9"></path><path id="Path_3-2" data-name="Path 3" d="M83.587.293H74L67.371,10.845,60.743.293H51.154L62.575,18.476l4.8,7.632L74,36.657h9.591L72.163,18.476Z" transform="translate(16.413 0.094)" fill="#a1a7b9"></path><path id="Path_4" data-name="Path 4" d="M26.3,10.7H.042v8.649H26.3Z" transform="translate(0.013 3.432)" fill="#a1a7b9"></path><path id="Path_6-2" data-name="Path 6" d="M57.619,19.758l-6.73,10.886H64.352Z" transform="translate(16.328 6.339)" fill="#a1a7b9"></path><path id="Path_7" data-name="Path 7" d="M41.365,0H27.781V8.947H41.365c4.627,0,8.391,4.062,8.391,9.054V18.9c0,4.992-3.764,9.054-8.391,9.054H27.781V36.9H41.365c9.2,0,16.683-8.076,16.683-18V18C58.049,8.076,50.564,0,41.365,0Z" transform="translate(8.914)" fill="#a1a7b9"></path></g></g></svg>