<svg xmlns="http://www.w3.org/2000/svg" id="Logo" width="72.103" height="26.666" viewBox="0 0 72.103 26.666"><path id="Path_1" data-name="Path 1" d="M21.922.113H0V6.349H21.922Z" transform="translate(0 -0.005)"></path><path id="Path_2" data-name="Path 2" d="M21.922,21.273H0V27.51H21.922Z" transform="translate(0 -1.013)"></path><path id="Path_3" data-name="Path 3" d="M74.539.293H67.624L62.847,7.9,58.068.293H51.154L59.389,13.4l3.458,5.5,4.777,7.606h6.915L66.3,13.4Z" transform="translate(-2.436 -0.014)"></path><path id="Path_4" data-name="Path 4" d="M18.975,10.7H.042v6.236H18.975Z" transform="translate(-0.002 -0.509)"></path><path id="Path_6" data-name="Path 6" d="M55.741,19.758l-4.853,7.849H60.6Z" transform="translate(-2.423 -0.941)" fill="#32eb2f"></path><path id="Path_7" data-name="Path 7" d="M37.576,0h-9.8V6.451h9.8a6.31,6.31,0,0,1,6.05,6.529v.645a6.31,6.31,0,0,1-6.05,6.529h-9.8V26.6h9.8c6.632,0,12.029-5.823,12.029-12.98V12.98C49.6,5.823,44.208,0,37.576,0Z" transform="translate(-1.323)"></path></svg>