<svg width="21" height="20" viewBox="0 0 21 20" fill="none" xmlns="http://www.w3.org/2000/svg">
<path fill-rule="evenodd" clip-rule="evenodd" d="M3.30716 9.44334C7.78017 7.45039 10.7579 6.12613 12.2532 5.48366C16.5089 3.66116 17.4035 3.34649 17.9786 3.33337C18.1064 3.33337 18.3876 3.3596 18.5793 3.51694C18.7326 3.64805 18.771 3.8185 18.7965 3.94962C18.8221 4.08073 18.8477 4.35607 18.8221 4.56586C18.5921 7.05705 17.5952 13.1015 17.084 15.8811C16.8668 17.0611 16.445 17.4545 16.0361 17.4938C15.1415 17.5725 14.4641 16.8907 13.6079 16.3138C12.2532 15.4091 11.4991 14.8453 10.1828 13.9537C8.66199 12.931 9.64605 12.3672 10.5151 11.4494C10.7451 11.2134 14.6686 7.54217 14.7453 7.21438C14.7581 7.17505 14.7581 7.01771 14.6686 6.93904C14.5791 6.86037 14.4513 6.8866 14.3491 6.91282C14.2085 6.93904 12.0615 8.40753 7.88241 11.3052C7.26896 11.7379 6.71942 11.9476 6.221 11.9345C5.67146 11.9214 4.6235 11.6199 3.83114 11.3576C2.87264 11.0429 2.10584 10.8725 2.16974 10.3218C2.20808 10.0334 2.59148 9.74491 3.30716 9.44334Z" fill="#8C8F9B"/>
</svg>
