<svg width="21" height="20" viewBox="0 0 21 20" fill="none" xmlns="http://www.w3.org/2000/svg">
<path d="M7.37378 2.5C4.9619 2.5 3 4.46372 3 6.87622V13.1262C3 15.5381 4.96372 17.5 7.37622 17.5H13.6262C16.0381 17.5 18 15.5363 18 13.1238V6.87378C18 4.4619 16.0363 2.5 13.6238 2.5H7.37378ZM14.875 5C15.22 5 15.5 5.28 15.5 5.625C15.5 5.97 15.22 6.25 14.875 6.25C14.53 6.25 14.25 5.97 14.25 5.625C14.25 5.28 14.53 5 14.875 5ZM10.5 6.25C12.5681 6.25 14.25 7.93187 14.25 10C14.25 12.0681 12.5681 13.75 10.5 13.75C8.43187 13.75 6.75 12.0681 6.75 10C6.75 7.93187 8.43187 6.25 10.5 6.25ZM10.5 7.5C9.83696 7.5 9.20107 7.76339 8.73223 8.23223C8.26339 8.70107 8 9.33696 8 10C8 10.663 8.26339 11.2989 8.73223 11.7678C9.20107 12.2366 9.83696 12.5 10.5 12.5C11.163 12.5 11.7989 12.2366 12.2678 11.7678C12.7366 11.2989 13 10.663 13 10C13 9.33696 12.7366 8.70107 12.2678 8.23223C11.7989 7.76339 11.163 7.5 10.5 7.5Z" fill="#8C8F9B"/>
</svg>
