<svg width="115" height="21" viewBox="0 0 115 21" fill="none" xmlns="http://www.w3.org/2000/svg">
<path d="M8.6306 20.4956C6.96938 20.4956 5.4985 20.2112 4.22229 19.6424C2.94609 19.0736 1.9381 18.251 1.20699 17.1747C0.475873 16.0983 0.073544 14.8207 0 13.3375H5.17404C5.22595 13.9894 5.4163 14.5407 5.73643 14.9914C6.05656 15.442 6.48485 15.7877 7.02129 16.0196C7.55773 16.2559 8.15473 16.374 8.81663 16.374C9.31846 16.374 9.77702 16.2996 10.1967 16.1552C10.6163 16.0108 10.9494 15.8052 11.2003 15.5339C11.4512 15.2626 11.5767 14.9214 11.5767 14.5057C11.5767 13.9981 11.3993 13.6087 11.0403 13.3287C10.6812 13.0487 10.1447 12.8474 9.43093 12.7205L6.24259 12.1517C5.20432 11.9329 4.26123 11.6092 3.40033 11.176C2.53943 10.7428 1.8559 10.1522 1.33677 9.39958C0.817636 8.65139 0.558069 7.71505 0.558069 6.59495C0.558069 5.34795 0.899832 4.2716 1.58768 3.37027C2.27554 2.46893 3.20133 1.76449 4.36073 1.25695C5.52013 0.749398 6.84392 0.5 8.32778 0.5C10.0236 0.5 11.4642 0.771275 12.6409 1.31383C13.8219 1.85638 14.7218 2.6177 15.3491 3.60217C15.972 4.58663 16.3224 5.71111 16.396 6.97561H11.196C11.1787 6.50744 11.0576 6.09177 10.8326 5.72861C10.6076 5.36546 10.2745 5.0723 9.82894 4.84916C9.38335 4.62164 8.8296 4.51225 8.16771 4.51225C7.68318 4.51225 7.23759 4.57788 6.82661 4.71352C6.41563 4.84916 6.0955 5.04168 5.86189 5.29545C5.62828 5.54922 5.51147 5.86425 5.51147 6.24491C5.51147 6.73496 5.72778 7.09374 6.16904 7.33001C6.60598 7.56629 7.19866 7.74568 7.9514 7.87257L10.8975 8.38886C11.8968 8.53325 12.8269 8.8264 13.6835 9.26832C14.5401 9.71024 15.2323 10.3184 15.76 11.0841C16.2878 11.8542 16.5517 12.843 16.5517 14.0506C16.5517 15.2583 16.2619 16.3302 15.6822 17.3147C15.1025 18.2992 14.2199 19.078 13.0432 19.6468C11.8665 20.2156 10.3913 20.5 8.62195 20.5L8.6306 20.4956Z" fill="#CECECE"/>
<path d="M23.7726 19.8101V5.33788H17.9311V1.18945H34.4828V5.33788H28.6923V19.8101H23.7726Z" fill="#CECECE"/>
<path d="M43.3535 19.8101L36.5517 1.18945H42.0594L45.8938 12.7071C46.055 13.2225 46.1988 13.6777 46.3251 14.0771C46.4515 14.4764 46.543 14.8544 46.5953 15.2065C46.6476 14.8501 46.7391 14.4764 46.8655 14.0771C46.9918 13.6777 47.1443 13.2225 47.323 12.7071L51.1269 1.18945H56.5517L49.5626 19.8101H43.3535Z" fill="#CECECE"/>
<path d="M66.1139 20.5C64.7386 20.5 63.4671 20.2769 62.2951 19.8351C61.1231 19.3933 60.1111 18.7458 59.2547 17.8972C58.3984 17.0486 57.7324 16.0031 57.261 14.7695C56.7896 13.5315 56.5517 12.1098 56.5517 10.5C56.5517 8.8902 56.7896 7.52537 57.261 6.2874C57.7324 5.04943 58.3984 3.99956 59.2547 3.12905C60.1111 2.25853 61.1274 1.60674 62.2951 1.16492C63.4628 0.723097 64.7386 0.5 66.1139 0.5C67.4892 0.5 68.765 0.731846 69.9457 1.19116C71.1264 1.65048 72.1557 2.31102 73.038 3.16842C73.9202 4.02581 74.6122 5.07568 75.1139 6.31365C75.6156 7.55162 75.8621 8.94707 75.8621 10.5C75.8621 12.0529 75.6112 13.479 75.1139 14.7257C74.6122 15.9724 73.9245 17.0223 73.0509 17.871C72.1773 18.7196 71.1437 19.3714 69.9587 19.822C68.7694 20.2725 67.4892 20.5 66.1139 20.5ZM66.1139 16.2743C66.7756 16.2743 67.3811 16.1518 67.9347 15.9068C68.4882 15.6619 68.9683 15.2988 69.3662 14.8088C69.7684 14.3189 70.0798 13.7152 70.3047 12.9934C70.5296 12.2717 70.6377 11.4405 70.6377 10.5C70.6377 9.25328 70.4474 8.20779 70.0625 7.35477C69.6776 6.50612 69.1456 5.85433 68.4666 5.40376C67.7876 4.95319 67.0005 4.72572 66.1096 4.72572C65.4306 4.72572 64.8251 4.85258 64.2888 5.1063C63.7526 5.36002 63.2941 5.72747 62.9092 6.21741C62.5243 6.70735 62.2345 7.30228 62.0399 8.00656C61.8453 8.71085 61.7458 9.542 61.7458 10.5C61.7458 11.7467 61.9232 12.801 62.2821 13.6584C62.6411 14.5157 63.1471 15.1675 63.8088 15.6094C64.4705 16.0512 65.236 16.2743 66.1139 16.2743Z" fill="#CECECE"/>
<path d="M77.9311 19.8101V1.18945H82.9777V15.6617H91.7242V19.8101H77.9311Z" fill="#CECECE"/>
<path d="M107.351 0.539818L96.5726 11.4012C96.518 11.4571 96.5768 11.5345 96.6778 11.5345H107.502C107.548 11.5345 107.586 11.5087 107.586 11.4786V0.587097C107.586 0.501134 107.422 0.466749 107.351 0.539818Z" fill="#CECECE"/>
<path d="M103.684 19.7705L114.462 8.90912C114.517 8.85325 114.458 8.77588 114.357 8.77588H103.532C103.486 8.77588 103.448 8.80167 103.448 8.83175V19.7233C103.448 19.8092 103.612 19.8436 103.684 19.7705Z" fill="#CECECE"/>
</svg>
