<svg width="24" height="25" viewBox="0 0 24 25" fill="none" xmlns="http://www.w3.org/2000/svg">
<path fill-rule="evenodd" clip-rule="evenodd" d="M12 2.5C6.475 2.5 2 6.975 2 12.5C2 16.925 4.8625 20.6625 8.8375 21.9875C9.3375 22.075 9.525 21.775 9.525 21.5125C9.525 21.275 9.5125 20.4875 9.5125 19.65C7 20.1125 6.35 19.0375 6.15 18.475C6.0375 18.1875 5.55 17.3 5.125 17.0625C4.775 16.875 4.275 16.4125 5.1125 16.4C5.9 16.3875 6.4625 17.125 6.65 17.425C7.55 18.9375 8.9875 18.5125 9.5625 18.25C9.65 17.6 9.9125 17.1625 10.2 16.9125C7.975 16.6625 5.65 15.8 5.65 11.975C5.65 10.8875 6.0375 9.9875 6.675 9.2875C6.575 9.0375 6.225 8.0125 6.775 6.6375C6.775 6.6375 7.6125 6.375 9.525 7.6625C10.325 7.4375 11.175 7.325 12.025 7.325C12.875 7.325 13.725 7.4375 14.525 7.6625C16.4375 6.3625 17.275 6.6375 17.275 6.6375C17.825 8.0125 17.475 9.0375 17.375 9.2875C18.0125 9.9875 18.4 10.875 18.4 11.975C18.4 15.8125 16.0625 16.6625 13.8375 16.9125C14.2 17.225 14.5125 17.825 14.5125 18.7625C14.5125 20.1 14.5 21.175 14.5 21.5125C14.5 21.775 14.6875 22.0875 15.1875 21.9875C17.1727 21.3173 18.8977 20.0415 20.1198 18.3395C21.3419 16.6376 21.9995 14.5953 22 12.5C22 6.975 17.525 2.5 12 2.5Z" fill="#E4E4E4"/>
</svg>
