<svg width="25" height="25" viewBox="0 0 25 25" fill="none" xmlns="http://www.w3.org/2000/svg">
<path d="M23.3333 5.39699C22.5665 5.75819 21.74 5.99555 20.8835 6.10907C21.7599 5.56211 22.4371 4.69524 22.7557 3.65293C21.9292 4.16892 21.013 4.53012 20.047 4.73652C19.2603 3.849 18.1549 3.33301 16.9001 3.33301C14.5598 3.33301 12.6478 5.31443 12.6478 7.76025C12.6478 8.11113 12.6876 8.45169 12.7573 8.7716C9.21208 8.58585 6.05521 6.82114 3.95395 4.14828C3.58548 4.79844 3.37635 5.56211 3.37635 6.36706C3.37635 7.90473 4.12325 9.26696 5.27844 10.041C4.57138 10.041 3.91412 9.83456 3.33652 9.52496V9.55592C3.33652 11.7025 4.81039 13.4981 6.76227 13.9006C6.1356 14.0783 5.47771 14.103 4.84027 13.9728C5.11075 14.8526 5.64047 15.6224 6.35498 16.174C7.06949 16.7256 7.93285 17.0313 8.82369 17.0482C7.31361 18.287 5.44176 18.9567 3.51577 18.947C3.17718 18.947 2.83859 18.9264 2.5 18.8851C4.39213 20.1442 6.64277 20.8769 9.05274 20.8769C16.9001 20.8769 21.2122 14.1276 21.2122 8.27625C21.2122 8.08017 21.2122 7.89441 21.2022 7.69833C22.0387 7.07914 22.7557 6.29482 23.3333 5.39699Z" fill="#E4E4E4"/>
</svg>
