<svg width="24" height="25" viewBox="0 0 24 25" fill="none" xmlns="http://www.w3.org/2000/svg">
<path d="M18.8944 4.84399C17.5184 4.21467 16.057 3.756 14.5317 3.5C14.3397 3.83067 14.1263 4.27866 13.977 4.63067C12.3546 4.39599 10.7439 4.39599 9.14394 4.63067C8.9946 4.27866 8.77059 3.83067 8.58925 3.5C7.05328 3.756 5.59194 4.21467 4.22555 4.84399C1.46289 8.91865 0.716219 12.8973 1.08955 16.8226C2.92421 18.1559 4.6949 18.9666 6.43463 19.5C6.86129 18.924 7.2453 18.3053 7.57597 17.6546C6.94663 17.42 6.3493 17.132 5.7733 16.7906C5.92263 16.684 6.07197 16.5667 6.21064 16.4493C9.68796 18.0387 13.4544 18.0387 16.889 16.4493C17.0383 16.5667 17.177 16.684 17.3263 16.7906C16.7503 17.132 16.153 17.42 15.5237 17.6546C15.8543 18.3053 16.2384 18.924 16.665 19.5C18.4037 18.9666 20.185 18.1559 22.0101 16.8226C22.4687 12.2787 21.2837 8.33202 18.8944 4.84399ZM8.05596 14.4013C7.01061 14.4013 6.15728 13.452 6.15728 12.2893C6.15728 11.1267 6.98928 10.1773 8.05596 10.1773C9.11194 10.1773 9.97591 11.1267 9.95457 12.2893C9.95457 13.452 9.11194 14.4013 8.05596 14.4013ZM15.065 14.4013C14.0197 14.4013 13.1653 13.452 13.1653 12.2893C13.1653 11.1267 13.9983 10.1773 15.065 10.1773C16.121 10.1773 16.985 11.1267 16.9637 12.2893C16.9637 13.452 16.1317 14.4013 15.065 14.4013Z" fill="#E4E4E4"/>
</svg>
