<svg width="1200" height="630" viewBox="0 0 1200 630" fill="none" xmlns="http://www.w3.org/2000/svg">
<rect width="1200" height="630" fill="#F6EEFF"/>
<path d="M211.382 396C211.382 422.044 190.269 443.158 164.224 443.158C138.18 443.158 117.066 422.044 117.066 396C117.066 369.955 138.18 348.842 164.224 348.842C190.269 348.842 211.382 369.955 211.382 396Z" fill="url(#paint0_linear_2045_1002)"/>
<path opacity="0.7" d="M162.645 417.58C173.694 417.58 182.651 408.623 182.651 397.574C182.651 386.525 173.694 377.567 162.645 377.567C151.596 377.567 142.639 386.525 142.639 397.574C142.639 408.623 151.596 417.58 162.645 417.58Z" fill="url(#paint1_linear_2045_1002)" stroke="white" stroke-width="10.289"/>
<path opacity="0.2" d="M168.924 422.294C179.974 422.294 188.931 413.337 188.931 402.288C188.931 391.238 179.974 382.281 168.924 382.281C157.875 382.281 148.918 391.238 148.918 402.288C148.918 413.337 157.875 422.294 168.924 422.294Z" fill="url(#paint2_linear_2045_1002)" stroke="white" stroke-width="10.289"/>
<path d="M164.21 411.292C175.259 411.292 184.216 402.335 184.216 391.286C184.216 380.236 175.259 371.279 164.21 371.279C153.16 371.279 144.203 380.236 144.203 391.286C144.203 402.335 153.16 411.292 164.21 411.292Z" fill="url(#paint3_linear_2045_1002)" stroke="white" stroke-width="10.289"/>
<path d="M356.382 396C356.382 422.044 335.269 443.158 309.224 443.158C283.18 443.158 262.066 422.044 262.066 396C262.066 369.955 283.18 348.842 309.224 348.842C335.269 348.842 356.382 369.955 356.382 396Z" fill="url(#paint4_linear_2045_1002)"/>
<path opacity="0.3" d="M302.032 377.998H292.429C289.872 377.998 287.799 380.071 287.799 382.628V414.524C287.799 417.081 289.872 419.154 292.429 419.154H302.032C304.589 419.154 306.662 417.081 306.662 414.524V382.628C306.662 380.071 304.589 377.998 302.032 377.998Z" fill="white"/>
<path opacity="0.3" d="M332.897 390.003H285.568C283.01 390.003 280.938 392.076 280.938 394.633V414.525C280.938 417.082 283.01 419.155 285.568 419.155H332.897C335.454 419.155 337.527 417.082 337.527 414.525V394.633C337.527 392.076 335.454 390.003 332.897 390.003Z" fill="white"/>
<path opacity="0.6" d="M326.044 376.284H318.155C315.598 376.284 313.525 378.357 313.525 380.914V414.525C313.525 417.082 315.598 419.155 318.155 419.155H326.044C328.601 419.155 330.674 417.082 330.674 414.525V380.914C330.674 378.357 328.601 376.284 326.044 376.284Z" fill="white"/>
<path d="M313.521 367.709H304.947C302.106 367.709 299.803 370.012 299.803 372.853V419.154C299.803 421.995 302.106 424.298 304.947 424.298H313.521C316.363 424.298 318.666 421.995 318.666 419.154V372.853C318.666 370.012 316.363 367.709 313.521 367.709Z" fill="white"/>
<g clip-path="url(#clip0_2045_1002)">
<path d="M503 396C503 422.51 481.51 444 455 444C428.49 444 407 422.51 407 396C407 369.49 428.49 348 455 348C481.51 348 503 369.49 503 396Z" fill="url(#paint5_linear_2045_1002)"/>
<path opacity="0.5" d="M478.844 388.837H431.118C428.424 388.837 426.24 391.45 426.24 394.673V412.741C426.24 415.965 428.424 418.578 431.118 418.578H478.844C481.538 418.578 483.722 415.965 483.722 412.741V394.673C483.722 391.45 481.538 388.837 478.844 388.837Z" fill="white"/>
<path opacity="0.25" d="M474.797 398.959H435.164C432.927 398.959 431.113 401.122 431.113 403.79V418.745C431.113 421.413 432.927 423.576 435.164 423.576H474.797C477.035 423.576 478.848 421.413 478.848 418.745V403.79C478.848 401.122 477.035 398.959 474.797 398.959Z" fill="white"/>
<path d="M483.19 375.966H426.811C423.823 375.966 421.4 378.711 421.4 382.098V406.94C421.4 410.327 423.823 413.072 426.811 413.072H483.19C486.178 413.072 488.6 410.327 488.6 406.94V382.098C488.6 378.711 486.178 375.966 483.19 375.966Z" fill="white"/>
<path d="M449.348 393.953C449.348 400.088 444.42 405.062 438.341 405.062C432.262 405.062 427.334 400.088 427.334 393.953C427.334 387.818 432.262 382.844 438.341 382.844C444.42 382.844 449.348 387.818 449.348 393.953Z" fill="url(#paint6_linear_2045_1002)"/>
<path fill-rule="evenodd" clip-rule="evenodd" d="M438.452 397.19C441.038 397.19 443.134 395.074 443.134 392.465C443.134 389.855 441.038 387.739 438.452 387.739C435.866 387.739 433.77 389.855 433.77 392.465C433.77 395.074 435.866 397.19 438.452 397.19ZM437.283 398.094C432.789 398.094 429.146 401.737 429.146 406.231H447.643C447.643 401.737 444 398.094 439.506 398.094H437.283Z" fill="url(#paint7_linear_2045_1002)"/>
<path d="M478.93 382.574L478.861 382.803V389.448L478.93 389.515L482.076 387.692L478.93 382.574Z" fill="url(#paint8_linear_2045_1002)"/>
<path d="M478.931 382.574L475.785 387.692L478.931 389.515V386.29V382.574Z" fill="url(#paint9_linear_2045_1002)"/>
<path d="M478.929 390.099L478.891 390.145V392.512L478.929 392.623L482.077 388.276L478.929 390.099Z" fill="url(#paint10_linear_2045_1002)"/>
<path d="M478.931 392.623V390.099L475.785 388.276L478.931 392.623Z" fill="url(#paint11_linear_2045_1002)"/>
<path d="M478.93 389.515L482.076 387.692L478.93 386.29V389.515Z" fill="url(#paint12_linear_2045_1002)"/>
<path d="M475.785 387.692L478.931 389.515V386.29L475.785 387.692Z" fill="url(#paint13_linear_2045_1002)"/>
<path opacity="0.4" d="M481.924 400.04H458.782C457.799 400.04 457.002 400.946 457.002 402.063C457.002 403.18 457.799 404.086 458.782 404.086H481.924C482.907 404.086 483.704 403.18 483.704 402.063C483.704 400.946 482.907 400.04 481.924 400.04Z" fill="#FFCDE6"/>
</g>
<g clip-path="url(#clip1_2045_1002)">
<path d="M648 396C648 422.51 626.51 444 600 444C573.49 444 552 422.51 552 396C552 369.49 573.49 348 600 348C626.51 348 648 369.49 648 396Z" fill="url(#paint14_linear_2045_1002)"/>
<path opacity="0.6" d="M603.244 429.994L622.647 410.592C624.787 408.452 624.787 404.982 622.647 402.841L603.244 383.439C601.104 381.299 597.634 381.299 595.494 383.439L576.091 402.841C573.951 404.982 573.951 408.452 576.091 410.592L595.494 429.994C597.634 432.135 601.104 432.135 603.244 429.994Z" fill="white"/>
<path opacity="0.7" d="M603.244 419.275L622.647 399.872C624.787 397.732 624.787 394.262 622.647 392.122L603.244 372.72C601.104 370.579 597.634 370.579 595.494 372.72L576.091 392.122C573.951 394.262 573.951 397.732 576.091 399.872L595.494 419.275C597.634 421.415 601.104 421.415 603.244 419.275Z" fill="white"/>
<path d="M603.244 408.561L622.647 389.159C624.787 387.018 624.787 383.548 622.647 381.408L603.244 362.006C601.104 359.865 597.634 359.865 595.494 362.006L576.091 381.408C573.951 383.548 573.951 387.018 576.091 389.159L595.494 408.561C597.634 410.701 601.104 410.701 603.244 408.561Z" fill="white"/>
</g>
<g clip-path="url(#clip2_2045_1002)">
<path d="M793 396C793 422.51 771.51 444 745 444C718.49 444 697 422.51 697 396C697 369.49 718.49 348 745 348C771.51 348 793 369.49 793 396Z" fill="#54EFAD"/>
<path opacity="0.4" d="M768.351 396C768.351 408.896 757.896 419.351 745 419.351C732.103 419.351 721.648 408.896 721.648 396C721.648 383.103 732.103 372.648 745 372.648C757.896 372.648 768.351 383.103 768.351 396Z" fill="white"/>
<path opacity="0.4" d="M760.567 396C760.567 404.598 753.597 411.568 744.999 411.568C736.401 411.568 729.432 404.598 729.432 396C729.432 387.402 736.401 380.433 744.999 380.433C753.597 380.433 760.567 387.402 760.567 396Z" fill="white"/>
<path opacity="0.7" d="M746.082 367.2L742.604 367.498C727.101 368.786 715.381 382.219 716.244 397.701C717.106 413.184 730.26 425.219 745.809 424.789C761.359 424.359 773.799 411.609 773.799 396.104V392.637H766.843V396.104C766.843 407.931 757.479 417.527 745.62 417.855C733.761 418.182 723.859 409.104 723.202 397.295C722.546 385.486 731.379 375.387 743.203 374.405L746.654 374.107L746.082 367.2Z" fill="white"/>
</g>
<path d="M938 395.842C938 421.705 916.51 442.671 890 442.671C863.49 442.671 842 421.705 842 395.842C842 369.979 863.49 349.013 890 349.013C916.51 349.013 938 369.979 938 395.842Z" fill="url(#paint15_linear_2045_1002)"/>
<path d="M873.547 376.603H868.191C865.655 376.603 863.6 378.608 863.6 381.082V381.082C863.6 383.556 865.655 385.561 868.191 385.561H873.547C876.083 385.561 878.139 383.556 878.139 381.082V381.082C878.139 378.608 876.083 376.603 873.547 376.603Z" fill="white" fill-opacity="0.5"/>
<path d="M892.678 376.603H887.322C884.786 376.603 882.73 378.608 882.73 381.082V381.082C882.73 383.556 884.786 385.561 887.322 385.561H892.678C895.214 385.561 897.27 383.556 897.27 381.082V381.082C897.27 378.608 895.214 376.603 892.678 376.603Z" fill="white"/>
<path d="M911.807 376.603H906.451C903.915 376.603 901.859 378.608 901.859 381.082V381.082C901.859 383.556 903.915 385.561 906.451 385.561H911.807C914.343 385.561 916.399 383.556 916.399 381.082V381.082C916.399 378.608 914.343 376.603 911.807 376.603Z" fill="white" fill-opacity="0.5"/>
<path d="M889.314 392.279H874.392C871.856 392.279 869.801 394.285 869.801 396.759V396.759C869.801 399.232 871.856 401.238 874.392 401.238H889.314C891.85 401.238 893.905 399.232 893.905 396.759V396.759C893.905 394.285 891.85 392.279 889.314 392.279Z" fill="white"/>
<path d="M918.007 392.279H903.085C900.55 392.279 898.494 394.285 898.494 396.759V396.759C898.494 399.232 900.55 401.238 903.085 401.238H918.007C920.543 401.238 922.599 399.232 922.599 396.759V396.759C922.599 394.285 920.543 392.279 918.007 392.279Z" fill="white"/>
<path d="M911.808 407.957H868.191C865.655 407.957 863.6 409.962 863.6 412.436V412.436C863.6 414.91 865.655 416.916 868.191 416.916H911.808C914.344 416.916 916.4 414.91 916.4 412.436C916.4 409.962 914.344 407.957 911.808 407.957Z" fill="white"/>
<mask id="mask0_2045_1002" style="mask-type:luminance" maskUnits="userSpaceOnUse" x="987" y="349" width="96" height="94">
<path d="M1083 349.453H987V442.544H1083V349.453Z" fill="white"/>
</mask>
<g mask="url(#mask0_2045_1002)">
<path d="M1082.61 395.999C1082.61 421.705 1061.77 442.544 1036.06 442.544C1010.36 442.544 989.52 421.705 989.52 395.999C989.52 370.292 1010.36 349.453 1036.06 349.453C1061.77 349.453 1082.61 370.292 1082.61 395.999Z" fill="url(#paint16_linear_2045_1002)"/>
<path opacity="0.3" d="M1059.35 384.363H1012.8C1009.59 384.363 1006.98 386.968 1006.98 390.181V413.454C1006.98 416.668 1009.59 419.272 1012.8 419.272H1059.35C1062.56 419.272 1065.16 416.668 1065.16 413.454V390.181C1065.16 386.968 1062.56 384.363 1059.35 384.363Z" fill="url(#paint17_linear_2045_1002)"/>
<path opacity="0.6" d="M1059.35 372.727H1012.8C1009.59 372.727 1006.98 375.331 1006.98 378.545V401.817C1006.98 405.031 1009.59 407.636 1012.8 407.636H1059.35C1062.56 407.636 1065.16 405.031 1065.16 401.817V378.545C1065.16 375.331 1062.56 372.727 1059.35 372.727Z" fill="url(#paint18_linear_2045_1002)"/>
<path d="M1059.35 372.727H1012.8C1009.59 372.727 1006.98 375.331 1006.98 378.545V390.181C1006.98 393.394 1009.59 395.999 1012.8 395.999H1059.35C1062.56 395.999 1065.16 393.394 1065.16 390.181V378.545C1065.16 375.331 1062.56 372.727 1059.35 372.727Z" fill="url(#paint19_linear_2045_1002)"/>
</g>
<g clip-path="url(#clip3_2045_1002)">
<path d="M522.657 231.803V230.779C522.657 228.207 521.769 226.238 519.994 224.873C518.273 223.455 516.013 222.746 513.216 222.746C511.064 222.746 509.37 223.114 508.133 223.849C506.949 224.531 505.82 225.581 504.744 226.999C504.421 227.419 504.071 227.708 503.695 227.865C503.318 228.023 502.807 228.102 502.162 228.102H499.741C499.149 228.102 498.611 227.891 498.127 227.471C497.697 227.052 497.509 226.553 497.562 225.975C497.724 224.4 498.504 222.851 499.902 221.329C501.355 219.754 503.264 218.468 505.631 217.47C507.998 216.472 510.526 215.974 513.216 215.974C518.219 215.974 522.253 217.339 525.319 220.069C528.439 222.799 529.999 226.631 529.999 231.567V255.586C529.999 256.163 529.784 256.662 529.354 257.082C528.923 257.502 528.412 257.712 527.821 257.712H524.835C524.244 257.712 523.732 257.502 523.302 257.082C522.872 256.662 522.657 256.163 522.657 255.586V252.357C521.796 254.247 519.967 255.743 517.17 256.846C514.373 257.948 511.575 258.5 508.778 258.5C506.035 258.5 503.587 258.027 501.435 257.082C499.284 256.085 497.616 254.746 496.433 253.066C495.303 251.386 494.738 249.496 494.738 247.396C494.738 243.458 496.245 240.387 499.257 238.182C502.269 235.924 506.277 234.402 511.28 233.614L522.657 231.803ZM522.657 238.103L513.135 239.599C509.639 240.124 506.922 240.991 504.986 242.198C503.049 243.353 502.081 244.823 502.081 246.608C502.081 247.921 502.7 249.102 503.937 250.152C505.174 251.202 507.057 251.727 509.585 251.727C513.458 251.727 516.605 250.651 519.026 248.498C521.446 246.346 522.657 243.537 522.657 240.072V238.103Z" fill="#0C0C0E"/>
<path d="M549.114 255.586C549.114 256.163 548.898 256.662 548.468 257.082C548.038 257.502 547.528 257.712 546.935 257.712H543.949C543.358 257.712 542.846 257.502 542.416 257.082C541.986 256.662 541.771 256.163 541.771 255.586V203.924C541.771 203.347 541.986 202.848 542.416 202.428C542.846 202.008 543.358 201.798 543.949 201.798H546.935C547.528 201.798 548.038 202.008 548.468 202.428C548.898 202.848 549.114 203.347 549.114 203.924V255.586Z" fill="#0C0C0E"/>
<path d="M578.18 251.727C583.559 251.727 587.19 249.68 589.074 245.584C589.45 244.797 589.827 244.246 590.204 243.931C590.579 243.616 591.091 243.458 591.735 243.458H594.157C594.749 243.458 595.259 243.668 595.689 244.088C596.121 244.456 596.335 244.902 596.335 245.427C596.335 247.212 595.609 249.128 594.157 251.176C592.704 253.223 590.606 254.956 587.863 256.373C585.12 257.791 581.893 258.5 578.18 258.5C574.361 258.5 571.053 257.712 568.256 256.137C565.458 254.562 563.307 252.41 561.8 249.68C560.294 246.897 559.461 243.799 559.299 240.387C559.245 239.757 559.219 238.549 559.219 236.764C559.219 235.504 559.245 234.612 559.299 234.087C559.784 228.731 561.639 224.374 564.867 221.014C568.095 217.654 572.532 215.974 578.18 215.974C581.893 215.974 585.092 216.682 587.782 218.1C590.526 219.465 592.598 221.171 593.995 223.219C595.448 225.214 596.227 227.104 596.335 228.889C596.389 229.467 596.174 229.965 595.689 230.385C595.259 230.805 594.749 231.015 594.157 231.015H591.735C591.091 231.015 590.579 230.858 590.204 230.543C589.827 230.228 589.45 229.677 589.074 228.889C587.19 224.794 583.559 222.746 578.18 222.746C575.221 222.746 572.64 223.718 570.434 225.66C568.229 227.603 566.965 230.543 566.641 234.48C566.588 235.058 566.561 236.003 566.561 237.315C566.561 238.523 566.588 239.416 566.641 239.993C567.018 243.931 568.282 246.871 570.434 248.813C572.64 250.756 575.221 251.727 578.18 251.727Z" fill="#0C0C0E"/>
<path d="M643.27 255.586C643.27 256.163 643.056 256.662 642.624 257.082C642.194 257.502 641.683 257.712 641.092 257.712H638.105C637.514 257.712 637.004 257.502 636.573 257.082C636.142 256.662 635.927 256.163 635.927 255.586V234.795C635.927 230.857 634.932 227.865 632.942 225.817C630.952 223.77 628.181 222.746 624.631 222.746C621.134 222.746 618.363 223.77 616.32 225.817C614.33 227.865 613.335 230.857 613.335 234.795V255.586C613.335 256.163 613.119 256.662 612.689 257.082C612.258 257.502 611.747 257.712 611.155 257.712H608.17C607.579 257.712 607.067 257.502 606.637 257.082C606.207 256.662 605.992 256.163 605.992 255.586V203.924C605.992 203.347 606.207 202.848 606.637 202.428C607.067 202.008 607.579 201.798 608.17 201.798H611.155C611.747 201.798 612.258 202.008 612.689 202.428C613.119 202.848 613.335 203.347 613.335 203.924V221.328C614.518 219.806 616.132 218.546 618.176 217.548C620.274 216.498 622.829 215.973 625.841 215.973C629.229 215.973 632.243 216.682 634.879 218.1C637.514 219.517 639.559 221.565 641.011 224.242C642.517 226.867 643.27 229.991 643.27 233.614V255.586Z" fill="#0C0C0E"/>
<path d="M671.545 215.974C677.301 215.974 681.846 217.759 685.182 221.329C688.518 224.899 690.185 229.755 690.185 235.898V238.024C690.185 238.602 689.97 239.1 689.539 239.521C689.109 239.941 688.597 240.15 688.006 240.15H660.249V240.623C660.357 244.088 661.433 246.818 663.477 248.813C665.575 250.756 668.264 251.727 671.545 251.727C674.235 251.727 676.306 251.386 677.758 250.703C679.265 250.021 680.61 249.049 681.793 247.789C682.223 247.369 682.6 247.081 682.923 246.923C683.3 246.766 683.783 246.687 684.375 246.687H686.797C687.441 246.687 687.979 246.897 688.41 247.317C688.84 247.737 689.028 248.236 688.975 248.813C688.759 250.231 687.953 251.701 686.554 253.223C685.209 254.693 683.245 255.953 680.663 257.003C678.135 258.001 675.097 258.5 671.545 258.5C668.103 258.5 665.036 257.738 662.347 256.216C659.657 254.641 657.506 252.488 655.891 249.758C654.332 247.028 653.391 243.957 653.067 240.544C652.961 238.969 652.906 237.762 652.906 236.922C652.906 236.082 652.961 234.874 653.067 233.299C653.391 230.044 654.332 227.104 655.891 224.479C657.506 221.854 659.631 219.78 662.267 218.258C664.957 216.735 668.05 215.974 671.545 215.974ZM682.923 233.535V233.299C682.923 230.096 681.874 227.55 679.776 225.66C677.731 223.718 674.989 222.746 671.545 222.746C668.425 222.746 665.762 223.718 663.558 225.66C661.405 227.603 660.304 230.149 660.249 233.299V233.535H682.923Z" fill="#0C0C0E"/>
<path d="M707.261 221.329C708.551 219.701 710.005 218.415 711.618 217.47C713.232 216.472 715.384 215.974 718.073 215.974C724.368 215.974 728.778 218.258 731.307 222.825C732.866 220.62 734.641 218.94 736.632 217.785C738.623 216.577 741.231 215.974 744.458 215.974C749.73 215.974 753.63 217.522 756.158 220.62C758.74 223.718 760.032 228.102 760.032 233.772V255.586C760.032 256.163 759.816 256.662 759.386 257.082C758.956 257.502 758.444 257.712 757.853 257.712H754.868C754.276 257.712 753.765 257.502 753.334 257.082C752.904 256.662 752.688 256.163 752.688 255.586V234.559C752.688 226.684 749.515 222.746 743.168 222.746C740.262 222.746 737.95 223.691 736.229 225.581C734.506 227.471 733.646 230.28 733.646 234.008V255.586C733.646 256.163 733.431 256.662 733.001 257.082C732.571 257.502 732.059 257.712 731.468 257.712H728.482C727.891 257.712 727.379 257.502 726.949 257.082C726.519 256.662 726.303 256.163 726.303 255.586V234.559C726.303 226.684 723.13 222.746 716.783 222.746C713.877 222.746 711.565 223.691 709.844 225.581C708.121 227.471 707.261 230.28 707.261 234.008V255.586C707.261 256.163 707.046 256.662 706.616 257.082C706.186 257.502 705.674 257.712 705.083 257.712H702.097C701.504 257.712 700.994 257.502 700.564 257.082C700.134 256.662 699.918 256.163 699.918 255.586V218.887C699.918 218.31 700.134 217.811 700.564 217.391C700.994 216.971 701.504 216.761 702.097 216.761H705.083C705.674 216.761 706.186 216.971 706.616 217.391C707.046 217.811 707.261 218.31 707.261 218.887V221.329Z" fill="#0C0C0E"/>
<path d="M782.631 270.785C782.146 272.045 781.367 272.675 780.29 272.675H776.983C776.444 272.675 775.986 272.491 775.61 272.123C775.233 271.756 775.046 271.31 775.046 270.785C775.046 270.574 775.072 270.391 775.125 270.233L782.872 253.774L766.896 219.202C766.843 219.044 766.814 218.861 766.814 218.651C766.814 218.126 767.004 217.679 767.379 217.312C767.756 216.945 768.213 216.761 768.751 216.761H772.06C773.135 216.761 773.916 217.391 774.4 218.651L786.825 245.426L799.414 218.651C799.897 217.391 800.678 216.761 801.753 216.761H805.062C805.6 216.761 806.057 216.945 806.433 217.312C806.81 217.679 806.998 218.126 806.998 218.651C806.998 218.861 806.971 219.044 806.918 219.202L782.631 270.785Z" fill="#0C0C0E"/>
<path d="M464.229 231.659L437.135 186.072C437.004 185.847 436.814 185.66 436.584 185.529C436.355 185.398 436.094 185.328 435.827 185.326C435.561 185.325 435.299 185.391 435.068 185.519C434.837 185.647 434.644 185.833 434.51 186.056L426.396 199.716C426.13 200.163 425.99 200.67 425.99 201.186C425.99 201.703 426.13 202.21 426.396 202.657L444.063 232.396C444.329 232.844 444.711 233.215 445.172 233.474C445.633 233.732 446.156 233.867 446.688 233.867H462.917C463.182 233.866 463.443 233.798 463.673 233.668C463.903 233.539 464.094 233.353 464.227 233.13C464.359 232.906 464.43 232.653 464.43 232.395C464.43 232.137 464.361 231.883 464.229 231.659Z" fill="#363FF9"/>
<path d="M393.209 255.484L420.303 209.898C420.436 209.674 420.627 209.489 420.857 209.36C421.087 209.231 421.348 209.163 421.613 209.163C421.879 209.163 422.14 209.231 422.37 209.36C422.6 209.489 422.791 209.674 422.924 209.898L431.042 223.545C431.308 223.993 431.448 224.501 431.448 225.018C431.448 225.535 431.308 226.043 431.042 226.49L413.375 256.23C413.11 256.677 412.728 257.049 412.268 257.307C411.808 257.565 411.286 257.701 410.754 257.7H394.521C394.254 257.702 393.991 257.634 393.759 257.505C393.527 257.375 393.335 257.188 393.202 256.963C393.068 256.738 392.999 256.482 393 256.223C393.001 255.963 393.073 255.708 393.209 255.484Z" fill="#363FF9"/>
<path d="M422.92 257.691H477.108C477.374 257.691 477.635 257.622 477.865 257.493C478.095 257.364 478.286 257.178 478.419 256.954C478.551 256.73 478.621 256.476 478.621 256.218C478.62 255.96 478.55 255.706 478.417 255.483L470.311 241.827C470.045 241.38 469.662 241.008 469.201 240.75C468.74 240.492 468.217 240.356 467.685 240.356H432.352C431.82 240.356 431.297 240.492 430.836 240.75C430.375 241.008 429.992 241.38 429.727 241.827L421.612 255.483C421.479 255.706 421.409 255.96 421.408 256.218C421.408 256.476 421.477 256.73 421.61 256.954C421.743 257.178 421.934 257.364 422.164 257.493C422.394 257.622 422.655 257.691 422.92 257.691Z" fill="#363FF9"/>
</g>
<defs>
<linearGradient id="paint0_linear_2045_1002" x1="117.066" y1="348.842" x2="215.897" y2="438.162" gradientUnits="userSpaceOnUse">
<stop stop-color="#FF9C27"/>
<stop offset="1" stop-color="#FD48CE"/>
</linearGradient>
<linearGradient id="paint1_linear_2045_1002" x1="137.494" y1="372.423" x2="190.204" y2="420.06" gradientUnits="userSpaceOnUse">
<stop stop-color="#FF9C27"/>
<stop offset="1" stop-color="#FD48CE"/>
</linearGradient>
<linearGradient id="paint2_linear_2045_1002" x1="143.774" y1="377.137" x2="196.483" y2="424.774" gradientUnits="userSpaceOnUse">
<stop stop-color="#FF9C27"/>
<stop offset="1" stop-color="#FD48CE"/>
</linearGradient>
<linearGradient id="paint3_linear_2045_1002" x1="139.059" y1="366.135" x2="191.768" y2="413.772" gradientUnits="userSpaceOnUse">
<stop stop-color="#FF9C27"/>
<stop offset="1" stop-color="#FD48CE"/>
</linearGradient>
<linearGradient id="paint4_linear_2045_1002" x1="262.066" y1="348.842" x2="360.897" y2="438.162" gradientUnits="userSpaceOnUse">
<stop stop-color="#FF9C27"/>
<stop offset="1" stop-color="#FD48CE"/>
</linearGradient>
<linearGradient id="paint5_linear_2045_1002" x1="407" y1="348" x2="507.596" y2="438.915" gradientUnits="userSpaceOnUse">
<stop stop-color="#FF9C27"/>
<stop offset="1" stop-color="#FD48CE"/>
</linearGradient>
<linearGradient id="paint6_linear_2045_1002" x1="427.334" y1="382.844" x2="450.594" y2="403.671" gradientUnits="userSpaceOnUse">
<stop stop-color="#FF9C27"/>
<stop offset="1" stop-color="#FD48CE"/>
</linearGradient>
<linearGradient id="paint7_linear_2045_1002" x1="438.395" y1="387.739" x2="438.395" y2="413.044" gradientUnits="userSpaceOnUse">
<stop offset="0.426666" stop-color="white"/>
<stop offset="1" stop-color="white" stop-opacity="0.27"/>
</linearGradient>
<linearGradient id="paint8_linear_2045_1002" x1="478.861" y1="382.574" x2="484.069" y2="384.754" gradientUnits="userSpaceOnUse">
<stop stop-color="#FF9C27"/>
<stop offset="1" stop-color="#FD48CE"/>
</linearGradient>
<linearGradient id="paint9_linear_2045_1002" x1="475.785" y1="382.574" x2="480.914" y2="384.675" gradientUnits="userSpaceOnUse">
<stop stop-color="#FF9C27"/>
<stop offset="1" stop-color="#FD48CE"/>
</linearGradient>
<linearGradient id="paint10_linear_2045_1002" x1="478.891" y1="388.276" x2="483.106" y2="391.07" gradientUnits="userSpaceOnUse">
<stop stop-color="#FF9C27"/>
<stop offset="1" stop-color="#FD48CE"/>
</linearGradient>
<linearGradient id="paint11_linear_2045_1002" x1="475.785" y1="388.276" x2="479.979" y2="391.02" gradientUnits="userSpaceOnUse">
<stop stop-color="#FF9C27"/>
<stop offset="1" stop-color="#FD48CE"/>
</linearGradient>
<linearGradient id="paint12_linear_2045_1002" x1="478.93" y1="386.29" x2="482.3" y2="389.261" gradientUnits="userSpaceOnUse">
<stop stop-color="#FF9C27"/>
<stop offset="1" stop-color="#FD48CE"/>
</linearGradient>
<linearGradient id="paint13_linear_2045_1002" x1="475.785" y1="386.29" x2="479.155" y2="389.261" gradientUnits="userSpaceOnUse">
<stop stop-color="#FF9C27"/>
<stop offset="1" stop-color="#FD48CE"/>
</linearGradient>
<linearGradient id="paint14_linear_2045_1002" x1="650.732" y1="350.151" x2="547.744" y2="388.263" gradientUnits="userSpaceOnUse">
<stop stop-color="#05D5FF"/>
<stop offset="1" stop-color="#5533FF"/>
</linearGradient>
<linearGradient id="paint15_linear_2045_1002" x1="842" y1="349.013" x2="957.079" y2="435.757" gradientUnits="userSpaceOnUse">
<stop offset="0.24238" stop-color="#FF9E0D"/>
<stop offset="1" stop-color="#F13F3F"/>
</linearGradient>
<linearGradient id="paint16_linear_2045_1002" x1="989.52" y1="349.453" x2="1103.09" y2="432.975" gradientUnits="userSpaceOnUse">
<stop offset="0.24238" stop-color="#7694FF"/>
<stop offset="1" stop-color="#5214E8"/>
</linearGradient>
<linearGradient id="paint17_linear_2045_1002" x1="1065.16" y1="419.272" x2="1010.62" y2="419.272" gradientUnits="userSpaceOnUse">
<stop stop-color="white"/>
<stop offset="1" stop-color="white" stop-opacity="0"/>
</linearGradient>
<linearGradient id="paint18_linear_2045_1002" x1="1065.16" y1="407.636" x2="1010.62" y2="407.636" gradientUnits="userSpaceOnUse">
<stop stop-color="white"/>
<stop offset="1" stop-color="white" stop-opacity="0"/>
</linearGradient>
<linearGradient id="paint19_linear_2045_1002" x1="1065.16" y1="395.999" x2="1010.62" y2="395.999" gradientUnits="userSpaceOnUse">
<stop stop-color="white"/>
<stop offset="1" stop-color="white" stop-opacity="0"/>
</linearGradient>
<clipPath id="clip0_2045_1002">
<rect width="96" height="96" fill="white" transform="translate(407 348)"/>
</clipPath>
<clipPath id="clip1_2045_1002">
<rect width="96" height="96" fill="white" transform="translate(552 348)"/>
</clipPath>
<clipPath id="clip2_2045_1002">
<rect width="96" height="96" fill="white" transform="translate(697 348)"/>
</clipPath>
<clipPath id="clip3_2045_1002">
<rect width="414" height="88" fill="white" transform="translate(393 185)"/>
</clipPath>
</defs>
</svg>
