<svg width="512" height="512" viewBox="0 0 512 512" fill="none" xmlns="http://www.w3.org/2000/svg">
<rect width="512" height="512" fill="#0B0E15"/>
<mask id="mask0_1083_995" style="mask-type:alpha" maskUnits="userSpaceOnUse" x="0" y="0" width="512" height="512">
<path d="M512 0H0V512H512V0Z" fill="#04051A"/>
</mask>
<g mask="url(#mask0_1083_995)">
<g filter="url(#filter0_f_1083_995)">
<path d="M436.667 727.333C557.433 727.333 655.333 629.433 655.333 508.667C655.333 387.9 557.433 290 436.667 290C315.9 290 218 387.9 218 508.667C218 629.433 315.9 727.333 436.667 727.333Z" fill="#6D155A"/>
</g>
<g filter="url(#filter1_f_1083_995)">
<path d="M-62.333 320.334C119.737 320.334 267.334 172.737 267.334 -9.33301C267.334 -191.403 119.737 -339 -62.333 -339C-244.403 -339 -392 -191.403 -392 -9.33301C-392 172.737 -244.403 320.334 -62.333 320.334Z" fill="#186BF1"/>
</g>
</g>
<path opacity="0.5" d="M270.051 266.726C270.024 266.762 269.996 266.798 269.968 266.834C268.964 268.127 267.57 269.925 266.01 271.942C262.897 275.968 259.128 280.859 256.474 284.358C252.242 290.296 249.233 295.426 249.914 301.069C251.145 309.095 248.672 317.072 244.074 322.899C244.054 322.925 244.034 322.95 244.012 322.975C242.109 325.203 238.18 328.631 234.197 332.108L234.068 332.22C234.055 332.233 234.041 332.245 234.027 332.257C230.339 335.478 226.509 338.824 223.677 341.659C223.657 341.68 223.636 341.7 223.614 341.72C218.701 346.307 211.998 347.166 207.317 347.166C206.15 347.166 205.08 347.074 204.197 346.999L204.153 346.995L204.152 346.995C203.364 346.928 202.776 346.879 202.264 346.879H201.425C200.019 346.879 199.266 347.044 198.367 347.529C197.3 348.105 195.977 349.16 193.588 351.271C192.564 352.257 191.173 352.808 189.89 353.128C188.524 353.47 186.981 353.623 185.429 353.623C181.187 353.623 176.038 352.65 171.461 351.515C166.844 350.369 162.629 349.011 160.185 348.148C160.159 348.139 160.132 348.129 160.106 348.118C158.814 347.612 157.694 346.688 156.747 345.676C155.781 344.644 154.867 343.382 154.014 342.011C152.308 339.27 150.711 335.877 149.333 332.473C146.608 325.742 144.538 318.462 144.22 315.436L270.051 266.726ZM270.051 266.726C287.695 280.885 298.538 301.688 298.538 324.726C298.538 366.98 261.673 401.424 215.737 401.424C208.632 401.424 201.819 400.609 194.995 398.964C193.7 398.652 192.388 399.409 192.011 400.686C191.634 401.963 192.324 403.312 193.58 403.753C215.446 411.433 233.965 414.014 249.128 414.014C265.289 414.014 277.707 411.078 286.123 408.113C286.635 407.932 287.133 407.752 287.616 407.572C285.583 409.676 283.212 412.014 280.554 414.441C279.791 415.136 279.535 416.229 279.908 417.191C280.281 418.153 281.207 418.787 282.239 418.787H282.519C282.634 418.787 282.749 418.779 282.863 418.763C309.734 415.023 329.684 402.08 342.884 390.123C348.644 384.905 353.132 379.864 356.367 375.831C355.612 380.026 354.663 384.762 353.626 388.686C353.354 389.715 353.764 390.804 354.648 391.398C355.531 391.993 356.695 391.962 357.546 391.323C414.547 348.469 418.117 296.861 417.136 276.857C417.409 277.188 417.684 277.523 417.962 277.86C419.815 280.111 421.726 282.432 423.134 284.166C423.773 284.954 424.824 285.277 425.796 284.985C426.767 284.692 427.465 283.842 427.563 282.832C433.253 224.173 412.099 185.216 389.435 160.958C378.128 148.856 366.468 140.434 357.63 135.033C356.263 134.198 354.964 133.435 353.742 132.741C358.522 133.091 364.25 133.583 370.062 134.254C371.173 134.382 372.234 133.757 372.66 132.723C373.086 131.689 372.774 130.498 371.895 129.806C338.615 103.611 306.92 95.8499 281.121 95.8499C257.19 95.8499 238.462 102.489 228.331 107.098L234.409 97.4305C234.871 96.6964 234.919 95.7755 234.537 94.9972C234.154 94.2189 233.396 93.6944 232.532 93.6113L232.293 96.0998C232.532 93.6113 232.531 93.6112 232.529 93.611L232.525 93.6106L232.514 93.6096L232.479 93.6065C232.451 93.604 232.412 93.6007 232.363 93.5968C232.265 93.5891 232.126 93.579 231.948 93.5683C231.592 93.5469 231.081 93.5228 230.432 93.5097C229.135 93.4836 227.284 93.5013 225.023 93.6726C220.506 94.0146 214.315 94.9717 207.612 97.4395C195.381 101.942 181.556 111.446 173.127 131.067C172.05 127.881 171.052 124.619 170.22 121.767C169.524 119.382 168.95 117.301 168.55 115.817C168.35 115.075 168.194 114.483 168.088 114.078C168.035 113.875 167.995 113.719 167.968 113.614L167.937 113.496L167.93 113.467L167.928 113.46L167.928 113.459L167.928 113.458C167.713 112.616 167.076 111.945 166.245 111.687C165.415 111.43 164.51 111.622 163.856 112.196L165.505 114.075C163.856 112.196 163.855 112.197 163.854 112.198L163.852 112.2L163.845 112.206L163.824 112.224C163.819 112.229 163.812 112.235 163.805 112.241C163.792 112.253 163.777 112.266 163.76 112.282C163.707 112.331 163.633 112.399 163.54 112.486C163.354 112.661 163.092 112.914 162.768 113.242C162.12 113.9 161.223 114.863 160.189 116.12C158.123 118.631 155.494 122.329 153.215 127.112C149.068 135.812 146.101 148.063 149.712 163.135C137.649 158.744 123.914 153.822 112.602 149.81C106.215 147.545 100.598 145.568 96.4874 144.139C94.433 143.425 92.7499 142.847 91.5337 142.437C90.9266 142.232 90.4279 142.067 90.0541 141.947C89.7558 141.851 89.3686 141.728 89.1093 141.676C89.0631 141.667 89.0167 141.659 88.9701 141.652C87.5979 141.457 86.4736 141.622 85.5843 142.024C85.1484 142.222 84.8051 142.46 84.5427 142.694C84.4127 142.81 84.3049 142.923 84.2168 143.026C84.1728 143.078 84.1337 143.127 84.0992 143.172C84.0819 143.195 84.0658 143.217 84.0508 143.239L84.0292 143.27L84.0189 143.285L84.014 143.292L84.0115 143.296C84.0103 143.297 84.0091 143.299 86.0871 144.685L84.0091 143.299L84.0037 143.307L86.089 144.686C84.0037 143.307 84.0022 143.31 84.0008 143.312L83.9978 143.316L83.992 143.325L83.9801 143.344C83.9721 143.356 83.964 143.369 83.9557 143.383C83.9393 143.41 83.9224 143.438 83.9052 143.469C83.8709 143.53 83.8355 143.598 83.8004 143.673C83.7303 143.825 83.6613 144.006 83.6071 144.216C83.4964 144.646 83.4562 145.162 83.5608 145.734C83.7715 146.887 84.4968 147.926 85.6129 148.857L85.6281 148.869C88.6725 151.368 143.754 192.065 159.254 202.508C156.865 211.658 156.824 216.982 159.982 222.35L160.001 222.381C161.883 225.476 162.79 227.67 163.201 229.55C163.607 231.408 163.567 233.131 163.302 235.397C163.023 237.773 161.621 249.28 160.148 260.825C158.663 272.467 157.137 283.882 156.608 286.262L156.607 286.265C156.453 286.959 155.924 288.258 155.005 290.148C154.12 291.968 152.99 294.109 151.775 296.408M270.051 266.726L144.22 315.433C144.081 314.119 144.398 312.646 144.809 311.302C145.24 309.889 145.873 308.314 146.601 306.69C148.051 303.457 149.986 299.794 151.753 296.45L151.775 296.408M151.775 296.408L153.986 297.576L151.775 296.408Z" stroke="url(#paint0_linear_1083_995)" stroke-width="5" stroke-linejoin="round"/>
<path d="M166.91 272.484L175.883 204.791L97.885 150.585L169.16 174.739L186.001 148.907L247.444 110.706L382.983 185.417L390 299.448L329.669 383.426L281.966 390.729L306.663 345.504V301.971L288.703 267.991L270.463 255.914L242.398 284.841V315.452L220.51 335.957L192.731 339.326L180.383 346.35L160.18 339.892L151.759 309.554L166.916 288.21V272.484H166.91Z" fill="white"/>
<path d="M291.499 150.026C276.628 146.937 260.345 147.776 260.345 147.776C260.345 147.776 255.019 172.495 221.908 178.953C222.188 178.953 265.684 193.839 291.499 150.026ZM304.966 374.152C322.926 360.111 336.399 340.731 342.577 318.828C342.85 317.982 345.373 316.577 347.063 315.452C349.866 313.768 352.675 312.363 353.234 310.12C354.359 303.662 354.918 296.918 354.918 290.174C354.918 287.644 352.389 285.12 349.866 282.591C347.902 280.906 345.938 278.942 345.938 277.538C343.129 251.973 331.347 228.105 312.548 210.696L310.584 212.66C328.824 229.79 340.606 253.104 343.136 277.817C343.415 280.067 345.659 282.311 347.902 284.561C349.866 286.246 352.109 288.775 352.109 289.894C352.109 296.352 351.55 302.81 350.425 309.274C350.145 310.399 347.623 311.524 345.659 312.643C342.85 314.047 340.327 315.452 339.768 317.702C332.954 341.559 317.821 362.184 297.111 375.843C300.759 367.973 312.262 342.422 318.439 329.5L317.314 287.93L281.68 253.377L261.477 256.193L239.309 292.144C239.309 292.144 249.687 305.346 235.096 320.792C220.783 335.957 209.56 339.326 209.56 339.326L199.175 333.707C202.264 329.779 208.435 323.881 213.208 319.946C221.343 313.209 229.484 312.643 229.484 305.346C229.763 290.174 213.488 294.388 213.488 294.388L207.596 300.007L205.067 320.792L192.725 336.237L191.32 335.957L171.117 331.464C171.117 331.464 183.465 325.006 185.429 317.702C187.393 310.679 181.501 287.371 181.215 285.966C181.501 286.246 187.113 291.019 189.636 298.882C194.123 286.525 200.021 274.728 201.705 273.603C203.382 272.484 226.116 260.408 226.116 260.408L218.54 280.347L224.152 277.258L237.619 244.117C237.619 244.117 250.812 237.659 260.631 237.659C278.312 237.373 304.406 215.749 292.624 176.989C295.986 178.387 354.359 207.6 364.458 264.902C372.033 308.994 347.063 350.284 304.966 374.152Z" fill="#94A6C3"/>
<path d="M238.184 156.204C244.641 148.621 242.112 137.383 242.112 137.383L223.313 165.192C223.027 165.192 230.043 165.471 238.184 156.204ZM175.044 308.156L177.288 296.918C177.288 296.918 168.035 313.209 167.189 315.452C166.344 317.982 167.748 322.476 171.396 322.196C175.044 321.917 179.538 316.577 179.538 312.649C179.538 307.59 175.044 308.156 175.044 308.156Z" fill="#0A192B"/>
<path d="M341.724 129.521C341.724 129.521 355.757 130.087 370.349 131.771C337.524 105.933 306.377 98.35 281.121 98.35C246.319 98.35 222.747 112.67 221.342 113.516L232.293 96.0998C232.293 96.0998 188.518 91.8856 173.08 138.229C169.153 128.402 165.505 114.075 165.505 114.075C165.505 114.075 142.772 134.014 153.436 167.156C127.341 157.609 90.0166 144.407 88.6186 144.127C86.6482 143.848 86.089 144.686 86.089 144.686C86.089 144.686 85.5299 145.532 87.214 146.937C90.2962 149.467 149.229 193 162.137 201.422C159.327 211.535 159.327 216.308 162.137 221.082C166.064 227.539 166.344 230.915 165.785 235.688C165.225 240.462 160.173 281.752 159.048 286.805C157.93 291.865 146.14 309.84 146.706 315.173C147.265 320.512 154.561 343.261 161.018 345.791C165.785 347.475 177.567 351.123 185.429 351.123C188.231 351.123 190.754 350.564 191.886 349.439C196.652 345.225 198.057 344.379 201.425 344.379H202.264C203.662 344.379 205.353 344.665 207.316 344.665C211.803 344.665 217.701 343.82 221.908 339.892C228.079 333.714 238.75 325.285 242.112 321.351C246.319 316.018 248.569 308.715 247.437 301.411C246.605 294.667 250.253 288.775 254.46 282.877C259.786 275.853 269.611 263.217 269.611 263.217C288.976 277.817 301.038 300.007 301.038 324.726C301.038 368.533 262.874 403.924 215.737 403.924C208.435 403.924 201.425 403.085 194.409 401.394C216.017 408.984 234.257 411.514 249.128 411.514C280.834 411.514 297.676 399.996 297.676 399.996C297.676 399.996 291.778 407.579 282.239 416.287H282.519C334.994 408.984 360.537 365.73 360.537 365.73C360.537 365.73 358.566 379.777 356.043 389.324C425.913 336.796 414.131 271.08 413.844 268.829C414.41 269.675 421.427 278.097 425.075 282.591C436.298 166.883 341.724 129.521 341.724 129.521ZM234.257 314.334C233.132 315.732 228.359 319.946 224.997 323.035C221.629 326.131 217.981 329.22 215.172 332.023C214.053 333.155 211.803 333.714 208.435 333.714H200.014C204.228 328.095 216.576 315.173 220.783 312.363C225.836 308.994 228.359 305.626 225.277 299.727C222.188 293.829 214.053 295.233 214.053 295.233C214.053 295.233 218.819 293.269 223.027 293.269C217.701 291.865 210.964 293.269 207.876 296.358C204.507 299.447 205.073 310.399 203.669 317.423C202.271 324.726 197.491 328.374 190.195 335.112C186.268 338.767 183.465 339.892 181.215 339.892C176.358 339.04 171.574 337.818 166.903 336.237C164.107 332.589 159.893 320.512 158.768 315.452C159.614 312.649 162.975 306.751 164.66 303.375C168.028 296.918 169.992 293.269 170.558 289.894C171.676 285.12 175.324 255.628 176.728 243.271C180.376 248.045 185.429 255.914 184.304 260.967C192.445 249.449 186.547 238.218 183.745 233.724C181.215 229.23 177.853 220.243 180.656 210.689C183.465 201.142 193.57 174.739 193.57 174.739C193.57 174.739 196.932 180.637 201.705 179.519C206.471 178.387 244.914 120.533 244.914 120.533C244.914 120.533 255.299 143.282 244.355 159.852C233.132 176.43 222.188 179.519 222.188 179.519C222.188 179.519 237.625 182.322 251.931 171.929C257.828 185.697 263.44 200.024 263.713 201.988C262.874 203.952 251.651 230.915 250.533 232.599C249.967 233.158 246.039 234.284 243.237 234.849C238.464 236.248 235.655 237.093 234.536 237.939C232.572 239.623 223.592 264.336 219.385 276.419C214.326 277.817 209.28 280.627 205.632 286.246C207.596 284.841 213.767 283.995 218.26 283.436C222.188 283.156 234.257 289.614 237.339 301.691V302.257C237.905 306.751 236.5 310.958 234.257 314.334ZM207.876 317.702C210.405 314.047 210.119 307.869 210.405 305.905C210.685 303.941 211.244 300.286 213.487 299.727C215.731 299.161 221.063 300.007 221.063 303.941C221.063 307.59 217.135 308.435 214.333 310.958C212.369 312.929 208.435 317.137 207.876 317.702ZM319.843 264.056C322.646 249.729 322.926 237.373 322.087 227.26C333.031 241.866 339.767 259.562 341.724 277.817C342.011 280.067 344.254 282.311 346.497 284.561C348.468 286.246 350.711 288.489 350.711 289.894C350.711 296.352 350.145 302.81 349.027 309.274C348.747 310.119 346.218 311.524 344.254 312.649C341.452 314.047 338.929 315.452 338.363 317.702C332.154 339.279 319.168 358.284 301.324 371.908C327.419 344.665 340.047 299.727 319.843 264.056ZM302.163 374.438C320.403 360.391 334.435 340.731 340.606 318.541C340.886 317.702 343.415 316.298 345.099 315.173C347.902 313.774 350.711 312.083 351.27 309.84C352.395 303.382 352.955 296.638 352.955 289.894C352.955 287.364 350.425 284.834 347.902 282.311C346.504 280.627 344.254 278.663 344.254 277.251C341.963 256.837 333.99 237.475 321.241 221.368C315.63 187.661 293.183 177.268 292.617 176.989C293.183 177.834 307.775 198.892 297.676 223.612C287.292 248.611 260.631 244.676 258.388 244.956C256.144 244.956 247.444 256.193 236.5 276.978C235.102 276.412 229.204 275.008 222.467 276.133C227.52 262.085 235.095 242.146 236.5 240.462C237.059 239.903 241.266 238.777 244.075 237.932C249.408 236.534 251.931 235.688 252.776 234.563C253.335 233.724 256.144 227.267 258.947 220.522C261.476 220.522 267.934 219.963 268.486 219.677C269.052 219.118 274.384 205.357 274.384 203.672C274.384 202.267 263.44 175.025 259.226 164.632C261.197 162.382 263.154 159.573 265.124 156.484C322.646 162.662 367.546 211.535 367.546 270.793C367.546 316.298 340.886 355.897 302.163 374.438Z" fill="#0A192B"/>
<path d="M227.52 222.766C232.846 216.588 230.05 205.077 220.224 203.106C222.754 197.208 226.395 185.417 226.395 185.417C226.395 185.417 197.771 230.356 195.248 231.195C192.718 232.04 190.195 222.207 190.195 222.207C184.87 242.712 199.182 245.522 200.859 239.057C208.715 237.093 222.188 228.671 227.52 222.766Z" fill="#0A192B"/>
<path d="M203.11 233.724L217.701 208.725C217.701 208.725 226.116 212.94 221.908 219.684C216.583 227.54 203.11 233.724 203.11 233.724Z" fill="#FFD923"/>
<path d="M383.543 349.439C379.329 355.058 374.556 360.957 368.951 366.575C405.151 296.918 370.635 233.158 369.231 230.629C371.76 233.158 374.283 235.968 376.526 238.498C404.305 269.389 407.674 315.739 383.543 349.439ZM417.213 259.842C404.585 225.862 386.625 196.928 347.063 170.811C308.9 145.532 267.927 147.496 265.684 147.776H265.118C266.522 147.216 267.927 146.937 269.332 146.657C278.032 143.848 289.255 141.597 300.479 140.199C330.222 135.985 360.251 146.091 380.734 167.722L381.293 168.281C404.592 193 416.654 223.891 417.213 259.842ZM338.083 120.813C296.272 112.957 269.332 116.885 249.967 124.188C249.408 121.938 247.437 117.444 245.76 113.796C239.868 120.819 233.691 129.241 229.763 134.58C219.099 141.884 214.612 148.901 214.612 148.901C220.783 127.836 238.743 112.111 260.631 108.177C266.802 107.052 273.545 106.492 280.835 106.492C300.199 106.772 319.557 111.552 338.083 120.819V120.813ZM183.465 174.739C150.627 173.62 161.571 135.419 162.137 133.176C162.137 133.455 164.38 163.228 183.465 174.745V174.739ZM215.731 105.933C190.475 121.099 195.527 157.329 195.527 157.329C171.396 120.533 213.767 106.772 215.731 105.933Z" fill="#D82122"/>
<path d="M174.199 184.858C175.883 186.256 177.567 188.786 175.603 192.434C174.485 194.405 172.801 194.119 170.278 193C166.903 191.316 146.699 179.519 128.46 167.435C149.229 174.745 170.271 182.608 173.64 184.292L174.205 184.851L174.199 184.858Z" fill="white"/>
<defs>
<filter id="filter0_f_1083_995" x="-82" y="-10" width="1037.33" height="1037.33" filterUnits="userSpaceOnUse" color-interpolation-filters="sRGB">
<feFlood flood-opacity="0" result="BackgroundImageFix"/>
<feBlend mode="normal" in="SourceGraphic" in2="BackgroundImageFix" result="shape"/>
<feGaussianBlur stdDeviation="150" result="effect1_foregroundBlur_1083_995"/>
</filter>
<filter id="filter1_f_1083_995" x="-792" y="-739" width="1459.33" height="1459.33" filterUnits="userSpaceOnUse" color-interpolation-filters="sRGB">
<feFlood flood-opacity="0" result="BackgroundImageFix"/>
<feBlend mode="normal" in="SourceGraphic" in2="BackgroundImageFix" result="shape"/>
<feGaussianBlur stdDeviation="200" result="effect1_foregroundBlur_1083_995"/>
</filter>
<linearGradient id="paint0_linear_1083_995" x1="86" y1="96" x2="426" y2="415.813" gradientUnits="userSpaceOnUse">
<stop stop-color="#388CFE"/>
<stop offset="1" stop-color="#4B1660"/>
</linearGradient>
</defs>
</svg>
