<svg width="512" height="512" viewBox="0 0 512 512" fill="none"
  xmlns="http://www.w3.org/2000/svg">
  <rect width="512" height="512" fill="black"/>
  <path d="M348.42 195.457C335.216 172.501 317.547 153.789 295.325 139.381C295.105 139.234 295.09 138.778 294.811 138C304.71 138.573 314.154 140.467 323.187 143.772C367.25 159.884 395.89 190.17 404.101 236.862C410.886 275.46 399.342 309.271 371.832 337.427C370.687 338.602 369.6 339.894 367.808 340.115C367.558 338.249 368.16 336.546 368.645 334.754C371.935 322.607 374.667 310.314 375.416 297.727C376.958 272.023 373.081 247.128 363.24 223.276C359.216 213.538 355.206 203.741 348.42 195.443V195.457Z" fill="#9161FE"/>
  <path d="M144.176 340.1C138.551 337.368 134.982 332.404 131.31 327.718C81.8423 264.782 108.001 175.556 182.701 145.961C189.369 143.317 196.214 141.261 203.249 139.88C207.729 138.999 212.253 138.426 217.158 138.543C211.489 142.876 205.599 146.945 200.194 151.571C184.89 164.658 171.803 179.654 162.418 197.631C160.288 198.689 159.451 200.818 158.438 202.698C153.503 211.907 149.082 221.337 145.674 231.236C136.318 258.393 133.719 286.123 138.727 314.441C140.24 323.048 142.34 331.537 144.176 340.085V340.1Z" fill="#9161FE"/>
  <path d="M221.359 290.5C222.886 284.743 227.63 280.997 230.494 276.048C234.798 268.616 234.989 268.616 227.204 265.15C215.836 260.082 203.602 258.511 191.499 256.469C190.236 256.264 188.988 256.058 187.651 255.25C195.435 253.796 203.234 252.445 210.989 250.873C217.834 249.493 224.429 247.304 230.685 244.102C233.579 242.619 234.328 241.18 232.419 238.198C229.07 232.955 225.956 227.564 221.594 222.85C223.988 221.175 225.354 223.364 226.764 224.172C230.245 226.184 233.447 228.681 236.869 230.81C242.465 234.277 242.67 234.218 245.623 228.064C250.704 217.503 252.423 206.047 254.362 194.664C254.788 192.167 255.184 189.656 255.816 185.925C257.813 196.104 259.429 205.048 261.368 213.92C262.572 219.472 264.599 224.788 267.14 229.914C268.697 233.043 270.444 233.88 273.529 231.765C278.611 228.284 283.854 225.023 289.847 222.424C287.1 226.536 284.28 230.605 281.622 234.761C276.848 242.208 276.863 242.369 285.088 245.938C295.634 250.506 306.899 252.181 318.12 254.031C320.206 254.369 322.306 254.722 324.362 255.412C314.11 257.586 303.653 258.511 293.812 261.904C272.618 269.203 276.319 267.323 286.189 283.068C287.409 285.007 289.612 286.432 289.612 289.692C284.016 286.035 278.714 282.687 273.529 279.147C270.533 277.105 268.814 277.693 267.184 280.909C261.852 291.382 259.914 302.764 257.901 314.147C257.329 317.393 256.785 320.654 256.051 324.928C254.185 315.322 252.629 306.686 250.807 298.094C249.588 292.351 247.576 286.843 245.064 281.497C243.375 277.884 241.554 276.856 238 279.367C232.551 283.23 226.881 286.799 221.3 290.486H221.329L221.359 290.5Z" fill="#FEA306"/>
  <path d="M348.42 195.457C355.206 203.741 359.23 213.538 363.24 223.29C373.081 247.143 376.958 272.038 375.416 297.741C374.667 310.328 371.92 322.622 368.645 334.768C368.16 336.546 367.558 338.249 367.808 340.129L367.867 340.027C367.47 340.452 367.074 340.893 366.677 341.319C366.324 344.403 363.358 345.123 361.478 346.607C342.061 362.014 319.941 370.767 293.563 373.235C300.392 368.197 306.164 364.349 311.481 359.943C337.684 338.205 354.721 310.945 360.112 277.047C364.43 249.831 362.088 224.469 350 199.5C349.515 198.501 350 199.5 348.435 195.443L348.42 195.457Z" fill="#D2B1FE"/>
  <path d="M144.176 340.1C142.34 331.552 140.24 323.062 138.727 314.456C133.719 286.138 136.318 258.408 145.674 231.251C149.082 221.352 153.503 211.907 158.438 202.713C159.451 200.833 160.288 198.703 162.418 197.646C161 201.5 160.288 204.167 159.054 207.31C152.695 223.525 149.273 240.387 149.875 257.659C151.065 292.189 163.079 322.49 187.313 347.635C196.331 356.991 206.275 365.157 217.158 372.471C210.299 372.647 203.822 371.326 197.359 369.798C178.251 365.274 161.713 355.86 146.585 343.654C145.953 343.14 145.733 342.127 145.336 341.334C144.94 340.908 144.558 340.482 144.161 340.056L144.191 340.115L144.176 340.1Z" fill="#D2B1FE"/>
  <path d="M221.329 290.5C221.065 290.588 220.786 290.677 220.522 290.765C220.977 291.264 221.241 291.117 221.359 290.515H221.329V290.5Z" fill="#FEA306"/>
  <path d="M292.49 291.455H292.182L292.329 291.94L292.49 291.455Z" fill="#FEA306"/>
</svg>
