<svg width="512" height="512" viewBox="0 0 512 512" fill="none"
  xmlns="http://www.w3.org/2000/svg">
  <rect y="512" width="512" height="512" transform="rotate(-90 0 512)" fill="url(#linear-gradient)"/>
  <path class="cls-2" d="M356.65,263.34l-96.5-163.67c-.47-.81-1.14-1.48-1.96-1.95-.82-.47-1.75-.72-2.7-.73-.95,0-1.88.23-2.7.69-.82.46-1.51,1.12-1.99,1.93l-28.9,49.04c-.95,1.61-1.44,3.43-1.44,5.28s.5,3.67,1.44,5.28l62.92,106.77c.95,1.61,2.31,2.94,3.95,3.87,1.64.93,3.5,1.41,5.4,1.41h57.8c.95,0,1.88-.25,2.7-.71.82-.46,1.5-1.13,1.97-1.93.47-.8.72-1.71.73-2.64,0-.93-.24-1.84-.72-2.64ZM103.74,349.04l96.48-163.68c.13-.22.27-.42.42-.61.43-.53.95-.98,1.55-1.32.82-.46,1.75-.71,2.69-.71s1.88.24,2.69.71c.82.46,1.5,1.13,1.97,1.93l28.91,49c.95,1.61,1.44,3.43,1.44,5.29s-.5,3.68-1.44,5.29l-62.91,106.78c-.94,1.61-2.3,2.94-3.94,3.87-1.64.93-3.5,1.41-5.39,1.41h-57.8c-.95,0-1.89-.24-2.71-.7-.83-.46-1.51-1.14-1.99-1.94-.48-.81-.72-1.73-.72-2.66,0-.93.26-1.85.74-2.65ZM402.65,357h-193.17c-.95,0-1.88-.25-2.7-.71-.82-.47-1.5-1.13-1.97-1.94-.47-.81-.72-1.72-.72-2.65,0-.93.25-1.84.73-2.65l28.93-49.19c.95-1.61,2.31-2.95,3.96-3.88,1.64-.93,3.51-1.42,5.4-1.42h125.96c1.9,0,3.76.49,5.4,1.42,1.64.93,3.01,2.27,3.96,3.88l28.9,49.19c.47.81.73,1.72.73,2.65,0,.93-.25,1.85-.72,2.65-.47.81-1.15,1.48-1.97,1.94-.82.47-1.75.71-2.7.71Z" fill="white"/>
  <defs>
    <linearGradient id="linear-gradient" x1="440.5" y1="583.5" x2="75.5" y2="948.5" gradientUnits="userSpaceOnUse">
      <stop stop-color="#3640FA"/>
      <stop offset="1" stop-color="#08CEFF"/>
    </linearGradient>
  </defs>
</svg>