<svg width="512" height="512" viewBox="0 0 512 512" fill="none"
  xmlns="http://www.w3.org/2000/svg">
  <rect width="512" height="512" fill="black"/>
  <path d="M112.772 187.386V324.592C112.772 333.352 117.453 341.453 125.035 345.818L243.859 414.435C251.442 418.801 260.777 418.801 268.36 414.435L387.184 345.818C394.766 341.453 399.447 333.352 399.447 324.592V187.386C399.447 178.626 394.766 170.525 387.184 166.16L268.36 97.5427C260.777 93.1772 251.442 93.1772 243.859 97.5427L125.007 166.16C117.424 170.525 112.772 178.626 112.772 187.386Z" fill="#213147"/>
  <path d="M282.033 282.6L265.087 329.071C264.629 330.363 264.629 331.773 265.087 333.064L294.239 413.025L327.958 393.552L287.487 282.6C286.568 280.045 282.95 280.045 282.03 282.6H282.033Z" fill="#12AAFF"/>
  <path d="M316.013 204.447C315.093 201.892 311.476 201.892 310.556 204.447L293.609 250.918C293.151 252.21 293.151 253.619 293.609 254.911L341.372 385.826L375.091 366.353L316.01 204.447H316.013Z" fill="#12AAFF"/>
  <path d="M256.097 102.684C256.931 102.684 257.765 102.914 258.509 103.318L387.098 177.564C388.591 178.426 389.51 180.033 389.51 181.729V330.192C389.51 331.916 388.591 333.495 387.098 334.357L258.509 408.603C257.79 409.032 256.931 409.236 256.097 409.236C255.264 409.236 254.43 409.007 253.686 408.603L125.096 334.414C123.604 333.552 122.684 331.945 122.684 330.249V181.757C122.684 180.033 123.604 178.454 125.096 177.592L253.686 103.346C254.433 102.917 255.264 102.684 256.097 102.684ZM256.097 81C251.531 81 246.934 82.1773 242.829 84.5605L114.268 158.778C106.053 163.516 101 172.278 101 181.754V330.217C101 339.696 106.056 348.456 114.268 353.194L242.858 427.439C246.965 429.794 251.531 431 256.126 431C260.721 431 265.29 429.823 269.394 427.439L397.984 353.194C406.199 348.456 411.252 339.693 411.252 330.217V181.754C411.252 172.275 406.196 163.516 397.984 158.778L269.366 84.5605C265.258 82.1773 260.663 81 256.097 81Z" fill="#9DCCED"/>
  <path d="M171.052 385.998L182.885 353.601L206.695 373.389L184.435 393.724L171.052 385.998Z" fill="#213147"/>
  <path d="M245.27 171.13H212.671C210.231 171.13 208.048 172.651 207.214 174.951L137.334 366.526L171.052 385.999L248 175.037C248.719 173.141 247.309 171.13 245.27 171.13Z" fill="white"/>
  <path d="M302.311 171.13H269.712C267.272 171.13 265.089 172.651 264.256 174.951L184.467 393.699L218.185 413.172L305.041 175.037C305.731 173.141 304.322 171.13 302.311 171.13Z" fill="white"/>
</svg>
