<svg width="512" height="512" viewBox="0 0 512 512" fill="none" xmlns="http://www.w3.org/2000/svg">
<rect width="512" height="512" fill="#E84142"/>
<path d="M132.562 357.535H182.245C193.942 357.535 199.791 357.535 205.011 356.089C210.734 354.388 215.954 351.372 220.293 347.22C224.278 343.423 227.154 338.39 232.827 328.463L232.997 328.165L297.433 214.26C303.156 204.26 305.986 199.229 307.244 193.946C308.627 188.223 308.627 182.186 307.244 176.463C305.996 171.22 303.137 166.225 297.499 156.375L272.152 112.127C266.932 102.946 264.291 98.3546 260.957 96.6567C257.373 94.833 253.096 94.833 249.511 96.6567C246.178 98.3546 243.537 102.946 238.317 112.127L115.645 328.354C110.488 337.41 107.91 341.939 108.099 345.648C108.35 349.674 110.425 353.321 113.822 355.523C116.966 357.535 122.123 357.535 132.562 357.535Z" fill="white"/>
<path d="M378.898 357.535H307.709C297.207 357.535 291.924 357.535 288.842 355.523C285.447 353.321 283.371 349.613 283.12 345.587C282.932 341.906 285.531 337.419 290.732 328.442L290.733 328.44L290.855 328.23L326.387 267.227C331.607 258.234 334.248 253.769 337.519 252.071C341.102 250.247 345.319 250.247 348.901 252.071C352.148 253.724 354.677 258 359.683 266.465L359.69 266.477L360.096 267.164L395.755 328.167C395.929 328.467 396.099 328.763 396.27 329.053L396.27 329.054C401.213 337.583 403.735 341.936 403.554 345.525C403.363 349.548 401.226 353.26 397.831 355.462C394.685 357.535 389.401 357.535 378.898 357.535Z" fill="white"/>
</svg>
