<svg width="512" height="512" viewBox="0 0 512 512" fill="none"
  xmlns="http://www.w3.org/2000/svg">
  <rect width="512" height="512" fill="#131315"/>
  <path fill-rule="evenodd" clip-rule="evenodd" d="M272.982 126.444C282.403 126.444 291.24 127.71 299.422 130.06C291.411 111.333 274.779 106 256.269 106C237.723 106 221.062 111.354 213.069 130.17C221.191 127.738 229.99 126.444 239.379 126.444H272.982ZM237.224 145.245C192.489 145.245 167 180.547 167 224.094V268.827C167 273.182 170.627 276.627 175.1 276.627H337.102C341.576 276.627 345.202 273.182 345.202 268.827V224.094C345.202 180.547 315.563 145.245 270.827 145.245H237.224ZM256.038 224.481C271.695 224.481 284.388 211.749 284.388 196.043C284.388 180.337 271.695 167.605 256.038 167.605C240.38 167.605 227.688 180.337 227.688 196.043C227.688 211.749 240.38 224.481 256.038 224.481ZM167 302.921C167 298.566 170.627 295.036 175.1 295.036H337.102C341.576 295.036 345.202 298.566 345.202 302.921V350.23C345.202 358.939 337.949 366 329.002 366H183.2C174.253 366 167 358.939 167 350.23V302.921Z" fill="#E33E3F"/>
</svg>
