<svg width="512" height="512" viewBox="0 0 512 512" fill="none"
  xmlns="http://www.w3.org/2000/svg">
  <rect width="512" height="512" fill="white"/>
  <path fill-rule="evenodd" clip-rule="evenodd" d="M384.41 212.097C384.41 372.363 256.205 416 256.205 416C256.205 416 128 372.363 128 212.097V154.408C128 148.084 132.916 143.01 139.08 142.542C162.334 141.449 217.58 136.765 256.205 116C294.908 136.765 350.076 141.449 373.33 142.62C379.495 143.01 384.41 148.084 384.41 154.408V212.097ZM272.435 207.881C291.475 209.677 306.457 215.688 308.018 233.174C309.188 245.976 303.804 253.627 295.221 257.998C309.344 261.433 318.084 269.864 316.211 288.678C313.87 311.94 296.392 318.108 271.577 319.357L271.656 343.791H256.752L256.829 319.59C253.006 319.513 249.104 319.435 245.046 319.357L244.891 343.791L230.221 343.713L230.143 319.123C226.709 319.123 203.3 319.2 203.3 319.2L203.456 301.402L219.999 301.324L220.077 223.26H201.193V207.725C201.193 207.725 227.802 207.725 231.001 207.647L230.923 183.369L245.827 183.291V207.257C249.806 207.179 253.941 207.179 257.843 207.179L257.766 183.525L272.514 183.447L272.435 207.881ZM248.541 301.529C260.586 301.789 286.883 302.354 287.028 285.477C287.168 268.281 261.761 268.692 249.316 268.893C247.919 268.916 246.687 268.935 245.67 268.927L245.749 301.48C246.554 301.487 247.494 301.506 248.541 301.529ZM248.456 254.143C258.413 254.391 280.329 254.937 280.473 239.576C280.543 223.813 259.056 224.307 248.851 224.541C247.786 224.565 246.843 224.587 246.061 224.587L246.139 254.096C246.805 254.102 247.585 254.121 248.456 254.143Z" fill="#62ABF4"/>
</svg>
