<svg width="512" height="512" viewBox="0 0 512 512" fill="none"
  xmlns="http://www.w3.org/2000/svg">
  <rect width="512" height="512" fill="#141318"/>
  <path fill-rule="evenodd" clip-rule="evenodd" d="M256 404C337.738 404 404 337.738 404 256C404 174.262 337.738 108 256 108C174.262 108 108 174.262 108 256C108 337.738 174.262 404 256 404ZM256 412C342.156 412 412 342.156 412 256C412 169.844 342.156 100 256 100C169.844 100 100 169.844 100 256C100 342.156 169.844 412 256 412Z" fill="white"/>
  <path d="M241.099 174.802L253.379 144L332 337H290.369L240.799 213.791C240.501 213.195 240.201 212.451 240.051 211.855C239.004 208.731 238.404 205.307 237.955 201.587C236.906 192.658 237.955 182.838 240.65 175.993L241.099 174.802Z" fill="white"/>
  <path d="M247.538 252.925L226.723 303.222H267.906L281.384 337L180 336.852L230.916 211.707L247.538 252.925Z" fill="white"/>
</svg>
