<svg width="512" height="512" viewBox="0 0 512 512" fill="none"
  xmlns="http://www.w3.org/2000/svg">
  <g clip-path="url(#clip0_2318_28)">
    <circle cx="256" cy="256" r="256" fill="#F0B90B"/>
    <path d="M159.976 130.524L256.171 75L352.365 130.524L316.999 151.037L256.171 116.024L195.342 151.037L159.976 130.524ZM352.365 200.549L316.999 180.037L256.171 215.049L195.342 180.037L159.976 200.549V241.573L220.805 276.585V346.61L256.171 367.122L291.537 346.61V276.585L352.365 241.573V200.549ZM352.365 311.597V270.574L316.999 291.086V332.109L352.365 311.597ZM377.476 326.098L316.648 361.109V402.134L412.842 346.61V235.562L377.476 256.073V326.098ZM342.11 165.537L377.476 186.049V227.074L412.842 206.561V165.537L377.476 145.024L342.11 165.537ZM220.805 375.963V416.988L256.171 437.5L291.537 416.988V375.963L256.171 396.475L220.805 375.963ZM159.976 311.597L195.342 332.109V291.086L159.976 270.574V311.597ZM220.805 165.537L256.171 186.049L291.537 165.537L256.171 145.024L220.805 165.537ZM134.866 186.049L170.232 165.537L134.866 145.024L99.5 165.537V206.561L134.866 227.074V186.049ZM134.866 256.073L99.5 235.562V346.61L195.695 402.134V361.109L134.866 326.098V256.073Z" fill="white"/>
  </g>
</svg>
