<svg width="512" height="512" viewBox="0 0 512 512" fill="none"
  xmlns="http://www.w3.org/2000/svg">
  <rect width="512" height="512" fill="black"/>
  <path fill-rule="evenodd" clip-rule="evenodd" d="M198.678 199.21C167.456 181.09 167.456 151.711 198.678 133.59C229.901 115.47 280.522 115.47 311.745 133.59C342.967 151.711 342.967 181.09 311.745 199.21C280.522 217.33 229.901 217.33 198.678 199.21ZM279.306 337.862C279.306 301.761 304.618 257.55 335.841 239.429C367.065 221.308 392.377 236.139 392.377 272.24C392.377 308.341 367.065 352.552 335.841 370.673C304.618 388.795 279.306 373.963 279.306 337.862ZM176.159 239.426C144.936 221.305 119.624 236.136 119.624 272.237C119.624 308.338 144.936 352.55 176.159 370.671C207.383 388.792 232.694 373.96 232.694 337.86C232.694 301.759 207.383 257.547 176.159 239.426Z" fill="white"/>
</svg>
