<svg width="512" height="512" viewBox="0 0 512 512" fill="none"
  xmlns="http://www.w3.org/2000/svg">
  <rect width="512" height="512" fill="#272727"/>
  <path d="M398.937 188.134C381.939 196.493 364.966 204.826 348.313 213.005C342.502 206.669 337.433 200.294 331.52 194.867C319.705 184.051 305.305 178.176 289.677 175.693C268.365 172.301 247.168 173.158 226.329 179.174C187.481 190.374 165.606 222.694 169.523 263.014C173.606 305.062 199.565 331.072 243.097 336.602C261.837 338.982 280.486 339.136 298.982 334.349C318.118 329.395 333.427 318.925 345.139 303.091C346.265 301.568 347.417 300.07 348.697 298.381C365.709 306.842 382.451 315.162 399.833 323.802C392.896 334.746 384.397 343.488 374.771 351.206C348.493 372.301 318.054 383.066 284.851 385.869C244.608 389.261 205.491 384.947 170.009 363.738C134.195 342.323 115.942 309.862 112.589 268.685C110.425 242.227 114.035 216.704 126.745 193.088C141.491 165.709 164.493 147.469 193.433 137.421C241.126 120.87 289.126 119.718 336.653 138.483C359.654 147.571 379.225 161.715 394.649 181.274C395.84 182.784 396.953 184.346 398.041 185.92C398.374 186.406 398.515 187.046 398.963 188.147L398.937 188.134Z" fill="#F3FF97"/>
</svg>
