<svg width="512" height="512" viewBox="0 0 512 512" fill="none"
  xmlns="http://www.w3.org/2000/svg">
  <rect width="512" height="512" fill="#1E1E1E"/>
  <path d="M412.405 166.75L404.639 153.116C404.03 152.047 403.182 151.134 402.162 150.447C401.141 149.76 399.976 149.318 398.757 149.156C397.537 148.993 396.297 149.115 395.132 149.511C393.967 149.907 392.91 150.567 392.043 151.439L374.181 169.281C372.875 170.593 372.063 172.316 371.881 174.158C371.7 176 372.161 177.849 373.187 179.39C379.7 189.34 384.919 200.079 388.719 211.348C395.818 232.413 397.8 254.864 394.502 276.847C391.204 298.829 382.72 319.711 369.752 337.767C356.784 355.823 339.704 370.533 319.924 380.683C300.144 390.833 278.232 396.13 255.999 396.137C233.111 396.2 210.562 390.604 190.361 379.848L220.57 349.629C239.29 356.708 259.703 358.011 279.171 353.369C298.638 348.727 316.266 338.353 329.775 323.59C343.284 308.826 352.053 290.351 354.95 270.552C357.846 250.753 354.736 230.541 346.022 212.528C345.468 211.374 344.646 210.371 343.625 209.6C342.603 208.83 341.412 208.316 340.15 208.102C338.889 207.887 337.594 207.979 336.376 208.368C335.157 208.757 334.049 209.433 333.146 210.338L315.066 228.289C314.102 229.252 313.401 230.445 313.028 231.755C312.656 233.065 312.625 234.449 312.939 235.774L314.492 242.265C317.164 253.635 316.459 265.538 312.462 276.513C308.464 287.489 301.349 297.058 291.989 304.048C282.63 311.038 271.433 315.144 259.772 315.862C248.112 316.58 236.495 313.879 226.348 308.091L218.38 303.525C216.858 302.648 215.088 302.299 213.346 302.532C211.605 302.765 209.989 303.568 208.75 304.814L134.958 378.575C134.153 379.38 133.529 380.348 133.128 381.414C132.727 382.48 132.558 383.619 132.633 384.756C132.708 385.892 133.025 387 133.563 388.004C134.1 389.008 134.846 389.886 135.751 390.578L146.623 398.917C177.977 423.074 216.477 436.119 256.061 435.999C287.575 435.959 318.528 427.655 345.828 411.916C373.129 396.178 395.824 373.555 411.646 346.306C427.468 319.058 435.865 288.137 435.998 256.629C436.132 225.122 427.996 194.131 412.405 166.75Z" fill="url(#paint0_linear_1694_2)"/>
  <path d="M365.468 113.099C334.117 88.9327 295.616 75.8815 256.03 76.0008C224.5 76.0253 193.529 84.3217 166.211 100.061C138.893 115.8 116.184 138.431 100.354 165.693C84.5242 192.955 76.1269 223.893 76.0014 255.415C75.876 286.938 84.0267 317.941 99.6393 345.328L107.405 358.946C108.017 360.014 108.866 360.926 109.887 361.613C110.908 362.299 112.074 362.742 113.293 362.905C114.513 363.069 115.754 362.95 116.92 362.557C118.086 362.164 119.146 361.507 120.017 360.639L137.848 342.812C139.145 341.498 139.951 339.779 140.132 337.941C140.313 336.104 139.858 334.26 138.842 332.719C132.323 322.772 127.103 312.032 123.31 300.761C116.211 279.696 114.229 257.244 117.527 235.262C120.825 213.279 129.308 192.397 142.276 174.342C155.244 156.286 172.324 141.575 192.104 131.425C211.885 121.276 233.797 115.978 256.03 115.971C278.917 115.919 301.462 121.532 321.652 132.307L291.427 162.51C276.286 156.773 259.978 154.797 243.905 156.752C227.832 158.707 212.473 164.535 199.15 173.735C185.827 182.934 174.937 195.23 167.416 209.567C159.895 223.903 155.969 239.85 155.974 256.039C155.974 257.7 156.424 265.278 156.564 266.583C157.789 278.051 160.978 289.224 165.992 299.612C166.547 300.765 167.37 301.769 168.393 302.539C169.416 303.309 170.609 303.823 171.871 304.037C173.134 304.252 174.429 304.161 175.649 303.772C176.869 303.383 177.978 302.707 178.883 301.801L196.962 283.711C197.925 282.75 198.627 281.561 199.002 280.254C199.377 278.947 199.413 277.566 199.106 276.241L197.552 269.735C194.876 258.364 195.58 246.46 199.576 235.484C203.573 224.507 210.689 214.937 220.05 207.947C229.412 200.958 240.611 196.854 252.273 196.139C263.934 195.425 275.551 198.131 285.696 203.925L293.664 208.49C295.189 209.359 296.957 209.704 298.696 209.471C300.436 209.238 302.051 208.441 303.294 207.201L377.07 133.441C377.877 132.635 378.502 131.667 378.905 130.6C379.307 129.533 379.477 128.393 379.404 127.256C379.33 126.118 379.015 125.009 378.479 124.003C377.942 122.997 377.197 122.117 376.294 121.422L365.468 113.099Z" fill="url(#paint1_linear_1694_2)"/>
  <defs>
    <linearGradient id="paint0_linear_1694_2" x1="147.083" y1="450.456" x2="464.573" y2="150.137" gradientUnits="userSpaceOnUse">
      <stop stop-color="#B090F5"/>
      <stop offset="1" stop-color="#5FBFFF"/>
    </linearGradient>
    <linearGradient id="paint1_linear_1694_2" x1="66.0438" y1="317.967" x2="319.485" y2="64.4859" gradientUnits="userSpaceOnUse">
      <stop stop-color="#68D7FA"/>
      <stop offset="1" stop-color="#7EF1B3"/>
    </linearGradient>
  </defs>
</svg>
