<svg width="512" height="512" viewBox="0 0 512 512" fill="none" xmlns="http://www.w3.org/2000/svg">
<rect width="512" height="512" fill="white"/>
<g clip-path="url(#clip0_1046_2221)">
<path d="M303.652 381.6C282.361 393.796 261.131 406.083 239.759 418.139C231.813 422.62 224.481 428.361 215.205 430.265C200.34 433.306 185.203 426.77 177.387 413.647C171.848 404.341 166.349 395.005 160.83 385.679C151.917 369.987 143.054 354.276 134.081 338.625C125.097 322.944 115.982 307.334 106.948 291.683C100.211 280 102.285 269.254 111.571 259.354C120.031 250.34 127.504 240.379 135.329 230.771C152.149 210.125 168.857 189.408 185.757 168.832C187.952 166.153 188.003 163.706 187.479 160.533C183.158 134.106 191.175 111.818 212.214 95.4522C232.538 79.6402 255.42 76.9007 279.501 86.7707C276.913 90.1244 272.572 89.2583 269.218 91.0309C263.165 94.2235 258.039 98.7455 252.067 101.968C250.083 102.21 248.088 102.422 246.104 102.694C227.724 105.252 212.063 119.815 208.145 137.984C204.046 156.958 212.103 176.869 227.926 186.89C233.102 190.163 235.137 189.72 239.407 184.362C246.779 183.073 251.785 177.212 258.452 174.543C263.075 171.763 267.697 168.973 272.33 166.193C281.062 162.286 288.616 156.082 297.791 153.03C315.969 149.223 329.374 155.216 338.781 171.35C346.858 185.188 354.925 199.036 362.993 212.874C366.518 218.847 369.277 225.272 373.658 230.741C376.831 238.516 381.715 245.344 385.764 252.636C391.273 262.576 397.114 272.325 402.714 282.216C413.511 301.291 408.042 320.98 388.977 332.039C360.525 348.546 332.094 365.083 303.662 381.61L303.652 381.6ZM209.142 406.98C211.237 407.211 213.443 405.993 215.638 404.724C269.369 373.674 323.11 342.634 376.831 311.564C384.062 307.384 385.925 300.354 381.786 293.173C360.787 256.806 339.758 220.448 318.729 184.1C313.713 175.429 307.358 173.747 298.606 178.803C268.463 196.196 238.329 213.619 208.186 231.013C182.242 245.979 156.338 261.015 130.284 275.79C126.869 277.724 126.749 279.154 128.702 282.125C131.543 286.456 133.99 291.038 136.588 295.53C156.59 330.155 176.622 364.76 196.523 399.446C199.293 404.27 202.989 406.97 209.153 406.98H209.142ZM212.305 201.252C208.196 197.928 204.62 194.726 201.69 190.899C200.431 189.257 199.635 189.307 198.326 190.929C189.624 201.715 180.842 212.431 172.08 223.177C172.301 223.469 172.523 223.751 172.745 224.043C185.817 216.52 198.88 208.987 212.305 201.252Z" fill="#2A0C56"/>
<path d="M297.78 153.021C288.605 156.072 281.061 162.276 272.319 166.184C275.018 143.03 287.114 126.281 307.156 114.901C310.309 113.108 314.055 112.484 316.784 109.895C326.967 108.908 336.957 105.434 347.371 107.649C374.856 111.084 397.375 131.549 403.902 159.003C410.136 185.239 399.057 213.892 376.739 229.15C375.793 229.795 374.675 230.208 373.647 230.731C369.266 225.273 366.507 218.837 362.982 212.865C364.13 212.2 365.369 211.646 366.426 210.851C391.373 192.088 390.658 154.088 365.046 136.222C341.983 120.138 308.375 128.527 297.77 153.021H297.78Z" fill="#8442DA"/>
<path d="M347.381 107.649C336.968 105.433 326.967 108.908 316.795 109.895C283.227 96.5904 249.639 119.624 251.492 154.904C251.865 161.943 252.862 169.165 258.451 174.543C251.784 177.202 246.779 183.073 239.406 184.362C238.802 183.597 238.016 182.902 237.614 182.046C229.849 165.67 228.418 148.861 233.776 131.427C237.301 119.946 244.402 110.811 252.066 101.968C258.048 98.7456 263.175 94.2236 269.218 91.031C272.571 89.2584 276.922 90.1346 279.5 86.7708C288.615 85.8039 297.629 83.9508 306.935 85.5723C322.979 88.3721 336.776 94.989 347.371 107.639L347.381 107.649Z" fill="#573387"/>
<path d="M209.142 406.98C202.988 406.97 199.282 404.271 196.512 399.447C176.601 364.771 156.569 330.156 136.577 295.53C133.989 291.039 131.532 286.456 128.692 282.125C126.738 279.154 126.859 277.724 130.273 275.791C156.317 261.006 182.231 245.979 208.175 231.013C238.318 213.62 268.442 196.186 298.595 178.803C307.348 173.758 313.703 175.429 318.718 184.101C339.757 220.448 360.776 256.806 381.775 293.174C385.924 300.355 384.051 307.384 376.82 311.564C323.099 342.634 269.368 373.674 215.628 404.724C213.442 405.993 211.236 407.212 209.132 406.98H209.142ZM270.627 341.718C293.681 341.899 308.334 317.808 297.669 298.653C294.919 293.708 289.662 291.784 284.898 293.979C280.064 296.205 278.12 301.352 280.115 306.659C282.834 313.921 281.877 318.07 276.791 321.021C271.745 323.952 267.193 322.572 262.641 316.761C258.975 312.068 253.949 311.02 249.447 313.991C244.905 316.992 243.757 322.713 246.889 327.698C252.569 336.722 260.798 341.385 270.627 341.728V341.718ZM318.275 260.019C318.225 250.058 310.288 242.182 300.368 242.253C290.599 242.323 282.501 250.592 282.693 260.311C282.874 269.848 290.921 277.835 300.439 277.926C310.198 278.016 318.325 269.859 318.275 260.019ZM207.007 332.885C216.846 332.744 225.004 324.405 224.692 314.807C224.38 305.058 216.464 297.243 206.946 297.273C197.106 297.313 188.979 305.38 188.959 315.139C188.928 324.768 197.328 333.026 207.007 332.885Z" fill="#F4F4F5"/>
<path d="M297.78 153.02C308.385 128.526 341.994 120.137 365.057 136.221C390.668 154.087 391.373 192.077 366.437 210.85C365.379 211.645 364.14 212.199 362.992 212.864C354.925 199.026 346.848 185.178 338.781 171.34C329.364 155.195 315.959 149.203 297.79 153.02H297.78Z" fill="#F4F3F5"/>
<path d="M258.452 174.543C252.862 169.165 251.855 161.943 251.492 154.904C249.639 119.634 283.237 96.5904 316.795 109.895C314.066 112.483 310.319 113.117 307.167 114.9C287.125 126.291 275.019 143.029 272.33 166.184C267.707 168.963 263.084 171.753 258.452 174.533V174.543Z" fill="#F4F1F5"/>
<path d="M252.066 101.959C244.391 110.802 237.301 119.936 233.776 131.418C228.418 148.851 229.848 165.66 237.613 182.036C238.026 182.903 238.802 183.587 239.406 184.353C235.136 189.711 233.101 190.154 227.925 186.881C212.103 176.86 204.046 156.949 208.145 137.974C212.062 119.805 227.723 105.242 246.104 102.684C248.088 102.412 250.082 102.201 252.066 101.959Z" fill="#F3F1F3"/>
<path d="M212.304 201.253C198.879 208.987 185.806 216.521 172.744 224.044C172.522 223.752 172.301 223.47 172.079 223.178C180.841 212.442 189.633 201.726 198.325 190.929C199.634 189.308 200.43 189.258 201.689 190.899C204.62 194.726 208.195 197.929 212.304 201.253Z" fill="#F4F4F5"/>
<path d="M270.627 341.717C260.798 341.375 252.569 336.712 246.889 327.688C243.757 322.713 244.905 316.982 249.447 313.981C253.949 311 258.975 312.057 262.641 316.75C267.193 322.572 271.745 323.941 276.791 321.011C281.877 318.06 282.834 313.91 280.115 306.649C278.12 301.341 280.064 296.195 284.898 293.969C289.662 291.773 294.919 293.697 297.669 298.642C308.335 317.798 293.681 341.889 270.627 341.707V341.717Z" fill="#2B0D55"/>
<path d="M318.275 260.018C318.325 269.848 310.198 278.016 300.439 277.925C290.931 277.835 282.884 269.848 282.693 260.31C282.501 250.581 290.599 242.313 300.368 242.252C310.278 242.182 318.214 250.058 318.275 260.018Z" fill="#2B0D55"/>
<path d="M207.007 332.885C197.328 333.026 188.929 324.767 188.959 315.139C188.989 305.38 197.107 297.313 206.947 297.273C216.464 297.232 224.39 305.058 224.692 314.807C224.994 324.405 216.847 332.744 207.007 332.885Z" fill="#2B0C57"/>
</g>
<defs>
<clipPath id="clip0_1046_2221">
<rect width="305.182" height="350" fill="white" transform="translate(103 81)"/>
</clipPath>
</defs>
</svg>
