<svg width="512" height="512" viewBox="0 0 512 512" fill="none" xmlns="http://www.w3.org/2000/svg">
<rect width="512" height="512" fill="#0052FF"/>
<path fill-rule="evenodd" clip-rule="evenodd" d="M436 256C436 156.583 355.417 76 256 76C156.583 76 76 156.583 76 256C76 355.417 156.583 436 256 436C355.417 436 436 355.417 436 256ZM300.316 198.467H211.664C204.386 198.467 198.467 204.832 198.467 212.657V299.323C198.467 307.148 204.366 313.513 211.664 313.513H300.316C307.594 313.513 313.513 307.168 313.513 299.323V212.657C313.513 204.832 307.614 198.467 300.316 198.467Z" fill="white"/>
</svg>
