<svg width="512" height="512" viewBox="0 0 512 512" fill="none"
  xmlns="http://www.w3.org/2000/svg">
  <rect width="512" height="512" fill="#0A0B0D"/>
  <path d="M381 131.017C372.562 139.456 364.991 147.17 357.195 154.651C356.112 155.684 353.946 155.951 352.272 155.951C320.346 156.026 288.419 156.001 256.501 156.009C198.67 156.026 153.292 203.778 156.191 261.552C158.614 309.804 196.571 350.375 244.798 355.041C261.032 356.615 277.508 355.74 293.875 355.882C294.941 355.89 296.265 355.199 297.057 354.416C304.661 346.918 312.175 339.32 320.521 330.956H315.44C295.732 330.956 276.017 330.973 256.31 330.956C216.845 330.906 184.477 301.04 181.254 261.727C178.105 223.372 205.217 188.691 243.632 182.026C247.039 181.435 250.529 181.068 253.977 181.052C278.549 180.968 303.112 181.002 327.684 181.01C328.467 181.01 329.25 181.093 330.782 181.177C322.47 189.507 314.723 197.388 306.794 205.069C305.911 205.927 303.978 205.952 302.529 205.961C287.261 206.019 271.994 205.969 256.726 206.002C228.481 206.061 206.092 228.104 206.083 255.821C206.083 283.87 228.398 305.947 256.826 305.955C296.382 305.972 335.946 305.955 375.503 305.955H380.733C379.309 307.497 378.451 308.505 377.518 309.438C354.654 332.314 331.765 355.166 308.959 378.1C306.944 380.125 304.97 381.024 302.079 380.999C286.953 380.858 271.819 380.933 256.693 380.933C193.381 380.925 140.79 335.072 132.152 272.357C122.94 205.577 169.992 142.68 236.827 132.608C243.382 131.616 250.079 131.108 256.709 131.083C296.265 130.95 335.83 131.017 375.386 131.017H381Z" fill="white"/>
</svg>
