<svg width="512" height="512" viewBox="0 0 512 512" fill="none"
  xmlns="http://www.w3.org/2000/svg">
  <rect width="512" height="512" fill="#2A46FA"/>
  <path d="M433.419 256V255.651V255.302C433.07 156.581 353.535 76 256.209 76C158.535 76 79 156.581 79 256C79 355.071 158.535 436 256.209 436C301.209 436 343.766 418.906 376.558 387.86C383.186 381.582 383.535 371.465 377.255 364.838C371.325 358.21 361.207 357.86 354.58 363.79C354.58 363.79 354.582 363.79 354.233 364.139C327.721 389.256 292.139 403.558 255.511 403.558C212.604 403.558 174.233 384.72 147.721 354.72L223.418 233.325V289.488C223.418 316.349 233.883 325.07 242.605 327.512C251.326 329.953 264.58 328.208 278.883 305.534L320.394 238.208C321.789 236.116 322.838 234.024 324.232 232.628V266.814C324.232 291.931 334.348 312.163 351.791 321.93C367.488 330.999 387.372 329.952 403.767 319.836C423.999 306.58 434.815 283.559 433.419 256ZM387.372 291.232C381.093 295.069 373.766 295.767 368.185 292.628C361.209 288.441 357.022 279.023 357.022 266.116V226.698C357.022 207.86 349.697 194.255 337.139 190.766C315.86 184.487 299.813 210.651 293.883 220.418L256.209 280.766V206.464C255.86 189.37 250.279 179.256 239.814 176.116C232.838 174.023 222.371 175.069 212.255 190.418L128.186 325.07C117.022 303.791 111.092 280.07 111.092 256C111.092 174.721 176.325 108.79 256.209 108.79C336.093 108.79 401.325 174.721 401.325 256V256.349V256.698C402.024 272.396 397.138 284.952 387.372 291.232Z" fill="white"/>
</svg>
