<svg width="512" height="512" viewBox="0 0 512 512" fill="none"
  xmlns="http://www.w3.org/2000/svg">
  <path d="M511.998 254.87C512.221 305.5 497.426 355.059 469.484 397.281C441.542 439.503 401.708 472.492 355.018 492.075C308.328 511.658 256.879 516.957 207.178 507.301C157.476 497.645 111.754 473.469 75.7931 437.828C39.8319 402.187 15.2466 356.684 5.14602 307.071C-4.95456 257.458 -0.116778 205.964 19.0476 159.1C38.212 112.237 70.8423 72.1084 112.812 43.7894C154.783 15.4703 204.208 0.232403 254.838 0.00252147C322.736 -0.298609 387.973 26.3835 436.199 74.1798C484.425 121.976 511.691 186.972 511.998 254.87Z" fill="#8DC63F"/>
  <path d="M492.712 254.923C492.925 301.74 479.25 347.569 453.417 386.614C427.584 425.66 390.753 456.168 347.581 474.281C304.41 492.394 256.836 497.298 210.877 488.374C164.918 479.449 122.638 457.097 89.3823 424.143C56.1268 391.19 33.39 349.115 24.047 303.239C14.7041 257.363 19.1746 209.747 36.8933 166.412C54.612 123.077 84.7831 85.9694 123.591 59.7815C162.399 33.5937 208.102 19.5018 254.919 19.288C286.004 19.1459 316.814 25.1282 345.588 36.8932C374.362 48.6582 400.536 65.9755 422.618 87.8564C444.699 109.737 462.254 135.753 474.281 164.418C486.308 193.084 492.57 223.838 492.712 254.923Z" fill="#F9E988"/>
  <path d="M260.313 34.6358C275.362 31.9494 290.768 31.9494 305.816 34.6358C321.009 37.0433 335.695 41.9658 349.27 49.2012C362.756 56.6187 374.436 66.6796 386.034 76.1741C397.632 85.6685 409.204 95.2709 420.209 105.844C431.43 116.24 441.225 128.076 449.339 141.044C457.705 153.924 464.557 167.727 469.758 182.178C479.877 211.042 482.758 241.949 478.146 272.186H476.636C472.193 243.299 464.763 214.951 454.464 187.599C449.529 174.073 443.717 160.882 437.067 148.111C430.077 135.377 422.387 123.04 414.032 111.158C405.508 99.1314 395.065 88.5882 383.121 79.9503C371.118 71.3999 357.308 65.8434 343.929 60.5837C330.551 55.324 317.172 50.0913 303.281 46.0723C289.39 42.0533 275.175 39.0593 260.367 36.1463L260.313 34.6358Z" fill="white"/>
  <path d="M376.027 171.307C358.845 166.317 340.962 159.277 322.998 152.156C321.973 147.625 317.954 141.987 309.863 135.109C298.075 124.887 275.958 125.156 256.834 129.715C235.741 124.752 214.891 122.998 194.796 127.8C31.2053 172.844 123.992 282.975 63.8964 393.564C72.4469 411.69 164.613 517.639 297.967 489.129C297.967 489.129 252.383 379.538 355.285 326.941C438.766 284.135 499.105 204.888 376.027 171.307Z" fill="#8BC53F"/>
  <path d="M396.23 243.352C396.246 245.318 395.678 247.244 394.598 248.886C393.519 250.528 391.976 251.813 390.165 252.578C388.354 253.342 386.357 253.552 384.427 253.18C382.497 252.808 380.721 251.872 379.324 250.49C377.926 249.108 376.971 247.342 376.578 245.416C376.186 243.49 376.373 241.491 377.118 239.672C377.863 237.853 379.131 236.296 380.761 235.199C382.392 234.101 384.311 233.513 386.277 233.507C387.577 233.5 388.865 233.749 390.069 234.24C391.273 234.731 392.368 235.454 393.292 236.368C394.217 237.283 394.952 238.37 395.456 239.568C395.96 240.766 396.223 242.052 396.23 243.352Z" fill="white"/>
  <path d="M256.834 129.661C268.756 130.524 311.885 144.604 322.998 152.156C313.801 125.183 282.539 121.677 256.834 129.661Z" fill="#009345"/>
  <path d="M268.19 197.687C268.19 206.756 265.5 215.621 260.462 223.162C255.423 230.703 248.262 236.58 239.883 240.051C231.505 243.521 222.285 244.429 213.39 242.66C204.495 240.891 196.325 236.523 189.912 230.111C183.499 223.698 179.132 215.527 177.363 206.633C175.593 197.738 176.502 188.518 179.972 180.139C183.443 171.761 189.32 164.599 196.861 159.561C204.401 154.522 213.267 151.833 222.336 151.833C234.497 151.833 246.16 156.664 254.759 165.263C263.359 173.863 268.19 185.526 268.19 197.687Z" fill="white"/>
  <path d="M254.622 198.092C254.628 204.462 252.743 210.692 249.208 215.991C245.672 221.291 240.644 225.423 234.76 227.865C228.876 230.307 222.399 230.948 216.15 229.709C209.901 228.469 204.16 225.404 199.653 220.901C195.147 216.398 192.077 210.66 190.832 204.412C189.587 198.164 190.223 191.687 192.66 185.8C195.097 179.914 199.225 174.882 204.521 171.342C209.818 167.802 216.046 165.913 222.417 165.913C230.951 165.92 239.135 169.312 245.172 175.344C251.21 181.376 254.608 189.557 254.622 198.092Z" fill="#58595B"/>
  <path d="M433.318 263.528C396.23 289.665 354.044 309.382 294.218 309.382C266.22 309.382 260.556 279.712 242.053 294.223C232.477 301.749 198.896 318.499 172.058 317.312C145.22 316.125 101.928 300.346 89.9252 243.298C85.151 300.346 82.6965 342.37 61.28 390.544C103.951 458.866 205.666 511.544 297.967 488.887C288.068 419.62 348.596 351.757 382.716 317.042C395.609 303.907 420.478 282.436 433.318 263.42V263.528Z" fill="#8BC53F"/>
  <path d="M431.862 265.254C420.046 275.416 406.862 283.869 392.697 290.366C378.577 297.075 363.857 302.439 348.731 306.388C333.626 310.299 317.82 313.239 301.825 311.782C285.83 310.326 269.458 304.877 258.911 292.901L259.424 292.308C272.479 300.75 287.395 303.717 302.284 304.149C317.401 304.588 332.519 303.33 347.355 300.4C362.344 297.276 377.009 292.761 391.159 286.913C405.539 281.422 419.076 273.941 431.376 264.688L431.862 265.254Z" fill="#58595B"/>
</svg>
