<svg width="512" height="512" viewBox="0 0 512 512" fill="none"
  xmlns="http://www.w3.org/2000/svg">
  <rect width="512" height="512" fill="#0A0B0D"/>
  <path d="M163.634 246.918L246.027 111.445C250.441 104.185 261.066 104.185 265.48 111.445L347.857 246.918C351.119 252.278 349.338 259.226 343.914 262.406L261.52 310.67C257.961 312.762 253.529 312.762 249.97 310.67L167.576 262.406C162.151 259.226 160.372 252.278 163.634 246.918Z" fill="#33FF99"/>
  <path d="M326.778 312.045C326.793 312.175 326.809 312.307 326.809 312.447H326.774V313.09L326.721 313.595C326.709 313.675 326.7 313.754 326.69 313.833C326.67 313.991 326.651 314.146 326.616 314.309C326.616 314.309 326.59 314.4 326.573 314.448C326.556 314.495 326.53 314.586 326.53 314.586C326.32 315.387 325.971 316.135 325.465 316.831L265.695 400.873C260.83 407.709 250.647 407.709 245.784 400.873L186.012 316.831C185.506 316.135 185.158 315.387 184.948 314.586C184.914 314.5 184.879 314.412 184.861 314.309C184.826 314.155 184.806 313.993 184.787 313.829C184.777 313.751 184.768 313.673 184.757 313.595C184.751 313.534 184.742 313.475 184.734 313.417C184.719 313.309 184.704 313.204 184.704 313.09C184.693 312.951 184.697 312.803 184.7 312.658C184.702 312.587 184.704 312.516 184.704 312.447C184.704 312.256 184.722 312.046 184.757 311.855C184.774 311.663 184.809 311.472 184.861 311.281C184.903 311.1 184.956 310.93 185.011 310.754C185.025 310.709 185.039 310.665 185.053 310.619C185.088 310.541 185.118 310.459 185.149 310.376C185.179 310.294 185.21 310.211 185.245 310.133C185.331 309.934 185.44 309.745 185.553 309.549C185.578 309.506 185.603 309.463 185.628 309.419C185.665 309.36 185.696 309.305 185.726 309.251C185.766 309.177 185.805 309.107 185.855 309.037C186.099 308.69 186.378 308.358 186.675 308.045C186.971 307.732 187.32 307.471 187.669 307.227C187.758 307.164 187.857 307.11 187.952 307.058L188.052 307.002C188.279 306.862 188.523 306.723 188.767 306.618L188.884 306.571C189.014 306.518 189.138 306.467 189.273 306.427C189.317 306.413 189.361 306.4 189.404 306.386C189.582 306.331 189.753 306.278 189.935 306.236L190.511 306.132C190.566 306.127 190.623 306.12 190.681 306.114C190.822 306.097 190.967 306.08 191.103 306.08H191.766L192.254 306.132C192.333 306.143 192.411 306.152 192.49 306.161C192.655 306.181 192.821 306.2 192.986 306.236L193.085 306.269L193.196 306.305C193.946 306.496 194.66 306.792 195.323 307.227L249.548 339.185C253.384 341.446 258.128 341.446 261.964 339.185L316.19 307.227C316.852 306.792 317.568 306.496 318.318 306.305L318.402 306.273C318.443 306.254 318.526 306.236 318.526 306.236C318.691 306.2 318.857 306.181 319.022 306.162C319.101 306.152 319.18 306.143 319.259 306.132C319.319 306.126 319.376 306.118 319.432 306.11C319.54 306.095 319.643 306.08 319.747 306.08C319.897 306.069 320.04 306.072 320.186 306.076C320.26 306.078 320.334 306.08 320.41 306.08C320.618 306.08 320.81 306.097 321.003 306.132C321.194 306.149 321.385 306.183 321.578 306.236C321.805 306.288 322.03 306.357 322.24 306.427C322.314 306.456 322.388 306.483 322.461 306.509C322.559 306.544 322.656 306.578 322.746 306.618C322.99 306.723 323.234 306.862 323.461 307.002C323.599 307.089 323.721 307.141 323.845 307.227C324.194 307.471 324.524 307.75 324.839 308.045C325.152 308.341 325.414 308.69 325.658 309.037C325.718 309.122 325.771 309.215 325.821 309.306L325.885 309.419C326.024 309.646 326.162 309.89 326.267 310.133C326.356 310.289 326.408 310.447 326.461 310.619C326.475 310.665 326.489 310.711 326.503 310.756C326.557 310.932 326.61 311.1 326.652 311.281L326.757 311.855C326.762 311.918 326.77 311.981 326.778 312.045Z" fill="#33FF99"/>
</svg>
