<svg width="512" height="512" viewBox="0 0 512 512" fill="none"
  xmlns="http://www.w3.org/2000/svg">
  <rect width="512" height="512" fill="white"/>
  <path d="M122.785 275.473C169.762 300.421 218.781 326.535 256.641 346.741L389.401 275.473C341.331 346.886 301.278 406.338 256.641 472.135C211.924 406.483 162.541 334.041 122.785 275.473ZM127.891 255.775L256.786 186.996L384.003 255.272L256.859 324.128L127.891 255.775ZM256.641 164.96L122.785 235.426L256.057 40.2964L389.401 235.863L256.641 164.96Z" fill="#3AB83A"/>
  <path d="M256.641 346.741L389.401 275.473C341.331 346.886 256.641 472.135 256.641 472.135V346.741ZM256.786 186.996L384.003 255.272L256.859 324.128L256.786 186.996ZM256.641 164.965L256.057 40.2964L389.401 235.863L256.641 164.965Z" fill="#0B8311"/>
  <path d="M127.891 255.777L256.793 266.355L384.01 255.34L256.859 324.2L127.891 255.777Z" fill="#0B8311"/>
  <path d="M256.786 266.355L384.003 255.34L256.859 324.2L256.786 266.355Z" fill="#146714"/>
</svg>
