<svg width="512" height="512" viewBox="0 0 512 512" fill="none"
  xmlns="http://www.w3.org/2000/svg">
  <g clip-path="url(#clip0_1437_2)">
    <rect width="512" height="512" fill="white"/>
    <path d="M100.774 243.339C100.774 240.358 101.363 237.408 102.504 234.656C103.646 231.904 105.32 229.405 107.428 227.303C109.537 225.201 112.039 223.536 114.792 222.405C117.544 221.275 120.492 220.7 123.467 220.714L161.093 220.837C167.091 220.837 172.845 223.224 177.087 227.474C181.329 231.723 183.712 237.487 183.712 243.497V386.023C187.948 384.764 193.388 383.421 199.34 382.017C203.475 381.044 207.16 378.7 209.798 375.365C212.435 372.029 213.87 367.899 213.869 363.644V186.846C213.869 180.836 216.252 175.071 220.494 170.821C224.736 166.571 230.489 164.183 236.488 164.181H274.188C280.187 164.183 285.941 166.571 290.182 170.821C294.424 175.071 296.807 180.836 296.807 186.846V350.931C296.807 350.931 306.247 347.105 315.44 343.217C318.856 341.77 321.77 339.348 323.821 336.252C325.871 333.156 326.966 329.524 326.969 325.809V130.195C326.969 124.186 329.351 118.423 333.592 114.173C337.833 109.924 343.585 107.536 349.583 107.535H387.284C393.283 107.535 399.036 109.922 403.278 114.172C407.519 118.422 409.903 124.185 409.903 130.195V291.279C442.587 267.548 475.71 239.008 501.995 204.688C505.81 199.707 508.333 193.857 509.341 187.661C510.348 181.466 509.809 175.116 507.773 169.179C495.605 134.109 476.266 101.968 450.988 74.8154C425.711 47.663 395.054 26.0955 360.979 11.4939C326.904 -3.10769 290.161 -10.4221 253.103 -9.98119C216.044 -9.54028 179.486 -1.35376 145.767 14.0544C112.048 29.4626 81.9104 51.7531 57.2839 79.4997C32.6574 107.246 14.0839 139.837 2.75196 175.188C-8.57992 210.538 -12.4207 247.87 -8.52454 284.793C-4.62841 321.716 6.91888 357.417 25.3783 389.613C28.5939 395.166 33.3249 399.686 39.0151 402.639C44.7054 405.593 51.1188 406.859 57.5024 406.288C64.6333 405.66 73.5119 404.769 84.068 403.528C88.6632 403.005 92.9058 400.807 95.9873 397.352C99.0691 393.897 100.774 389.428 100.778 384.795L100.774 243.339Z" fill="#21325B"/>
    <path d="M99.9528 471.939C139.691 500.901 186.653 518.286 235.641 522.17C284.631 526.049 333.737 516.281 377.527 493.937C421.317 471.592 458.082 437.549 483.758 395.571C509.43 353.593 523.013 305.317 523 256.086C523 249.942 522.715 243.865 522.308 237.822C424.985 383.236 245.29 451.218 99.9611 471.917" fill="#979695"/>
  </g>
  <defs>
    <clipPath id="clip0_1437_2">
      <rect width="512" height="512" rx="256" fill="white"/>
    </clipPath>
  </defs>
</svg>
