<svg width="512" height="512" viewBox="0 0 512 512" fill="none"
  xmlns="http://www.w3.org/2000/svg">
  <rect width="512" height="512" fill="#0A1018"/>
  <path d="M369.804 259.82L202.674 356.331C191.132 362.997 187.175 377.754 193.837 389.295C200.498 400.835 215.255 404.786 226.797 398.122L393.928 301.611C405.47 294.945 409.426 280.187 402.765 268.647C396.104 257.106 381.346 253.155 369.804 259.82Z" fill="#FF7829"/>
  <path d="M254.205 228.944L128.856 301.326C117.315 307.992 113.358 322.75 120.019 334.29C126.681 345.831 141.438 349.783 152.98 343.118L278.328 270.735C289.87 264.069 293.827 249.311 287.165 237.771C280.504 226.23 265.746 222.278 254.205 228.944Z" fill="#FCBF22"/>
  <path d="M285.203 113.239L118.072 209.75C106.53 216.415 102.574 231.173 109.235 242.714C115.896 254.254 130.653 258.205 142.195 251.541L309.326 155.029C320.868 148.364 324.825 133.606 318.164 122.066C311.502 110.526 296.744 106.574 285.203 113.239Z" fill="#2AE5B9"/>
</svg>
