<svg width="512" height="512" viewBox="0 0 512 512" fill="none" xmlns="http://www.w3.org/2000/svg">
<rect width="512" height="512" fill="url(#paint0_linear_1046_2135)"/>
<path fill-rule="evenodd" clip-rule="evenodd" d="M239.76 169.465C233.356 144.582 210.769 126.197 183.887 126.197C152.026 126.197 126.197 152.026 126.197 183.887C126.197 215.749 152.026 241.578 183.887 241.578C210.769 241.578 233.356 223.192 239.76 198.31H289.653V246.385H318.498V198.31H337.728V246.385H366.573V198.31H385.803V169.465H239.76ZM212.732 183.887C212.732 199.818 199.818 212.732 183.887 212.732C167.957 212.732 155.042 199.818 155.042 183.887C155.042 167.957 167.957 155.042 183.887 155.042C199.818 155.042 212.732 167.957 212.732 183.887Z" fill="white"/>
<path fill-rule="evenodd" clip-rule="evenodd" d="M272.24 342.535C278.644 367.418 301.231 385.803 328.113 385.803C359.974 385.803 385.803 359.974 385.803 328.113C385.803 296.251 359.974 270.423 328.113 270.423C301.231 270.423 278.644 288.808 272.24 313.69H222.347V265.615H193.502V313.69H174.273V265.615H145.428V313.69H126.197V342.535H272.24ZM299.268 328.113C299.268 312.182 312.182 299.268 328.113 299.268C344.043 299.268 356.958 312.182 356.958 328.113C356.958 344.043 344.043 356.958 328.113 356.958C312.182 356.958 299.268 344.043 299.268 328.113Z" fill="white"/>
<defs>
<linearGradient id="paint0_linear_1046_2135" x1="440.5" y1="71.4999" x2="75.5" y2="436.5" gradientUnits="userSpaceOnUse">
<stop stop-color="#C5ACFA"/>
<stop offset="1" stop-color="#7051F8"/>
</linearGradient>
</defs>
</svg>
