<svg width="512" height="512" viewBox="0 0 512 512" fill="none"
  xmlns="http://www.w3.org/2000/svg">
  <rect width="512" height="512" fill="url(#paint0_linear_2021_28)"/>
  <path fill-rule="evenodd" clip-rule="evenodd" d="M256 275.227C319.513 275.227 371 223.577 371 159.864C371 135.086 350.977 115 326.278 115C301.579 115 281.556 135.086 281.556 159.864V245.875C264.983 250.822 247.017 250.822 230.444 245.875V159.864C230.444 135.086 210.421 115 185.722 115C161.023 115 141 135.086 141 159.864C141 223.577 192.487 275.227 256 275.227ZM204.889 159.864C204.889 149.245 196.308 140.636 185.722 140.636C175.137 140.636 166.556 149.245 166.556 159.864C166.556 190.355 181.717 217.294 204.889 233.509V159.864ZM307.111 233.509V159.864C307.111 149.245 315.692 140.636 326.278 140.636C336.863 140.636 345.444 149.245 345.444 159.864C345.444 190.355 330.283 217.294 307.111 233.509Z" fill="white"/>
  <path d="M307.111 291.252V352.136C307.111 362.755 315.692 371.364 326.278 371.364C336.863 371.364 345.444 362.755 345.444 352.136V268.635C355.141 260.6 363.745 251.289 371 240.954V352.136C371 376.914 350.977 397 326.278 397C301.579 397 281.556 376.914 281.556 352.136V324.541C264.655 327.157 247.345 327.157 230.444 324.541V352.136C230.444 376.914 210.421 397 185.722 397C161.023 397 141 376.914 141 352.136V240.954C148.255 251.289 156.859 260.6 166.556 268.635V352.136C166.556 362.755 175.137 371.364 185.722 371.364C196.308 371.364 204.889 362.755 204.889 352.136V291.252C237.438 304.006 274.536 304.015 307.111 291.252Z" fill="white"/>
  <defs>
    <linearGradient id="paint0_linear_2021_28" x1="0" y1="256" x2="512" y2="256" gradientUnits="userSpaceOnUse">
      <stop stop-color="#1C1A29"/>
      <stop offset="1" stop-color="#292C44"/>
    </linearGradient>
  </defs>
</svg>
