<svg width="512" height="512" viewBox="0 0 512 512" fill="none" xmlns="http://www.w3.org/2000/svg">
<rect width="512" height="512" fill="#0F121E"/>
<path d="M126.592 346.348C140.009 365.016 157.219 380.637 177.094 392.185C196.969 403.733 219.06 410.949 241.918 413.358C230.158 395.655 213.063 379.369 191.723 366.969C170.382 354.57 147.782 347.796 126.592 346.348Z" fill="url(#paint0_linear_1437_218)"/>
<path d="M220.303 317.712C179.256 293.871 134.83 287.795 103.041 298.528C106.11 308.669 110.157 318.487 115.126 327.844C142.745 327.204 172.9 334.704 200.959 350.997C229.019 367.291 250.48 389.778 263.613 414.087C274.21 413.762 284.752 412.412 295.09 410.057C288.662 377.137 261.34 341.558 220.303 317.712Z" fill="url(#paint1_linear_1437_218)"/>
<path d="M416 220.824C410.782 199.602 401.34 179.649 388.238 162.157C375.136 144.664 358.642 129.991 339.743 119.013C320.843 108.035 299.924 100.977 278.237 98.261C256.548 95.5451 234.535 97.2266 213.511 103.205C248.634 107.503 287.62 120.686 325.853 142.893C364.087 165.101 394.879 192.428 416 220.824Z" fill="url(#paint2_linear_1437_218)"/>
<path d="M364.914 298.669C346.936 268.819 316.138 240.235 278.199 218.201C240.26 196.165 200.177 183.579 165.366 182.747C134.739 182.021 111.754 190.922 102.319 207.162C102.265 207.258 102.19 207.349 102.131 207.446C101.282 210.492 100.551 213.543 99.8847 216.605C113.059 211.405 128.324 208.51 145.297 208.187C183.043 207.479 225.285 219.549 264.267 242.19C303.248 264.833 334.685 295.554 352.76 328.676C360.863 343.598 365.919 358.29 367.923 372.326C370.255 370.242 372.544 368.088 374.763 365.849C374.822 365.746 374.86 365.639 374.918 365.532C384.354 349.277 380.705 324.91 364.914 298.669Z" fill="url(#paint3_linear_1437_218)"/>
<path d="M249.19 267.97C191.086 234.252 126.877 228.97 96 252.501C96.0606 259.866 96.6244 267.218 97.6873 274.507C106.77 271.757 116.131 270.025 125.598 269.344C160.102 266.751 198.141 276.354 232.662 296.395C267.181 316.437 294.393 344.703 309.234 375.902C313.337 384.45 316.466 393.431 318.563 402.675C325.43 399.986 332.108 396.835 338.548 393.245C343.717 354.792 307.311 301.693 249.19 267.97Z" fill="url(#paint4_linear_1437_218)"/>
<path d="M394.871 248.777C376.686 218.933 345.613 190.244 307.398 168.045C269.185 145.846 228.938 133.051 194.008 132.024C167.38 131.255 146.755 137.712 136.061 149.911C180.466 142.384 239.037 155.035 295.807 188.029C352.578 221.024 392.592 265.669 408.038 307.986C413.331 292.658 408.725 271.535 394.871 248.777Z" fill="url(#paint5_linear_1437_218)"/>
<defs>
<linearGradient id="paint0_linear_1437_218" x1="602.939" y1="-779.891" x2="-198.657" y2="27.8935" gradientUnits="userSpaceOnUse">
<stop offset="0.0001" stop-color="#C7F284"/>
<stop offset="1" stop-color="#00BEF0"/>
</linearGradient>
<linearGradient id="paint1_linear_1437_218" x1="439.256" y1="-249.653" x2="-3.2543" y2="232.83" gradientUnits="userSpaceOnUse">
<stop offset="0.0001" stop-color="#C7F284"/>
<stop offset="1" stop-color="#00BEF0"/>
</linearGradient>
<linearGradient id="paint2_linear_1437_218" x1="247.142" y1="261.873" x2="-184.934" y2="720.351" gradientUnits="userSpaceOnUse">
<stop offset="0.0001" stop-color="#C7F284"/>
<stop offset="1" stop-color="#00BEF0"/>
</linearGradient>
<linearGradient id="paint3_linear_1437_218" x1="335.023" y1="61.3797" x2="56" y2="389.068" gradientUnits="userSpaceOnUse">
<stop offset="0.0001" stop-color="#C7F284"/>
<stop offset="1" stop-color="#00BEF0"/>
</linearGradient>
<linearGradient id="paint4_linear_1437_218" x1="376.49" y1="-50.2982" x2="55.4277" y2="327.412" gradientUnits="userSpaceOnUse">
<stop offset="0.0001" stop-color="#C7F284"/>
<stop offset="1" stop-color="#00BEF0"/>
</linearGradient>
<linearGradient id="paint5_linear_1437_218" x1="309.224" y1="161.4" x2="162.143" y2="414.133" gradientUnits="userSpaceOnUse">
<stop offset="0.0001" stop-color="#C7F284"/>
<stop offset="1" stop-color="#00BEF0"/>
</linearGradient>
</defs>
</svg>
