<svg width="512" height="512" viewBox="0 0 512 512" fill="none"
  xmlns="http://www.w3.org/2000/svg">
  <rect y="512" width="512" height="512" transform="rotate(-90 0 512)" fill="#2555FF"/>
  <path d="M137 126H191.055V385.996H137V126Z" fill="white"/>
  <path d="M317.326 376.251C323.843 382.534 332.39 386 341.363 386L341.363 385.892H375.121V333.135H353.755C350.23 333.135 346.811 331.727 344.354 329.235L269.148 255.136L342.005 182.879C344.461 180.387 347.987 178.979 351.512 178.979H375.014L375.334 126.113H339.76C330.573 126.113 321.92 129.688 315.404 136.188L212.742 239.969C203.234 249.502 203.448 265.102 213.062 274.527L317.326 376.251Z" fill="white"/>
</svg>
