<svg width="512" height="512" viewBox="0 0 512 512" fill="none"
  xmlns="http://www.w3.org/2000/svg">
  <circle cx="256" cy="256" r="256" fill="#090909"/>
  <path d="M297.054 373.5C299.536 371.306 302.033 369.113 305.492 366.048C301.025 361.856 297.174 357.169 292.346 353.908C281.276 346.426 273.199 337.171 271.409 323.334C263.272 322.643 255.571 321.982 246.066 321.171C250.924 319.172 254.323 317.76 258.685 315.972C246.622 312.126 235.687 314.199 224.948 316.273C183.029 324.371 143.231 339.35 103.177 353.653C91.5658 357.8 78.6908 358.476 66.4025 360.729C66.1016 359.813 65.8008 358.896 65.5 357.995C70.1175 354.134 74.72 350.273 80.1197 345.75C76.6152 345.495 74.2688 345.33 70.0273 345.014C109.164 324.311 146.66 304.464 184.157 284.632C184.127 284.106 184.097 283.565 184.067 283.039H164.243C164.093 282.378 163.942 281.702 163.792 281.041C176.02 273.033 188.203 264.95 200.492 257.032C229.099 238.597 257.677 220.088 286.465 201.938C295.761 196.079 305.311 190.37 315.389 186.103C331.122 179.462 344.508 169.952 356.887 158.368C363.023 152.629 370.423 148.106 377.613 143.629C388.984 136.553 401.287 135.862 412.417 143.193C423.954 150.796 434.422 160.051 446.5 169.486C439.732 172.431 434.843 174.744 429.79 176.698C416.493 181.836 408.206 191.632 403.273 204.628C400.264 212.575 396.73 220.358 394.368 228.501C386.953 254.147 369.431 270.494 346.478 282.288C334.461 288.448 322.458 294.713 310.877 301.639C293.625 311.946 290.571 330.756 303.206 346.336C311.328 356.357 320.428 365.147 333.318 369.008C335.95 369.789 338.221 371.772 341.139 373.485H297.009L297.054 373.5Z" fill="white"/>
</svg>
