<svg width="512" height="512" viewBox="0 0 512 512" fill="none" xmlns="http://www.w3.org/2000/svg">
<rect width="512" height="512" fill="url(#paint0_linear_1046_2147)"/>
<path d="M145.238 288.459C145.238 345.891 190.796 386 256.012 386C321.245 386 366.799 345.891 366.799 288.459C366.799 245.153 342.901 199.044 311.331 177.919C309.037 206.641 294.826 238.568 272.651 263.231C270.403 265.726 268.077 268.149 265.675 270.495C262.19 273.892 258.537 277.113 254.729 280.143C244.652 288.114 233.889 294.342 222.728 298.66L212.391 302.662L209.959 291.953C208.453 285.319 210.085 228.846 227.312 191.853C239.464 165.76 261.246 141.856 277.1 126C207.166 144.708 145.234 234.103 145.238 288.459Z" fill="white"/>
<defs>
<linearGradient id="paint0_linear_1046_2147" x1="256" y1="-1.07586e-05" x2="256" y2="512" gradientUnits="userSpaceOnUse">
<stop stop-color="#60B5CD"/>
<stop offset="1" stop-color="#4693AC"/>
</linearGradient>
</defs>
</svg>
