<svg width="512" height="512" viewBox="0 0 512 512" fill="none" xmlns="http://www.w3.org/2000/svg">
<rect y="512" width="512" height="512" transform="rotate(-90 0 512)" fill="white"/>
<path d="M341.826 117.771C341.144 119.136 339.508 119.719 338.115 119.093C317.399 109.667 292.221 106.482 275.672 106.482C216.171 106.482 156.656 135.5 156.656 183.2C156.656 208.777 175.836 230.416 203.873 230.416C234.852 230.416 257.971 207.796 276.653 187.138C293.373 168.456 313.05 147.798 341.072 147.798C371.569 147.798 393.692 170.418 393.692 200.914C393.692 249.111 335.656 303.209 255.496 303.209C175.338 303.209 117.316 260.415 117.316 200.914C117.316 145.338 183.215 95.1793 255.512 95.1793C292.406 95.1793 320.187 102.914 340.632 114.003C341.983 114.743 342.509 116.392 341.826 117.771ZM255.512 76C156.656 76 76 156.656 76 255.509C76 354.363 156.656 436 255.512 436C354.365 436 436.003 355.344 436.003 255.509C436.003 155.675 355.333 76 255.512 76Z" fill="#3CBE68"/>
</svg>
