<svg width="512" height="512" viewBox="0 0 512 512" fill="none" xmlns="http://www.w3.org/2000/svg">
<rect y="512" width="512" height="512" transform="rotate(-90 0 512)" fill="url(#paint0_linear_1049_936)"/>
<path d="M391.059 117L274 203.941L295.647 152.647L391.059 117Z" fill="#E2761B" stroke="#E2761B" stroke-linecap="round" stroke-linejoin="round"/>
<path d="M120.825 117L236.942 204.765L216.354 152.647L120.825 117ZM348.942 318.529L317.766 366.294L384.472 384.647L403.648 319.588L348.942 318.529ZM108.472 319.588L127.531 384.647L194.236 366.294L163.06 318.529L108.472 319.588Z" fill="#E4761B" stroke="#E4761B" stroke-linecap="round" stroke-linejoin="round"/>
<path d="M190.47 237.824L171.882 265.942L238.117 268.883L235.764 197.706L190.47 237.824ZM321.411 237.824L275.529 196.883L273.999 268.883L340.117 265.942L321.411 237.824ZM194.235 366.295L233.999 346.883L199.647 320.059L194.235 366.295ZM277.882 346.883L317.764 366.295L312.235 320.059L277.882 346.883Z" fill="#E4761B" stroke="#E4761B" stroke-linecap="round" stroke-linejoin="round"/>
<path d="M317.765 366.295L277.882 346.883L281.059 372.883L280.706 383.824L317.765 366.295ZM194.235 366.295L231.294 383.824L231.059 372.883L234 346.883L194.235 366.295Z" fill="#D7C1B3" stroke="#D7C1B3" stroke-linecap="round" stroke-linejoin="round"/>
<path d="M231.883 302.882L198.706 293.117L222.118 282.411L231.883 302.882ZM280 302.882L289.765 282.411L313.294 293.117L280 302.882Z" fill="#233447" stroke="#233447" stroke-linecap="round" stroke-linejoin="round"/>
<path d="M194.235 366.293L199.882 318.529L163.059 319.587L194.235 366.293ZM312.117 318.529L317.764 366.293L348.941 319.587L312.117 318.529ZM340.117 265.94L274 268.882L280.117 302.882L289.882 282.411L313.412 293.117L340.117 265.94ZM198.706 293.117L222.235 282.411L231.882 302.882L238.117 268.882L171.882 265.94L198.706 293.117Z" fill="#CD6116" stroke="#CD6116" stroke-linecap="round" stroke-linejoin="round"/>
<path d="M171.882 265.94L199.647 320.058L198.705 293.117L171.882 265.94ZM313.411 293.117L312.235 320.058L340.117 265.94L313.411 293.117ZM238.117 268.882L231.882 302.882L239.647 342.999L241.411 290.176L238.117 268.882ZM273.999 268.882L270.823 290.058L272.235 342.999L280.117 302.882L273.999 268.882Z" fill="#E4751F" stroke="#E4751F" stroke-linecap="round" stroke-linejoin="round"/>
<path d="M280.118 302.883L272.235 343.001L277.883 346.883L312.235 320.059L313.412 293.118L280.118 302.883ZM198.706 293.118L199.647 320.059L234 346.883L239.647 343.001L231.883 302.883L198.706 293.118Z" fill="#F6851B" stroke="#F6851B" stroke-linecap="round" stroke-linejoin="round"/>
<path d="M280.706 383.824L281.059 372.883L278.118 370.295H233.765L231.059 372.883L231.294 383.824L194.235 366.295L207.177 376.883L233.412 395.118H278.471L304.824 376.883L317.765 366.295L280.706 383.824Z" fill="#C0AD9E" stroke="#C0AD9E" stroke-linecap="round" stroke-linejoin="round"/>
<path d="M277.882 346.881L272.235 342.999H239.647L234 346.881L231.059 372.881L233.764 370.293H278.117L281.059 372.881L277.882 346.881Z" fill="#161616" stroke="#161616" stroke-linecap="round" stroke-linejoin="round"/>
<path d="M396 209.588L406 161.588L391.059 117L277.882 201L321.412 237.824L382.941 255.824L396.588 239.941L390.706 235.706L400.118 227.118L392.824 221.471L402.235 214.294L396 209.588ZM106 161.588L116 209.588L109.647 214.294L119.059 221.471L111.882 227.118L121.294 235.706L115.412 239.941L128.941 255.824L190.471 237.824L234 201L120.824 117L106 161.588Z" fill="#763D16" stroke="#763D16" stroke-linecap="round" stroke-linejoin="round"/>
<path d="M382.942 255.823L321.413 237.823L340.119 265.941L312.236 320.058L348.942 319.588H403.648L382.942 255.823ZM190.472 237.823L128.942 255.823L108.472 319.588H163.06L199.648 320.058L171.883 265.941L190.472 237.823ZM274.001 268.882L277.883 200.999L295.766 152.646H216.354L234.001 200.999L238.119 268.882L239.531 290.294L239.648 342.999H272.236L272.472 290.294L274.001 268.882Z" fill="#F6851B" stroke="#F6851B" stroke-linecap="round" stroke-linejoin="round"/>
<defs>
<linearGradient id="paint0_linear_1049_936" x1="440.5" y1="583.5" x2="75.5" y2="948.5" gradientUnits="userSpaceOnUse">
<stop stop-color="#FAF5EF"/>
<stop offset="1" stop-color="#EFD9B7"/>
</linearGradient>
</defs>
</svg>
