<svg width="512" height="512" viewBox="0 0 512 512" fill="none" xmlns="http://www.w3.org/2000/svg">
<rect width="512" height="512" fill="#7D00FE"/>
<path d="M351.699 202.602C360.062 202.602 368.237 200.123 375.191 195.479C382.146 190.835 387.567 184.233 390.772 176.509C393.976 168.785 394.819 160.284 393.194 152.081C391.569 143.878 387.549 136.34 381.642 130.421C375.734 124.501 368.205 120.466 360.006 118.824C351.806 117.181 343.303 118.007 335.572 121.195C327.841 124.383 321.229 129.791 316.57 136.736C311.911 143.68 309.416 151.85 309.398 160.213C309.387 165.775 310.472 171.285 312.593 176.428C314.713 181.57 317.827 186.244 321.757 190.181C325.686 194.118 330.353 197.242 335.491 199.373C340.629 201.505 346.137 202.602 351.699 202.602ZM221.97 393.088C201.595 393.071 181.682 387.014 164.747 375.683C147.813 364.352 134.617 348.256 126.828 329.428C119.039 310.6 117.005 289.885 120.985 269.902C124.964 249.919 134.778 231.564 149.185 217.156C163.593 202.748 181.948 192.935 201.931 188.955C221.915 184.976 242.629 187.01 261.457 194.799C280.285 202.588 296.381 215.784 307.712 232.718C319.043 249.653 325.1 269.566 325.118 289.941C325.129 303.49 322.469 316.908 317.29 329.428C312.11 341.947 304.513 353.323 294.932 362.903C285.352 372.484 273.977 380.081 261.457 385.26C248.937 390.44 235.519 393.1 221.97 393.088Z" fill="white"/>
</svg>
