<svg width="512" height="512" viewBox="0 0 512 512" fill="none" xmlns="http://www.w3.org/2000/svg">
<rect width="512" height="512" fill="#FF0420"/>
<path d="M181.35 323.994C166.093 323.994 153.6 320.41 143.872 313.242C134.246 305.971 129.434 295.526 129.434 282.112C129.434 279.245 129.741 275.866 130.355 271.77C131.994 262.554 134.349 251.494 137.421 238.49C146.125 203.264 168.653 185.651 204.902 185.651C214.733 185.651 223.642 187.29 231.424 190.669C239.206 193.843 245.35 198.758 249.856 205.312C254.362 211.763 256.614 219.443 256.614 228.352C256.614 231.014 256.307 234.394 255.693 238.49C253.747 249.856 251.494 261.018 248.73 271.77C244.224 289.28 236.544 302.49 225.485 311.194C214.528 319.795 199.782 323.994 181.35 323.994ZM184.115 296.346C191.283 296.346 197.325 294.195 202.342 289.997C207.462 285.798 211.149 279.347 213.299 270.541C216.269 258.458 218.522 248.013 220.058 239.002C220.57 236.339 220.877 233.574 220.877 230.707C220.877 219.034 214.835 213.197 202.65 213.197C195.482 213.197 189.338 215.347 184.218 219.546C179.2 223.744 175.616 230.195 173.466 239.002C171.11 247.603 168.858 258.048 166.502 270.541C165.99 273.101 165.683 275.763 165.683 278.63C165.581 290.509 171.827 296.346 184.115 296.346Z" fill="white"/>
<path d="M265.523 322.15C264.09 322.15 263.066 321.741 262.246 320.819C261.632 319.795 261.427 318.669 261.632 317.338L288.154 192.41C288.358 190.976 289.075 189.85 290.304 188.928C291.43 188.006 292.659 187.597 293.99 187.597H345.088C359.322 187.597 370.688 190.566 379.29 196.403C387.994 202.342 392.397 210.842 392.397 222.003C392.397 225.178 391.987 228.557 391.27 232.038C388.096 246.784 381.645 257.638 371.814 264.704C362.189 271.77 348.979 275.251 332.186 275.251H306.278L297.472 317.338C297.165 318.771 296.55 319.898 295.322 320.819C294.195 321.741 292.966 322.15 291.635 322.15H265.523ZM333.517 248.73C338.944 248.73 343.552 247.296 347.546 244.326C351.642 241.357 354.304 237.158 355.635 231.629C356.045 229.478 356.25 227.533 356.25 225.894C356.25 222.208 355.123 219.341 352.973 217.395C350.822 215.347 347.034 214.323 341.811 214.323H318.771L311.501 248.73H333.517Z" fill="white"/>
</svg>
