<svg width="512" height="512" viewBox="0 0 512 512" fill="none" xmlns="http://www.w3.org/2000/svg">
<rect width="512" height="512" fill="white"/>
<path fill-rule="evenodd" clip-rule="evenodd" d="M178.277 133.329C184.97 125.7 191.071 119.19 196.898 113.738C98.401 110.541 127.073 182.298 94.9764 255.221C58.0156 339.205 99.3253 371.21 160.881 381.182C152.349 371.034 145.383 359.424 140.08 346.893C100.172 296.257 116.234 204.007 178.277 133.329Z" fill="#B3D234"/>
<path fill-rule="evenodd" clip-rule="evenodd" d="M415.285 222.79C406.12 248.804 389.299 277.995 365.521 306.725C346.987 329.111 326.381 346.742 305.113 359.508C280.528 375.56 250.027 385.032 215.926 385.032C196.838 385.032 178.071 383.963 160.879 381.179C171.037 393.249 183.383 403.27 197.743 410.262C286.793 453.661 292.417 373.04 386.633 332.131C439.54 309.157 439.734 264.248 415.285 222.79Z" fill="#0095D9"/>
<path fill-rule="evenodd" clip-rule="evenodd" d="M305.083 138.893C318.217 141.305 330.68 145.659 341.839 152.013C371.747 169.064 398.988 195.157 415.284 222.789C431.327 177.252 423.855 141.452 388.753 134.971C350.177 127.862 320.017 125.577 291.034 105.182C255.338 80.06 224.049 88.3456 196.895 113.742C198.812 113.801 200.768 113.889 202.782 114.007C240.453 116.242 276.402 123.636 305.083 138.893Z" fill="#EEE809"/>
<path fill-rule="evenodd" clip-rule="evenodd" d="M178.277 133.329C116.234 204.007 100.172 296.257 140.08 346.893C122.159 304.503 123.405 251.633 148.661 209.42C182.285 153.215 249.727 128.711 305.086 138.899C276.404 123.632 240.455 116.248 202.794 114.003C200.77 113.885 198.815 113.807 196.898 113.738C191.07 119.19 184.97 125.701 178.277 133.329Z" fill="#51B849"/>
<path fill-rule="evenodd" clip-rule="evenodd" d="M341.837 152.017C330.678 145.653 318.215 141.309 305.081 138.897C342.849 158.989 367.979 192.749 367.697 246.522C367.444 293.177 343.53 334.409 305.11 359.511C326.378 346.744 346.994 329.114 365.518 306.728C389.305 277.998 406.117 248.807 415.282 222.793C398.986 195.161 371.744 169.059 341.837 152.017Z" fill="#00845D"/>
<path fill-rule="evenodd" clip-rule="evenodd" d="M298.869 333.945C256.226 361.557 199.369 349.242 171.865 306.431C144.361 263.62 157.962 208.494 199.262 178.901C245.446 145.817 304.677 158.868 326.266 206.415C347.32 252.775 341.502 306.333 298.869 333.945ZM305.086 138.894C249.727 128.716 182.285 153.21 148.661 209.415C123.405 251.628 122.15 304.509 140.08 346.888C145.383 359.42 152.339 371.039 160.881 381.188C178.072 383.973 196.84 385.032 215.919 385.032C250.029 385.032 280.529 375.559 305.105 359.508C343.535 334.416 367.449 293.174 367.692 246.519C367.984 192.746 342.844 158.986 305.086 138.894Z" fill="#005121"/>
</svg>
