<svg width="512" height="512" viewBox="0 0 512 512" fill="none" xmlns="http://www.w3.org/2000/svg">
<rect y="512" width="512" height="512" transform="rotate(-90 0 512)" fill="#AB9FF2"/>
<path fill-rule="evenodd" clip-rule="evenodd" d="M225.722 321.221C208.553 347.531 179.782 380.828 141.5 380.828C123.402 380.828 106.001 373.379 106 341.016C105.999 258.593 218.527 131.002 322.936 131C382.331 130.999 406 172.209 406 219.007C406 279.076 367.021 347.763 328.275 347.763C315.978 347.763 309.945 341.01 309.945 330.303C309.945 327.509 310.408 324.481 311.338 321.221C298.111 343.804 272.59 364.763 248.692 364.763C231.29 364.763 222.474 353.818 222.474 338.45C222.474 332.862 223.634 327.043 225.722 321.221ZM303.219 194.374C293.768 194.39 287.325 202.42 287.345 213.875C287.365 225.33 293.838 233.566 303.288 233.55C312.511 233.533 318.951 225.274 318.931 213.819C318.911 202.364 312.442 194.357 303.219 194.374ZM353.351 194.319C343.9 194.336 337.457 202.365 337.477 213.82C337.498 225.275 343.967 233.511 353.421 233.495C362.643 233.479 369.083 225.22 369.063 213.764C369.043 202.31 362.574 194.303 353.351 194.319Z" fill="white"/>
</svg>
