<svg width="512" height="512" viewBox="0 0 512 512" fill="none" xmlns="http://www.w3.org/2000/svg">
<circle cx="256" cy="256" r="256" fill="#E6007A"/>
<path d="M255.861 151.274C291.839 151.274 321.004 134.311 321.004 113.387C321.004 92.4626 291.839 75.5 255.861 75.5C219.884 75.5 190.718 92.4626 190.718 113.387C190.718 134.311 219.884 151.274 255.861 151.274Z" fill="white"/>
<path d="M255.861 436.745C291.839 436.745 321.004 419.782 321.004 398.858C321.004 377.934 291.839 360.971 255.861 360.971C219.884 360.971 190.718 377.934 190.718 398.858C190.718 419.782 219.884 436.745 255.861 436.745Z" fill="white"/>
<path d="M165.08 203.718C183.069 172.562 182.952 138.818 164.819 128.348C146.687 117.879 117.404 134.649 99.4155 165.806C81.4268 196.962 81.5436 230.707 99.6763 241.176C117.809 251.645 147.091 234.875 165.08 203.718Z" fill="white"/>
<path d="M412.279 346.437C430.267 315.28 430.161 281.542 412.04 271.08C393.92 260.617 364.647 277.393 346.659 308.55C328.67 339.706 328.777 373.445 346.897 383.907C365.018 394.369 394.29 377.593 412.279 346.437Z" fill="white"/>
<path d="M164.828 383.899C182.961 373.429 183.078 339.685 165.089 308.529C147.1 277.372 117.818 260.602 99.6854 271.071C81.5526 281.54 81.4359 315.285 99.4246 346.441C117.413 377.598 146.696 394.368 164.828 383.899Z" fill="white"/>
<path d="M412.055 241.184C430.176 230.722 430.283 196.983 412.294 165.827C394.305 134.67 365.033 117.894 346.912 128.357C328.792 138.819 328.685 172.557 346.674 203.714C364.663 234.87 393.935 251.646 412.055 241.184Z" fill="white"/>
</svg>
