<svg width="512" height="512" viewBox="0 0 512 512" fill="none"
  xmlns="http://www.w3.org/2000/svg">
  <rect y="512" width="512" height="512" transform="rotate(-90 0 512)" fill="url(#paint0_linear_1437_32)"/>
  <path d="M250.371 167.847C245.104 170.918 241.72 176.779 241.347 183.477L241.827 232.447L241.213 265.156L242.009 313.407C241.984 319.504 238.6 325.365 232.985 329.036L199.806 347.251C194.539 350.322 187.431 350.527 181.591 347.155L148.944 328.306C143.702 325.28 140.054 319.667 139.753 312.58L139.612 275.127C139.638 269.03 143.021 263.169 148.635 259.497L181.815 241.282C187.083 238.212 194.189 238.007 200.03 241.379L221.595 253.83L221.535 220.732L199.371 207.935C194.129 204.909 187.444 204.556 181.156 207.839L120.347 242.264C115.08 245.334 111.696 251.195 111.324 257.893L111.852 329.434C111.479 336.132 115.202 341.788 120.369 344.771L181.694 380.177C186.936 383.203 193.621 383.557 199.909 380.274L261.108 345.173C266.376 342.102 269.759 336.241 270.132 329.543L269.935 281.638L269.875 248.54L269.678 200.636C269.704 194.539 273.088 188.678 278.702 185.006L311.208 166.402C316.475 163.331 323.582 163.126 329.423 166.498L362.07 185.347C367.311 188.373 370.959 193.986 371.26 201.073L371.792 237.85C371.767 243.947 368.383 249.808 362.768 253.48L330.219 272.159C324.952 275.23 317.845 275.434 312.005 272.063L291.113 260.001L291.174 293.099L312.739 305.549C317.98 308.575 324.665 308.928 330.953 305.646L392.152 270.545C397.42 267.474 400.804 261.613 401.176 254.915L400.975 184.364C401.001 178.268 397.625 172.01 391.784 168.638L329.785 132.843C324.543 129.816 317.858 129.464 311.57 132.746L250.371 167.847Z" fill="white"/>
  <defs>
    <linearGradient id="paint0_linear_1437_32" x1="440.5" y1="583.5" x2="75.5" y2="948.5" gradientUnits="userSpaceOnUse">
      <stop stop-color="#962FCE"/>
      <stop offset="1" stop-color="#7B3FE4"/>
    </linearGradient>
  </defs>
</svg>
