<svg width="512" height="512" viewBox="0 0 512 512" fill="none" xmlns="http://www.w3.org/2000/svg">
<rect width="512" height="512" fill="#8247E5"/>
<path d="M339.822 200.247C333.676 196.722 325.818 196.722 318.866 200.247L269.903 229.257L236.656 247.69L188.599 276.599C182.454 280.125 174.596 280.125 167.644 276.599L130.065 253.734C123.919 250.208 119.587 243.157 119.587 235.301V191.383C119.587 184.332 123.113 177.382 130.065 172.95L167.644 150.991C173.79 147.466 181.648 147.466 188.599 150.991L226.178 173.856C232.324 177.382 236.656 184.433 236.656 192.29V221.3L269.903 201.96V172.144C269.903 165.093 266.377 158.143 259.425 153.711L189.506 112.413C183.36 108.887 175.502 108.887 168.551 112.413L96.9187 154.618C89.9673 158.143 86.4414 165.194 86.4414 172.144V254.64C86.4414 261.691 89.9673 268.642 96.9187 273.074L167.744 314.372C173.89 317.898 181.749 317.898 188.7 314.372L236.757 286.269L270.004 266.929L318.06 238.826C324.206 235.301 332.064 235.301 339.016 238.826L376.594 260.785C382.74 264.31 387.072 271.361 387.072 279.218V323.135C387.072 330.187 383.546 337.136 376.594 341.568L339.922 363.527C333.777 367.053 325.919 367.053 318.967 363.527L281.287 341.568C275.142 338.043 270.809 330.992 270.809 323.135V295.032L237.563 314.372V343.382C237.563 350.432 241.089 357.383 248.04 361.815L318.866 403.114C325.012 406.639 332.87 406.639 339.822 403.114L410.647 361.815C416.793 358.29 421.125 351.238 421.125 343.382V259.979C421.125 252.928 417.599 245.978 410.647 241.546L339.822 200.247Z" fill="white"/>
</svg>
