<svg width="512" height="512" viewBox="0 0 512 512" fill="none" xmlns="http://www.w3.org/2000/svg">
<rect y="512" width="512" height="512" transform="rotate(-90 0 512)" fill="black"/>
<path d="M410.147 250.683C410.147 237.898 399.75 227.501 386.967 227.501H338.289V310.957H312.79V214.75C312.79 207.703 318.492 202 325.54 202H386.967C413.856 202 435.645 223.791 435.645 250.683V310.957H410.147V250.683Z" fill="#F73196"/>
<path d="M300.04 202H274.542V310.957H300.04V202Z" fill="#F73196"/>
<path d="M225.864 310.957C245.706 310.957 261.793 294.869 261.793 275.024V237.933C261.793 218.089 245.706 202 225.864 202H125.679C98.7895 202 77 223.791 77 250.683V310.957H102.498V250.683C102.498 237.898 112.895 227.501 125.679 227.501H225.864C231.612 227.501 236.295 232.183 236.295 237.933V275.024C236.295 280.774 231.612 285.456 225.864 285.456H179.503C173.754 285.456 169.072 280.774 169.072 275.024C169.072 269.275 173.754 264.592 179.503 264.592H224.705V239.092H179.503C159.661 239.092 143.574 255.18 143.574 275.024C143.574 294.869 159.661 310.957 179.503 310.957H225.864Z" fill="#F73196"/>
</svg>
