<svg width="512" height="512" viewBox="0 0 512 512" fill="none" xmlns="http://www.w3.org/2000/svg">
<rect width="512" height="512" fill="white"/>
<path d="M318.942 275.174L277.089 317.212C275.386 318.927 274.43 321.247 274.43 323.665C274.43 326.083 275.386 328.403 277.089 330.118L309.071 362.169C311.72 364.758 315.276 366.208 318.978 366.208C322.681 366.208 326.236 364.758 328.885 362.169L426.912 265.346C428.207 264.067 429.235 262.544 429.937 260.864C430.639 259.184 431 257.382 431 255.561C431 253.74 430.639 251.938 429.937 250.258C429.235 248.578 428.207 247.055 426.912 245.776L328.894 149.039C326.246 146.45 322.69 145 318.987 145C315.285 145 311.729 146.45 309.081 149.039L277.098 181.09C275.395 182.805 274.439 185.125 274.439 187.543C274.439 189.961 275.395 192.281 277.098 193.996L318.951 236.034C321.541 238.592 323.597 241.639 325 244.999C326.403 248.359 327.125 251.964 327.124 255.606C327.123 259.247 326.399 262.852 324.995 266.211C323.59 269.571 321.533 272.617 318.942 275.174Z" fill="#0A6E5C"/>
<path d="M234.933 317.212L193.081 275.174C190.491 272.617 188.435 269.57 187.032 266.211C185.628 262.852 184.906 259.247 184.906 255.606C184.906 251.965 185.628 248.361 187.032 245.002C188.435 241.642 190.491 238.596 193.081 236.038L234.929 193.996C236.632 192.281 237.588 189.961 237.588 187.543C237.588 185.125 236.632 182.805 234.929 181.09L202.947 149.039C200.298 146.45 196.742 145 193.04 145C189.337 145 185.782 146.45 183.133 149.039L85.0877 245.776C83.7929 247.055 82.7648 248.578 82.063 250.258C81.3613 251.938 81 253.74 81 255.561C81 257.382 81.3613 259.184 82.063 260.864C82.7648 262.544 83.7929 264.067 85.0877 265.346L183.138 362.169C185.786 364.758 189.342 366.208 193.044 366.208C196.747 366.208 200.303 364.758 202.951 362.169L234.933 330.118C236.637 328.403 237.593 326.083 237.593 323.665C237.593 321.247 236.637 318.927 234.933 317.212Z" fill="#21BF73"/>
<path d="M200.751 255.604C200.751 258.604 201.941 261.481 204.06 263.603L248.016 307.592C250.136 309.712 253.011 310.903 256.009 310.903C259.007 310.903 261.882 309.712 264.002 307.592L307.968 263.603C310.086 261.481 311.277 258.604 311.277 255.604C311.277 252.604 310.086 249.727 307.968 247.605L264.007 203.612C261.886 201.491 259.011 200.3 256.014 200.3C253.016 200.3 250.141 201.491 248.02 203.612L204.06 247.605C201.941 249.727 200.751 252.604 200.751 255.604Z" fill="#21BF73"/>
</svg>
