<svg width="512" height="512" viewBox="0 0 512 512" fill="none" xmlns="http://www.w3.org/2000/svg">
<rect width="512" height="512" fill="#2D29D6"/>
<path d="M404.194 260.261L292.28 372.175C289.954 374.502 285.869 374.502 283.542 372.175L208.743 297.35C205.254 293.887 203.36 289.261 203.36 284.365C203.36 279.468 205.281 274.843 208.743 271.38L211.962 268.16C212.206 267.89 212.558 267.755 212.882 267.755C213.234 267.755 213.558 267.89 213.802 268.133L284.489 338.848C286.329 340.66 289.494 340.66 291.333 338.848L370.839 259.315C372.706 257.448 372.706 254.364 370.839 252.498L291.333 172.965C289.494 171.152 286.329 171.125 284.516 172.965L113.683 343.744C112.357 345.069 110.518 345.421 108.786 344.718C107.055 343.987 106 342.391 106 340.525V171.233C106 169.367 107.055 167.771 108.786 167.067C110.491 166.337 112.384 166.716 113.71 168.041L160.077 214.408C163.54 217.871 165.46 222.497 165.46 227.394C165.46 232.29 163.54 236.943 160.077 240.405L156.885 243.597C156.425 244.057 155.532 244.057 155.045 243.597L134.675 223.228C133.782 222.334 132.619 222.334 131.862 222.66C131.077 222.984 130.239 223.795 130.239 225.067V286.665C130.239 287.935 131.077 288.748 131.862 289.072C132.619 289.369 133.782 289.396 134.675 288.504L283.542 139.664C285.761 137.445 290.062 137.445 292.28 139.664L404.194 251.577C406.602 253.958 406.602 257.881 404.194 260.288V260.261Z" fill="white"/>
</svg>
