<svg width="512" height="512" viewBox="0 0 512 512" fill="none" xmlns="http://www.w3.org/2000/svg">
<rect width="512" height="512" fill="url(#paint0_linear_1046_2158)"/>
<path d="M256 96.7658C343.784 96.7658 415.234 168.185 415.234 256C415.234 343.784 343.815 415.234 256 415.234C168.216 415.234 96.7658 343.815 96.7658 256C96.7658 168.185 168.185 96.7658 256 96.7658ZM256 81C159.356 81 81 159.356 81 256C81 352.644 159.356 431 256 431C352.644 431 431 352.644 431 256C431 159.356 352.644 81 256 81Z" fill="white"/>
<path d="M256.002 134.098C323.227 134.098 377.903 188.774 377.903 255.999C377.903 323.224 323.195 377.869 256.002 377.869C188.808 377.869 134.101 323.193 134.101 255.968C134.101 188.742 188.776 134.098 256.002 134.098ZM256.002 122.022C182.029 122.022 122.056 181.995 122.056 255.968C122.056 329.941 182.029 389.914 256.002 389.914C329.975 389.914 389.948 329.941 389.948 255.968C389.948 181.995 329.975 122.022 256.002 122.022Z" fill="white"/>
<path d="M256.001 169.602C303.614 169.602 342.366 208.355 342.366 255.967C342.366 303.58 303.614 342.332 256.001 342.332C208.389 342.332 169.636 303.58 169.636 255.967C169.636 208.355 208.357 169.602 256.001 169.602ZM256.001 161.057C203.596 161.057 161.091 203.562 161.091 255.967C161.091 308.373 203.596 350.877 256.001 350.877C308.407 350.877 350.911 308.373 350.911 255.967C350.911 203.562 308.407 161.057 256.001 161.057Z" fill="white"/>
<path d="M256.001 283.999C271.482 283.999 284.033 271.449 284.033 255.967C284.033 240.486 271.482 227.936 256.001 227.936C240.52 227.936 227.97 240.486 227.97 255.967C227.97 271.449 240.52 283.999 256.001 283.999Z" fill="white"/>
<path d="M332.558 224.122C341.823 224.122 349.333 216.611 349.333 207.347C349.333 198.082 341.823 190.572 332.558 190.572C323.294 190.572 315.784 198.082 315.784 207.347C315.784 216.611 323.294 224.122 332.558 224.122Z" fill="white"/>
<path d="M211.415 390.355C220.679 390.355 228.189 382.845 228.189 373.58C228.189 364.316 220.679 356.805 211.415 356.805C202.15 356.805 194.64 364.316 194.64 373.58C194.64 382.845 202.15 390.355 211.415 390.355Z" fill="white"/>
<path d="M144.315 147.153C153.579 147.153 161.089 139.642 161.089 130.378C161.089 121.113 153.579 113.603 144.315 113.603C135.05 113.603 127.54 121.113 127.54 130.378C127.54 139.642 135.05 147.153 144.315 147.153Z" fill="white"/>
<defs>
<linearGradient id="paint0_linear_1046_2158" x1="440.5" y1="71.4999" x2="75.5" y2="436.5" gradientUnits="userSpaceOnUse">
<stop stop-color="#50AAEB"/>
<stop offset="1" stop-color="#377BDA"/>
</linearGradient>
</defs>
</svg>
