<svg width="512" height="512" viewBox="0 0 512 512" fill="none" xmlns="http://www.w3.org/2000/svg">
<rect width="512" height="512" fill="black"/>
<path d="M159.875 316.225C161.637 314.464 164.059 313.436 166.628 313.436H399.6C403.857 313.436 405.985 318.574 402.976 321.584L356.954 367.605C355.193 369.367 352.77 370.394 350.201 370.394H117.23C112.973 370.394 110.844 365.256 113.854 362.247L159.875 316.225Z" fill="url(#paint0_linear_1099_44)"/>
<path d="M159.876 144.393C161.711 142.632 164.133 141.604 166.628 141.604H399.6C403.857 141.604 405.986 146.742 402.976 149.752L356.954 195.773C355.193 197.535 352.771 198.563 350.202 198.563H117.23C112.973 198.563 110.845 193.425 113.854 190.415L159.876 144.393Z" fill="url(#paint1_linear_1099_44)"/>
<path d="M356.954 229.758C355.193 227.996 352.77 226.969 350.201 226.969H117.23C112.973 226.969 110.844 232.107 113.854 235.116L159.875 281.138C161.637 282.899 164.059 283.927 166.628 283.927H399.6C403.857 283.927 405.985 278.789 402.976 275.779L356.954 229.758Z" fill="url(#paint2_linear_1099_44)"/>
<defs>
<linearGradient id="paint0_linear_1099_44" x1="377.344" y1="-659.03" x2="-235.966" y2="-366.574" gradientUnits="userSpaceOnUse">
<stop stop-color="#00FFA3"/>
<stop offset="1" stop-color="#DC1FFF"/>
</linearGradient>
<linearGradient id="paint1_linear_1099_44" x1="306.844" y1="-116.673" x2="-306.467" y2="175.783" gradientUnits="userSpaceOnUse">
<stop stop-color="#00FFA3"/>
<stop offset="1" stop-color="#DC1FFF"/>
</linearGradient>
<linearGradient id="paint2_linear_1099_44" x1="341.869" y1="95.5915" x2="180.635" y2="404.421" gradientUnits="userSpaceOnUse">
<stop stop-color="#00FFA3"/>
<stop offset="1" stop-color="#DC1FFF"/>
</linearGradient>
</defs>
</svg>
