<svg width="512" height="512" viewBox="0 0 512 512" fill="none"
  xmlns="http://www.w3.org/2000/svg">
  <rect y="512" width="512" height="512" transform="rotate(-90 0 512)" fill="url(#paint0_linear_1070_5)"/>
  <path d="M258.301 394.67C261.478 394.67 264.053 397.205 264.053 400.334C264.053 403.463 261.478 406 258.301 406C255.124 406 252.548 403.463 252.548 400.334C252.548 397.205 255.124 394.67 258.301 394.67ZM252.052 124.044C254.863 124.275 257.133 126.396 257.513 129.146L264.355 178.648C266.653 195.002 286.461 202.088 298.688 190.974L367.238 128.845C368.891 127.347 371.466 127.45 372.989 129.077C374.387 130.57 374.429 132.855 373.088 134.396L313.312 203.058C302.307 215.676 310.427 235.38 327.202 236.786L379.944 241.849C382.571 242.101 384.493 244.4 384.236 246.984C384.025 249.116 382.376 250.838 380.226 251.171L324.806 259.789C308.714 261.973 301.427 280.947 311.894 293.274L331.377 316.146C332.947 317.989 332.701 320.735 330.827 322.279C329.24 323.588 326.944 323.639 325.298 322.401L301.28 304.339C288.32 294.633 269.637 302.882 268.268 318.946L262.975 381.593C262.756 384.181 260.447 386.105 257.817 385.889C255.585 385.707 253.781 384.023 253.478 381.839L245.085 321.324C242.835 304.97 223.028 297.884 210.752 308.998L137.829 375.118C136.319 376.487 133.968 376.392 132.577 374.907C131.3 373.544 131.262 371.459 132.486 370.051L196.128 296.914C207.133 284.296 199.063 264.593 182.287 263.186L129.533 258.123C126.906 257.871 124.984 255.571 125.241 252.986C125.452 250.855 127.101 249.134 129.251 248.799L184.634 240.183C200.726 237.999 208.062 219.025 197.596 206.698L184.333 191.129C182.387 188.843 182.691 185.438 185.014 183.524C186.983 181.901 189.832 181.838 191.872 183.374L208.16 195.633C221.12 205.339 239.803 197.09 241.172 181.026L245.554 129.451C245.831 126.192 248.74 123.772 252.052 124.044ZM111.752 247.197C114.929 247.197 117.504 249.734 117.504 252.862C117.504 255.991 114.929 258.527 111.752 258.527C108.575 258.527 106 255.991 106 252.862C106 249.734 108.575 247.197 111.752 247.197ZM400.247 241.445C403.424 241.445 406 243.981 406 247.109C406 250.238 403.424 252.775 400.247 252.775C397.071 252.775 394.496 250.238 394.496 247.109C394.496 243.981 397.071 241.445 400.247 241.445ZM251.221 106C254.398 106 256.974 108.536 256.974 111.665C256.974 114.794 254.398 117.331 251.221 117.331C248.045 117.331 245.469 114.794 245.469 111.665C245.469 108.536 248.045 106 251.221 106Z" fill="url(#paint1_linear_1070_5)"/>
  <g filter="url(#filter0_f_1070_5)">
    <circle cx="253.846" cy="249.146" r="53.8512" fill="url(#paint2_radial_1070_5)"/>
  </g>
  <defs>
    <filter id="filter0_f_1070_5" x="194.995" y="190.295" width="117.702" height="117.702" filterUnits="userSpaceOnUse" color-interpolation-filters="sRGB">
      <feFlood flood-opacity="0" result="BackgroundImageFix"/>
      <feBlend mode="normal" in="SourceGraphic" in2="BackgroundImageFix" result="shape"/>
      <feGaussianBlur stdDeviation="2.5" result="effect1_foregroundBlur_1070_5"/>
    </filter>
    <linearGradient id="paint0_linear_1070_5" x1="440.5" y1="583.5" x2="75.5" y2="948.5" gradientUnits="userSpaceOnUse">
      <stop stop-color="#2A2A2C"/>
      <stop offset="1" stop-color="#1B1A1F"/>
    </linearGradient>
    <linearGradient id="paint1_linear_1070_5" x1="194.316" y1="194.316" x2="312.005" y2="256" gradientUnits="userSpaceOnUse">
      <stop stop-color="#E5A93B"/>
      <stop offset="1" stop-color="#E94F34"/>
    </linearGradient>
    <radialGradient id="paint2_radial_1070_5" cx="0" cy="0" r="1" gradientUnits="userSpaceOnUse" gradientTransform="translate(236.222 231.522) rotate(45) scale(69.7876)">
      <stop stop-color="#F4BA3A"/>
      <stop offset="1" stop-color="#E85833"/>
    </radialGradient>
  </defs>
</svg>
