<svg width="512" height="512" viewBox="0 0 512 512" fill="none"
  xmlns="http://www.w3.org/2000/svg">
  <g clip-path="url(#clip0_1437_24)">
    <rect width="512" height="512" fill="white"/>
    <path d="M256.673 154.453C313.25 154.967 357.902 200.691 357.102 257.25C356.299 313.829 310.185 358.463 253.834 357.21C198.122 355.976 154.433 311.238 154.578 255.584C154.722 199.046 200.238 153.939 256.673 154.453Z" fill="#C74AE3"/>
    <path d="M388.551 472.262C300.104 543.438 142.058 517.966 60.1954 422.179C-29.8555 316.813 -19.3401 158.732 83.9393 65.1255C185.962 -27.3298 343.802 -22.2311 440.025 76.6387C533.429 172.61 537.566 331.841 450.148 421.707C429.738 400.344 409.308 378.942 387.892 356.532C421.035 310.234 431.303 257.253 411.491 200.365C381.906 115.434 288.193 70.615 202.73 99.5625C118.276 128.16 72.0481 219.012 98.4217 304.539C125.085 391.012 215.528 440.128 302.328 413.483C319.608 408.179 329.197 411.283 340.368 424.133C355.14 441.156 372.236 456.164 388.551 472.262Z" fill="#00E8B5"/>
  </g>
  <defs>
    <clipPath id="clip0_1437_24">
      <rect width="512" height="512" rx="256" fill="white"/>
    </clipPath>
  </defs>
</svg>
