<svg width="512" height="512" viewBox="0 0 512 512" fill="none" xmlns="http://www.w3.org/2000/svg">
<rect width="512" height="512" fill="black"/>
<path d="M141.614 270.767C140.97 265.853 140.646 260.902 140.644 255.946C140.67 236.172 145.857 216.747 155.689 199.597C165.522 182.446 179.66 168.165 196.703 158.167C213.745 148.169 233.102 142.802 252.854 142.597C272.607 142.392 292.07 147.357 309.316 156.999L335.242 143.773C314.575 128.756 290.163 119.753 264.704 117.757C239.245 115.761 213.73 120.85 190.98 132.463C168.23 144.075 149.13 161.758 135.791 183.558C122.452 205.357 115.394 230.424 115.397 255.988C115.397 259.518 115.531 263.035 115.799 266.538C116.174 271.499 115.075 276.46 112.64 280.797C110.205 285.133 106.543 288.653 102.115 290.911L90.2188 296.984V325.308L417.563 158.33V130.02L141.614 270.767Z" fill="white"/>
<path d="M417.563 186.666L159.161 318.374L90.2188 353.561V381.857L366.237 241.068C366.881 246.015 367.205 250.997 367.207 255.986C367.194 275.783 362.01 295.233 352.167 312.404C342.325 329.575 328.168 343.871 311.1 353.872C294.033 363.873 274.649 369.231 254.874 369.415C235.098 369.599 215.618 364.601 198.369 354.919L196.984 355.654L172.526 368.132C193.188 383.148 217.595 392.155 243.05 394.155C268.505 396.156 294.017 391.073 316.768 379.469C339.518 367.864 358.621 350.19 371.965 328.398C385.31 306.607 392.376 281.546 392.385 255.986C392.385 252.423 392.246 248.86 391.983 245.338C391.609 240.379 392.706 235.42 395.138 231.084C397.57 226.748 401.228 223.227 405.652 220.965L417.563 214.893V186.666Z" fill="white"/>
</svg>
