<svg width="512" height="512" viewBox="0 0 512 512" fill="none" xmlns="http://www.w3.org/2000/svg">
<rect width="512" height="512" fill="#635BFF"/>
<path fill-rule="evenodd" clip-rule="evenodd" d="M360.453 312.8C360.453 372.2 314.197 406 245.714 406C214.984 405.977 184.586 399.646 156.407 387.4V308.8C184.04 323.8 218.482 335 245.714 335C264.137 335 276.351 330.2 276.351 315C276.351 275.4 151 290.2 151 199C151 140.8 196.655 106 263.536 106C290.769 106 318.002 110 345.435 121V198.6C320.083 185.274 291.977 178.016 263.336 177.4C246.115 177.4 234.501 182.4 234.501 195.4C234.501 232.4 360.453 214.8 360.453 313V312.8Z" fill="white"/>
</svg>
