<svg width="512" height="512" viewBox="0 0 512 512" fill="none" xmlns="http://www.w3.org/2000/svg">
<rect y="512" width="512" height="512" transform="rotate(-90 0 512)" fill="white"/>
<path fill-rule="evenodd" clip-rule="evenodd" d="M382.211 144.418C379.353 141.561 375.47 139.876 371.367 139.876H364.993C345.505 139.95 302.645 138.046 265.573 109.186C260.078 104.938 252.384 104.938 246.89 109.186C209.817 138.046 166.958 139.95 147.543 139.876H141.242C137.139 139.876 133.182 141.561 130.325 144.418C127.468 147.348 125.929 151.303 126.003 155.331C126.808 207.044 129.006 244.326 133.402 272.819C136.699 294.134 141.168 310.614 147.762 324.238C152.598 334.419 158.679 342.989 165.712 350.021C176.263 360.715 188.352 368.113 201.758 375.878C204.198 377.277 206.69 378.691 209.242 380.138C220.716 386.645 233.384 393.831 247.769 403.419C252.898 406.86 259.565 406.86 264.693 403.419C278.861 393.942 291.363 386.844 302.734 380.388L302.77 380.368C308.086 377.349 313.154 374.471 318.03 371.556C329.46 364.744 339.936 357.566 349.094 347.677C355.908 340.206 361.696 331.417 366.385 320.796C373.345 304.901 377.961 285.272 381.038 258.829C384.189 232.387 385.874 198.987 386.606 155.331C386.68 151.303 385.067 147.348 382.211 144.418ZM349.021 268.204C346.018 287.688 342.061 301.238 337.299 311.054C333.709 318.452 329.826 323.799 325.063 328.706C317.957 335.885 308.432 342.037 295.538 349.435C293.009 350.894 290.36 352.401 287.591 353.974L287.561 353.991C278.384 359.206 267.908 365.16 256.267 372.582C244.396 365.028 233.757 359.008 224.464 353.75L224.434 353.733C219.23 350.788 214.448 348.082 210.111 345.48C199.633 339.181 191.941 333.688 185.86 327.021C181.318 322.041 177.508 316.401 174.064 308.564C168.863 296.771 164.686 279.998 161.755 255.24C159.191 233.486 157.58 205.799 156.774 170.201C179.56 169.468 218.83 165.073 256.267 139.95C293.706 165.147 332.976 169.541 355.835 170.201C354.81 213.27 352.611 244.912 349.021 268.204Z" fill="#0B65C6"/>
</svg>
