<svg width="512" height="512" viewBox="0 0 512 512" fill="none" xmlns="http://www.w3.org/2000/svg">
<rect y="512" width="512" height="512" transform="rotate(-90 0 512)" fill="white"/>
<path d="M207.567 136.393C203.919 135.831 203.764 135.772 205.491 135.52C208.789 135.016 216.551 135.695 221.906 136.956C234.402 139.905 245.773 147.473 257.92 160.92L261.141 164.49L265.759 163.753C285.202 160.648 304.955 163.112 321.506 170.699C326.066 172.795 333.245 176.947 334.119 178.014C334.429 178.364 334.953 180.537 335.283 182.885C336.525 190.996 335.923 197.185 333.42 201.823C332.062 204.345 331.984 205.141 332.896 207.314C333.332 208.209 334.011 208.964 334.855 209.492C335.699 210.02 336.674 210.301 337.669 210.302C341.783 210.302 346.207 203.705 348.244 194.508L349.059 190.84L350.67 192.664C359.537 202.638 366.484 216.221 367.668 225.884L367.978 228.406L366.503 226.116C364.36 222.61 361.48 219.61 358.063 217.327C352.125 213.426 345.838 212.088 329.229 211.214C314.21 210.438 305.711 209.158 297.29 206.422C282.951 201.765 275.733 195.594 258.696 173.396C251.129 163.52 246.472 158.067 241.815 153.682C231.24 143.689 220.859 138.45 207.567 136.413V136.393Z" fill="#E1005F"/>
<path d="M337.534 158.417C337.902 151.819 338.795 147.454 340.619 143.476C341.018 142.47 341.519 141.508 342.113 140.604C342.21 140.604 341.899 141.768 341.414 143.185C340.095 147.065 339.862 152.343 340.793 158.494C341.958 166.295 342.598 167.42 350.883 175.841C354.784 179.8 359.305 184.767 360.954 186.921L363.942 190.802L360.954 188.027C357.306 184.631 348.924 177.995 347.061 177.044C345.819 176.423 345.625 176.423 344.868 177.18C344.15 177.879 344.014 178.926 343.898 183.894C343.762 191.636 342.695 196.603 340.134 201.551C338.756 204.268 338.543 203.686 339.784 200.639C340.716 198.388 340.813 197.379 340.813 189.89C340.813 174.852 338.989 171.223 328.453 165.053C325.275 163.217 322.011 161.534 318.673 160.008C317.028 159.347 315.433 158.569 313.9 157.679C314.191 157.388 324.475 160.376 328.608 161.948C334.778 164.315 335.787 164.606 336.544 164.335C337.029 164.141 337.281 162.686 337.514 158.417H337.534ZM214.649 184.165C207.257 174.037 202.658 158.494 203.667 146.871L203.958 143.282L205.646 143.573C208.828 144.155 214.281 146.173 216.842 147.725C223.847 151.955 226.893 157.524 229.978 171.844C230.89 176.035 232.074 180.77 232.617 182.4C233.491 184.98 236.828 191.015 239.525 194.935C241.465 197.768 240.185 199.106 235.877 198.718C229.299 198.136 220.393 192.024 214.649 184.165ZM328.53 259.588C293.914 245.753 281.728 233.723 281.728 213.446C281.728 210.458 281.825 208.013 281.961 208.013C282.078 208.013 283.416 208.983 284.93 210.205C291.954 215.794 299.813 218.18 321.584 221.343C334.39 223.206 341.57 224.7 348.225 226.893C369.375 233.859 382.434 247.985 385.558 267.252C386.451 272.841 385.946 283.319 384.452 288.849C383.288 293.215 379.756 301.073 378.825 301.384C378.553 301.481 378.301 300.491 378.243 299.133C377.893 291.915 374.207 284.871 368.036 279.593C361.012 273.598 351.582 268.805 328.53 259.588ZM304.237 265.351C303.83 262.894 303.273 260.463 302.568 258.074L301.675 255.455L303.325 257.298C305.595 259.821 307.4 263.061 308.913 267.388C310.077 270.687 310.194 271.657 310.194 277.013C310.194 282.271 310.038 283.377 308.952 286.326C307.461 290.7 304.961 294.662 301.656 297.891C295.33 304.294 287.2 307.826 275.461 309.3C273.423 309.553 267.486 309.98 262.266 310.251C249.091 310.93 240.418 312.347 232.637 315.063C231.931 315.373 231.175 315.551 230.405 315.587C230.095 315.277 235.411 312.133 239.777 310.038C245.948 307.069 252.099 305.459 265.875 303.188C272.667 302.063 279.71 300.685 281.495 300.142C298.338 295.019 307.011 281.766 304.237 265.351Z" fill="#E1005F"/>
<path d="M320.109 293.37C315.51 283.552 314.443 274.063 316.966 265.215C317.237 264.245 317.664 263.488 317.936 263.488C318.188 263.488 319.294 264.07 320.342 264.788C322.476 266.205 326.706 268.591 338.038 274.723C352.164 282.387 360.236 288.306 365.708 295.097C370.501 301.015 373.469 307.787 374.905 316.014C375.72 320.671 375.235 331.925 374.032 336.621C370.229 351.445 361.42 363.088 348.807 369.879C346.964 370.869 345.314 371.684 345.12 371.684C344.946 371.684 345.625 369.995 346.615 367.919C350.864 359.11 351.349 350.553 348.147 341.026C346.168 335.185 342.171 328.064 334.099 316.014C324.708 302.043 322.418 298.299 320.109 293.37ZM190.065 346.4C202.93 335.612 218.899 327.967 233.471 325.6C240.977 324.637 248.59 324.932 255.999 326.473C265.313 328.84 273.656 334.157 277.983 340.463C282.213 346.653 284.037 352.028 285.939 364.019C286.676 368.734 287.491 373.488 287.724 374.555C289.141 380.765 291.915 385.732 295.33 388.216C300.763 392.174 310.155 392.426 319.372 388.856C320.329 388.415 321.34 388.102 322.379 387.925C322.709 388.254 318.072 391.34 314.812 392.97C310.944 395.026 306.618 396.068 302.238 395.997C293.797 395.997 286.793 391.728 280.933 383.035C278.784 379.354 276.865 375.544 275.189 371.625C269.019 357.635 265.972 353.386 258.812 348.71C252.564 344.635 244.512 343.917 238.458 346.866C230.502 350.747 228.29 360.837 233.995 367.24C236.66 369.992 240.146 371.803 243.93 372.402C245.432 372.608 246.962 372.488 248.414 372.051C249.866 371.614 251.208 370.869 252.347 369.868C253.486 368.867 254.397 367.632 255.017 366.248C255.637 364.864 255.952 363.363 255.941 361.846C255.941 357.635 254.311 355.249 250.217 353.386C244.609 350.883 238.613 353.813 238.633 359.032C238.633 361.264 239.622 362.661 241.873 363.689C243.309 364.33 243.348 364.368 242.164 364.136C237.041 363.068 235.838 356.917 239.952 352.843C244.919 347.953 255.165 350.107 258.677 356.801C260.151 359.614 260.326 365.203 259.045 368.579C256.135 376.146 247.752 380.124 239.215 377.951C233.393 376.476 231.046 374.885 224.041 367.725C211.875 355.268 207.16 352.843 189.619 350.126L186.242 349.602L190.065 346.4Z" fill="#E1005F"/>
<path fill-rule="evenodd" clip-rule="evenodd" d="M132.979 123.451C173.61 172.465 201.61 192.684 204.715 196.953C207.276 200.484 206.306 203.666 201.921 206.15C198.802 207.717 195.407 208.659 191.928 208.925C189.075 208.925 188.086 207.838 188.086 207.838C186.436 206.286 185.505 206.557 177.026 191.597C169.816 180.377 162.52 169.213 155.138 158.106C154.517 157.524 154.537 157.524 175.842 195.42C179.276 203.317 176.521 206.208 176.521 207.334C176.521 209.623 175.881 210.826 173.048 213.989C168.313 219.228 166.198 225.127 164.665 237.332C162.958 251.012 158.146 260.675 144.796 277.226C136.996 286.909 135.715 288.674 133.736 292.594C131.252 297.503 130.573 300.258 130.301 306.448C130.01 313.026 130.573 317.256 132.591 323.523C134.337 329.034 136.2 332.643 140.915 339.9C144.99 346.168 147.318 350.825 147.318 352.649C147.318 354.084 147.59 354.084 153.916 352.668C168.973 349.292 181.217 343.354 188.105 336.039C192.374 331.518 193.363 329.034 193.402 322.844C193.422 318.808 193.286 317.955 192.18 315.626C190.395 311.842 187.135 308.68 179.955 303.79C170.525 297.387 166.489 292.245 165.403 285.162C164.471 279.341 165.538 275.247 170.739 264.4C176.133 253.146 177.472 248.353 178.384 237.041C178.966 229.726 179.761 226.834 181.876 224.506C184.088 222.1 186.068 221.285 191.54 220.548C200.446 219.325 206.092 217.055 210.749 212.786C212.616 211.245 214.122 209.314 215.161 207.128C216.201 204.942 216.748 202.555 216.764 200.135L216.958 196.06L214.688 193.46C206.519 183.991 127.507 116 127.003 116C126.906 116 129.583 119.357 132.979 123.451ZM151.917 313.899C152.807 312.327 153.072 310.477 152.658 308.718C152.245 306.959 151.183 305.421 149.686 304.411C146.775 302.47 142.215 303.402 142.215 305.905C142.215 306.681 142.642 307.244 143.612 307.729C145.242 308.563 145.359 309.495 144.078 311.415C142.778 313.336 142.894 315.025 144.369 316.189C146.756 318.032 150.132 317.023 151.917 313.899ZM222.566 222.701C218.394 223.963 214.339 228.367 213.058 232.985C212.302 235.799 212.748 240.747 213.893 242.26C215.755 244.725 217.541 245.365 222.411 245.346C231.919 245.287 240.185 241.232 241.155 236.148C241.931 231.996 238.303 226.252 233.296 223.71C229.896 222.33 226.165 221.979 222.566 222.701ZM233.704 231.336C235.159 229.26 234.519 227.028 232.016 225.515C227.281 222.624 220.082 225.01 220.082 229.473C220.082 231.705 223.827 234.13 227.262 234.13C229.552 234.13 232.695 232.772 233.704 231.336Z" fill="#E1005F"/>
</svg>
