<svg width="512" height="512" viewBox="0 0 512 512" fill="none"
  xmlns="http://www.w3.org/2000/svg">
  <g clip-path="url(#clip0_2314_43)">
    <circle cx="256" cy="256" r="256" fill="#F8F6D7"/>
    <path d="M386 124.5V227.457C346.197 244.851 302.229 254.493 256 254.493C209.771 254.493 165.803 244.845 126 227.457V124.5H126.013C165.816 141.895 209.784 151.537 256 151.537C302.216 151.537 346.184 141.888 385.987 124.5H386Z" fill="#231F20"/>
    <path d="M386 387.102V284.145C346.197 266.75 302.229 257.108 256 257.108C209.771 257.108 165.803 266.757 126 284.145V387.102H126.013C165.816 369.707 209.784 360.065 256 360.065C302.216 360.065 346.184 369.713 385.987 387.102H386Z" fill="#231F20"/>
  </g>
  <defs>
    <clipPath id="clip0_2314_43">
      <rect width="512" height="512" fill="white"/>
    </clipPath>
  </defs>
</svg>
