<svg width="512" height="512" viewBox="0 0 512 512" fill="none" xmlns="http://www.w3.org/2000/svg">
<rect width="512" height="512" fill="#202020"/>
<path d="M214.032 166.227C218.911 157.778 224.578 154.258 230.332 153.916C242.003 153.144 268.097 172.362 259.842 183.773L275.307 210.753C285.188 219.033 295.193 225.555 305.445 229.886C303.529 237.909 307.991 240.784 312.491 243.614C306.489 233.106 318.243 227.269 324.577 237.695C331.122 246.874 332.875 256.399 328.955 263.819C323.16 274.93 307.612 283.164 300.567 293.503C314.911 280.507 334.207 281.965 341.837 266.863C346.588 257.511 334.708 229.801 329.165 220.449C320.576 206.079 309.864 210.239 308.654 214.873C297.274 208.652 287.145 198.786 276.807 190.548C281.642 186.303 284.395 180.169 279.103 176.864C268.263 170.003 255.676 149.498 239.335 145.506C237.708 145.104 236.051 144.886 234.404 144.886C225.887 144.886 217.558 150.662 214.032 166.227Z" fill="#4E4B66"/>
<path d="M241.919 411C254.751 411 267.259 409.276 279.114 406.079C206.131 425.697 161.521 342.138 216.992 283.379C196.565 277.847 183.438 257.255 184.728 232.675C74.5151 313.492 126.789 411 241.919 411ZM279.136 406.072C279.25 406.042 279.363 406.013 279.477 405.981C279.364 406.01 279.248 406.043 279.136 406.072ZM279.114 406.079C279.123 406.077 279.127 406.075 279.136 406.072C279.129 406.075 279.121 406.077 279.114 406.079Z" fill="#C19CFC"/>
<path d="M255.548 143.92C260.304 147.009 264.761 151.127 268.888 155.287C307.53 146.837 283.102 109.429 303.194 94.8027C277.809 103.639 293.774 145.076 255.548 143.92Z" fill="#C19CFC"/>
<path d="M192.315 174.25L214.032 166.227C208.738 122.471 268.93 104.712 248.588 61C247.713 110.502 187.437 111.618 192.315 174.25Z" fill="#C19CFC"/>
<path d="M247.297 269.225C258.091 264.249 268.847 257.512 279.643 260.686C267.803 252.924 253.258 256.656 238.583 257.685C218.867 259.057 198.86 257.34 184.728 232.675C190.732 263.861 218.535 282.479 247.297 269.225Z" fill="#C19CFC"/>
<path d="M239.377 110.417C227.078 126.891 211.198 142.849 214.032 166.227C218.242 147.651 229.291 143.018 239.335 145.505C255.676 149.497 268.263 170.002 279.103 176.864C284.395 180.168 281.642 186.303 276.807 190.548C287.145 198.785 297.274 208.651 308.654 214.872C309.864 210.239 320.577 206.079 329.165 220.449C334.709 229.801 346.588 257.51 341.837 266.862C334.208 281.965 314.911 280.506 300.567 293.502C291.814 277.289 274.309 273.168 256.592 270.553C263.805 265.019 271.14 260.043 279.643 260.685C268.847 257.51 258.092 264.247 247.297 269.224C218.535 282.478 190.733 263.861 184.728 232.674C183.438 257.255 196.566 277.847 216.992 283.379C161.428 342.235 206.28 425.972 279.477 405.981C341.921 388.906 387.983 330.353 387.983 260.685C387.983 198.914 351.757 145.85 299.986 122.728C302.363 136.412 305.363 149.623 281.394 167.727C273.849 161.206 265.429 150.313 255.549 143.92C277.85 144.607 281.685 130.793 286.104 117.409C271.865 112.755 257 110.393 242.06 110.393C241.166 110.393 240.271 110.401 239.377 110.417ZM238.335 184.373C241.085 184.928 243.879 187.246 246.422 189.862C250.549 194.11 254.468 194.841 259.468 190.378L275.307 210.752L259.842 183.772C259.634 185.918 257.925 186.431 255.842 186.303C252.217 186.074 247.643 183.472 242.844 183.47C241.356 183.47 239.845 183.721 238.335 184.373ZM312.491 243.613C315.035 239.195 318.492 236.32 324.578 237.695C322.24 233.845 319.163 232.213 316.514 232.213C311.983 232.213 308.704 236.983 312.491 243.613Z" fill="#C19CFC"/>
<path d="M228.122 125.089C219.326 136.97 212.073 149.758 214.032 166.229C218.242 147.653 229.291 143.02 239.335 145.508C255.676 149.5 268.263 170.005 279.103 176.866C284.395 180.17 281.642 186.305 276.807 190.55C287.145 198.787 297.274 208.654 308.654 214.875C309.864 210.241 320.577 206.081 329.165 220.451C334.709 229.803 346.588 257.513 341.837 266.865C334.208 281.967 314.911 280.508 300.567 293.505C291.814 277.291 274.309 273.171 256.592 270.556C263.805 265.021 271.14 260.046 279.643 260.688C268.847 257.513 258.092 264.25 247.297 269.226C218.535 282.481 190.733 263.863 184.728 232.676C183.438 257.257 196.566 277.849 216.992 283.381C180.811 321.69 187.189 370.549 216.24 394.485C297.693 410.957 374.393 346.997 374.393 260.688C374.393 207.411 344.713 161.295 301.403 138.86C300.61 147.483 296.025 156.705 281.394 167.73C273.849 161.208 265.429 150.316 255.549 143.923C270.347 144.352 277.057 138.433 281.143 130.45C268.432 126.4 255.144 124.365 241.846 124.365C237.265 124.365 232.683 124.605 228.122 125.089Z" fill="#202020"/>
<path d="M216.992 283.379C161.428 342.235 206.28 425.972 279.477 405.981C195.735 409.754 204.028 311.864 257.135 284.023C276.225 286.683 295.898 290.074 305.363 307.573C319.66 294.621 338.959 296.035 346.629 280.933C349.715 274.887 345.797 261.118 341.169 249.617C343.003 256.699 343.71 263.218 341.837 266.863C334.208 281.965 314.911 280.506 300.567 293.502C291.814 277.289 274.309 273.168 256.592 270.553C263.805 265.02 271.14 260.043 279.643 260.685C268.847 257.511 258.092 264.248 247.297 269.224C218.535 282.478 190.733 263.861 184.728 232.674C183.438 257.255 196.566 277.847 216.992 283.379Z" fill="#262338"/>
<path d="M203.74 170.064L219.913 164.258C214.62 120.502 273.373 113.401 252.841 72.8643C252.841 113.401 196.615 111.193 203.74 170.064Z" fill="#202020"/>
</svg>
