<svg width="512" height="512" viewBox="0 0 512 512" fill="none" xmlns="http://www.w3.org/2000/svg">
<rect y="512" width="512" height="512" transform="rotate(-90 0 512)" fill="url(#paint0_linear_1668_8)"/>
<path d="M201.479 96.0427C216.074 96.0427 230.669 96.0722 245.263 96.0001C246.795 95.9935 247.021 96.4724 247.018 97.8338C246.976 116.745 247.012 135.66 246.953 154.572C246.946 156.183 247.395 156.567 248.954 156.534C256.328 156.383 263.706 156.416 271.011 157.639C278.327 158.866 285.432 160.854 292.259 163.78C305.21 169.334 316.396 177.368 325.811 187.839C334.015 196.965 340.343 207.256 344.772 218.724C347.409 225.554 349.354 232.571 350.437 239.791C351.533 247.09 351.857 254.438 351.428 261.839C351.1 267.468 350.378 273.025 349.18 278.513C347.793 284.884 345.811 291.09 343.2 297.074C337.528 310.061 329.59 321.451 319.181 331.108C310.13 339.509 299.853 345.949 288.306 350.295C276.955 354.57 265.169 356.509 253.048 356.007C234.001 355.219 216.838 349.059 201.528 337.676C189.886 329.019 180.681 318.242 173.72 305.577C169.479 297.858 166.402 289.65 164.223 281.078C161.235 269.308 160.858 257.348 161.097 245.322C161.13 243.636 160.723 243.176 158.981 243.183C138.702 243.249 118.422 243.196 98.1426 243.265C96.4171 243.272 96.1087 242.77 96.112 241.169C96.1612 213.62 95.7413 186.061 96.2694 158.522C96.7582 133.013 108.863 114.2 131.58 102.426C140.253 97.9322 149.635 96.1247 159.336 96.0624C173.382 95.9738 187.432 96.0394 201.479 96.0394V96.0427Z" fill="#01F097"/>
<path d="M124.124 252.555C132.813 252.555 141.507 252.591 150.196 252.522C151.6 252.512 151.86 252.932 151.85 254.251C151.686 278.3 158.043 300.433 171.795 320.237C186.694 341.694 206.649 356.41 232.174 362.367C267.311 370.568 298.675 362.348 325.45 338.109C343.571 321.703 354.715 301.04 358.907 277.047C365.537 239.105 355.886 205.665 329.016 177.778C313.936 162.127 295.385 152.519 273.905 148.71C268.508 147.755 263.076 147.273 257.607 147.201C256.561 147.188 256.371 146.893 256.371 145.915C256.403 129.736 256.403 113.557 256.377 97.3778C256.377 96.456 256.449 96.0788 257.575 96.0854C281.19 96.2855 303.868 100.862 325.378 110.732C349.446 121.778 369.355 137.99 385.045 159.335C399.853 179.477 409.17 201.981 413.487 226.554C416.446 243.399 416.741 260.34 414.641 277.319C411.722 300.932 404.298 322.992 391.675 343.206C374.525 370.677 350.965 390.687 321.136 403.284C306.715 409.373 291.678 413.08 276.129 414.815C263.479 416.225 250.814 416.33 238.171 415.008C205.924 411.639 176.863 400.335 151.899 379.383C127.791 359.149 111.71 333.634 102.886 303.484C98.4345 288.233 96.3383 272.648 96.2202 256.784C96.1874 252.552 96.2268 252.552 100.347 252.552C108.273 252.552 116.198 252.552 124.124 252.552V252.555Z" fill="#303233"/>
<defs>
<linearGradient id="paint0_linear_1668_8" x1="512" y1="768" x2="-2.68966e-06" y2="768" gradientUnits="userSpaceOnUse">
<stop stop-color="#ECFDF5"/>
<stop offset="1" stop-color="#E7FAF8"/>
</linearGradient>
</defs>
</svg>
