<svg width="209" height="52" viewBox="0 0 209 52" fill="none" xmlns="http://www.w3.org/2000/svg">
<g id="Greylock logo">
<path id="Fill-1" fill-rule="evenodd" clip-rule="evenodd" d="M134.103 36.7981C127.923 36.7981 122.894 31.5656 122.894 25.1225C122.894 18.6793 127.923 13.4387 134.103 13.4387C140.283 13.4387 145.32 18.6875 145.32 25.1225C145.32 31.5575 140.291 36.7981 134.119 36.7981H134.103ZM134.103 9.98561C125.996 9.98561 119.408 16.7781 119.408 25.1387C119.408 33.4993 126.004 40.2918 134.103 40.2918C142.202 40.2918 148.798 33.4912 148.798 25.1387C148.798 16.7862 142.202 9.98561 134.103 9.98561ZM103.798 10.7981H107.537L93.7234 46.2149C93.0655 47.9229 91.9008 49.3912 90.3842 50.4245C88.8675 51.4578 87.0708 52.0073 85.2328 51.9999H83.2734V48.5224H85.2655C86.3995 48.5269 87.508 48.1881 88.4441 47.5511C89.3802 46.9141 90.0996 46.0089 90.5068 44.9556L92.6376 39.4956L81.412 10.8062H85.1512L94.4745 34.7018L103.798 10.7981ZM209 39.3818H204.289L191.717 25.5693L190.394 26.8125V39.3818H186.908V0H190.394V22.5875L203.204 10.8794H207.759L194.305 23.2212L209 39.3818ZM156.554 25.1225C156.554 31.5656 161.575 36.7981 167.763 36.7981C169.993 36.7684 172.164 36.0787 173.999 34.817C175.834 33.5552 177.25 31.7785 178.066 29.7131H181.765C180.872 32.7317 179.03 35.3861 176.51 37.287C173.99 39.1879 170.925 40.2353 167.763 40.2756C159.656 40.2756 153.068 33.475 153.068 25.1225C153.068 16.77 159.665 9.96936 167.763 9.96936C170.954 10.0109 174.046 11.0776 176.578 13.0103C179.11 14.943 180.946 17.6383 181.814 20.6943H178.124C177.33 18.5881 175.917 16.769 174.069 15.4745C172.221 14.1801 170.023 13.4706 167.763 13.4387C161.575 13.4387 156.554 18.6793 156.554 25.1225ZM110.925 39.3818H114.419V0H110.925V39.3818ZM14.6953 36.7981C8.51512 36.7981 3.48605 31.5656 3.48605 25.1225C3.48605 18.6793 8.51512 13.4387 14.6953 13.4387C20.8755 13.4387 25.9046 18.6875 25.9046 25.1225C25.9046 31.5575 20.8755 36.7981 14.6953 36.7981ZM25.9046 15.34C24.5552 13.6714 22.8488 12.3234 20.9096 11.3943C18.9705 10.4652 16.8475 9.97839 14.6953 9.96936C6.5884 9.96936 0 16.7619 0 25.1225C0 33.4831 6.5884 40.2756 14.6953 40.2756C16.8448 40.2705 18.9662 39.7887 20.9052 38.8653C22.8442 37.9419 24.552 36.6001 25.9046 34.9375V36.2537C25.9241 39.3288 24.7171 42.2861 22.5482 44.4766C20.3794 46.667 17.426 47.9117 14.3361 47.9374C12.6678 47.937 11.0198 47.5731 9.50787 46.8713C7.99593 46.1694 6.6567 45.1467 5.58422 43.8749H1.33891C2.64971 46.1559 4.54113 48.0529 6.82279 49.3752C9.10445 50.6974 11.6958 51.3981 14.3361 51.4068C18.3556 51.3789 22.1994 49.7635 25.0224 46.9159C27.8455 44.0683 29.4167 40.2214 29.3906 36.2212V10.8062H25.9046V15.34ZM39.7835 14.6169C40.9625 13.3611 42.3866 12.3582 43.9687 11.6694C45.5508 10.9807 47.2575 10.6206 48.9844 10.6112V14.0887C46.531 14.0995 44.1816 15.0764 42.4499 16.806C40.7181 18.5355 39.7448 20.877 39.7427 23.3187V39.3818H36.2566V10.8062H39.7427L39.7835 14.6169ZM64.6104 13.4387C67.3337 13.4318 69.974 14.3712 72.0756 16.0949C74.1772 17.8185 75.6083 20.2183 76.1217 22.88H53.0664C53.5915 20.2239 55.0258 17.8313 57.1248 16.1097C59.2238 14.3881 61.8578 13.4442 64.5777 13.4387H64.6104ZM79.8772 26.3493L79.8119 24.5537C79.6826 20.5768 77.985 16.8105 75.0866 14.0697C72.1881 11.329 68.3218 9.8343 64.3244 9.90906C60.327 9.98382 56.5199 11.622 53.7269 14.4692C50.934 17.3164 49.3798 21.1435 49.4007 25.1225C49.4481 29.176 51.1067 33.0459 54.0136 35.8857C56.9206 38.7254 60.8392 40.3038 64.9125 40.2756C67.9693 40.2809 70.9604 39.393 73.5147 37.7218C76.0691 36.0507 78.0742 33.6699 79.2812 30.875H75.3788C74.3011 32.6835 72.7682 34.181 70.9313 35.2197C69.0944 36.2585 67.017 36.8025 64.9043 36.7981C61.9643 36.828 59.1162 35.7791 56.904 33.8517C54.6918 31.9243 53.2704 29.2535 52.9113 26.3493H79.8527H79.8772Z" fill="black"/>
</g>
</svg>
