<svg width="16" height="17" viewBox="0 0 16 17" fill="none" xmlns="http://www.w3.org/2000/svg">
<path d="M15.9883 1.68126C15.9698 1.37651 15.8404 1.08908 15.6245 0.873198C15.4086 0.657313 15.1212 0.527902 14.8164 0.509383C13.8336 0.450789 11.3219 0.540633 9.2375 2.62423L8.86641 3.00001H4.30938C4.14459 2.99908 3.98127 3.03093 3.82891 3.09369C3.67655 3.15646 3.53819 3.2489 3.42188 3.36563L0.742188 6.04688C0.57785 6.21111 0.462533 6.41788 0.409179 6.644C0.355825 6.87012 0.366544 7.10664 0.440135 7.32701C0.513726 7.54737 0.647275 7.74287 0.825795 7.89156C1.00431 8.04024 1.22074 8.13623 1.45078 8.16876L4.45625 8.58829L7.91016 12.0422L8.32969 15.0492C8.36195 15.2793 8.45792 15.4957 8.60674 15.6741C8.75557 15.8525 8.95132 15.9857 9.17188 16.0586C9.30033 16.1015 9.43488 16.1234 9.57031 16.1234C9.73431 16.1238 9.89674 16.0916 10.0483 16.0289C10.1998 15.9661 10.3374 15.874 10.4531 15.7578L13.1344 13.0781C13.2511 12.9618 13.3435 12.8235 13.4063 12.6711C13.4691 12.5187 13.5009 12.3554 13.5 12.1906V7.6336L13.8727 7.26095C15.957 5.17657 16.0469 2.66485 15.9883 1.68126ZM4.30938 4.25001H7.61641L4.52813 7.33751L1.625 6.93282L4.30938 4.25001ZM10.1227 3.51173C10.7232 2.90746 11.4458 2.43829 12.2422 2.13557C13.0385 1.83284 13.8903 1.70353 14.7406 1.75626C14.7954 2.60702 14.6674 3.45966 14.3653 4.25686C14.0632 5.05405 13.5939 5.77735 12.9891 6.37813L8.5 10.8656L5.63438 8.00001L10.1227 3.51173ZM12.25 12.1906L9.56797 14.875L9.1625 11.9711L12.25 8.8836V12.1906ZM6.45625 12.9328C6.10469 13.7031 4.92891 15.5 1.625 15.5C1.45924 15.5 1.30027 15.4342 1.18306 15.317C1.06585 15.1997 1 15.0408 1 14.875C1 11.5711 2.79688 10.3953 3.56719 10.043C3.64188 10.0089 3.72254 9.9899 3.80458 9.98701C3.88662 9.98413 3.96843 9.99743 4.04532 10.0262C4.12222 10.0549 4.19271 10.0985 4.25276 10.1544C4.31281 10.2104 4.36125 10.2777 4.39531 10.3524C4.42937 10.427 4.44839 10.5077 4.45128 10.5897C4.45416 10.6718 4.44086 10.7536 4.41214 10.8305C4.38341 10.9074 4.33981 10.9779 4.28385 11.0379C4.22788 11.098 4.16063 11.1464 4.08594 11.1805C3.58359 11.4094 2.475 12.1461 2.27969 14.2203C4.35391 14.025 5.09219 12.9164 5.31953 12.4141C5.35359 12.3394 5.40203 12.2721 5.46208 12.2162C5.52214 12.1602 5.59262 12.1166 5.66952 12.0879C5.74642 12.0591 5.82822 12.0458 5.91026 12.0487C5.9923 12.0516 6.07297 12.0706 6.14766 12.1047C6.22235 12.1388 6.2896 12.1872 6.34556 12.2472C6.40153 12.3073 6.44513 12.3778 6.47385 12.4547C6.50258 12.5316 6.51588 12.6134 6.513 12.6954C6.51011 12.7775 6.49109 12.8581 6.45703 12.9328H6.45625Z" fill="black"/>
</svg>
