<svg width="24" height="24" viewBox="0 0 24 24" fill="none" xmlns="http://www.w3.org/2000/svg">
<path d="M20.75 18.2501H19.5V9.50008C19.5 9.16856 19.3683 8.85062 19.1339 8.6162C18.8995 8.38178 18.5815 8.25008 18.25 8.25008H13.25V4.50008C13.2501 4.27372 13.1888 4.05158 13.0726 3.85735C12.9563 3.66312 12.7895 3.5041 12.59 3.39726C12.3904 3.29042 12.1656 3.23978 11.9395 3.25073C11.7134 3.26169 11.4945 3.33383 11.3063 3.45946L5.05625 7.62508C4.8848 7.73947 4.74429 7.89448 4.64724 8.07632C4.55019 8.25815 4.49961 8.46116 4.5 8.66727V18.2501H3.25C3.08424 18.2501 2.92527 18.3159 2.80806 18.4331C2.69085 18.5503 2.625 18.7093 2.625 18.8751C2.625 19.0408 2.69085 19.1998 2.80806 19.317C2.92527 19.4342 3.08424 19.5001 3.25 19.5001H20.75C20.9158 19.5001 21.0747 19.4342 21.1919 19.317C21.3092 19.1998 21.375 19.0408 21.375 18.8751C21.375 18.7093 21.3092 18.5503 21.1919 18.4331C21.0747 18.3159 20.9158 18.2501 20.75 18.2501ZM18.25 9.50008V18.2501H13.25V9.50008H18.25ZM5.75 8.66727L12 4.50008V18.2501H5.75V8.66727ZM10.75 10.7501V12.0001C10.75 12.1658 10.6842 12.3248 10.5669 12.442C10.4497 12.5592 10.2908 12.6251 10.125 12.6251C9.95924 12.6251 9.80027 12.5592 9.68306 12.442C9.56585 12.3248 9.5 12.1658 9.5 12.0001V10.7501C9.5 10.5843 9.56585 10.4253 9.68306 10.3081C9.80027 10.1909 9.95924 10.1251 10.125 10.1251C10.2908 10.1251 10.4497 10.1909 10.5669 10.3081C10.6842 10.4253 10.75 10.5843 10.75 10.7501ZM8.25 10.7501V12.0001C8.25 12.1658 8.18415 12.3248 8.06694 12.442C7.94973 12.5592 7.79076 12.6251 7.625 12.6251C7.45924 12.6251 7.30027 12.5592 7.18306 12.442C7.06585 12.3248 7 12.1658 7 12.0001V10.7501C7 10.5843 7.06585 10.4253 7.18306 10.3081C7.30027 10.1909 7.45924 10.1251 7.625 10.1251C7.79076 10.1251 7.94973 10.1909 8.06694 10.3081C8.18415 10.4253 8.25 10.5843 8.25 10.7501ZM8.25 15.1251V16.3751C8.25 16.5408 8.18415 16.6998 8.06694 16.817C7.94973 16.9342 7.79076 17.0001 7.625 17.0001C7.45924 17.0001 7.30027 16.9342 7.18306 16.817C7.06585 16.6998 7 16.5408 7 16.3751V15.1251C7 14.9593 7.06585 14.8003 7.18306 14.6831C7.30027 14.5659 7.45924 14.5001 7.625 14.5001C7.79076 14.5001 7.94973 14.5659 8.06694 14.6831C8.18415 14.8003 8.25 14.9593 8.25 15.1251ZM10.75 15.1251V16.3751C10.75 16.5408 10.6842 16.6998 10.5669 16.817C10.4497 16.9342 10.2908 17.0001 10.125 17.0001C9.95924 17.0001 9.80027 16.9342 9.68306 16.817C9.56585 16.6998 9.5 16.5408 9.5 16.3751V15.1251C9.5 14.9593 9.56585 14.8003 9.68306 14.6831C9.80027 14.5659 9.95924 14.5001 10.125 14.5001C10.2908 14.5001 10.4497 14.5659 10.5669 14.6831C10.6842 14.8003 10.75 14.9593 10.75 15.1251Z" fill="white"/>
</svg>
